  0
SECTION
  2
HEADER
  9
$ACADVER
  1
AC1024
  9
$ACADMAINTVER
 70
     6
  9
$DWGCODEPAGE
  3
ANSI_1252
  9
$INSBASE
 10
0.0
 20
0.0
 30
0.0
  9
$EXTMIN
 10
1.000000000000000E+20
 20
1.000000000000000E+20
 30
1.000000000000000E+20
  9
$EXTMAX
 10
-1.000000000000000E+20
 20
-1.000000000000000E+20
 30
-1.000000000000000E+20
  9
$LIMMIN
 10
0.0
 20
0.0
  9
$LIMMAX
 10
12.0
 20
9.0
  9
$ORTHOMODE
 70
     0
  9
$REGENMODE
 70
     1
  9
$FILLMODE
 70
     1
  9
$QTEXTMODE
 70
     0
  9
$MIRRTEXT
 70
     1
  9
$LTSCALE
 40
1.0
  9
$ATTMODE
 70
     1
  9
$TEXTSIZE
 40
0.2
  9
$TRACEWID
 40
0.05
  9
$TEXTSTYLE
  7
Standard
  9
$CLAYER
  8
0
  9
$CELTYPE
  6
ByLayer
  9
$CECOLOR
 62
   256
  9
$CELTSCALE
 40
1.0
  9
$DISPSILH
 70
     0
  9
$DIMSCALE
 40
1.0
  9
$DIMASZ
 40
0.18
  9
$DIMEXO
 40
0.0625
  9
$DIMDLI
 40
0.38
  9
$DIMRND
 40
0.0
  9
$DIMDLE
 40
0.0
  9
$DIMEXE
 40
0.18
  9
$DIMTP
 40
0.0
  9
$DIMTM
 40
0.0
  9
$DIMTXT
 40
0.18
  9
$DIMCEN
 40
0.09
  9
$DIMTSZ
 40
0.0
  9
$DIMTOL
 70
     0
  9
$DIMLIM
 70
     0
  9
$DIMTIH
 70
     1
  9
$DIMTOH
 70
     1
  9
$DIMSE1
 70
     0
  9
$DIMSE2
 70
     0
  9
$DIMTAD
 70
     0
  9
$DIMZIN
 70
     0
  9
$DIMBLK
  1

  9
$DIMASO
 70
     1
  9
$DIMSHO
 70
     1
  9
$DIMPOST
  1

  9
$DIMAPOST
  1

  9
$DIMALT
 70
     0
  9
$DIMALTD
 70
     2
  9
$DIMALTF
 40
25.4
  9
$DIMLFAC
 40
1.0
  9
$DIMTOFL
 70
     0
  9
$DIMTVP
 40
0.0
  9
$DIMTIX
 70
     0
  9
$DIMSOXD
 70
     0
  9
$DIMSAH
 70
     0
  9
$DIMBLK1
  1

  9
$DIMBLK2
  1

  9
$DIMSTYLE
  2
Standard
  9
$DIMCLRD
 70
     0
  9
$DIMCLRE
 70
     0
  9
$DIMCLRT
 70
     0
  9
$DIMTFAC
 40
1.0
  9
$DIMGAP
 40
0.09
  9
$DIMJUST
 70
     0
  9
$DIMSD1
 70
     0
  9
$DIMSD2
 70
     0
  9
$DIMTOLJ
 70
     1
  9
$DIMTZIN
 70
     0
  9
$DIMALTZ
 70
     0
  9
$DIMALTTZ
 70
     0
  9
$DIMUPT
 70
     0
  9
$DIMDEC
 70
     4
  9
$DIMTDEC
 70
     4
  9
$DIMALTU
 70
     2
  9
$DIMALTTD
 70
     2
  9
$DIMTXSTY
  7
Standard
  9
$DIMAUNIT
 70
     0
  9
$DIMADEC
 70
     0
  9
$DIMALTRND
 40
0.0
  9
$DIMAZIN
 70
     0
  9
$DIMDSEP
 70
    46
  9
$DIMATFIT
 70
     3
  9
$DIMFRAC
 70
     0
  9
$DIMLDRBLK
  1

  9
$DIMLUNIT
 70
     2
  9
$DIMLWD
 70
    -2
  9
$DIMLWE
 70
    -2
  9
$DIMTMOVE
 70
     0
  9
$DIMFXL
 40
1.0
  9
$DIMFXLON
 70
     0
  9
$DIMJOGANG
 40
0.7853981633974483
  9
$DIMTFILL
 70
     0
  9
$DIMTFILLCLR
 70
     0
  9
$DIMARCSYM
 70
     0
  9
$DIMLTYPE
  6

  9
$DIMLTEX1
  6

  9
$DIMLTEX2
  6

  9
$DIMTXTDIRECTION
 70
     0
  9
$LUNITS
 70
     2
  9
$LUPREC
 70
     4
  9
$SKETCHINC
 40
0.1
  9
$FILLETRAD
 40
0.5
  9
$AUNITS
 70
     0
  9
$AUPREC
 70
     0
  9
$MENU
  1
.
  9
$ELEVATION
 40
0.0
  9
$PELEVATION
 40
0.0
  9
$THICKNESS
 40
0.0
  9
$LIMCHECK
 70
     0
  9
$CHAMFERA
 40
0.5
  9
$CHAMFERB
 40
0.5
  9
$CHAMFERC
 40
1.0
  9
$CHAMFERD
 40
0.0
  9
$SKPOLY
 70
     0
  9
$TDCREATE
 40
2459620.675803808
  9
$TDUCREATE
 40
2459620.967470475
  9
$TDUPDATE
 40
2459620.675803912
  9
$TDUUPDATE
 40
2459620.967470579
  9
$TDINDWG
 40
0.0000000116
  9
$TDUSRTIMER
 40
0.0000000116
  9
$USRTIMER
 70
     1
  9
$ANGBASE
 50
0.0
  9
$ANGDIR
 70
     0
  9
$PDMODE
 70
     0
  9
$PDSIZE
 40
0.0
  9
$PLINEWID
 40
0.0
  9
$SPLFRAME
 70
     0
  9
$SPLINETYPE
 70
     6
  9
$SPLINESEGS
 70
     8
  9
$HANDSEED
  5
35F
  9
$SURFTAB1
 70
     6
  9
$SURFTAB2
 70
     6
  9
$SURFTYPE
 70
     6
  9
$SURFU
 70
     6
  9
$SURFV
 70
     6
  9
$UCSBASE
  2

  9
$UCSNAME
  2

  9
$UCSORG
 10
0.0
 20
0.0
 30
0.0
  9
$UCSXDIR
 10
1.0
 20
0.0
 30
0.0
  9
$UCSYDIR
 10
0.0
 20
1.0
 30
0.0
  9
$UCSORTHOREF
  2

  9
$UCSORTHOVIEW
 70
     0
  9
$UCSORGTOP
 10
0.0
 20
0.0
 30
0.0
  9
$UCSORGBOTTOM
 10
0.0
 20
0.0
 30
0.0
  9
$UCSORGLEFT
 10
0.0
 20
0.0
 30
0.0
  9
$UCSORGRIGHT
 10
0.0
 20
0.0
 30
0.0
  9
$UCSORGFRONT
 10
0.0
 20
0.0
 30
0.0
  9
$UCSORGBACK
 10
0.0
 20
0.0
 30
0.0
  9
$PUCSBASE
  2

  9
$PUCSNAME
  2

  9
$PUCSORG
 10
0.0
 20
0.0
 30
0.0
  9
$PUCSXDIR
 10
1.0
 20
0.0
 30
0.0
  9
$PUCSYDIR
 10
0.0
 20
1.0
 30
0.0
  9
$PUCSORTHOREF
  2

  9
$PUCSORTHOVIEW
 70
     0
  9
$PUCSORGTOP
 10
0.0
 20
0.0
 30
0.0
  9
$PUCSORGBOTTOM
 10
0.0
 20
0.0
 30
0.0
  9
$PUCSORGLEFT
 10
0.0
 20
0.0
 30
0.0
  9
$PUCSORGRIGHT
 10
0.0
 20
0.0
 30
0.0
  9
$PUCSORGFRONT
 10
0.0
 20
0.0
 30
0.0
  9
$PUCSORGBACK
 10
0.0
 20
0.0
 30
0.0
  9
$USERI1
 70
     0
  9
$USERI2
 70
     0
  9
$USERI3
 70
     0
  9
$USERI4
 70
     0
  9
$USERI5
 70
     0
  9
$USERR1
 40
0.0
  9
$USERR2
 40
0.0
  9
$USERR3
 40
0.0
  9
$USERR4
 40
0.0
  9
$USERR5
 40
0.0
  9
$WORLDVIEW
 70
     1
  9
$SHADEDGE
 70
     3
  9
$SHADEDIF
 70
    70
  9
$TILEMODE
 70
     1
  9
$MAXACTVP
 70
    64
  9
$PINSBASE
 10
0.0
 20
0.0
 30
0.0
  9
$PLIMCHECK
 70
     0
  9
$PEXTMIN
 10
1.000000000000000E+20
 20
1.000000000000000E+20
 30
1.000000000000000E+20
  9
$PEXTMAX
 10
-1.000000000000000E+20
 20
-1.000000000000000E+20
 30
-1.000000000000000E+20
  9
$PLIMMIN
 10
0.0
 20
0.0
  9
$PLIMMAX
 10
12.0
 20
9.0
  9
$UNITMODE
 70
     0
  9
$VISRETAIN
 70
     1
  9
$PLINEGEN
 70
     0
  9
$PSLTSCALE
 70
     1
  9
$TREEDEPTH
 70
  3020
  9
$CMLSTYLE
  2
Standard
  9
$CMLJUST
 70
     0
  9
$CMLSCALE
 40
1.0
  9
$PROXYGRAPHICS
 70
     1
  9
$MEASUREMENT
 70
     0
  9
$CELWEIGHT
370
    -1
  9
$ENDCAPS
280
     0
  9
$JOINSTYLE
280
     0
  9
$LWDISPLAY
290
     1
  9
$INSUNITS
 70
     1
  9
$HYPERLINKBASE
  1

  9
$STYLESHEET
  1

  9
$XEDIT
290
     1
  9
$CEPSNTYPE
380
     0
  9
$PSTYLEMODE
290
     1
  9
$FINGERPRINTGUID
  2
{C873BE90-EB52-4B4E-A468-16F762A46CE5}
  9
$VERSIONGUID
  2
{FAEB1C32-E019-11D5-929B-00C0DF256EC4}
  9
$EXTNAMES
290
     1
  9
$PSVPSCALE
 40
0.0
  9
$OLESTARTUP
290
     0
  9
$SORTENTS
280
   127
  9
$INDEXCTL
280
     0
  9
$HIDETEXT
280
     1
  9
$XCLIPFRAME
280
     2
  9
$HALOGAP
280
     0
  9
$OBSCOLOR
 70
   257
  9
$OBSLTYPE
280
     0
  9
$INTERSECTIONDISPLAY
280
     0
  9
$INTERSECTIONCOLOR
 70
   257
  9
$DIMASSOC
280
     2
  9
$PROJECTNAME
  1

  9
$CAMERADISPLAY
290
     0
  9
$LENSLENGTH
 40
50.0
  9
$CAMERAHEIGHT
 40
0.0
  9
$STEPSPERSEC
 40
2.0
  9
$STEPSIZE
 40
6.0
  9
$3DDWFPREC
 40
2.0
  9
$PSOLWIDTH
 40
0.25
  9
$PSOLHEIGHT
 40
4.0
  9
$LOFTANG1
 40
1.570796326794897
  9
$LOFTANG2
 40
1.570796326794897
  9
$LOFTMAG1
 40
0.0
  9
$LOFTMAG2
 40
0.0
  9
$LOFTPARAM
 70
     7
  9
$LOFTNORMALS
280
     1
  9
$LATITUDE
 40
37.795
  9
$LONGITUDE
 40
-122.394
  9
$NORTHDIRECTION
 40
0.0
  9
$TIMEZONE
 70
 -8000
  9
$LIGHTGLYPHDISPLAY
280
     1
  9
$TILEMODELIGHTSYNCH
280
     1
  9
$CMATERIAL
347
3C
  9
$SOLIDHIST
280
     1
  9
$SHOWHIST
280
     1
  9
$DWFFRAME
280
     2
  9
$DGNFRAME
280
     2
  9
$REALWORLDSCALE
290
     1
  9
$INTERFERECOLOR
 62
   256
  9
$CSHADOW
280
     0
  9
$SHADOWPLANELOCATION
 40
0.0
  0
ENDSEC
  0
SECTION
  2
CLASSES
  0
CLASS
  1
ACDBDICTIONARYWDFLT
  2
AcDbDictionaryWithDefault
  3
ObjectDBX Classes
 90
        0
 91
        4
280
     0
281
     0
  0
CLASS
  1
VISUALSTYLE
  2
AcDbVisualStyle
  3
ObjectDBX Classes
 90
     4095
 91
        4
280
     0
281
     0
  0
CLASS
  1
MATERIAL
  2
AcDbMaterial
  3
ObjectDBX Classes
 90
     1153
 91
        4
280
     0
281
     0
  0
CLASS
  1
SUN
  2
AcDbSun
  3
SCENEOE
 90
     1024
 91
        4
280
     0
281
     0
  0
ENDSEC
  0
SECTION
  2
TABLES
  0
TABLE
  2
VPORT
  5
8
330
0
100
AcDbSymbolTable
 70
     1
  0
VPORT
  5
29
330
8
100
AcDbSymbolTableRecord
100
AcDbViewportTableRecord
  2
*Active
 70
     0
 10
0.0
 20
0.0
 11
1.0
 21
1.0
 12
0.0
 22
0.0
 13
0.0
 23
0.0
 14
0.5
 24
0.5
 15
0.5
 25
0.5
 16
0.0
 26
0.0
 36
1.0
 17
18.0
 27
-12.0
 37
0.0
 40
24.0
 41
1.5
 42
50.0
 43
0.0
 44
0.0
 50
0.0
 51
0.0
 71
     0
 72
   100
 73
     1
 74
     3
 75
     0
 76
     0
 77
     0
 78
     0
281
     0
 65
     1
110
0.0
120
0.0
130
0.0
111
1.0
121
0.0
131
0.0
112
0.0
122
1.0
132
0.0
 79
     0
146
0.0
 60
     3
 61
     5
292
     1
282
     1
141
0.0
142
0.0
 63
   250
361
3F
  0
ENDTAB
  0
TABLE
  2
LTYPE
  5
5
330
0
100
AcDbSymbolTable
 70
     1
  0
LTYPE
  5
14
330
5
100
AcDbSymbolTableRecord
100
AcDbLinetypeTableRecord
  2
ByBlock
 70
     0
  3

 72
    65
 73
     0
 40
0.0
  0
LTYPE
  5
15
330
5
100
AcDbSymbolTableRecord
100
AcDbLinetypeTableRecord
  2
ByLayer
 70
     0
  3

 72
    65
 73
     0
 40
0.0
  0
LTYPE
  5
16
330
5
100
AcDbSymbolTableRecord
100
AcDbLinetypeTableRecord
  2
Continuous
 70
     0
  3
Solid line
 72
    65
 73
     0
 40
0.0
  0
ENDTAB
  0
TABLE
  2
LAYER
  5
2
330
0
100
AcDbSymbolTable
 70
     2
  0
LAYER
  5
10
330
2
100
AcDbSymbolTableRecord
100
AcDbLayerTableRecord
  2
0
 70
     0
 62
     7
  6
Continuous
370
    -3
390
F
347
3E
  0
LAYER
  5
40
330
2
100
AcDbSymbolTableRecord
100
AcDbLayerTableRecord
  2
Layer 1
 70
     0
 62
     7
  6
Continuous
370
    -3
390
F
347
3E
  0
ENDTAB
  0
TABLE
  2
STYLE
  5
3
330
0
100
AcDbSymbolTable
 70
     1
  0
STYLE
  5
11
330
3
100
AcDbSymbolTableRecord
100
AcDbTextStyleTableRecord
  2
Standard
 70
     0
 40
0.0
 41
1.0
 50
0.0
 71
     0
 42
0.2
  3
txt
  4

  0
ENDTAB
  0
TABLE
  2
VIEW
  5
6
330
0
100
AcDbSymbolTable
 70
     0
  0
ENDTAB
  0
TABLE
  2
UCS
  5
7
330
0
100
AcDbSymbolTable
 70
     0
  0
ENDTAB
  0
TABLE
  2
APPID
  5
9
330
0
100
AcDbSymbolTable
 70
     1
  0
APPID
  5
12
330
9
100
AcDbSymbolTableRecord
100
AcDbRegAppTableRecord
  2
ACAD
 70
     0
  0
ENDTAB
  0
TABLE
  2
DIMSTYLE
  5
A
330
0
100
AcDbSymbolTable
 70
     1
100
AcDbDimStyleTable
  0
DIMSTYLE
105
27
330
A
100
AcDbSymbolTableRecord
100
AcDbDimStyleTableRecord
  2
Standard
 70
     0
178
     0
340
11
  0
ENDTAB
  0
TABLE
  2
BLOCK_RECORD
  5
1
330
0
100
AcDbSymbolTable
 70
    40
  0
BLOCK_RECORD
  5
1F
330
1
100
AcDbSymbolTableRecord
100
AcDbBlockTableRecord
  2
*Model_Space
340
22
 70
     0
280
     1
281
     0
  0
BLOCK_RECORD
  5
1B
330
1
100
AcDbSymbolTableRecord
100
AcDbBlockTableRecord
  2
*Paper_Space
340
1E
 70
     0
280
     1
281
     0
  0
BLOCK_RECORD
  5
23
330
1
100
AcDbSymbolTableRecord
100
AcDbBlockTableRecord
  2
*Paper_Space0
340
26
 70
     0
280
     1
281
     0
  0
BLOCK_RECORD
  5
41
330
1
100
AcDbSymbolTableRecord
100
AcDbBlockTableRecord
  2
block 2
340
0
102
{BLKREFS
331
42
102
}
 70
     0
280
     1
281
     0
  0
BLOCK_RECORD
  5
7C
330
1
100
AcDbSymbolTableRecord
100
AcDbBlockTableRecord
  2
block 3
340
0
102
{BLKREFS
331
7D
102
}
 70
     0
280
     1
281
     0
  0
BLOCK_RECORD
  5
87
330
1
100
AcDbSymbolTableRecord
100
AcDbBlockTableRecord
  2
block 4
340
0
102
{BLKREFS
331
88
102
}
 70
     0
280
     1
281
     0
  0
BLOCK_RECORD
  5
92
330
1
100
AcDbSymbolTableRecord
100
AcDbBlockTableRecord
  2
block 5
340
0
102
{BLKREFS
331
93
102
}
 70
     0
280
     1
281
     0
  0
BLOCK_RECORD
  5
9D
330
1
100
AcDbSymbolTableRecord
100
AcDbBlockTableRecord
  2
block 6
340
0
102
{BLKREFS
331
9E
102
}
 70
     0
280
     1
281
     0
  0
BLOCK_RECORD
  5
A8
330
1
100
AcDbSymbolTableRecord
100
AcDbBlockTableRecord
  2
block 7
340
0
102
{BLKREFS
331
A9
102
}
 70
     0
280
     1
281
     0
  0
BLOCK_RECORD
  5
B3
330
1
100
AcDbSymbolTableRecord
100
AcDbBlockTableRecord
  2
block 8
340
0
102
{BLKREFS
331
B4
102
}
 70
     0
280
     1
281
     0
  0
BLOCK_RECORD
  5
BE
330
1
100
AcDbSymbolTableRecord
100
AcDbBlockTableRecord
  2
block 9
340
0
102
{BLKREFS
331
BF
102
}
 70
     0
280
     1
281
     0
  0
BLOCK_RECORD
  5
C9
330
1
100
AcDbSymbolTableRecord
100
AcDbBlockTableRecord
  2
block 10
340
0
102
{BLKREFS
331
CA
102
}
 70
     0
280
     1
281
     0
  0
BLOCK_RECORD
  5
D4
330
1
100
AcDbSymbolTableRecord
100
AcDbBlockTableRecord
  2
block 11
340
0
102
{BLKREFS
331
D5
102
}
 70
     0
280
     1
281
     0
  0
BLOCK_RECORD
  5
DF
330
1
100
AcDbSymbolTableRecord
100
AcDbBlockTableRecord
  2
block 12
340
0
102
{BLKREFS
331
E0
102
}
 70
     0
280
     1
281
     0
  0
BLOCK_RECORD
  5
EA
330
1
100
AcDbSymbolTableRecord
100
AcDbBlockTableRecord
  2
block 13
340
0
102
{BLKREFS
331
EB
102
}
 70
     0
280
     1
281
     0
  0
BLOCK_RECORD
  5
F5
330
1
100
AcDbSymbolTableRecord
100
AcDbBlockTableRecord
  2
block 14
340
0
102
{BLKREFS
331
F6
102
}
 70
     0
280
     1
281
     0
  0
BLOCK_RECORD
  5
100
330
1
100
AcDbSymbolTableRecord
100
AcDbBlockTableRecord
  2
block 15
340
0
102
{BLKREFS
331
101
102
}
 70
     0
280
     1
281
     0
  0
BLOCK_RECORD
  5
10B
330
1
100
AcDbSymbolTableRecord
100
AcDbBlockTableRecord
  2
block 16
340
0
102
{BLKREFS
331
10C
102
}
 70
     0
280
     1
281
     0
  0
BLOCK_RECORD
  5
116
330
1
100
AcDbSymbolTableRecord
100
AcDbBlockTableRecord
  2
block 17
340
0
102
{BLKREFS
331
117
102
}
 70
     0
280
     1
281
     0
  0
BLOCK_RECORD
  5
121
330
1
100
AcDbSymbolTableRecord
100
AcDbBlockTableRecord
  2
block 18
340
0
102
{BLKREFS
331
122
102
}
 70
     0
280
     1
281
     0
  0
BLOCK_RECORD
  5
12C
330
1
100
AcDbSymbolTableRecord
100
AcDbBlockTableRecord
  2
block 19
340
0
102
{BLKREFS
331
12D
102
}
 70
     0
280
     1
281
     0
  0
BLOCK_RECORD
  5
187
330
1
100
AcDbSymbolTableRecord
100
AcDbBlockTableRecord
  2
block 20
340
0
102
{BLKREFS
331
188
102
}
 70
     0
280
     1
281
     0
  0
BLOCK_RECORD
  5
192
330
1
100
AcDbSymbolTableRecord
100
AcDbBlockTableRecord
  2
block 21
340
0
102
{BLKREFS
331
193
102
}
 70
     0
280
     1
281
     0
  0
BLOCK_RECORD
  5
19D
330
1
100
AcDbSymbolTableRecord
100
AcDbBlockTableRecord
  2
block 22
340
0
102
{BLKREFS
331
19E
102
}
 70
     0
280
     1
281
     0
  0
BLOCK_RECORD
  5
1A8
330
1
100
AcDbSymbolTableRecord
100
AcDbBlockTableRecord
  2
block 23
340
0
102
{BLKREFS
331
1A9
102
}
 70
     0
280
     1
281
     0
  0
BLOCK_RECORD
  5
1B3
330
1
100
AcDbSymbolTableRecord
100
AcDbBlockTableRecord
  2
block 24
340
0
102
{BLKREFS
331
1B4
102
}
 70
     0
280
     1
281
     0
  0
BLOCK_RECORD
  5
1CF
330
1
100
AcDbSymbolTableRecord
100
AcDbBlockTableRecord
  2
block 25
340
0
102
{BLKREFS
331
1D0
102
}
 70
     0
280
     1
281
     0
  0
BLOCK_RECORD
  5
1EB
330
1
100
AcDbSymbolTableRecord
100
AcDbBlockTableRecord
  2
block 26
340
0
102
{BLKREFS
331
1EC
102
}
 70
     0
280
     1
281
     0
  0
BLOCK_RECORD
  5
207
330
1
100
AcDbSymbolTableRecord
100
AcDbBlockTableRecord
  2
block 27
340
0
102
{BLKREFS
331
208
102
}
 70
     0
280
     1
281
     0
  0
BLOCK_RECORD
  5
223
330
1
100
AcDbSymbolTableRecord
100
AcDbBlockTableRecord
  2
block 28
340
0
102
{BLKREFS
331
224
102
}
 70
     0
280
     1
281
     0
  0
BLOCK_RECORD
  5
23F
330
1
100
AcDbSymbolTableRecord
100
AcDbBlockTableRecord
  2
block 29
340
0
102
{BLKREFS
331
240
102
}
 70
     0
280
     1
281
     0
  0
BLOCK_RECORD
  5
25B
330
1
100
AcDbSymbolTableRecord
100
AcDbBlockTableRecord
  2
block 30
340
0
102
{BLKREFS
331
25C
102
}
 70
     0
280
     1
281
     0
  0
BLOCK_RECORD
  5
277
330
1
100
AcDbSymbolTableRecord
100
AcDbBlockTableRecord
  2
block 31
340
0
102
{BLKREFS
331
278
102
}
 70
     0
280
     1
281
     0
  0
BLOCK_RECORD
  5
28E
330
1
100
AcDbSymbolTableRecord
100
AcDbBlockTableRecord
  2
block 32
340
0
102
{BLKREFS
331
28F
102
}
 70
     0
280
     1
281
     0
  0
BLOCK_RECORD
  5
2A5
330
1
100
AcDbSymbolTableRecord
100
AcDbBlockTableRecord
  2
block 33
340
0
102
{BLKREFS
331
2A6
102
}
 70
     0
280
     1
281
     0
  0
BLOCK_RECORD
  5
2BC
330
1
100
AcDbSymbolTableRecord
100
AcDbBlockTableRecord
  2
block 34
340
0
102
{BLKREFS
331
2BD
102
}
 70
     0
280
     1
281
     0
  0
BLOCK_RECORD
  5
2D3
330
1
100
AcDbSymbolTableRecord
100
AcDbBlockTableRecord
  2
block 35
340
0
102
{BLKREFS
331
2D4
102
}
 70
     0
280
     1
281
     0
  0
BLOCK_RECORD
  5
2EA
330
1
100
AcDbSymbolTableRecord
100
AcDbBlockTableRecord
  2
block 36
340
0
102
{BLKREFS
331
2EB
102
}
 70
     0
280
     1
281
     0
  0
BLOCK_RECORD
  5
301
330
1
100
AcDbSymbolTableRecord
100
AcDbBlockTableRecord
  2
block 37
340
0
102
{BLKREFS
331
302
102
}
 70
     0
280
     1
281
     0
  0
BLOCK_RECORD
  5
318
330
1
100
AcDbSymbolTableRecord
100
AcDbBlockTableRecord
  2
block 38
340
0
102
{BLKREFS
331
319
102
}
 70
     0
280
     1
281
     0
  0
BLOCK_RECORD
  5
32F
330
1
100
AcDbSymbolTableRecord
100
AcDbBlockTableRecord
  2
block 39
340
0
102
{BLKREFS
331
330
102
}
 70
     0
280
     1
281
     0
  0
BLOCK_RECORD
  5
346
330
1
100
AcDbSymbolTableRecord
100
AcDbBlockTableRecord
  2
block 40
340
0
102
{BLKREFS
331
347
102
}
 70
     0
280
     1
281
     0
  0
ENDTAB
  0
ENDSEC
  0
SECTION
  2
BLOCKS
  0
BLOCK
  5
20
330
1F
100
AcDbEntity
  8
0
100
AcDbBlockBegin
  2
*Model_Space
 70
     0
 10
0.0
 20
0.0
 30
0.0
  3
*Model_Space
  1

  0
ENDBLK
  5
21
330
1F
100
AcDbEntity
  8
0
100
AcDbBlockEnd
  0
BLOCK
  5
1C
330
1B
100
AcDbEntity
 67
     1
  8
0
100
AcDbBlockBegin
  2
*Paper_Space
 70
     0
 10
0.0
 20
0.0
 30
0.0
  3
*Paper_Space
  1

  0
ENDBLK
  5
1D
330
1B
100
AcDbEntity
 67
     1
  8
0
100
AcDbBlockEnd
  0
BLOCK
  5
24
330
23
100
AcDbEntity
  8
0
100
AcDbBlockBegin
  2
*Paper_Space0
 70
     0
 10
0.0
 20
0.0
 30
0.0
  3
*Paper_Space0
  1

  0
ENDBLK
  5
25
330
23
100
AcDbEntity
  8
0
100
AcDbBlockEnd
  0
BLOCK
  5
43
330
41
100
AcDbEntity
  8
0
100
AcDbBlockBegin
  2
block 2
 70
     0
 10
0.0
 20
0.0
 30
0.0
  3
block 2
  1

  0
POLYLINE
  5
45
330
41
100
AcDbEntity
  8
Layer 1
370
     0
100
AcDb2dPolyline
 66
     1
 10
0.0
 20
0.0
 30
0.0
  0
VERTEX
  5
46
330
45
100
AcDbEntity
  8
Layer 1
370
     0
100
AcDbVertex
100
AcDb2dVertex
 10
0.1944444445222062
 20
-1.801594446045
 30
0.0
  0
VERTEX
  5
47
330
45
100
AcDbEntity
  8
Layer 1
370
     0
100
AcDbVertex
100
AcDb2dVertex
 10
0.0694444445222062
 20
-1.801594446050608
 30
0.0
  0
VERTEX
  5
48
330
45
100
AcDbEntity
  8
Layer 1
370
     0
100
AcDbVertex
100
AcDb2dVertex
 10
0.0694444444444444
 20
-0.0694444460506373
 30
0.0
  0
VERTEX
  5
49
330
45
100
AcDbEntity
  8
Layer 1
370
     0
100
AcDbVertex
100
AcDb2dVertex
 10
30.56944444444444
 20
-0.069444444681292
 30
0.0
  0
VERTEX
  5
4A
330
45
100
AcDbEntity
  8
Layer 1
370
     0
100
AcDbVertex
100
AcDb2dVertex
 10
30.5694444445222
 20
-1.801594444681263
 30
0.0
  0
VERTEX
  5
4B
330
45
100
AcDbEntity
  8
Layer 1
370
     0
100
AcDbVertex
100
AcDb2dVertex
 10
30.4444444445222
 20
-1.801594444686872
 30
0.0
  0
VERTEX
  5
4C
330
45
100
AcDbEntity
  8
Layer 1
370
     0
100
AcDbVertex
100
AcDb2dVertex
 10
30.44444444459997
 20
-3.533754444686893
 30
0.0
  0
VERTEX
  5
4D
330
45
100
AcDbEntity
  8
Layer 1
370
     0
100
AcDbVertex
100
AcDb2dVertex
 10
30.56944444459997
 20
-3.533754444681285
 30
0.0
  0
VERTEX
  5
4E
330
45
100
AcDbEntity
  8
Layer 1
370
     0
100
AcDbVertex
100
AcDb2dVertex
 10
30.56944444467778
 20
-5.265904444681281
 30
0.0
  0
VERTEX
  5
4F
330
45
100
AcDbEntity
  8
Layer 1
370
     0
100
AcDbVertex
100
AcDb2dVertex
 10
30.44444444467778
 20
-5.26590444468689
 30
0.0
  0
VERTEX
  5
50
330
45
100
AcDbEntity
  8
Layer 1
370
     0
100
AcDbVertex
100
AcDb2dVertex
 10
30.44444444475554
 20
-6.997984444686885
 30
0.0
  0
VERTEX
  5
51
330
45
100
AcDbEntity
  8
Layer 1
370
     0
100
AcDbVertex
100
AcDb2dVertex
 10
30.56944444475554
 20
-6.997984444681277
 30
0.0
  0
VERTEX
  5
52
330
45
100
AcDbEntity
  8
Layer 1
370
     0
100
AcDbVertex
100
AcDb2dVertex
 10
30.5694444448333
 20
-8.730134444681273
 30
0.0
  0
VERTEX
  5
53
330
45
100
AcDbEntity
  8
Layer 1
370
     0
100
AcDbVertex
100
AcDb2dVertex
 10
30.4444444448333
 20
-8.730134444686882
 30
0.0
  0
VERTEX
  5
54
330
45
100
AcDbEntity
  8
Layer 1
370
     0
100
AcDbVertex
100
AcDb2dVertex
 10
30.44444444491106
 20
-10.46224444468689
 30
0.0
  0
VERTEX
  5
55
330
45
100
AcDbEntity
  8
Layer 1
370
     0
100
AcDbVertex
100
AcDb2dVertex
 10
30.56944444491106
 20
-10.46224444468127
 30
0.0
  0
VERTEX
  5
56
330
45
100
AcDbEntity
  8
Layer 1
370
     0
100
AcDbVertex
100
AcDb2dVertex
 10
30.56944444498322
 20
-12.06944444468127
 30
0.0
  0
VERTEX
  5
57
330
45
100
AcDbEntity
  8
Layer 1
370
     0
100
AcDbVertex
100
AcDb2dVertex
 10
28.22344444498322
 20
-12.06944444478659
 30
0.0
  0
VERTEX
  5
58
330
45
100
AcDbEntity
  8
Layer 1
370
     0
100
AcDbVertex
100
AcDb2dVertex
 10
28.22344444498882
 20
-12.19444444478659
 30
0.0
  0
VERTEX
  5
59
330
45
100
AcDbEntity
  8
Layer 1
370
     0
100
AcDbVertex
100
AcDb2dVertex
 10
25.87744444498882
 20
-12.19444444489192
 30
0.0
  0
VERTEX
  5
5A
330
45
100
AcDbEntity
  8
Layer 1
370
     0
100
AcDbVertex
100
AcDb2dVertex
 10
25.87744444498321
 20
-12.06944444489192
 30
0.0
  0
VERTEX
  5
5B
330
45
100
AcDbEntity
  8
Layer 1
370
     0
100
AcDbVertex
100
AcDb2dVertex
 10
23.53044444498321
 20
-12.06944444499729
 30
0.0
  0
VERTEX
  5
5C
330
45
100
AcDbEntity
  8
Layer 1
370
     0
100
AcDbVertex
100
AcDb2dVertex
 10
23.53044444498886
 20
-12.19444444499729
 30
0.0
  0
VERTEX
  5
5D
330
45
100
AcDbEntity
  8
Layer 1
370
     0
100
AcDbVertex
100
AcDb2dVertex
 10
21.18444444498886
 20
-12.19444444510262
 30
0.0
  0
VERTEX
  5
5E
330
45
100
AcDbEntity
  8
Layer 1
370
     0
100
AcDbVertex
100
AcDb2dVertex
 10
21.1844444449832
 20
-12.06944444510262
 30
0.0
  0
VERTEX
  5
5F
330
45
100
AcDbEntity
  8
Layer 1
370
     0
100
AcDbVertex
100
AcDb2dVertex
 10
18.8384444449832
 20
-12.06944444520794
 30
0.0
  0
VERTEX
  5
60
330
45
100
AcDbEntity
  8
Layer 1
370
     0
100
AcDbVertex
100
AcDb2dVertex
 10
18.83844444498886
 20
-12.19444444520794
 30
0.0
  0
VERTEX
  5
61
330
45
100
AcDbEntity
  8
Layer 1
370
     0
100
AcDbVertex
100
AcDb2dVertex
 10
16.49344444498882
 20
-12.19444444531321
 30
0.0
  0
VERTEX
  5
62
330
45
100
AcDbEntity
  8
Layer 1
370
     0
100
AcDbVertex
100
AcDb2dVertex
 10
16.49344444498318
 20
-12.06944444531321
 30
0.0
  0
VERTEX
  5
63
330
45
100
AcDbEntity
  8
Layer 1
370
     0
100
AcDbVertex
100
AcDb2dVertex
 10
14.14544444498323
 20
-12.06944444541864
 30
0.0
  0
VERTEX
  5
64
330
45
100
AcDbEntity
  8
Layer 1
370
     0
100
AcDbVertex
100
AcDb2dVertex
 10
14.14544444498884
 20
-12.19444444541864
 30
0.0
  0
VERTEX
  5
65
330
45
100
AcDbEntity
  8
Layer 1
370
     0
100
AcDbVertex
100
AcDb2dVertex
 10
11.80044444498881
 20
-12.19444444552391
 30
0.0
  0
VERTEX
  5
66
330
45
100
AcDbEntity
  8
Layer 1
370
     0
100
AcDbVertex
100
AcDb2dVertex
 10
11.80044444498317
 20
-12.06944444552391
 30
0.0
  0
VERTEX
  5
67
330
45
100
AcDbEntity
  8
Layer 1
370
     0
100
AcDbVertex
100
AcDb2dVertex
 10
9.45444444498317
 20
-12.06944444562926
 30
0.0
  0
VERTEX
  5
68
330
45
100
AcDbEntity
  8
Layer 1
370
     0
100
AcDbVertex
100
AcDb2dVertex
 10
9.45444444498883
 20
-12.19444444562926
 30
0.0
  0
VERTEX
  5
69
330
45
100
AcDbEntity
  8
Layer 1
370
     0
100
AcDbVertex
100
AcDb2dVertex
 10
7.108444444988827
 20
-12.19444444573456
 30
0.0
  0
VERTEX
  5
6A
330
45
100
AcDbEntity
  8
Layer 1
370
     0
100
AcDbVertex
100
AcDb2dVertex
 10
7.108444444983168
 20
-12.06944444573456
 30
0.0
  0
VERTEX
  5
6B
330
45
100
AcDbEntity
  8
Layer 1
370
     0
100
AcDbVertex
100
AcDb2dVertex
 10
4.761444444983188
 20
-12.06944444583996
 30
0.0
  0
VERTEX
  5
6C
330
45
100
AcDbEntity
  8
Layer 1
370
     0
100
AcDbVertex
100
AcDb2dVertex
 10
4.761444444988822
 20
-12.19444444583996
 30
0.0
  0
VERTEX
  5
6D
330
45
100
AcDbEntity
  8
Layer 1
370
     0
100
AcDbVertex
100
AcDb2dVertex
 10
2.415444444988819
 20
-12.19444444594526
 30
0.0
  0
VERTEX
  5
6E
330
45
100
AcDbEntity
  8
Layer 1
370
     0
100
AcDbVertex
100
AcDb2dVertex
 10
2.41544444498321
 20
-12.06944444594526
 30
0.0
  0
VERTEX
  5
6F
330
45
100
AcDbEntity
  8
Layer 1
370
     0
100
AcDbVertex
100
AcDb2dVertex
 10
0.0694444449832064
 20
-12.06944444605061
 30
0.0
  0
VERTEX
  5
70
330
45
100
AcDbEntity
  8
Layer 1
370
     0
100
AcDbVertex
100
AcDb2dVertex
 10
0.0694444449110405
 20
-10.46224444605063
 30
0.0
  0
VERTEX
  5
71
330
45
100
AcDbEntity
  8
Layer 1
370
     0
100
AcDbVertex
100
AcDb2dVertex
 10
0.1944444449110405
 20
-10.46224444604499
 30
0.0
  0
VERTEX
  5
72
330
45
100
AcDbEntity
  8
Layer 1
370
     0
100
AcDbVertex
100
AcDb2dVertex
 10
0.1944444448332787
 20
-8.730134446044998
 30
0.0
  0
VERTEX
  5
73
330
45
100
AcDbEntity
  8
Layer 1
370
     0
100
AcDbVertex
100
AcDb2dVertex
 10
0.0694444448332787
 20
-8.730134446050618
 30
0.0
  0
VERTEX
  5
74
330
45
100
AcDbEntity
  8
Layer 1
370
     0
100
AcDbVertex
100
AcDb2dVertex
 10
0.0694444447555043
 20
-6.997984446050623
 30
0.0
  0
VERTEX
  5
75
330
45
100
AcDbEntity
  8
Layer 1
370
     0
100
AcDbVertex
100
AcDb2dVertex
 10
0.1944444447555043
 20
-6.997984446045002
 30
0.0
  0
VERTEX
  5
76
330
45
100
AcDbEntity
  8
Layer 1
370
     0
100
AcDbVertex
100
AcDb2dVertex
 10
0.1944444446777425
 20
-5.265904446044993
 30
0.0
  0
VERTEX
  5
77
330
45
100
AcDbEntity
  8
Layer 1
370
     0
100
AcDbVertex
100
AcDb2dVertex
 10
0.0694444446777425
 20
-5.265904446050627
 30
0.0
  0
VERTEX
  5
78
330
45
100
AcDbEntity
  8
Layer 1
370
     0
100
AcDbVertex
100
AcDb2dVertex
 10
0.0694444445999807
 20
-3.53375444605063
 30
0.0
  0
VERTEX
  5
79
330
45
100
AcDbEntity
  8
Layer 1
370
     0
100
AcDbVertex
100
AcDb2dVertex
 10
0.1944444445999807
 20
-3.533754446045021
 30
0.0
  0
VERTEX
  5
7A
330
45
100
AcDbEntity
  8
Layer 1
370
     0
100
AcDbVertex
100
AcDb2dVertex
 10
0.1944444445222062
 20
-1.801594446045
 30
0.0
  0
SEQEND
  5
7B
330
45
100
AcDbEntity
  8
Layer 1
370
     0
  0
ENDBLK
  5
44
330
41
100
AcDbEntity
  8
0
100
AcDbBlockEnd
  0
BLOCK
  5
7E
330
7C
100
AcDbEntity
  8
0
100
AcDbBlockBegin
  2
block 3
 70
     0
 10
0.0
 20
0.0
 30
0.0
  3
block 3
  1

  0
POLYLINE
  5
80
330
7C
100
AcDbEntity
  8
Layer 1
370
     0
100
AcDb2dPolyline
 66
     1
 10
0.0
 20
0.0
 30
0.0
  0
VERTEX
  5
81
330
80
100
AcDbEntity
  8
Layer 1
370
     0
100
AcDbVertex
100
AcDb2dVertex
 10
10.35044444453423
 20
-2.069444445589043
 30
0.0
  0
VERTEX
  5
82
330
80
100
AcDbEntity
  8
Layer 1
370
     0
100
AcDbVertex
100
AcDb2dVertex
 10
10.35044444459035
 20
-3.319444445589043
 30
0.0
  0
VERTEX
  5
83
330
80
100
AcDbEntity
  8
Layer 1
370
     0
100
AcDbVertex
100
AcDb2dVertex
 10
10.47544444459035
 20
-3.31944444558341
 30
0.0
  0
VERTEX
  5
84
330
80
100
AcDbEntity
  8
Layer 1
370
     0
100
AcDbVertex
100
AcDb2dVertex
 10
10.47544444453423
 20
-2.06944444558341
 30
0.0
  0
VERTEX
  5
85
330
80
100
AcDbEntity
  8
Layer 1
370
     0
100
AcDbVertex
100
AcDb2dVertex
 10
10.35044444453423
 20
-2.069444445589043
 30
0.0
  0
SEQEND
  5
86
330
80
100
AcDbEntity
  8
Layer 1
370
     0
  0
ENDBLK
  5
7F
330
7C
100
AcDbEntity
  8
0
100
AcDbBlockEnd
  0
BLOCK
  5
89
330
87
100
AcDbEntity
  8
0
100
AcDbBlockBegin
  2
block 4
 70
     0
 10
0.0
 20
0.0
 30
0.0
  3
block 4
  1

  0
POLYLINE
  5
8B
330
87
100
AcDbEntity
  8
Layer 1
370
     0
100
AcDb2dPolyline
 66
     1
 10
0.0
 20
0.0
 30
0.0
  0
VERTEX
  5
8C
330
8B
100
AcDbEntity
  8
Layer 1
370
     0
100
AcDbVertex
100
AcDb2dVertex
 10
10.03744444468174
 20
-5.355134445603071
 30
0.0
  0
VERTEX
  5
8D
330
8B
100
AcDbEntity
  8
Layer 1
370
     0
100
AcDbVertex
100
AcDb2dVertex
 10
10.03744444473306
 20
-6.497984445603088
 30
0.0
  0
VERTEX
  5
8E
330
8B
100
AcDbEntity
  8
Layer 1
370
     0
100
AcDbVertex
100
AcDb2dVertex
 10
10.16244444473306
 20
-6.49798444559748
 30
0.0
  0
VERTEX
  5
8F
330
8B
100
AcDbEntity
  8
Layer 1
370
     0
100
AcDbVertex
100
AcDb2dVertex
 10
10.16244444468174
 20
-5.355134445597463
 30
0.0
  0
VERTEX
  5
90
330
8B
100
AcDbEntity
  8
Layer 1
370
     0
100
AcDbVertex
100
AcDb2dVertex
 10
10.03744444468174
 20
-5.355134445603071
 30
0.0
  0
SEQEND
  5
91
330
8B
100
AcDbEntity
  8
Layer 1
370
     0
  0
ENDBLK
  5
8A
330
87
100
AcDbEntity
  8
0
100
AcDbBlockEnd
  0
BLOCK
  5
94
330
92
100
AcDbEntity
  8
0
100
AcDbBlockBegin
  2
block 5
 70
     0
 10
0.0
 20
0.0
 30
0.0
  3
block 5
  1

  0
POLYLINE
  5
96
330
92
100
AcDbEntity
  8
Layer 1
370
     0
100
AcDb2dPolyline
 66
     1
 10
0.0
 20
0.0
 30
0.0
  0
VERTEX
  5
97
330
96
100
AcDbEntity
  8
Layer 1
370
     0
100
AcDbVertex
100
AcDb2dVertex
 10
10.03744444478438
 20
-7.640904445603091
 30
0.0
  0
VERTEX
  5
98
330
96
100
AcDbEntity
  8
Layer 1
370
     0
100
AcDbVertex
100
AcDb2dVertex
 10
10.03744444483568
 20
-8.783754445603096
 30
0.0
  0
VERTEX
  5
99
330
96
100
AcDbEntity
  8
Layer 1
370
     0
100
AcDbVertex
100
AcDb2dVertex
 10
10.16244444483568
 20
-8.783754445597486
 30
0.0
  0
VERTEX
  5
9A
330
96
100
AcDbEntity
  8
Layer 1
370
     0
100
AcDbVertex
100
AcDb2dVertex
 10
10.16244444478438
 20
-7.640904445597483
 30
0.0
  0
VERTEX
  5
9B
330
96
100
AcDbEntity
  8
Layer 1
370
     0
100
AcDbVertex
100
AcDb2dVertex
 10
10.03744444478438
 20
-7.640904445603091
 30
0.0
  0
SEQEND
  5
9C
330
96
100
AcDbEntity
  8
Layer 1
370
     0
  0
ENDBLK
  5
95
330
92
100
AcDbEntity
  8
0
100
AcDbBlockEnd
  0
BLOCK
  5
9F
330
9D
100
AcDbEntity
  8
0
100
AcDbBlockBegin
  2
block 6
 70
     0
 10
0.0
 20
0.0
 30
0.0
  3
block 6
  1

  0
POLYLINE
  5
A1
330
9D
100
AcDbEntity
  8
Layer 1
370
     0
100
AcDb2dPolyline
 66
     1
 10
0.0
 20
0.0
 30
0.0
  0
VERTEX
  5
A2
330
A1
100
AcDbEntity
  8
Layer 1
370
     0
100
AcDbVertex
100
AcDb2dVertex
 10
10.03744444488699
 20
-9.926594445603087
 30
0.0
  0
VERTEX
  5
A3
330
A1
100
AcDbEntity
  8
Layer 1
370
     0
100
AcDbVertex
100
AcDb2dVertex
 10
10.0374444449383
 20
-11.06944444560309
 30
0.0
  0
VERTEX
  5
A4
330
A1
100
AcDbEntity
  8
Layer 1
370
     0
100
AcDbVertex
100
AcDb2dVertex
 10
10.1624444449383
 20
-11.06944444559748
 30
0.0
  0
VERTEX
  5
A5
330
A1
100
AcDbEntity
  8
Layer 1
370
     0
100
AcDbVertex
100
AcDb2dVertex
 10
10.16244444488699
 20
-9.926594445597477
 30
0.0
  0
VERTEX
  5
A6
330
A1
100
AcDbEntity
  8
Layer 1
370
     0
100
AcDbVertex
100
AcDb2dVertex
 10
10.03744444488699
 20
-9.926594445603087
 30
0.0
  0
SEQEND
  5
A7
330
A1
100
AcDbEntity
  8
Layer 1
370
     0
  0
ENDBLK
  5
A0
330
9D
100
AcDbEntity
  8
0
100
AcDbBlockEnd
  0
BLOCK
  5
AA
330
A8
100
AcDbEntity
  8
0
100
AcDbBlockBegin
  2
block 7
 70
     0
 10
0.0
 20
0.0
 30
0.0
  3
block 7
  1

  0
POLYLINE
  5
AC
330
A8
100
AcDbEntity
  8
Layer 1
370
     0
100
AcDb2dPolyline
 66
     1
 10
0.0
 20
0.0
 30
0.0
  0
VERTEX
  5
AD
330
AC
100
AcDbEntity
  8
Layer 1
370
     0
100
AcDbVertex
100
AcDb2dVertex
 10
20.16244444475872
 20
-7.06944444514852
 30
0.0
  0
VERTEX
  5
AE
330
AC
100
AcDbEntity
  8
Layer 1
370
     0
100
AcDbVertex
100
AcDb2dVertex
 10
20.16244444481481
 20
-8.31944444514852
 30
0.0
  0
VERTEX
  5
AF
330
AC
100
AcDbEntity
  8
Layer 1
370
     0
100
AcDbVertex
100
AcDb2dVertex
 10
20.28744444481486
 20
-8.319444445142897
 30
0.0
  0
VERTEX
  5
B0
330
AC
100
AcDbEntity
  8
Layer 1
370
     0
100
AcDbVertex
100
AcDb2dVertex
 10
20.28744444475872
 20
-7.069444445142898
 30
0.0
  0
VERTEX
  5
B1
330
AC
100
AcDbEntity
  8
Layer 1
370
     0
100
AcDbVertex
100
AcDb2dVertex
 10
20.16244444475872
 20
-7.06944444514852
 30
0.0
  0
SEQEND
  5
B2
330
AC
100
AcDbEntity
  8
Layer 1
370
     0
  0
ENDBLK
  5
AB
330
A8
100
AcDbEntity
  8
0
100
AcDbBlockEnd
  0
BLOCK
  5
B5
330
B3
100
AcDbEntity
  8
0
100
AcDbBlockBegin
  2
block 8
 70
     0
 10
0.0
 20
0.0
 30
0.0
  3
block 8
  1

  0
POLYLINE
  5
B7
330
B3
100
AcDbEntity
  8
Layer 1
370
     0
100
AcDb2dPolyline
 66
     1
 10
0.0
 20
0.0
 30
0.0
  0
VERTEX
  5
B8
330
B7
100
AcDbEntity
  8
Layer 1
370
     0
100
AcDbVertex
100
AcDb2dVertex
 10
20.16244444464645
 20
-4.56944444514852
 30
0.0
  0
VERTEX
  5
B9
330
B7
100
AcDbEntity
  8
Layer 1
370
     0
100
AcDbVertex
100
AcDb2dVertex
 10
20.16244444470259
 20
-5.81944444514852
 30
0.0
  0
VERTEX
  5
BA
330
B7
100
AcDbEntity
  8
Layer 1
370
     0
100
AcDbVertex
100
AcDb2dVertex
 10
20.28744444470259
 20
-5.819444445142911
 30
0.0
  0
VERTEX
  5
BB
330
B7
100
AcDbEntity
  8
Layer 1
370
     0
100
AcDbVertex
100
AcDb2dVertex
 10
20.2874444446465
 20
-4.569444445142911
 30
0.0
  0
VERTEX
  5
BC
330
B7
100
AcDbEntity
  8
Layer 1
370
     0
100
AcDbVertex
100
AcDb2dVertex
 10
20.16244444464645
 20
-4.56944444514852
 30
0.0
  0
SEQEND
  5
BD
330
B7
100
AcDbEntity
  8
Layer 1
370
     0
  0
ENDBLK
  5
B6
330
B3
100
AcDbEntity
  8
0
100
AcDbBlockEnd
  0
BLOCK
  5
C0
330
BE
100
AcDbEntity
  8
0
100
AcDbBlockBegin
  2
block 9
 70
     0
 10
0.0
 20
0.0
 30
0.0
  3
block 9
  1

  0
POLYLINE
  5
C2
330
BE
100
AcDbEntity
  8
Layer 1
370
     0
100
AcDb2dPolyline
 66
     1
 10
0.0
 20
0.0
 30
0.0
  0
VERTEX
  5
C3
330
C2
100
AcDbEntity
  8
Layer 1
370
     0
100
AcDbVertex
100
AcDb2dVertex
 10
20.47544444457915
 20
-3.069444445134473
 30
0.0
  0
VERTEX
  5
C4
330
C2
100
AcDbEntity
  8
Layer 1
370
     0
100
AcDbVertex
100
AcDb2dVertex
 10
20.47544444463043
 20
-4.212294445134451
 30
0.0
  0
VERTEX
  5
C5
330
C2
100
AcDbEntity
  8
Layer 1
370
     0
100
AcDbVertex
100
AcDb2dVertex
 10
20.60044444463043
 20
-4.212294445128842
 30
0.0
  0
VERTEX
  5
C6
330
C2
100
AcDbEntity
  8
Layer 1
370
     0
100
AcDbVertex
100
AcDb2dVertex
 10
20.60044444457915
 20
-3.069444445128864
 30
0.0
  0
VERTEX
  5
C7
330
C2
100
AcDbEntity
  8
Layer 1
370
     0
100
AcDbVertex
100
AcDb2dVertex
 10
20.47544444457915
 20
-3.069444445134473
 30
0.0
  0
SEQEND
  5
C8
330
C2
100
AcDbEntity
  8
Layer 1
370
     0
  0
ENDBLK
  5
C1
330
BE
100
AcDbEntity
  8
0
100
AcDbBlockEnd
  0
BLOCK
  5
CB
330
C9
100
AcDbEntity
  8
0
100
AcDbBlockBegin
  2
block 10
 70
     0
 10
0.0
 20
0.0
 30
0.0
  3
block 10
  1

  0
POLYLINE
  5
CD
330
C9
100
AcDbEntity
  8
Layer 1
370
     0
100
AcDb2dPolyline
 66
     1
 10
0.0
 20
0.0
 30
0.0
  0
VERTEX
  5
CE
330
CD
100
AcDbEntity
  8
Layer 1
370
     0
100
AcDbVertex
100
AcDb2dVertex
 10
20.16244444487095
 20
-9.56944444514852
 30
0.0
  0
VERTEX
  5
CF
330
CD
100
AcDbEntity
  8
Layer 1
370
     0
100
AcDbVertex
100
AcDb2dVertex
 10
20.16244444492708
 20
-10.81944444514852
 30
0.0
  0
VERTEX
  5
D0
330
CD
100
AcDbEntity
  8
Layer 1
370
     0
100
AcDbVertex
100
AcDb2dVertex
 10
20.28744444492708
 20
-10.8194444451429
 30
0.0
  0
VERTEX
  5
D1
330
CD
100
AcDbEntity
  8
Layer 1
370
     0
100
AcDbVertex
100
AcDb2dVertex
 10
20.28744444487095
 20
-9.569444445142897
 30
0.0
  0
VERTEX
  5
D2
330
CD
100
AcDbEntity
  8
Layer 1
370
     0
100
AcDbVertex
100
AcDb2dVertex
 10
20.16244444487095
 20
-9.56944444514852
 30
0.0
  0
SEQEND
  5
D3
330
CD
100
AcDbEntity
  8
Layer 1
370
     0
  0
ENDBLK
  5
CC
330
C9
100
AcDbEntity
  8
0
100
AcDbBlockEnd
  0
BLOCK
  5
D6
330
D4
100
AcDbEntity
  8
0
100
AcDbBlockBegin
  2
block 11
 70
     0
 10
0.0
 20
0.0
 30
0.0
  3
block 11
  1

  0
POLYLINE
  5
D8
330
D4
100
AcDbEntity
  8
Layer 1
370
     0
100
AcDb2dPolyline
 66
     1
 10
0.0
 20
0.0
 30
0.0
  0
VERTEX
  5
D9
330
D8
100
AcDbEntity
  8
Layer 1
370
     0
100
AcDbVertex
100
AcDb2dVertex
 10
20.47544444488701
 20
-9.926594445134457
 30
0.0
  0
VERTEX
  5
DA
330
D8
100
AcDbEntity
  8
Layer 1
370
     0
100
AcDbVertex
100
AcDb2dVertex
 10
20.4754444449383
 20
-11.06944444513446
 30
0.0
  0
VERTEX
  5
DB
330
D8
100
AcDbEntity
  8
Layer 1
370
     0
100
AcDbVertex
100
AcDb2dVertex
 10
20.6004444449383
 20
-11.06944444512885
 30
0.0
  0
VERTEX
  5
DC
330
D8
100
AcDbEntity
  8
Layer 1
370
     0
100
AcDbVertex
100
AcDb2dVertex
 10
20.60044444488701
 20
-9.926594445128847
 30
0.0
  0
VERTEX
  5
DD
330
D8
100
AcDbEntity
  8
Layer 1
370
     0
100
AcDbVertex
100
AcDb2dVertex
 10
20.47544444488701
 20
-9.926594445134457
 30
0.0
  0
SEQEND
  5
DE
330
D8
100
AcDbEntity
  8
Layer 1
370
     0
  0
ENDBLK
  5
D7
330
D4
100
AcDbEntity
  8
0
100
AcDbBlockEnd
  0
BLOCK
  5
E1
330
DF
100
AcDbEntity
  8
0
100
AcDbBlockBegin
  2
block 12
 70
     0
 10
0.0
 20
0.0
 30
0.0
  3
block 12
  1

  0
POLYLINE
  5
E3
330
DF
100
AcDbEntity
  8
Layer 1
370
     0
100
AcDb2dPolyline
 66
     1
 10
0.0
 20
0.0
 30
0.0
  0
VERTEX
  5
E4
330
E3
100
AcDbEntity
  8
Layer 1
370
     0
100
AcDbVertex
100
AcDb2dVertex
 10
20.47544444478439
 20
-7.640904445134462
 30
0.0
  0
VERTEX
  5
E5
330
E3
100
AcDbEntity
  8
Layer 1
370
     0
100
AcDbVertex
100
AcDb2dVertex
 10
20.47544444483568
 20
-8.783754445134466
 30
0.0
  0
VERTEX
  5
E6
330
E3
100
AcDbEntity
  8
Layer 1
370
     0
100
AcDbVertex
100
AcDb2dVertex
 10
20.60044444483568
 20
-8.783754445128857
 30
0.0
  0
VERTEX
  5
E7
330
E3
100
AcDbEntity
  8
Layer 1
370
     0
100
AcDbVertex
100
AcDb2dVertex
 10
20.60044444478439
 20
-7.640904445128854
 30
0.0
  0
VERTEX
  5
E8
330
E3
100
AcDbEntity
  8
Layer 1
370
     0
100
AcDbVertex
100
AcDb2dVertex
 10
20.47544444478439
 20
-7.640904445134462
 30
0.0
  0
SEQEND
  5
E9
330
E3
100
AcDbEntity
  8
Layer 1
370
     0
  0
ENDBLK
  5
E2
330
DF
100
AcDbEntity
  8
0
100
AcDbBlockEnd
  0
BLOCK
  5
EC
330
EA
100
AcDbEntity
  8
0
100
AcDbBlockBegin
  2
block 13
 70
     0
 10
0.0
 20
0.0
 30
0.0
  3
block 13
  1

  0
POLYLINE
  5
EE
330
EA
100
AcDbEntity
  8
Layer 1
370
     0
100
AcDb2dPolyline
 66
     1
 10
0.0
 20
0.0
 30
0.0
  0
VERTEX
  5
EF
330
EE
100
AcDbEntity
  8
Layer 1
370
     0
100
AcDbVertex
100
AcDb2dVertex
 10
20.47544444468177
 20
-5.355134445134454
 30
0.0
  0
VERTEX
  5
F0
330
EE
100
AcDbEntity
  8
Layer 1
370
     0
100
AcDbVertex
100
AcDb2dVertex
 10
20.47544444473306
 20
-6.497984445134458
 30
0.0
  0
VERTEX
  5
F1
330
EE
100
AcDbEntity
  8
Layer 1
370
     0
100
AcDbVertex
100
AcDb2dVertex
 10
20.60044444473306
 20
-6.49798444512885
 30
0.0
  0
VERTEX
  5
F2
330
EE
100
AcDbEntity
  8
Layer 1
370
     0
100
AcDbVertex
100
AcDb2dVertex
 10
20.60044444468177
 20
-5.355134445128846
 30
0.0
  0
VERTEX
  5
F3
330
EE
100
AcDbEntity
  8
Layer 1
370
     0
100
AcDbVertex
100
AcDb2dVertex
 10
20.47544444468177
 20
-5.355134445134454
 30
0.0
  0
SEQEND
  5
F4
330
EE
100
AcDbEntity
  8
Layer 1
370
     0
  0
ENDBLK
  5
ED
330
EA
100
AcDbEntity
  8
0
100
AcDbBlockEnd
  0
BLOCK
  5
F7
330
F5
100
AcDbEntity
  8
0
100
AcDbBlockBegin
  2
block 14
 70
     0
 10
0.0
 20
0.0
 30
0.0
  3
block 14
  1

  0
POLYLINE
  5
F9
330
F5
100
AcDbEntity
  8
Layer 1
370
     0
100
AcDb2dPolyline
 66
     1
 10
0.0
 20
0.0
 30
0.0
  0
VERTEX
  5
FA
330
F9
100
AcDbEntity
  8
Layer 1
370
     0
100
AcDbVertex
100
AcDb2dVertex
 10
20.16244444453423
 20
-2.06944444514852
 30
0.0
  0
VERTEX
  5
FB
330
F9
100
AcDbEntity
  8
Layer 1
370
     0
100
AcDbVertex
100
AcDb2dVertex
 10
20.16244444459037
 20
-3.31944444514852
 30
0.0
  0
VERTEX
  5
FC
330
F9
100
AcDbEntity
  8
Layer 1
370
     0
100
AcDbVertex
100
AcDb2dVertex
 10
20.28744444459037
 20
-3.319444445142911
 30
0.0
  0
VERTEX
  5
FD
330
F9
100
AcDbEntity
  8
Layer 1
370
     0
100
AcDbVertex
100
AcDb2dVertex
 10
20.28744444453423
 20
-2.069444445142911
 30
0.0
  0
VERTEX
  5
FE
330
F9
100
AcDbEntity
  8
Layer 1
370
     0
100
AcDbVertex
100
AcDb2dVertex
 10
20.16244444453423
 20
-2.06944444514852
 30
0.0
  0
SEQEND
  5
FF
330
F9
100
AcDbEntity
  8
Layer 1
370
     0
  0
ENDBLK
  5
F8
330
F5
100
AcDbEntity
  8
0
100
AcDbBlockEnd
  0
BLOCK
  5
102
330
100
100
AcDbEntity
  8
0
100
AcDbBlockBegin
  2
block 15
 70
     0
 10
0.0
 20
0.0
 30
0.0
  3
block 15
  1

  0
POLYLINE
  5
104
330
100
100
AcDbEntity
  8
Layer 1
370
     0
100
AcDb2dPolyline
 66
     1
 10
0.0
 20
0.0
 30
0.0
  0
VERTEX
  5
105
330
104
100
AcDbEntity
  8
Layer 1
370
     0
100
AcDbVertex
100
AcDb2dVertex
 10
10.35044444487096
 20
-9.569444445589044
 30
0.0
  0
VERTEX
  5
106
330
104
100
AcDbEntity
  8
Layer 1
370
     0
100
AcDbVertex
100
AcDb2dVertex
 10
10.35044444492708
 20
-10.81944444558904
 30
0.0
  0
VERTEX
  5
107
330
104
100
AcDbEntity
  8
Layer 1
370
     0
100
AcDbVertex
100
AcDb2dVertex
 10
10.47544444492708
 20
-10.81944444558342
 30
0.0
  0
VERTEX
  5
108
330
104
100
AcDbEntity
  8
Layer 1
370
     0
100
AcDbVertex
100
AcDb2dVertex
 10
10.47544444487096
 20
-9.569444445583422
 30
0.0
  0
VERTEX
  5
109
330
104
100
AcDbEntity
  8
Layer 1
370
     0
100
AcDbVertex
100
AcDb2dVertex
 10
10.35044444487096
 20
-9.569444445589044
 30
0.0
  0
SEQEND
  5
10A
330
104
100
AcDbEntity
  8
Layer 1
370
     0
  0
ENDBLK
  5
103
330
100
100
AcDbEntity
  8
0
100
AcDbBlockEnd
  0
BLOCK
  5
10D
330
10B
100
AcDbEntity
  8
0
100
AcDbBlockBegin
  2
block 16
 70
     0
 10
0.0
 20
0.0
 30
0.0
  3
block 16
  1

  0
POLYLINE
  5
10F
330
10B
100
AcDbEntity
  8
Layer 1
370
     0
100
AcDb2dPolyline
 66
     1
 10
0.0
 20
0.0
 30
0.0
  0
VERTEX
  5
110
330
10F
100
AcDbEntity
  8
Layer 1
370
     0
100
AcDbVertex
100
AcDb2dVertex
 10
10.03744444457914
 20
-3.06944444560309
 30
0.0
  0
VERTEX
  5
111
330
10F
100
AcDbEntity
  8
Layer 1
370
     0
100
AcDbVertex
100
AcDb2dVertex
 10
10.03744444463043
 20
-4.212294445603094
 30
0.0
  0
VERTEX
  5
112
330
10F
100
AcDbEntity
  8
Layer 1
370
     0
100
AcDbVertex
100
AcDb2dVertex
 10
10.16244444463043
 20
-4.212294445597485
 30
0.0
  0
VERTEX
  5
113
330
10F
100
AcDbEntity
  8
Layer 1
370
     0
100
AcDbVertex
100
AcDb2dVertex
 10
10.16244444457914
 20
-3.069444445597481
 30
0.0
  0
VERTEX
  5
114
330
10F
100
AcDbEntity
  8
Layer 1
370
     0
100
AcDbVertex
100
AcDb2dVertex
 10
10.03744444457914
 20
-3.06944444560309
 30
0.0
  0
SEQEND
  5
115
330
10F
100
AcDbEntity
  8
Layer 1
370
     0
  0
ENDBLK
  5
10E
330
10B
100
AcDbEntity
  8
0
100
AcDbBlockEnd
  0
BLOCK
  5
118
330
116
100
AcDbEntity
  8
0
100
AcDbBlockBegin
  2
block 17
 70
     0
 10
0.0
 20
0.0
 30
0.0
  3
block 17
  1

  0
POLYLINE
  5
11A
330
116
100
AcDbEntity
  8
Layer 1
370
     0
100
AcDb2dPolyline
 66
     1
 10
0.0
 20
0.0
 30
0.0
  0
VERTEX
  5
11B
330
11A
100
AcDbEntity
  8
Layer 1
370
     0
100
AcDbVertex
100
AcDb2dVertex
 10
10.35044444464648
 20
-4.569444445589043
 30
0.0
  0
VERTEX
  5
11C
330
11A
100
AcDbEntity
  8
Layer 1
370
     0
100
AcDbVertex
100
AcDb2dVertex
 10
10.3504444447026
 20
-5.819444445589043
 30
0.0
  0
VERTEX
  5
11D
330
11A
100
AcDbEntity
  8
Layer 1
370
     0
100
AcDbVertex
100
AcDb2dVertex
 10
10.4754444447026
 20
-5.819444445583409
 30
0.0
  0
VERTEX
  5
11E
330
11A
100
AcDbEntity
  8
Layer 1
370
     0
100
AcDbVertex
100
AcDb2dVertex
 10
10.47544444464648
 20
-4.569444445583409
 30
0.0
  0
VERTEX
  5
11F
330
11A
100
AcDbEntity
  8
Layer 1
370
     0
100
AcDbVertex
100
AcDb2dVertex
 10
10.35044444464648
 20
-4.569444445589043
 30
0.0
  0
SEQEND
  5
120
330
11A
100
AcDbEntity
  8
Layer 1
370
     0
  0
ENDBLK
  5
119
330
116
100
AcDbEntity
  8
0
100
AcDbBlockEnd
  0
BLOCK
  5
123
330
121
100
AcDbEntity
  8
0
100
AcDbBlockBegin
  2
block 18
 70
     0
 10
0.0
 20
0.0
 30
0.0
  3
block 18
  1

  0
POLYLINE
  5
125
330
121
100
AcDbEntity
  8
Layer 1
370
     0
100
AcDb2dPolyline
 66
     1
 10
0.0
 20
0.0
 30
0.0
  0
VERTEX
  5
126
330
125
100
AcDbEntity
  8
Layer 1
370
     0
100
AcDbVertex
100
AcDb2dVertex
 10
10.35044444475871
 20
-7.069444445589043
 30
0.0
  0
VERTEX
  5
127
330
125
100
AcDbEntity
  8
Layer 1
370
     0
100
AcDbVertex
100
AcDb2dVertex
 10
10.35044444481484
 20
-8.319444445589044
 30
0.0
  0
VERTEX
  5
128
330
125
100
AcDbEntity
  8
Layer 1
370
     0
100
AcDbVertex
100
AcDb2dVertex
 10
10.47544444481484
 20
-8.319444445583422
 30
0.0
  0
VERTEX
  5
129
330
125
100
AcDbEntity
  8
Layer 1
370
     0
100
AcDbVertex
100
AcDb2dVertex
 10
10.47544444475871
 20
-7.069444445583422
 30
0.0
  0
VERTEX
  5
12A
330
125
100
AcDbEntity
  8
Layer 1
370
     0
100
AcDbVertex
100
AcDb2dVertex
 10
10.35044444475871
 20
-7.069444445589043
 30
0.0
  0
SEQEND
  5
12B
330
125
100
AcDbEntity
  8
Layer 1
370
     0
  0
ENDBLK
  5
124
330
121
100
AcDbEntity
  8
0
100
AcDbBlockEnd
  0
BLOCK
  5
12E
330
12C
100
AcDbEntity
  8
0
100
AcDbBlockBegin
  2
block 19
 70
     0
 10
0.0
 20
0.0
 30
0.0
  3
block 19
  1

  0
POLYLINE
  5
130
330
12C
100
AcDbEntity
  8
Layer 1
370
     0
100
AcDb2dPolyline
 66
     1
 10
0.0
 20
0.0
 30
0.0
  0
VERTEX
  5
131
330
130
100
AcDbEntity
  8
Layer 1
370
     0
100
AcDbVertex
100
AcDb2dVertex
 10
28.22344444531655
 20
-19.49444444478659
 30
0.0
  0
VERTEX
  5
132
330
130
100
AcDbEntity
  8
Layer 1
370
     0
100
AcDbVertex
100
AcDb2dVertex
 10
28.22344444531094
 20
-19.36944444478659
 30
0.0
  0
VERTEX
  5
133
330
130
100
AcDbEntity
  8
Layer 1
370
     0
100
AcDbVertex
100
AcDb2dVertex
 10
25.87744444531093
 20
-19.36944444489192
 30
0.0
  0
VERTEX
  5
134
330
130
100
AcDbEntity
  8
Layer 1
370
     0
100
AcDbVertex
100
AcDb2dVertex
 10
25.87744444531654
 20
-19.49444444489192
 30
0.0
  0
VERTEX
  5
135
330
130
100
AcDbEntity
  8
Layer 1
370
     0
100
AcDbVertex
100
AcDb2dVertex
 10
23.53044444531659
 20
-19.4944444449973
 30
0.0
  0
VERTEX
  5
136
330
130
100
AcDbEntity
  8
Layer 1
370
     0
100
AcDbVertex
100
AcDb2dVertex
 10
23.53044444531098
 20
-19.3694444449973
 30
0.0
  0
VERTEX
  5
137
330
130
100
AcDbEntity
  8
Layer 1
370
     0
100
AcDbVertex
100
AcDb2dVertex
 10
21.18444444531097
 20
-19.36944444510262
 30
0.0
  0
VERTEX
  5
138
330
130
100
AcDbEntity
  8
Layer 1
370
     0
100
AcDbVertex
100
AcDb2dVertex
 10
21.18444444531653
 20
-19.49444444510262
 30
0.0
  0
VERTEX
  5
139
330
130
100
AcDbEntity
  8
Layer 1
370
     0
100
AcDbVertex
100
AcDb2dVertex
 10
18.83844444531653
 20
-19.49444444520794
 30
0.0
  0
VERTEX
  5
13A
330
130
100
AcDbEntity
  8
Layer 1
370
     0
100
AcDbVertex
100
AcDb2dVertex
 10
18.83844444531097
 20
-19.36944444520794
 30
0.0
  0
VERTEX
  5
13B
330
130
100
AcDbEntity
  8
Layer 1
370
     0
100
AcDbVertex
100
AcDb2dVertex
 10
16.49344444531094
 20
-19.36944444531324
 30
0.0
  0
VERTEX
  5
13C
330
130
100
AcDbEntity
  8
Layer 1
370
     0
100
AcDbVertex
100
AcDb2dVertex
 10
16.49344444531654
 20
-19.49444444531324
 30
0.0
  0
VERTEX
  5
13D
330
130
100
AcDbEntity
  8
Layer 1
370
     0
100
AcDbVertex
100
AcDb2dVertex
 10
14.14544444531658
 20
-19.49444444541864
 30
0.0
  0
VERTEX
  5
13E
330
130
100
AcDbEntity
  8
Layer 1
370
     0
100
AcDbVertex
100
AcDb2dVertex
 10
14.14544444531096
 20
-19.36944444541864
 30
0.0
  0
VERTEX
  5
13F
330
130
100
AcDbEntity
  8
Layer 1
370
     0
100
AcDbVertex
100
AcDb2dVertex
 10
11.80044444531093
 20
-19.36944444552394
 30
0.0
  0
VERTEX
  5
140
330
130
100
AcDbEntity
  8
Layer 1
370
     0
100
AcDbVertex
100
AcDb2dVertex
 10
11.80044444531653
 20
-19.49444444552394
 30
0.0
  0
VERTEX
  5
141
330
130
100
AcDbEntity
  8
Layer 1
370
     0
100
AcDbVertex
100
AcDb2dVertex
 10
9.454444445316527
 20
-19.49444444562927
 30
0.0
  0
VERTEX
  5
142
330
130
100
AcDbEntity
  8
Layer 1
370
     0
100
AcDbVertex
100
AcDb2dVertex
 10
9.454444445310957
 20
-19.36944444562927
 30
0.0
  0
VERTEX
  5
143
330
130
100
AcDbEntity
  8
Layer 1
370
     0
100
AcDbVertex
100
AcDb2dVertex
 10
7.108444445310952
 20
-19.36944444573459
 30
0.0
  0
VERTEX
  5
144
330
130
100
AcDbEntity
  8
Layer 1
370
     0
100
AcDbVertex
100
AcDb2dVertex
 10
7.108444445316523
 20
-19.49444444573459
 30
0.0
  0
VERTEX
  5
145
330
130
100
AcDbEntity
  8
Layer 1
370
     0
100
AcDbVertex
100
AcDb2dVertex
 10
4.761444445316543
 20
-19.49444444583997
 30
0.0
  0
VERTEX
  5
146
330
130
100
AcDbEntity
  8
Layer 1
370
     0
100
AcDbVertex
100
AcDb2dVertex
 10
4.761444445310947
 20
-19.36944444583997
 30
0.0
  0
VERTEX
  5
147
330
130
100
AcDbEntity
  8
Layer 1
370
     0
100
AcDbVertex
100
AcDb2dVertex
 10
2.415444445310944
 20
-19.36944444594529
 30
0.0
  0
VERTEX
  5
148
330
130
100
AcDbEntity
  8
Layer 1
370
     0
100
AcDbVertex
100
AcDb2dVertex
 10
2.415444445316565
 20
-19.49444444594529
 30
0.0
  0
VERTEX
  5
149
330
130
100
AcDbEntity
  8
Layer 1
370
     0
100
AcDbVertex
100
AcDb2dVertex
 10
0.0694444453165614
 20
-19.49444444605061
 30
0.0
  0
VERTEX
  5
14A
330
130
100
AcDbEntity
  8
Layer 1
370
     0
100
AcDbVertex
100
AcDb2dVertex
 10
0.0694444453109403
 20
-19.36944444605061
 30
0.0
  0
VERTEX
  5
14B
330
130
100
AcDbEntity
  8
Layer 1
370
     0
100
AcDbVertex
100
AcDb2dVertex
 10
0.1944444453109402
 20
-19.36944444604501
 30
0.0
  0
VERTEX
  5
14C
330
130
100
AcDbEntity
  8
Layer 1
370
     0
100
AcDbVertex
100
AcDb2dVertex
 10
0.1944444452700635
 20
-18.45874444604502
 30
0.0
  0
VERTEX
  5
14D
330
130
100
AcDbEntity
  8
Layer 1
370
     0
100
AcDbVertex
100
AcDb2dVertex
 10
0.0694444452700635
 20
-18.45874444605063
 30
0.0
  0
VERTEX
  5
14E
330
130
100
AcDbEntity
  8
Layer 1
370
     0
100
AcDbVertex
100
AcDb2dVertex
 10
0.0694444452235656
 20
-17.42304444605063
 30
0.0
  0
VERTEX
  5
14F
330
130
100
AcDbEntity
  8
Layer 1
370
     0
100
AcDbVertex
100
AcDb2dVertex
 10
0.1944444452235656
 20
-17.42304444604502
 30
0.0
  0
VERTEX
  5
150
330
130
100
AcDbEntity
  8
Layer 1
370
     0
100
AcDbVertex
100
AcDb2dVertex
 10
0.1944444451770551
 20
-16.38734444604501
 30
0.0
  0
VERTEX
  5
151
330
130
100
AcDbEntity
  8
Layer 1
370
     0
100
AcDbVertex
100
AcDb2dVertex
 10
0.0694444451770551
 20
-16.38734444605062
 30
0.0
  0
VERTEX
  5
152
330
130
100
AcDbEntity
  8
Layer 1
370
     0
100
AcDbVertex
100
AcDb2dVertex
 10
0.0694444451305571
 20
-15.35154444605061
 30
0.0
  0
VERTEX
  5
153
330
130
100
AcDbEntity
  8
Layer 1
370
     0
100
AcDbVertex
100
AcDb2dVertex
 10
0.1944444451305571
 20
-15.351544446045
 30
0.0
  0
VERTEX
  5
154
330
130
100
AcDbEntity
  8
Layer 1
370
     0
100
AcDbVertex
100
AcDb2dVertex
 10
0.1944444450840592
 20
-14.31584444604502
 30
0.0
  0
VERTEX
  5
155
330
130
100
AcDbEntity
  8
Layer 1
370
     0
100
AcDbVertex
100
AcDb2dVertex
 10
0.0694444450840592
 20
-14.31584444605063
 30
0.0
  0
VERTEX
  5
156
330
130
100
AcDbEntity
  8
Layer 1
370
     0
100
AcDbVertex
100
AcDb2dVertex
 10
0.0694444450375613
 20
-13.28014444605062
 30
0.0
  0
VERTEX
  5
157
330
130
100
AcDbEntity
  8
Layer 1
370
     0
100
AcDbVertex
100
AcDb2dVertex
 10
0.1944444450375613
 20
-13.28014444604499
 30
0.0
  0
VERTEX
  5
158
330
130
100
AcDbEntity
  8
Layer 1
370
     0
100
AcDbVertex
100
AcDb2dVertex
 10
0.1944444449966719
 20
-12.36944444604498
 30
0.0
  0
VERTEX
  5
159
330
130
100
AcDbEntity
  8
Layer 1
370
     0
100
AcDbVertex
100
AcDb2dVertex
 10
0.0694444449966719
 20
-12.36944444605062
 30
0.0
  0
VERTEX
  5
15A
330
130
100
AcDbEntity
  8
Layer 1
370
     0
100
AcDbVertex
100
AcDb2dVertex
 10
0.0694444449910634
 20
-12.24444444605062
 30
0.0
  0
VERTEX
  5
15B
330
130
100
AcDbEntity
  8
Layer 1
370
     0
100
AcDbVertex
100
AcDb2dVertex
 10
2.415444444991067
 20
-12.24444444594529
 30
0.0
  0
VERTEX
  5
15C
330
130
100
AcDbEntity
  8
Layer 1
370
     0
100
AcDbVertex
100
AcDb2dVertex
 10
2.415444444996675
 20
-12.36944444594529
 30
0.0
  0
VERTEX
  5
15D
330
130
100
AcDbEntity
  8
Layer 1
370
     0
100
AcDbVertex
100
AcDb2dVertex
 10
4.761444444996679
 20
-12.36944444583994
 30
0.0
  0
VERTEX
  5
15E
330
130
100
AcDbEntity
  8
Layer 1
370
     0
100
AcDbVertex
100
AcDb2dVertex
 10
4.761444444991071
 20
-12.24444444583994
 30
0.0
  0
VERTEX
  5
15F
330
130
100
AcDbEntity
  8
Layer 1
370
     0
100
AcDbVertex
100
AcDb2dVertex
 10
7.108444444991051
 20
-12.24444444573459
 30
0.0
  0
VERTEX
  5
160
330
130
100
AcDbEntity
  8
Layer 1
370
     0
100
AcDbVertex
100
AcDb2dVertex
 10
7.108444444996634
 20
-12.36944444573459
 30
0.0
  0
VERTEX
  5
161
330
130
100
AcDbEntity
  8
Layer 1
370
     0
100
AcDbVertex
100
AcDb2dVertex
 10
9.454444444996637
 20
-12.36944444562924
 30
0.0
  0
VERTEX
  5
162
330
130
100
AcDbEntity
  8
Layer 1
370
     0
100
AcDbVertex
100
AcDb2dVertex
 10
9.45444444499108
 20
-12.24444444562924
 30
0.0
  0
VERTEX
  5
163
330
130
100
AcDbEntity
  8
Layer 1
370
     0
100
AcDbVertex
100
AcDb2dVertex
 10
11.80044444499108
 20
-12.24444444552394
 30
0.0
  0
VERTEX
  5
164
330
130
100
AcDbEntity
  8
Layer 1
370
     0
100
AcDbVertex
100
AcDb2dVertex
 10
11.80044444499664
 20
-12.36944444552394
 30
0.0
  0
VERTEX
  5
165
330
130
100
AcDbEntity
  8
Layer 1
370
     0
100
AcDbVertex
100
AcDb2dVertex
 10
14.14544444499667
 20
-12.36944444541864
 30
0.0
  0
VERTEX
  5
166
330
130
100
AcDbEntity
  8
Layer 1
370
     0
100
AcDbVertex
100
AcDb2dVertex
 10
14.14544444499109
 20
-12.24444444541864
 30
0.0
  0
VERTEX
  5
167
330
130
100
AcDbEntity
  8
Layer 1
370
     0
100
AcDbVertex
100
AcDb2dVertex
 10
16.49344444499104
 20
-12.24444444531324
 30
0.0
  0
VERTEX
  5
168
330
130
100
AcDbEntity
  8
Layer 1
370
     0
100
AcDbVertex
100
AcDb2dVertex
 10
16.49344444499665
 20
-12.36944444531324
 30
0.0
  0
VERTEX
  5
169
330
130
100
AcDbEntity
  8
Layer 1
370
     0
100
AcDbVertex
100
AcDb2dVertex
 10
18.83844444499669
 20
-12.36944444520794
 30
0.0
  0
VERTEX
  5
16A
330
130
100
AcDbEntity
  8
Layer 1
370
     0
100
AcDbVertex
100
AcDb2dVertex
 10
18.83844444499108
 20
-12.24444444520794
 30
0.0
  0
VERTEX
  5
16B
330
130
100
AcDbEntity
  8
Layer 1
370
     0
100
AcDbVertex
100
AcDb2dVertex
 10
21.18444444499108
 20
-12.24444444510262
 30
0.0
  0
VERTEX
  5
16C
330
130
100
AcDbEntity
  8
Layer 1
370
     0
100
AcDbVertex
100
AcDb2dVertex
 10
21.18444444499664
 20
-12.36944444510262
 30
0.0
  0
VERTEX
  5
16D
330
130
100
AcDbEntity
  8
Layer 1
370
     0
100
AcDbVertex
100
AcDb2dVertex
 10
23.53044444499665
 20
-12.3694444449973
 30
0.0
  0
VERTEX
  5
16E
330
130
100
AcDbEntity
  8
Layer 1
370
     0
100
AcDbVertex
100
AcDb2dVertex
 10
23.53044444499109
 20
-12.2444444449973
 30
0.0
  0
VERTEX
  5
16F
330
130
100
AcDbEntity
  8
Layer 1
370
     0
100
AcDbVertex
100
AcDb2dVertex
 10
25.87744444499109
 20
-12.24444444489192
 30
0.0
  0
VERTEX
  5
170
330
130
100
AcDbEntity
  8
Layer 1
370
     0
100
AcDbVertex
100
AcDb2dVertex
 10
25.87744444499665
 20
-12.36944444489192
 30
0.0
  0
VERTEX
  5
171
330
130
100
AcDbEntity
  8
Layer 1
370
     0
100
AcDbVertex
100
AcDb2dVertex
 10
28.22344444499666
 20
-12.3694444447866
 30
0.0
  0
VERTEX
  5
172
330
130
100
AcDbEntity
  8
Layer 1
370
     0
100
AcDbVertex
100
AcDb2dVertex
 10
28.22344444499105
 20
-12.2444444447866
 30
0.0
  0
VERTEX
  5
173
330
130
100
AcDbEntity
  8
Layer 1
370
     0
100
AcDbVertex
100
AcDb2dVertex
 10
30.56944444499105
 20
-12.24444444468127
 30
0.0
  0
VERTEX
  5
174
330
130
100
AcDbEntity
  8
Layer 1
370
     0
100
AcDbVertex
100
AcDb2dVertex
 10
30.56944444499666
 20
-12.36944444468127
 30
0.0
  0
VERTEX
  5
175
330
130
100
AcDbEntity
  8
Layer 1
370
     0
100
AcDbVertex
100
AcDb2dVertex
 10
30.44444444499666
 20
-12.36944444468688
 30
0.0
  0
VERTEX
  5
176
330
130
100
AcDbEntity
  8
Layer 1
370
     0
100
AcDbVertex
100
AcDb2dVertex
 10
30.44444444503759
 20
-13.28014444468689
 30
0.0
  0
VERTEX
  5
177
330
130
100
AcDbEntity
  8
Layer 1
370
     0
100
AcDbVertex
100
AcDb2dVertex
 10
30.56944444503759
 20
-13.28014444468128
 30
0.0
  0
VERTEX
  5
178
330
130
100
AcDbEntity
  8
Layer 1
370
     0
100
AcDbVertex
100
AcDb2dVertex
 10
30.56944444508407
 20
-14.31584444468129
 30
0.0
  0
VERTEX
  5
179
330
130
100
AcDbEntity
  8
Layer 1
370
     0
100
AcDbVertex
100
AcDb2dVertex
 10
30.44444444508407
 20
-14.31584444468689
 30
0.0
  0
VERTEX
  5
17A
330
130
100
AcDbEntity
  8
Layer 1
370
     0
100
AcDbVertex
100
AcDb2dVertex
 10
30.44444444513056
 20
-15.35154444468688
 30
0.0
  0
VERTEX
  5
17B
330
130
100
AcDbEntity
  8
Layer 1
370
     0
100
AcDbVertex
100
AcDb2dVertex
 10
30.56944444513056
 20
-15.35154444468127
 30
0.0
  0
VERTEX
  5
17C
330
130
100
AcDbEntity
  8
Layer 1
370
     0
100
AcDbVertex
100
AcDb2dVertex
 10
30.56944444517709
 20
-16.38734444468128
 30
0.0
  0
VERTEX
  5
17D
330
130
100
AcDbEntity
  8
Layer 1
370
     0
100
AcDbVertex
100
AcDb2dVertex
 10
30.44444444517709
 20
-16.38734444468688
 30
0.0
  0
VERTEX
  5
17E
330
130
100
AcDbEntity
  8
Layer 1
370
     0
100
AcDbVertex
100
AcDb2dVertex
 10
30.44444444522358
 20
-17.42304444468689
 30
0.0
  0
VERTEX
  5
17F
330
130
100
AcDbEntity
  8
Layer 1
370
     0
100
AcDbVertex
100
AcDb2dVertex
 10
30.56944444522358
 20
-17.42304444468128
 30
0.0
  0
VERTEX
  5
180
330
130
100
AcDbEntity
  8
Layer 1
370
     0
100
AcDbVertex
100
AcDb2dVertex
 10
30.56944444527006
 20
-18.45874444468126
 30
0.0
  0
VERTEX
  5
181
330
130
100
AcDbEntity
  8
Layer 1
370
     0
100
AcDbVertex
100
AcDb2dVertex
 10
30.44444444527006
 20
-18.4587444446869
 30
0.0
  0
VERTEX
  5
182
330
130
100
AcDbEntity
  8
Layer 1
370
     0
100
AcDbVertex
100
AcDb2dVertex
 10
30.44444444531094
 20
-19.36944444468688
 30
0.0
  0
VERTEX
  5
183
330
130
100
AcDbEntity
  8
Layer 1
370
     0
100
AcDbVertex
100
AcDb2dVertex
 10
30.56944444531094
 20
-19.36944444468127
 30
0.0
  0
VERTEX
  5
184
330
130
100
AcDbEntity
  8
Layer 1
370
     0
100
AcDbVertex
100
AcDb2dVertex
 10
30.56944444531655
 20
-19.49444444468127
 30
0.0
  0
VERTEX
  5
185
330
130
100
AcDbEntity
  8
Layer 1
370
     0
100
AcDbVertex
100
AcDb2dVertex
 10
28.22344444531655
 20
-19.49444444478659
 30
0.0
  0
SEQEND
  5
186
330
130
100
AcDbEntity
  8
Layer 1
370
     0
  0
ENDBLK
  5
12F
330
12C
100
AcDbEntity
  8
0
100
AcDbBlockEnd
  0
BLOCK
  5
189
330
187
100
AcDbEntity
  8
0
100
AcDbBlockBegin
  2
block 20
 70
     0
 10
0.0
 20
0.0
 30
0.0
  3
block 20
  1

  0
POLYLINE
  5
18B
330
187
100
AcDbEntity
  8
Layer 1
370
     0
100
AcDb2dPolyline
 66
     1
 10
0.0
 20
0.0
 30
0.0
  0
VERTEX
  5
18C
330
18B
100
AcDbEntity
  8
Layer 1
370
     0
100
AcDbVertex
100
AcDb2dVertex
 10
10.35044444528849
 20
-18.86944444558902
 30
0.0
  0
VERTEX
  5
18D
330
18B
100
AcDbEntity
  8
Layer 1
370
     0
100
AcDbVertex
100
AcDb2dVertex
 10
10.35044444531094
 20
-19.36944444558902
 30
0.0
  0
VERTEX
  5
18E
330
18B
100
AcDbEntity
  8
Layer 1
370
     0
100
AcDbVertex
100
AcDb2dVertex
 10
10.47544444531094
 20
-19.36944444558342
 30
0.0
  0
VERTEX
  5
18F
330
18B
100
AcDbEntity
  8
Layer 1
370
     0
100
AcDbVertex
100
AcDb2dVertex
 10
10.47544444528849
 20
-18.86944444558342
 30
0.0
  0
VERTEX
  5
190
330
18B
100
AcDbEntity
  8
Layer 1
370
     0
100
AcDbVertex
100
AcDb2dVertex
 10
10.35044444528849
 20
-18.86944444558902
 30
0.0
  0
SEQEND
  5
191
330
18B
100
AcDbEntity
  8
Layer 1
370
     0
  0
ENDBLK
  5
18A
330
187
100
AcDbEntity
  8
0
100
AcDbBlockEnd
  0
BLOCK
  5
194
330
192
100
AcDbEntity
  8
0
100
AcDbBlockBegin
  2
block 21
 70
     0
 10
0.0
 20
0.0
 30
0.0
  3
block 21
  1

  0
POLYLINE
  5
196
330
192
100
AcDbEntity
  8
Layer 1
370
     0
100
AcDb2dPolyline
 66
     1
 10
0.0
 20
0.0
 30
0.0
  0
VERTEX
  5
197
330
196
100
AcDbEntity
  8
Layer 1
370
     0
100
AcDbVertex
100
AcDb2dVertex
 10
20.16244444499666
 20
-12.36944444514852
 30
0.0
  0
VERTEX
  5
198
330
196
100
AcDbEntity
  8
Layer 1
370
     0
100
AcDbVertex
100
AcDb2dVertex
 10
20.16244444501909
 20
-12.86944444514852
 30
0.0
  0
VERTEX
  5
199
330
196
100
AcDbEntity
  8
Layer 1
370
     0
100
AcDbVertex
100
AcDb2dVertex
 10
20.28744444501914
 20
-12.86944444514289
 30
0.0
  0
VERTEX
  5
19A
330
196
100
AcDbEntity
  8
Layer 1
370
     0
100
AcDbVertex
100
AcDb2dVertex
 10
20.28744444499666
 20
-12.36944444514289
 30
0.0
  0
VERTEX
  5
19B
330
196
100
AcDbEntity
  8
Layer 1
370
     0
100
AcDbVertex
100
AcDb2dVertex
 10
20.16244444499666
 20
-12.36944444514852
 30
0.0
  0
SEQEND
  5
19C
330
196
100
AcDbEntity
  8
Layer 1
370
     0
  0
ENDBLK
  5
195
330
192
100
AcDbEntity
  8
0
100
AcDbBlockEnd
  0
BLOCK
  5
19F
330
19D
100
AcDbEntity
  8
0
100
AcDbBlockBegin
  2
block 22
 70
     0
 10
0.0
 20
0.0
 30
0.0
  3
block 22
  1

  0
POLYLINE
  5
1A1
330
19D
100
AcDbEntity
  8
Layer 1
370
     0
100
AcDb2dPolyline
 66
     1
 10
0.0
 20
0.0
 30
0.0
  0
VERTEX
  5
1A2
330
1A1
100
AcDbEntity
  8
Layer 1
370
     0
100
AcDbVertex
100
AcDb2dVertex
 10
20.1624444452885
 20
-18.8694444451485
 30
0.0
  0
VERTEX
  5
1A3
330
1A1
100
AcDbEntity
  8
Layer 1
370
     0
100
AcDbVertex
100
AcDb2dVertex
 10
20.16244444531094
 20
-19.3694444451485
 30
0.0
  0
VERTEX
  5
1A4
330
1A1
100
AcDbEntity
  8
Layer 1
370
     0
100
AcDbVertex
100
AcDb2dVertex
 10
20.28744444531094
 20
-19.36944444514289
 30
0.0
  0
VERTEX
  5
1A5
330
1A1
100
AcDbEntity
  8
Layer 1
370
     0
100
AcDbVertex
100
AcDb2dVertex
 10
20.2874444452885
 20
-18.86944444514289
 30
0.0
  0
VERTEX
  5
1A6
330
1A1
100
AcDbEntity
  8
Layer 1
370
     0
100
AcDbVertex
100
AcDb2dVertex
 10
20.1624444452885
 20
-18.8694444451485
 30
0.0
  0
SEQEND
  5
1A7
330
1A1
100
AcDbEntity
  8
Layer 1
370
     0
  0
ENDBLK
  5
1A0
330
19D
100
AcDbEntity
  8
0
100
AcDbBlockEnd
  0
BLOCK
  5
1AA
330
1A8
100
AcDbEntity
  8
0
100
AcDbBlockBegin
  2
block 23
 70
     0
 10
0.0
 20
0.0
 30
0.0
  3
block 23
  1

  0
POLYLINE
  5
1AC
330
1A8
100
AcDbEntity
  8
Layer 1
370
     0
100
AcDb2dPolyline
 66
     1
 10
0.0
 20
0.0
 30
0.0
  0
VERTEX
  5
1AD
330
1AC
100
AcDbEntity
  8
Layer 1
370
     0
100
AcDbVertex
100
AcDb2dVertex
 10
10.35044444499667
 20
-12.36944444558902
 30
0.0
  0
VERTEX
  5
1AE
330
1AC
100
AcDbEntity
  8
Layer 1
370
     0
100
AcDbVertex
100
AcDb2dVertex
 10
10.35044444501912
 20
-12.86944444558902
 30
0.0
  0
VERTEX
  5
1AF
330
1AC
100
AcDbEntity
  8
Layer 1
370
     0
100
AcDbVertex
100
AcDb2dVertex
 10
10.47544444501912
 20
-12.86944444558341
 30
0.0
  0
VERTEX
  5
1B0
330
1AC
100
AcDbEntity
  8
Layer 1
370
     0
100
AcDbVertex
100
AcDb2dVertex
 10
10.47544444499667
 20
-12.36944444558341
 30
0.0
  0
VERTEX
  5
1B1
330
1AC
100
AcDbEntity
  8
Layer 1
370
     0
100
AcDbVertex
100
AcDb2dVertex
 10
10.35044444499667
 20
-12.36944444558902
 30
0.0
  0
SEQEND
  5
1B2
330
1AC
100
AcDbEntity
  8
Layer 1
370
     0
  0
ENDBLK
  5
1AB
330
1A8
100
AcDbEntity
  8
0
100
AcDbBlockEnd
  0
BLOCK
  5
1B5
330
1B3
100
AcDbEntity
  8
0
100
AcDbBlockBegin
  2
block 24
 70
     0
 10
0.0
 20
0.0
 30
0.0
  3
block 24
  1

  0
POLYLINE
  5
1B7
330
1B3
100
AcDbEntity
  8
Layer 1
370
     0
100
AcDb2dPolyline
 66
     1
 10
0.0
 20
0.0
 30
0.0
  0
VERTEX
  5
1B8
330
1B7
100
AcDbEntity
  8
Layer 1
370
     0
100
AcDbVertex
100
AcDb2dVertex
 10
5.194444445414206
 20
-21.66944444582052
 30
0.0
  0
VERTEX
  5
1B9
330
1B7
100
AcDbEntity
  8
Layer 1
370
     0
100
AcDbVertex
100
AcDb2dVertex
 10
6.444444445414206
 20
-21.66944444576441
 30
0.0
  0
VERTEX
  5
1BA
330
1B7
100
AcDbEntity
  8
Layer 1
370
     0
100
AcDbVertex
100
AcDb2dVertex
 10
6.444444445419814
 20
-21.79444444576441
 30
0.0
  0
VERTEX
  5
1BB
330
1B7
100
AcDbEntity
  8
Layer 1
370
     0
100
AcDbVertex
100
AcDb2dVertex
 10
7.694444445419814
 20
-21.79444444570827
 30
0.0
  0
VERTEX
  5
1BC
330
1B7
100
AcDbEntity
  8
Layer 1
370
     0
100
AcDbVertex
100
AcDb2dVertex
 10
7.694444445414206
 20
-21.66944444570827
 30
0.0
  0
VERTEX
  5
1BD
330
1B7
100
AcDbEntity
  8
Layer 1
370
     0
100
AcDbVertex
100
AcDb2dVertex
 10
8.944444445414206
 20
-21.66944444565216
 30
0.0
  0
VERTEX
  5
1BE
330
1B7
100
AcDbEntity
  8
Layer 1
370
     0
100
AcDbVertex
100
AcDb2dVertex
 10
8.944444445419814
 20
-21.79444444565216
 30
0.0
  0
VERTEX
  5
1BF
330
1B7
100
AcDbEntity
  8
Layer 1
370
     0
100
AcDbVertex
100
AcDb2dVertex
 10
10.19444444541981
 20
-21.79444444559605
 30
0.0
  0
VERTEX
  5
1C0
330
1B7
100
AcDbEntity
  8
Layer 1
370
     0
100
AcDbVertex
100
AcDb2dVertex
 10
10.19444444541421
 20
-21.66944444559605
 30
0.0
  0
VERTEX
  5
1C1
330
1B7
100
AcDbEntity
  8
Layer 1
370
     0
100
AcDbVertex
100
AcDb2dVertex
 10
8.194444445318798
 20
-19.54444444568584
 30
0.0
  0
VERTEX
  5
1C2
330
1B7
100
AcDbEntity
  8
Layer 1
370
     0
100
AcDbVertex
100
AcDb2dVertex
 10
0.1944444453187973
 20
-19.54444444604501
 30
0.0
  0
VERTEX
  5
1C3
330
1B7
100
AcDbEntity
  8
Layer 1
370
     0
100
AcDbVertex
100
AcDb2dVertex
 10
0.194444445391759
 20
-21.16944444604501
 30
0.0
  0
VERTEX
  5
1C4
330
1B7
100
AcDbEntity
  8
Layer 1
370
     0
100
AcDbVertex
100
AcDb2dVertex
 10
0.069444445391759
 20
-21.16944444605062
 30
0.0
  0
VERTEX
  5
1C5
330
1B7
100
AcDbEntity
  8
Layer 1
370
     0
100
AcDbVertex
100
AcDb2dVertex
 10
0.0694444454142058
 20
-21.66944444605062
 30
0.0
  0
VERTEX
  5
1C6
330
1B7
100
AcDbEntity
  8
Layer 1
370
     0
100
AcDbVertex
100
AcDb2dVertex
 10
1.444444445414206
 20
-21.66944444598888
 30
0.0
  0
VERTEX
  5
1C7
330
1B7
100
AcDbEntity
  8
Layer 1
370
     0
100
AcDbVertex
100
AcDb2dVertex
 10
1.444444445419814
 20
-21.79444444598888
 30
0.0
  0
VERTEX
  5
1C8
330
1B7
100
AcDbEntity
  8
Layer 1
370
     0
100
AcDbVertex
100
AcDb2dVertex
 10
2.694444445419814
 20
-21.79444444593276
 30
0.0
  0
VERTEX
  5
1C9
330
1B7
100
AcDbEntity
  8
Layer 1
370
     0
100
AcDbVertex
100
AcDb2dVertex
 10
2.694444445414206
 20
-21.66944444593276
 30
0.0
  0
VERTEX
  5
1CA
330
1B7
100
AcDbEntity
  8
Layer 1
370
     0
100
AcDbVertex
100
AcDb2dVertex
 10
3.944444445414206
 20
-21.66944444587665
 30
0.0
  0
VERTEX
  5
1CB
330
1B7
100
AcDbEntity
  8
Layer 1
370
     0
100
AcDbVertex
100
AcDb2dVertex
 10
3.944444445419814
 20
-21.79444444587665
 30
0.0
  0
VERTEX
  5
1CC
330
1B7
100
AcDbEntity
  8
Layer 1
370
     0
100
AcDbVertex
100
AcDb2dVertex
 10
5.194444445419814
 20
-21.79444444582052
 30
0.0
  0
VERTEX
  5
1CD
330
1B7
100
AcDbEntity
  8
Layer 1
370
     0
100
AcDbVertex
100
AcDb2dVertex
 10
5.194444445414206
 20
-21.66944444582052
 30
0.0
  0
SEQEND
  5
1CE
330
1B7
100
AcDbEntity
  8
Layer 1
370
     0
  0
ENDBLK
  5
1B6
330
1B3
100
AcDbEntity
  8
0
100
AcDbBlockEnd
  0
BLOCK
  5
1D1
330
1CF
100
AcDbEntity
  8
0
100
AcDbBlockBegin
  2
block 25
 70
     0
 10
0.0
 20
0.0
 30
0.0
  3
block 25
  1

  0
POLYLINE
  5
1D3
330
1CF
100
AcDbEntity
  8
Layer 1
370
     0
100
AcDb2dPolyline
 66
     1
 10
0.0
 20
0.0
 30
0.0
  0
VERTEX
  5
1D4
330
1D3
100
AcDbEntity
  8
Layer 1
370
     0
100
AcDbVertex
100
AcDb2dVertex
 10
30.74444444467457
 20
-5.194444444673409
 30
0.0
  0
VERTEX
  5
1D5
330
1D3
100
AcDbEntity
  8
Layer 1
370
     0
100
AcDbVertex
100
AcDb2dVertex
 10
30.74444444473071
 20
-6.444444444673422
 30
0.0
  0
VERTEX
  5
1D6
330
1D3
100
AcDbEntity
  8
Layer 1
370
     0
100
AcDbVertex
100
AcDb2dVertex
 10
30.61944444473071
 20
-6.44444444467903
 30
0.0
  0
VERTEX
  5
1D7
330
1D3
100
AcDbEntity
  8
Layer 1
370
     0
100
AcDbVertex
100
AcDb2dVertex
 10
30.6194444447868
 20
-7.69444444467903
 30
0.0
  0
VERTEX
  5
1D8
330
1D3
100
AcDbEntity
  8
Layer 1
370
     0
100
AcDbVertex
100
AcDb2dVertex
 10
30.7444444447868
 20
-7.694444444673422
 30
0.0
  0
VERTEX
  5
1D9
330
1D3
100
AcDbEntity
  8
Layer 1
370
     0
100
AcDbVertex
100
AcDb2dVertex
 10
30.74444444484293
 20
-8.944444444673422
 30
0.0
  0
VERTEX
  5
1DA
330
1D3
100
AcDbEntity
  8
Layer 1
370
     0
100
AcDbVertex
100
AcDb2dVertex
 10
30.61944444484293
 20
-8.94444444467903
 30
0.0
  0
VERTEX
  5
1DB
330
1D3
100
AcDbEntity
  8
Layer 1
370
     0
100
AcDbVertex
100
AcDb2dVertex
 10
30.61944444489907
 20
-10.19444444467903
 30
0.0
  0
VERTEX
  5
1DC
330
1D3
100
AcDbEntity
  8
Layer 1
370
     0
100
AcDbVertex
100
AcDb2dVertex
 10
30.74444444489907
 20
-10.19444444467342
 30
0.0
  0
VERTEX
  5
1DD
330
1D3
100
AcDbEntity
  8
Layer 1
370
     0
100
AcDbVertex
100
AcDb2dVertex
 10
32.86944444480928
 20
-8.194444444578014
 30
0.0
  0
VERTEX
  5
1DE
330
1D3
100
AcDbEntity
  8
Layer 1
370
     0
100
AcDbVertex
100
AcDb2dVertex
 10
32.86944444445008
 20
-0.1944444445780138
 30
0.0
  0
VERTEX
  5
1DF
330
1D3
100
AcDbEntity
  8
Layer 1
370
     0
100
AcDbVertex
100
AcDb2dVertex
 10
31.24444444445008
 20
-0.1944444446509755
 30
0.0
  0
VERTEX
  5
1E0
330
1D3
100
AcDbEntity
  8
Layer 1
370
     0
100
AcDbVertex
100
AcDb2dVertex
 10
31.24444444444447
 20
-0.0694444446509755
 30
0.0
  0
VERTEX
  5
1E1
330
1D3
100
AcDbEntity
  8
Layer 1
370
     0
100
AcDbVertex
100
AcDb2dVertex
 10
30.74444444444447
 20
-0.0694444446734097
 30
0.0
  0
VERTEX
  5
1E2
330
1D3
100
AcDbEntity
  8
Layer 1
370
     0
100
AcDbVertex
100
AcDb2dVertex
 10
30.74444444450622
 20
-1.44444444467341
 30
0.0
  0
VERTEX
  5
1E3
330
1D3
100
AcDbEntity
  8
Layer 1
370
     0
100
AcDbVertex
100
AcDb2dVertex
 10
30.61944444450622
 20
-1.444444444679018
 30
0.0
  0
VERTEX
  5
1E4
330
1D3
100
AcDbEntity
  8
Layer 1
370
     0
100
AcDbVertex
100
AcDb2dVertex
 10
30.61944444456235
 20
-2.694444444679018
 30
0.0
  0
VERTEX
  5
1E5
330
1D3
100
AcDbEntity
  8
Layer 1
370
     0
100
AcDbVertex
100
AcDb2dVertex
 10
30.74444444456235
 20
-2.694444444673409
 30
0.0
  0
VERTEX
  5
1E6
330
1D3
100
AcDbEntity
  8
Layer 1
370
     0
100
AcDbVertex
100
AcDb2dVertex
 10
30.74444444461844
 20
-3.944444444673409
 30
0.0
  0
VERTEX
  5
1E7
330
1D3
100
AcDbEntity
  8
Layer 1
370
     0
100
AcDbVertex
100
AcDb2dVertex
 10
30.61944444461844
 20
-3.944444444679018
 30
0.0
  0
VERTEX
  5
1E8
330
1D3
100
AcDbEntity
  8
Layer 1
370
     0
100
AcDbVertex
100
AcDb2dVertex
 10
30.61944444467457
 20
-5.194444444679018
 30
0.0
  0
VERTEX
  5
1E9
330
1D3
100
AcDbEntity
  8
Layer 1
370
     0
100
AcDbVertex
100
AcDb2dVertex
 10
30.74444444467457
 20
-5.194444444673409
 30
0.0
  0
SEQEND
  5
1EA
330
1D3
100
AcDbEntity
  8
Layer 1
370
     0
  0
ENDBLK
  5
1D2
330
1CF
100
AcDbEntity
  8
0
100
AcDbBlockEnd
  0
BLOCK
  5
1ED
330
1EB
100
AcDbEntity
  8
0
100
AcDbBlockBegin
  2
block 26
 70
     0
 10
0.0
 20
0.0
 30
0.0
  3
block 26
  1

  0
POLYLINE
  5
1EF
330
1EB
100
AcDbEntity
  8
Layer 1
370
     0
100
AcDb2dPolyline
 66
     1
 10
0.0
 20
0.0
 30
0.0
  0
VERTEX
  5
1F0
330
1EF
100
AcDbEntity
  8
Layer 1
370
     0
100
AcDbVertex
100
AcDb2dVertex
 10
15.36944444541423
 20
-21.6694444453637
 30
0.0
  0
VERTEX
  5
1F1
330
1EF
100
AcDbEntity
  8
Layer 1
370
     0
100
AcDbVertex
100
AcDb2dVertex
 10
16.61944444541423
 20
-21.66944444530759
 30
0.0
  0
VERTEX
  5
1F2
330
1EF
100
AcDbEntity
  8
Layer 1
370
     0
100
AcDbVertex
100
AcDb2dVertex
 10
16.61944444541984
 20
-21.79444444530759
 30
0.0
  0
VERTEX
  5
1F3
330
1EF
100
AcDbEntity
  8
Layer 1
370
     0
100
AcDbVertex
100
AcDb2dVertex
 10
17.86944444541984
 20
-21.79444444525145
 30
0.0
  0
VERTEX
  5
1F4
330
1EF
100
AcDbEntity
  8
Layer 1
370
     0
100
AcDbVertex
100
AcDb2dVertex
 10
17.86944444541423
 20
-21.66944444525145
 30
0.0
  0
VERTEX
  5
1F5
330
1EF
100
AcDbEntity
  8
Layer 1
370
     0
100
AcDbVertex
100
AcDb2dVertex
 10
19.11944444541425
 20
-21.66944444519534
 30
0.0
  0
VERTEX
  5
1F6
330
1EF
100
AcDbEntity
  8
Layer 1
370
     0
100
AcDbVertex
100
AcDb2dVertex
 10
19.11944444541986
 20
-21.79444444519534
 30
0.0
  0
VERTEX
  5
1F7
330
1EF
100
AcDbEntity
  8
Layer 1
370
     0
100
AcDbVertex
100
AcDb2dVertex
 10
20.36944444541986
 20
-21.79444444513921
 30
0.0
  0
VERTEX
  5
1F8
330
1EF
100
AcDbEntity
  8
Layer 1
370
     0
100
AcDbVertex
100
AcDb2dVertex
 10
20.36944444541425
 20
-21.66944444513921
 30
0.0
  0
VERTEX
  5
1F9
330
1EF
100
AcDbEntity
  8
Layer 1
370
     0
100
AcDbVertex
100
AcDb2dVertex
 10
18.3694444453188
 20
-19.54444444522902
 30
0.0
  0
VERTEX
  5
1FA
330
1EF
100
AcDbEntity
  8
Layer 1
370
     0
100
AcDbVertex
100
AcDb2dVertex
 10
10.36944444531883
 20
-19.54444444558819
 30
0.0
  0
VERTEX
  5
1FB
330
1EF
100
AcDbEntity
  8
Layer 1
370
     0
100
AcDbVertex
100
AcDb2dVertex
 10
10.36944444539179
 20
-21.16944444558819
 30
0.0
  0
VERTEX
  5
1FC
330
1EF
100
AcDbEntity
  8
Layer 1
370
     0
100
AcDbVertex
100
AcDb2dVertex
 10
10.24444444539179
 20
-21.1694444455938
 30
0.0
  0
VERTEX
  5
1FD
330
1EF
100
AcDbEntity
  8
Layer 1
370
     0
100
AcDbVertex
100
AcDb2dVertex
 10
10.24444444541423
 20
-21.6694444455938
 30
0.0
  0
VERTEX
  5
1FE
330
1EF
100
AcDbEntity
  8
Layer 1
370
     0
100
AcDbVertex
100
AcDb2dVertex
 10
11.61944444541423
 20
-21.66944444553206
 30
0.0
  0
VERTEX
  5
1FF
330
1EF
100
AcDbEntity
  8
Layer 1
370
     0
100
AcDbVertex
100
AcDb2dVertex
 10
11.61944444541984
 20
-21.79444444553206
 30
0.0
  0
VERTEX
  5
200
330
1EF
100
AcDbEntity
  8
Layer 1
370
     0
100
AcDbVertex
100
AcDb2dVertex
 10
12.86944444541984
 20
-21.79444444547595
 30
0.0
  0
VERTEX
  5
201
330
1EF
100
AcDbEntity
  8
Layer 1
370
     0
100
AcDbVertex
100
AcDb2dVertex
 10
12.86944444541423
 20
-21.66944444547595
 30
0.0
  0
VERTEX
  5
202
330
1EF
100
AcDbEntity
  8
Layer 1
370
     0
100
AcDbVertex
100
AcDb2dVertex
 10
14.11944444541423
 20
-21.66944444541981
 30
0.0
  0
VERTEX
  5
203
330
1EF
100
AcDbEntity
  8
Layer 1
370
     0
100
AcDbVertex
100
AcDb2dVertex
 10
14.11944444541984
 20
-21.79444444541981
 30
0.0
  0
VERTEX
  5
204
330
1EF
100
AcDbEntity
  8
Layer 1
370
     0
100
AcDbVertex
100
AcDb2dVertex
 10
15.36944444541984
 20
-21.7944444453637
 30
0.0
  0
VERTEX
  5
205
330
1EF
100
AcDbEntity
  8
Layer 1
370
     0
100
AcDbVertex
100
AcDb2dVertex
 10
15.36944444541423
 20
-21.6694444453637
 30
0.0
  0
SEQEND
  5
206
330
1EF
100
AcDbEntity
  8
Layer 1
370
     0
  0
ENDBLK
  5
1EE
330
1EB
100
AcDbEntity
  8
0
100
AcDbBlockEnd
  0
BLOCK
  5
209
330
207
100
AcDbEntity
  8
0
100
AcDbBlockBegin
  2
block 27
 70
     0
 10
0.0
 20
0.0
 30
0.0
  3
block 27
  1

  0
POLYLINE
  5
20B
330
207
100
AcDbEntity
  8
Layer 1
370
     0
100
AcDb2dPolyline
 66
     1
 10
0.0
 20
0.0
 30
0.0
  0
VERTEX
  5
20C
330
20B
100
AcDbEntity
  8
Layer 1
370
     0
100
AcDbVertex
100
AcDb2dVertex
 10
23.55544444532441
 20
-19.66944444499619
 30
0.0
  0
VERTEX
  5
20D
330
20B
100
AcDbEntity
  8
Layer 1
370
     0
100
AcDbVertex
100
AcDb2dVertex
 10
22.30544444532441
 20
-19.6694444450523
 30
0.0
  0
VERTEX
  5
20E
330
20B
100
AcDbEntity
  8
Layer 1
370
     0
100
AcDbVertex
100
AcDb2dVertex
 10
22.3054444453188
 20
-19.5444444450523
 30
0.0
  0
VERTEX
  5
20F
330
20B
100
AcDbEntity
  8
Layer 1
370
     0
100
AcDbVertex
100
AcDb2dVertex
 10
21.0554444453188
 20
-19.54444444510841
 30
0.0
  0
VERTEX
  5
210
330
20B
100
AcDbEntity
  8
Layer 1
370
     0
100
AcDbVertex
100
AcDb2dVertex
 10
21.05544444532441
 20
-19.66944444510841
 30
0.0
  0
VERTEX
  5
211
330
20B
100
AcDbEntity
  8
Layer 1
370
     0
100
AcDbVertex
100
AcDb2dVertex
 10
19.80544444532441
 20
-19.66944444516455
 30
0.0
  0
VERTEX
  5
212
330
20B
100
AcDbEntity
  8
Layer 1
370
     0
100
AcDbVertex
100
AcDb2dVertex
 10
19.80544444531875
 20
-19.54444444516455
 30
0.0
  0
VERTEX
  5
213
330
20B
100
AcDbEntity
  8
Layer 1
370
     0
100
AcDbVertex
100
AcDb2dVertex
 10
18.55544444531875
 20
-19.54444444522066
 30
0.0
  0
VERTEX
  5
214
330
20B
100
AcDbEntity
  8
Layer 1
370
     0
100
AcDbVertex
100
AcDb2dVertex
 10
18.55544444532441
 20
-19.66944444522066
 30
0.0
  0
VERTEX
  5
215
330
20B
100
AcDbEntity
  8
Layer 1
370
     0
100
AcDbVertex
100
AcDb2dVertex
 10
20.5554444454198
 20
-21.79444444513087
 30
0.0
  0
VERTEX
  5
216
330
20B
100
AcDbEntity
  8
Layer 1
370
     0
100
AcDbVertex
100
AcDb2dVertex
 10
28.5554444454198
 20
-21.7944444447717
 30
0.0
  0
VERTEX
  5
217
330
20B
100
AcDbEntity
  8
Layer 1
370
     0
100
AcDbVertex
100
AcDb2dVertex
 10
28.55544444534684
 20
-20.1694444447717
 30
0.0
  0
VERTEX
  5
218
330
20B
100
AcDbEntity
  8
Layer 1
370
     0
100
AcDbVertex
100
AcDb2dVertex
 10
28.68044444534684
 20
-20.16944444476609
 30
0.0
  0
VERTEX
  5
219
330
20B
100
AcDbEntity
  8
Layer 1
370
     0
100
AcDbVertex
100
AcDb2dVertex
 10
28.68044444532441
 20
-19.66944444476609
 30
0.0
  0
VERTEX
  5
21A
330
20B
100
AcDbEntity
  8
Layer 1
370
     0
100
AcDbVertex
100
AcDb2dVertex
 10
27.30544444532441
 20
-19.66944444482781
 30
0.0
  0
VERTEX
  5
21B
330
20B
100
AcDbEntity
  8
Layer 1
370
     0
100
AcDbVertex
100
AcDb2dVertex
 10
27.3054444453188
 20
-19.54444444482781
 30
0.0
  0
VERTEX
  5
21C
330
20B
100
AcDbEntity
  8
Layer 1
370
     0
100
AcDbVertex
100
AcDb2dVertex
 10
26.0554444453188
 20
-19.54444444488394
 30
0.0
  0
VERTEX
  5
21D
330
20B
100
AcDbEntity
  8
Layer 1
370
     0
100
AcDbVertex
100
AcDb2dVertex
 10
26.05544444532441
 20
-19.66944444488394
 30
0.0
  0
VERTEX
  5
21E
330
20B
100
AcDbEntity
  8
Layer 1
370
     0
100
AcDbVertex
100
AcDb2dVertex
 10
24.80544444532441
 20
-19.66944444494005
 30
0.0
  0
VERTEX
  5
21F
330
20B
100
AcDbEntity
  8
Layer 1
370
     0
100
AcDbVertex
100
AcDb2dVertex
 10
24.8054444453188
 20
-19.54444444494005
 30
0.0
  0
VERTEX
  5
220
330
20B
100
AcDbEntity
  8
Layer 1
370
     0
100
AcDbVertex
100
AcDb2dVertex
 10
23.5554444453188
 20
-19.54444444499619
 30
0.0
  0
VERTEX
  5
221
330
20B
100
AcDbEntity
  8
Layer 1
370
     0
100
AcDbVertex
100
AcDb2dVertex
 10
23.55544444532441
 20
-19.66944444499619
 30
0.0
  0
SEQEND
  5
222
330
20B
100
AcDbEntity
  8
Layer 1
370
     0
  0
ENDBLK
  5
20A
330
207
100
AcDbEntity
  8
0
100
AcDbBlockEnd
  0
BLOCK
  5
225
330
223
100
AcDbEntity
  8
0
100
AcDbBlockBegin
  2
block 28
 70
     0
 10
0.0
 20
0.0
 30
0.0
  3
block 28
  1

  0
POLYLINE
  5
227
330
223
100
AcDbEntity
  8
Layer 1
370
     0
100
AcDb2dPolyline
 66
     1
 10
0.0
 20
0.0
 30
0.0
  0
VERTEX
  5
228
330
227
100
AcDbEntity
  8
Layer 1
370
     0
100
AcDbVertex
100
AcDb2dVertex
 10
32.74444444504211
 20
-13.38074444458359
 30
0.0
  0
VERTEX
  5
229
330
227
100
AcDbEntity
  8
Layer 1
370
     0
100
AcDbVertex
100
AcDb2dVertex
 10
32.74444444498597
 20
-12.13074444458359
 30
0.0
  0
VERTEX
  5
22A
330
227
100
AcDbEntity
  8
Layer 1
370
     0
100
AcDbVertex
100
AcDb2dVertex
 10
32.86944444498597
 20
-12.13074444457799
 30
0.0
  0
VERTEX
  5
22B
330
227
100
AcDbEntity
  8
Layer 1
370
     0
100
AcDbVertex
100
AcDb2dVertex
 10
32.86944444492989
 20
-10.88074444457801
 30
0.0
  0
VERTEX
  5
22C
330
227
100
AcDbEntity
  8
Layer 1
370
     0
100
AcDbVertex
100
AcDb2dVertex
 10
32.74444444492989
 20
-10.88074444458362
 30
0.0
  0
VERTEX
  5
22D
330
227
100
AcDbEntity
  8
Layer 1
370
     0
100
AcDbVertex
100
AcDb2dVertex
 10
32.74444444487376
 20
-9.63075444458362
 30
0.0
  0
VERTEX
  5
22E
330
227
100
AcDbEntity
  8
Layer 1
370
     0
100
AcDbVertex
100
AcDb2dVertex
 10
32.86944444487376
 20
-9.630754444578011
 30
0.0
  0
VERTEX
  5
22F
330
227
100
AcDbEntity
  8
Layer 1
370
     0
100
AcDbVertex
100
AcDb2dVertex
 10
32.86944444481762
 20
-8.380754444578011
 30
0.0
  0
VERTEX
  5
230
330
227
100
AcDbEntity
  8
Layer 1
370
     0
100
AcDbVertex
100
AcDb2dVertex
 10
32.74444444481762
 20
-8.38075444458362
 30
0.0
  0
VERTEX
  5
231
330
227
100
AcDbEntity
  8
Layer 1
370
     0
100
AcDbVertex
100
AcDb2dVertex
 10
30.6194444449074
 20
-10.38074444467903
 30
0.0
  0
VERTEX
  5
232
330
227
100
AcDbEntity
  8
Layer 1
370
     0
100
AcDbVertex
100
AcDb2dVertex
 10
30.61944444526661
 20
-18.38074444467901
 30
0.0
  0
VERTEX
  5
233
330
227
100
AcDbEntity
  8
Layer 1
370
     0
100
AcDbVertex
100
AcDb2dVertex
 10
32.24444444526661
 20
-18.38074444460606
 30
0.0
  0
VERTEX
  5
234
330
227
100
AcDbEntity
  8
Layer 1
370
     0
100
AcDbVertex
100
AcDb2dVertex
 10
32.24444444527222
 20
-18.50574444460606
 30
0.0
  0
VERTEX
  5
235
330
227
100
AcDbEntity
  8
Layer 1
370
     0
100
AcDbVertex
100
AcDb2dVertex
 10
32.74444444527222
 20
-18.50574444458362
 30
0.0
  0
VERTEX
  5
236
330
227
100
AcDbEntity
  8
Layer 1
370
     0
100
AcDbVertex
100
AcDb2dVertex
 10
32.74444444521047
 20
-17.13074444458362
 30
0.0
  0
VERTEX
  5
237
330
227
100
AcDbEntity
  8
Layer 1
370
     0
100
AcDbVertex
100
AcDb2dVertex
 10
32.86944444521047
 20
-17.13074444457799
 30
0.0
  0
VERTEX
  5
238
330
227
100
AcDbEntity
  8
Layer 1
370
     0
100
AcDbVertex
100
AcDb2dVertex
 10
32.86944444515434
 20
-15.88074444457799
 30
0.0
  0
VERTEX
  5
239
330
227
100
AcDbEntity
  8
Layer 1
370
     0
100
AcDbVertex
100
AcDb2dVertex
 10
32.74444444515434
 20
-15.88074444458362
 30
0.0
  0
VERTEX
  5
23A
330
227
100
AcDbEntity
  8
Layer 1
370
     0
100
AcDbVertex
100
AcDb2dVertex
 10
32.74444444509825
 20
-14.63074444458362
 30
0.0
  0
VERTEX
  5
23B
330
227
100
AcDbEntity
  8
Layer 1
370
     0
100
AcDbVertex
100
AcDb2dVertex
 10
32.86944444509825
 20
-14.63074444457799
 30
0.0
  0
VERTEX
  5
23C
330
227
100
AcDbEntity
  8
Layer 1
370
     0
100
AcDbVertex
100
AcDb2dVertex
 10
32.86944444504211
 20
-13.38074444457799
 30
0.0
  0
VERTEX
  5
23D
330
227
100
AcDbEntity
  8
Layer 1
370
     0
100
AcDbVertex
100
AcDb2dVertex
 10
32.74444444504211
 20
-13.38074444458359
 30
0.0
  0
SEQEND
  5
23E
330
227
100
AcDbEntity
  8
Layer 1
370
     0
  0
ENDBLK
  5
226
330
223
100
AcDbEntity
  8
0
100
AcDbBlockEnd
  0
BLOCK
  5
241
330
23F
100
AcDbEntity
  8
0
100
AcDbBlockBegin
  2
block 29
 70
     0
 10
0.0
 20
0.0
 30
0.0
  3
block 29
  1

  0
POLYLINE
  5
243
330
23F
100
AcDbEntity
  8
Layer 1
370
     0
100
AcDb2dPolyline
 66
     1
 10
0.0
 20
0.0
 30
0.0
  0
VERTEX
  5
244
330
243
100
AcDbEntity
  8
Layer 1
370
     0
100
AcDbVertex
100
AcDb2dVertex
 10
35.04444444466895
 20
-5.069444444480344
 30
0.0
  0
VERTEX
  5
245
330
243
100
AcDbEntity
  8
Layer 1
370
     0
100
AcDbVertex
100
AcDb2dVertex
 10
35.04444444461281
 20
-3.819444444480344
 30
0.0
  0
VERTEX
  5
246
330
243
100
AcDbEntity
  8
Layer 1
370
     0
100
AcDbVertex
100
AcDb2dVertex
 10
35.16944444461281
 20
-3.819444444474736
 30
0.0
  0
VERTEX
  5
247
330
243
100
AcDbEntity
  8
Layer 1
370
     0
100
AcDbVertex
100
AcDb2dVertex
 10
35.16944444455672
 20
-2.569444444474736
 30
0.0
  0
VERTEX
  5
248
330
243
100
AcDbEntity
  8
Layer 1
370
     0
100
AcDbVertex
100
AcDb2dVertex
 10
35.04444444455672
 20
-2.569444444480344
 30
0.0
  0
VERTEX
  5
249
330
243
100
AcDbEntity
  8
Layer 1
370
     0
100
AcDbVertex
100
AcDb2dVertex
 10
35.04444444450059
 20
-1.319444444480344
 30
0.0
  0
VERTEX
  5
24A
330
243
100
AcDbEntity
  8
Layer 1
370
     0
100
AcDbVertex
100
AcDb2dVertex
 10
35.16944444450059
 20
-1.319444444474736
 30
0.0
  0
VERTEX
  5
24B
330
243
100
AcDbEntity
  8
Layer 1
370
     0
100
AcDbVertex
100
AcDb2dVertex
 10
35.16944444444445
 20
-0.0694444444747357
 30
0.0
  0
VERTEX
  5
24C
330
243
100
AcDbEntity
  8
Layer 1
370
     0
100
AcDbVertex
100
AcDb2dVertex
 10
35.04444444444445
 20
-0.0694444444803442
 30
0.0
  0
VERTEX
  5
24D
330
243
100
AcDbEntity
  8
Layer 1
370
     0
100
AcDbVertex
100
AcDb2dVertex
 10
32.91944444453424
 20
-2.069444444575765
 30
0.0
  0
VERTEX
  5
24E
330
243
100
AcDbEntity
  8
Layer 1
370
     0
100
AcDbVertex
100
AcDb2dVertex
 10
32.91944444489344
 20
-10.06944444457577
 30
0.0
  0
VERTEX
  5
24F
330
243
100
AcDbEntity
  8
Layer 1
370
     0
100
AcDbVertex
100
AcDb2dVertex
 10
34.54444444489344
 20
-10.06944444450282
 30
0.0
  0
VERTEX
  5
250
330
243
100
AcDbEntity
  8
Layer 1
370
     0
100
AcDbVertex
100
AcDb2dVertex
 10
34.54444444489905
 20
-10.19444444450282
 30
0.0
  0
VERTEX
  5
251
330
243
100
AcDbEntity
  8
Layer 1
370
     0
100
AcDbVertex
100
AcDb2dVertex
 10
35.04444444489905
 20
-10.19444444448036
 30
0.0
  0
VERTEX
  5
252
330
243
100
AcDbEntity
  8
Layer 1
370
     0
100
AcDbVertex
100
AcDb2dVertex
 10
35.0444444448373
 20
-8.819444444480357
 30
0.0
  0
VERTEX
  5
253
330
243
100
AcDbEntity
  8
Layer 1
370
     0
100
AcDbVertex
100
AcDb2dVertex
 10
35.1694444448373
 20
-8.819444444474748
 30
0.0
  0
VERTEX
  5
254
330
243
100
AcDbEntity
  8
Layer 1
370
     0
100
AcDbVertex
100
AcDb2dVertex
 10
35.16944444478117
 20
-7.569444444474748
 30
0.0
  0
VERTEX
  5
255
330
243
100
AcDbEntity
  8
Layer 1
370
     0
100
AcDbVertex
100
AcDb2dVertex
 10
35.04444444478117
 20
-7.569444444480356
 30
0.0
  0
VERTEX
  5
256
330
243
100
AcDbEntity
  8
Layer 1
370
     0
100
AcDbVertex
100
AcDb2dVertex
 10
35.04444444472508
 20
-6.319444444480356
 30
0.0
  0
VERTEX
  5
257
330
243
100
AcDbEntity
  8
Layer 1
370
     0
100
AcDbVertex
100
AcDb2dVertex
 10
35.16944444472508
 20
-6.319444444474748
 30
0.0
  0
VERTEX
  5
258
330
243
100
AcDbEntity
  8
Layer 1
370
     0
100
AcDbVertex
100
AcDb2dVertex
 10
35.16944444466895
 20
-5.069444444474735
 30
0.0
  0
VERTEX
  5
259
330
243
100
AcDbEntity
  8
Layer 1
370
     0
100
AcDbVertex
100
AcDb2dVertex
 10
35.04444444466895
 20
-5.069444444480344
 30
0.0
  0
SEQEND
  5
25A
330
243
100
AcDbEntity
  8
Layer 1
370
     0
  0
ENDBLK
  5
242
330
23F
100
AcDbEntity
  8
0
100
AcDbBlockEnd
  0
BLOCK
  5
25D
330
25B
100
AcDbEntity
  8
0
100
AcDbBlockBegin
  2
block 30
 70
     0
 10
0.0
 20
0.0
 30
0.0
  3
block 30
  1

  0
POLYLINE
  5
25F
330
25B
100
AcDbEntity
  8
Layer 1
370
     0
100
AcDb2dPolyline
 66
     1
 10
0.0
 20
0.0
 30
0.0
  0
VERTEX
  5
260
330
25F
100
AcDbEntity
  8
Layer 1
370
     0
100
AcDbVertex
100
AcDb2dVertex
 10
33.04444444512576
 20
-15.24444444457014
 30
0.0
  0
VERTEX
  5
261
330
25F
100
AcDbEntity
  8
Layer 1
370
     0
100
AcDbVertex
100
AcDb2dVertex
 10
33.0444444451819
 20
-16.49444444457014
 30
0.0
  0
VERTEX
  5
262
330
25F
100
AcDbEntity
  8
Layer 1
370
     0
100
AcDbVertex
100
AcDb2dVertex
 10
32.9194444451819
 20
-16.49444444457577
 30
0.0
  0
VERTEX
  5
263
330
25F
100
AcDbEntity
  8
Layer 1
370
     0
100
AcDbVertex
100
AcDb2dVertex
 10
32.91944444523799
 20
-17.74444444457577
 30
0.0
  0
VERTEX
  5
264
330
25F
100
AcDbEntity
  8
Layer 1
370
     0
100
AcDbVertex
100
AcDb2dVertex
 10
33.04444444523799
 20
-17.74444444457014
 30
0.0
  0
VERTEX
  5
265
330
25F
100
AcDbEntity
  8
Layer 1
370
     0
100
AcDbVertex
100
AcDb2dVertex
 10
33.04444444529413
 20
-18.99444444457014
 30
0.0
  0
VERTEX
  5
266
330
25F
100
AcDbEntity
  8
Layer 1
370
     0
100
AcDbVertex
100
AcDb2dVertex
 10
32.91944444529413
 20
-18.99444444457577
 30
0.0
  0
VERTEX
  5
267
330
25F
100
AcDbEntity
  8
Layer 1
370
     0
100
AcDbVertex
100
AcDb2dVertex
 10
32.91944444535026
 20
-20.24444444457577
 30
0.0
  0
VERTEX
  5
268
330
25F
100
AcDbEntity
  8
Layer 1
370
     0
100
AcDbVertex
100
AcDb2dVertex
 10
33.04444444535026
 20
-20.24444444457014
 30
0.0
  0
VERTEX
  5
269
330
25F
100
AcDbEntity
  8
Layer 1
370
     0
100
AcDbVertex
100
AcDb2dVertex
 10
35.16944444526047
 20
-18.24444444447474
 30
0.0
  0
VERTEX
  5
26A
330
25F
100
AcDbEntity
  8
Layer 1
370
     0
100
AcDbVertex
100
AcDb2dVertex
 10
35.16944444490127
 20
-10.24444444447474
 30
0.0
  0
VERTEX
  5
26B
330
25F
100
AcDbEntity
  8
Layer 1
370
     0
100
AcDbVertex
100
AcDb2dVertex
 10
33.54444444490127
 20
-10.2444444445477
 30
0.0
  0
VERTEX
  5
26C
330
25F
100
AcDbEntity
  8
Layer 1
370
     0
100
AcDbVertex
100
AcDb2dVertex
 10
33.54444444489566
 20
-10.1194444445477
 30
0.0
  0
VERTEX
  5
26D
330
25F
100
AcDbEntity
  8
Layer 1
370
     0
100
AcDbVertex
100
AcDb2dVertex
 10
33.04444444489566
 20
-10.11944444457015
 30
0.0
  0
VERTEX
  5
26E
330
25F
100
AcDbEntity
  8
Layer 1
370
     0
100
AcDbVertex
100
AcDb2dVertex
 10
33.04444444495741
 20
-11.49444444457015
 30
0.0
  0
VERTEX
  5
26F
330
25F
100
AcDbEntity
  8
Layer 1
370
     0
100
AcDbVertex
100
AcDb2dVertex
 10
32.91944444495741
 20
-11.49444444457576
 30
0.0
  0
VERTEX
  5
270
330
25F
100
AcDbEntity
  8
Layer 1
370
     0
100
AcDbVertex
100
AcDb2dVertex
 10
32.91944444501355
 20
-12.74444444457574
 30
0.0
  0
VERTEX
  5
271
330
25F
100
AcDbEntity
  8
Layer 1
370
     0
100
AcDbVertex
100
AcDb2dVertex
 10
33.04444444501355
 20
-12.74444444457014
 30
0.0
  0
VERTEX
  5
272
330
25F
100
AcDbEntity
  8
Layer 1
370
     0
100
AcDbVertex
100
AcDb2dVertex
 10
33.04444444506963
 20
-13.99444444457014
 30
0.0
  0
VERTEX
  5
273
330
25F
100
AcDbEntity
  8
Layer 1
370
     0
100
AcDbVertex
100
AcDb2dVertex
 10
32.91944444506963
 20
-13.99444444457577
 30
0.0
  0
VERTEX
  5
274
330
25F
100
AcDbEntity
  8
Layer 1
370
     0
100
AcDbVertex
100
AcDb2dVertex
 10
32.91944444512576
 20
-15.24444444457577
 30
0.0
  0
VERTEX
  5
275
330
25F
100
AcDbEntity
  8
Layer 1
370
     0
100
AcDbVertex
100
AcDb2dVertex
 10
33.04444444512576
 20
-15.24444444457014
 30
0.0
  0
SEQEND
  5
276
330
25F
100
AcDbEntity
  8
Layer 1
370
     0
  0
ENDBLK
  5
25E
330
25B
100
AcDbEntity
  8
0
100
AcDbBlockEnd
  0
BLOCK
  5
279
330
277
100
AcDbEntity
  8
0
100
AcDbBlockBegin
  2
block 31
 70
     0
 10
0.0
 20
0.0
 30
0.0
  3
block 31
  1

  0
POLYLINE
  5
27B
330
277
100
AcDbEntity
  8
Layer 1
370
     0
100
AcDb2dPolyline
 66
     1
 10
0.0
 20
0.0
 30
0.0
  0
VERTEX
  5
27C
330
27B
100
AcDbEntity
  8
Layer 1
370
     0
100
AcDbVertex
100
AcDb2dVertex
 10
35.21944444480364
 20
-8.069444444472499
 30
0.0
  0
VERTEX
  5
27D
330
27B
100
AcDbEntity
  8
Layer 1
370
     0
100
AcDbVertex
100
AcDb2dVertex
 10
35.2194444447523
 20
-6.926594444472496
 30
0.0
  0
VERTEX
  5
27E
330
27B
100
AcDbEntity
  8
Layer 1
370
     0
100
AcDbVertex
100
AcDb2dVertex
 10
35.3444444447523
 20
-6.926594444466887
 30
0.0
  0
VERTEX
  5
27F
330
27B
100
AcDbEntity
  8
Layer 1
370
     0
100
AcDbVertex
100
AcDb2dVertex
 10
35.34444444470101
 20
-5.783754444466896
 30
0.0
  0
VERTEX
  5
280
330
27B
100
AcDbEntity
  8
Layer 1
370
     0
100
AcDbVertex
100
AcDb2dVertex
 10
35.21944444470101
 20
-5.783754444472505
 30
0.0
  0
VERTEX
  5
281
330
27B
100
AcDbEntity
  8
Layer 1
370
     0
100
AcDbVertex
100
AcDb2dVertex
 10
35.21944444464967
 20
-4.640904444472501
 30
0.0
  0
VERTEX
  5
282
330
27B
100
AcDbEntity
  8
Layer 1
370
     0
100
AcDbVertex
100
AcDb2dVertex
 10
35.34444444464967
 20
-4.640904444466893
 30
0.0
  0
VERTEX
  5
283
330
27B
100
AcDbEntity
  8
Layer 1
370
     0
100
AcDbVertex
100
AcDb2dVertex
 10
35.34444444459839
 20
-3.497984444466889
 30
0.0
  0
VERTEX
  5
284
330
27B
100
AcDbEntity
  8
Layer 1
370
     0
100
AcDbVertex
100
AcDb2dVertex
 10
35.21944444459839
 20
-3.497984444472498
 30
0.0
  0
VERTEX
  5
285
330
27B
100
AcDbEntity
  8
Layer 1
370
     0
100
AcDbVertex
100
AcDb2dVertex
 10
35.21944444454705
 20
-2.355134444472494
 30
0.0
  0
VERTEX
  5
286
330
27B
100
AcDbEntity
  8
Layer 1
370
     0
100
AcDbVertex
100
AcDb2dVertex
 10
35.34444444454705
 20
-2.355134444466886
 30
0.0
  0
VERTEX
  5
287
330
27B
100
AcDbEntity
  8
Layer 1
370
     0
100
AcDbVertex
100
AcDb2dVertex
 10
35.34444444449577
 20
-1.212294444466882
 30
0.0
  0
VERTEX
  5
288
330
27B
100
AcDbEntity
  8
Layer 1
370
     0
100
AcDbVertex
100
AcDb2dVertex
 10
35.21944444449577
 20
-1.212294444472491
 30
0.0
  0
VERTEX
  5
289
330
27B
100
AcDbEntity
  8
Layer 1
370
     0
100
AcDbVertex
100
AcDb2dVertex
 10
35.21944444444443
 20
-0.0694444444725125
 30
0.0
  0
VERTEX
  5
28A
330
27B
100
AcDbEntity
  8
Layer 1
370
     0
100
AcDbVertex
100
AcDb2dVertex
 10
35.84444444444443
 20
-0.0694444444444444
 30
0.0
  0
VERTEX
  5
28B
330
27B
100
AcDbEntity
  8
Layer 1
370
     0
100
AcDbVertex
100
AcDb2dVertex
 10
35.84444444480364
 20
-8.069444444444445
 30
0.0
  0
VERTEX
  5
28C
330
27B
100
AcDbEntity
  8
Layer 1
370
     0
100
AcDbVertex
100
AcDb2dVertex
 10
35.21944444480364
 20
-8.069444444472499
 30
0.0
  0
SEQEND
  5
28D
330
27B
100
AcDbEntity
  8
Layer 1
370
     0
  0
ENDBLK
  5
27A
330
277
100
AcDbEntity
  8
0
100
AcDbBlockEnd
  0
BLOCK
  5
290
330
28E
100
AcDbEntity
  8
0
100
AcDbBlockBegin
  2
block 32
 70
     0
 10
0.0
 20
0.0
 30
0.0
  3
block 32
  1

  0
POLYLINE
  5
292
330
28E
100
AcDbEntity
  8
Layer 1
370
     0
100
AcDb2dPolyline
 66
     1
 10
0.0
 20
0.0
 30
0.0
  0
VERTEX
  5
293
330
292
100
AcDbEntity
  8
Layer 1
370
     0
100
AcDbVertex
100
AcDb2dVertex
 10
35.84444444480585
 20
-8.119474444444437
 30
0.0
  0
VERTEX
  5
294
330
292
100
AcDbEntity
  8
Layer 1
370
     0
100
AcDbVertex
100
AcDb2dVertex
 10
35.84444444485719
 20
-9.26232444444444
 30
0.0
  0
VERTEX
  5
295
330
292
100
AcDbEntity
  8
Layer 1
370
     0
100
AcDbVertex
100
AcDb2dVertex
 10
35.71944444485719
 20
-9.262324444450048
 30
0.0
  0
VERTEX
  5
296
330
292
100
AcDbEntity
  8
Layer 1
370
     0
100
AcDbVertex
100
AcDb2dVertex
 10
35.71944444490848
 20
-10.40514444445005
 30
0.0
  0
VERTEX
  5
297
330
292
100
AcDbEntity
  8
Layer 1
370
     0
100
AcDbVertex
100
AcDb2dVertex
 10
35.84444444490848
 20
-10.40514444444444
 30
0.0
  0
VERTEX
  5
298
330
292
100
AcDbEntity
  8
Layer 1
370
     0
100
AcDbVertex
100
AcDb2dVertex
 10
35.84444444495981
 20
-11.54804444444445
 30
0.0
  0
VERTEX
  5
299
330
292
100
AcDbEntity
  8
Layer 1
370
     0
100
AcDbVertex
100
AcDb2dVertex
 10
35.71944444495981
 20
-11.54804444445006
 30
0.0
  0
VERTEX
  5
29A
330
292
100
AcDbEntity
  8
Layer 1
370
     0
100
AcDbVertex
100
AcDb2dVertex
 10
35.7194444450111
 20
-12.69084444445005
 30
0.0
  0
VERTEX
  5
29B
330
292
100
AcDbEntity
  8
Layer 1
370
     0
100
AcDbVertex
100
AcDb2dVertex
 10
35.8444444450111
 20
-12.69084444444444
 30
0.0
  0
VERTEX
  5
29C
330
292
100
AcDbEntity
  8
Layer 1
370
     0
100
AcDbVertex
100
AcDb2dVertex
 10
35.84444444506244
 20
-13.83374444444447
 30
0.0
  0
VERTEX
  5
29D
330
292
100
AcDbEntity
  8
Layer 1
370
     0
100
AcDbVertex
100
AcDb2dVertex
 10
35.71944444506244
 20
-13.83374444445008
 30
0.0
  0
VERTEX
  5
29E
330
292
100
AcDbEntity
  8
Layer 1
370
     0
100
AcDbVertex
100
AcDb2dVertex
 10
35.71944444511372
 20
-14.97654444445005
 30
0.0
  0
VERTEX
  5
29F
330
292
100
AcDbEntity
  8
Layer 1
370
     0
100
AcDbVertex
100
AcDb2dVertex
 10
35.84444444511372
 20
-14.97654444444444
 30
0.0
  0
VERTEX
  5
2A0
330
292
100
AcDbEntity
  8
Layer 1
370
     0
100
AcDbVertex
100
AcDb2dVertex
 10
35.84444444516505
 20
-16.11944444444445
 30
0.0
  0
VERTEX
  5
2A1
330
292
100
AcDbEntity
  8
Layer 1
370
     0
100
AcDbVertex
100
AcDb2dVertex
 10
35.21944444516505
 20
-16.11944444447249
 30
0.0
  0
VERTEX
  5
2A2
330
292
100
AcDbEntity
  8
Layer 1
370
     0
100
AcDbVertex
100
AcDb2dVertex
 10
35.21944444480586
 20
-8.119474444472491
 30
0.0
  0
VERTEX
  5
2A3
330
292
100
AcDbEntity
  8
Layer 1
370
     0
100
AcDbVertex
100
AcDb2dVertex
 10
35.84444444480585
 20
-8.119474444444437
 30
0.0
  0
SEQEND
  5
2A4
330
292
100
AcDbEntity
  8
Layer 1
370
     0
  0
ENDBLK
  5
291
330
28E
100
AcDbEntity
  8
0
100
AcDbBlockEnd
  0
BLOCK
  5
2A7
330
2A5
100
AcDbEntity
  8
0
100
AcDbBlockBegin
  2
block 33
 70
     0
 10
0.0
 20
0.0
 30
0.0
  3
block 33
  1

  0
POLYLINE
  5
2A9
330
2A5
100
AcDbEntity
  8
Layer 1
370
     0
100
AcDb2dPolyline
 66
     1
 10
0.0
 20
0.0
 30
0.0
  0
VERTEX
  5
2AA
330
2A9
100
AcDbEntity
  8
Layer 1
370
     0
100
AcDbVertex
100
AcDb2dVertex
 10
8.06944444545013
 20
-22.46944444569145
 30
0.0
  0
VERTEX
  5
2AB
330
2A9
100
AcDbEntity
  8
Layer 1
370
     0
100
AcDbVertex
100
AcDb2dVertex
 10
6.926444445450151
 20
-22.46944444574276
 30
0.0
  0
VERTEX
  5
2AC
330
2A9
100
AcDbEntity
  8
Layer 1
370
     0
100
AcDbVertex
100
AcDb2dVertex
 10
6.926444445444531
 20
-22.34444444574276
 30
0.0
  0
VERTEX
  5
2AD
330
2A9
100
AcDbEntity
  8
Layer 1
370
     0
100
AcDbVertex
100
AcDb2dVertex
 10
5.783444445444502
 20
-22.34444444579407
 30
0.0
  0
VERTEX
  5
2AE
330
2A9
100
AcDbEntity
  8
Layer 1
370
     0
100
AcDbVertex
100
AcDb2dVertex
 10
5.783444445450123
 20
-22.46944444579407
 30
0.0
  0
VERTEX
  5
2AF
330
2A9
100
AcDbEntity
  8
Layer 1
370
     0
100
AcDbVertex
100
AcDb2dVertex
 10
4.640444445450144
 20
-22.46944444584541
 30
0.0
  0
VERTEX
  5
2B0
330
2A9
100
AcDbEntity
  8
Layer 1
370
     0
100
AcDbVertex
100
AcDb2dVertex
 10
4.640444445444524
 20
-22.34444444584541
 30
0.0
  0
VERTEX
  5
2B1
330
2A9
100
AcDbEntity
  8
Layer 1
370
     0
100
AcDbVertex
100
AcDb2dVertex
 10
3.49844444544447
 20
-22.34444444589667
 30
0.0
  0
VERTEX
  5
2B2
330
2A9
100
AcDbEntity
  8
Layer 1
370
     0
100
AcDbVertex
100
AcDb2dVertex
 10
3.498444445450117
 20
-22.46944444589667
 30
0.0
  0
VERTEX
  5
2B3
330
2A9
100
AcDbEntity
  8
Layer 1
370
     0
100
AcDbVertex
100
AcDb2dVertex
 10
2.355444445450138
 20
-22.46944444594798
 30
0.0
  0
VERTEX
  5
2B4
330
2A9
100
AcDbEntity
  8
Layer 1
370
     0
100
AcDbVertex
100
AcDb2dVertex
 10
2.355444445444517
 20
-22.34444444594798
 30
0.0
  0
VERTEX
  5
2B5
330
2A9
100
AcDbEntity
  8
Layer 1
370
     0
100
AcDbVertex
100
AcDb2dVertex
 10
1.212444445444488
 20
-22.34444444599932
 30
0.0
  0
VERTEX
  5
2B6
330
2A9
100
AcDbEntity
  8
Layer 1
370
     0
100
AcDbVertex
100
AcDb2dVertex
 10
1.212444445450109
 20
-22.46944444599932
 30
0.0
  0
VERTEX
  5
2B7
330
2A9
100
AcDbEntity
  8
Layer 1
370
     0
100
AcDbVertex
100
AcDb2dVertex
 10
0.0694444454501308
 20
-22.46944444605063
 30
0.0
  0
VERTEX
  5
2B8
330
2A9
100
AcDbEntity
  8
Layer 1
370
     0
100
AcDbVertex
100
AcDb2dVertex
 10
0.0694444454220628
 20
-21.84444444605063
 30
0.0
  0
VERTEX
  5
2B9
330
2A9
100
AcDbEntity
  8
Layer 1
370
     0
100
AcDbVertex
100
AcDb2dVertex
 10
8.069444445422063
 20
-21.84444444569145
 30
0.0
  0
VERTEX
  5
2BA
330
2A9
100
AcDbEntity
  8
Layer 1
370
     0
100
AcDbVertex
100
AcDb2dVertex
 10
8.06944444545013
 20
-22.46944444569145
 30
0.0
  0
SEQEND
  5
2BB
330
2A9
100
AcDbEntity
  8
Layer 1
370
     0
  0
ENDBLK
  5
2A8
330
2A5
100
AcDbEntity
  8
0
100
AcDbBlockEnd
  0
BLOCK
  5
2BE
330
2BC
100
AcDbEntity
  8
0
100
AcDbBlockBegin
  2
block 34
 70
     0
 10
0.0
 20
0.0
 30
0.0
  3
block 34
  1

  0
POLYLINE
  5
2C0
330
2BC
100
AcDbEntity
  8
Layer 1
370
     0
100
AcDb2dPolyline
 66
     1
 10
0.0
 20
0.0
 30
0.0
  0
VERTEX
  5
2C1
330
2C0
100
AcDbEntity
  8
Layer 1
370
     0
100
AcDbVertex
100
AcDb2dVertex
 10
8.119444445422094
 20
-21.8444444456892
 30
0.0
  0
VERTEX
  5
2C2
330
2C0
100
AcDbEntity
  8
Layer 1
370
     0
100
AcDbVertex
100
AcDb2dVertex
 10
9.262444445422071
 20
-21.84444444563789
 30
0.0
  0
VERTEX
  5
2C3
330
2C0
100
AcDbEntity
  8
Layer 1
370
     0
100
AcDbVertex
100
AcDb2dVertex
 10
9.262444445427679
 20
-21.96944444563789
 30
0.0
  0
VERTEX
  5
2C4
330
2C0
100
AcDbEntity
  8
Layer 1
370
     0
100
AcDbVertex
100
AcDb2dVertex
 10
10.40544444542771
 20
-21.96944444558658
 30
0.0
  0
VERTEX
  5
2C5
330
2C0
100
AcDbEntity
  8
Layer 1
370
     0
100
AcDbVertex
100
AcDb2dVertex
 10
10.4054444454221
 20
-21.84444444558658
 30
0.0
  0
VERTEX
  5
2C6
330
2C0
100
AcDbEntity
  8
Layer 1
370
     0
100
AcDbVertex
100
AcDb2dVertex
 10
11.54844444542208
 20
-21.84444444553525
 30
0.0
  0
VERTEX
  5
2C7
330
2C0
100
AcDbEntity
  8
Layer 1
370
     0
100
AcDbVertex
100
AcDb2dVertex
 10
11.54844444542764
 20
-21.96944444553525
 30
0.0
  0
VERTEX
  5
2C8
330
2C0
100
AcDbEntity
  8
Layer 1
370
     0
100
AcDbVertex
100
AcDb2dVertex
 10
12.69044444542764
 20
-21.96944444548399
 30
0.0
  0
VERTEX
  5
2C9
330
2C0
100
AcDbEntity
  8
Layer 1
370
     0
100
AcDbVertex
100
AcDb2dVertex
 10
12.69044444542206
 20
-21.84444444548399
 30
0.0
  0
VERTEX
  5
2CA
330
2C0
100
AcDbEntity
  8
Layer 1
370
     0
100
AcDbVertex
100
AcDb2dVertex
 10
13.83344444542209
 20
-21.84444444543267
 30
0.0
  0
VERTEX
  5
2CB
330
2C0
100
AcDbEntity
  8
Layer 1
370
     0
100
AcDbVertex
100
AcDb2dVertex
 10
13.83344444542769
 20
-21.96944444543267
 30
0.0
  0
VERTEX
  5
2CC
330
2C0
100
AcDbEntity
  8
Layer 1
370
     0
100
AcDbVertex
100
AcDb2dVertex
 10
14.97644444542767
 20
-21.96944444538134
 30
0.0
  0
VERTEX
  5
2CD
330
2C0
100
AcDbEntity
  8
Layer 1
370
     0
100
AcDbVertex
100
AcDb2dVertex
 10
14.97644444542206
 20
-21.84444444538134
 30
0.0
  0
VERTEX
  5
2CE
330
2C0
100
AcDbEntity
  8
Layer 1
370
     0
100
AcDbVertex
100
AcDb2dVertex
 10
16.11944444542209
 20
-21.84444444533003
 30
0.0
  0
VERTEX
  5
2CF
330
2C0
100
AcDbEntity
  8
Layer 1
370
     0
100
AcDbVertex
100
AcDb2dVertex
 10
16.11944444545016
 20
-22.46944444533003
 30
0.0
  0
VERTEX
  5
2D0
330
2C0
100
AcDbEntity
  8
Layer 1
370
     0
100
AcDbVertex
100
AcDb2dVertex
 10
8.11944444545016
 20
-22.4694444456892
 30
0.0
  0
VERTEX
  5
2D1
330
2C0
100
AcDbEntity
  8
Layer 1
370
     0
100
AcDbVertex
100
AcDb2dVertex
 10
8.119444445422094
 20
-21.8444444456892
 30
0.0
  0
SEQEND
  5
2D2
330
2C0
100
AcDbEntity
  8
Layer 1
370
     0
  0
ENDBLK
  5
2BF
330
2BC
100
AcDbEntity
  8
0
100
AcDbBlockEnd
  0
BLOCK
  5
2D5
330
2D3
100
AcDbEntity
  8
0
100
AcDbBlockBegin
  2
block 35
 70
     0
 10
0.0
 20
0.0
 30
0.0
  3
block 35
  1

  0
POLYLINE
  5
2D7
330
2D3
100
AcDbEntity
  8
Layer 1
370
     0
100
AcDb2dPolyline
 66
     1
 10
0.0
 20
0.0
 30
0.0
  0
VERTEX
  5
2D8
330
2D7
100
AcDbEntity
  8
Layer 1
370
     0
100
AcDbVertex
100
AcDb2dVertex
 10
16.16944444542207
 20
-21.84444444532778
 30
0.0
  0
VERTEX
  5
2D9
330
2D7
100
AcDbEntity
  8
Layer 1
370
     0
100
AcDbVertex
100
AcDb2dVertex
 10
17.31244444542205
 20
-21.84444444527647
 30
0.0
  0
VERTEX
  5
2DA
330
2D7
100
AcDbEntity
  8
Layer 1
370
     0
100
AcDbVertex
100
AcDb2dVertex
 10
17.31244444542766
 20
-21.96944444527647
 30
0.0
  0
VERTEX
  5
2DB
330
2D7
100
AcDbEntity
  8
Layer 1
370
     0
100
AcDbVertex
100
AcDb2dVertex
 10
18.45544444542768
 20
-21.96944444522516
 30
0.0
  0
VERTEX
  5
2DC
330
2D7
100
AcDbEntity
  8
Layer 1
370
     0
100
AcDbVertex
100
AcDb2dVertex
 10
18.45544444542207
 20
-21.84444444522516
 30
0.0
  0
VERTEX
  5
2DD
330
2D7
100
AcDbEntity
  8
Layer 1
370
     0
100
AcDbVertex
100
AcDb2dVertex
 10
19.59844444542205
 20
-21.84444444517385
 30
0.0
  0
VERTEX
  5
2DE
330
2D7
100
AcDbEntity
  8
Layer 1
370
     0
100
AcDbVertex
100
AcDb2dVertex
 10
19.59844444542765
 20
-21.96944444517385
 30
0.0
  0
VERTEX
  5
2DF
330
2D7
100
AcDbEntity
  8
Layer 1
370
     0
100
AcDbVertex
100
AcDb2dVertex
 10
20.74044444542768
 20
-21.96944444512256
 30
0.0
  0
VERTEX
  5
2E0
330
2D7
100
AcDbEntity
  8
Layer 1
370
     0
100
AcDbVertex
100
AcDb2dVertex
 10
20.74044444542202
 20
-21.84444444512256
 30
0.0
  0
VERTEX
  5
2E1
330
2D7
100
AcDbEntity
  8
Layer 1
370
     0
100
AcDbVertex
100
AcDb2dVertex
 10
21.88344444542205
 20
-21.84444444507125
 30
0.0
  0
VERTEX
  5
2E2
330
2D7
100
AcDbEntity
  8
Layer 1
370
     0
100
AcDbVertex
100
AcDb2dVertex
 10
21.88344444542766
 20
-21.96944444507125
 30
0.0
  0
VERTEX
  5
2E3
330
2D7
100
AcDbEntity
  8
Layer 1
370
     0
100
AcDbVertex
100
AcDb2dVertex
 10
23.02644444542764
 20
-21.96944444501994
 30
0.0
  0
VERTEX
  5
2E4
330
2D7
100
AcDbEntity
  8
Layer 1
370
     0
100
AcDbVertex
100
AcDb2dVertex
 10
23.02644444542203
 20
-21.84444444501994
 30
0.0
  0
VERTEX
  5
2E5
330
2D7
100
AcDbEntity
  8
Layer 1
370
     0
100
AcDbVertex
100
AcDb2dVertex
 10
24.16944444542211
 20
-21.84444444496861
 30
0.0
  0
VERTEX
  5
2E6
330
2D7
100
AcDbEntity
  8
Layer 1
370
     0
100
AcDbVertex
100
AcDb2dVertex
 10
24.16944444545015
 20
-22.46944444496861
 30
0.0
  0
VERTEX
  5
2E7
330
2D7
100
AcDbEntity
  8
Layer 1
370
     0
100
AcDbVertex
100
AcDb2dVertex
 10
16.16944444545014
 20
-22.46944444532778
 30
0.0
  0
VERTEX
  5
2E8
330
2D7
100
AcDbEntity
  8
Layer 1
370
     0
100
AcDbVertex
100
AcDb2dVertex
 10
16.16944444542207
 20
-21.84444444532778
 30
0.0
  0
SEQEND
  5
2E9
330
2D7
100
AcDbEntity
  8
Layer 1
370
     0
  0
ENDBLK
  5
2D6
330
2D3
100
AcDbEntity
  8
0
100
AcDbBlockEnd
  0
BLOCK
  5
2EC
330
2EA
100
AcDbEntity
  8
0
100
AcDbBlockBegin
  2
block 36
 70
     0
 10
0.0
 20
0.0
 30
0.0
  3
block 36
  1

  0
POLYLINE
  5
2EE
330
2EA
100
AcDbEntity
  8
Layer 1
370
     0
100
AcDb2dPolyline
 66
     1
 10
0.0
 20
0.0
 30
0.0
  0
VERTEX
  5
2EF
330
2EE
100
AcDbEntity
  8
Layer 1
370
     0
100
AcDbVertex
100
AcDb2dVertex
 10
32.21944444545013
 20
-22.46944444460721
 30
0.0
  0
VERTEX
  5
2F0
330
2EE
100
AcDbEntity
  8
Layer 1
370
     0
100
AcDbVertex
100
AcDb2dVertex
 10
31.07644444545015
 20
-22.46944444465852
 30
0.0
  0
VERTEX
  5
2F1
330
2EE
100
AcDbEntity
  8
Layer 1
370
     0
100
AcDbVertex
100
AcDb2dVertex
 10
31.07644444544454
 20
-22.34444444465852
 30
0.0
  0
VERTEX
  5
2F2
330
2EE
100
AcDbEntity
  8
Layer 1
370
     0
100
AcDbVertex
100
AcDb2dVertex
 10
29.93344444544451
 20
-22.34444444470983
 30
0.0
  0
VERTEX
  5
2F3
330
2EE
100
AcDbEntity
  8
Layer 1
370
     0
100
AcDbVertex
100
AcDb2dVertex
 10
29.93344444545012
 20
-22.46944444470983
 30
0.0
  0
VERTEX
  5
2F4
330
2EE
100
AcDbEntity
  8
Layer 1
370
     0
100
AcDbVertex
100
AcDb2dVertex
 10
28.79044444545015
 20
-22.46944444476114
 30
0.0
  0
VERTEX
  5
2F5
330
2EE
100
AcDbEntity
  8
Layer 1
370
     0
100
AcDbVertex
100
AcDb2dVertex
 10
28.79044444544454
 20
-22.34444444476114
 30
0.0
  0
VERTEX
  5
2F6
330
2EE
100
AcDbEntity
  8
Layer 1
370
     0
100
AcDbVertex
100
AcDb2dVertex
 10
27.64844444544451
 20
-22.34444444481242
 30
0.0
  0
VERTEX
  5
2F7
330
2EE
100
AcDbEntity
  8
Layer 1
370
     0
100
AcDbVertex
100
AcDb2dVertex
 10
27.64844444545017
 20
-22.46944444481242
 30
0.0
  0
VERTEX
  5
2F8
330
2EE
100
AcDbEntity
  8
Layer 1
370
     0
100
AcDbVertex
100
AcDb2dVertex
 10
26.50544444545014
 20
-22.46944444486374
 30
0.0
  0
VERTEX
  5
2F9
330
2EE
100
AcDbEntity
  8
Layer 1
370
     0
100
AcDbVertex
100
AcDb2dVertex
 10
26.50544444544453
 20
-22.34444444486374
 30
0.0
  0
VERTEX
  5
2FA
330
2EE
100
AcDbEntity
  8
Layer 1
370
     0
100
AcDbVertex
100
AcDb2dVertex
 10
25.36244444544455
 20
-22.34444444491504
 30
0.0
  0
VERTEX
  5
2FB
330
2EE
100
AcDbEntity
  8
Layer 1
370
     0
100
AcDbVertex
100
AcDb2dVertex
 10
25.36244444545016
 20
-22.46944444491504
 30
0.0
  0
VERTEX
  5
2FC
330
2EE
100
AcDbEntity
  8
Layer 1
370
     0
100
AcDbVertex
100
AcDb2dVertex
 10
24.21944444545013
 20
-22.46944444496638
 30
0.0
  0
VERTEX
  5
2FD
330
2EE
100
AcDbEntity
  8
Layer 1
370
     0
100
AcDbVertex
100
AcDb2dVertex
 10
24.21944444542209
 20
-21.84444444496638
 30
0.0
  0
VERTEX
  5
2FE
330
2EE
100
AcDbEntity
  8
Layer 1
370
     0
100
AcDbVertex
100
AcDb2dVertex
 10
32.21944444542209
 20
-21.84444444460721
 30
0.0
  0
VERTEX
  5
2FF
330
2EE
100
AcDbEntity
  8
Layer 1
370
     0
100
AcDbVertex
100
AcDb2dVertex
 10
32.21944444545013
 20
-22.46944444460721
 30
0.0
  0
SEQEND
  5
300
330
2EE
100
AcDbEntity
  8
Layer 1
370
     0
  0
ENDBLK
  5
2ED
330
2EA
100
AcDbEntity
  8
0
100
AcDbBlockEnd
  0
BLOCK
  5
303
330
301
100
AcDbEntity
  8
0
100
AcDbBlockBegin
  2
block 37
 70
     0
 10
0.0
 20
0.0
 30
0.0
  3
block 37
  1

  0
POLYLINE
  5
305
330
301
100
AcDbEntity
  8
Layer 1
370
     0
100
AcDb2dPolyline
 66
     1
 10
0.0
 20
0.0
 30
0.0
  0
VERTEX
  5
306
330
305
100
AcDbEntity
  8
Layer 1
370
     0
100
AcDbVertex
100
AcDb2dVertex
 10
0.0694444454523667
 20
-22.51944444605063
 30
0.0
  0
VERTEX
  5
307
330
305
100
AcDbEntity
  8
Layer 1
370
     0
100
AcDbVertex
100
AcDb2dVertex
 10
1.212444445452345
 20
-22.51944444599932
 30
0.0
  0
VERTEX
  5
308
330
305
100
AcDbEntity
  8
Layer 1
370
     0
100
AcDbVertex
100
AcDb2dVertex
 10
1.212444445457966
 20
-22.64444444599932
 30
0.0
  0
VERTEX
  5
309
330
305
100
AcDbEntity
  8
Layer 1
370
     0
100
AcDbVertex
100
AcDb2dVertex
 10
2.355444445457995
 20
-22.64444444594799
 30
0.0
  0
VERTEX
  5
30A
330
305
100
AcDbEntity
  8
Layer 1
370
     0
100
AcDbVertex
100
AcDb2dVertex
 10
2.355444445452374
 20
-22.51944444594799
 30
0.0
  0
VERTEX
  5
30B
330
305
100
AcDbEntity
  8
Layer 1
370
     0
100
AcDbVertex
100
AcDb2dVertex
 10
3.498444445452353
 20
-22.51944444589667
 30
0.0
  0
VERTEX
  5
30C
330
305
100
AcDbEntity
  8
Layer 1
370
     0
100
AcDbVertex
100
AcDb2dVertex
 10
3.498444445457974
 20
-22.64444444589667
 30
0.0
  0
VERTEX
  5
30D
330
305
100
AcDbEntity
  8
Layer 1
370
     0
100
AcDbVertex
100
AcDb2dVertex
 10
4.640444445458026
 20
-22.64444444584541
 30
0.0
  0
VERTEX
  5
30E
330
305
100
AcDbEntity
  8
Layer 1
370
     0
100
AcDbVertex
100
AcDb2dVertex
 10
4.64044444545238
 20
-22.51944444584541
 30
0.0
  0
VERTEX
  5
30F
330
305
100
AcDbEntity
  8
Layer 1
370
     0
100
AcDbVertex
100
AcDb2dVertex
 10
5.783444445452359
 20
-22.51944444579408
 30
0.0
  0
VERTEX
  5
310
330
305
100
AcDbEntity
  8
Layer 1
370
     0
100
AcDbVertex
100
AcDb2dVertex
 10
5.78344444545798
 20
-22.64444444579408
 30
0.0
  0
VERTEX
  5
311
330
305
100
AcDbEntity
  8
Layer 1
370
     0
100
AcDbVertex
100
AcDb2dVertex
 10
6.926444445458009
 20
-22.64444444574277
 30
0.0
  0
VERTEX
  5
312
330
305
100
AcDbEntity
  8
Layer 1
370
     0
100
AcDbVertex
100
AcDb2dVertex
 10
6.926444445452388
 20
-22.51944444574277
 30
0.0
  0
VERTEX
  5
313
330
305
100
AcDbEntity
  8
Layer 1
370
     0
100
AcDbVertex
100
AcDb2dVertex
 10
8.069444445452365
 20
-22.51944444569146
 30
0.0
  0
VERTEX
  5
314
330
305
100
AcDbEntity
  8
Layer 1
370
     0
100
AcDbVertex
100
AcDb2dVertex
 10
8.069444445480434
 20
-23.14444444569146
 30
0.0
  0
VERTEX
  5
315
330
305
100
AcDbEntity
  8
Layer 1
370
     0
100
AcDbVertex
100
AcDb2dVertex
 10
0.0694444454804347
 20
-23.14444444605063
 30
0.0
  0
VERTEX
  5
316
330
305
100
AcDbEntity
  8
Layer 1
370
     0
100
AcDbVertex
100
AcDb2dVertex
 10
0.0694444454523667
 20
-22.51944444605063
 30
0.0
  0
SEQEND
  5
317
330
305
100
AcDbEntity
  8
Layer 1
370
     0
  0
ENDBLK
  5
304
330
301
100
AcDbEntity
  8
0
100
AcDbBlockEnd
  0
BLOCK
  5
31A
330
318
100
AcDbEntity
  8
0
100
AcDbBlockBegin
  2
block 38
 70
     0
 10
0.0
 20
0.0
 30
0.0
  3
block 38
  1

  0
POLYLINE
  5
31C
330
318
100
AcDbEntity
  8
Layer 1
370
     0
100
AcDb2dPolyline
 66
     1
 10
0.0
 20
0.0
 30
0.0
  0
VERTEX
  5
31D
330
31C
100
AcDbEntity
  8
Layer 1
370
     0
100
AcDbVertex
100
AcDb2dVertex
 10
16.11944444548046
 20
-23.14444444533003
 30
0.0
  0
VERTEX
  5
31E
330
31C
100
AcDbEntity
  8
Layer 1
370
     0
100
AcDbVertex
100
AcDb2dVertex
 10
14.97644444548044
 20
-23.14444444538134
 30
0.0
  0
VERTEX
  5
31F
330
31C
100
AcDbEntity
  8
Layer 1
370
     0
100
AcDbVertex
100
AcDb2dVertex
 10
14.97644444547481
 20
-23.01944444538134
 30
0.0
  0
VERTEX
  5
320
330
31C
100
AcDbEntity
  8
Layer 1
370
     0
100
AcDbVertex
100
AcDb2dVertex
 10
13.83344444547484
 20
-23.01944444543268
 30
0.0
  0
VERTEX
  5
321
330
31C
100
AcDbEntity
  8
Layer 1
370
     0
100
AcDbVertex
100
AcDb2dVertex
 10
13.83344444548046
 20
-23.14444444543268
 30
0.0
  0
VERTEX
  5
322
330
31C
100
AcDbEntity
  8
Layer 1
370
     0
100
AcDbVertex
100
AcDb2dVertex
 10
12.69044444548043
 20
-23.14444444548399
 30
0.0
  0
VERTEX
  5
323
330
31C
100
AcDbEntity
  8
Layer 1
370
     0
100
AcDbVertex
100
AcDb2dVertex
 10
12.69044444547481
 20
-23.01944444548399
 30
0.0
  0
VERTEX
  5
324
330
31C
100
AcDbEntity
  8
Layer 1
370
     0
100
AcDbVertex
100
AcDb2dVertex
 10
11.5484444454748
 20
-23.01944444553525
 30
0.0
  0
VERTEX
  5
325
330
31C
100
AcDbEntity
  8
Layer 1
370
     0
100
AcDbVertex
100
AcDb2dVertex
 10
11.5484444454804
 20
-23.14444444553525
 30
0.0
  0
VERTEX
  5
326
330
31C
100
AcDbEntity
  8
Layer 1
370
     0
100
AcDbVertex
100
AcDb2dVertex
 10
10.40544444548042
 20
-23.14444444558659
 30
0.0
  0
VERTEX
  5
327
330
31C
100
AcDbEntity
  8
Layer 1
370
     0
100
AcDbVertex
100
AcDb2dVertex
 10
10.40544444547485
 20
-23.01944444558659
 30
0.0
  0
VERTEX
  5
328
330
31C
100
AcDbEntity
  8
Layer 1
370
     0
100
AcDbVertex
100
AcDb2dVertex
 10
9.262444445474822
 20
-23.0194444456379
 30
0.0
  0
VERTEX
  5
329
330
31C
100
AcDbEntity
  8
Layer 1
370
     0
100
AcDbVertex
100
AcDb2dVertex
 10
9.262444445480442
 20
-23.1444444456379
 30
0.0
  0
VERTEX
  5
32A
330
31C
100
AcDbEntity
  8
Layer 1
370
     0
100
AcDbVertex
100
AcDb2dVertex
 10
8.119444445480465
 20
-23.14444444568921
 30
0.0
  0
VERTEX
  5
32B
330
31C
100
AcDbEntity
  8
Layer 1
370
     0
100
AcDbVertex
100
AcDb2dVertex
 10
8.119444445452396
 20
-22.51944444568921
 30
0.0
  0
VERTEX
  5
32C
330
31C
100
AcDbEntity
  8
Layer 1
370
     0
100
AcDbVertex
100
AcDb2dVertex
 10
16.11944444545239
 20
-22.51944444533003
 30
0.0
  0
VERTEX
  5
32D
330
31C
100
AcDbEntity
  8
Layer 1
370
     0
100
AcDbVertex
100
AcDb2dVertex
 10
16.11944444548046
 20
-23.14444444533003
 30
0.0
  0
SEQEND
  5
32E
330
31C
100
AcDbEntity
  8
Layer 1
370
     0
  0
ENDBLK
  5
31B
330
318
100
AcDbEntity
  8
0
100
AcDbBlockEnd
  0
BLOCK
  5
331
330
32F
100
AcDbEntity
  8
0
100
AcDbBlockBegin
  2
block 39
 70
     0
 10
0.0
 20
0.0
 30
0.0
  3
block 39
  1

  0
POLYLINE
  5
333
330
32F
100
AcDbEntity
  8
Layer 1
370
     0
100
AcDb2dPolyline
 66
     1
 10
0.0
 20
0.0
 30
0.0
  0
VERTEX
  5
334
330
333
100
AcDbEntity
  8
Layer 1
370
     0
100
AcDbVertex
100
AcDb2dVertex
 10
16.16944444545238
 20
-22.51944444532779
 30
0.0
  0
VERTEX
  5
335
330
333
100
AcDbEntity
  8
Layer 1
370
     0
100
AcDbVertex
100
AcDb2dVertex
 10
17.31244444545235
 20
-22.51944444527647
 30
0.0
  0
VERTEX
  5
336
330
333
100
AcDbEntity
  8
Layer 1
370
     0
100
AcDbVertex
100
AcDb2dVertex
 10
17.31244444545798
 20
-22.64444444527647
 30
0.0
  0
VERTEX
  5
337
330
333
100
AcDbEntity
  8
Layer 1
370
     0
100
AcDbVertex
100
AcDb2dVertex
 10
18.45544444545799
 20
-22.64444444522517
 30
0.0
  0
VERTEX
  5
338
330
333
100
AcDbEntity
  8
Layer 1
370
     0
100
AcDbVertex
100
AcDb2dVertex
 10
18.45544444545238
 20
-22.51944444522517
 30
0.0
  0
VERTEX
  5
339
330
333
100
AcDbEntity
  8
Layer 1
370
     0
100
AcDbVertex
100
AcDb2dVertex
 10
19.59844444545236
 20
-22.51944444517385
 30
0.0
  0
VERTEX
  5
33A
330
333
100
AcDbEntity
  8
Layer 1
370
     0
100
AcDbVertex
100
AcDb2dVertex
 10
19.59844444545797
 20
-22.64444444517385
 30
0.0
  0
VERTEX
  5
33B
330
333
100
AcDbEntity
  8
Layer 1
370
     0
100
AcDbVertex
100
AcDb2dVertex
 10
20.740444445458
 20
-22.64444444512257
 30
0.0
  0
VERTEX
  5
33C
330
333
100
AcDbEntity
  8
Layer 1
370
     0
100
AcDbVertex
100
AcDb2dVertex
 10
20.74044444545234
 20
-22.51944444512257
 30
0.0
  0
VERTEX
  5
33D
330
333
100
AcDbEntity
  8
Layer 1
370
     0
100
AcDbVertex
100
AcDb2dVertex
 10
21.88344444545237
 20
-22.51944444507126
 30
0.0
  0
VERTEX
  5
33E
330
333
100
AcDbEntity
  8
Layer 1
370
     0
100
AcDbVertex
100
AcDb2dVertex
 10
21.88344444545798
 20
-22.64444444507126
 30
0.0
  0
VERTEX
  5
33F
330
333
100
AcDbEntity
  8
Layer 1
370
     0
100
AcDbVertex
100
AcDb2dVertex
 10
23.02644444545795
 20
-22.64444444501995
 30
0.0
  0
VERTEX
  5
340
330
333
100
AcDbEntity
  8
Layer 1
370
     0
100
AcDbVertex
100
AcDb2dVertex
 10
23.02644444545234
 20
-22.51944444501995
 30
0.0
  0
VERTEX
  5
341
330
333
100
AcDbEntity
  8
Layer 1
370
     0
100
AcDbVertex
100
AcDb2dVertex
 10
24.16944444545237
 20
-22.51944444496861
 30
0.0
  0
VERTEX
  5
342
330
333
100
AcDbEntity
  8
Layer 1
370
     0
100
AcDbVertex
100
AcDb2dVertex
 10
24.16944444548047
 20
-23.14444444496861
 30
0.0
  0
VERTEX
  5
343
330
333
100
AcDbEntity
  8
Layer 1
370
     0
100
AcDbVertex
100
AcDb2dVertex
 10
16.16944444548044
 20
-23.14444444532779
 30
0.0
  0
VERTEX
  5
344
330
333
100
AcDbEntity
  8
Layer 1
370
     0
100
AcDbVertex
100
AcDb2dVertex
 10
16.16944444545238
 20
-22.51944444532779
 30
0.0
  0
SEQEND
  5
345
330
333
100
AcDbEntity
  8
Layer 1
370
     0
  0
ENDBLK
  5
332
330
32F
100
AcDbEntity
  8
0
100
AcDbBlockEnd
  0
BLOCK
  5
348
330
346
100
AcDbEntity
  8
0
100
AcDbBlockBegin
  2
block 40
 70
     0
 10
0.0
 20
0.0
 30
0.0
  3
block 40
  1

  0
POLYLINE
  5
34A
330
346
100
AcDbEntity
  8
Layer 1
370
     0
100
AcDb2dPolyline
 66
     1
 10
0.0
 20
0.0
 30
0.0
  0
VERTEX
  5
34B
330
34A
100
AcDbEntity
  8
Layer 1
370
     0
100
AcDbVertex
100
AcDb2dVertex
 10
32.21944444548045
 20
-23.14444444460721
 30
0.0
  0
VERTEX
  5
34C
330
34A
100
AcDbEntity
  8
Layer 1
370
     0
100
AcDbVertex
100
AcDb2dVertex
 10
31.07644444548047
 20
-23.14444444465852
 30
0.0
  0
VERTEX
  5
34D
330
34A
100
AcDbEntity
  8
Layer 1
370
     0
100
AcDbVertex
100
AcDb2dVertex
 10
31.07644444547486
 20
-23.01944444465852
 30
0.0
  0
VERTEX
  5
34E
330
34A
100
AcDbEntity
  8
Layer 1
370
     0
100
AcDbVertex
100
AcDb2dVertex
 10
29.93344444547483
 20
-23.01944444470983
 30
0.0
  0
VERTEX
  5
34F
330
34A
100
AcDbEntity
  8
Layer 1
370
     0
100
AcDbVertex
100
AcDb2dVertex
 10
29.93344444548044
 20
-23.14444444470983
 30
0.0
  0
VERTEX
  5
350
330
34A
100
AcDbEntity
  8
Layer 1
370
     0
100
AcDbVertex
100
AcDb2dVertex
 10
28.79044444548046
 20
-23.14444444476115
 30
0.0
  0
VERTEX
  5
351
330
34A
100
AcDbEntity
  8
Layer 1
370
     0
100
AcDbVertex
100
AcDb2dVertex
 10
28.79044444547485
 20
-23.01944444476115
 30
0.0
  0
VERTEX
  5
352
330
34A
100
AcDbEntity
  8
Layer 1
370
     0
100
AcDbVertex
100
AcDb2dVertex
 10
27.64844444547483
 20
-23.01944444481243
 30
0.0
  0
VERTEX
  5
353
330
34A
100
AcDbEntity
  8
Layer 1
370
     0
100
AcDbVertex
100
AcDb2dVertex
 10
27.64844444548049
 20
-23.14444444481243
 30
0.0
  0
VERTEX
  5
354
330
34A
100
AcDbEntity
  8
Layer 1
370
     0
100
AcDbVertex
100
AcDb2dVertex
 10
26.50544444548046
 20
-23.14444444486374
 30
0.0
  0
VERTEX
  5
355
330
34A
100
AcDbEntity
  8
Layer 1
370
     0
100
AcDbVertex
100
AcDb2dVertex
 10
26.50544444547485
 20
-23.01944444486374
 30
0.0
  0
VERTEX
  5
356
330
34A
100
AcDbEntity
  8
Layer 1
370
     0
100
AcDbVertex
100
AcDb2dVertex
 10
25.36244444547487
 20
-23.01944444491505
 30
0.0
  0
VERTEX
  5
357
330
34A
100
AcDbEntity
  8
Layer 1
370
     0
100
AcDbVertex
100
AcDb2dVertex
 10
25.36244444548048
 20
-23.14444444491505
 30
0.0
  0
VERTEX
  5
358
330
34A
100
AcDbEntity
  8
Layer 1
370
     0
100
AcDbVertex
100
AcDb2dVertex
 10
24.21944444548045
 20
-23.14444444496639
 30
0.0
  0
VERTEX
  5
359
330
34A
100
AcDbEntity
  8
Layer 1
370
     0
100
AcDbVertex
100
AcDb2dVertex
 10
24.21944444545236
 20
-22.51944444496639
 30
0.0
  0
VERTEX
  5
35A
330
34A
100
AcDbEntity
  8
Layer 1
370
     0
100
AcDbVertex
100
AcDb2dVertex
 10
32.21944444545235
 20
-22.51944444460721
 30
0.0
  0
VERTEX
  5
35B
330
34A
100
AcDbEntity
  8
Layer 1
370
     0
100
AcDbVertex
100
AcDb2dVertex
 10
32.21944444548045
 20
-23.14444444460721
 30
0.0
  0
SEQEND
  5
35C
330
34A
100
AcDbEntity
  8
Layer 1
370
     0
  0
ENDBLK
  5
349
330
346
100
AcDbEntity
  8
0
100
AcDbBlockEnd
  0
ENDSEC
  0
SECTION
  2
ENTITIES
  0
INSERT
  5
42
330
1F
100
AcDbEntity
  8
Layer 1
100
AcDbBlockReference
  2
block 2
 10
0.0
 20
0.0
 30
0.0
  0
INSERT
  5
7D
330
1F
100
AcDbEntity
  8
Layer 1
100
AcDbBlockReference
  2
block 3
 10
0.0
 20
0.0
 30
0.0
  0
INSERT
  5
88
330
1F
100
AcDbEntity
  8
Layer 1
100
AcDbBlockReference
  2
block 4
 10
0.0
 20
0.0
 30
0.0
  0
INSERT
  5
93
330
1F
100
AcDbEntity
  8
Layer 1
100
AcDbBlockReference
  2
block 5
 10
0.0
 20
0.0
 30
0.0
  0
INSERT
  5
9E
330
1F
100
AcDbEntity
  8
Layer 1
100
AcDbBlockReference
  2
block 6
 10
0.0
 20
0.0
 30
0.0
  0
INSERT
  5
A9
330
1F
100
AcDbEntity
  8
Layer 1
100
AcDbBlockReference
  2
block 7
 10
0.0
 20
0.0
 30
0.0
  0
INSERT
  5
B4
330
1F
100
AcDbEntity
  8
Layer 1
100
AcDbBlockReference
  2
block 8
 10
0.0
 20
0.0
 30
0.0
  0
INSERT
  5
BF
330
1F
100
AcDbEntity
  8
Layer 1
100
AcDbBlockReference
  2
block 9
 10
0.0
 20
0.0
 30
0.0
  0
INSERT
  5
CA
330
1F
100
AcDbEntity
  8
Layer 1
100
AcDbBlockReference
  2
block 10
 10
0.0
 20
0.0
 30
0.0
  0
INSERT
  5
D5
330
1F
100
AcDbEntity
  8
Layer 1
100
AcDbBlockReference
  2
block 11
 10
0.0
 20
0.0
 30
0.0
  0
INSERT
  5
E0
330
1F
100
AcDbEntity
  8
Layer 1
100
AcDbBlockReference
  2
block 12
 10
0.0
 20
0.0
 30
0.0
  0
INSERT
  5
EB
330
1F
100
AcDbEntity
  8
Layer 1
100
AcDbBlockReference
  2
block 13
 10
0.0
 20
0.0
 30
0.0
  0
INSERT
  5
F6
330
1F
100
AcDbEntity
  8
Layer 1
100
AcDbBlockReference
  2
block 14
 10
0.0
 20
0.0
 30
0.0
  0
INSERT
  5
101
330
1F
100
AcDbEntity
  8
Layer 1
100
AcDbBlockReference
  2
block 15
 10
0.0
 20
0.0
 30
0.0
  0
INSERT
  5
10C
330
1F
100
AcDbEntity
  8
Layer 1
100
AcDbBlockReference
  2
block 16
 10
0.0
 20
0.0
 30
0.0
  0
INSERT
  5
117
330
1F
100
AcDbEntity
  8
Layer 1
100
AcDbBlockReference
  2
block 17
 10
0.0
 20
0.0
 30
0.0
  0
INSERT
  5
122
330
1F
100
AcDbEntity
  8
Layer 1
100
AcDbBlockReference
  2
block 18
 10
0.0
 20
0.0
 30
0.0
  0
INSERT
  5
12D
330
1F
100
AcDbEntity
  8
Layer 1
100
AcDbBlockReference
  2
block 19
 10
0.0
 20
0.0
 30
0.0
  0
INSERT
  5
188
330
1F
100
AcDbEntity
  8
Layer 1
100
AcDbBlockReference
  2
block 20
 10
0.0
 20
0.0
 30
0.0
  0
INSERT
  5
193
330
1F
100
AcDbEntity
  8
Layer 1
100
AcDbBlockReference
  2
block 21
 10
0.0
 20
0.0
 30
0.0
  0
INSERT
  5
19E
330
1F
100
AcDbEntity
  8
Layer 1
100
AcDbBlockReference
  2
block 22
 10
0.0
 20
0.0
 30
0.0
  0
INSERT
  5
1A9
330
1F
100
AcDbEntity
  8
Layer 1
100
AcDbBlockReference
  2
block 23
 10
0.0
 20
0.0
 30
0.0
  0
INSERT
  5
1B4
330
1F
100
AcDbEntity
  8
Layer 1
100
AcDbBlockReference
  2
block 24
 10
0.0
 20
0.0
 30
0.0
  0
INSERT
  5
1D0
330
1F
100
AcDbEntity
  8
Layer 1
100
AcDbBlockReference
  2
block 25
 10
0.0
 20
0.0
 30
0.0
  0
INSERT
  5
1EC
330
1F
100
AcDbEntity
  8
Layer 1
100
AcDbBlockReference
  2
block 26
 10
0.0
 20
0.0
 30
0.0
  0
INSERT
  5
208
330
1F
100
AcDbEntity
  8
Layer 1
100
AcDbBlockReference
  2
block 27
 10
0.0
 20
0.0
 30
0.0
  0
INSERT
  5
224
330
1F
100
AcDbEntity
  8
Layer 1
100
AcDbBlockReference
  2
block 28
 10
0.0
 20
0.0
 30
0.0
  0
INSERT
  5
240
330
1F
100
AcDbEntity
  8
Layer 1
100
AcDbBlockReference
  2
block 29
 10
0.0
 20
0.0
 30
0.0
  0
INSERT
  5
25C
330
1F
100
AcDbEntity
  8
Layer 1
100
AcDbBlockReference
  2
block 30
 10
0.0
 20
0.0
 30
0.0
  0
INSERT
  5
278
330
1F
100
AcDbEntity
  8
Layer 1
100
AcDbBlockReference
  2
block 31
 10
0.0
 20
0.0
 30
0.0
  0
INSERT
  5
28F
330
1F
100
AcDbEntity
  8
Layer 1
100
AcDbBlockReference
  2
block 32
 10
0.0
 20
0.0
 30
0.0
  0
INSERT
  5
2A6
330
1F
100
AcDbEntity
  8
Layer 1
100
AcDbBlockReference
  2
block 33
 10
0.0
 20
0.0
 30
0.0
  0
INSERT
  5
2BD
330
1F
100
AcDbEntity
  8
Layer 1
100
AcDbBlockReference
  2
block 34
 10
0.0
 20
0.0
 30
0.0
  0
INSERT
  5
2D4
330
1F
100
AcDbEntity
  8
Layer 1
100
AcDbBlockReference
  2
block 35
 10
0.0
 20
0.0
 30
0.0
  0
INSERT
  5
2EB
330
1F
100
AcDbEntity
  8
Layer 1
100
AcDbBlockReference
  2
block 36
 10
0.0
 20
0.0
 30
0.0
  0
INSERT
  5
302
330
1F
100
AcDbEntity
  8
Layer 1
100
AcDbBlockReference
  2
block 37
 10
0.0
 20
0.0
 30
0.0
  0
INSERT
  5
319
330
1F
100
AcDbEntity
  8
Layer 1
100
AcDbBlockReference
  2
block 38
 10
0.0
 20
0.0
 30
0.0
  0
INSERT
  5
330
330
1F
100
AcDbEntity
  8
Layer 1
100
AcDbBlockReference
  2
block 39
 10
0.0
 20
0.0
 30
0.0
  0
INSERT
  5
347
330
1F
100
AcDbEntity
  8
Layer 1
100
AcDbBlockReference
  2
block 40
 10
0.0
 20
0.0
 30
0.0
  0
ENDSEC
  0
SECTION
  2
OBJECTS
  0
DICTIONARY
  5
C
330
0
100
AcDbDictionary
281
     1
  3
ACAD_GROUP
350
D
  3
ACAD_LAYOUT
350
1A
  3
ACAD_MATERIAL
350
3B
  3
ACAD_MLEADERSTYLE
350
35E
  3
ACAD_MLINESTYLE
350
17
  3
ACAD_PLOTSETTINGS
350
19
  3
ACAD_PLOTSTYLENAME
350
E
  3
ACAD_TABLESTYLE
350
35D
  3
ACAD_VISUALSTYLE
350
2A
  0
SUN
  5
3F
330
29
100
AcDbSun
 90
        1
290
     0
 63
     7
421
 16777215
 40
1.0
291
     1
 91
  2455826
 92
 54000000
292
     0
 70
     2
 71
   256
280
     1
  0
DICTIONARY
  5
D
102
{ACAD_REACTORS
330
C
102
}
330
C
100
AcDbDictionary
281
     1
  0
DICTIONARY
  5
1A
102
{ACAD_REACTORS
330
C
102
}
330
C
100
AcDbDictionary
281
     1
  3
Layout1
350
1E
  3
Layout2
350
26
  3
Model
350
22
  0
DICTIONARY
  5
3B
102
{ACAD_REACTORS
330
C
102
}
330
C
100
AcDbDictionary
281
     1
  3
ByBlock
350
3D
  3
ByLayer
350
3C
  3
Global
350
3E
  0
DICTIONARY
  5
35E
102
{ACAD_REACTORS
330
C
102
}
330
C
100
AcDbDictionary
281
     1
  0
DICTIONARY
  5
17
102
{ACAD_REACTORS
330
C
102
}
330
C
100
AcDbDictionary
281
     1
  3
Standard
350
18
  0
DICTIONARY
  5
19
102
{ACAD_REACTORS
330
C
102
}
330
C
100
AcDbDictionary
281
     1
  0
ACDBDICTIONARYWDFLT
  5
E
102
{ACAD_REACTORS
330
C
102
}
330
C
100
AcDbDictionary
281
     1
  3
Normal
350
F
100
AcDbDictionaryWithDefault
340
F
  0
DICTIONARY
  5
35D
102
{ACAD_REACTORS
330
C
102
}
330
C
100
AcDbDictionary
281
     1
  0
DICTIONARY
  5
2A
102
{ACAD_REACTORS
330
C
102
}
330
C
100
AcDbDictionary
281
     1
  3
2dWireframe
350
2F
  3
3D Hidden
350
31
  3
3dWireframe
350
30
  3
Basic
350
32
  3
Brighten
350
36
  3
ColorChange
350
3A
  3
Conceptual
350
34
  3
Dim
350
35
  3
Facepattern
350
39
  3
Flat
350
2B
  3
FlatWithEdges
350
2C
  3
Gouraud
350
2D
  3
GouraudWithEdges
350
2E
  3
Linepattern
350
38
  3
Realistic
350
33
  3
Thicken
350
37
  0
LAYOUT
  5
1E
102
{ACAD_REACTORS
330
1A
102
}
330
1A
100
AcDbPlotSettings
  1

  2
none_device
  4

  6

 40
0.0
 41
0.0
 42
0.0
 43
0.0
 44
0.0
 45
0.0
 46
0.0
 47
0.0
 48
0.0
 49
0.0
140
0.0
141
0.0
142
1.0
143
1.0
 70
   688
 72
     0
 73
     0
 74
     5
  7

 75
    16
 76
     0
 77
     2
 78
   300
147
1.0
148
0.0
149
0.0
100
AcDbLayout
  1
Layout1
 70
     1
 71
     1
 10
0.0
 20
0.0
 11
12.0
 21
9.0
 12
0.0
 22
0.0
 32
0.0
 14
1.000000000000000E+20
 24
1.000000000000000E+20
 34
1.000000000000000E+20
 15
-1.000000000000000E+20
 25
-1.000000000000000E+20
 35
-1.000000000000000E+20
146
0.0
 13
0.0
 23
0.0
 33
0.0
 16
1.0
 26
0.0
 36
0.0
 17
0.0
 27
1.0
 37
0.0
 76
     0
330
1B
  0
LAYOUT
  5
26
102
{ACAD_REACTORS
330
1A
102
}
330
1A
100
AcDbPlotSettings
  1

  2
none_device
  4

  6

 40
0.0
 41
0.0
 42
0.0
 43
0.0
 44
0.0
 45
0.0
 46
0.0
 47
0.0
 48
0.0
 49
0.0
140
0.0
141
0.0
142
1.0
143
1.0
 70
   688
 72
     0
 73
     0
 74
     5
  7

 75
    16
 76
     0
 77
     2
 78
   300
147
1.0
148
0.0
149
0.0
100
AcDbLayout
  1
Layout2
 70
     1
 71
     2
 10
0.0
 20
0.0
 11
0.0
 21
0.0
 12
0.0
 22
0.0
 32
0.0
 14
0.0
 24
0.0
 34
0.0
 15
0.0
 25
0.0
 35
0.0
146
0.0
 13
0.0
 23
0.0
 33
0.0
 16
1.0
 26
0.0
 36
0.0
 17
0.0
 27
1.0
 37
0.0
 76
     0
330
23
  0
LAYOUT
  5
22
102
{ACAD_REACTORS
330
1A
102
}
330
1A
100
AcDbPlotSettings
  1

  2
none_device
  4

  6

 40
0.0
 41
0.0
 42
0.0
 43
0.0
 44
0.0
 45
0.0
 46
0.0
 47
0.0
 48
0.0
 49
0.0
140
0.0
141
0.0
142
1.0
143
1.0
 70
  1712
 72
     0
 73
     0
 74
     0
  7

 75
     0
 76
     0
 77
     2
 78
   300
147
1.0
148
0.0
149
0.0
100
AcDbLayout
  1
Model
 70
     1
 71
     0
 10
0.0
 20
0.0
 11
12.0
 21
9.0
 12
0.0
 22
0.0
 32
0.0
 14
1.000000000000000E+20
 24
1.000000000000000E+20
 34
1.000000000000000E+20
 15
-1.000000000000000E+20
 25
-1.000000000000000E+20
 35
-1.000000000000000E+20
146
0.0
 13
0.0
 23
0.0
 33
0.0
 16
1.0
 26
0.0
 36
0.0
 17
0.0
 27
1.0
 37
0.0
 76
     0
330
1F
331
29
  0
MATERIAL
  5
3D
102
{ACAD_REACTORS
330
3B
102
}
330
3B
100
AcDbMaterial
  1
ByBlock
 72
     1
 94
      127
  0
MATERIAL
  5
3C
102
{ACAD_REACTORS
330
3B
102
}
330
3B
100
AcDbMaterial
  1
ByLayer
 72
     1
 94
      127
  0
MATERIAL
  5
3E
102
{ACAD_REACTORS
330
3B
102
}
330
3B
100
AcDbMaterial
  1
Global
 72
     1
 94
      127
  0
MLINESTYLE
  5
18
102
{ACAD_REACTORS
330
17
102
}
330
17
100
AcDbMlineStyle
  2
Standard
 70
     0
  3

 62
   256
 51
90.0
 52
90.0
 71
     2
 49
0.5
 62
   256
  6
BYLAYER
 49
-0.5
 62
   256
  6
BYLAYER
  0
ACDBPLACEHOLDER
  5
F
102
{ACAD_REACTORS
330
E
102
}
330
E
  0
VISUALSTYLE
  5
2F
102
{ACAD_REACTORS
330
2A
102
}
330
2A
100
AcDbVisualStyle
  2
2dWireframe
 70
     4
177
     2
291
     0
 71
     0
176
     1
 72
     2
176
     1
 73
     0
176
     1
 90
        0
176
     1
 40
-0.6
176
     1
 41
-30.0
176
     1
 62
     5
 63
     7
421
 16777215
176
     1
 74
     1
176
     1
 91
        4
176
     1
 64
     7
176
     1
 65
   257
176
     1
 75
     1
176
     1
175
     1
176
     1
 42
1.0
176
     1
 92
        0
176
     1
 66
   257
176
     1
 43
1.0
176
     1
 76
     1
176
     1
 77
     6
176
     1
 78
     2
176
     1
 67
     7
176
     1
 79
     5
176
     1
170
     0
176
     1
171
     0
176
     1
290
     0
176
     1
 93
        1
176
     1
 44
0.0
176
     1
173
     0
176
     1
  0
VISUALSTYLE
  5
31
102
{ACAD_REACTORS
330
2A
102
}
330
2A
100
AcDbVisualStyle
  2
3D Hidden
 70
     6
177
     2
291
     0
 71
     1
176
     1
 72
     2
176
     1
 73
     2
176
     1
 90
        0
176
     1
 40
-0.6
176
     1
 41
-30.0
176
     1
 62
     5
 63
     7
421
 16777215
176
     1
 74
     2
176
     1
 91
        2
176
     1
 64
     7
176
     1
 65
   257
176
     1
 75
     2
176
     1
175
     1
176
     1
 42
40.0
176
     1
 92
        0
176
     1
 66
   257
176
     1
 43
1.0
176
     1
 76
     1
176
     1
 77
     6
176
     1
 78
     2
176
     1
 67
     7
176
     1
 79
     3
176
     1
170
     0
176
     1
171
     0
176
     1
290
     0
176
     1
 93
        1
176
     1
 44
0.0
176
     1
173
     0
176
     1
  0
VISUALSTYLE
  5
30
102
{ACAD_REACTORS
330
2A
102
}
330
2A
100
AcDbVisualStyle
  2
3dWireframe
 70
     5
177
     2
291
     0
 71
     0
176
     1
 72
     2
176
     1
 73
     0
176
     1
 90
        0
176
     1
 40
-0.6
176
     1
 41
-30.0
176
     1
 62
     5
 63
     7
421
 16777215
176
     1
 74
     1
176
     1
 91
        4
176
     1
 64
     7
176
     1
 65
   257
176
     1
 75
     1
176
     1
175
     1
176
     1
 42
1.0
176
     1
 92
        0
176
     1
 66
   257
176
     1
 43
1.0
176
     1
 76
     1
176
     1
 77
     6
176
     1
 78
     2
176
     1
 67
     7
176
     1
 79
     5
176
     1
170
     0
176
     1
171
     0
176
     1
290
     0
176
     1
 93
        1
176
     1
 44
0.0
176
     1
173
     0
176
     1
  0
VISUALSTYLE
  5
32
102
{ACAD_REACTORS
330
2A
102
}
330
2A
100
AcDbVisualStyle
  2
Basic
 70
     7
177
     2
291
     1
 71
     1
176
     1
 72
     0
176
     1
 73
     1
176
     1
 90
        0
176
     1
 40
-0.6
176
     1
 41
-30.0
176
     1
 62
     5
 63
     7
421
 16777215
176
     1
 74
     0
176
     1
 91
        4
176
     1
 64
     7
176
     1
 65
   257
176
     1
 75
     1
176
     1
175
     1
176
     1
 42
1.0
176
     1
 92
        8
176
     1
 66
     7
176
     1
 43
1.0
176
     1
 76
     1
176
     1
 77
     6
176
     1
 78
     2
176
     1
 67
     7
176
     1
 79
     5
176
     1
170
     0
176
     1
171
     0
176
     1
290
     0
176
     1
 93
        1
176
     1
 44
0.0
176
     1
173
     0
176
     1
  0
VISUALSTYLE
  5
36
102
{ACAD_REACTORS
330
2A
102
}
330
2A
100
AcDbVisualStyle
  2
Brighten
 70
    12
177
     2
291
     1
 71
     2
176
     1
 72
     2
176
     1
 73
     0
176
     1
 90
        0
176
     1
 40
-0.6
176
     1
 41
-30.0
176
     1
 62
     5
 63
     7
421
 16777215
176
     1
 74
     1
176
     1
 91
        4
176
     1
 64
     7
176
     1
 65
   257
176
     1
 75
     1
176
     1
175
     1
176
     1
 42
1.0
176
     1
 92
        8
176
     1
 66
     7
176
     1
 43
1.0
176
     1
 76
     1
176
     1
 77
     6
176
     1
 78
     2
176
     1
 67
     7
176
     1
 79
     5
176
     1
170
     0
176
     1
171
     0
176
     1
290
     0
176
     1
 93
        1
176
     1
 44
50.0
176
     1
173
     0
176
     1
  0
VISUALSTYLE
  5
3A
102
{ACAD_REACTORS
330
2A
102
}
330
2A
100
AcDbVisualStyle
  2
ColorChange
 70
    16
177
     2
291
     1
 71
     2
176
     1
 72
     2
176
     1
 73
     3
176
     1
 90
        0
176
     1
 40
-0.6
176
     1
 41
-30.0
176
     1
 62
     5
 63
     8
421
  8421504
176
     1
 74
     1
176
     1
 91
        4
176
     1
 64
     7
176
     1
 65
   257
176
     1
 75
     1
176
     1
175
     1
176
     1
 42
1.0
176
     1
 92
        8
176
     1
 66
     8
424
  8421504
176
     1
 43
1.0
176
     1
 76
     1
176
     1
 77
     6
176
     1
 78
     2
176
     1
 67
     7
176
     1
 79
     5
176
     1
170
     0
176
     1
171
     0
176
     1
290
     0
176
     1
 93
        1
176
     1
 44
0.0
176
     1
173
     0
176
     1
  0
VISUALSTYLE
  5
34
102
{ACAD_REACTORS
330
2A
102
}
330
2A
100
AcDbVisualStyle
  2
Conceptual
 70
     9
177
     2
291
     0
 71
     3
176
     1
 72
     2
176
     1
 73
     0
176
     1
 90
        0
176
     1
 40
-0.6
176
     1
 41
-30.0
176
     1
 62
     5
 63
     7
421
 16777215
176
     1
 74
     2
176
     1
 91
        2
176
     1
 64
     7
176
     1
 65
   257
176
     1
 75
     1
176
     1
175
     1
176
     1
 42
40.0
176
     1
 92
        8
176
     1
 66
     7
176
     1
 43
1.0
176
     1
 76
     1
176
     1
 77
     6
176
     1
 78
     2
176
     1
 67
     7
176
     1
 79
     3
176
     1
170
     0
176
     1
171
     0
176
     1
290
     0
176
     1
 93
        1
176
     1
 44
0.0
176
     1
173
     0
176
     1
  0
VISUALSTYLE
  5
35
102
{ACAD_REACTORS
330
2A
102
}
330
2A
100
AcDbVisualStyle
  2
Dim
 70
    11
177
     2
291
     1
 71
     2
176
     1
 72
     2
176
     1
 73
     0
176
     1
 90
        0
176
     1
 40
-0.6
176
     1
 41
-30.0
176
     1
 62
     5
 63
     7
421
 16777215
176
     1
 74
     1
176
     1
 91
        4
176
     1
 64
     7
176
     1
 65
   257
176
     1
 75
     1
176
     1
175
     1
176
     1
 42
1.0
176
     1
 92
        8
176
     1
 66
     7
176
     1
 43
1.0
176
     1
 76
     1
176
     1
 77
     6
176
     1
 78
     2
176
     1
 67
     7
176
     1
 79
     5
176
     1
170
     0
176
     1
171
     0
176
     1
290
     0
176
     1
 93
        1
176
     1
 44
-50.0
176
     1
173
     0
176
     1
  0
VISUALSTYLE
  5
39
102
{ACAD_REACTORS
330
2A
102
}
330
2A
100
AcDbVisualStyle
  2
Facepattern
 70
    15
177
     2
291
     1
 71
     2
176
     1
 72
     2
176
     1
 73
     0
176
     1
 90
        0
176
     1
 40
-0.6
176
     1
 41
-30.0
176
     1
 62
     5
 63
     7
421
 16777215
176
     1
 74
     1
176
     1
 91
        4
176
     1
 64
     7
176
     1
 65
   257
176
     1
 75
     1
176
     1
175
     1
176
     1
 42
1.0
176
     1
 92
        8
176
     1
 66
     7
176
     1
 43
1.0
176
     1
 76
     1
176
     1
 77
     6
176
     1
 78
     2
176
     1
 67
     7
176
     1
 79
     5
176
     1
170
     0
176
     1
171
     0
176
     1
290
     0
176
     1
 93
        1
176
     1
 44
0.0
176
     1
173
     0
176
     1
  0
VISUALSTYLE
  5
2B
102
{ACAD_REACTORS
330
2A
102
}
330
2A
100
AcDbVisualStyle
  2
Flat
 70
     0
177
     2
291
     1
 71
     2
176
     1
 72
     1
176
     1
 73
     1
176
     1
 90
        2
176
     1
 40
-0.6
176
     1
 41
30.0
176
     1
 62
     5
 63
     7
421
 16777215
176
     1
 74
     0
176
     1
 91
        4
176
     1
 64
     7
176
     1
 65
   257
176
     1
 75
     1
176
     1
175
     1
176
     1
 42
1.0
176
     1
 92
        8
176
     1
 66
     7
176
     1
 43
1.0
176
     1
 76
     1
176
     1
 77
     6
176
     1
 78
     2
176
     1
 67
     7
176
     1
 79
     5
176
     1
170
     0
176
     1
171
     0
176
     1
290
     0
176
     1
 93
       13
176
     1
 44
0.0
176
     1
173
     0
176
     1
  0
VISUALSTYLE
  5
2C
102
{ACAD_REACTORS
330
2A
102
}
330
2A
100
AcDbVisualStyle
  2
FlatWithEdges
 70
     1
177
     2
291
     1
 71
     2
176
     1
 72
     1
176
     1
 73
     1
176
     1
 90
        2
176
     1
 40
-0.6
176
     1
 41
30.0
176
     1
 62
     5
 63
     7
421
 16777215
176
     1
 74
     1
176
     1
 91
        4
176
     1
 64
     7
176
     1
 65
   257
176
     1
 75
     1
176
     1
175
     1
176
     1
 42
1.0
176
     1
 92
        0
176
     1
 66
   257
176
     1
 43
1.0
176
     1
 76
     1
176
     1
 77
     6
176
     1
 78
     2
176
     1
 67
     7
176
     1
 79
     5
176
     1
170
     0
176
     1
171
     0
176
     1
290
     0
176
     1
 93
       13
176
     1
 44
0.0
176
     1
173
     0
176
     1
  0
VISUALSTYLE
  5
2D
102
{ACAD_REACTORS
330
2A
102
}
330
2A
100
AcDbVisualStyle
  2
Gouraud
 70
     2
177
     2
291
     1
 71
     2
176
     1
 72
     2
176
     1
 73
     1
176
     1
 90
        2
176
     1
 40
-0.6
176
     1
 41
30.0
176
     1
 62
     5
 63
     7
421
 16777215
176
     1
 74
     0
176
     1
 91
        4
176
     1
 64
     7
176
     1
 65
   257
176
     1
 75
     1
176
     1
175
     1
176
     1
 42
1.0
176
     1
 92
        0
176
     1
 66
     7
176
     1
 43
1.0
176
     1
 76
     1
176
     1
 77
     6
176
     1
 78
     2
176
     1
 67
     7
176
     1
 79
     5
176
     1
170
     0
176
     1
171
     0
176
     1
290
     0
176
     1
 93
       13
176
     1
 44
0.0
176
     1
173
     0
176
     1
  0
VISUALSTYLE
  5
2E
102
{ACAD_REACTORS
330
2A
102
}
330
2A
100
AcDbVisualStyle
  2
GouraudWithEdges
 70
     3
177
     2
291
     1
 71
     2
176
     1
 72
     2
176
     1
 73
     1
176
     1
 90
        2
176
     1
 40
-0.6
176
     1
 41
30.0
176
     1
 62
     5
 63
     7
421
 16777215
176
     1
 74
     1
176
     1
 91
        4
176
     1
 64
     7
176
     1
 65
   257
176
     1
 75
     1
176
     1
175
     1
176
     1
 42
1.0
176
     1
 92
        0
176
     1
 66
   257
176
     1
 43
1.0
176
     1
 76
     1
176
     1
 77
     6
176
     1
 78
     2
176
     1
 67
     7
176
     1
 79
     5
176
     1
170
     0
176
     1
171
     0
176
     1
290
     0
176
     1
 93
       13
176
     1
 44
0.0
176
     1
173
     0
176
     1
  0
VISUALSTYLE
  5
38
102
{ACAD_REACTORS
330
2A
102
}
330
2A
100
AcDbVisualStyle
  2
Linepattern
 70
    14
177
     2
291
     1
 71
     2
176
     1
 72
     2
176
     1
 73
     0
176
     1
 90
        0
176
     1
 40
-0.6
176
     1
 41
-30.0
176
     1
 62
     5
 63
     7
421
 16777215
176
     1
 74
     1
176
     1
 91
        4
176
     1
 64
     7
176
     1
 65
   257
176
     1
 75
     7
176
     1
175
     7
176
     1
 42
1.0
176
     1
 92
        8
176
     1
 66
     7
176
     1
 43
1.0
176
     1
 76
     1
176
     1
 77
     6
176
     1
 78
     2
176
     1
 67
     7
176
     1
 79
     5
176
     1
170
     0
176
     1
171
     0
176
     1
290
     0
176
     1
 93
        1
176
     1
 44
0.0
176
     1
173
     0
176
     1
  0
VISUALSTYLE
  5
33
102
{ACAD_REACTORS
330
2A
102
}
330
2A
100
AcDbVisualStyle
  2
Realistic
 70
     8
177
     2
291
     0
 71
     2
176
     1
 72
     2
176
     1
 73
     0
176
     1
 90
        0
176
     1
 40
-0.6
176
     1
 41
-30.0
176
     1
 62
     5
 63
     7
421
 16777215
176
     1
 74
     1
176
     1
 91
        0
176
     1
 64
     7
176
     1
 65
   257
176
     1
 75
     1
176
     1
175
     1
176
     1
 42
1.0
176
     1
 92
        8
176
     1
 66
     8
424
  7895160
176
     1
 43
1.0
176
     1
 76
     1
176
     1
 77
     6
176
     1
 78
     2
176
     1
 67
     7
176
     1
 79
     5
176
     1
170
     0
176
     1
171
     0
176
     1
290
     0
176
     1
 93
       13
176
     1
 44
0.0
176
     1
173
     0
176
     1
  0
VISUALSTYLE
  5
37
102
{ACAD_REACTORS
330
2A
102
}
330
2A
100
AcDbVisualStyle
  2
Thicken
 70
    13
177
     2
291
     1
 71
     2
176
     1
 72
     2
176
     1
 73
     0
176
     1
 90
        0
176
     1
 40
-0.6
176
     1
 41
-30.0
176
     1
 62
     5
 63
     7
421
 16777215
176
     1
 74
     1
176
     1
 91
        4
176
     1
 64
     7
176
     1
 65
   257
176
     1
 75
     1
176
     1
175
     1
176
     1
 42
1.0
176
     1
 92
       12
176
     1
 66
     7
176
     1
 43
1.0
176
     1
 76
     1
176
     1
 77
     6
176
     1
 78
     2
176
     1
 67
     7
176
     1
 79
     5
176
     1
170
     0
176
     1
171
     0
176
     1
290
     0
176
     1
 93
        1
176
     1
 44
0.0
176
     1
173
     0
176
     1
  0
ENDSEC
  0
EOF
