  0
SECTION
  2
HEADER
  9
$ACADVER
  1
AC1024
  9
$ACADMAINTVER
 70
     6
  9
$DWGCODEPAGE
  3
ANSI_1252
  9
$INSBASE
 10
0.0
 20
0.0
 30
0.0
  9
$EXTMIN
 10
1.000000000000000E+20
 20
1.000000000000000E+20
 30
1.000000000000000E+20
  9
$EXTMAX
 10
-1.000000000000000E+20
 20
-1.000000000000000E+20
 30
-1.000000000000000E+20
  9
$LIMMIN
 10
0.0
 20
0.0
  9
$LIMMAX
 10
12.0
 20
9.0
  9
$ORTHOMODE
 70
     0
  9
$REGENMODE
 70
     1
  9
$FILLMODE
 70
     1
  9
$QTEXTMODE
 70
     0
  9
$MIRRTEXT
 70
     1
  9
$LTSCALE
 40
1.0
  9
$ATTMODE
 70
     1
  9
$TEXTSIZE
 40
0.2
  9
$TRACEWID
 40
0.05
  9
$TEXTSTYLE
  7
Standard
  9
$CLAYER
  8
0
  9
$CELTYPE
  6
ByLayer
  9
$CECOLOR
 62
   256
  9
$CELTSCALE
 40
1.0
  9
$DISPSILH
 70
     0
  9
$DIMSCALE
 40
1.0
  9
$DIMASZ
 40
0.18
  9
$DIMEXO
 40
0.0625
  9
$DIMDLI
 40
0.38
  9
$DIMRND
 40
0.0
  9
$DIMDLE
 40
0.0
  9
$DIMEXE
 40
0.18
  9
$DIMTP
 40
0.0
  9
$DIMTM
 40
0.0
  9
$DIMTXT
 40
0.18
  9
$DIMCEN
 40
0.09
  9
$DIMTSZ
 40
0.0
  9
$DIMTOL
 70
     0
  9
$DIMLIM
 70
     0
  9
$DIMTIH
 70
     1
  9
$DIMTOH
 70
     1
  9
$DIMSE1
 70
     0
  9
$DIMSE2
 70
     0
  9
$DIMTAD
 70
     0
  9
$DIMZIN
 70
     0
  9
$DIMBLK
  1

  9
$DIMASO
 70
     1
  9
$DIMSHO
 70
     1
  9
$DIMPOST
  1

  9
$DIMAPOST
  1

  9
$DIMALT
 70
     0
  9
$DIMALTD
 70
     2
  9
$DIMALTF
 40
25.4
  9
$DIMLFAC
 40
1.0
  9
$DIMTOFL
 70
     0
  9
$DIMTVP
 40
0.0
  9
$DIMTIX
 70
     0
  9
$DIMSOXD
 70
     0
  9
$DIMSAH
 70
     0
  9
$DIMBLK1
  1

  9
$DIMBLK2
  1

  9
$DIMSTYLE
  2
Standard
  9
$DIMCLRD
 70
     0
  9
$DIMCLRE
 70
     0
  9
$DIMCLRT
 70
     0
  9
$DIMTFAC
 40
1.0
  9
$DIMGAP
 40
0.09
  9
$DIMJUST
 70
     0
  9
$DIMSD1
 70
     0
  9
$DIMSD2
 70
     0
  9
$DIMTOLJ
 70
     1
  9
$DIMTZIN
 70
     0
  9
$DIMALTZ
 70
     0
  9
$DIMALTTZ
 70
     0
  9
$DIMUPT
 70
     0
  9
$DIMDEC
 70
     4
  9
$DIMTDEC
 70
     4
  9
$DIMALTU
 70
     2
  9
$DIMALTTD
 70
     2
  9
$DIMTXSTY
  7
Standard
  9
$DIMAUNIT
 70
     0
  9
$DIMADEC
 70
     0
  9
$DIMALTRND
 40
0.0
  9
$DIMAZIN
 70
     0
  9
$DIMDSEP
 70
    46
  9
$DIMATFIT
 70
     3
  9
$DIMFRAC
 70
     0
  9
$DIMLDRBLK
  1

  9
$DIMLUNIT
 70
     2
  9
$DIMLWD
 70
    -2
  9
$DIMLWE
 70
    -2
  9
$DIMTMOVE
 70
     0
  9
$DIMFXL
 40
1.0
  9
$DIMFXLON
 70
     0
  9
$DIMJOGANG
 40
0.7853981633974483
  9
$DIMTFILL
 70
     0
  9
$DIMTFILLCLR
 70
     0
  9
$DIMARCSYM
 70
     0
  9
$DIMLTYPE
  6

  9
$DIMLTEX1
  6

  9
$DIMLTEX2
  6

  9
$DIMTXTDIRECTION
 70
     0
  9
$LUNITS
 70
     2
  9
$LUPREC
 70
     4
  9
$SKETCHINC
 40
0.1
  9
$FILLETRAD
 40
0.5
  9
$AUNITS
 70
     0
  9
$AUPREC
 70
     0
  9
$MENU
  1
.
  9
$ELEVATION
 40
0.0
  9
$PELEVATION
 40
0.0
  9
$THICKNESS
 40
0.0
  9
$LIMCHECK
 70
     0
  9
$CHAMFERA
 40
0.5
  9
$CHAMFERB
 40
0.5
  9
$CHAMFERC
 40
1.0
  9
$CHAMFERD
 40
0.0
  9
$SKPOLY
 70
     0
  9
$TDCREATE
 40
2459620.686660995
  9
$TDUCREATE
 40
2459620.978327662
  9
$TDUPDATE
 40
2459620.686661042
  9
$TDUUPDATE
 40
2459620.978327708
  9
$TDINDWG
 40
0.0000000116
  9
$TDUSRTIMER
 40
0.0000000116
  9
$USRTIMER
 70
     1
  9
$ANGBASE
 50
0.0
  9
$ANGDIR
 70
     0
  9
$PDMODE
 70
     0
  9
$PDSIZE
 40
0.0
  9
$PLINEWID
 40
0.0
  9
$SPLFRAME
 70
     0
  9
$SPLINETYPE
 70
     6
  9
$SPLINESEGS
 70
     8
  9
$HANDSEED
  5
1ED
  9
$SURFTAB1
 70
     6
  9
$SURFTAB2
 70
     6
  9
$SURFTYPE
 70
     6
  9
$SURFU
 70
     6
  9
$SURFV
 70
     6
  9
$UCSBASE
  2

  9
$UCSNAME
  2

  9
$UCSORG
 10
0.0
 20
0.0
 30
0.0
  9
$UCSXDIR
 10
1.0
 20
0.0
 30
0.0
  9
$UCSYDIR
 10
0.0
 20
1.0
 30
0.0
  9
$UCSORTHOREF
  2

  9
$UCSORTHOVIEW
 70
     0
  9
$UCSORGTOP
 10
0.0
 20
0.0
 30
0.0
  9
$UCSORGBOTTOM
 10
0.0
 20
0.0
 30
0.0
  9
$UCSORGLEFT
 10
0.0
 20
0.0
 30
0.0
  9
$UCSORGRIGHT
 10
0.0
 20
0.0
 30
0.0
  9
$UCSORGFRONT
 10
0.0
 20
0.0
 30
0.0
  9
$UCSORGBACK
 10
0.0
 20
0.0
 30
0.0
  9
$PUCSBASE
  2

  9
$PUCSNAME
  2

  9
$PUCSORG
 10
0.0
 20
0.0
 30
0.0
  9
$PUCSXDIR
 10
1.0
 20
0.0
 30
0.0
  9
$PUCSYDIR
 10
0.0
 20
1.0
 30
0.0
  9
$PUCSORTHOREF
  2

  9
$PUCSORTHOVIEW
 70
     0
  9
$PUCSORGTOP
 10
0.0
 20
0.0
 30
0.0
  9
$PUCSORGBOTTOM
 10
0.0
 20
0.0
 30
0.0
  9
$PUCSORGLEFT
 10
0.0
 20
0.0
 30
0.0
  9
$PUCSORGRIGHT
 10
0.0
 20
0.0
 30
0.0
  9
$PUCSORGFRONT
 10
0.0
 20
0.0
 30
0.0
  9
$PUCSORGBACK
 10
0.0
 20
0.0
 30
0.0
  9
$USERI1
 70
     0
  9
$USERI2
 70
     0
  9
$USERI3
 70
     0
  9
$USERI4
 70
     0
  9
$USERI5
 70
     0
  9
$USERR1
 40
0.0
  9
$USERR2
 40
0.0
  9
$USERR3
 40
0.0
  9
$USERR4
 40
0.0
  9
$USERR5
 40
0.0
  9
$WORLDVIEW
 70
     1
  9
$SHADEDGE
 70
     3
  9
$SHADEDIF
 70
    70
  9
$TILEMODE
 70
     1
  9
$MAXACTVP
 70
    64
  9
$PINSBASE
 10
0.0
 20
0.0
 30
0.0
  9
$PLIMCHECK
 70
     0
  9
$PEXTMIN
 10
1.000000000000000E+20
 20
1.000000000000000E+20
 30
1.000000000000000E+20
  9
$PEXTMAX
 10
-1.000000000000000E+20
 20
-1.000000000000000E+20
 30
-1.000000000000000E+20
  9
$PLIMMIN
 10
0.0
 20
0.0
  9
$PLIMMAX
 10
12.0
 20
9.0
  9
$UNITMODE
 70
     0
  9
$VISRETAIN
 70
     1
  9
$PLINEGEN
 70
     0
  9
$PSLTSCALE
 70
     1
  9
$TREEDEPTH
 70
  3020
  9
$CMLSTYLE
  2
Standard
  9
$CMLJUST
 70
     0
  9
$CMLSCALE
 40
1.0
  9
$PROXYGRAPHICS
 70
     1
  9
$MEASUREMENT
 70
     0
  9
$CELWEIGHT
370
    -1
  9
$ENDCAPS
280
     0
  9
$JOINSTYLE
280
     0
  9
$LWDISPLAY
290
     1
  9
$INSUNITS
 70
     1
  9
$HYPERLINKBASE
  1

  9
$STYLESHEET
  1

  9
$XEDIT
290
     1
  9
$CEPSNTYPE
380
     0
  9
$PSTYLEMODE
290
     1
  9
$FINGERPRINTGUID
  2
{414105C3-15BE-44B5-86A5-13DBEBF10DA8}
  9
$VERSIONGUID
  2
{FAEB1C32-E019-11D5-929B-00C0DF256EC4}
  9
$EXTNAMES
290
     1
  9
$PSVPSCALE
 40
0.0
  9
$OLESTARTUP
290
     0
  9
$SORTENTS
280
   127
  9
$INDEXCTL
280
     0
  9
$HIDETEXT
280
     1
  9
$XCLIPFRAME
280
     2
  9
$HALOGAP
280
     0
  9
$OBSCOLOR
 70
   257
  9
$OBSLTYPE
280
     0
  9
$INTERSECTIONDISPLAY
280
     0
  9
$INTERSECTIONCOLOR
 70
   257
  9
$DIMASSOC
280
     2
  9
$PROJECTNAME
  1

  9
$CAMERADISPLAY
290
     0
  9
$LENSLENGTH
 40
50.0
  9
$CAMERAHEIGHT
 40
0.0
  9
$STEPSPERSEC
 40
2.0
  9
$STEPSIZE
 40
6.0
  9
$3DDWFPREC
 40
2.0
  9
$PSOLWIDTH
 40
0.25
  9
$PSOLHEIGHT
 40
4.0
  9
$LOFTANG1
 40
1.570796326794897
  9
$LOFTANG2
 40
1.570796326794897
  9
$LOFTMAG1
 40
0.0
  9
$LOFTMAG2
 40
0.0
  9
$LOFTPARAM
 70
     7
  9
$LOFTNORMALS
280
     1
  9
$LATITUDE
 40
37.795
  9
$LONGITUDE
 40
-122.394
  9
$NORTHDIRECTION
 40
0.0
  9
$TIMEZONE
 70
 -8000
  9
$LIGHTGLYPHDISPLAY
280
     1
  9
$TILEMODELIGHTSYNCH
280
     1
  9
$CMATERIAL
347
3C
  9
$SOLIDHIST
280
     1
  9
$SHOWHIST
280
     1
  9
$DWFFRAME
280
     2
  9
$DGNFRAME
280
     2
  9
$REALWORLDSCALE
290
     1
  9
$INTERFERECOLOR
 62
   256
  9
$CSHADOW
280
     0
  9
$SHADOWPLANELOCATION
 40
0.0
  0
ENDSEC
  0
SECTION
  2
CLASSES
  0
CLASS
  1
ACDBDICTIONARYWDFLT
  2
AcDbDictionaryWithDefault
  3
ObjectDBX Classes
 90
        0
 91
        4
280
     0
281
     0
  0
CLASS
  1
VISUALSTYLE
  2
AcDbVisualStyle
  3
ObjectDBX Classes
 90
     4095
 91
        4
280
     0
281
     0
  0
CLASS
  1
MATERIAL
  2
AcDbMaterial
  3
ObjectDBX Classes
 90
     1153
 91
        4
280
     0
281
     0
  0
CLASS
  1
SUN
  2
AcDbSun
  3
SCENEOE
 90
     1024
 91
        4
280
     0
281
     0
  0
ENDSEC
  0
SECTION
  2
TABLES
  0
TABLE
  2
VPORT
  5
8
330
0
100
AcDbSymbolTable
 70
     1
  0
VPORT
  5
29
330
8
100
AcDbSymbolTableRecord
100
AcDbViewportTableRecord
  2
*Active
 70
     0
 10
0.0
 20
0.0
 11
1.0
 21
1.0
 12
0.0
 22
0.0
 13
0.0
 23
0.0
 14
0.5
 24
0.5
 15
0.5
 25
0.5
 16
0.0
 26
0.0
 36
1.0
 17
18.0
 27
-12.0
 37
0.0
 40
24.0
 41
1.5
 42
50.0
 43
0.0
 44
0.0
 50
0.0
 51
0.0
 71
     0
 72
   100
 73
     1
 74
     3
 75
     0
 76
     0
 77
     0
 78
     0
281
     0
 65
     1
110
0.0
120
0.0
130
0.0
111
1.0
121
0.0
131
0.0
112
0.0
122
1.0
132
0.0
 79
     0
146
0.0
 60
     3
 61
     5
292
     1
282
     1
141
0.0
142
0.0
 63
   250
361
3F
  0
ENDTAB
  0
TABLE
  2
LTYPE
  5
5
330
0
100
AcDbSymbolTable
 70
     1
  0
LTYPE
  5
14
330
5
100
AcDbSymbolTableRecord
100
AcDbLinetypeTableRecord
  2
ByBlock
 70
     0
  3

 72
    65
 73
     0
 40
0.0
  0
LTYPE
  5
15
330
5
100
AcDbSymbolTableRecord
100
AcDbLinetypeTableRecord
  2
ByLayer
 70
     0
  3

 72
    65
 73
     0
 40
0.0
  0
LTYPE
  5
16
330
5
100
AcDbSymbolTableRecord
100
AcDbLinetypeTableRecord
  2
Continuous
 70
     0
  3
Solid line
 72
    65
 73
     0
 40
0.0
  0
ENDTAB
  0
TABLE
  2
LAYER
  5
2
330
0
100
AcDbSymbolTable
 70
     2
  0
LAYER
  5
10
330
2
100
AcDbSymbolTableRecord
100
AcDbLayerTableRecord
  2
0
 70
     0
 62
     7
  6
Continuous
370
    -3
390
F
347
3E
  0
LAYER
  5
40
330
2
100
AcDbSymbolTableRecord
100
AcDbLayerTableRecord
  2
Layer 1
 70
     0
 62
     7
  6
Continuous
370
    -3
390
F
347
3E
  0
ENDTAB
  0
TABLE
  2
STYLE
  5
3
330
0
100
AcDbSymbolTable
 70
     1
  0
STYLE
  5
11
330
3
100
AcDbSymbolTableRecord
100
AcDbTextStyleTableRecord
  2
Standard
 70
     0
 40
0.0
 41
1.0
 50
0.0
 71
     0
 42
0.2
  3
txt
  4

  0
ENDTAB
  0
TABLE
  2
VIEW
  5
6
330
0
100
AcDbSymbolTable
 70
     0
  0
ENDTAB
  0
TABLE
  2
UCS
  5
7
330
0
100
AcDbSymbolTable
 70
     0
  0
ENDTAB
  0
TABLE
  2
APPID
  5
9
330
0
100
AcDbSymbolTable
 70
     1
  0
APPID
  5
12
330
9
100
AcDbSymbolTableRecord
100
AcDbRegAppTableRecord
  2
ACAD
 70
     0
  0
ENDTAB
  0
TABLE
  2
DIMSTYLE
  5
A
330
0
100
AcDbSymbolTable
 70
     1
100
AcDbDimStyleTable
  0
DIMSTYLE
105
27
330
A
100
AcDbSymbolTableRecord
100
AcDbDimStyleTableRecord
  2
Standard
 70
     0
178
     0
340
11
  0
ENDTAB
  0
TABLE
  2
BLOCK_RECORD
  5
1
330
0
100
AcDbSymbolTable
 70
    25
  0
BLOCK_RECORD
  5
1F
330
1
100
AcDbSymbolTableRecord
100
AcDbBlockTableRecord
  2
*Model_Space
340
22
 70
     0
280
     1
281
     0
  0
BLOCK_RECORD
  5
1B
330
1
100
AcDbSymbolTableRecord
100
AcDbBlockTableRecord
  2
*Paper_Space
340
1E
 70
     0
280
     1
281
     0
  0
BLOCK_RECORD
  5
23
330
1
100
AcDbSymbolTableRecord
100
AcDbBlockTableRecord
  2
*Paper_Space0
340
26
 70
     0
280
     1
281
     0
  0
BLOCK_RECORD
  5
41
330
1
100
AcDbSymbolTableRecord
100
AcDbBlockTableRecord
  2
block 2
340
0
102
{BLKREFS
331
42
102
}
 70
     0
280
     1
281
     0
  0
BLOCK_RECORD
  5
7C
330
1
100
AcDbSymbolTableRecord
100
AcDbBlockTableRecord
  2
block 3
340
0
102
{BLKREFS
331
7D
102
}
 70
     0
280
     1
281
     0
  0
BLOCK_RECORD
  5
87
330
1
100
AcDbSymbolTableRecord
100
AcDbBlockTableRecord
  2
block 4
340
0
102
{BLKREFS
331
88
102
}
 70
     0
280
     1
281
     0
  0
BLOCK_RECORD
  5
92
330
1
100
AcDbSymbolTableRecord
100
AcDbBlockTableRecord
  2
block 5
340
0
102
{BLKREFS
331
93
102
}
 70
     0
280
     1
281
     0
  0
BLOCK_RECORD
  5
9D
330
1
100
AcDbSymbolTableRecord
100
AcDbBlockTableRecord
  2
block 6
340
0
102
{BLKREFS
331
9E
102
}
 70
     0
280
     1
281
     0
  0
BLOCK_RECORD
  5
A8
330
1
100
AcDbSymbolTableRecord
100
AcDbBlockTableRecord
  2
block 7
340
0
102
{BLKREFS
331
A9
102
}
 70
     0
280
     1
281
     0
  0
BLOCK_RECORD
  5
B3
330
1
100
AcDbSymbolTableRecord
100
AcDbBlockTableRecord
  2
block 8
340
0
102
{BLKREFS
331
B4
102
}
 70
     0
280
     1
281
     0
  0
BLOCK_RECORD
  5
BE
330
1
100
AcDbSymbolTableRecord
100
AcDbBlockTableRecord
  2
block 9
340
0
102
{BLKREFS
331
BF
102
}
 70
     0
280
     1
281
     0
  0
BLOCK_RECORD
  5
C9
330
1
100
AcDbSymbolTableRecord
100
AcDbBlockTableRecord
  2
block 10
340
0
102
{BLKREFS
331
CA
102
}
 70
     0
280
     1
281
     0
  0
BLOCK_RECORD
  5
D4
330
1
100
AcDbSymbolTableRecord
100
AcDbBlockTableRecord
  2
block 11
340
0
102
{BLKREFS
331
D5
102
}
 70
     0
280
     1
281
     0
  0
BLOCK_RECORD
  5
DF
330
1
100
AcDbSymbolTableRecord
100
AcDbBlockTableRecord
  2
block 12
340
0
102
{BLKREFS
331
E0
102
}
 70
     0
280
     1
281
     0
  0
BLOCK_RECORD
  5
EA
330
1
100
AcDbSymbolTableRecord
100
AcDbBlockTableRecord
  2
block 13
340
0
102
{BLKREFS
331
EB
102
}
 70
     0
280
     1
281
     0
  0
BLOCK_RECORD
  5
F5
330
1
100
AcDbSymbolTableRecord
100
AcDbBlockTableRecord
  2
block 14
340
0
102
{BLKREFS
331
F6
102
}
 70
     0
280
     1
281
     0
  0
BLOCK_RECORD
  5
100
330
1
100
AcDbSymbolTableRecord
100
AcDbBlockTableRecord
  2
block 15
340
0
102
{BLKREFS
331
101
102
}
 70
     0
280
     1
281
     0
  0
BLOCK_RECORD
  5
10B
330
1
100
AcDbSymbolTableRecord
100
AcDbBlockTableRecord
  2
block 16
340
0
102
{BLKREFS
331
10C
102
}
 70
     0
280
     1
281
     0
  0
BLOCK_RECORD
  5
116
330
1
100
AcDbSymbolTableRecord
100
AcDbBlockTableRecord
  2
block 17
340
0
102
{BLKREFS
331
117
102
}
 70
     0
280
     1
281
     0
  0
BLOCK_RECORD
  5
121
330
1
100
AcDbSymbolTableRecord
100
AcDbBlockTableRecord
  2
block 18
340
0
102
{BLKREFS
331
122
102
}
 70
     0
280
     1
281
     0
  0
BLOCK_RECORD
  5
12C
330
1
100
AcDbSymbolTableRecord
100
AcDbBlockTableRecord
  2
block 19
340
0
102
{BLKREFS
331
12D
102
}
 70
     0
280
     1
281
     0
  0
BLOCK_RECORD
  5
187
330
1
100
AcDbSymbolTableRecord
100
AcDbBlockTableRecord
  2
block 20
340
0
102
{BLKREFS
331
188
102
}
 70
     0
280
     1
281
     0
  0
BLOCK_RECORD
  5
192
330
1
100
AcDbSymbolTableRecord
100
AcDbBlockTableRecord
  2
block 21
340
0
102
{BLKREFS
331
193
102
}
 70
     0
280
     1
281
     0
  0
BLOCK_RECORD
  5
19D
330
1
100
AcDbSymbolTableRecord
100
AcDbBlockTableRecord
  2
block 22
340
0
102
{BLKREFS
331
19E
102
}
 70
     0
280
     1
281
     0
  0
BLOCK_RECORD
  5
1A8
330
1
100
AcDbSymbolTableRecord
100
AcDbBlockTableRecord
  2
block 23
340
0
102
{BLKREFS
331
1A9
102
}
 70
     0
280
     1
281
     0
  0
BLOCK_RECORD
  5
1B3
330
1
100
AcDbSymbolTableRecord
100
AcDbBlockTableRecord
  2
block 24
340
0
102
{BLKREFS
331
1B4
102
}
 70
     0
280
     1
281
     0
  0
BLOCK_RECORD
  5
1CF
330
1
100
AcDbSymbolTableRecord
100
AcDbBlockTableRecord
  2
block 25
340
0
102
{BLKREFS
331
1D0
102
}
 70
     0
280
     1
281
     0
  0
ENDTAB
  0
ENDSEC
  0
SECTION
  2
BLOCKS
  0
BLOCK
  5
20
330
1F
100
AcDbEntity
  8
0
100
AcDbBlockBegin
  2
*Model_Space
 70
     0
 10
0.0
 20
0.0
 30
0.0
  3
*Model_Space
  1

  0
ENDBLK
  5
21
330
1F
100
AcDbEntity
  8
0
100
AcDbBlockEnd
  0
BLOCK
  5
1C
330
1B
100
AcDbEntity
 67
     1
  8
0
100
AcDbBlockBegin
  2
*Paper_Space
 70
     0
 10
0.0
 20
0.0
 30
0.0
  3
*Paper_Space
  1

  0
ENDBLK
  5
1D
330
1B
100
AcDbEntity
 67
     1
  8
0
100
AcDbBlockEnd
  0
BLOCK
  5
24
330
23
100
AcDbEntity
  8
0
100
AcDbBlockBegin
  2
*Paper_Space0
 70
     0
 10
0.0
 20
0.0
 30
0.0
  3
*Paper_Space0
  1

  0
ENDBLK
  5
25
330
23
100
AcDbEntity
  8
0
100
AcDbBlockEnd
  0
BLOCK
  5
43
330
41
100
AcDbEntity
  8
0
100
AcDbBlockBegin
  2
block 2
 70
     0
 10
0.0
 20
0.0
 30
0.0
  3
block 2
  1

  0
POLYLINE
  5
45
330
41
100
AcDbEntity
  8
Layer 1
 62
     7
420
 16777215
370
    25
100
AcDb2dPolyline
 66
     1
 10
0.0
 20
0.0
 30
0.0
  0
VERTEX
  5
46
330
45
100
AcDbEntity
  8
Layer 1
 62
     7
420
 16777215
370
    25
100
AcDbVertex
100
AcDb2dVertex
 10
30.4444444468275
 20
-1.803891034855585
 30
0.0
  0
VERTEX
  5
47
330
45
100
AcDbEntity
  8
Layer 1
 62
     7
420
 16777215
370
    25
100
AcDbVertex
100
AcDb2dVertex
 10
30.5694444468275
 20
-1.80389103487241
 30
0.0
  0
VERTEX
  5
48
330
45
100
AcDbEntity
  8
Layer 1
 62
     7
420
 16777215
370
    25
100
AcDbVertex
100
AcDb2dVertex
 10
30.56944444706078
 20
-0.0717410348724141
 30
0.0
  0
VERTEX
  5
49
330
45
100
AcDbEntity
  8
Layer 1
 62
     7
420
 16777215
370
    25
100
AcDbVertex
100
AcDb2dVertex
 10
0.0694444470607828
 20
-0.0717410307643781
 30
0.0
  0
VERTEX
  5
4A
330
45
100
AcDbEntity
  8
Layer 1
 62
     7
420
 16777215
370
    25
100
AcDbVertex
100
AcDb2dVertex
 10
0.0694444468274974
 20
-1.803891030764374
 30
0.0
  0
VERTEX
  5
4B
330
45
100
AcDbEntity
  8
Layer 1
 62
     7
420
 16777215
370
    25
100
AcDbVertex
100
AcDb2dVertex
 10
0.1944444468274974
 20
-1.8038910307812
 30
0.0
  0
VERTEX
  5
4C
330
45
100
AcDbEntity
  8
Layer 1
 62
     7
420
 16777215
370
    25
100
AcDbVertex
100
AcDb2dVertex
 10
0.1944444465941867
 20
-3.536051030781196
 30
0.0
  0
VERTEX
  5
4D
330
45
100
AcDbEntity
  8
Layer 1
 62
     7
420
 16777215
370
    25
100
AcDbVertex
100
AcDb2dVertex
 10
0.0694444465941867
 20
-3.536051030764371
 30
0.0
  0
VERTEX
  5
4E
330
45
100
AcDbEntity
  8
Layer 1
 62
     7
420
 16777215
370
    25
100
AcDbVertex
100
AcDb2dVertex
 10
0.0694444463608635
 20
-5.268201030764367
 30
0.0
  0
VERTEX
  5
4F
330
45
100
AcDbEntity
  8
Layer 1
 62
     7
420
 16777215
370
    25
100
AcDbVertex
100
AcDb2dVertex
 10
0.1944444463608634
 20
-5.268201030781205
 30
0.0
  0
VERTEX
  5
50
330
45
100
AcDbEntity
  8
Layer 1
 62
     7
420
 16777215
370
    25
100
AcDbVertex
100
AcDb2dVertex
 10
0.1944444461275781
 20
-7.000281030781202
 30
0.0
  0
VERTEX
  5
51
330
45
100
AcDbEntity
  8
Layer 1
 62
     7
420
 16777215
370
    25
100
AcDbVertex
100
AcDb2dVertex
 10
0.0694444461275781
 20
-7.000281030764363
 30
0.0
  0
VERTEX
  5
52
330
45
100
AcDbEntity
  8
Layer 1
 62
     7
420
 16777215
370
    25
100
AcDbVertex
100
AcDb2dVertex
 10
0.06944444589428
 20
-8.73243103076436
 30
0.0
  0
VERTEX
  5
53
330
45
100
AcDbEntity
  8
Layer 1
 62
     7
420
 16777215
370
    25
100
AcDbVertex
100
AcDb2dVertex
 10
0.19444444589428
 20
-8.732431030781198
 30
0.0
  0
VERTEX
  5
54
330
45
100
AcDbEntity
  8
Layer 1
 62
     7
420
 16777215
370
    25
100
AcDbVertex
100
AcDb2dVertex
 10
0.1944444456609946
 20
-10.46454103078121
 30
0.0
  0
VERTEX
  5
55
330
45
100
AcDbEntity
  8
Layer 1
 62
     7
420
 16777215
370
    25
100
AcDbVertex
100
AcDb2dVertex
 10
0.0694444456609947
 20
-10.46454103076436
 30
0.0
  0
VERTEX
  5
56
330
45
100
AcDbEntity
  8
Layer 1
 62
     7
420
 16777215
370
    25
100
AcDbVertex
100
AcDb2dVertex
 10
0.0694444454445097
 20
-12.07174103076436
 30
0.0
  0
VERTEX
  5
57
330
45
100
AcDbEntity
  8
Layer 1
 62
     7
420
 16777215
370
    25
100
AcDbVertex
100
AcDb2dVertex
 10
2.415444445444513
 20
-12.07174103108034
 30
0.0
  0
VERTEX
  5
58
330
45
100
AcDbEntity
  8
Layer 1
 62
     7
420
 16777215
370
    25
100
AcDbVertex
100
AcDb2dVertex
 10
2.415444445427675
 20
-12.19674103108034
 30
0.0
  0
VERTEX
  5
59
330
45
100
AcDbEntity
  8
Layer 1
 62
     7
420
 16777215
370
    25
100
AcDbVertex
100
AcDb2dVertex
 10
4.761444445427653
 20
-12.19674103139631
 30
0.0
  0
VERTEX
  5
5A
330
45
100
AcDbEntity
  8
Layer 1
 62
     7
420
 16777215
370
    25
100
AcDbVertex
100
AcDb2dVertex
 10
4.761444445444491
 20
-12.07174103139631
 30
0.0
  0
VERTEX
  5
5B
330
45
100
AcDbEntity
  8
Layer 1
 62
     7
420
 16777215
370
    25
100
AcDbVertex
100
AcDb2dVertex
 10
7.108444445444497
 20
-12.07174103171244
 30
0.0
  0
VERTEX
  5
5C
330
45
100
AcDbEntity
  8
Layer 1
 62
     7
420
 16777215
370
    25
100
AcDbVertex
100
AcDb2dVertex
 10
7.108444445427658
 20
-12.19674103171244
 30
0.0
  0
VERTEX
  5
5D
330
45
100
AcDbEntity
  8
Layer 1
 62
     7
420
 16777215
370
    25
100
AcDbVertex
100
AcDb2dVertex
 10
9.454444445427686
 20
-12.19674103202841
 30
0.0
  0
VERTEX
  5
5E
330
45
100
AcDbEntity
  8
Layer 1
 62
     7
420
 16777215
370
    25
100
AcDbVertex
100
AcDb2dVertex
 10
9.454444445444524
 20
-12.07174103202841
 30
0.0
  0
VERTEX
  5
5F
330
45
100
AcDbEntity
  8
Layer 1
 62
     7
420
 16777215
370
    25
100
AcDbVertex
100
AcDb2dVertex
 10
11.80044444544453
 20
-12.07174103234441
 30
0.0
  0
VERTEX
  5
60
330
45
100
AcDbEntity
  8
Layer 1
 62
     7
420
 16777215
370
    25
100
AcDbVertex
100
AcDb2dVertex
 10
11.80044444542769
 20
-12.19674103234441
 30
0.0
  0
VERTEX
  5
61
330
45
100
AcDbEntity
  8
Layer 1
 62
     7
420
 16777215
370
    25
100
AcDbVertex
100
AcDb2dVertex
 10
14.14544444542769
 20
-12.19674103266026
 30
0.0
  0
VERTEX
  5
62
330
45
100
AcDbEntity
  8
Layer 1
 62
     7
420
 16777215
370
    25
100
AcDbVertex
100
AcDb2dVertex
 10
14.14544444544453
 20
-12.07174103266026
 30
0.0
  0
VERTEX
  5
63
330
45
100
AcDbEntity
  8
Layer 1
 62
     7
420
 16777215
370
    25
100
AcDbVertex
100
AcDb2dVertex
 10
16.49344444544451
 20
-12.07174103297651
 30
0.0
  0
VERTEX
  5
64
330
45
100
AcDbEntity
  8
Layer 1
 62
     7
420
 16777215
370
    25
100
AcDbVertex
100
AcDb2dVertex
 10
16.4934444454277
 20
-12.19674103297651
 30
0.0
  0
VERTEX
  5
65
330
45
100
AcDbEntity
  8
Layer 1
 62
     7
420
 16777215
370
    25
100
AcDbVertex
100
AcDb2dVertex
 10
18.83844444542769
 20
-12.19674103329236
 30
0.0
  0
VERTEX
  5
66
330
45
100
AcDbEntity
  8
Layer 1
 62
     7
420
 16777215
370
    25
100
AcDbVertex
100
AcDb2dVertex
 10
18.83844444544454
 20
-12.07174103329236
 30
0.0
  0
VERTEX
  5
67
330
45
100
AcDbEntity
  8
Layer 1
 62
     7
420
 16777215
370
    25
100
AcDbVertex
100
AcDb2dVertex
 10
21.18444444544454
 20
-12.07174103360833
 30
0.0
  0
VERTEX
  5
68
330
45
100
AcDbEntity
  8
Layer 1
 62
     7
420
 16777215
370
    25
100
AcDbVertex
100
AcDb2dVertex
 10
21.18444444542769
 20
-12.19674103360833
 30
0.0
  0
VERTEX
  5
69
330
45
100
AcDbEntity
  8
Layer 1
 62
     7
420
 16777215
370
    25
100
AcDbVertex
100
AcDb2dVertex
 10
23.53044444542772
 20
-12.1967410339243
 30
0.0
  0
VERTEX
  5
6A
330
45
100
AcDbEntity
  8
Layer 1
 62
     7
420
 16777215
370
    25
100
AcDbVertex
100
AcDb2dVertex
 10
23.53044444544455
 20
-12.0717410339243
 30
0.0
  0
VERTEX
  5
6B
330
45
100
AcDbEntity
  8
Layer 1
 62
     7
420
 16777215
370
    25
100
AcDbVertex
100
AcDb2dVertex
 10
25.87744444544455
 20
-12.07174103424043
 30
0.0
  0
VERTEX
  5
6C
330
45
100
AcDbEntity
  8
Layer 1
 62
     7
420
 16777215
370
    25
100
AcDbVertex
100
AcDb2dVertex
 10
25.87744444542773
 20
-12.19674103424043
 30
0.0
  0
VERTEX
  5
6D
330
45
100
AcDbEntity
  8
Layer 1
 62
     7
420
 16777215
370
    25
100
AcDbVertex
100
AcDb2dVertex
 10
28.22344444542768
 20
-12.1967410345564
 30
0.0
  0
VERTEX
  5
6E
330
45
100
AcDbEntity
  8
Layer 1
 62
     7
420
 16777215
370
    25
100
AcDbVertex
100
AcDb2dVertex
 10
28.2234444454445
 20
-12.0717410345564
 30
0.0
  0
VERTEX
  5
6F
330
45
100
AcDbEntity
  8
Layer 1
 62
     7
420
 16777215
370
    25
100
AcDbVertex
100
AcDb2dVertex
 10
30.56944444544451
 20
-12.0717410348724
 30
0.0
  0
VERTEX
  5
70
330
45
100
AcDbEntity
  8
Layer 1
 62
     7
420
 16777215
370
    25
100
AcDbVertex
100
AcDb2dVertex
 10
30.56944444566102
 20
-10.4645410348724
 30
0.0
  0
VERTEX
  5
71
330
45
100
AcDbEntity
  8
Layer 1
 62
     7
420
 16777215
370
    25
100
AcDbVertex
100
AcDb2dVertex
 10
30.44444444566102
 20
-10.46454103485557
 30
0.0
  0
VERTEX
  5
72
330
45
100
AcDbEntity
  8
Layer 1
 62
     7
420
 16777215
370
    25
100
AcDbVertex
100
AcDb2dVertex
 10
30.44444444589431
 20
-8.73243103485557
 30
0.0
  0
VERTEX
  5
73
330
45
100
AcDbEntity
  8
Layer 1
 62
     7
420
 16777215
370
    25
100
AcDbVertex
100
AcDb2dVertex
 10
30.56944444589431
 20
-8.732431034872395
 30
0.0
  0
VERTEX
  5
74
330
45
100
AcDbEntity
  8
Layer 1
 62
     7
420
 16777215
370
    25
100
AcDbVertex
100
AcDb2dVertex
 10
30.56944444612759
 20
-7.000281034872399
 30
0.0
  0
VERTEX
  5
75
330
45
100
AcDbEntity
  8
Layer 1
 62
     7
420
 16777215
370
    25
100
AcDbVertex
100
AcDb2dVertex
 10
30.44444444612759
 20
-7.000281034855574
 30
0.0
  0
VERTEX
  5
76
330
45
100
AcDbEntity
  8
Layer 1
 62
     7
420
 16777215
370
    25
100
AcDbVertex
100
AcDb2dVertex
 10
30.44444444636088
 20
-5.268201034855577
 30
0.0
  0
VERTEX
  5
77
330
45
100
AcDbEntity
  8
Layer 1
 62
     7
420
 16777215
370
    25
100
AcDbVertex
100
AcDb2dVertex
 10
30.56944444636088
 20
-5.268201034872403
 30
0.0
  0
VERTEX
  5
78
330
45
100
AcDbEntity
  8
Layer 1
 62
     7
420
 16777215
370
    25
100
AcDbVertex
100
AcDb2dVertex
 10
30.56944444659416
 20
-3.536051034872407
 30
0.0
  0
VERTEX
  5
79
330
45
100
AcDbEntity
  8
Layer 1
 62
     7
420
 16777215
370
    25
100
AcDbVertex
100
AcDb2dVertex
 10
30.44444444659416
 20
-3.536051034855581
 30
0.0
  0
VERTEX
  5
7A
330
45
100
AcDbEntity
  8
Layer 1
 62
     7
420
 16777215
370
    25
100
AcDbVertex
100
AcDb2dVertex
 10
30.4444444468275
 20
-1.803891034855585
 30
0.0
  0
SEQEND
  5
7B
330
45
100
AcDbEntity
  8
Layer 1
 62
     7
420
 16777215
370
    25
  0
ENDBLK
  5
44
330
41
100
AcDbEntity
  8
0
100
AcDbBlockEnd
  0
BLOCK
  5
7E
330
7C
100
AcDbEntity
  8
0
100
AcDbBlockBegin
  2
block 3
 70
     0
 10
0.0
 20
0.0
 30
0.0
  3
block 3
  1

  0
POLYLINE
  5
80
330
7C
100
AcDbEntity
  8
Layer 1
 62
     7
420
 16777215
370
    25
100
AcDb2dPolyline
 66
     1
 10
0.0
 20
0.0
 30
0.0
  0
VERTEX
  5
81
330
80
100
AcDbEntity
  8
Layer 1
 62
     7
420
 16777215
370
    25
100
AcDbVertex
100
AcDb2dVertex
 10
20.28744444679144
 20
-2.071741033487531
 30
0.0
  0
VERTEX
  5
82
330
80
100
AcDbEntity
  8
Layer 1
 62
     7
420
 16777215
370
    25
100
AcDbVertex
100
AcDb2dVertex
 10
20.28744444662309
 20
-3.321741033487531
 30
0.0
  0
VERTEX
  5
83
330
80
100
AcDbEntity
  8
Layer 1
 62
     7
420
 16777215
370
    25
100
AcDbVertex
100
AcDb2dVertex
 10
20.16244444662309
 20
-3.321741033470706
 30
0.0
  0
VERTEX
  5
84
330
80
100
AcDbEntity
  8
Layer 1
 62
     7
420
 16777215
370
    25
100
AcDbVertex
100
AcDb2dVertex
 10
20.16244444679144
 20
-2.071741033470706
 30
0.0
  0
VERTEX
  5
85
330
80
100
AcDbEntity
  8
Layer 1
 62
     7
420
 16777215
370
    25
100
AcDbVertex
100
AcDb2dVertex
 10
20.28744444679144
 20
-2.071741033487531
 30
0.0
  0
SEQEND
  5
86
330
80
100
AcDbEntity
  8
Layer 1
 62
     7
420
 16777215
370
    25
  0
ENDBLK
  5
7F
330
7C
100
AcDbEntity
  8
0
100
AcDbBlockEnd
  0
BLOCK
  5
89
330
87
100
AcDbEntity
  8
0
100
AcDbBlockBegin
  2
block 4
 70
     0
 10
0.0
 20
0.0
 30
0.0
  3
block 4
  1

  0
POLYLINE
  5
8B
330
87
100
AcDbEntity
  8
Layer 1
 62
     7
420
 16777215
370
    25
100
AcDb2dPolyline
 66
     1
 10
0.0
 20
0.0
 30
0.0
  0
VERTEX
  5
8C
330
8B
100
AcDbEntity
  8
Layer 1
 62
     7
420
 16777215
370
    25
100
AcDbVertex
100
AcDb2dVertex
 10
20.60044444634887
 20
-5.357431033529679
 30
0.0
  0
VERTEX
  5
8D
330
8B
100
AcDbEntity
  8
Layer 1
 62
     7
420
 16777215
370
    25
100
AcDbVertex
100
AcDb2dVertex
 10
20.60044444619492
 20
-6.500281033529681
 30
0.0
  0
VERTEX
  5
8E
330
8B
100
AcDbEntity
  8
Layer 1
 62
     7
420
 16777215
370
    25
100
AcDbVertex
100
AcDb2dVertex
 10
20.47544444619492
 20
-6.500281033512856
 30
0.0
  0
VERTEX
  5
8F
330
8B
100
AcDbEntity
  8
Layer 1
 62
     7
420
 16777215
370
    25
100
AcDbVertex
100
AcDb2dVertex
 10
20.47544444634887
 20
-5.357431033512853
 30
0.0
  0
VERTEX
  5
90
330
8B
100
AcDbEntity
  8
Layer 1
 62
     7
420
 16777215
370
    25
100
AcDbVertex
100
AcDb2dVertex
 10
20.60044444634887
 20
-5.357431033529679
 30
0.0
  0
SEQEND
  5
91
330
8B
100
AcDbEntity
  8
Layer 1
 62
     7
420
 16777215
370
    25
  0
ENDBLK
  5
8A
330
87
100
AcDbEntity
  8
0
100
AcDbBlockEnd
  0
BLOCK
  5
94
330
92
100
AcDbEntity
  8
0
100
AcDbBlockBegin
  2
block 5
 70
     0
 10
0.0
 20
0.0
 30
0.0
  3
block 5
  1

  0
POLYLINE
  5
96
330
92
100
AcDbEntity
  8
Layer 1
 62
     7
420
 16777215
370
    25
100
AcDb2dPolyline
 66
     1
 10
0.0
 20
0.0
 30
0.0
  0
VERTEX
  5
97
330
96
100
AcDbEntity
  8
Layer 1
 62
     7
420
 16777215
370
    25
100
AcDbVertex
100
AcDb2dVertex
 10
20.60044444604099
 20
-7.643201033529685
 30
0.0
  0
VERTEX
  5
98
330
96
100
AcDbEntity
  8
Layer 1
 62
     7
420
 16777215
370
    25
100
AcDbVertex
100
AcDb2dVertex
 10
20.60044444588705
 20
-8.78605103352969
 30
0.0
  0
VERTEX
  5
99
330
96
100
AcDbEntity
  8
Layer 1
 62
     7
420
 16777215
370
    25
100
AcDbVertex
100
AcDb2dVertex
 10
20.47544444588705
 20
-8.786051033512864
 30
0.0
  0
VERTEX
  5
9A
330
96
100
AcDbEntity
  8
Layer 1
 62
     7
420
 16777215
370
    25
100
AcDbVertex
100
AcDb2dVertex
 10
20.47544444604099
 20
-7.64320103351286
 30
0.0
  0
VERTEX
  5
9B
330
96
100
AcDbEntity
  8
Layer 1
 62
     7
420
 16777215
370
    25
100
AcDbVertex
100
AcDb2dVertex
 10
20.60044444604099
 20
-7.643201033529685
 30
0.0
  0
SEQEND
  5
9C
330
96
100
AcDbEntity
  8
Layer 1
 62
     7
420
 16777215
370
    25
  0
ENDBLK
  5
95
330
92
100
AcDbEntity
  8
0
100
AcDbBlockEnd
  0
BLOCK
  5
9F
330
9D
100
AcDbEntity
  8
0
100
AcDbBlockBegin
  2
block 6
 70
     0
 10
0.0
 20
0.0
 30
0.0
  3
block 6
  1

  0
POLYLINE
  5
A1
330
9D
100
AcDbEntity
  8
Layer 1
 62
     7
420
 16777215
370
    25
100
AcDb2dPolyline
 66
     1
 10
0.0
 20
0.0
 30
0.0
  0
VERTEX
  5
A2
330
A1
100
AcDbEntity
  8
Layer 1
 62
     7
420
 16777215
370
    25
100
AcDbVertex
100
AcDb2dVertex
 10
20.60044444573315
 20
-9.92889103352968
 30
0.0
  0
VERTEX
  5
A3
330
A1
100
AcDbEntity
  8
Layer 1
 62
     7
420
 16777215
370
    25
100
AcDbVertex
100
AcDb2dVertex
 10
20.60044444557919
 20
-11.07174103352968
 30
0.0
  0
VERTEX
  5
A4
330
A1
100
AcDbEntity
  8
Layer 1
 62
     7
420
 16777215
370
    25
100
AcDbVertex
100
AcDb2dVertex
 10
20.47544444557919
 20
-11.07174103351286
 30
0.0
  0
VERTEX
  5
A5
330
A1
100
AcDbEntity
  8
Layer 1
 62
     7
420
 16777215
370
    25
100
AcDbVertex
100
AcDb2dVertex
 10
20.47544444573315
 20
-9.928891033512855
 30
0.0
  0
VERTEX
  5
A6
330
A1
100
AcDbEntity
  8
Layer 1
 62
     7
420
 16777215
370
    25
100
AcDbVertex
100
AcDb2dVertex
 10
20.60044444573315
 20
-9.92889103352968
 30
0.0
  0
SEQEND
  5
A7
330
A1
100
AcDbEntity
  8
Layer 1
 62
     7
420
 16777215
370
    25
  0
ENDBLK
  5
A0
330
9D
100
AcDbEntity
  8
0
100
AcDbBlockEnd
  0
BLOCK
  5
AA
330
A8
100
AcDbEntity
  8
0
100
AcDbBlockBegin
  2
block 7
 70
     0
 10
0.0
 20
0.0
 30
0.0
  3
block 7
  1

  0
POLYLINE
  5
AC
330
A8
100
AcDbEntity
  8
Layer 1
 62
     7
420
 16777215
370
    25
100
AcDb2dPolyline
 66
     1
 10
0.0
 20
0.0
 30
0.0
  0
VERTEX
  5
AD
330
AC
100
AcDbEntity
  8
Layer 1
 62
     7
420
 16777215
370
    25
100
AcDbVertex
100
AcDb2dVertex
 10
10.47544444611796
 20
-7.071741032165947
 30
0.0
  0
VERTEX
  5
AE
330
AC
100
AcDbEntity
  8
Layer 1
 62
     7
420
 16777215
370
    25
100
AcDbVertex
100
AcDb2dVertex
 10
10.47544444594959
 20
-8.321741032165948
 30
0.0
  0
VERTEX
  5
AF
330
AC
100
AcDbEntity
  8
Layer 1
 62
     7
420
 16777215
370
    25
100
AcDbVertex
100
AcDb2dVertex
 10
10.35044444594959
 20
-8.32174103214911
 30
0.0
  0
VERTEX
  5
B0
330
AC
100
AcDbEntity
  8
Layer 1
 62
     7
420
 16777215
370
    25
100
AcDbVertex
100
AcDb2dVertex
 10
10.35044444611796
 20
-7.071741032149109
 30
0.0
  0
VERTEX
  5
B1
330
AC
100
AcDbEntity
  8
Layer 1
 62
     7
420
 16777215
370
    25
100
AcDbVertex
100
AcDb2dVertex
 10
10.47544444611796
 20
-7.071741032165947
 30
0.0
  0
SEQEND
  5
B2
330
AC
100
AcDbEntity
  8
Layer 1
 62
     7
420
 16777215
370
    25
  0
ENDBLK
  5
AB
330
A8
100
AcDbEntity
  8
0
100
AcDbBlockEnd
  0
BLOCK
  5
B5
330
B3
100
AcDbEntity
  8
0
100
AcDbBlockBegin
  2
block 8
 70
     0
 10
0.0
 20
0.0
 30
0.0
  3
block 8
  1

  0
POLYLINE
  5
B7
330
B3
100
AcDbEntity
  8
Layer 1
 62
     7
420
 16777215
370
    25
100
AcDb2dPolyline
 66
     1
 10
0.0
 20
0.0
 30
0.0
  0
VERTEX
  5
B8
330
B7
100
AcDbEntity
  8
Layer 1
 62
     7
420
 16777215
370
    25
100
AcDbVertex
100
AcDb2dVertex
 10
10.47544444645468
 20
-4.57174103216596
 30
0.0
  0
VERTEX
  5
B9
330
B7
100
AcDbEntity
  8
Layer 1
 62
     7
420
 16777215
370
    25
100
AcDbVertex
100
AcDb2dVertex
 10
10.47544444628632
 20
-5.821741032165947
 30
0.0
  0
VERTEX
  5
BA
330
B7
100
AcDbEntity
  8
Layer 1
 62
     7
420
 16777215
370
    25
100
AcDbVertex
100
AcDb2dVertex
 10
10.35044444628632
 20
-5.821741032149109
 30
0.0
  0
VERTEX
  5
BB
330
B7
100
AcDbEntity
  8
Layer 1
 62
     7
420
 16777215
370
    25
100
AcDbVertex
100
AcDb2dVertex
 10
10.35044444645468
 20
-4.571741032149109
 30
0.0
  0
VERTEX
  5
BC
330
B7
100
AcDbEntity
  8
Layer 1
 62
     7
420
 16777215
370
    25
100
AcDbVertex
100
AcDb2dVertex
 10
10.47544444645468
 20
-4.57174103216596
 30
0.0
  0
SEQEND
  5
BD
330
B7
100
AcDbEntity
  8
Layer 1
 62
     7
420
 16777215
370
    25
  0
ENDBLK
  5
B6
330
B3
100
AcDbEntity
  8
0
100
AcDbBlockEnd
  0
BLOCK
  5
C0
330
BE
100
AcDbEntity
  8
0
100
AcDbBlockBegin
  2
block 9
 70
     0
 10
0.0
 20
0.0
 30
0.0
  3
block 9
  1

  0
POLYLINE
  5
C2
330
BE
100
AcDbEntity
  8
Layer 1
 62
     7
420
 16777215
370
    25
100
AcDb2dPolyline
 66
     1
 10
0.0
 20
0.0
 30
0.0
  0
VERTEX
  5
C3
330
C2
100
AcDbEntity
  8
Layer 1
 62
     7
420
 16777215
370
    25
100
AcDbVertex
100
AcDb2dVertex
 10
10.16244444665676
 20
-3.071741032123795
 30
0.0
  0
VERTEX
  5
C4
330
C2
100
AcDbEntity
  8
Layer 1
 62
     7
420
 16777215
370
    25
100
AcDbVertex
100
AcDb2dVertex
 10
10.16244444650284
 20
-4.214591032123773
 30
0.0
  0
VERTEX
  5
C5
330
C2
100
AcDbEntity
  8
Layer 1
 62
     7
420
 16777215
370
    25
100
AcDbVertex
100
AcDb2dVertex
 10
10.03744444650284
 20
-4.214591032106947
 30
0.0
  0
VERTEX
  5
C6
330
C2
100
AcDbEntity
  8
Layer 1
 62
     7
420
 16777215
370
    25
100
AcDbVertex
100
AcDb2dVertex
 10
10.03744444665676
 20
-3.071741032106969
 30
0.0
  0
VERTEX
  5
C7
330
C2
100
AcDbEntity
  8
Layer 1
 62
     7
420
 16777215
370
    25
100
AcDbVertex
100
AcDb2dVertex
 10
10.16244444665676
 20
-3.071741032123795
 30
0.0
  0
SEQEND
  5
C8
330
C2
100
AcDbEntity
  8
Layer 1
 62
     7
420
 16777215
370
    25
  0
ENDBLK
  5
C1
330
BE
100
AcDbEntity
  8
0
100
AcDbBlockEnd
  0
BLOCK
  5
CB
330
C9
100
AcDbEntity
  8
0
100
AcDbBlockBegin
  2
block 10
 70
     0
 10
0.0
 20
0.0
 30
0.0
  3
block 10
  1

  0
POLYLINE
  5
CD
330
C9
100
AcDbEntity
  8
Layer 1
 62
     7
420
 16777215
370
    25
100
AcDb2dPolyline
 66
     1
 10
0.0
 20
0.0
 30
0.0
  0
VERTEX
  5
CE
330
CD
100
AcDbEntity
  8
Layer 1
 62
     7
420
 16777215
370
    25
100
AcDbVertex
100
AcDb2dVertex
 10
10.47544444578124
 20
-9.571741032165948
 30
0.0
  0
VERTEX
  5
CF
330
CD
100
AcDbEntity
  8
Layer 1
 62
     7
420
 16777215
370
    25
100
AcDbVertex
100
AcDb2dVertex
 10
10.47544444561288
 20
-10.82174103216595
 30
0.0
  0
VERTEX
  5
D0
330
CD
100
AcDbEntity
  8
Layer 1
 62
     7
420
 16777215
370
    25
100
AcDbVertex
100
AcDb2dVertex
 10
10.35044444561288
 20
-10.82174103214911
 30
0.0
  0
VERTEX
  5
D1
330
CD
100
AcDbEntity
  8
Layer 1
 62
     7
420
 16777215
370
    25
100
AcDbVertex
100
AcDb2dVertex
 10
10.35044444578124
 20
-9.571741032149108
 30
0.0
  0
VERTEX
  5
D2
330
CD
100
AcDbEntity
  8
Layer 1
 62
     7
420
 16777215
370
    25
100
AcDbVertex
100
AcDb2dVertex
 10
10.47544444578124
 20
-9.571741032165948
 30
0.0
  0
SEQEND
  5
D3
330
CD
100
AcDbEntity
  8
Layer 1
 62
     7
420
 16777215
370
    25
  0
ENDBLK
  5
CC
330
C9
100
AcDbEntity
  8
0
100
AcDbBlockEnd
  0
BLOCK
  5
D6
330
D4
100
AcDbEntity
  8
0
100
AcDbBlockBegin
  2
block 11
 70
     0
 10
0.0
 20
0.0
 30
0.0
  3
block 11
  1

  0
POLYLINE
  5
D8
330
D4
100
AcDbEntity
  8
Layer 1
 62
     7
420
 16777215
370
    25
100
AcDb2dPolyline
 66
     1
 10
0.0
 20
0.0
 30
0.0
  0
VERTEX
  5
D9
330
D8
100
AcDbEntity
  8
Layer 1
 62
     7
420
 16777215
370
    25
100
AcDbVertex
100
AcDb2dVertex
 10
10.16244444573318
 20
-9.92889103212379
 30
0.0
  0
VERTEX
  5
DA
330
D8
100
AcDbEntity
  8
Layer 1
 62
     7
420
 16777215
370
    25
100
AcDbVertex
100
AcDb2dVertex
 10
10.16244444557925
 20
-11.07174103212379
 30
0.0
  0
VERTEX
  5
DB
330
D8
100
AcDbEntity
  8
Layer 1
 62
     7
420
 16777215
370
    25
100
AcDbVertex
100
AcDb2dVertex
 10
10.03744444557925
 20
-11.07174103210696
 30
0.0
  0
VERTEX
  5
DC
330
D8
100
AcDbEntity
  8
Layer 1
 62
     7
420
 16777215
370
    25
100
AcDbVertex
100
AcDb2dVertex
 10
10.03744444573318
 20
-9.928891032106952
 30
0.0
  0
VERTEX
  5
DD
330
D8
100
AcDbEntity
  8
Layer 1
 62
     7
420
 16777215
370
    25
100
AcDbVertex
100
AcDb2dVertex
 10
10.16244444573318
 20
-9.92889103212379
 30
0.0
  0
SEQEND
  5
DE
330
D8
100
AcDbEntity
  8
Layer 1
 62
     7
420
 16777215
370
    25
  0
ENDBLK
  5
D7
330
D4
100
AcDbEntity
  8
0
100
AcDbBlockEnd
  0
BLOCK
  5
E1
330
DF
100
AcDbEntity
  8
0
100
AcDbBlockBegin
  2
block 12
 70
     0
 10
0.0
 20
0.0
 30
0.0
  3
block 12
  1

  0
POLYLINE
  5
E3
330
DF
100
AcDbEntity
  8
Layer 1
 62
     7
420
 16777215
370
    25
100
AcDb2dPolyline
 66
     1
 10
0.0
 20
0.0
 30
0.0
  0
VERTEX
  5
E4
330
E3
100
AcDbEntity
  8
Layer 1
 62
     7
420
 16777215
370
    25
100
AcDbVertex
100
AcDb2dVertex
 10
10.16244444604104
 20
-7.643201032123796
 30
0.0
  0
VERTEX
  5
E5
330
E3
100
AcDbEntity
  8
Layer 1
 62
     7
420
 16777215
370
    25
100
AcDbVertex
100
AcDb2dVertex
 10
10.16244444588712
 20
-8.7860510321238
 30
0.0
  0
VERTEX
  5
E6
330
E3
100
AcDbEntity
  8
Layer 1
 62
     7
420
 16777215
370
    25
100
AcDbVertex
100
AcDb2dVertex
 10
10.03744444588712
 20
-8.786051032106961
 30
0.0
  0
VERTEX
  5
E7
330
E3
100
AcDbEntity
  8
Layer 1
 62
     7
420
 16777215
370
    25
100
AcDbVertex
100
AcDb2dVertex
 10
10.03744444604104
 20
-7.643201032106958
 30
0.0
  0
VERTEX
  5
E8
330
E3
100
AcDbEntity
  8
Layer 1
 62
     7
420
 16777215
370
    25
100
AcDbVertex
100
AcDb2dVertex
 10
10.16244444604104
 20
-7.643201032123796
 30
0.0
  0
SEQEND
  5
E9
330
E3
100
AcDbEntity
  8
Layer 1
 62
     7
420
 16777215
370
    25
  0
ENDBLK
  5
E2
330
DF
100
AcDbEntity
  8
0
100
AcDbBlockEnd
  0
BLOCK
  5
EC
330
EA
100
AcDbEntity
  8
0
100
AcDbBlockBegin
  2
block 13
 70
     0
 10
0.0
 20
0.0
 30
0.0
  3
block 13
  1

  0
POLYLINE
  5
EE
330
EA
100
AcDbEntity
  8
Layer 1
 62
     7
420
 16777215
370
    25
100
AcDb2dPolyline
 66
     1
 10
0.0
 20
0.0
 30
0.0
  0
VERTEX
  5
EF
330
EE
100
AcDbEntity
  8
Layer 1
 62
     7
420
 16777215
370
    25
100
AcDbVertex
100
AcDb2dVertex
 10
10.16244444634891
 20
-5.357431032123789
 30
0.0
  0
VERTEX
  5
F0
330
EE
100
AcDbEntity
  8
Layer 1
 62
     7
420
 16777215
370
    25
100
AcDbVertex
100
AcDb2dVertex
 10
10.16244444619498
 20
-6.500281032123793
 30
0.0
  0
VERTEX
  5
F1
330
EE
100
AcDbEntity
  8
Layer 1
 62
     7
420
 16777215
370
    25
100
AcDbVertex
100
AcDb2dVertex
 10
10.03744444619498
 20
-6.500281032106955
 30
0.0
  0
VERTEX
  5
F2
330
EE
100
AcDbEntity
  8
Layer 1
 62
     7
420
 16777215
370
    25
100
AcDbVertex
100
AcDb2dVertex
 10
10.03744444634891
 20
-5.357431032106951
 30
0.0
  0
VERTEX
  5
F3
330
EE
100
AcDbEntity
  8
Layer 1
 62
     7
420
 16777215
370
    25
100
AcDbVertex
100
AcDb2dVertex
 10
10.16244444634891
 20
-5.357431032123789
 30
0.0
  0
SEQEND
  5
F4
330
EE
100
AcDbEntity
  8
Layer 1
 62
     7
420
 16777215
370
    25
  0
ENDBLK
  5
ED
330
EA
100
AcDbEntity
  8
0
100
AcDbBlockEnd
  0
BLOCK
  5
F7
330
F5
100
AcDbEntity
  8
0
100
AcDbBlockBegin
  2
block 14
 70
     0
 10
0.0
 20
0.0
 30
0.0
  3
block 14
  1

  0
POLYLINE
  5
F9
330
F5
100
AcDbEntity
  8
Layer 1
 62
     7
420
 16777215
370
    25
100
AcDb2dPolyline
 66
     1
 10
0.0
 20
0.0
 30
0.0
  0
VERTEX
  5
FA
330
F9
100
AcDbEntity
  8
Layer 1
 62
     7
420
 16777215
370
    25
100
AcDbVertex
100
AcDb2dVertex
 10
10.47544444679141
 20
-2.07174103216596
 30
0.0
  0
VERTEX
  5
FB
330
F9
100
AcDbEntity
  8
Layer 1
 62
     7
420
 16777215
370
    25
100
AcDbVertex
100
AcDb2dVertex
 10
10.47544444662304
 20
-3.32174103216596
 30
0.0
  0
VERTEX
  5
FC
330
F9
100
AcDbEntity
  8
Layer 1
 62
     7
420
 16777215
370
    25
100
AcDbVertex
100
AcDb2dVertex
 10
10.35044444662304
 20
-3.321741032149109
 30
0.0
  0
VERTEX
  5
FD
330
F9
100
AcDbEntity
  8
Layer 1
 62
     7
420
 16777215
370
    25
100
AcDbVertex
100
AcDb2dVertex
 10
10.35044444679141
 20
-2.071741032149109
 30
0.0
  0
VERTEX
  5
FE
330
F9
100
AcDbEntity
  8
Layer 1
 62
     7
420
 16777215
370
    25
100
AcDbVertex
100
AcDb2dVertex
 10
10.47544444679141
 20
-2.07174103216596
 30
0.0
  0
SEQEND
  5
FF
330
F9
100
AcDbEntity
  8
Layer 1
 62
     7
420
 16777215
370
    25
  0
ENDBLK
  5
F8
330
F5
100
AcDbEntity
  8
0
100
AcDbBlockEnd
  0
BLOCK
  5
102
330
100
100
AcDbEntity
  8
0
100
AcDbBlockBegin
  2
block 15
 70
     0
 10
0.0
 20
0.0
 30
0.0
  3
block 15
  1

  0
POLYLINE
  5
104
330
100
100
AcDbEntity
  8
Layer 1
 62
     7
420
 16777215
370
    25
100
AcDb2dPolyline
 66
     1
 10
0.0
 20
0.0
 30
0.0
  0
VERTEX
  5
105
330
104
100
AcDbEntity
  8
Layer 1
 62
     7
420
 16777215
370
    25
100
AcDbVertex
100
AcDb2dVertex
 10
20.2874444457813
 20
-9.57174103348753
 30
0.0
  0
VERTEX
  5
106
330
104
100
AcDbEntity
  8
Layer 1
 62
     7
420
 16777215
370
    25
100
AcDbVertex
100
AcDb2dVertex
 10
20.28744444561294
 20
-10.82174103348753
 30
0.0
  0
VERTEX
  5
107
330
104
100
AcDbEntity
  8
Layer 1
 62
     7
420
 16777215
370
    25
100
AcDbVertex
100
AcDb2dVertex
 10
20.16244444561294
 20
-10.82174103347068
 30
0.0
  0
VERTEX
  5
108
330
104
100
AcDbEntity
  8
Layer 1
 62
     7
420
 16777215
370
    25
100
AcDbVertex
100
AcDb2dVertex
 10
20.1624444457813
 20
-9.57174103347068
 30
0.0
  0
VERTEX
  5
109
330
104
100
AcDbEntity
  8
Layer 1
 62
     7
420
 16777215
370
    25
100
AcDbVertex
100
AcDb2dVertex
 10
20.2874444457813
 20
-9.57174103348753
 30
0.0
  0
SEQEND
  5
10A
330
104
100
AcDbEntity
  8
Layer 1
 62
     7
420
 16777215
370
    25
  0
ENDBLK
  5
103
330
100
100
AcDbEntity
  8
0
100
AcDbBlockEnd
  0
BLOCK
  5
10D
330
10B
100
AcDbEntity
  8
0
100
AcDbBlockBegin
  2
block 16
 70
     0
 10
0.0
 20
0.0
 30
0.0
  3
block 16
  1

  0
POLYLINE
  5
10F
330
10B
100
AcDbEntity
  8
Layer 1
 62
     7
420
 16777215
370
    25
100
AcDb2dPolyline
 66
     1
 10
0.0
 20
0.0
 30
0.0
  0
VERTEX
  5
110
330
10F
100
AcDbEntity
  8
Layer 1
 62
     7
420
 16777215
370
    25
100
AcDbVertex
100
AcDb2dVertex
 10
20.60044444665671
 20
-3.071741033529671
 30
0.0
  0
VERTEX
  5
111
330
10F
100
AcDbEntity
  8
Layer 1
 62
     7
420
 16777215
370
    25
100
AcDbVertex
100
AcDb2dVertex
 10
20.60044444650278
 20
-4.2145910335297
 30
0.0
  0
VERTEX
  5
112
330
10F
100
AcDbEntity
  8
Layer 1
 62
     7
420
 16777215
370
    25
100
AcDbVertex
100
AcDb2dVertex
 10
20.47544444650278
 20
-4.214591033512875
 30
0.0
  0
VERTEX
  5
113
330
10F
100
AcDbEntity
  8
Layer 1
 62
     7
420
 16777215
370
    25
100
AcDbVertex
100
AcDb2dVertex
 10
20.47544444665671
 20
-3.071741033512846
 30
0.0
  0
VERTEX
  5
114
330
10F
100
AcDbEntity
  8
Layer 1
 62
     7
420
 16777215
370
    25
100
AcDbVertex
100
AcDb2dVertex
 10
20.60044444665671
 20
-3.071741033529671
 30
0.0
  0
SEQEND
  5
115
330
10F
100
AcDbEntity
  8
Layer 1
 62
     7
420
 16777215
370
    25
  0
ENDBLK
  5
10E
330
10B
100
AcDbEntity
  8
0
100
AcDbBlockEnd
  0
BLOCK
  5
118
330
116
100
AcDbEntity
  8
0
100
AcDbBlockBegin
  2
block 17
 70
     0
 10
0.0
 20
0.0
 30
0.0
  3
block 17
  1

  0
POLYLINE
  5
11A
330
116
100
AcDbEntity
  8
Layer 1
 62
     7
420
 16777215
370
    25
100
AcDb2dPolyline
 66
     1
 10
0.0
 20
0.0
 30
0.0
  0
VERTEX
  5
11B
330
11A
100
AcDbEntity
  8
Layer 1
 62
     7
420
 16777215
370
    25
100
AcDbVertex
100
AcDb2dVertex
 10
20.28744444645473
 20
-4.571741033487531
 30
0.0
  0
VERTEX
  5
11C
330
11A
100
AcDbEntity
  8
Layer 1
 62
     7
420
 16777215
370
    25
100
AcDbVertex
100
AcDb2dVertex
 10
20.28744444628637
 20
-5.821741033487531
 30
0.0
  0
VERTEX
  5
11D
330
11A
100
AcDbEntity
  8
Layer 1
 62
     7
420
 16777215
370
    25
100
AcDbVertex
100
AcDb2dVertex
 10
20.16244444628637
 20
-5.821741033470681
 30
0.0
  0
VERTEX
  5
11E
330
11A
100
AcDbEntity
  8
Layer 1
 62
     7
420
 16777215
370
    25
100
AcDbVertex
100
AcDb2dVertex
 10
20.16244444645473
 20
-4.571741033470706
 30
0.0
  0
VERTEX
  5
11F
330
11A
100
AcDbEntity
  8
Layer 1
 62
     7
420
 16777215
370
    25
100
AcDbVertex
100
AcDb2dVertex
 10
20.28744444645473
 20
-4.571741033487531
 30
0.0
  0
SEQEND
  5
120
330
11A
100
AcDbEntity
  8
Layer 1
 62
     7
420
 16777215
370
    25
  0
ENDBLK
  5
119
330
116
100
AcDbEntity
  8
0
100
AcDbBlockEnd
  0
BLOCK
  5
123
330
121
100
AcDbEntity
  8
0
100
AcDbBlockBegin
  2
block 18
 70
     0
 10
0.0
 20
0.0
 30
0.0
  3
block 18
  1

  0
POLYLINE
  5
125
330
121
100
AcDbEntity
  8
Layer 1
 62
     7
420
 16777215
370
    25
100
AcDb2dPolyline
 66
     1
 10
0.0
 20
0.0
 30
0.0
  0
VERTEX
  5
126
330
125
100
AcDbEntity
  8
Layer 1
 62
     7
420
 16777215
370
    25
100
AcDbVertex
100
AcDb2dVertex
 10
20.28744444611801
 20
-7.071741033487531
 30
0.0
  0
VERTEX
  5
127
330
125
100
AcDbEntity
  8
Layer 1
 62
     7
420
 16777215
370
    25
100
AcDbVertex
100
AcDb2dVertex
 10
20.28744444594966
 20
-8.32174103348753
 30
0.0
  0
VERTEX
  5
128
330
125
100
AcDbEntity
  8
Layer 1
 62
     7
420
 16777215
370
    25
100
AcDbVertex
100
AcDb2dVertex
 10
20.16244444594966
 20
-8.32174103347068
 30
0.0
  0
VERTEX
  5
129
330
125
100
AcDbEntity
  8
Layer 1
 62
     7
420
 16777215
370
    25
100
AcDbVertex
100
AcDb2dVertex
 10
20.16244444611801
 20
-7.07174103347068
 30
0.0
  0
VERTEX
  5
12A
330
125
100
AcDbEntity
  8
Layer 1
 62
     7
420
 16777215
370
    25
100
AcDbVertex
100
AcDb2dVertex
 10
20.28744444611801
 20
-7.071741033487531
 30
0.0
  0
SEQEND
  5
12B
330
125
100
AcDbEntity
  8
Layer 1
 62
     7
420
 16777215
370
    25
  0
ENDBLK
  5
124
330
121
100
AcDbEntity
  8
0
100
AcDbBlockEnd
  0
BLOCK
  5
12E
330
12C
100
AcDbEntity
  8
0
100
AcDbBlockBegin
  2
block 19
 70
     0
 10
0.0
 20
0.0
 30
0.0
  3
block 19
  1

  0
POLYLINE
  5
130
330
12C
100
AcDbEntity
  8
Layer 1
 62
     7
420
 16777215
370
    25
100
AcDb2dPolyline
 66
     1
 10
0.0
 20
0.0
 30
0.0
  0
VERTEX
  5
131
330
130
100
AcDbEntity
  8
Layer 1
 62
     7
420
 16777215
370
    25
100
AcDbVertex
100
AcDb2dVertex
 10
28.22344444542091
 20
-12.24674103455643
 30
0.0
  0
VERTEX
  5
132
330
130
100
AcDbEntity
  8
Layer 1
 62
     7
420
 16777215
370
    25
100
AcDbVertex
100
AcDb2dVertex
 10
28.22344444540408
 20
-12.37174103455643
 30
0.0
  0
VERTEX
  5
133
330
130
100
AcDbEntity
  8
Layer 1
 62
     7
420
 16777215
370
    25
100
AcDbVertex
100
AcDb2dVertex
 10
25.87744444540413
 20
-12.37174103424043
 30
0.0
  0
VERTEX
  5
134
330
130
100
AcDbEntity
  8
Layer 1
 62
     7
420
 16777215
370
    25
100
AcDbVertex
100
AcDb2dVertex
 10
25.87744444542098
 20
-12.24674103424043
 30
0.0
  0
VERTEX
  5
135
330
130
100
AcDbEntity
  8
Layer 1
 62
     7
420
 16777215
370
    25
100
AcDbVertex
100
AcDb2dVertex
 10
23.53044444542098
 20
-12.24674103392433
 30
0.0
  0
VERTEX
  5
136
330
130
100
AcDbEntity
  8
Layer 1
 62
     7
420
 16777215
370
    25
100
AcDbVertex
100
AcDb2dVertex
 10
23.53044444540413
 20
-12.37174103392433
 30
0.0
  0
VERTEX
  5
137
330
130
100
AcDbEntity
  8
Layer 1
 62
     7
420
 16777215
370
    25
100
AcDbVertex
100
AcDb2dVertex
 10
21.18444444540415
 20
-12.37174103360833
 30
0.0
  0
VERTEX
  5
138
330
130
100
AcDbEntity
  8
Layer 1
 62
     7
420
 16777215
370
    25
100
AcDbVertex
100
AcDb2dVertex
 10
21.18444444542097
 20
-12.24674103360833
 30
0.0
  0
VERTEX
  5
139
330
130
100
AcDbEntity
  8
Layer 1
 62
     7
420
 16777215
370
    25
100
AcDbVertex
100
AcDb2dVertex
 10
18.83844444542097
 20
-12.24674103329234
 30
0.0
  0
VERTEX
  5
13A
330
130
100
AcDbEntity
  8
Layer 1
 62
     7
420
 16777215
370
    25
100
AcDbVertex
100
AcDb2dVertex
 10
18.83844444540414
 20
-12.37174103329234
 30
0.0
  0
VERTEX
  5
13B
330
130
100
AcDbEntity
  8
Layer 1
 62
     7
420
 16777215
370
    25
100
AcDbVertex
100
AcDb2dVertex
 10
16.49344444540413
 20
-12.37174103297651
 30
0.0
  0
VERTEX
  5
13C
330
130
100
AcDbEntity
  8
Layer 1
 62
     7
420
 16777215
370
    25
100
AcDbVertex
100
AcDb2dVertex
 10
16.49344444542097
 20
-12.24674103297651
 30
0.0
  0
VERTEX
  5
13D
330
130
100
AcDbEntity
  8
Layer 1
 62
     7
420
 16777215
370
    25
100
AcDbVertex
100
AcDb2dVertex
 10
14.14544444542098
 20
-12.24674103266024
 30
0.0
  0
VERTEX
  5
13E
330
130
100
AcDbEntity
  8
Layer 1
 62
     7
420
 16777215
370
    25
100
AcDbVertex
100
AcDb2dVertex
 10
14.14544444540412
 20
-12.37174103266024
 30
0.0
  0
VERTEX
  5
13F
330
130
100
AcDbEntity
  8
Layer 1
 62
     7
420
 16777215
370
    25
100
AcDbVertex
100
AcDb2dVertex
 10
11.80044444540412
 20
-12.37174103234442
 30
0.0
  0
VERTEX
  5
140
330
130
100
AcDbEntity
  8
Layer 1
 62
     7
420
 16777215
370
    25
100
AcDbVertex
100
AcDb2dVertex
 10
11.80044444542096
 20
-12.24674103234442
 30
0.0
  0
VERTEX
  5
141
330
130
100
AcDbEntity
  8
Layer 1
 62
     7
420
 16777215
370
    25
100
AcDbVertex
100
AcDb2dVertex
 10
9.454444445420954
 20
-12.24674103202844
 30
0.0
  0
VERTEX
  5
142
330
130
100
AcDbEntity
  8
Layer 1
 62
     7
420
 16777215
370
    25
100
AcDbVertex
100
AcDb2dVertex
 10
9.454444445404116
 20
-12.37174103202844
 30
0.0
  0
VERTEX
  5
143
330
130
100
AcDbEntity
  8
Layer 1
 62
     7
420
 16777215
370
    25
100
AcDbVertex
100
AcDb2dVertex
 10
7.108444445404112
 20
-12.37174103171244
 30
0.0
  0
VERTEX
  5
144
330
130
100
AcDbEntity
  8
Layer 1
 62
     7
420
 16777215
370
    25
100
AcDbVertex
100
AcDb2dVertex
 10
7.10844444542095
 20
-12.24674103171244
 30
0.0
  0
VERTEX
  5
145
330
130
100
AcDbEntity
  8
Layer 1
 62
     7
420
 16777215
370
    25
100
AcDbVertex
100
AcDb2dVertex
 10
4.761444445420945
 20
-12.24674103139634
 30
0.0
  0
VERTEX
  5
146
330
130
100
AcDbEntity
  8
Layer 1
 62
     7
420
 16777215
370
    25
100
AcDbVertex
100
AcDb2dVertex
 10
4.761444445404107
 20
-12.37174103139634
 30
0.0
  0
VERTEX
  5
147
330
130
100
AcDbEntity
  8
Layer 1
 62
     7
420
 16777215
370
    25
100
AcDbVertex
100
AcDb2dVertex
 10
2.415444445404104
 20
-12.37174103108034
 30
0.0
  0
VERTEX
  5
148
330
130
100
AcDbEntity
  8
Layer 1
 62
     7
420
 16777215
370
    25
100
AcDbVertex
100
AcDb2dVertex
 10
2.415444445420942
 20
-12.24674103108034
 30
0.0
  0
VERTEX
  5
149
330
130
100
AcDbEntity
  8
Layer 1
 62
     7
420
 16777215
370
    25
100
AcDbVertex
100
AcDb2dVertex
 10
0.0694444454209386
 20
-12.24674103076434
 30
0.0
  0
VERTEX
  5
14A
330
130
100
AcDbEntity
  8
Layer 1
 62
     7
420
 16777215
370
    25
100
AcDbVertex
100
AcDb2dVertex
 10
0.0694444454041003
 20
-12.37174103076434
 30
0.0
  0
VERTEX
  5
14B
330
130
100
AcDbEntity
  8
Layer 1
 62
     7
420
 16777215
370
    25
100
AcDbVertex
100
AcDb2dVertex
 10
0.1944444454041003
 20
-12.3717410307812
 30
0.0
  0
VERTEX
  5
14C
330
130
100
AcDbEntity
  8
Layer 1
 62
     7
420
 16777215
370
    25
100
AcDbVertex
100
AcDb2dVertex
 10
0.1944444452814448
 20
-13.2824410307812
 30
0.0
  0
VERTEX
  5
14D
330
130
100
AcDbEntity
  8
Layer 1
 62
     7
420
 16777215
370
    25
100
AcDbVertex
100
AcDb2dVertex
 10
0.0694444452814448
 20
-13.28244103076435
 30
0.0
  0
VERTEX
  5
14E
330
130
100
AcDbEntity
  8
Layer 1
 62
     7
420
 16777215
370
    25
100
AcDbVertex
100
AcDb2dVertex
 10
0.0694444451419385
 20
-14.31814103076436
 30
0.0
  0
VERTEX
  5
14F
330
130
100
AcDbEntity
  8
Layer 1
 62
     7
420
 16777215
370
    25
100
AcDbVertex
100
AcDb2dVertex
 10
0.1944444451419385
 20
-14.31814103078121
 30
0.0
  0
VERTEX
  5
150
330
130
100
AcDbEntity
  8
Layer 1
 62
     7
420
 16777215
370
    25
100
AcDbVertex
100
AcDb2dVertex
 10
0.1944444450024447
 20
-15.35384103078119
 30
0.0
  0
VERTEX
  5
151
330
130
100
AcDbEntity
  8
Layer 1
 62
     7
420
 16777215
370
    25
100
AcDbVertex
100
AcDb2dVertex
 10
0.0694444450024447
 20
-15.35384103076437
 30
0.0
  0
VERTEX
  5
152
330
130
100
AcDbEntity
  8
Layer 1
 62
     7
420
 16777215
370
    25
100
AcDbVertex
100
AcDb2dVertex
 10
0.0694444448629257
 20
-16.38964103076437
 30
0.0
  0
VERTEX
  5
153
330
130
100
AcDbEntity
  8
Layer 1
 62
     7
420
 16777215
370
    25
100
AcDbVertex
100
AcDb2dVertex
 10
0.1944444448629257
 20
-16.3896410307812
 30
0.0
  0
VERTEX
  5
154
330
130
100
AcDbEntity
  8
Layer 1
 62
     7
420
 16777215
370
    25
100
AcDbVertex
100
AcDb2dVertex
 10
0.1944444447234572
 20
-17.4253410307812
 30
0.0
  0
VERTEX
  5
155
330
130
100
AcDbEntity
  8
Layer 1
 62
     7
420
 16777215
370
    25
100
AcDbVertex
100
AcDb2dVertex
 10
0.0694444447234572
 20
-17.42534103076438
 30
0.0
  0
VERTEX
  5
156
330
130
100
AcDbEntity
  8
Layer 1
 62
     7
420
 16777215
370
    25
100
AcDbVertex
100
AcDb2dVertex
 10
0.0694444445839382
 20
-18.46104103076434
 30
0.0
  0
VERTEX
  5
157
330
130
100
AcDbEntity
  8
Layer 1
 62
     7
420
 16777215
370
    25
100
AcDbVertex
100
AcDb2dVertex
 10
0.1944444445839382
 20
-18.46104103078121
 30
0.0
  0
VERTEX
  5
158
330
130
100
AcDbEntity
  8
Layer 1
 62
     7
420
 16777215
370
    25
100
AcDbVertex
100
AcDb2dVertex
 10
0.1944444444612954
 20
-19.37174103078119
 30
0.0
  0
VERTEX
  5
159
330
130
100
AcDbEntity
  8
Layer 1
 62
     7
420
 16777215
370
    25
100
AcDbVertex
100
AcDb2dVertex
 10
0.0694444444612954
 20
-19.37174103076434
 30
0.0
  0
VERTEX
  5
15A
330
130
100
AcDbEntity
  8
Layer 1
 62
     7
420
 16777215
370
    25
100
AcDbVertex
100
AcDb2dVertex
 10
0.0694444444444444
 20
-19.49674103076434
 30
0.0
  0
VERTEX
  5
15B
330
130
100
AcDbEntity
  8
Layer 1
 62
     7
420
 16777215
370
    25
100
AcDbVertex
100
AcDb2dVertex
 10
2.415444444444448
 20
-19.49674103108034
 30
0.0
  0
VERTEX
  5
15C
330
130
100
AcDbEntity
  8
Layer 1
 62
     7
420
 16777215
370
    25
100
AcDbVertex
100
AcDb2dVertex
 10
2.415444444461299
 20
-19.37174103108034
 30
0.0
  0
VERTEX
  5
15D
330
130
100
AcDbEntity
  8
Layer 1
 62
     7
420
 16777215
370
    25
100
AcDbVertex
100
AcDb2dVertex
 10
4.761444444461302
 20
-19.37174103139631
 30
0.0
  0
VERTEX
  5
15E
330
130
100
AcDbEntity
  8
Layer 1
 62
     7
420
 16777215
370
    25
100
AcDbVertex
100
AcDb2dVertex
 10
4.761444444444451
 20
-19.49674103139631
 30
0.0
  0
VERTEX
  5
15F
330
130
100
AcDbEntity
  8
Layer 1
 62
     7
420
 16777215
370
    25
100
AcDbVertex
100
AcDb2dVertex
 10
7.108444444444457
 20
-19.49674103171244
 30
0.0
  0
VERTEX
  5
160
330
130
100
AcDbEntity
  8
Layer 1
 62
     7
420
 16777215
370
    25
100
AcDbVertex
100
AcDb2dVertex
 10
7.108444444461307
 20
-19.37174103171244
 30
0.0
  0
VERTEX
  5
161
330
130
100
AcDbEntity
  8
Layer 1
 62
     7
420
 16777215
370
    25
100
AcDbVertex
100
AcDb2dVertex
 10
9.454444444461299
 20
-19.37174103202841
 30
0.0
  0
VERTEX
  5
162
330
130
100
AcDbEntity
  8
Layer 1
 62
     7
420
 16777215
370
    25
100
AcDbVertex
100
AcDb2dVertex
 10
9.45444444444446
 20
-19.49674103202841
 30
0.0
  0
VERTEX
  5
163
330
130
100
AcDbEntity
  8
Layer 1
 62
     7
420
 16777215
370
    25
100
AcDbVertex
100
AcDb2dVertex
 10
11.80044444444446
 20
-19.49674103234439
 30
0.0
  0
VERTEX
  5
164
330
130
100
AcDbEntity
  8
Layer 1
 62
     7
420
 16777215
370
    25
100
AcDbVertex
100
AcDb2dVertex
 10
11.8004444444613
 20
-19.37174103234439
 30
0.0
  0
VERTEX
  5
165
330
130
100
AcDbEntity
  8
Layer 1
 62
     7
420
 16777215
370
    25
100
AcDbVertex
100
AcDb2dVertex
 10
14.1454444444613
 20
-19.37174103266026
 30
0.0
  0
VERTEX
  5
166
330
130
100
AcDbEntity
  8
Layer 1
 62
     7
420
 16777215
370
    25
100
AcDbVertex
100
AcDb2dVertex
 10
14.14544444444446
 20
-19.49674103266026
 30
0.0
  0
VERTEX
  5
167
330
130
100
AcDbEntity
  8
Layer 1
 62
     7
420
 16777215
370
    25
100
AcDbVertex
100
AcDb2dVertex
 10
16.49344444444445
 20
-19.49674103297649
 30
0.0
  0
VERTEX
  5
168
330
130
100
AcDbEntity
  8
Layer 1
 62
     7
420
 16777215
370
    25
100
AcDbVertex
100
AcDb2dVertex
 10
16.49344444446131
 20
-19.37174103297649
 30
0.0
  0
VERTEX
  5
169
330
130
100
AcDbEntity
  8
Layer 1
 62
     7
420
 16777215
370
    25
100
AcDbVertex
100
AcDb2dVertex
 10
18.8384444444613
 20
-19.37174103329236
 30
0.0
  0
VERTEX
  5
16A
330
130
100
AcDbEntity
  8
Layer 1
 62
     7
420
 16777215
370
    25
100
AcDbVertex
100
AcDb2dVertex
 10
18.83844444444447
 20
-19.49674103329236
 30
0.0
  0
VERTEX
  5
16B
330
130
100
AcDbEntity
  8
Layer 1
 62
     7
420
 16777215
370
    25
100
AcDbVertex
100
AcDb2dVertex
 10
21.18444444444448
 20
-19.49674103360833
 30
0.0
  0
VERTEX
  5
16C
330
130
100
AcDbEntity
  8
Layer 1
 62
     7
420
 16777215
370
    25
100
AcDbVertex
100
AcDb2dVertex
 10
21.1844444444613
 20
-19.37174103360833
 30
0.0
  0
VERTEX
  5
16D
330
130
100
AcDbEntity
  8
Layer 1
 62
     7
420
 16777215
370
    25
100
AcDbVertex
100
AcDb2dVertex
 10
23.53044444446133
 20
-19.37174103392433
 30
0.0
  0
VERTEX
  5
16E
330
130
100
AcDbEntity
  8
Layer 1
 62
     7
420
 16777215
370
    25
100
AcDbVertex
100
AcDb2dVertex
 10
23.53044444444448
 20
-19.49674103392433
 30
0.0
  0
VERTEX
  5
16F
330
130
100
AcDbEntity
  8
Layer 1
 62
     7
420
 16777215
370
    25
100
AcDbVertex
100
AcDb2dVertex
 10
25.87744444444449
 20
-19.49674103424043
 30
0.0
  0
VERTEX
  5
170
330
130
100
AcDbEntity
  8
Layer 1
 62
     7
420
 16777215
370
    25
100
AcDbVertex
100
AcDb2dVertex
 10
25.87744444446134
 20
-19.37174103424043
 30
0.0
  0
VERTEX
  5
171
330
130
100
AcDbEntity
  8
Layer 1
 62
     7
420
 16777215
370
    25
100
AcDbVertex
100
AcDb2dVertex
 10
28.22344444446129
 20
-19.37174103455643
 30
0.0
  0
VERTEX
  5
172
330
130
100
AcDbEntity
  8
Layer 1
 62
     7
420
 16777215
370
    25
100
AcDbVertex
100
AcDb2dVertex
 10
28.22344444444441
 20
-19.49674103455643
 30
0.0
  0
VERTEX
  5
173
330
130
100
AcDbEntity
  8
Layer 1
 62
     7
420
 16777215
370
    25
100
AcDbVertex
100
AcDb2dVertex
 10
30.56944444444442
 20
-19.49674103487238
 30
0.0
  0
VERTEX
  5
174
330
130
100
AcDbEntity
  8
Layer 1
 62
     7
420
 16777215
370
    25
100
AcDbVertex
100
AcDb2dVertex
 10
30.56944444446129
 20
-19.37174103487238
 30
0.0
  0
VERTEX
  5
175
330
130
100
AcDbEntity
  8
Layer 1
 62
     7
420
 16777215
370
    25
100
AcDbVertex
100
AcDb2dVertex
 10
30.44444444446129
 20
-19.37174103485555
 30
0.0
  0
VERTEX
  5
176
330
130
100
AcDbEntity
  8
Layer 1
 62
     7
420
 16777215
370
    25
100
AcDbVertex
100
AcDb2dVertex
 10
30.44444444458392
 20
-18.4610410348556
 30
0.0
  0
VERTEX
  5
177
330
130
100
AcDbEntity
  8
Layer 1
 62
     7
420
 16777215
370
    25
100
AcDbVertex
100
AcDb2dVertex
 10
30.56944444458392
 20
-18.46104103487242
 30
0.0
  0
VERTEX
  5
178
330
130
100
AcDbEntity
  8
Layer 1
 62
     7
420
 16777215
370
    25
100
AcDbVertex
100
AcDb2dVertex
 10
30.56944444472343
 20
-17.42534103487242
 30
0.0
  0
VERTEX
  5
179
330
130
100
AcDbEntity
  8
Layer 1
 62
     7
420
 16777215
370
    25
100
AcDbVertex
100
AcDb2dVertex
 10
30.44444444472343
 20
-17.42534103485559
 30
0.0
  0
VERTEX
  5
17A
330
130
100
AcDbEntity
  8
Layer 1
 62
     7
420
 16777215
370
    25
100
AcDbVertex
100
AcDb2dVertex
 10
30.44444444486294
 20
-16.38964103485558
 30
0.0
  0
VERTEX
  5
17B
330
130
100
AcDbEntity
  8
Layer 1
 62
     7
420
 16777215
370
    25
100
AcDbVertex
100
AcDb2dVertex
 10
30.56944444486294
 20
-16.38964103487241
 30
0.0
  0
VERTEX
  5
17C
330
130
100
AcDbEntity
  8
Layer 1
 62
     7
420
 16777215
370
    25
100
AcDbVertex
100
AcDb2dVertex
 10
30.56944444500244
 20
-15.3538410348724
 30
0.0
  0
VERTEX
  5
17D
330
130
100
AcDbEntity
  8
Layer 1
 62
     7
420
 16777215
370
    25
100
AcDbVertex
100
AcDb2dVertex
 10
30.44444444500244
 20
-15.35384103485558
 30
0.0
  0
VERTEX
  5
17E
330
130
100
AcDbEntity
  8
Layer 1
 62
     7
420
 16777215
370
    25
100
AcDbVertex
100
AcDb2dVertex
 10
30.44444444514195
 20
-14.31814103485557
 30
0.0
  0
VERTEX
  5
17F
330
130
100
AcDbEntity
  8
Layer 1
 62
     7
420
 16777215
370
    25
100
AcDbVertex
100
AcDb2dVertex
 10
30.56944444514195
 20
-14.3181410348724
 30
0.0
  0
VERTEX
  5
180
330
130
100
AcDbEntity
  8
Layer 1
 62
     7
420
 16777215
370
    25
100
AcDbVertex
100
AcDb2dVertex
 10
30.56944444528146
 20
-13.28244103487239
 30
0.0
  0
VERTEX
  5
181
330
130
100
AcDbEntity
  8
Layer 1
 62
     7
420
 16777215
370
    25
100
AcDbVertex
100
AcDb2dVertex
 10
30.44444444528146
 20
-13.28244103485556
 30
0.0
  0
VERTEX
  5
182
330
130
100
AcDbEntity
  8
Layer 1
 62
     7
420
 16777215
370
    25
100
AcDbVertex
100
AcDb2dVertex
 10
30.44444444540409
 20
-12.37174103485555
 30
0.0
  0
VERTEX
  5
183
330
130
100
AcDbEntity
  8
Layer 1
 62
     7
420
 16777215
370
    25
100
AcDbVertex
100
AcDb2dVertex
 10
30.56944444540409
 20
-12.37174103487238
 30
0.0
  0
VERTEX
  5
184
330
130
100
AcDbEntity
  8
Layer 1
 62
     7
420
 16777215
370
    25
100
AcDbVertex
100
AcDb2dVertex
 10
30.56944444542091
 20
-12.24674103487238
 30
0.0
  0
VERTEX
  5
185
330
130
100
AcDbEntity
  8
Layer 1
 62
     7
420
 16777215
370
    25
100
AcDbVertex
100
AcDb2dVertex
 10
28.22344444542091
 20
-12.24674103455643
 30
0.0
  0
SEQEND
  5
186
330
130
100
AcDbEntity
  8
Layer 1
 62
     7
420
 16777215
370
    25
  0
ENDBLK
  5
12F
330
12C
100
AcDbEntity
  8
0
100
AcDbBlockEnd
  0
BLOCK
  5
189
330
187
100
AcDbEntity
  8
0
100
AcDbBlockBegin
  2
block 20
 70
     0
 10
0.0
 20
0.0
 30
0.0
  3
block 20
  1

  0
POLYLINE
  5
18B
330
187
100
AcDbEntity
  8
Layer 1
 62
     7
420
 16777215
370
    25
100
AcDb2dPolyline
 66
     1
 10
0.0
 20
0.0
 30
0.0
  0
VERTEX
  5
18C
330
18B
100
AcDbEntity
  8
Layer 1
 62
     7
420
 16777215
370
    25
100
AcDbVertex
100
AcDb2dVertex
 10
10.4754444454041
 20
-12.37174103216593
 30
0.0
  0
VERTEX
  5
18D
330
18B
100
AcDbEntity
  8
Layer 1
 62
     7
420
 16777215
370
    25
100
AcDbVertex
100
AcDb2dVertex
 10
10.47544444533676
 20
-12.87174103216593
 30
0.0
  0
VERTEX
  5
18E
330
18B
100
AcDbEntity
  8
Layer 1
 62
     7
420
 16777215
370
    25
100
AcDbVertex
100
AcDb2dVertex
 10
10.35044444533676
 20
-12.8717410321491
 30
0.0
  0
VERTEX
  5
18F
330
18B
100
AcDbEntity
  8
Layer 1
 62
     7
420
 16777215
370
    25
100
AcDbVertex
100
AcDb2dVertex
 10
10.3504444454041
 20
-12.3717410321491
 30
0.0
  0
VERTEX
  5
190
330
18B
100
AcDbEntity
  8
Layer 1
 62
     7
420
 16777215
370
    25
100
AcDbVertex
100
AcDb2dVertex
 10
10.4754444454041
 20
-12.37174103216593
 30
0.0
  0
SEQEND
  5
191
330
18B
100
AcDbEntity
  8
Layer 1
 62
     7
420
 16777215
370
    25
  0
ENDBLK
  5
18A
330
187
100
AcDbEntity
  8
0
100
AcDbBlockEnd
  0
BLOCK
  5
194
330
192
100
AcDbEntity
  8
0
100
AcDbBlockBegin
  2
block 21
 70
     0
 10
0.0
 20
0.0
 30
0.0
  3
block 21
  1

  0
POLYLINE
  5
196
330
192
100
AcDbEntity
  8
Layer 1
 62
     7
420
 16777215
370
    25
100
AcDb2dPolyline
 66
     1
 10
0.0
 20
0.0
 30
0.0
  0
VERTEX
  5
197
330
196
100
AcDbEntity
  8
Layer 1
 62
     7
420
 16777215
370
    25
100
AcDbVertex
100
AcDb2dVertex
 10
20.28744444452867
 20
-18.87174103348752
 30
0.0
  0
VERTEX
  5
198
330
196
100
AcDbEntity
  8
Layer 1
 62
     7
420
 16777215
370
    25
100
AcDbVertex
100
AcDb2dVertex
 10
20.28744444446132
 20
-19.37174103348752
 30
0.0
  0
VERTEX
  5
199
330
196
100
AcDbEntity
  8
Layer 1
 62
     7
420
 16777215
370
    25
100
AcDbVertex
100
AcDb2dVertex
 10
20.16244444446132
 20
-19.3717410334707
 30
0.0
  0
VERTEX
  5
19A
330
196
100
AcDbEntity
  8
Layer 1
 62
     7
420
 16777215
370
    25
100
AcDbVertex
100
AcDb2dVertex
 10
20.16244444452867
 20
-18.8717410334707
 30
0.0
  0
VERTEX
  5
19B
330
196
100
AcDbEntity
  8
Layer 1
 62
     7
420
 16777215
370
    25
100
AcDbVertex
100
AcDb2dVertex
 10
20.28744444452867
 20
-18.87174103348752
 30
0.0
  0
SEQEND
  5
19C
330
196
100
AcDbEntity
  8
Layer 1
 62
     7
420
 16777215
370
    25
  0
ENDBLK
  5
195
330
192
100
AcDbEntity
  8
0
100
AcDbBlockEnd
  0
BLOCK
  5
19F
330
19D
100
AcDbEntity
  8
0
100
AcDbBlockBegin
  2
block 22
 70
     0
 10
0.0
 20
0.0
 30
0.0
  3
block 22
  1

  0
POLYLINE
  5
1A1
330
19D
100
AcDbEntity
  8
Layer 1
 62
     7
420
 16777215
370
    25
100
AcDb2dPolyline
 66
     1
 10
0.0
 20
0.0
 30
0.0
  0
VERTEX
  5
1A2
330
1A1
100
AcDbEntity
  8
Layer 1
 62
     7
420
 16777215
370
    25
100
AcDbVertex
100
AcDb2dVertex
 10
20.28744444540416
 20
-12.37174103348752
 30
0.0
  0
VERTEX
  5
1A3
330
1A1
100
AcDbEntity
  8
Layer 1
 62
     7
420
 16777215
370
    25
100
AcDbVertex
100
AcDb2dVertex
 10
20.28744444533681
 20
-12.87174103348752
 30
0.0
  0
VERTEX
  5
1A4
330
1A1
100
AcDbEntity
  8
Layer 1
 62
     7
420
 16777215
370
    25
100
AcDbVertex
100
AcDb2dVertex
 10
20.16244444533681
 20
-12.87174103347067
 30
0.0
  0
VERTEX
  5
1A5
330
1A1
100
AcDbEntity
  8
Layer 1
 62
     7
420
 16777215
370
    25
100
AcDbVertex
100
AcDb2dVertex
 10
20.16244444540416
 20
-12.37174103347067
 30
0.0
  0
VERTEX
  5
1A6
330
1A1
100
AcDbEntity
  8
Layer 1
 62
     7
420
 16777215
370
    25
100
AcDbVertex
100
AcDb2dVertex
 10
20.28744444540416
 20
-12.37174103348752
 30
0.0
  0
SEQEND
  5
1A7
330
1A1
100
AcDbEntity
  8
Layer 1
 62
     7
420
 16777215
370
    25
  0
ENDBLK
  5
1A0
330
19D
100
AcDbEntity
  8
0
100
AcDbBlockEnd
  0
BLOCK
  5
1AA
330
1A8
100
AcDbEntity
  8
0
100
AcDbBlockBegin
  2
block 23
 70
     0
 10
0.0
 20
0.0
 30
0.0
  3
block 23
  1

  0
POLYLINE
  5
1AC
330
1A8
100
AcDbEntity
  8
Layer 1
 62
     7
420
 16777215
370
    25
100
AcDb2dPolyline
 66
     1
 10
0.0
 20
0.0
 30
0.0
  0
VERTEX
  5
1AD
330
1AC
100
AcDbEntity
  8
Layer 1
 62
     7
420
 16777215
370
    25
100
AcDbVertex
100
AcDb2dVertex
 10
10.47544444452862
 20
-18.87174103216595
 30
0.0
  0
VERTEX
  5
1AE
330
1AC
100
AcDbEntity
  8
Layer 1
 62
     7
420
 16777215
370
    25
100
AcDbVertex
100
AcDb2dVertex
 10
10.47544444446128
 20
-19.37174103216595
 30
0.0
  0
VERTEX
  5
1AF
330
1AC
100
AcDbEntity
  8
Layer 1
 62
     7
420
 16777215
370
    25
100
AcDbVertex
100
AcDb2dVertex
 10
10.35044444446128
 20
-19.3717410321491
 30
0.0
  0
VERTEX
  5
1B0
330
1AC
100
AcDbEntity
  8
Layer 1
 62
     7
420
 16777215
370
    25
100
AcDbVertex
100
AcDb2dVertex
 10
10.35044444452862
 20
-18.8717410321491
 30
0.0
  0
VERTEX
  5
1B1
330
1AC
100
AcDbEntity
  8
Layer 1
 62
     7
420
 16777215
370
    25
100
AcDbVertex
100
AcDb2dVertex
 10
10.47544444452862
 20
-18.87174103216595
 30
0.0
  0
SEQEND
  5
1B2
330
1AC
100
AcDbEntity
  8
Layer 1
 62
     7
420
 16777215
370
    25
  0
ENDBLK
  5
1AB
330
1A8
100
AcDbEntity
  8
0
100
AcDbBlockEnd
  0
BLOCK
  5
1B5
330
1B3
100
AcDbEntity
  8
0
100
AcDbBlockBegin
  2
block 24
 70
     0
 10
0.0
 20
0.0
 30
0.0
  3
block 24
  1

  0
POLYLINE
  5
1B7
330
1B3
100
AcDbEntity
  8
Layer 1
 62
     7
420
 16777215
370
    25
100
AcDb2dPolyline
 66
     1
 10
0.0
 20
0.0
 30
0.0
  0
VERTEX
  5
1B8
330
1B7
100
AcDbEntity
  8
Layer 1
 62
     7
420
 16777215
370
    25
100
AcDbVertex
100
AcDb2dVertex
 10
13.38044444524242
 20
-21.71340770024696
 30
0.0
  0
VERTEX
  5
1B9
330
1B7
100
AcDbEntity
  8
Layer 1
 62
     7
420
 16777215
370
    25
100
AcDbVertex
100
AcDb2dVertex
 10
12.13044444524242
 20
-21.7134077000786
 30
0.0
  0
VERTEX
  5
1BA
330
1B7
100
AcDbEntity
  8
Layer 1
 62
     7
420
 16777215
370
    25
100
AcDbVertex
100
AcDb2dVertex
 10
12.1304444452256
 20
-21.8384077000786
 30
0.0
  0
VERTEX
  5
1BB
330
1B7
100
AcDbEntity
  8
Layer 1
 62
     7
420
 16777215
370
    25
100
AcDbVertex
100
AcDb2dVertex
 10
10.8804444452256
 20
-21.83840769991025
 30
0.0
  0
VERTEX
  5
1BC
330
1B7
100
AcDbEntity
  8
Layer 1
 62
     7
420
 16777215
370
    25
100
AcDbVertex
100
AcDb2dVertex
 10
10.88044444524242
 20
-21.71340769991025
 30
0.0
  0
VERTEX
  5
1BD
330
1B7
100
AcDbEntity
  8
Layer 1
 62
     7
420
 16777215
370
    25
100
AcDbVertex
100
AcDb2dVertex
 10
9.630444445242421
 20
-21.71340769974189
 30
0.0
  0
VERTEX
  5
1BE
330
1B7
100
AcDbEntity
  8
Layer 1
 62
     7
420
 16777215
370
    25
100
AcDbVertex
100
AcDb2dVertex
 10
9.630444445225596
 20
-21.83840769974189
 30
0.0
  0
VERTEX
  5
1BF
330
1B7
100
AcDbEntity
  8
Layer 1
 62
     7
420
 16777215
370
    25
100
AcDbVertex
100
AcDb2dVertex
 10
8.380444445225596
 20
-21.83840769957353
 30
0.0
  0
VERTEX
  5
1C0
330
1B7
100
AcDbEntity
  8
Layer 1
 62
     7
420
 16777215
370
    25
100
AcDbVertex
100
AcDb2dVertex
 10
8.380444445242421
 20
-21.71340769957353
 30
0.0
  0
VERTEX
  5
1C1
330
1B7
100
AcDbEntity
  8
Layer 1
 62
     7
420
 16777215
370
    25
100
AcDbVertex
100
AcDb2dVertex
 10
10.38044444552864
 20
-19.58840769984289
 30
0.0
  0
VERTEX
  5
1C2
330
1B7
100
AcDbEntity
  8
Layer 1
 62
     7
420
 16777215
370
    25
100
AcDbVertex
100
AcDb2dVertex
 10
18.38044444552864
 20
-19.58840770092045
 30
0.0
  0
VERTEX
  5
1C3
330
1B7
100
AcDbEntity
  8
Layer 1
 62
     7
420
 16777215
370
    25
100
AcDbVertex
100
AcDb2dVertex
 10
18.3804444453098
 20
-21.21340770092045
 30
0.0
  0
VERTEX
  5
1C4
330
1B7
100
AcDbEntity
  8
Layer 1
 62
     7
420
 16777215
370
    25
100
AcDbVertex
100
AcDb2dVertex
 10
18.5054444453098
 20
-21.21340770093727
 30
0.0
  0
VERTEX
  5
1C5
330
1B7
100
AcDbEntity
  8
Layer 1
 62
     7
420
 16777215
370
    25
100
AcDbVertex
100
AcDb2dVertex
 10
18.5054444452424
 20
-21.71340770093727
 30
0.0
  0
VERTEX
  5
1C6
330
1B7
100
AcDbEntity
  8
Layer 1
 62
     7
420
 16777215
370
    25
100
AcDbVertex
100
AcDb2dVertex
 10
17.1304444452424
 20
-21.71340770075209
 30
0.0
  0
VERTEX
  5
1C7
330
1B7
100
AcDbEntity
  8
Layer 1
 62
     7
420
 16777215
370
    25
100
AcDbVertex
100
AcDb2dVertex
 10
17.13044444522557
 20
-21.83840770075209
 30
0.0
  0
VERTEX
  5
1C8
330
1B7
100
AcDbEntity
  8
Layer 1
 62
     7
420
 16777215
370
    25
100
AcDbVertex
100
AcDb2dVertex
 10
15.88044444522557
 20
-21.83840770058373
 30
0.0
  0
VERTEX
  5
1C9
330
1B7
100
AcDbEntity
  8
Layer 1
 62
     7
420
 16777215
370
    25
100
AcDbVertex
100
AcDb2dVertex
 10
15.8804444452424
 20
-21.7134077005837
 30
0.0
  0
VERTEX
  5
1CA
330
1B7
100
AcDbEntity
  8
Layer 1
 62
     7
420
 16777215
370
    25
100
AcDbVertex
100
AcDb2dVertex
 10
14.6304444452424
 20
-21.71340770041535
 30
0.0
  0
VERTEX
  5
1CB
330
1B7
100
AcDbEntity
  8
Layer 1
 62
     7
420
 16777215
370
    25
100
AcDbVertex
100
AcDb2dVertex
 10
14.63044444522557
 20
-21.83840770041537
 30
0.0
  0
VERTEX
  5
1CC
330
1B7
100
AcDbEntity
  8
Layer 1
 62
     7
420
 16777215
370
    25
100
AcDbVertex
100
AcDb2dVertex
 10
13.3804444452256
 20
-21.83840770024696
 30
0.0
  0
VERTEX
  5
1CD
330
1B7
100
AcDbEntity
  8
Layer 1
 62
     7
420
 16777215
370
    25
100
AcDbVertex
100
AcDb2dVertex
 10
13.38044444524242
 20
-21.71340770024696
 30
0.0
  0
SEQEND
  5
1CE
330
1B7
100
AcDbEntity
  8
Layer 1
 62
     7
420
 16777215
370
    25
  0
ENDBLK
  5
1B6
330
1B3
100
AcDbEntity
  8
0
100
AcDbBlockEnd
  0
BLOCK
  5
1D1
330
1CF
100
AcDbEntity
  8
0
100
AcDbBlockBegin
  2
block 25
 70
     0
 10
0.0
 20
0.0
 30
0.0
  3
block 25
  1

  0
POLYLINE
  5
1D3
330
1CF
100
AcDbEntity
  8
Layer 1
 62
     7
420
 16777215
370
    25
100
AcDb2dPolyline
 66
     1
 10
0.0
 20
0.0
 30
0.0
  0
VERTEX
  5
1D4
330
1D3
100
AcDbEntity
  8
Layer 1
 62
     7
420
 16777215
370
    25
100
AcDbVertex
100
AcDb2dVertex
 10
5.194444445511863
 20
-19.7134076991444
 30
0.0
  0
VERTEX
  5
1D5
330
1D3
100
AcDbEntity
  8
Layer 1
 62
     7
420
 16777215
370
    25
100
AcDbVertex
100
AcDb2dVertex
 10
6.444444445511863
 20
-19.71340769931276
 30
0.0
  0
VERTEX
  5
1D6
330
1D3
100
AcDbEntity
  8
Layer 1
 62
     7
420
 16777215
370
    25
100
AcDbVertex
100
AcDb2dVertex
 10
6.444444445528713
 20
-19.58840769931276
 30
0.0
  0
VERTEX
  5
1D7
330
1D3
100
AcDbEntity
  8
Layer 1
 62
     7
420
 16777215
370
    25
100
AcDbVertex
100
AcDb2dVertex
 10
7.694444445528713
 20
-19.58840769948114
 30
0.0
  0
VERTEX
  5
1D8
330
1D3
100
AcDbEntity
  8
Layer 1
 62
     7
420
 16777215
370
    25
100
AcDbVertex
100
AcDb2dVertex
 10
7.694444445511863
 20
-19.71340769948114
 30
0.0
  0
VERTEX
  5
1D9
330
1D3
100
AcDbEntity
  8
Layer 1
 62
     7
420
 16777215
370
    25
100
AcDbVertex
100
AcDb2dVertex
 10
8.944444445511863
 20
-19.71340769964948
 30
0.0
  0
VERTEX
  5
1DA
330
1D3
100
AcDbEntity
  8
Layer 1
 62
     7
420
 16777215
370
    25
100
AcDbVertex
100
AcDb2dVertex
 10
8.944444445528713
 20
-19.58840769964948
 30
0.0
  0
VERTEX
  5
1DB
330
1D3
100
AcDbEntity
  8
Layer 1
 62
     7
420
 16777215
370
    25
100
AcDbVertex
100
AcDb2dVertex
 10
10.19444444552869
 20
-19.58840769981783
 30
0.0
  0
VERTEX
  5
1DC
330
1D3
100
AcDbEntity
  8
Layer 1
 62
     7
420
 16777215
370
    25
100
AcDbVertex
100
AcDb2dVertex
 10
10.19444444551186
 20
-19.71340769981783
 30
0.0
  0
VERTEX
  5
1DD
330
1D3
100
AcDbEntity
  8
Layer 1
 62
     7
420
 16777215
370
    25
100
AcDbVertex
100
AcDb2dVertex
 10
8.194444445225649
 20
-21.83840769954847
 30
0.0
  0
VERTEX
  5
1DE
330
1D3
100
AcDbEntity
  8
Layer 1
 62
     7
420
 16777215
370
    25
100
AcDbVertex
100
AcDb2dVertex
 10
0.1944444452256499
 20
-21.83840769847097
 30
0.0
  0
VERTEX
  5
1DF
330
1D3
100
AcDbEntity
  8
Layer 1
 62
     7
420
 16777215
370
    25
100
AcDbVertex
100
AcDb2dVertex
 10
0.1944444454445096
 20
-20.21340769847095
 30
0.0
  0
VERTEX
  5
1E0
330
1D3
100
AcDbEntity
  8
Layer 1
 62
     7
420
 16777215
370
    25
100
AcDbVertex
100
AcDb2dVertex
 10
0.0694444454445097
 20
-20.21340769845412
 30
0.0
  0
VERTEX
  5
1E1
330
1D3
100
AcDbEntity
  8
Layer 1
 62
     7
420
 16777215
370
    25
100
AcDbVertex
100
AcDb2dVertex
 10
0.0694444455118628
 20
-19.71340769845412
 30
0.0
  0
VERTEX
  5
1E2
330
1D3
100
AcDbEntity
  8
Layer 1
 62
     7
420
 16777215
370
    25
100
AcDbVertex
100
AcDb2dVertex
 10
1.444444445511863
 20
-19.71340769863933
 30
0.0
  0
VERTEX
  5
1E3
330
1D3
100
AcDbEntity
  8
Layer 1
 62
     7
420
 16777215
370
    25
100
AcDbVertex
100
AcDb2dVertex
 10
1.444444445528701
 20
-19.58840769863933
 30
0.0
  0
VERTEX
  5
1E4
330
1D3
100
AcDbEntity
  8
Layer 1
 62
     7
420
 16777215
370
    25
100
AcDbVertex
100
AcDb2dVertex
 10
2.694444445528701
 20
-19.58840769880769
 30
0.0
  0
VERTEX
  5
1E5
330
1D3
100
AcDbEntity
  8
Layer 1
 62
     7
420
 16777215
370
    25
100
AcDbVertex
100
AcDb2dVertex
 10
2.694444445511863
 20
-19.71340769880769
 30
0.0
  0
VERTEX
  5
1E6
330
1D3
100
AcDbEntity
  8
Layer 1
 62
     7
420
 16777215
370
    25
100
AcDbVertex
100
AcDb2dVertex
 10
3.944444445511863
 20
-19.71340769897605
 30
0.0
  0
VERTEX
  5
1E7
330
1D3
100
AcDbEntity
  8
Layer 1
 62
     7
420
 16777215
370
    25
100
AcDbVertex
100
AcDb2dVertex
 10
3.944444445528701
 20
-19.58840769897605
 30
0.0
  0
VERTEX
  5
1E8
330
1D3
100
AcDbEntity
  8
Layer 1
 62
     7
420
 16777215
370
    25
100
AcDbVertex
100
AcDb2dVertex
 10
5.194444445528701
 20
-19.5884076991444
 30
0.0
  0
VERTEX
  5
1E9
330
1D3
100
AcDbEntity
  8
Layer 1
 62
     7
420
 16777215
370
    25
100
AcDbVertex
100
AcDb2dVertex
 10
5.194444445511863
 20
-19.7134076991444
 30
0.0
  0
SEQEND
  5
1EA
330
1D3
100
AcDbEntity
  8
Layer 1
 62
     7
420
 16777215
370
    25
  0
ENDBLK
  5
1D2
330
1CF
100
AcDbEntity
  8
0
100
AcDbBlockEnd
  0
ENDSEC
  0
SECTION
  2
ENTITIES
  0
INSERT
  5
42
330
1F
100
AcDbEntity
  8
Layer 1
100
AcDbBlockReference
  2
block 2
 10
0.0
 20
0.0
 30
0.0
  0
INSERT
  5
7D
330
1F
100
AcDbEntity
  8
Layer 1
100
AcDbBlockReference
  2
block 3
 10
0.0
 20
0.0
 30
0.0
  0
INSERT
  5
88
330
1F
100
AcDbEntity
  8
Layer 1
100
AcDbBlockReference
  2
block 4
 10
0.0
 20
0.0
 30
0.0
  0
INSERT
  5
93
330
1F
100
AcDbEntity
  8
Layer 1
100
AcDbBlockReference
  2
block 5
 10
0.0
 20
0.0
 30
0.0
  0
INSERT
  5
9E
330
1F
100
AcDbEntity
  8
Layer 1
100
AcDbBlockReference
  2
block 6
 10
0.0
 20
0.0
 30
0.0
  0
INSERT
  5
A9
330
1F
100
AcDbEntity
  8
Layer 1
100
AcDbBlockReference
  2
block 7
 10
0.0
 20
0.0
 30
0.0
  0
INSERT
  5
B4
330
1F
100
AcDbEntity
  8
Layer 1
100
AcDbBlockReference
  2
block 8
 10
0.0
 20
0.0
 30
0.0
  0
INSERT
  5
BF
330
1F
100
AcDbEntity
  8
Layer 1
100
AcDbBlockReference
  2
block 9
 10
0.0
 20
0.0
 30
0.0
  0
INSERT
  5
CA
330
1F
100
AcDbEntity
  8
Layer 1
100
AcDbBlockReference
  2
block 10
 10
0.0
 20
0.0
 30
0.0
  0
INSERT
  5
D5
330
1F
100
AcDbEntity
  8
Layer 1
100
AcDbBlockReference
  2
block 11
 10
0.0
 20
0.0
 30
0.0
  0
INSERT
  5
E0
330
1F
100
AcDbEntity
  8
Layer 1
100
AcDbBlockReference
  2
block 12
 10
0.0
 20
0.0
 30
0.0
  0
INSERT
  5
EB
330
1F
100
AcDbEntity
  8
Layer 1
100
AcDbBlockReference
  2
block 13
 10
0.0
 20
0.0
 30
0.0
  0
INSERT
  5
F6
330
1F
100
AcDbEntity
  8
Layer 1
100
AcDbBlockReference
  2
block 14
 10
0.0
 20
0.0
 30
0.0
  0
INSERT
  5
101
330
1F
100
AcDbEntity
  8
Layer 1
100
AcDbBlockReference
  2
block 15
 10
0.0
 20
0.0
 30
0.0
  0
INSERT
  5
10C
330
1F
100
AcDbEntity
  8
Layer 1
100
AcDbBlockReference
  2
block 16
 10
0.0
 20
0.0
 30
0.0
  0
INSERT
  5
117
330
1F
100
AcDbEntity
  8
Layer 1
100
AcDbBlockReference
  2
block 17
 10
0.0
 20
0.0
 30
0.0
  0
INSERT
  5
122
330
1F
100
AcDbEntity
  8
Layer 1
100
AcDbBlockReference
  2
block 18
 10
0.0
 20
0.0
 30
0.0
  0
INSERT
  5
12D
330
1F
100
AcDbEntity
  8
Layer 1
100
AcDbBlockReference
  2
block 19
 10
0.0
 20
0.0
 30
0.0
  0
INSERT
  5
188
330
1F
100
AcDbEntity
  8
Layer 1
100
AcDbBlockReference
  2
block 20
 10
0.0
 20
0.0
 30
0.0
  0
INSERT
  5
193
330
1F
100
AcDbEntity
  8
Layer 1
100
AcDbBlockReference
  2
block 21
 10
0.0
 20
0.0
 30
0.0
  0
INSERT
  5
19E
330
1F
100
AcDbEntity
  8
Layer 1
100
AcDbBlockReference
  2
block 22
 10
0.0
 20
0.0
 30
0.0
  0
INSERT
  5
1A9
330
1F
100
AcDbEntity
  8
Layer 1
100
AcDbBlockReference
  2
block 23
 10
0.0
 20
0.0
 30
0.0
  0
INSERT
  5
1B4
330
1F
100
AcDbEntity
  8
Layer 1
100
AcDbBlockReference
  2
block 24
 10
0.0
 20
0.0
 30
0.0
  0
INSERT
  5
1D0
330
1F
100
AcDbEntity
  8
Layer 1
100
AcDbBlockReference
  2
block 25
 10
0.0
 20
0.0
 30
0.0
  0
ENDSEC
  0
SECTION
  2
OBJECTS
  0
DICTIONARY
  5
C
330
0
100
AcDbDictionary
281
     1
  3
ACAD_GROUP
350
D
  3
ACAD_LAYOUT
350
1A
  3
ACAD_MATERIAL
350
3B
  3
ACAD_MLEADERSTYLE
350
1EC
  3
ACAD_MLINESTYLE
350
17
  3
ACAD_PLOTSETTINGS
350
19
  3
ACAD_PLOTSTYLENAME
350
E
  3
ACAD_TABLESTYLE
350
1EB
  3
ACAD_VISUALSTYLE
350
2A
  0
SUN
  5
3F
330
29
100
AcDbSun
 90
        1
290
     0
 63
     7
421
 16777215
 40
1.0
291
     1
 91
  2455826
 92
 54000000
292
     0
 70
     2
 71
   256
280
     1
  0
DICTIONARY
  5
D
102
{ACAD_REACTORS
330
C
102
}
330
C
100
AcDbDictionary
281
     1
  0
DICTIONARY
  5
1A
102
{ACAD_REACTORS
330
C
102
}
330
C
100
AcDbDictionary
281
     1
  3
Layout1
350
1E
  3
Layout2
350
26
  3
Model
350
22
  0
DICTIONARY
  5
3B
102
{ACAD_REACTORS
330
C
102
}
330
C
100
AcDbDictionary
281
     1
  3
ByBlock
350
3D
  3
ByLayer
350
3C
  3
Global
350
3E
  0
DICTIONARY
  5
1EC
102
{ACAD_REACTORS
330
C
102
}
330
C
100
AcDbDictionary
281
     1
  0
DICTIONARY
  5
17
102
{ACAD_REACTORS
330
C
102
}
330
C
100
AcDbDictionary
281
     1
  3
Standard
350
18
  0
DICTIONARY
  5
19
102
{ACAD_REACTORS
330
C
102
}
330
C
100
AcDbDictionary
281
     1
  0
ACDBDICTIONARYWDFLT
  5
E
102
{ACAD_REACTORS
330
C
102
}
330
C
100
AcDbDictionary
281
     1
  3
Normal
350
F
100
AcDbDictionaryWithDefault
340
F
  0
DICTIONARY
  5
1EB
102
{ACAD_REACTORS
330
C
102
}
330
C
100
AcDbDictionary
281
     1
  0
DICTIONARY
  5
2A
102
{ACAD_REACTORS
330
C
102
}
330
C
100
AcDbDictionary
281
     1
  3
2dWireframe
350
2F
  3
3D Hidden
350
31
  3
3dWireframe
350
30
  3
Basic
350
32
  3
Brighten
350
36
  3
ColorChange
350
3A
  3
Conceptual
350
34
  3
Dim
350
35
  3
Facepattern
350
39
  3
Flat
350
2B
  3
FlatWithEdges
350
2C
  3
Gouraud
350
2D
  3
GouraudWithEdges
350
2E
  3
Linepattern
350
38
  3
Realistic
350
33
  3
Thicken
350
37
  0
LAYOUT
  5
1E
102
{ACAD_REACTORS
330
1A
102
}
330
1A
100
AcDbPlotSettings
  1

  2
none_device
  4

  6

 40
0.0
 41
0.0
 42
0.0
 43
0.0
 44
0.0
 45
0.0
 46
0.0
 47
0.0
 48
0.0
 49
0.0
140
0.0
141
0.0
142
1.0
143
1.0
 70
   688
 72
     0
 73
     0
 74
     5
  7

 75
    16
 76
     0
 77
     2
 78
   300
147
1.0
148
0.0
149
0.0
100
AcDbLayout
  1
Layout1
 70
     1
 71
     1
 10
0.0
 20
0.0
 11
12.0
 21
9.0
 12
0.0
 22
0.0
 32
0.0
 14
1.000000000000000E+20
 24
1.000000000000000E+20
 34
1.000000000000000E+20
 15
-1.000000000000000E+20
 25
-1.000000000000000E+20
 35
-1.000000000000000E+20
146
0.0
 13
0.0
 23
0.0
 33
0.0
 16
1.0
 26
0.0
 36
0.0
 17
0.0
 27
1.0
 37
0.0
 76
     0
330
1B
  0
LAYOUT
  5
26
102
{ACAD_REACTORS
330
1A
102
}
330
1A
100
AcDbPlotSettings
  1

  2
none_device
  4

  6

 40
0.0
 41
0.0
 42
0.0
 43
0.0
 44
0.0
 45
0.0
 46
0.0
 47
0.0
 48
0.0
 49
0.0
140
0.0
141
0.0
142
1.0
143
1.0
 70
   688
 72
     0
 73
     0
 74
     5
  7

 75
    16
 76
     0
 77
     2
 78
   300
147
1.0
148
0.0
149
0.0
100
AcDbLayout
  1
Layout2
 70
     1
 71
     2
 10
0.0
 20
0.0
 11
0.0
 21
0.0
 12
0.0
 22
0.0
 32
0.0
 14
0.0
 24
0.0
 34
0.0
 15
0.0
 25
0.0
 35
0.0
146
0.0
 13
0.0
 23
0.0
 33
0.0
 16
1.0
 26
0.0
 36
0.0
 17
0.0
 27
1.0
 37
0.0
 76
     0
330
23
  0
LAYOUT
  5
22
102
{ACAD_REACTORS
330
1A
102
}
330
1A
100
AcDbPlotSettings
  1

  2
none_device
  4

  6

 40
0.0
 41
0.0
 42
0.0
 43
0.0
 44
0.0
 45
0.0
 46
0.0
 47
0.0
 48
0.0
 49
0.0
140
0.0
141
0.0
142
1.0
143
1.0
 70
  1712
 72
     0
 73
     0
 74
     0
  7

 75
     0
 76
     0
 77
     2
 78
   300
147
1.0
148
0.0
149
0.0
100
AcDbLayout
  1
Model
 70
     1
 71
     0
 10
0.0
 20
0.0
 11
12.0
 21
9.0
 12
0.0
 22
0.0
 32
0.0
 14
1.000000000000000E+20
 24
1.000000000000000E+20
 34
1.000000000000000E+20
 15
-1.000000000000000E+20
 25
-1.000000000000000E+20
 35
-1.000000000000000E+20
146
0.0
 13
0.0
 23
0.0
 33
0.0
 16
1.0
 26
0.0
 36
0.0
 17
0.0
 27
1.0
 37
0.0
 76
     0
330
1F
331
29
  0
MATERIAL
  5
3D
102
{ACAD_REACTORS
330
3B
102
}
330
3B
100
AcDbMaterial
  1
ByBlock
 72
     1
 94
      127
  0
MATERIAL
  5
3C
102
{ACAD_REACTORS
330
3B
102
}
330
3B
100
AcDbMaterial
  1
ByLayer
 72
     1
 94
      127
  0
MATERIAL
  5
3E
102
{ACAD_REACTORS
330
3B
102
}
330
3B
100
AcDbMaterial
  1
Global
 72
     1
 94
      127
  0
MLINESTYLE
  5
18
102
{ACAD_REACTORS
330
17
102
}
330
17
100
AcDbMlineStyle
  2
Standard
 70
     0
  3

 62
   256
 51
90.0
 52
90.0
 71
     2
 49
0.5
 62
   256
  6
BYLAYER
 49
-0.5
 62
   256
  6
BYLAYER
  0
ACDBPLACEHOLDER
  5
F
102
{ACAD_REACTORS
330
E
102
}
330
E
  0
VISUALSTYLE
  5
2F
102
{ACAD_REACTORS
330
2A
102
}
330
2A
100
AcDbVisualStyle
  2
2dWireframe
 70
     4
177
     2
291
     0
 71
     0
176
     1
 72
     2
176
     1
 73
     0
176
     1
 90
        0
176
     1
 40
-0.6
176
     1
 41
-30.0
176
     1
 62
     5
 63
     7
421
 16777215
176
     1
 74
     1
176
     1
 91
        4
176
     1
 64
     7
176
     1
 65
   257
176
     1
 75
     1
176
     1
175
     1
176
     1
 42
1.0
176
     1
 92
        0
176
     1
 66
   257
176
     1
 43
1.0
176
     1
 76
     1
176
     1
 77
     6
176
     1
 78
     2
176
     1
 67
     7
176
     1
 79
     5
176
     1
170
     0
176
     1
171
     0
176
     1
290
     0
176
     1
 93
        1
176
     1
 44
0.0
176
     1
173
     0
176
     1
  0
VISUALSTYLE
  5
31
102
{ACAD_REACTORS
330
2A
102
}
330
2A
100
AcDbVisualStyle
  2
3D Hidden
 70
     6
177
     2
291
     0
 71
     1
176
     1
 72
     2
176
     1
 73
     2
176
     1
 90
        0
176
     1
 40
-0.6
176
     1
 41
-30.0
176
     1
 62
     5
 63
     7
421
 16777215
176
     1
 74
     2
176
     1
 91
        2
176
     1
 64
     7
176
     1
 65
   257
176
     1
 75
     2
176
     1
175
     1
176
     1
 42
40.0
176
     1
 92
        0
176
     1
 66
   257
176
     1
 43
1.0
176
     1
 76
     1
176
     1
 77
     6
176
     1
 78
     2
176
     1
 67
     7
176
     1
 79
     3
176
     1
170
     0
176
     1
171
     0
176
     1
290
     0
176
     1
 93
        1
176
     1
 44
0.0
176
     1
173
     0
176
     1
  0
VISUALSTYLE
  5
30
102
{ACAD_REACTORS
330
2A
102
}
330
2A
100
AcDbVisualStyle
  2
3dWireframe
 70
     5
177
     2
291
     0
 71
     0
176
     1
 72
     2
176
     1
 73
     0
176
     1
 90
        0
176
     1
 40
-0.6
176
     1
 41
-30.0
176
     1
 62
     5
 63
     7
421
 16777215
176
     1
 74
     1
176
     1
 91
        4
176
     1
 64
     7
176
     1
 65
   257
176
     1
 75
     1
176
     1
175
     1
176
     1
 42
1.0
176
     1
 92
        0
176
     1
 66
   257
176
     1
 43
1.0
176
     1
 76
     1
176
     1
 77
     6
176
     1
 78
     2
176
     1
 67
     7
176
     1
 79
     5
176
     1
170
     0
176
     1
171
     0
176
     1
290
     0
176
     1
 93
        1
176
     1
 44
0.0
176
     1
173
     0
176
     1
  0
VISUALSTYLE
  5
32
102
{ACAD_REACTORS
330
2A
102
}
330
2A
100
AcDbVisualStyle
  2
Basic
 70
     7
177
     2
291
     1
 71
     1
176
     1
 72
     0
176
     1
 73
     1
176
     1
 90
        0
176
     1
 40
-0.6
176
     1
 41
-30.0
176
     1
 62
     5
 63
     7
421
 16777215
176
     1
 74
     0
176
     1
 91
        4
176
     1
 64
     7
176
     1
 65
   257
176
     1
 75
     1
176
     1
175
     1
176
     1
 42
1.0
176
     1
 92
        8
176
     1
 66
     7
176
     1
 43
1.0
176
     1
 76
     1
176
     1
 77
     6
176
     1
 78
     2
176
     1
 67
     7
176
     1
 79
     5
176
     1
170
     0
176
     1
171
     0
176
     1
290
     0
176
     1
 93
        1
176
     1
 44
0.0
176
     1
173
     0
176
     1
  0
VISUALSTYLE
  5
36
102
{ACAD_REACTORS
330
2A
102
}
330
2A
100
AcDbVisualStyle
  2
Brighten
 70
    12
177
     2
291
     1
 71
     2
176
     1
 72
     2
176
     1
 73
     0
176
     1
 90
        0
176
     1
 40
-0.6
176
     1
 41
-30.0
176
     1
 62
     5
 63
     7
421
 16777215
176
     1
 74
     1
176
     1
 91
        4
176
     1
 64
     7
176
     1
 65
   257
176
     1
 75
     1
176
     1
175
     1
176
     1
 42
1.0
176
     1
 92
        8
176
     1
 66
     7
176
     1
 43
1.0
176
     1
 76
     1
176
     1
 77
     6
176
     1
 78
     2
176
     1
 67
     7
176
     1
 79
     5
176
     1
170
     0
176
     1
171
     0
176
     1
290
     0
176
     1
 93
        1
176
     1
 44
50.0
176
     1
173
     0
176
     1
  0
VISUALSTYLE
  5
3A
102
{ACAD_REACTORS
330
2A
102
}
330
2A
100
AcDbVisualStyle
  2
ColorChange
 70
    16
177
     2
291
     1
 71
     2
176
     1
 72
     2
176
     1
 73
     3
176
     1
 90
        0
176
     1
 40
-0.6
176
     1
 41
-30.0
176
     1
 62
     5
 63
     8
421
  8421504
176
     1
 74
     1
176
     1
 91
        4
176
     1
 64
     7
176
     1
 65
   257
176
     1
 75
     1
176
     1
175
     1
176
     1
 42
1.0
176
     1
 92
        8
176
     1
 66
     8
424
  8421504
176
     1
 43
1.0
176
     1
 76
     1
176
     1
 77
     6
176
     1
 78
     2
176
     1
 67
     7
176
     1
 79
     5
176
     1
170
     0
176
     1
171
     0
176
     1
290
     0
176
     1
 93
        1
176
     1
 44
0.0
176
     1
173
     0
176
     1
  0
VISUALSTYLE
  5
34
102
{ACAD_REACTORS
330
2A
102
}
330
2A
100
AcDbVisualStyle
  2
Conceptual
 70
     9
177
     2
291
     0
 71
     3
176
     1
 72
     2
176
     1
 73
     0
176
     1
 90
        0
176
     1
 40
-0.6
176
     1
 41
-30.0
176
     1
 62
     5
 63
     7
421
 16777215
176
     1
 74
     2
176
     1
 91
        2
176
     1
 64
     7
176
     1
 65
   257
176
     1
 75
     1
176
     1
175
     1
176
     1
 42
40.0
176
     1
 92
        8
176
     1
 66
     7
176
     1
 43
1.0
176
     1
 76
     1
176
     1
 77
     6
176
     1
 78
     2
176
     1
 67
     7
176
     1
 79
     3
176
     1
170
     0
176
     1
171
     0
176
     1
290
     0
176
     1
 93
        1
176
     1
 44
0.0
176
     1
173
     0
176
     1
  0
VISUALSTYLE
  5
35
102
{ACAD_REACTORS
330
2A
102
}
330
2A
100
AcDbVisualStyle
  2
Dim
 70
    11
177
     2
291
     1
 71
     2
176
     1
 72
     2
176
     1
 73
     0
176
     1
 90
        0
176
     1
 40
-0.6
176
     1
 41
-30.0
176
     1
 62
     5
 63
     7
421
 16777215
176
     1
 74
     1
176
     1
 91
        4
176
     1
 64
     7
176
     1
 65
   257
176
     1
 75
     1
176
     1
175
     1
176
     1
 42
1.0
176
     1
 92
        8
176
     1
 66
     7
176
     1
 43
1.0
176
     1
 76
     1
176
     1
 77
     6
176
     1
 78
     2
176
     1
 67
     7
176
     1
 79
     5
176
     1
170
     0
176
     1
171
     0
176
     1
290
     0
176
     1
 93
        1
176
     1
 44
-50.0
176
     1
173
     0
176
     1
  0
VISUALSTYLE
  5
39
102
{ACAD_REACTORS
330
2A
102
}
330
2A
100
AcDbVisualStyle
  2
Facepattern
 70
    15
177
     2
291
     1
 71
     2
176
     1
 72
     2
176
     1
 73
     0
176
     1
 90
        0
176
     1
 40
-0.6
176
     1
 41
-30.0
176
     1
 62
     5
 63
     7
421
 16777215
176
     1
 74
     1
176
     1
 91
        4
176
     1
 64
     7
176
     1
 65
   257
176
     1
 75
     1
176
     1
175
     1
176
     1
 42
1.0
176
     1
 92
        8
176
     1
 66
     7
176
     1
 43
1.0
176
     1
 76
     1
176
     1
 77
     6
176
     1
 78
     2
176
     1
 67
     7
176
     1
 79
     5
176
     1
170
     0
176
     1
171
     0
176
     1
290
     0
176
     1
 93
        1
176
     1
 44
0.0
176
     1
173
     0
176
     1
  0
VISUALSTYLE
  5
2B
102
{ACAD_REACTORS
330
2A
102
}
330
2A
100
AcDbVisualStyle
  2
Flat
 70
     0
177
     2
291
     1
 71
     2
176
     1
 72
     1
176
     1
 73
     1
176
     1
 90
        2
176
     1
 40
-0.6
176
     1
 41
30.0
176
     1
 62
     5
 63
     7
421
 16777215
176
     1
 74
     0
176
     1
 91
        4
176
     1
 64
     7
176
     1
 65
   257
176
     1
 75
     1
176
     1
175
     1
176
     1
 42
1.0
176
     1
 92
        8
176
     1
 66
     7
176
     1
 43
1.0
176
     1
 76
     1
176
     1
 77
     6
176
     1
 78
     2
176
     1
 67
     7
176
     1
 79
     5
176
     1
170
     0
176
     1
171
     0
176
     1
290
     0
176
     1
 93
       13
176
     1
 44
0.0
176
     1
173
     0
176
     1
  0
VISUALSTYLE
  5
2C
102
{ACAD_REACTORS
330
2A
102
}
330
2A
100
AcDbVisualStyle
  2
FlatWithEdges
 70
     1
177
     2
291
     1
 71
     2
176
     1
 72
     1
176
     1
 73
     1
176
     1
 90
        2
176
     1
 40
-0.6
176
     1
 41
30.0
176
     1
 62
     5
 63
     7
421
 16777215
176
     1
 74
     1
176
     1
 91
        4
176
     1
 64
     7
176
     1
 65
   257
176
     1
 75
     1
176
     1
175
     1
176
     1
 42
1.0
176
     1
 92
        0
176
     1
 66
   257
176
     1
 43
1.0
176
     1
 76
     1
176
     1
 77
     6
176
     1
 78
     2
176
     1
 67
     7
176
     1
 79
     5
176
     1
170
     0
176
     1
171
     0
176
     1
290
     0
176
     1
 93
       13
176
     1
 44
0.0
176
     1
173
     0
176
     1
  0
VISUALSTYLE
  5
2D
102
{ACAD_REACTORS
330
2A
102
}
330
2A
100
AcDbVisualStyle
  2
Gouraud
 70
     2
177
     2
291
     1
 71
     2
176
     1
 72
     2
176
     1
 73
     1
176
     1
 90
        2
176
     1
 40
-0.6
176
     1
 41
30.0
176
     1
 62
     5
 63
     7
421
 16777215
176
     1
 74
     0
176
     1
 91
        4
176
     1
 64
     7
176
     1
 65
   257
176
     1
 75
     1
176
     1
175
     1
176
     1
 42
1.0
176
     1
 92
        0
176
     1
 66
     7
176
     1
 43
1.0
176
     1
 76
     1
176
     1
 77
     6
176
     1
 78
     2
176
     1
 67
     7
176
     1
 79
     5
176
     1
170
     0
176
     1
171
     0
176
     1
290
     0
176
     1
 93
       13
176
     1
 44
0.0
176
     1
173
     0
176
     1
  0
VISUALSTYLE
  5
2E
102
{ACAD_REACTORS
330
2A
102
}
330
2A
100
AcDbVisualStyle
  2
GouraudWithEdges
 70
     3
177
     2
291
     1
 71
     2
176
     1
 72
     2
176
     1
 73
     1
176
     1
 90
        2
176
     1
 40
-0.6
176
     1
 41
30.0
176
     1
 62
     5
 63
     7
421
 16777215
176
     1
 74
     1
176
     1
 91
        4
176
     1
 64
     7
176
     1
 65
   257
176
     1
 75
     1
176
     1
175
     1
176
     1
 42
1.0
176
     1
 92
        0
176
     1
 66
   257
176
     1
 43
1.0
176
     1
 76
     1
176
     1
 77
     6
176
     1
 78
     2
176
     1
 67
     7
176
     1
 79
     5
176
     1
170
     0
176
     1
171
     0
176
     1
290
     0
176
     1
 93
       13
176
     1
 44
0.0
176
     1
173
     0
176
     1
  0
VISUALSTYLE
  5
38
102
{ACAD_REACTORS
330
2A
102
}
330
2A
100
AcDbVisualStyle
  2
Linepattern
 70
    14
177
     2
291
     1
 71
     2
176
     1
 72
     2
176
     1
 73
     0
176
     1
 90
        0
176
     1
 40
-0.6
176
     1
 41
-30.0
176
     1
 62
     5
 63
     7
421
 16777215
176
     1
 74
     1
176
     1
 91
        4
176
     1
 64
     7
176
     1
 65
   257
176
     1
 75
     7
176
     1
175
     7
176
     1
 42
1.0
176
     1
 92
        8
176
     1
 66
     7
176
     1
 43
1.0
176
     1
 76
     1
176
     1
 77
     6
176
     1
 78
     2
176
     1
 67
     7
176
     1
 79
     5
176
     1
170
     0
176
     1
171
     0
176
     1
290
     0
176
     1
 93
        1
176
     1
 44
0.0
176
     1
173
     0
176
     1
  0
VISUALSTYLE
  5
33
102
{ACAD_REACTORS
330
2A
102
}
330
2A
100
AcDbVisualStyle
  2
Realistic
 70
     8
177
     2
291
     0
 71
     2
176
     1
 72
     2
176
     1
 73
     0
176
     1
 90
        0
176
     1
 40
-0.6
176
     1
 41
-30.0
176
     1
 62
     5
 63
     7
421
 16777215
176
     1
 74
     1
176
     1
 91
        0
176
     1
 64
     7
176
     1
 65
   257
176
     1
 75
     1
176
     1
175
     1
176
     1
 42
1.0
176
     1
 92
        8
176
     1
 66
     8
424
  7895160
176
     1
 43
1.0
176
     1
 76
     1
176
     1
 77
     6
176
     1
 78
     2
176
     1
 67
     7
176
     1
 79
     5
176
     1
170
     0
176
     1
171
     0
176
     1
290
     0
176
     1
 93
       13
176
     1
 44
0.0
176
     1
173
     0
176
     1
  0
VISUALSTYLE
  5
37
102
{ACAD_REACTORS
330
2A
102
}
330
2A
100
AcDbVisualStyle
  2
Thicken
 70
    13
177
     2
291
     1
 71
     2
176
     1
 72
     2
176
     1
 73
     0
176
     1
 90
        0
176
     1
 40
-0.6
176
     1
 41
-30.0
176
     1
 62
     5
 63
     7
421
 16777215
176
     1
 74
     1
176
     1
 91
        4
176
     1
 64
     7
176
     1
 65
   257
176
     1
 75
     1
176
     1
175
     1
176
     1
 42
1.0
176
     1
 92
       12
176
     1
 66
     7
176
     1
 43
1.0
176
     1
 76
     1
176
     1
 77
     6
176
     1
 78
     2
176
     1
 67
     7
176
     1
 79
     5
176
     1
170
     0
176
     1
171
     0
176
     1
290
     0
176
     1
 93
        1
176
     1
 44
0.0
176
     1
173
     0
176
     1
  0
ENDSEC
  0
EOF
