  0
SECTION
  2
HEADER
  9
$ACADVER
  1
AC1009
  9
$EXTMIN
 10
0.0
 20
0.0
 30
0.0
  9
$EXTMAX
 10
1000.0
 20
1000.0
 30
0.0
  9
$FILLMODE
 70
 0
  9
$SPLFRAME
 70
 1
  0
ENDSEC
  0
SECTION
  2
TABLES
  0
TABLE
  2
LAYER
 70
1
  0
LAYER
  2
0
 70
     0
 62
     7
  6
CONTINUOUS
  0
ENDTAB
  0
ENDSEC
  0
SECTION
  2
ENTITIES
  0
POLYLINE
  8
0
 62
     0
 66
     1
 10
0
 20
0
 30
0.0
 70
     1
 40
24
 41
24
  0
VERTEX
  8
0
 10
207.176
 20
682.814
 30
0.0
 40
0.333333
 41
0.333333
  0
VERTEX
  8
0
 10
207.176
 20
682.775
 30
0.0
 40
0.333333
 41
0.333333
  0
VERTEX
  8
0
 10
207.169
 20
682.661
 30
0.0
 40
0.333333
 41
0.333333
  0
VERTEX
  8
0
 10
207.146
 20
682.511
 30
0.0
 40
0.333333
 41
0.333333
  0
VERTEX
  8
0
 10
207.11
 20
682.368
 30
0.0
 40
0.333333
 41
0.333333
  0
VERTEX
  8
0
 10
207.058
 20
682.231
 30
0.0
 40
0.333333
 41
0.333333
  0
VERTEX
  8
0
 10
206.996
 20
682.099
 30
0.0
 40
0.333333
 41
0.333333
  0
VERTEX
  8
0
 10
206.921
 20
681.975
 30
0.0
 40
0.333333
 41
0.333333
  0
VERTEX
  8
0
 10
206.835
 20
681.86
 30
0.0
 40
0.333333
 41
0.333333
  0
VERTEX
  8
0
 10
206.737
 20
681.753
 30
0.0
 40
0.333333
 41
0.333333
  0
VERTEX
  8
0
 10
206.631
 20
681.657
 30
0.0
 40
0.333333
 41
0.333333
  0
VERTEX
  8
0
 10
206.515
 20
681.571
 30
0.0
 40
0.333333
 41
0.333333
  0
VERTEX
  8
0
 10
206.392
 20
681.494
 30
0.0
 40
0.333333
 41
0.333333
  0
VERTEX
  8
0
 10
206.261
 20
681.432
 30
0.0
 40
0.333333
 41
0.333333
  0
VERTEX
  8
0
 10
206.122
 20
681.382
 30
0.0
 40
0.333333
 41
0.333333
  0
VERTEX
  8
0
 10
205.979
 20
681.344
 30
0.0
 40
0.333333
 41
0.333333
  0
VERTEX
  8
0
 10
205.831
 20
681.322
 30
0.0
 40
0.333333
 41
0.333333
  0
VERTEX
  8
0
 10
205.715
 20
681.314
 30
0.0
 40
0.333333
 41
0.333333
  0
VERTEX
  8
0
 10
205.676
 20
681.314
 30
0.0
 40
0.333333
 41
0.333333
  0
VERTEX
  8
0
 10
205.639
 20
681.314
 30
0.0
 40
0.333333
 41
0.333333
  0
VERTEX
  8
0
 10
205.524
 20
681.322
 30
0.0
 40
0.333333
 41
0.333333
  0
VERTEX
  8
0
 10
205.375
 20
681.344
 30
0.0
 40
0.333333
 41
0.333333
  0
VERTEX
  8
0
 10
205.231
 20
681.382
 30
0.0
 40
0.333333
 41
0.333333
  0
VERTEX
  8
0
 10
205.093
 20
681.432
 30
0.0
 40
0.333333
 41
0.333333
  0
VERTEX
  8
0
 10
204.961
 20
681.494
 30
0.0
 40
0.333333
 41
0.333333
  0
VERTEX
  8
0
 10
204.837
 20
681.571
 30
0.0
 40
0.333333
 41
0.333333
  0
VERTEX
  8
0
 10
204.722
 20
681.657
 30
0.0
 40
0.333333
 41
0.333333
  0
VERTEX
  8
0
 10
204.617
 20
681.753
 30
0.0
 40
0.333333
 41
0.333333
  0
VERTEX
  8
0
 10
204.519
 20
681.86
 30
0.0
 40
0.333333
 41
0.333333
  0
VERTEX
  8
0
 10
204.433
 20
681.975
 30
0.0
 40
0.333333
 41
0.333333
  0
VERTEX
  8
0
 10
204.358
 20
682.099
 30
0.0
 40
0.333333
 41
0.333333
  0
VERTEX
  8
0
 10
204.294
 20
682.231
 30
0.0
 40
0.333333
 41
0.333333
  0
VERTEX
  8
0
 10
204.244
 20
682.368
 30
0.0
 40
0.333333
 41
0.333333
  0
VERTEX
  8
0
 10
204.207
 20
682.511
 30
0.0
 40
0.333333
 41
0.333333
  0
VERTEX
  8
0
 10
204.185
 20
682.661
 30
0.0
 40
0.333333
 41
0.333333
  0
VERTEX
  8
0
 10
204.176
 20
682.775
 30
0.0
 40
0.333333
 41
0.333333
  0
VERTEX
  8
0
 10
204.176
 20
682.814
 30
0.0
 40
0.333333
 41
0.333333
  0
VERTEX
  8
0
 10
204.176
 20
682.853
 30
0.0
 40
0.333333
 41
0.333333
  0
VERTEX
  8
0
 10
204.185
 20
682.967
 30
0.0
 40
0.333333
 41
0.333333
  0
VERTEX
  8
0
 10
204.207
 20
683.117
 30
0.0
 40
0.333333
 41
0.333333
  0
VERTEX
  8
0
 10
204.244
 20
683.26
 30
0.0
 40
0.333333
 41
0.333333
  0
VERTEX
  8
0
 10
204.294
 20
683.397
 30
0.0
 40
0.333333
 41
0.333333
  0
VERTEX
  8
0
 10
204.358
 20
683.529
 30
0.0
 40
0.333333
 41
0.333333
  0
VERTEX
  8
0
 10
204.433
 20
683.653
 30
0.0
 40
0.333333
 41
0.333333
  0
VERTEX
  8
0
 10
204.519
 20
683.768
 30
0.0
 40
0.333333
 41
0.333333
  0
VERTEX
  8
0
 10
204.617
 20
683.875
 30
0.0
 40
0.333333
 41
0.333333
  0
VERTEX
  8
0
 10
204.722
 20
683.971
 30
0.0
 40
0.333333
 41
0.333333
  0
VERTEX
  8
0
 10
204.837
 20
684.058
 30
0.0
 40
0.333333
 41
0.333333
  0
VERTEX
  8
0
 10
204.961
 20
684.133
 30
0.0
 40
0.333333
 41
0.333333
  0
VERTEX
  8
0
 10
205.093
 20
684.196
 30
0.0
 40
0.333333
 41
0.333333
  0
VERTEX
  8
0
 10
205.231
 20
684.247
 30
0.0
 40
0.333333
 41
0.333333
  0
VERTEX
  8
0
 10
205.375
 20
684.283
 30
0.0
 40
0.333333
 41
0.333333
  0
VERTEX
  8
0
 10
205.524
 20
684.307
 30
0.0
 40
0.333333
 41
0.333333
  0
VERTEX
  8
0
 10
205.639
 20
684.314
 30
0.0
 40
0.333333
 41
0.333333
  0
VERTEX
  8
0
 10
205.676
 20
684.314
 30
0.0
 40
0.333333
 41
0.333333
  0
VERTEX
  8
0
 10
205.715
 20
684.314
 30
0.0
 40
0.333333
 41
0.333333
  0
VERTEX
  8
0
 10
205.831
 20
684.307
 30
0.0
 40
0.333333
 41
0.333333
  0
VERTEX
  8
0
 10
205.979
 20
684.283
 30
0.0
 40
0.333333
 41
0.333333
  0
VERTEX
  8
0
 10
206.122
 20
684.247
 30
0.0
 40
0.333333
 41
0.333333
  0
VERTEX
  8
0
 10
206.261
 20
684.196
 30
0.0
 40
0.333333
 41
0.333333
  0
VERTEX
  8
0
 10
206.392
 20
684.133
 30
0.0
 40
0.333333
 41
0.333333
  0
VERTEX
  8
0
 10
206.515
 20
684.058
 30
0.0
 40
0.333333
 41
0.333333
  0
VERTEX
  8
0
 10
206.631
 20
683.971
 30
0.0
 40
0.333333
 41
0.333333
  0
VERTEX
  8
0
 10
206.737
 20
683.875
 30
0.0
 40
0.333333
 41
0.333333
  0
VERTEX
  8
0
 10
206.835
 20
683.768
 30
0.0
 40
0.333333
 41
0.333333
  0
VERTEX
  8
0
 10
206.921
 20
683.653
 30
0.0
 40
0.333333
 41
0.333333
  0
VERTEX
  8
0
 10
206.996
 20
683.529
 30
0.0
 40
0.333333
 41
0.333333
  0
VERTEX
  8
0
 10
207.058
 20
683.397
 30
0.0
 40
0.333333
 41
0.333333
  0
VERTEX
  8
0
 10
207.11
 20
683.26
 30
0.0
 40
0.333333
 41
0.333333
  0
VERTEX
  8
0
 10
207.146
 20
683.117
 30
0.0
 40
0.333333
 41
0.333333
  0
VERTEX
  8
0
 10
207.169
 20
682.967
 30
0.0
 40
0.333333
 41
0.333333
  0
VERTEX
  8
0
 10
207.176
 20
682.853
 30
0.0
 40
0.333333
 41
0.333333
  0
VERTEX
  8
0
 10
207.176
 20
682.814
 30
0.0
 40
0.333333
 41
0.333333
  0
SEQEND
 8
0
  0
POLYLINE
  8
0
 62
     0
 66
     1
 10
0
 20
0
 30
0.0
 70
     1
 40
24
 41
24
  0
VERTEX
  8
0
 10
222.926
 20
682.814
 30
0.0
 40
0.333333
 41
0.333333
  0
VERTEX
  8
0
 10
222.926
 20
682.775
 30
0.0
 40
0.333333
 41
0.333333
  0
VERTEX
  8
0
 10
222.919
 20
682.661
 30
0.0
 40
0.333333
 41
0.333333
  0
VERTEX
  8
0
 10
222.896
 20
682.511
 30
0.0
 40
0.333333
 41
0.333333
  0
VERTEX
  8
0
 10
222.86
 20
682.368
 30
0.0
 40
0.333333
 41
0.333333
  0
VERTEX
  8
0
 10
222.808
 20
682.231
 30
0.0
 40
0.333333
 41
0.333333
  0
VERTEX
  8
0
 10
222.746
 20
682.099
 30
0.0
 40
0.333333
 41
0.333333
  0
VERTEX
  8
0
 10
222.671
 20
681.975
 30
0.0
 40
0.333333
 41
0.333333
  0
VERTEX
  8
0
 10
222.585
 20
681.86
 30
0.0
 40
0.333333
 41
0.333333
  0
VERTEX
  8
0
 10
222.487
 20
681.753
 30
0.0
 40
0.333333
 41
0.333333
  0
VERTEX
  8
0
 10
222.381
 20
681.657
 30
0.0
 40
0.333333
 41
0.333333
  0
VERTEX
  8
0
 10
222.265
 20
681.571
 30
0.0
 40
0.333333
 41
0.333333
  0
VERTEX
  8
0
 10
222.142
 20
681.494
 30
0.0
 40
0.333333
 41
0.333333
  0
VERTEX
  8
0
 10
222.011
 20
681.432
 30
0.0
 40
0.333333
 41
0.333333
  0
VERTEX
  8
0
 10
221.872
 20
681.382
 30
0.0
 40
0.333333
 41
0.333333
  0
VERTEX
  8
0
 10
221.729
 20
681.344
 30
0.0
 40
0.333333
 41
0.333333
  0
VERTEX
  8
0
 10
221.581
 20
681.322
 30
0.0
 40
0.333333
 41
0.333333
  0
VERTEX
  8
0
 10
221.465
 20
681.314
 30
0.0
 40
0.333333
 41
0.333333
  0
VERTEX
  8
0
 10
221.426
 20
681.314
 30
0.0
 40
0.333333
 41
0.333333
  0
VERTEX
  8
0
 10
221.389
 20
681.314
 30
0.0
 40
0.333333
 41
0.333333
  0
VERTEX
  8
0
 10
221.274
 20
681.322
 30
0.0
 40
0.333333
 41
0.333333
  0
VERTEX
  8
0
 10
221.125
 20
681.344
 30
0.0
 40
0.333333
 41
0.333333
  0
VERTEX
  8
0
 10
220.981
 20
681.382
 30
0.0
 40
0.333333
 41
0.333333
  0
VERTEX
  8
0
 10
220.843
 20
681.432
 30
0.0
 40
0.333333
 41
0.333333
  0
VERTEX
  8
0
 10
220.711
 20
681.494
 30
0.0
 40
0.333333
 41
0.333333
  0
VERTEX
  8
0
 10
220.587
 20
681.571
 30
0.0
 40
0.333333
 41
0.333333
  0
VERTEX
  8
0
 10
220.472
 20
681.657
 30
0.0
 40
0.333333
 41
0.333333
  0
VERTEX
  8
0
 10
220.367
 20
681.753
 30
0.0
 40
0.333333
 41
0.333333
  0
VERTEX
  8
0
 10
220.269
 20
681.86
 30
0.0
 40
0.333333
 41
0.333333
  0
VERTEX
  8
0
 10
220.183
 20
681.975
 30
0.0
 40
0.333333
 41
0.333333
  0
VERTEX
  8
0
 10
220.108
 20
682.099
 30
0.0
 40
0.333333
 41
0.333333
  0
VERTEX
  8
0
 10
220.044
 20
682.231
 30
0.0
 40
0.333333
 41
0.333333
  0
VERTEX
  8
0
 10
219.994
 20
682.368
 30
0.0
 40
0.333333
 41
0.333333
  0
VERTEX
  8
0
 10
219.957
 20
682.511
 30
0.0
 40
0.333333
 41
0.333333
  0
VERTEX
  8
0
 10
219.935
 20
682.661
 30
0.0
 40
0.333333
 41
0.333333
  0
VERTEX
  8
0
 10
219.926
 20
682.775
 30
0.0
 40
0.333333
 41
0.333333
  0
VERTEX
  8
0
 10
219.926
 20
682.814
 30
0.0
 40
0.333333
 41
0.333333
  0
VERTEX
  8
0
 10
219.926
 20
682.853
 30
0.0
 40
0.333333
 41
0.333333
  0
VERTEX
  8
0
 10
219.935
 20
682.967
 30
0.0
 40
0.333333
 41
0.333333
  0
VERTEX
  8
0
 10
219.957
 20
683.117
 30
0.0
 40
0.333333
 41
0.333333
  0
VERTEX
  8
0
 10
219.994
 20
683.26
 30
0.0
 40
0.333333
 41
0.333333
  0
VERTEX
  8
0
 10
220.044
 20
683.397
 30
0.0
 40
0.333333
 41
0.333333
  0
VERTEX
  8
0
 10
220.108
 20
683.529
 30
0.0
 40
0.333333
 41
0.333333
  0
VERTEX
  8
0
 10
220.183
 20
683.653
 30
0.0
 40
0.333333
 41
0.333333
  0
VERTEX
  8
0
 10
220.269
 20
683.768
 30
0.0
 40
0.333333
 41
0.333333
  0
VERTEX
  8
0
 10
220.367
 20
683.875
 30
0.0
 40
0.333333
 41
0.333333
  0
VERTEX
  8
0
 10
220.472
 20
683.971
 30
0.0
 40
0.333333
 41
0.333333
  0
VERTEX
  8
0
 10
220.587
 20
684.058
 30
0.0
 40
0.333333
 41
0.333333
  0
VERTEX
  8
0
 10
220.711
 20
684.133
 30
0.0
 40
0.333333
 41
0.333333
  0
VERTEX
  8
0
 10
220.843
 20
684.196
 30
0.0
 40
0.333333
 41
0.333333
  0
VERTEX
  8
0
 10
220.981
 20
684.247
 30
0.0
 40
0.333333
 41
0.333333
  0
VERTEX
  8
0
 10
221.125
 20
684.283
 30
0.0
 40
0.333333
 41
0.333333
  0
VERTEX
  8
0
 10
221.274
 20
684.307
 30
0.0
 40
0.333333
 41
0.333333
  0
VERTEX
  8
0
 10
221.389
 20
684.314
 30
0.0
 40
0.333333
 41
0.333333
  0
VERTEX
  8
0
 10
221.426
 20
684.314
 30
0.0
 40
0.333333
 41
0.333333
  0
VERTEX
  8
0
 10
221.465
 20
684.314
 30
0.0
 40
0.333333
 41
0.333333
  0
VERTEX
  8
0
 10
221.581
 20
684.307
 30
0.0
 40
0.333333
 41
0.333333
  0
VERTEX
  8
0
 10
221.729
 20
684.283
 30
0.0
 40
0.333333
 41
0.333333
  0
VERTEX
  8
0
 10
221.872
 20
684.247
 30
0.0
 40
0.333333
 41
0.333333
  0
VERTEX
  8
0
 10
222.011
 20
684.196
 30
0.0
 40
0.333333
 41
0.333333
  0
VERTEX
  8
0
 10
222.142
 20
684.133
 30
0.0
 40
0.333333
 41
0.333333
  0
VERTEX
  8
0
 10
222.265
 20
684.058
 30
0.0
 40
0.333333
 41
0.333333
  0
VERTEX
  8
0
 10
222.381
 20
683.971
 30
0.0
 40
0.333333
 41
0.333333
  0
VERTEX
  8
0
 10
222.487
 20
683.875
 30
0.0
 40
0.333333
 41
0.333333
  0
VERTEX
  8
0
 10
222.585
 20
683.768
 30
0.0
 40
0.333333
 41
0.333333
  0
VERTEX
  8
0
 10
222.671
 20
683.653
 30
0.0
 40
0.333333
 41
0.333333
  0
VERTEX
  8
0
 10
222.746
 20
683.529
 30
0.0
 40
0.333333
 41
0.333333
  0
VERTEX
  8
0
 10
222.808
 20
683.397
 30
0.0
 40
0.333333
 41
0.333333
  0
VERTEX
  8
0
 10
222.86
 20
683.26
 30
0.0
 40
0.333333
 41
0.333333
  0
VERTEX
  8
0
 10
222.896
 20
683.117
 30
0.0
 40
0.333333
 41
0.333333
  0
VERTEX
  8
0
 10
222.919
 20
682.967
 30
0.0
 40
0.333333
 41
0.333333
  0
VERTEX
  8
0
 10
222.926
 20
682.853
 30
0.0
 40
0.333333
 41
0.333333
  0
VERTEX
  8
0
 10
222.926
 20
682.814
 30
0.0
 40
0.333333
 41
0.333333
  0
SEQEND
 8
0
  0
POLYLINE
  8
0
 62
     0
 66
     1
 10
0
 20
0
 30
0.0
 70
     1
 40
24
 41
24
  0
VERTEX
  8
0
 10
511.978
 20
682.814
 30
0.0
 40
0.333333
 41
0.333333
  0
VERTEX
  8
0
 10
511.978
 20
682.775
 30
0.0
 40
0.333333
 41
0.333333
  0
VERTEX
  8
0
 10
511.969
 20
682.661
 30
0.0
 40
0.333333
 41
0.333333
  0
VERTEX
  8
0
 10
511.947
 20
682.511
 30
0.0
 40
0.333333
 41
0.333333
  0
VERTEX
  8
0
 10
511.91
 20
682.368
 30
0.0
 40
0.333333
 41
0.333333
  0
VERTEX
  8
0
 10
511.86
 20
682.231
 30
0.0
 40
0.333333
 41
0.333333
  0
VERTEX
  8
0
 10
511.796
 20
682.099
 30
0.0
 40
0.333333
 41
0.333333
  0
VERTEX
  8
0
 10
511.721
 20
681.975
 30
0.0
 40
0.333333
 41
0.333333
  0
VERTEX
  8
0
 10
511.635
 20
681.86
 30
0.0
 40
0.333333
 41
0.333333
  0
VERTEX
  8
0
 10
511.537
 20
681.753
 30
0.0
 40
0.333333
 41
0.333333
  0
VERTEX
  8
0
 10
511.432
 20
681.657
 30
0.0
 40
0.333333
 41
0.333333
  0
VERTEX
  8
0
 10
511.315
 20
681.571
 30
0.0
 40
0.333333
 41
0.333333
  0
VERTEX
  8
0
 10
511.192
 20
681.494
 30
0.0
 40
0.333333
 41
0.333333
  0
VERTEX
  8
0
 10
511.061
 20
681.432
 30
0.0
 40
0.333333
 41
0.333333
  0
VERTEX
  8
0
 10
510.924
 20
681.382
 30
0.0
 40
0.333333
 41
0.333333
  0
VERTEX
  8
0
 10
510.779
 20
681.344
 30
0.0
 40
0.333333
 41
0.333333
  0
VERTEX
  8
0
 10
510.631
 20
681.322
 30
0.0
 40
0.333333
 41
0.333333
  0
VERTEX
  8
0
 10
510.515
 20
681.314
 30
0.0
 40
0.333333
 41
0.333333
  0
VERTEX
  8
0
 10
510.478
 20
681.314
 30
0.0
 40
0.333333
 41
0.333333
  0
VERTEX
  8
0
 10
510.439
 20
681.314
 30
0.0
 40
0.333333
 41
0.333333
  0
VERTEX
  8
0
 10
510.324
 20
681.322
 30
0.0
 40
0.333333
 41
0.333333
  0
VERTEX
  8
0
 10
510.175
 20
681.344
 30
0.0
 40
0.333333
 41
0.333333
  0
VERTEX
  8
0
 10
510.031
 20
681.382
 30
0.0
 40
0.333333
 41
0.333333
  0
VERTEX
  8
0
 10
509.893
 20
681.432
 30
0.0
 40
0.333333
 41
0.333333
  0
VERTEX
  8
0
 10
509.762
 20
681.494
 30
0.0
 40
0.333333
 41
0.333333
  0
VERTEX
  8
0
 10
509.639
 20
681.571
 30
0.0
 40
0.333333
 41
0.333333
  0
VERTEX
  8
0
 10
509.524
 20
681.657
 30
0.0
 40
0.333333
 41
0.333333
  0
VERTEX
  8
0
 10
509.417
 20
681.753
 30
0.0
 40
0.333333
 41
0.333333
  0
VERTEX
  8
0
 10
509.319
 20
681.86
 30
0.0
 40
0.333333
 41
0.333333
  0
VERTEX
  8
0
 10
509.233
 20
681.975
 30
0.0
 40
0.333333
 41
0.333333
  0
VERTEX
  8
0
 10
509.158
 20
682.099
 30
0.0
 40
0.333333
 41
0.333333
  0
VERTEX
  8
0
 10
509.094
 20
682.231
 30
0.0
 40
0.333333
 41
0.333333
  0
VERTEX
  8
0
 10
509.044
 20
682.368
 30
0.0
 40
0.333333
 41
0.333333
  0
VERTEX
  8
0
 10
509.007
 20
682.511
 30
0.0
 40
0.333333
 41
0.333333
  0
VERTEX
  8
0
 10
508.985
 20
682.661
 30
0.0
 40
0.333333
 41
0.333333
  0
VERTEX
  8
0
 10
508.978
 20
682.775
 30
0.0
 40
0.333333
 41
0.333333
  0
VERTEX
  8
0
 10
508.978
 20
682.814
 30
0.0
 40
0.333333
 41
0.333333
  0
VERTEX
  8
0
 10
508.978
 20
682.853
 30
0.0
 40
0.333333
 41
0.333333
  0
VERTEX
  8
0
 10
508.985
 20
682.967
 30
0.0
 40
0.333333
 41
0.333333
  0
VERTEX
  8
0
 10
509.007
 20
683.117
 30
0.0
 40
0.333333
 41
0.333333
  0
VERTEX
  8
0
 10
509.044
 20
683.26
 30
0.0
 40
0.333333
 41
0.333333
  0
VERTEX
  8
0
 10
509.094
 20
683.397
 30
0.0
 40
0.333333
 41
0.333333
  0
VERTEX
  8
0
 10
509.158
 20
683.529
 30
0.0
 40
0.333333
 41
0.333333
  0
VERTEX
  8
0
 10
509.233
 20
683.653
 30
0.0
 40
0.333333
 41
0.333333
  0
VERTEX
  8
0
 10
509.319
 20
683.768
 30
0.0
 40
0.333333
 41
0.333333
  0
VERTEX
  8
0
 10
509.417
 20
683.875
 30
0.0
 40
0.333333
 41
0.333333
  0
VERTEX
  8
0
 10
509.524
 20
683.971
 30
0.0
 40
0.333333
 41
0.333333
  0
VERTEX
  8
0
 10
509.639
 20
684.058
 30
0.0
 40
0.333333
 41
0.333333
  0
VERTEX
  8
0
 10
509.762
 20
684.133
 30
0.0
 40
0.333333
 41
0.333333
  0
VERTEX
  8
0
 10
509.893
 20
684.196
 30
0.0
 40
0.333333
 41
0.333333
  0
VERTEX
  8
0
 10
510.031
 20
684.247
 30
0.0
 40
0.333333
 41
0.333333
  0
VERTEX
  8
0
 10
510.175
 20
684.283
 30
0.0
 40
0.333333
 41
0.333333
  0
VERTEX
  8
0
 10
510.324
 20
684.307
 30
0.0
 40
0.333333
 41
0.333333
  0
VERTEX
  8
0
 10
510.439
 20
684.314
 30
0.0
 40
0.333333
 41
0.333333
  0
VERTEX
  8
0
 10
510.478
 20
684.314
 30
0.0
 40
0.333333
 41
0.333333
  0
VERTEX
  8
0
 10
510.515
 20
684.314
 30
0.0
 40
0.333333
 41
0.333333
  0
VERTEX
  8
0
 10
510.631
 20
684.307
 30
0.0
 40
0.333333
 41
0.333333
  0
VERTEX
  8
0
 10
510.779
 20
684.283
 30
0.0
 40
0.333333
 41
0.333333
  0
VERTEX
  8
0
 10
510.924
 20
684.247
 30
0.0
 40
0.333333
 41
0.333333
  0
VERTEX
  8
0
 10
511.061
 20
684.196
 30
0.0
 40
0.333333
 41
0.333333
  0
VERTEX
  8
0
 10
511.192
 20
684.133
 30
0.0
 40
0.333333
 41
0.333333
  0
VERTEX
  8
0
 10
511.315
 20
684.058
 30
0.0
 40
0.333333
 41
0.333333
  0
VERTEX
  8
0
 10
511.432
 20
683.971
 30
0.0
 40
0.333333
 41
0.333333
  0
VERTEX
  8
0
 10
511.537
 20
683.875
 30
0.0
 40
0.333333
 41
0.333333
  0
VERTEX
  8
0
 10
511.635
 20
683.768
 30
0.0
 40
0.333333
 41
0.333333
  0
VERTEX
  8
0
 10
511.721
 20
683.653
 30
0.0
 40
0.333333
 41
0.333333
  0
VERTEX
  8
0
 10
511.796
 20
683.529
 30
0.0
 40
0.333333
 41
0.333333
  0
VERTEX
  8
0
 10
511.86
 20
683.397
 30
0.0
 40
0.333333
 41
0.333333
  0
VERTEX
  8
0
 10
511.91
 20
683.26
 30
0.0
 40
0.333333
 41
0.333333
  0
VERTEX
  8
0
 10
511.947
 20
683.117
 30
0.0
 40
0.333333
 41
0.333333
  0
VERTEX
  8
0
 10
511.969
 20
682.967
 30
0.0
 40
0.333333
 41
0.333333
  0
VERTEX
  8
0
 10
511.978
 20
682.853
 30
0.0
 40
0.333333
 41
0.333333
  0
VERTEX
  8
0
 10
511.978
 20
682.814
 30
0.0
 40
0.333333
 41
0.333333
  0
SEQEND
 8
0
  0
POLYLINE
  8
0
 62
     0
 66
     1
 10
0
 20
0
 30
0.0
 70
     1
 40
24
 41
24
  0
VERTEX
  8
0
 10
527.728
 20
682.814
 30
0.0
 40
0.333333
 41
0.333333
  0
VERTEX
  8
0
 10
527.728
 20
682.775
 30
0.0
 40
0.333333
 41
0.333333
  0
VERTEX
  8
0
 10
527.719
 20
682.661
 30
0.0
 40
0.333333
 41
0.333333
  0
VERTEX
  8
0
 10
527.697
 20
682.511
 30
0.0
 40
0.333333
 41
0.333333
  0
VERTEX
  8
0
 10
527.66
 20
682.368
 30
0.0
 40
0.333333
 41
0.333333
  0
VERTEX
  8
0
 10
527.61
 20
682.231
 30
0.0
 40
0.333333
 41
0.333333
  0
VERTEX
  8
0
 10
527.546
 20
682.099
 30
0.0
 40
0.333333
 41
0.333333
  0
VERTEX
  8
0
 10
527.471
 20
681.975
 30
0.0
 40
0.333333
 41
0.333333
  0
VERTEX
  8
0
 10
527.385
 20
681.86
 30
0.0
 40
0.333333
 41
0.333333
  0
VERTEX
  8
0
 10
527.287
 20
681.753
 30
0.0
 40
0.333333
 41
0.333333
  0
VERTEX
  8
0
 10
527.182
 20
681.657
 30
0.0
 40
0.333333
 41
0.333333
  0
VERTEX
  8
0
 10
527.065
 20
681.571
 30
0.0
 40
0.333333
 41
0.333333
  0
VERTEX
  8
0
 10
526.942
 20
681.494
 30
0.0
 40
0.333333
 41
0.333333
  0
VERTEX
  8
0
 10
526.811
 20
681.432
 30
0.0
 40
0.333333
 41
0.333333
  0
VERTEX
  8
0
 10
526.674
 20
681.382
 30
0.0
 40
0.333333
 41
0.333333
  0
VERTEX
  8
0
 10
526.529
 20
681.344
 30
0.0
 40
0.333333
 41
0.333333
  0
VERTEX
  8
0
 10
526.381
 20
681.322
 30
0.0
 40
0.333333
 41
0.333333
  0
VERTEX
  8
0
 10
526.265
 20
681.314
 30
0.0
 40
0.333333
 41
0.333333
  0
VERTEX
  8
0
 10
526.228
 20
681.314
 30
0.0
 40
0.333333
 41
0.333333
  0
VERTEX
  8
0
 10
526.189
 20
681.314
 30
0.0
 40
0.333333
 41
0.333333
  0
VERTEX
  8
0
 10
526.074
 20
681.322
 30
0.0
 40
0.333333
 41
0.333333
  0
VERTEX
  8
0
 10
525.925
 20
681.344
 30
0.0
 40
0.333333
 41
0.333333
  0
VERTEX
  8
0
 10
525.781
 20
681.382
 30
0.0
 40
0.333333
 41
0.333333
  0
VERTEX
  8
0
 10
525.643
 20
681.432
 30
0.0
 40
0.333333
 41
0.333333
  0
VERTEX
  8
0
 10
525.512
 20
681.494
 30
0.0
 40
0.333333
 41
0.333333
  0
VERTEX
  8
0
 10
525.389
 20
681.571
 30
0.0
 40
0.333333
 41
0.333333
  0
VERTEX
  8
0
 10
525.274
 20
681.657
 30
0.0
 40
0.333333
 41
0.333333
  0
VERTEX
  8
0
 10
525.167
 20
681.753
 30
0.0
 40
0.333333
 41
0.333333
  0
VERTEX
  8
0
 10
525.069
 20
681.86
 30
0.0
 40
0.333333
 41
0.333333
  0
VERTEX
  8
0
 10
524.983
 20
681.975
 30
0.0
 40
0.333333
 41
0.333333
  0
VERTEX
  8
0
 10
524.908
 20
682.099
 30
0.0
 40
0.333333
 41
0.333333
  0
VERTEX
  8
0
 10
524.844
 20
682.231
 30
0.0
 40
0.333333
 41
0.333333
  0
VERTEX
  8
0
 10
524.794
 20
682.368
 30
0.0
 40
0.333333
 41
0.333333
  0
VERTEX
  8
0
 10
524.758
 20
682.511
 30
0.0
 40
0.333333
 41
0.333333
  0
VERTEX
  8
0
 10
524.735
 20
682.661
 30
0.0
 40
0.333333
 41
0.333333
  0
VERTEX
  8
0
 10
524.728
 20
682.775
 30
0.0
 40
0.333333
 41
0.333333
  0
VERTEX
  8
0
 10
524.728
 20
682.814
 30
0.0
 40
0.333333
 41
0.333333
  0
VERTEX
  8
0
 10
524.728
 20
682.853
 30
0.0
 40
0.333333
 41
0.333333
  0
VERTEX
  8
0
 10
524.735
 20
682.967
 30
0.0
 40
0.333333
 41
0.333333
  0
VERTEX
  8
0
 10
524.758
 20
683.117
 30
0.0
 40
0.333333
 41
0.333333
  0
VERTEX
  8
0
 10
524.794
 20
683.26
 30
0.0
 40
0.333333
 41
0.333333
  0
VERTEX
  8
0
 10
524.844
 20
683.397
 30
0.0
 40
0.333333
 41
0.333333
  0
VERTEX
  8
0
 10
524.908
 20
683.529
 30
0.0
 40
0.333333
 41
0.333333
  0
VERTEX
  8
0
 10
524.983
 20
683.653
 30
0.0
 40
0.333333
 41
0.333333
  0
VERTEX
  8
0
 10
525.069
 20
683.768
 30
0.0
 40
0.333333
 41
0.333333
  0
VERTEX
  8
0
 10
525.167
 20
683.875
 30
0.0
 40
0.333333
 41
0.333333
  0
VERTEX
  8
0
 10
525.274
 20
683.971
 30
0.0
 40
0.333333
 41
0.333333
  0
VERTEX
  8
0
 10
525.389
 20
684.058
 30
0.0
 40
0.333333
 41
0.333333
  0
VERTEX
  8
0
 10
525.512
 20
684.133
 30
0.0
 40
0.333333
 41
0.333333
  0
VERTEX
  8
0
 10
525.643
 20
684.196
 30
0.0
 40
0.333333
 41
0.333333
  0
VERTEX
  8
0
 10
525.781
 20
684.247
 30
0.0
 40
0.333333
 41
0.333333
  0
VERTEX
  8
0
 10
525.925
 20
684.283
 30
0.0
 40
0.333333
 41
0.333333
  0
VERTEX
  8
0
 10
526.074
 20
684.307
 30
0.0
 40
0.333333
 41
0.333333
  0
VERTEX
  8
0
 10
526.189
 20
684.314
 30
0.0
 40
0.333333
 41
0.333333
  0
VERTEX
  8
0
 10
526.228
 20
684.314
 30
0.0
 40
0.333333
 41
0.333333
  0
VERTEX
  8
0
 10
526.265
 20
684.314
 30
0.0
 40
0.333333
 41
0.333333
  0
VERTEX
  8
0
 10
526.381
 20
684.307
 30
0.0
 40
0.333333
 41
0.333333
  0
VERTEX
  8
0
 10
526.529
 20
684.283
 30
0.0
 40
0.333333
 41
0.333333
  0
VERTEX
  8
0
 10
526.674
 20
684.247
 30
0.0
 40
0.333333
 41
0.333333
  0
VERTEX
  8
0
 10
526.811
 20
684.196
 30
0.0
 40
0.333333
 41
0.333333
  0
VERTEX
  8
0
 10
526.942
 20
684.133
 30
0.0
 40
0.333333
 41
0.333333
  0
VERTEX
  8
0
 10
527.065
 20
684.058
 30
0.0
 40
0.333333
 41
0.333333
  0
VERTEX
  8
0
 10
527.182
 20
683.971
 30
0.0
 40
0.333333
 41
0.333333
  0
VERTEX
  8
0
 10
527.287
 20
683.875
 30
0.0
 40
0.333333
 41
0.333333
  0
VERTEX
  8
0
 10
527.385
 20
683.768
 30
0.0
 40
0.333333
 41
0.333333
  0
VERTEX
  8
0
 10
527.471
 20
683.653
 30
0.0
 40
0.333333
 41
0.333333
  0
VERTEX
  8
0
 10
527.546
 20
683.529
 30
0.0
 40
0.333333
 41
0.333333
  0
VERTEX
  8
0
 10
527.61
 20
683.397
 30
0.0
 40
0.333333
 41
0.333333
  0
VERTEX
  8
0
 10
527.66
 20
683.26
 30
0.0
 40
0.333333
 41
0.333333
  0
VERTEX
  8
0
 10
527.697
 20
683.117
 30
0.0
 40
0.333333
 41
0.333333
  0
VERTEX
  8
0
 10
527.719
 20
682.967
 30
0.0
 40
0.333333
 41
0.333333
  0
VERTEX
  8
0
 10
527.728
 20
682.853
 30
0.0
 40
0.333333
 41
0.333333
  0
VERTEX
  8
0
 10
527.728
 20
682.814
 30
0.0
 40
0.333333
 41
0.333333
  0
SEQEND
 8
0
  0
POLYLINE
  8
0
 62
     0
 66
     1
 10
0
 20
0
 30
0.0
 70
     1
 40
24
 41
24
  0
VERTEX
  8
0
 10
291.476
 20
492.31
 30
0.0
 40
0.333333
 41
0.333333
  0
VERTEX
  8
0
 10
291.476
 20
492.271
 30
0.0
 40
0.333333
 41
0.333333
  0
VERTEX
  8
0
 10
291.469
 20
492.157
 30
0.0
 40
0.333333
 41
0.333333
  0
VERTEX
  8
0
 10
291.446
 20
492.007
 30
0.0
 40
0.333333
 41
0.333333
  0
VERTEX
  8
0
 10
291.41
 20
491.864
 30
0.0
 40
0.333333
 41
0.333333
  0
VERTEX
  8
0
 10
291.358
 20
491.726
 30
0.0
 40
0.333333
 41
0.333333
  0
VERTEX
  8
0
 10
291.296
 20
491.594
 30
0.0
 40
0.333333
 41
0.333333
  0
VERTEX
  8
0
 10
291.221
 20
491.471
 30
0.0
 40
0.333333
 41
0.333333
  0
VERTEX
  8
0
 10
291.135
 20
491.356
 30
0.0
 40
0.333333
 41
0.333333
  0
VERTEX
  8
0
 10
291.037
 20
491.249
 30
0.0
 40
0.333333
 41
0.333333
  0
VERTEX
  8
0
 10
290.931
 20
491.153
 30
0.0
 40
0.333333
 41
0.333333
  0
VERTEX
  8
0
 10
290.815
 20
491.065
 30
0.0
 40
0.333333
 41
0.333333
  0
VERTEX
  8
0
 10
290.692
 20
490.99
 30
0.0
 40
0.333333
 41
0.333333
  0
VERTEX
  8
0
 10
290.561
 20
490.928
 30
0.0
 40
0.333333
 41
0.333333
  0
VERTEX
  8
0
 10
290.422
 20
490.878
 30
0.0
 40
0.333333
 41
0.333333
  0
VERTEX
  8
0
 10
290.279
 20
490.84
 30
0.0
 40
0.333333
 41
0.333333
  0
VERTEX
  8
0
 10
290.131
 20
490.818
 30
0.0
 40
0.333333
 41
0.333333
  0
VERTEX
  8
0
 10
290.015
 20
490.81
 30
0.0
 40
0.333333
 41
0.333333
  0
VERTEX
  8
0
 10
289.976
 20
490.81
 30
0.0
 40
0.333333
 41
0.333333
  0
VERTEX
  8
0
 10
289.939
 20
490.81
 30
0.0
 40
0.333333
 41
0.333333
  0
VERTEX
  8
0
 10
289.824
 20
490.818
 30
0.0
 40
0.333333
 41
0.333333
  0
VERTEX
  8
0
 10
289.675
 20
490.84
 30
0.0
 40
0.333333
 41
0.333333
  0
VERTEX
  8
0
 10
289.531
 20
490.878
 30
0.0
 40
0.333333
 41
0.333333
  0
VERTEX
  8
0
 10
289.393
 20
490.928
 30
0.0
 40
0.333333
 41
0.333333
  0
VERTEX
  8
0
 10
289.263
 20
490.99
 30
0.0
 40
0.333333
 41
0.333333
  0
VERTEX
  8
0
 10
289.138
 20
491.065
 30
0.0
 40
0.333333
 41
0.333333
  0
VERTEX
  8
0
 10
289.022
 20
491.153
 30
0.0
 40
0.333333
 41
0.333333
  0
VERTEX
  8
0
 10
288.917
 20
491.249
 30
0.0
 40
0.333333
 41
0.333333
  0
VERTEX
  8
0
 10
288.819
 20
491.356
 30
0.0
 40
0.333333
 41
0.333333
  0
VERTEX
  8
0
 10
288.733
 20
491.471
 30
0.0
 40
0.333333
 41
0.333333
  0
VERTEX
  8
0
 10
288.658
 20
491.594
 30
0.0
 40
0.333333
 41
0.333333
  0
VERTEX
  8
0
 10
288.594
 20
491.726
 30
0.0
 40
0.333333
 41
0.333333
  0
VERTEX
  8
0
 10
288.544
 20
491.864
 30
0.0
 40
0.333333
 41
0.333333
  0
VERTEX
  8
0
 10
288.507
 20
492.007
 30
0.0
 40
0.333333
 41
0.333333
  0
VERTEX
  8
0
 10
288.485
 20
492.157
 30
0.0
 40
0.333333
 41
0.333333
  0
VERTEX
  8
0
 10
288.476
 20
492.271
 30
0.0
 40
0.333333
 41
0.333333
  0
VERTEX
  8
0
 10
288.476
 20
492.31
 30
0.0
 40
0.333333
 41
0.333333
  0
VERTEX
  8
0
 10
288.476
 20
492.349
 30
0.0
 40
0.333333
 41
0.333333
  0
VERTEX
  8
0
 10
288.485
 20
492.463
 30
0.0
 40
0.333333
 41
0.333333
  0
VERTEX
  8
0
 10
288.507
 20
492.613
 30
0.0
 40
0.333333
 41
0.333333
  0
VERTEX
  8
0
 10
288.544
 20
492.756
 30
0.0
 40
0.333333
 41
0.333333
  0
VERTEX
  8
0
 10
288.594
 20
492.893
 30
0.0
 40
0.333333
 41
0.333333
  0
VERTEX
  8
0
 10
288.658
 20
493.025
 30
0.0
 40
0.333333
 41
0.333333
  0
VERTEX
  8
0
 10
288.733
 20
493.149
 30
0.0
 40
0.333333
 41
0.333333
  0
VERTEX
  8
0
 10
288.819
 20
493.264
 30
0.0
 40
0.333333
 41
0.333333
  0
VERTEX
  8
0
 10
288.917
 20
493.371
 30
0.0
 40
0.333333
 41
0.333333
  0
VERTEX
  8
0
 10
289.022
 20
493.467
 30
0.0
 40
0.333333
 41
0.333333
  0
VERTEX
  8
0
 10
289.138
 20
493.554
 30
0.0
 40
0.333333
 41
0.333333
  0
VERTEX
  8
0
 10
289.263
 20
493.629
 30
0.0
 40
0.333333
 41
0.333333
  0
VERTEX
  8
0
 10
289.393
 20
493.692
 30
0.0
 40
0.333333
 41
0.333333
  0
VERTEX
  8
0
 10
289.531
 20
493.742
 30
0.0
 40
0.333333
 41
0.333333
  0
VERTEX
  8
0
 10
289.675
 20
493.779
 30
0.0
 40
0.333333
 41
0.333333
  0
VERTEX
  8
0
 10
289.824
 20
493.801
 30
0.0
 40
0.333333
 41
0.333333
  0
VERTEX
  8
0
 10
289.939
 20
493.81
 30
0.0
 40
0.333333
 41
0.333333
  0
VERTEX
  8
0
 10
289.976
 20
493.81
 30
0.0
 40
0.333333
 41
0.333333
  0
VERTEX
  8
0
 10
290.015
 20
493.81
 30
0.0
 40
0.333333
 41
0.333333
  0
VERTEX
  8
0
 10
290.131
 20
493.801
 30
0.0
 40
0.333333
 41
0.333333
  0
VERTEX
  8
0
 10
290.279
 20
493.779
 30
0.0
 40
0.333333
 41
0.333333
  0
VERTEX
  8
0
 10
290.422
 20
493.742
 30
0.0
 40
0.333333
 41
0.333333
  0
VERTEX
  8
0
 10
290.561
 20
493.692
 30
0.0
 40
0.333333
 41
0.333333
  0
VERTEX
  8
0
 10
290.692
 20
493.629
 30
0.0
 40
0.333333
 41
0.333333
  0
VERTEX
  8
0
 10
290.815
 20
493.554
 30
0.0
 40
0.333333
 41
0.333333
  0
VERTEX
  8
0
 10
290.931
 20
493.467
 30
0.0
 40
0.333333
 41
0.333333
  0
VERTEX
  8
0
 10
291.037
 20
493.371
 30
0.0
 40
0.333333
 41
0.333333
  0
VERTEX
  8
0
 10
291.135
 20
493.264
 30
0.0
 40
0.333333
 41
0.333333
  0
VERTEX
  8
0
 10
291.221
 20
493.149
 30
0.0
 40
0.333333
 41
0.333333
  0
VERTEX
  8
0
 10
291.296
 20
493.025
 30
0.0
 40
0.333333
 41
0.333333
  0
VERTEX
  8
0
 10
291.358
 20
492.893
 30
0.0
 40
0.333333
 41
0.333333
  0
VERTEX
  8
0
 10
291.41
 20
492.756
 30
0.0
 40
0.333333
 41
0.333333
  0
VERTEX
  8
0
 10
291.446
 20
492.613
 30
0.0
 40
0.333333
 41
0.333333
  0
VERTEX
  8
0
 10
291.469
 20
492.463
 30
0.0
 40
0.333333
 41
0.333333
  0
VERTEX
  8
0
 10
291.476
 20
492.349
 30
0.0
 40
0.333333
 41
0.333333
  0
VERTEX
  8
0
 10
291.476
 20
492.31
 30
0.0
 40
0.333333
 41
0.333333
  0
SEQEND
 8
0
  0
POLYLINE
  8
0
 62
     0
 66
     1
 10
0
 20
0
 30
0.0
 70
     1
 40
24
 41
24
  0
VERTEX
  8
0
 10
275.726
 20
492.31
 30
0.0
 40
0.333333
 41
0.333333
  0
VERTEX
  8
0
 10
275.726
 20
492.271
 30
0.0
 40
0.333333
 41
0.333333
  0
VERTEX
  8
0
 10
275.719
 20
492.157
 30
0.0
 40
0.333333
 41
0.333333
  0
VERTEX
  8
0
 10
275.696
 20
492.007
 30
0.0
 40
0.333333
 41
0.333333
  0
VERTEX
  8
0
 10
275.66
 20
491.864
 30
0.0
 40
0.333333
 41
0.333333
  0
VERTEX
  8
0
 10
275.608
 20
491.726
 30
0.0
 40
0.333333
 41
0.333333
  0
VERTEX
  8
0
 10
275.546
 20
491.594
 30
0.0
 40
0.333333
 41
0.333333
  0
VERTEX
  8
0
 10
275.471
 20
491.471
 30
0.0
 40
0.333333
 41
0.333333
  0
VERTEX
  8
0
 10
275.385
 20
491.356
 30
0.0
 40
0.333333
 41
0.333333
  0
VERTEX
  8
0
 10
275.287
 20
491.249
 30
0.0
 40
0.333333
 41
0.333333
  0
VERTEX
  8
0
 10
275.181
 20
491.153
 30
0.0
 40
0.333333
 41
0.333333
  0
VERTEX
  8
0
 10
275.065
 20
491.065
 30
0.0
 40
0.333333
 41
0.333333
  0
VERTEX
  8
0
 10
274.942
 20
490.99
 30
0.0
 40
0.333333
 41
0.333333
  0
VERTEX
  8
0
 10
274.811
 20
490.928
 30
0.0
 40
0.333333
 41
0.333333
  0
VERTEX
  8
0
 10
274.672
 20
490.878
 30
0.0
 40
0.333333
 41
0.333333
  0
VERTEX
  8
0
 10
274.529
 20
490.84
 30
0.0
 40
0.333333
 41
0.333333
  0
VERTEX
  8
0
 10
274.381
 20
490.818
 30
0.0
 40
0.333333
 41
0.333333
  0
VERTEX
  8
0
 10
274.265
 20
490.81
 30
0.0
 40
0.333333
 41
0.333333
  0
VERTEX
  8
0
 10
274.226
 20
490.81
 30
0.0
 40
0.333333
 41
0.333333
  0
VERTEX
  8
0
 10
274.189
 20
490.81
 30
0.0
 40
0.333333
 41
0.333333
  0
VERTEX
  8
0
 10
274.074
 20
490.818
 30
0.0
 40
0.333333
 41
0.333333
  0
VERTEX
  8
0
 10
273.925
 20
490.84
 30
0.0
 40
0.333333
 41
0.333333
  0
VERTEX
  8
0
 10
273.781
 20
490.878
 30
0.0
 40
0.333333
 41
0.333333
  0
VERTEX
  8
0
 10
273.643
 20
490.928
 30
0.0
 40
0.333333
 41
0.333333
  0
VERTEX
  8
0
 10
273.513
 20
490.99
 30
0.0
 40
0.333333
 41
0.333333
  0
VERTEX
  8
0
 10
273.388
 20
491.065
 30
0.0
 40
0.333333
 41
0.333333
  0
VERTEX
  8
0
 10
273.272
 20
491.153
 30
0.0
 40
0.333333
 41
0.333333
  0
VERTEX
  8
0
 10
273.167
 20
491.249
 30
0.0
 40
0.333333
 41
0.333333
  0
VERTEX
  8
0
 10
273.069
 20
491.356
 30
0.0
 40
0.333333
 41
0.333333
  0
VERTEX
  8
0
 10
272.983
 20
491.471
 30
0.0
 40
0.333333
 41
0.333333
  0
VERTEX
  8
0
 10
272.908
 20
491.594
 30
0.0
 40
0.333333
 41
0.333333
  0
VERTEX
  8
0
 10
272.844
 20
491.726
 30
0.0
 40
0.333333
 41
0.333333
  0
VERTEX
  8
0
 10
272.794
 20
491.864
 30
0.0
 40
0.333333
 41
0.333333
  0
VERTEX
  8
0
 10
272.757
 20
492.007
 30
0.0
 40
0.333333
 41
0.333333
  0
VERTEX
  8
0
 10
272.735
 20
492.157
 30
0.0
 40
0.333333
 41
0.333333
  0
VERTEX
  8
0
 10
272.726
 20
492.271
 30
0.0
 40
0.333333
 41
0.333333
  0
VERTEX
  8
0
 10
272.726
 20
492.31
 30
0.0
 40
0.333333
 41
0.333333
  0
VERTEX
  8
0
 10
272.726
 20
492.349
 30
0.0
 40
0.333333
 41
0.333333
  0
VERTEX
  8
0
 10
272.735
 20
492.463
 30
0.0
 40
0.333333
 41
0.333333
  0
VERTEX
  8
0
 10
272.757
 20
492.613
 30
0.0
 40
0.333333
 41
0.333333
  0
VERTEX
  8
0
 10
272.794
 20
492.756
 30
0.0
 40
0.333333
 41
0.333333
  0
VERTEX
  8
0
 10
272.844
 20
492.893
 30
0.0
 40
0.333333
 41
0.333333
  0
VERTEX
  8
0
 10
272.908
 20
493.025
 30
0.0
 40
0.333333
 41
0.333333
  0
VERTEX
  8
0
 10
272.983
 20
493.149
 30
0.0
 40
0.333333
 41
0.333333
  0
VERTEX
  8
0
 10
273.069
 20
493.264
 30
0.0
 40
0.333333
 41
0.333333
  0
VERTEX
  8
0
 10
273.167
 20
493.371
 30
0.0
 40
0.333333
 41
0.333333
  0
VERTEX
  8
0
 10
273.272
 20
493.467
 30
0.0
 40
0.333333
 41
0.333333
  0
VERTEX
  8
0
 10
273.388
 20
493.554
 30
0.0
 40
0.333333
 41
0.333333
  0
VERTEX
  8
0
 10
273.513
 20
493.629
 30
0.0
 40
0.333333
 41
0.333333
  0
VERTEX
  8
0
 10
273.643
 20
493.692
 30
0.0
 40
0.333333
 41
0.333333
  0
VERTEX
  8
0
 10
273.781
 20
493.742
 30
0.0
 40
0.333333
 41
0.333333
  0
VERTEX
  8
0
 10
273.925
 20
493.779
 30
0.0
 40
0.333333
 41
0.333333
  0
VERTEX
  8
0
 10
274.074
 20
493.801
 30
0.0
 40
0.333333
 41
0.333333
  0
VERTEX
  8
0
 10
274.189
 20
493.81
 30
0.0
 40
0.333333
 41
0.333333
  0
VERTEX
  8
0
 10
274.226
 20
493.81
 30
0.0
 40
0.333333
 41
0.333333
  0
VERTEX
  8
0
 10
274.265
 20
493.81
 30
0.0
 40
0.333333
 41
0.333333
  0
VERTEX
  8
0
 10
274.381
 20
493.801
 30
0.0
 40
0.333333
 41
0.333333
  0
VERTEX
  8
0
 10
274.529
 20
493.779
 30
0.0
 40
0.333333
 41
0.333333
  0
VERTEX
  8
0
 10
274.672
 20
493.742
 30
0.0
 40
0.333333
 41
0.333333
  0
VERTEX
  8
0
 10
274.811
 20
493.692
 30
0.0
 40
0.333333
 41
0.333333
  0
VERTEX
  8
0
 10
274.942
 20
493.629
 30
0.0
 40
0.333333
 41
0.333333
  0
VERTEX
  8
0
 10
275.065
 20
493.554
 30
0.0
 40
0.333333
 41
0.333333
  0
VERTEX
  8
0
 10
275.181
 20
493.467
 30
0.0
 40
0.333333
 41
0.333333
  0
VERTEX
  8
0
 10
275.287
 20
493.371
 30
0.0
 40
0.333333
 41
0.333333
  0
VERTEX
  8
0
 10
275.385
 20
493.264
 30
0.0
 40
0.333333
 41
0.333333
  0
VERTEX
  8
0
 10
275.471
 20
493.149
 30
0.0
 40
0.333333
 41
0.333333
  0
VERTEX
  8
0
 10
275.546
 20
493.025
 30
0.0
 40
0.333333
 41
0.333333
  0
VERTEX
  8
0
 10
275.608
 20
492.893
 30
0.0
 40
0.333333
 41
0.333333
  0
VERTEX
  8
0
 10
275.66
 20
492.756
 30
0.0
 40
0.333333
 41
0.333333
  0
VERTEX
  8
0
 10
275.696
 20
492.613
 30
0.0
 40
0.333333
 41
0.333333
  0
VERTEX
  8
0
 10
275.719
 20
492.463
 30
0.0
 40
0.333333
 41
0.333333
  0
VERTEX
  8
0
 10
275.726
 20
492.349
 30
0.0
 40
0.333333
 41
0.333333
  0
VERTEX
  8
0
 10
275.726
 20
492.31
 30
0.0
 40
0.333333
 41
0.333333
  0
SEQEND
 8
0
  0
POLYLINE
  8
0
 62
     0
 66
     1
 10
0
 20
0
 30
0.0
 70
     1
 40
24
 41
24
  0
VERTEX
  8
0
 10
596.278
 20
492.31
 30
0.0
 40
0.333333
 41
0.333333
  0
VERTEX
  8
0
 10
596.278
 20
492.271
 30
0.0
 40
0.333333
 41
0.333333
  0
VERTEX
  8
0
 10
596.269
 20
492.157
 30
0.0
 40
0.333333
 41
0.333333
  0
VERTEX
  8
0
 10
596.247
 20
492.007
 30
0.0
 40
0.333333
 41
0.333333
  0
VERTEX
  8
0
 10
596.21
 20
491.864
 30
0.0
 40
0.333333
 41
0.333333
  0
VERTEX
  8
0
 10
596.16
 20
491.726
 30
0.0
 40
0.333333
 41
0.333333
  0
VERTEX
  8
0
 10
596.096
 20
491.594
 30
0.0
 40
0.333333
 41
0.333333
  0
VERTEX
  8
0
 10
596.021
 20
491.471
 30
0.0
 40
0.333333
 41
0.333333
  0
VERTEX
  8
0
 10
595.935
 20
491.356
 30
0.0
 40
0.333333
 41
0.333333
  0
VERTEX
  8
0
 10
595.838
 20
491.249
 30
0.0
 40
0.333333
 41
0.333333
  0
VERTEX
  8
0
 10
595.732
 20
491.153
 30
0.0
 40
0.333333
 41
0.333333
  0
VERTEX
  8
0
 10
595.617
 20
491.065
 30
0.0
 40
0.333333
 41
0.333333
  0
VERTEX
  8
0
 10
595.492
 20
490.99
 30
0.0
 40
0.333333
 41
0.333333
  0
VERTEX
  8
0
 10
595.361
 20
490.928
 30
0.0
 40
0.333333
 41
0.333333
  0
VERTEX
  8
0
 10
595.224
 20
490.878
 30
0.0
 40
0.333333
 41
0.333333
  0
VERTEX
  8
0
 10
595.079
 20
490.84
 30
0.0
 40
0.333333
 41
0.333333
  0
VERTEX
  8
0
 10
594.931
 20
490.818
 30
0.0
 40
0.333333
 41
0.333333
  0
VERTEX
  8
0
 10
594.815
 20
490.81
 30
0.0
 40
0.333333
 41
0.333333
  0
VERTEX
  8
0
 10
594.778
 20
490.81
 30
0.0
 40
0.333333
 41
0.333333
  0
VERTEX
  8
0
 10
594.739
 20
490.81
 30
0.0
 40
0.333333
 41
0.333333
  0
VERTEX
  8
0
 10
594.624
 20
490.818
 30
0.0
 40
0.333333
 41
0.333333
  0
VERTEX
  8
0
 10
594.475
 20
490.84
 30
0.0
 40
0.333333
 41
0.333333
  0
VERTEX
  8
0
 10
594.332
 20
490.878
 30
0.0
 40
0.333333
 41
0.333333
  0
VERTEX
  8
0
 10
594.193
 20
490.928
 30
0.0
 40
0.333333
 41
0.333333
  0
VERTEX
  8
0
 10
594.063
 20
490.99
 30
0.0
 40
0.333333
 41
0.333333
  0
VERTEX
  8
0
 10
593.939
 20
491.065
 30
0.0
 40
0.333333
 41
0.333333
  0
VERTEX
  8
0
 10
593.824
 20
491.153
 30
0.0
 40
0.333333
 41
0.333333
  0
VERTEX
  8
0
 10
593.717
 20
491.249
 30
0.0
 40
0.333333
 41
0.333333
  0
VERTEX
  8
0
 10
593.619
 20
491.356
 30
0.0
 40
0.333333
 41
0.333333
  0
VERTEX
  8
0
 10
593.533
 20
491.471
 30
0.0
 40
0.333333
 41
0.333333
  0
VERTEX
  8
0
 10
593.458
 20
491.594
 30
0.0
 40
0.333333
 41
0.333333
  0
VERTEX
  8
0
 10
593.396
 20
491.726
 30
0.0
 40
0.333333
 41
0.333333
  0
VERTEX
  8
0
 10
593.344
 20
491.864
 30
0.0
 40
0.333333
 41
0.333333
  0
VERTEX
  8
0
 10
593.308
 20
492.007
 30
0.0
 40
0.333333
 41
0.333333
  0
VERTEX
  8
0
 10
593.285
 20
492.157
 30
0.0
 40
0.333333
 41
0.333333
  0
VERTEX
  8
0
 10
593.278
 20
492.271
 30
0.0
 40
0.333333
 41
0.333333
  0
VERTEX
  8
0
 10
593.278
 20
492.31
 30
0.0
 40
0.333333
 41
0.333333
  0
VERTEX
  8
0
 10
593.278
 20
492.349
 30
0.0
 40
0.333333
 41
0.333333
  0
VERTEX
  8
0
 10
593.285
 20
492.463
 30
0.0
 40
0.333333
 41
0.333333
  0
VERTEX
  8
0
 10
593.308
 20
492.613
 30
0.0
 40
0.333333
 41
0.333333
  0
VERTEX
  8
0
 10
593.344
 20
492.756
 30
0.0
 40
0.333333
 41
0.333333
  0
VERTEX
  8
0
 10
593.396
 20
492.893
 30
0.0
 40
0.333333
 41
0.333333
  0
VERTEX
  8
0
 10
593.458
 20
493.025
 30
0.0
 40
0.333333
 41
0.333333
  0
VERTEX
  8
0
 10
593.533
 20
493.149
 30
0.0
 40
0.333333
 41
0.333333
  0
VERTEX
  8
0
 10
593.619
 20
493.264
 30
0.0
 40
0.333333
 41
0.333333
  0
VERTEX
  8
0
 10
593.717
 20
493.371
 30
0.0
 40
0.333333
 41
0.333333
  0
VERTEX
  8
0
 10
593.824
 20
493.467
 30
0.0
 40
0.333333
 41
0.333333
  0
VERTEX
  8
0
 10
593.939
 20
493.554
 30
0.0
 40
0.333333
 41
0.333333
  0
VERTEX
  8
0
 10
594.063
 20
493.629
 30
0.0
 40
0.333333
 41
0.333333
  0
VERTEX
  8
0
 10
594.193
 20
493.692
 30
0.0
 40
0.333333
 41
0.333333
  0
VERTEX
  8
0
 10
594.332
 20
493.742
 30
0.0
 40
0.333333
 41
0.333333
  0
VERTEX
  8
0
 10
594.475
 20
493.779
 30
0.0
 40
0.333333
 41
0.333333
  0
VERTEX
  8
0
 10
594.624
 20
493.801
 30
0.0
 40
0.333333
 41
0.333333
  0
VERTEX
  8
0
 10
594.739
 20
493.81
 30
0.0
 40
0.333333
 41
0.333333
  0
VERTEX
  8
0
 10
594.778
 20
493.81
 30
0.0
 40
0.333333
 41
0.333333
  0
VERTEX
  8
0
 10
594.815
 20
493.81
 30
0.0
 40
0.333333
 41
0.333333
  0
VERTEX
  8
0
 10
594.931
 20
493.801
 30
0.0
 40
0.333333
 41
0.333333
  0
VERTEX
  8
0
 10
595.079
 20
493.779
 30
0.0
 40
0.333333
 41
0.333333
  0
VERTEX
  8
0
 10
595.224
 20
493.742
 30
0.0
 40
0.333333
 41
0.333333
  0
VERTEX
  8
0
 10
595.361
 20
493.692
 30
0.0
 40
0.333333
 41
0.333333
  0
VERTEX
  8
0
 10
595.492
 20
493.629
 30
0.0
 40
0.333333
 41
0.333333
  0
VERTEX
  8
0
 10
595.617
 20
493.554
 30
0.0
 40
0.333333
 41
0.333333
  0
VERTEX
  8
0
 10
595.732
 20
493.467
 30
0.0
 40
0.333333
 41
0.333333
  0
VERTEX
  8
0
 10
595.838
 20
493.371
 30
0.0
 40
0.333333
 41
0.333333
  0
VERTEX
  8
0
 10
595.935
 20
493.264
 30
0.0
 40
0.333333
 41
0.333333
  0
VERTEX
  8
0
 10
596.021
 20
493.149
 30
0.0
 40
0.333333
 41
0.333333
  0
VERTEX
  8
0
 10
596.096
 20
493.025
 30
0.0
 40
0.333333
 41
0.333333
  0
VERTEX
  8
0
 10
596.16
 20
492.893
 30
0.0
 40
0.333333
 41
0.333333
  0
VERTEX
  8
0
 10
596.21
 20
492.756
 30
0.0
 40
0.333333
 41
0.333333
  0
VERTEX
  8
0
 10
596.247
 20
492.613
 30
0.0
 40
0.333333
 41
0.333333
  0
VERTEX
  8
0
 10
596.269
 20
492.463
 30
0.0
 40
0.333333
 41
0.333333
  0
VERTEX
  8
0
 10
596.278
 20
492.349
 30
0.0
 40
0.333333
 41
0.333333
  0
VERTEX
  8
0
 10
596.278
 20
492.31
 30
0.0
 40
0.333333
 41
0.333333
  0
SEQEND
 8
0
  0
POLYLINE
  8
0
 62
     0
 66
     1
 10
0
 20
0
 30
0.0
 70
     1
 40
24
 41
24
  0
VERTEX
  8
0
 10
580.528
 20
492.31
 30
0.0
 40
0.333333
 41
0.333333
  0
VERTEX
  8
0
 10
580.528
 20
492.271
 30
0.0
 40
0.333333
 41
0.333333
  0
VERTEX
  8
0
 10
580.519
 20
492.157
 30
0.0
 40
0.333333
 41
0.333333
  0
VERTEX
  8
0
 10
580.497
 20
492.007
 30
0.0
 40
0.333333
 41
0.333333
  0
VERTEX
  8
0
 10
580.46
 20
491.864
 30
0.0
 40
0.333333
 41
0.333333
  0
VERTEX
  8
0
 10
580.41
 20
491.726
 30
0.0
 40
0.333333
 41
0.333333
  0
VERTEX
  8
0
 10
580.346
 20
491.594
 30
0.0
 40
0.333333
 41
0.333333
  0
VERTEX
  8
0
 10
580.271
 20
491.471
 30
0.0
 40
0.333333
 41
0.333333
  0
VERTEX
  8
0
 10
580.185
 20
491.356
 30
0.0
 40
0.333333
 41
0.333333
  0
VERTEX
  8
0
 10
580.088
 20
491.249
 30
0.0
 40
0.333333
 41
0.333333
  0
VERTEX
  8
0
 10
579.982
 20
491.153
 30
0.0
 40
0.333333
 41
0.333333
  0
VERTEX
  8
0
 10
579.865
 20
491.065
 30
0.0
 40
0.333333
 41
0.333333
  0
VERTEX
  8
0
 10
579.742
 20
490.99
 30
0.0
 40
0.333333
 41
0.333333
  0
VERTEX
  8
0
 10
579.611
 20
490.928
 30
0.0
 40
0.333333
 41
0.333333
  0
VERTEX
  8
0
 10
579.474
 20
490.878
 30
0.0
 40
0.333333
 41
0.333333
  0
VERTEX
  8
0
 10
579.329
 20
490.84
 30
0.0
 40
0.333333
 41
0.333333
  0
VERTEX
  8
0
 10
579.181
 20
490.818
 30
0.0
 40
0.333333
 41
0.333333
  0
VERTEX
  8
0
 10
579.065
 20
490.81
 30
0.0
 40
0.333333
 41
0.333333
  0
VERTEX
  8
0
 10
579.028
 20
490.81
 30
0.0
 40
0.333333
 41
0.333333
  0
VERTEX
  8
0
 10
578.989
 20
490.81
 30
0.0
 40
0.333333
 41
0.333333
  0
VERTEX
  8
0
 10
578.874
 20
490.818
 30
0.0
 40
0.333333
 41
0.333333
  0
VERTEX
  8
0
 10
578.725
 20
490.84
 30
0.0
 40
0.333333
 41
0.333333
  0
VERTEX
  8
0
 10
578.581
 20
490.878
 30
0.0
 40
0.333333
 41
0.333333
  0
VERTEX
  8
0
 10
578.443
 20
490.928
 30
0.0
 40
0.333333
 41
0.333333
  0
VERTEX
  8
0
 10
578.313
 20
490.99
 30
0.0
 40
0.333333
 41
0.333333
  0
VERTEX
  8
0
 10
578.189
 20
491.065
 30
0.0
 40
0.333333
 41
0.333333
  0
VERTEX
  8
0
 10
578.074
 20
491.153
 30
0.0
 40
0.333333
 41
0.333333
  0
VERTEX
  8
0
 10
577.967
 20
491.249
 30
0.0
 40
0.333333
 41
0.333333
  0
VERTEX
  8
0
 10
577.869
 20
491.356
 30
0.0
 40
0.333333
 41
0.333333
  0
VERTEX
  8
0
 10
577.783
 20
491.471
 30
0.0
 40
0.333333
 41
0.333333
  0
VERTEX
  8
0
 10
577.708
 20
491.594
 30
0.0
 40
0.333333
 41
0.333333
  0
VERTEX
  8
0
 10
577.644
 20
491.726
 30
0.0
 40
0.333333
 41
0.333333
  0
VERTEX
  8
0
 10
577.594
 20
491.864
 30
0.0
 40
0.333333
 41
0.333333
  0
VERTEX
  8
0
 10
577.558
 20
492.007
 30
0.0
 40
0.333333
 41
0.333333
  0
VERTEX
  8
0
 10
577.535
 20
492.157
 30
0.0
 40
0.333333
 41
0.333333
  0
VERTEX
  8
0
 10
577.528
 20
492.271
 30
0.0
 40
0.333333
 41
0.333333
  0
VERTEX
  8
0
 10
577.528
 20
492.31
 30
0.0
 40
0.333333
 41
0.333333
  0
VERTEX
  8
0
 10
577.528
 20
492.349
 30
0.0
 40
0.333333
 41
0.333333
  0
VERTEX
  8
0
 10
577.535
 20
492.463
 30
0.0
 40
0.333333
 41
0.333333
  0
VERTEX
  8
0
 10
577.558
 20
492.613
 30
0.0
 40
0.333333
 41
0.333333
  0
VERTEX
  8
0
 10
577.594
 20
492.756
 30
0.0
 40
0.333333
 41
0.333333
  0
VERTEX
  8
0
 10
577.644
 20
492.893
 30
0.0
 40
0.333333
 41
0.333333
  0
VERTEX
  8
0
 10
577.708
 20
493.025
 30
0.0
 40
0.333333
 41
0.333333
  0
VERTEX
  8
0
 10
577.783
 20
493.149
 30
0.0
 40
0.333333
 41
0.333333
  0
VERTEX
  8
0
 10
577.869
 20
493.264
 30
0.0
 40
0.333333
 41
0.333333
  0
VERTEX
  8
0
 10
577.967
 20
493.371
 30
0.0
 40
0.333333
 41
0.333333
  0
VERTEX
  8
0
 10
578.074
 20
493.467
 30
0.0
 40
0.333333
 41
0.333333
  0
VERTEX
  8
0
 10
578.189
 20
493.554
 30
0.0
 40
0.333333
 41
0.333333
  0
VERTEX
  8
0
 10
578.313
 20
493.629
 30
0.0
 40
0.333333
 41
0.333333
  0
VERTEX
  8
0
 10
578.443
 20
493.692
 30
0.0
 40
0.333333
 41
0.333333
  0
VERTEX
  8
0
 10
578.581
 20
493.742
 30
0.0
 40
0.333333
 41
0.333333
  0
VERTEX
  8
0
 10
578.725
 20
493.779
 30
0.0
 40
0.333333
 41
0.333333
  0
VERTEX
  8
0
 10
578.874
 20
493.801
 30
0.0
 40
0.333333
 41
0.333333
  0
VERTEX
  8
0
 10
578.989
 20
493.81
 30
0.0
 40
0.333333
 41
0.333333
  0
VERTEX
  8
0
 10
579.028
 20
493.81
 30
0.0
 40
0.333333
 41
0.333333
  0
VERTEX
  8
0
 10
579.065
 20
493.81
 30
0.0
 40
0.333333
 41
0.333333
  0
VERTEX
  8
0
 10
579.181
 20
493.801
 30
0.0
 40
0.333333
 41
0.333333
  0
VERTEX
  8
0
 10
579.329
 20
493.779
 30
0.0
 40
0.333333
 41
0.333333
  0
VERTEX
  8
0
 10
579.474
 20
493.742
 30
0.0
 40
0.333333
 41
0.333333
  0
VERTEX
  8
0
 10
579.611
 20
493.692
 30
0.0
 40
0.333333
 41
0.333333
  0
VERTEX
  8
0
 10
579.742
 20
493.629
 30
0.0
 40
0.333333
 41
0.333333
  0
VERTEX
  8
0
 10
579.865
 20
493.554
 30
0.0
 40
0.333333
 41
0.333333
  0
VERTEX
  8
0
 10
579.982
 20
493.467
 30
0.0
 40
0.333333
 41
0.333333
  0
VERTEX
  8
0
 10
580.088
 20
493.371
 30
0.0
 40
0.333333
 41
0.333333
  0
VERTEX
  8
0
 10
580.185
 20
493.264
 30
0.0
 40
0.333333
 41
0.333333
  0
VERTEX
  8
0
 10
580.271
 20
493.149
 30
0.0
 40
0.333333
 41
0.333333
  0
VERTEX
  8
0
 10
580.346
 20
493.025
 30
0.0
 40
0.333333
 41
0.333333
  0
VERTEX
  8
0
 10
580.41
 20
492.893
 30
0.0
 40
0.333333
 41
0.333333
  0
VERTEX
  8
0
 10
580.46
 20
492.756
 30
0.0
 40
0.333333
 41
0.333333
  0
VERTEX
  8
0
 10
580.497
 20
492.613
 30
0.0
 40
0.333333
 41
0.333333
  0
VERTEX
  8
0
 10
580.519
 20
492.463
 30
0.0
 40
0.333333
 41
0.333333
  0
VERTEX
  8
0
 10
580.528
 20
492.349
 30
0.0
 40
0.333333
 41
0.333333
  0
VERTEX
  8
0
 10
580.528
 20
492.31
 30
0.0
 40
0.333333
 41
0.333333
  0
SEQEND
 8
0
  0
POLYLINE
  8
0
 62
     0
 66
     1
 10
0
 20
0
 30
0.0
 40
25.4
 41
25.4
  0
VERTEX
  8
0
 10
0.176378
 20
663.764
 30
0.0
 40
0.352778
 41
0.352778
  0
VERTEX
  8
0
 10
812.978
 20
663.764
 30
0.0
 40
0.352778
 41
0.352778
  0
SEQEND
 8
0
  0
POLYLINE
  8
0
 62
     0
 66
     1
 10
0
 20
0
 30
0.0
 40
25.4
 41
25.4
  0
VERTEX
  8
0
 10
0.176378
 20
663.764
 30
0.0
 40
0.352778
 41
0.352778
  0
VERTEX
  8
0
 10
0.176378
 20
1174.93
 30
0.0
 40
0.352778
 41
0.352778
  0
VERTEX
  8
0
 10
190.676
 20
1174.93
 30
0.0
 40
0.352778
 41
0.352778
  0
VERTEX
  8
0
 10
190.676
 20
663.764
 30
0.0
 40
0.352778
 41
0.352778
  0
SEQEND
 8
0
  0
POLYLINE
  8
0
 62
     0
 66
     1
 10
0
 20
0
 30
0.0
 40
25.4
 41
25.4
  0
VERTEX
  8
0
 10
495.478
 20
663.764
 30
0.0
 40
0.352778
 41
0.352778
  0
VERTEX
  8
0
 10
495.478
 20
1174.93
 30
0.0
 40
0.352778
 41
0.352778
  0
VERTEX
  8
0
 10
190.676
 20
1174.93
 30
0.0
 40
0.352778
 41
0.352778
  0
SEQEND
 8
0
  0
POLYLINE
  8
0
 62
     0
 66
     1
 10
0
 20
0
 30
0.0
 70
     1
 40
25.4
 41
25.4
  0
VERTEX
  8
0
 10
368.476
 20
933.64
 30
0.0
 40
0.352778
 41
0.352778
  0
VERTEX
  8
0
 10
400.226
 20
933.64
 30
0.0
 40
0.352778
 41
0.352778
  0
VERTEX
  8
0
 10
400.226
 20
927.29
 30
0.0
 40
0.352778
 41
0.352778
  0
VERTEX
  8
0
 10
368.476
 20
927.29
 30
0.0
 40
0.352778
 41
0.352778
  0
VERTEX
  8
0
 10
368.476
 20
933.64
 30
0.0
 40
0.352778
 41
0.352778
  0
SEQEND
 8
0
  0
POLYLINE
  8
0
 62
     0
 66
     1
 10
0
 20
0
 30
0.0
 70
     1
 40
25.4
 41
25.4
  0
VERTEX
  8
0
 10
304.976
 20
933.64
 30
0.0
 40
0.352778
 41
0.352778
  0
VERTEX
  8
0
 10
336.726
 20
933.64
 30
0.0
 40
0.352778
 41
0.352778
  0
VERTEX
  8
0
 10
336.726
 20
927.29
 30
0.0
 40
0.352778
 41
0.352778
  0
VERTEX
  8
0
 10
304.976
 20
927.29
 30
0.0
 40
0.352778
 41
0.352778
  0
VERTEX
  8
0
 10
304.976
 20
933.64
 30
0.0
 40
0.352778
 41
0.352778
  0
SEQEND
 8
0
  0
POLYLINE
  8
0
 62
     0
 66
     1
 10
0
 20
0
 30
0.0
 70
     1
 40
25.4
 41
25.4
  0
VERTEX
  8
0
 10
266.876
 20
920.938
 30
0.0
 40
0.352778
 41
0.352778
  0
VERTEX
  8
0
 10
295.906
 20
920.938
 30
0.0
 40
0.352778
 41
0.352778
  0
VERTEX
  8
0
 10
295.906
 20
914.587
 30
0.0
 40
0.352778
 41
0.352778
  0
VERTEX
  8
0
 10
266.876
 20
914.587
 30
0.0
 40
0.352778
 41
0.352778
  0
VERTEX
  8
0
 10
266.876
 20
920.938
 30
0.0
 40
0.352778
 41
0.352778
  0
SEQEND
 8
0
  0
POLYLINE
  8
0
 62
     0
 66
     1
 10
0
 20
0
 30
0.0
 70
     1
 40
25.4
 41
25.4
  0
VERTEX
  8
0
 10
431.976
 20
933.64
 30
0.0
 40
0.352778
 41
0.352778
  0
VERTEX
  8
0
 10
463.728
 20
933.64
 30
0.0
 40
0.352778
 41
0.352778
  0
VERTEX
  8
0
 10
463.728
 20
927.29
 30
0.0
 40
0.352778
 41
0.352778
  0
VERTEX
  8
0
 10
431.976
 20
927.29
 30
0.0
 40
0.352778
 41
0.352778
  0
VERTEX
  8
0
 10
431.976
 20
933.64
 30
0.0
 40
0.352778
 41
0.352778
  0
SEQEND
 8
0
  0
POLYLINE
  8
0
 62
     0
 66
     1
 10
0
 20
0
 30
0.0
 70
     1
 40
25.4
 41
25.4
  0
VERTEX
  8
0
 10
441.049
 20
920.938
 30
0.0
 40
0.352778
 41
0.352778
  0
VERTEX
  8
0
 10
470.078
 20
920.938
 30
0.0
 40
0.352778
 41
0.352778
  0
VERTEX
  8
0
 10
470.078
 20
914.587
 30
0.0
 40
0.352778
 41
0.352778
  0
VERTEX
  8
0
 10
441.049
 20
914.587
 30
0.0
 40
0.352778
 41
0.352778
  0
VERTEX
  8
0
 10
441.049
 20
920.938
 30
0.0
 40
0.352778
 41
0.352778
  0
SEQEND
 8
0
  0
POLYLINE
  8
0
 62
     0
 66
     1
 10
0
 20
0
 30
0.0
 70
     1
 40
25.4
 41
25.4
  0
VERTEX
  8
0
 10
382.992
 20
920.938
 30
0.0
 40
0.352778
 41
0.352778
  0
VERTEX
  8
0
 10
412.019
 20
920.938
 30
0.0
 40
0.352778
 41
0.352778
  0
VERTEX
  8
0
 10
412.019
 20
914.587
 30
0.0
 40
0.352778
 41
0.352778
  0
VERTEX
  8
0
 10
382.992
 20
914.587
 30
0.0
 40
0.352778
 41
0.352778
  0
VERTEX
  8
0
 10
382.992
 20
920.938
 30
0.0
 40
0.352778
 41
0.352778
  0
SEQEND
 8
0
  0
POLYLINE
  8
0
 62
     0
 66
     1
 10
0
 20
0
 30
0.0
 70
     1
 40
25.4
 41
25.4
  0
VERTEX
  8
0
 10
324.935
 20
920.938
 30
0.0
 40
0.352778
 41
0.352778
  0
VERTEX
  8
0
 10
353.963
 20
920.938
 30
0.0
 40
0.352778
 41
0.352778
  0
VERTEX
  8
0
 10
353.963
 20
914.587
 30
0.0
 40
0.352778
 41
0.352778
  0
VERTEX
  8
0
 10
324.935
 20
914.587
 30
0.0
 40
0.352778
 41
0.352778
  0
VERTEX
  8
0
 10
324.935
 20
920.938
 30
0.0
 40
0.352778
 41
0.352778
  0
SEQEND
 8
0
  0
POLYLINE
  8
0
 62
     0
 66
     1
 10
0
 20
0
 30
0.0
 70
     1
 40
25.4
 41
25.4
  0
VERTEX
  8
0
 10
241.476
 20
933.64
 30
0.0
 40
0.352778
 41
0.352778
  0
VERTEX
  8
0
 10
273.226
 20
933.64
 30
0.0
 40
0.352778
 41
0.352778
  0
VERTEX
  8
0
 10
273.226
 20
927.29
 30
0.0
 40
0.352778
 41
0.352778
  0
VERTEX
  8
0
 10
241.476
 20
927.29
 30
0.0
 40
0.352778
 41
0.352778
  0
VERTEX
  8
0
 10
241.476
 20
933.64
 30
0.0
 40
0.352778
 41
0.352778
  0
SEQEND
 8
0
  0
POLYLINE
  8
0
 62
     0
 66
     1
 10
0
 20
0
 30
0.0
 40
25.4
 41
25.4
  0
VERTEX
  8
0
 10
800.278
 20
663.764
 30
0.0
 40
0.352778
 41
0.352778
  0
VERTEX
  8
0
 10
800.278
 20
1174.93
 30
0.0
 40
0.352778
 41
0.352778
  0
VERTEX
  8
0
 10
495.478
 20
1174.93
 30
0.0
 40
0.352778
 41
0.352778
  0
SEQEND
 8
0
  0
POLYLINE
  8
0
 62
     0
 66
     1
 10
0
 20
0
 30
0.0
 70
     1
 40
25.4
 41
25.4
  0
VERTEX
  8
0
 10
673.278
 20
933.64
 30
0.0
 40
0.352778
 41
0.352778
  0
VERTEX
  8
0
 10
705.028
 20
933.64
 30
0.0
 40
0.352778
 41
0.352778
  0
VERTEX
  8
0
 10
705.028
 20
927.29
 30
0.0
 40
0.352778
 41
0.352778
  0
VERTEX
  8
0
 10
673.278
 20
927.29
 30
0.0
 40
0.352778
 41
0.352778
  0
VERTEX
  8
0
 10
673.278
 20
933.64
 30
0.0
 40
0.352778
 41
0.352778
  0
SEQEND
 8
0
  0
POLYLINE
  8
0
 62
     0
 66
     1
 10
0
 20
0
 30
0.0
 70
     1
 40
25.4
 41
25.4
  0
VERTEX
  8
0
 10
609.778
 20
933.64
 30
0.0
 40
0.352778
 41
0.352778
  0
VERTEX
  8
0
 10
641.528
 20
933.64
 30
0.0
 40
0.352778
 41
0.352778
  0
VERTEX
  8
0
 10
641.528
 20
927.29
 30
0.0
 40
0.352778
 41
0.352778
  0
VERTEX
  8
0
 10
609.778
 20
927.29
 30
0.0
 40
0.352778
 41
0.352778
  0
VERTEX
  8
0
 10
609.778
 20
933.64
 30
0.0
 40
0.352778
 41
0.352778
  0
SEQEND
 8
0
  0
POLYLINE
  8
0
 62
     0
 66
     1
 10
0
 20
0
 30
0.0
 70
     1
 40
25.4
 41
25.4
  0
VERTEX
  8
0
 10
571.678
 20
920.938
 30
0.0
 40
0.352778
 41
0.352778
  0
VERTEX
  8
0
 10
600.706
 20
920.938
 30
0.0
 40
0.352778
 41
0.352778
  0
VERTEX
  8
0
 10
600.706
 20
914.587
 30
0.0
 40
0.352778
 41
0.352778
  0
VERTEX
  8
0
 10
571.678
 20
914.587
 30
0.0
 40
0.352778
 41
0.352778
  0
VERTEX
  8
0
 10
571.678
 20
920.938
 30
0.0
 40
0.352778
 41
0.352778
  0
SEQEND
 8
0
  0
POLYLINE
  8
0
 62
     0
 66
     1
 10
0
 20
0
 30
0.0
 70
     1
 40
25.4
 41
25.4
  0
VERTEX
  8
0
 10
736.778
 20
933.64
 30
0.0
 40
0.352778
 41
0.352778
  0
VERTEX
  8
0
 10
768.528
 20
933.64
 30
0.0
 40
0.352778
 41
0.352778
  0
VERTEX
  8
0
 10
768.528
 20
927.29
 30
0.0
 40
0.352778
 41
0.352778
  0
VERTEX
  8
0
 10
736.778
 20
927.29
 30
0.0
 40
0.352778
 41
0.352778
  0
VERTEX
  8
0
 10
736.778
 20
933.64
 30
0.0
 40
0.352778
 41
0.352778
  0
SEQEND
 8
0
  0
POLYLINE
  8
0
 62
     0
 66
     1
 10
0
 20
0
 30
0.0
 70
     1
 40
25.4
 41
25.4
  0
VERTEX
  8
0
 10
745.849
 20
920.938
 30
0.0
 40
0.352778
 41
0.352778
  0
VERTEX
  8
0
 10
774.878
 20
920.938
 30
0.0
 40
0.352778
 41
0.352778
  0
VERTEX
  8
0
 10
774.878
 20
914.587
 30
0.0
 40
0.352778
 41
0.352778
  0
VERTEX
  8
0
 10
745.849
 20
914.587
 30
0.0
 40
0.352778
 41
0.352778
  0
VERTEX
  8
0
 10
745.849
 20
920.938
 30
0.0
 40
0.352778
 41
0.352778
  0
SEQEND
 8
0
  0
POLYLINE
  8
0
 62
     0
 66
     1
 10
0
 20
0
 30
0.0
 70
     1
 40
25.4
 41
25.4
  0
VERTEX
  8
0
 10
687.792
 20
920.938
 30
0.0
 40
0.352778
 41
0.352778
  0
VERTEX
  8
0
 10
716.821
 20
920.938
 30
0.0
 40
0.352778
 41
0.352778
  0
VERTEX
  8
0
 10
716.821
 20
914.587
 30
0.0
 40
0.352778
 41
0.352778
  0
VERTEX
  8
0
 10
687.792
 20
914.587
 30
0.0
 40
0.352778
 41
0.352778
  0
VERTEX
  8
0
 10
687.792
 20
920.938
 30
0.0
 40
0.352778
 41
0.352778
  0
SEQEND
 8
0
  0
POLYLINE
  8
0
 62
     0
 66
     1
 10
0
 20
0
 30
0.0
 70
     1
 40
25.4
 41
25.4
  0
VERTEX
  8
0
 10
629.735
 20
920.938
 30
0.0
 40
0.352778
 41
0.352778
  0
VERTEX
  8
0
 10
658.762
 20
920.938
 30
0.0
 40
0.352778
 41
0.352778
  0
VERTEX
  8
0
 10
658.762
 20
914.587
 30
0.0
 40
0.352778
 41
0.352778
  0
VERTEX
  8
0
 10
629.735
 20
914.587
 30
0.0
 40
0.352778
 41
0.352778
  0
VERTEX
  8
0
 10
629.735
 20
920.938
 30
0.0
 40
0.352778
 41
0.352778
  0
SEQEND
 8
0
  0
POLYLINE
  8
0
 62
     0
 66
     1
 10
0
 20
0
 30
0.0
 70
     1
 40
25.4
 41
25.4
  0
VERTEX
  8
0
 10
546.278
 20
933.64
 30
0.0
 40
0.352778
 41
0.352778
  0
VERTEX
  8
0
 10
578.028
 20
933.64
 30
0.0
 40
0.352778
 41
0.352778
  0
VERTEX
  8
0
 10
578.028
 20
927.29
 30
0.0
 40
0.352778
 41
0.352778
  0
VERTEX
  8
0
 10
546.278
 20
927.29
 30
0.0
 40
0.352778
 41
0.352778
  0
VERTEX
  8
0
 10
546.278
 20
933.64
 30
0.0
 40
0.352778
 41
0.352778
  0
SEQEND
 8
0
  0
POLYLINE
  8
0
 62
     0
 66
     1
 10
0
 20
0
 30
0.0
 40
25.4
 41
25.4
  0
VERTEX
  8
0
 10
800.278
 20
1016.18
 30
0.0
 40
0.352778
 41
0.352778
  0
VERTEX
  8
0
 10
806.628
 20
1016.18
 30
0.0
 40
0.352778
 41
0.352778
  0
VERTEX
  8
0
 10
806.628
 20
1047.93
 30
0.0
 40
0.352778
 41
0.352778
  0
VERTEX
  8
0
 10
800.278
 20
1047.93
 30
0.0
 40
0.352778
 41
0.352778
  0
SEQEND
 8
0
  0
POLYLINE
  8
0
 62
     0
 66
     1
 10
0
 20
0
 30
0.0
 40
25.4
 41
25.4
  0
VERTEX
  8
0
 10
800.278
 20
984.435
 30
0.0
 40
0.352778
 41
0.352778
  0
VERTEX
  8
0
 10
806.628
 20
984.435
 30
0.0
 40
0.352778
 41
0.352778
  0
VERTEX
  8
0
 10
806.628
 20
952.685
 30
0.0
 40
0.352778
 41
0.352778
  0
VERTEX
  8
0
 10
800.278
 20
952.685
 30
0.0
 40
0.352778
 41
0.352778
  0
SEQEND
 8
0
  0
POLYLINE
  8
0
 62
     0
 66
     1
 10
0
 20
0
 30
0.0
 40
25.4
 41
25.4
  0
VERTEX
  8
0
 10
800.278
 20
920.935
 30
0.0
 40
0.352778
 41
0.352778
  0
VERTEX
  8
0
 10
806.628
 20
920.935
 30
0.0
 40
0.352778
 41
0.352778
  0
VERTEX
  8
0
 10
860.603
 20
971.735
 30
0.0
 40
0.352778
 41
0.352778
  0
VERTEX
  8
0
 10
860.603
 20
1174.93
 30
0.0
 40
0.352778
 41
0.352778
  0
VERTEX
  8
0
 10
806.628
 20
1174.93
 30
0.0
 40
0.352778
 41
0.352778
  0
VERTEX
  8
0
 10
806.628
 20
1143.18
 30
0.0
 40
0.352778
 41
0.352778
  0
VERTEX
  8
0
 10
800.278
 20
1143.18
 30
0.0
 40
0.352778
 41
0.352778
  0
SEQEND
 8
0
  0
POLYLINE
  8
0
 62
     0
 66
     1
 10
0
 20
0
 30
0.0
 40
25.4
 41
25.4
  0
VERTEX
  8
0
 10
800.278
 20
1111.43
 30
0.0
 40
0.352778
 41
0.352778
  0
VERTEX
  8
0
 10
806.628
 20
1111.43
 30
0.0
 40
0.352778
 41
0.352778
  0
VERTEX
  8
0
 10
806.628
 20
1079.68
 30
0.0
 40
0.352778
 41
0.352778
  0
VERTEX
  8
0
 10
800.278
 20
1079.68
 30
0.0
 40
0.352778
 41
0.352778
  0
SEQEND
 8
0
  0
POLYLINE
  8
0
 62
     0
 66
     1
 10
0
 20
0
 30
0.0
 40
25.4
 41
25.4
  0
VERTEX
  8
0
 10
800.278
 20
762.185
 30
0.0
 40
0.352778
 41
0.352778
  0
VERTEX
  8
0
 10
806.628
 20
762.185
 30
0.0
 40
0.352778
 41
0.352778
  0
VERTEX
  8
0
 10
806.628
 20
793.935
 30
0.0
 40
0.352778
 41
0.352778
  0
VERTEX
  8
0
 10
800.278
 20
793.935
 30
0.0
 40
0.352778
 41
0.352778
  0
SEQEND
 8
0
  0
POLYLINE
  8
0
 62
     0
 66
     1
 10
0
 20
0
 30
0.0
 40
25.4
 41
25.4
  0
VERTEX
  8
0
 10
800.278
 20
730.435
 30
0.0
 40
0.352778
 41
0.352778
  0
VERTEX
  8
0
 10
806.628
 20
730.435
 30
0.0
 40
0.352778
 41
0.352778
  0
VERTEX
  8
0
 10
806.628
 20
698.683
 30
0.0
 40
0.352778
 41
0.352778
  0
VERTEX
  8
0
 10
800.278
 20
698.683
 30
0.0
 40
0.352778
 41
0.352778
  0
SEQEND
 8
0
  0
POLYLINE
  8
0
 62
     0
 66
     1
 10
0
 20
0
 30
0.0
 40
25.4
 41
25.4
  0
VERTEX
  8
0
 10
800.278
 20
666.933
 30
0.0
 40
0.352778
 41
0.352778
  0
VERTEX
  8
0
 10
806.628
 20
666.933
 30
0.0
 40
0.352778
 41
0.352778
  0
VERTEX
  8
0
 10
860.603
 20
717.733
 30
0.0
 40
0.352778
 41
0.352778
  0
VERTEX
  8
0
 10
860.603
 20
920.935
 30
0.0
 40
0.352778
 41
0.352778
  0
VERTEX
  8
0
 10
806.628
 20
920.935
 30
0.0
 40
0.352778
 41
0.352778
  0
VERTEX
  8
0
 10
806.628
 20
889.185
 30
0.0
 40
0.352778
 41
0.352778
  0
VERTEX
  8
0
 10
800.278
 20
889.185
 30
0.0
 40
0.352778
 41
0.352778
  0
SEQEND
 8
0
  0
POLYLINE
  8
0
 62
     0
 66
     1
 10
0
 20
0
 30
0.0
 40
25.4
 41
25.4
  0
VERTEX
  8
0
 10
800.278
 20
857.435
 30
0.0
 40
0.352778
 41
0.352778
  0
VERTEX
  8
0
 10
806.628
 20
857.435
 30
0.0
 40
0.352778
 41
0.352778
  0
VERTEX
  8
0
 10
806.628
 20
825.685
 30
0.0
 40
0.352778
 41
0.352778
  0
VERTEX
  8
0
 10
800.278
 20
825.685
 30
0.0
 40
0.352778
 41
0.352778
  0
SEQEND
 8
0
  0
POLYLINE
  8
0
 62
     0
 66
     1
 10
0
 20
0
 30
0.0
 40
25.4
 41
25.4
  0
VERTEX
  8
0
 10
203.376
 20
663.764
 30
0.0
 40
0.352778
 41
0.352778
  0
VERTEX
  8
0
 10
203.376
 20
631.154
 30
0.0
 40
0.352778
 41
0.352778
  0
VERTEX
  8
0
 10
174.349
 20
631.154
 30
0.0
 40
0.352778
 41
0.352778
  0
VERTEX
  8
0
 10
174.349
 20
637.504
 30
0.0
 40
0.352778
 41
0.352778
  0
VERTEX
  8
0
 10
145.319
 20
637.504
 30
0.0
 40
0.352778
 41
0.352778
  0
VERTEX
  8
0
 10
145.319
 20
631.154
 30
0.0
 40
0.352778
 41
0.352778
  0
VERTEX
  8
0
 10
116.291
 20
631.154
 30
0.0
 40
0.352778
 41
0.352778
  0
VERTEX
  8
0
 10
116.291
 20
637.504
 30
0.0
 40
0.352778
 41
0.352778
  0
VERTEX
  8
0
 10
87.2622
 20
637.504
 30
0.0
 40
0.352778
 41
0.352778
  0
VERTEX
  8
0
 10
87.2622
 20
631.154
 30
0.0
 40
0.352778
 41
0.352778
  0
VERTEX
  8
0
 10
58.2336
 20
631.154
 30
0.0
 40
0.352778
 41
0.352778
  0
VERTEX
  8
0
 10
58.2336
 20
637.504
 30
0.0
 40
0.352778
 41
0.352778
  0
VERTEX
  8
0
 10
29.205
 20
637.504
 30
0.0
 40
0.352778
 41
0.352778
  0
VERTEX
  8
0
 10
29.205
 20
631.154
 30
0.0
 40
0.352778
 41
0.352778
  0
VERTEX
  8
0
 10
0.176378
 20
631.154
 30
0.0
 40
0.352778
 41
0.352778
  0
VERTEX
  8
0
 10
0.176378
 20
663.764
 30
0.0
 40
0.352778
 41
0.352778
  0
SEQEND
 8
0
  0
POLYLINE
  8
0
 62
     0
 66
     1
 10
0
 20
0
 30
0.0
 40
25.4
 41
25.4
  0
VERTEX
  8
0
 10
203.376
 20
631.154
 30
0.0
 40
0.352778
 41
0.352778
  0
VERTEX
  8
0
 10
232.406
 20
631.154
 30
0.0
 40
0.352778
 41
0.352778
  0
VERTEX
  8
0
 10
232.406
 20
637.504
 30
0.0
 40
0.352778
 41
0.352778
  0
VERTEX
  8
0
 10
261.433
 20
637.504
 30
0.0
 40
0.352778
 41
0.352778
  0
VERTEX
  8
0
 10
261.433
 20
631.154
 30
0.0
 40
0.352778
 41
0.352778
  0
VERTEX
  8
0
 10
290.463
 20
631.154
 30
0.0
 40
0.352778
 41
0.352778
  0
VERTEX
  8
0
 10
290.463
 20
637.504
 30
0.0
 40
0.352778
 41
0.352778
  0
VERTEX
  8
0
 10
319.492
 20
637.504
 30
0.0
 40
0.352778
 41
0.352778
  0
VERTEX
  8
0
 10
319.492
 20
631.154
 30
0.0
 40
0.352778
 41
0.352778
  0
VERTEX
  8
0
 10
348.519
 20
631.154
 30
0.0
 40
0.352778
 41
0.352778
  0
VERTEX
  8
0
 10
348.519
 20
637.504
 30
0.0
 40
0.352778
 41
0.352778
  0
VERTEX
  8
0
 10
377.549
 20
637.504
 30
0.0
 40
0.352778
 41
0.352778
  0
VERTEX
  8
0
 10
377.549
 20
631.154
 30
0.0
 40
0.352778
 41
0.352778
  0
VERTEX
  8
0
 10
406.576
 20
631.154
 30
0.0
 40
0.352778
 41
0.352778
  0
VERTEX
  8
0
 10
406.576
 20
663.764
 30
0.0
 40
0.352778
 41
0.352778
  0
SEQEND
 8
0
  0
POLYLINE
  8
0
 62
     0
 66
     1
 10
0
 20
0
 30
0.0
 40
25.4
 41
25.4
  0
VERTEX
  8
0
 10
406.576
 20
631.154
 30
0.0
 40
0.352778
 41
0.352778
  0
VERTEX
  8
0
 10
435.606
 20
631.154
 30
0.0
 40
0.352778
 41
0.352778
  0
VERTEX
  8
0
 10
435.606
 20
637.504
 30
0.0
 40
0.352778
 41
0.352778
  0
VERTEX
  8
0
 10
464.635
 20
637.504
 30
0.0
 40
0.352778
 41
0.352778
  0
VERTEX
  8
0
 10
464.635
 20
631.154
 30
0.0
 40
0.352778
 41
0.352778
  0
VERTEX
  8
0
 10
493.662
 20
631.154
 30
0.0
 40
0.352778
 41
0.352778
  0
VERTEX
  8
0
 10
493.662
 20
637.504
 30
0.0
 40
0.352778
 41
0.352778
  0
VERTEX
  8
0
 10
522.692
 20
637.504
 30
0.0
 40
0.352778
 41
0.352778
  0
VERTEX
  8
0
 10
522.692
 20
631.154
 30
0.0
 40
0.352778
 41
0.352778
  0
VERTEX
  8
0
 10
551.719
 20
631.154
 30
0.0
 40
0.352778
 41
0.352778
  0
VERTEX
  8
0
 10
551.719
 20
637.504
 30
0.0
 40
0.352778
 41
0.352778
  0
VERTEX
  8
0
 10
580.749
 20
637.504
 30
0.0
 40
0.352778
 41
0.352778
  0
VERTEX
  8
0
 10
580.749
 20
631.154
 30
0.0
 40
0.352778
 41
0.352778
  0
VERTEX
  8
0
 10
609.778
 20
631.154
 30
0.0
 40
0.352778
 41
0.352778
  0
VERTEX
  8
0
 10
609.778
 20
663.764
 30
0.0
 40
0.352778
 41
0.352778
  0
SEQEND
 8
0
  0
POLYLINE
  8
0
 62
     0
 66
     1
 10
0
 20
0
 30
0.0
 40
25.4
 41
25.4
  0
VERTEX
  8
0
 10
609.778
 20
631.154
 30
0.0
 40
0.352778
 41
0.352778
  0
VERTEX
  8
0
 10
638.806
 20
631.154
 30
0.0
 40
0.352778
 41
0.352778
  0
VERTEX
  8
0
 10
638.806
 20
637.504
 30
0.0
 40
0.352778
 41
0.352778
  0
VERTEX
  8
0
 10
667.835
 20
637.504
 30
0.0
 40
0.352778
 41
0.352778
  0
VERTEX
  8
0
 10
667.835
 20
631.154
 30
0.0
 40
0.352778
 41
0.352778
  0
VERTEX
  8
0
 10
696.864
 20
631.154
 30
0.0
 40
0.352778
 41
0.352778
  0
VERTEX
  8
0
 10
696.864
 20
637.504
 30
0.0
 40
0.352778
 41
0.352778
  0
VERTEX
  8
0
 10
725.892
 20
637.504
 30
0.0
 40
0.352778
 41
0.352778
  0
VERTEX
  8
0
 10
725.892
 20
631.154
 30
0.0
 40
0.352778
 41
0.352778
  0
VERTEX
  8
0
 10
754.921
 20
631.154
 30
0.0
 40
0.352778
 41
0.352778
  0
VERTEX
  8
0
 10
754.921
 20
637.504
 30
0.0
 40
0.352778
 41
0.352778
  0
VERTEX
  8
0
 10
783.949
 20
637.504
 30
0.0
 40
0.352778
 41
0.352778
  0
VERTEX
  8
0
 10
783.949
 20
631.154
 30
0.0
 40
0.352778
 41
0.352778
  0
VERTEX
  8
0
 10
812.978
 20
631.154
 30
0.0
 40
0.352778
 41
0.352778
  0
VERTEX
  8
0
 10
812.978
 20
663.764
 30
0.0
 40
0.352778
 41
0.352778
  0
SEQEND
 8
0
  0
POLYLINE
  8
0
 62
     0
 66
     1
 10
0
 20
0
 30
0.0
 40
25.4
 41
25.4
  0
VERTEX
  8
0
 10
304.976
 20
511.36
 30
0.0
 40
0.352778
 41
0.352778
  0
VERTEX
  8
0
 10
304.976
 20
0.188911
 30
0.0
 40
0.352778
 41
0.352778
  0
VERTEX
  8
0
 10
0.176378
 20
0.188911
 30
0.0
 40
0.352778
 41
0.352778
  0
VERTEX
  8
0
 10
0.176378
 20
511.36
 30
0.0
 40
0.352778
 41
0.352778
  0
VERTEX
  8
0
 10
609.778
 20
511.36
 30
0.0
 40
0.352778
 41
0.352778
  0
SEQEND
 8
0
  0
POLYLINE
  8
0
 62
     0
 66
     1
 10
0
 20
0
 30
0.0
 70
     1
 40
25.4
 41
25.4
  0
VERTEX
  8
0
 10
95.4265
 20
247.833
 30
0.0
 40
0.352778
 41
0.352778
  0
VERTEX
  8
0
 10
127.177
 20
247.833
 30
0.0
 40
0.352778
 41
0.352778
  0
VERTEX
  8
0
 10
127.177
 20
241.483
 30
0.0
 40
0.352778
 41
0.352778
  0
VERTEX
  8
0
 10
95.4265
 20
241.483
 30
0.0
 40
0.352778
 41
0.352778
  0
VERTEX
  8
0
 10
95.4265
 20
247.833
 30
0.0
 40
0.352778
 41
0.352778
  0
SEQEND
 8
0
  0
POLYLINE
  8
0
 62
     0
 66
     1
 10
0
 20
0
 30
0.0
 70
     1
 40
25.4
 41
25.4
  0
VERTEX
  8
0
 10
158.926
 20
247.833
 30
0.0
 40
0.352778
 41
0.352778
  0
VERTEX
  8
0
 10
190.676
 20
247.833
 30
0.0
 40
0.352778
 41
0.352778
  0
VERTEX
  8
0
 10
190.676
 20
241.483
 30
0.0
 40
0.352778
 41
0.352778
  0
VERTEX
  8
0
 10
158.926
 20
241.483
 30
0.0
 40
0.352778
 41
0.352778
  0
VERTEX
  8
0
 10
158.926
 20
247.833
 30
0.0
 40
0.352778
 41
0.352778
  0
SEQEND
 8
0
  0
POLYLINE
  8
0
 62
     0
 66
     1
 10
0
 20
0
 30
0.0
 70
     1
 40
25.4
 41
25.4
  0
VERTEX
  8
0
 10
199.749
 20
260.536
 30
0.0
 40
0.352778
 41
0.352778
  0
VERTEX
  8
0
 10
228.776
 20
260.536
 30
0.0
 40
0.352778
 41
0.352778
  0
VERTEX
  8
0
 10
228.776
 20
254.186
 30
0.0
 40
0.352778
 41
0.352778
  0
VERTEX
  8
0
 10
199.749
 20
254.186
 30
0.0
 40
0.352778
 41
0.352778
  0
VERTEX
  8
0
 10
199.749
 20
260.536
 30
0.0
 40
0.352778
 41
0.352778
  0
SEQEND
 8
0
  0
POLYLINE
  8
0
 62
     0
 66
     1
 10
0
 20
0
 30
0.0
 70
     1
 40
25.4
 41
25.4
  0
VERTEX
  8
0
 10
31.9264
 20
247.833
 30
0.0
 40
0.352778
 41
0.352778
  0
VERTEX
  8
0
 10
63.6765
 20
247.833
 30
0.0
 40
0.352778
 41
0.352778
  0
VERTEX
  8
0
 10
63.6765
 20
241.483
 30
0.0
 40
0.352778
 41
0.352778
  0
VERTEX
  8
0
 10
31.9264
 20
241.483
 30
0.0
 40
0.352778
 41
0.352778
  0
VERTEX
  8
0
 10
31.9264
 20
247.833
 30
0.0
 40
0.352778
 41
0.352778
  0
SEQEND
 8
0
  0
POLYLINE
  8
0
 62
     0
 66
     1
 10
0
 20
0
 30
0.0
 70
     1
 40
25.4
 41
25.4
  0
VERTEX
  8
0
 10
25.5764
 20
260.536
 30
0.0
 40
0.352778
 41
0.352778
  0
VERTEX
  8
0
 10
54.605
 20
260.536
 30
0.0
 40
0.352778
 41
0.352778
  0
VERTEX
  8
0
 10
54.605
 20
254.186
 30
0.0
 40
0.352778
 41
0.352778
  0
VERTEX
  8
0
 10
25.5764
 20
254.186
 30
0.0
 40
0.352778
 41
0.352778
  0
VERTEX
  8
0
 10
25.5764
 20
260.536
 30
0.0
 40
0.352778
 41
0.352778
  0
SEQEND
 8
0
  0
POLYLINE
  8
0
 62
     0
 66
     1
 10
0
 20
0
 30
0.0
 70
     1
 40
25.4
 41
25.4
  0
VERTEX
  8
0
 10
83.6337
 20
260.536
 30
0.0
 40
0.352778
 41
0.352778
  0
VERTEX
  8
0
 10
112.662
 20
260.536
 30
0.0
 40
0.352778
 41
0.352778
  0
VERTEX
  8
0
 10
112.662
 20
254.186
 30
0.0
 40
0.352778
 41
0.352778
  0
VERTEX
  8
0
 10
83.6337
 20
254.186
 30
0.0
 40
0.352778
 41
0.352778
  0
VERTEX
  8
0
 10
83.6337
 20
260.536
 30
0.0
 40
0.352778
 41
0.352778
  0
SEQEND
 8
0
  0
POLYLINE
  8
0
 62
     0
 66
     1
 10
0
 20
0
 30
0.0
 70
     1
 40
25.4
 41
25.4
  0
VERTEX
  8
0
 10
141.69
 20
260.536
 30
0.0
 40
0.352778
 41
0.352778
  0
VERTEX
  8
0
 10
170.719
 20
260.536
 30
0.0
 40
0.352778
 41
0.352778
  0
VERTEX
  8
0
 10
170.719
 20
254.186
 30
0.0
 40
0.352778
 41
0.352778
  0
VERTEX
  8
0
 10
141.69
 20
254.186
 30
0.0
 40
0.352778
 41
0.352778
  0
VERTEX
  8
0
 10
141.69
 20
260.536
 30
0.0
 40
0.352778
 41
0.352778
  0
SEQEND
 8
0
  0
POLYLINE
  8
0
 62
     0
 66
     1
 10
0
 20
0
 30
0.0
 70
     1
 40
25.4
 41
25.4
  0
VERTEX
  8
0
 10
222.426
 20
247.833
 30
0.0
 40
0.352778
 41
0.352778
  0
VERTEX
  8
0
 10
254.176
 20
247.833
 30
0.0
 40
0.352778
 41
0.352778
  0
VERTEX
  8
0
 10
254.176
 20
241.483
 30
0.0
 40
0.352778
 41
0.352778
  0
VERTEX
  8
0
 10
222.426
 20
241.483
 30
0.0
 40
0.352778
 41
0.352778
  0
VERTEX
  8
0
 10
222.426
 20
247.833
 30
0.0
 40
0.352778
 41
0.352778
  0
SEQEND
 8
0
  0
POLYLINE
  8
0
 62
     0
 66
     1
 10
0
 20
0
 30
0.0
 40
25.4
 41
25.4
  0
VERTEX
  8
0
 10
609.778
 20
511.36
 30
0.0
 40
0.352778
 41
0.352778
  0
VERTEX
  8
0
 10
609.778
 20
0.188911
 30
0.0
 40
0.352778
 41
0.352778
  0
VERTEX
  8
0
 10
304.976
 20
0.188911
 30
0.0
 40
0.352778
 41
0.352778
  0
SEQEND
 8
0
  0
POLYLINE
  8
0
 62
     0
 66
     1
 10
0
 20
0
 30
0.0
 70
     1
 40
25.4
 41
25.4
  0
VERTEX
  8
0
 10
400.226
 20
247.833
 30
0.0
 40
0.352778
 41
0.352778
  0
VERTEX
  8
0
 10
431.978
 20
247.833
 30
0.0
 40
0.352778
 41
0.352778
  0
VERTEX
  8
0
 10
431.978
 20
241.483
 30
0.0
 40
0.352778
 41
0.352778
  0
VERTEX
  8
0
 10
400.226
 20
241.483
 30
0.0
 40
0.352778
 41
0.352778
  0
VERTEX
  8
0
 10
400.226
 20
247.833
 30
0.0
 40
0.352778
 41
0.352778
  0
SEQEND
 8
0
  0
POLYLINE
  8
0
 62
     0
 66
     1
 10
0
 20
0
 30
0.0
 70
     1
 40
25.4
 41
25.4
  0
VERTEX
  8
0
 10
463.728
 20
247.833
 30
0.0
 40
0.352778
 41
0.352778
  0
VERTEX
  8
0
 10
495.478
 20
247.833
 30
0.0
 40
0.352778
 41
0.352778
  0
VERTEX
  8
0
 10
495.478
 20
241.483
 30
0.0
 40
0.352778
 41
0.352778
  0
VERTEX
  8
0
 10
463.728
 20
241.483
 30
0.0
 40
0.352778
 41
0.352778
  0
VERTEX
  8
0
 10
463.728
 20
247.833
 30
0.0
 40
0.352778
 41
0.352778
  0
SEQEND
 8
0
  0
POLYLINE
  8
0
 62
     0
 66
     1
 10
0
 20
0
 30
0.0
 70
     1
 40
25.4
 41
25.4
  0
VERTEX
  8
0
 10
504.549
 20
260.536
 30
0.0
 40
0.352778
 41
0.352778
  0
VERTEX
  8
0
 10
533.578
 20
260.536
 30
0.0
 40
0.352778
 41
0.352778
  0
VERTEX
  8
0
 10
533.578
 20
254.186
 30
0.0
 40
0.352778
 41
0.352778
  0
VERTEX
  8
0
 10
504.549
 20
254.186
 30
0.0
 40
0.352778
 41
0.352778
  0
VERTEX
  8
0
 10
504.549
 20
260.536
 30
0.0
 40
0.352778
 41
0.352778
  0
SEQEND
 8
0
  0
POLYLINE
  8
0
 62
     0
 66
     1
 10
0
 20
0
 30
0.0
 70
     1
 40
25.4
 41
25.4
  0
VERTEX
  8
0
 10
336.726
 20
247.833
 30
0.0
 40
0.352778
 41
0.352778
  0
VERTEX
  8
0
 10
368.476
 20
247.833
 30
0.0
 40
0.352778
 41
0.352778
  0
VERTEX
  8
0
 10
368.476
 20
241.483
 30
0.0
 40
0.352778
 41
0.352778
  0
VERTEX
  8
0
 10
336.726
 20
241.483
 30
0.0
 40
0.352778
 41
0.352778
  0
VERTEX
  8
0
 10
336.726
 20
247.833
 30
0.0
 40
0.352778
 41
0.352778
  0
SEQEND
 8
0
  0
POLYLINE
  8
0
 62
     0
 66
     1
 10
0
 20
0
 30
0.0
 70
     1
 40
25.4
 41
25.4
  0
VERTEX
  8
0
 10
330.376
 20
260.536
 30
0.0
 40
0.352778
 41
0.352778
  0
VERTEX
  8
0
 10
359.406
 20
260.536
 30
0.0
 40
0.352778
 41
0.352778
  0
VERTEX
  8
0
 10
359.406
 20
254.186
 30
0.0
 40
0.352778
 41
0.352778
  0
VERTEX
  8
0
 10
330.376
 20
254.186
 30
0.0
 40
0.352778
 41
0.352778
  0
VERTEX
  8
0
 10
330.376
 20
260.536
 30
0.0
 40
0.352778
 41
0.352778
  0
SEQEND
 8
0
  0
POLYLINE
  8
0
 62
     0
 66
     1
 10
0
 20
0
 30
0.0
 70
     1
 40
25.4
 41
25.4
  0
VERTEX
  8
0
 10
388.435
 20
260.536
 30
0.0
 40
0.352778
 41
0.352778
  0
VERTEX
  8
0
 10
417.463
 20
260.536
 30
0.0
 40
0.352778
 41
0.352778
  0
VERTEX
  8
0
 10
417.463
 20
254.186
 30
0.0
 40
0.352778
 41
0.352778
  0
VERTEX
  8
0
 10
388.435
 20
254.186
 30
0.0
 40
0.352778
 41
0.352778
  0
VERTEX
  8
0
 10
388.435
 20
260.536
 30
0.0
 40
0.352778
 41
0.352778
  0
SEQEND
 8
0
  0
POLYLINE
  8
0
 62
     0
 66
     1
 10
0
 20
0
 30
0.0
 70
     1
 40
25.4
 41
25.4
  0
VERTEX
  8
0
 10
446.492
 20
260.536
 30
0.0
 40
0.352778
 41
0.352778
  0
VERTEX
  8
0
 10
475.519
 20
260.536
 30
0.0
 40
0.352778
 41
0.352778
  0
VERTEX
  8
0
 10
475.519
 20
254.186
 30
0.0
 40
0.352778
 41
0.352778
  0
VERTEX
  8
0
 10
446.492
 20
254.186
 30
0.0
 40
0.352778
 41
0.352778
  0
VERTEX
  8
0
 10
446.492
 20
260.536
 30
0.0
 40
0.352778
 41
0.352778
  0
SEQEND
 8
0
  0
POLYLINE
  8
0
 62
     0
 66
     1
 10
0
 20
0
 30
0.0
 70
     1
 40
25.4
 41
25.4
  0
VERTEX
  8
0
 10
527.228
 20
247.833
 30
0.0
 40
0.352778
 41
0.352778
  0
VERTEX
  8
0
 10
558.978
 20
247.833
 30
0.0
 40
0.352778
 41
0.352778
  0
VERTEX
  8
0
 10
558.978
 20
241.483
 30
0.0
 40
0.352778
 41
0.352778
  0
VERTEX
  8
0
 10
527.228
 20
241.483
 30
0.0
 40
0.352778
 41
0.352778
  0
VERTEX
  8
0
 10
527.228
 20
247.833
 30
0.0
 40
0.352778
 41
0.352778
  0
SEQEND
 8
0
  0
POLYLINE
  8
0
 62
     0
 66
     1
 10
0
 20
0
 30
0.0
 40
25.4
 41
25.4
  0
VERTEX
  8
0
 10
609.778
 20
511.36
 30
0.0
 40
0.352778
 41
0.352778
  0
VERTEX
  8
0
 10
800.278
 20
511.36
 30
0.0
 40
0.352778
 41
0.352778
  0
VERTEX
  8
0
 10
800.278
 20
0.188911
 30
0.0
 40
0.352778
 41
0.352778
  0
VERTEX
  8
0
 10
609.778
 20
0.188911
 30
0.0
 40
0.352778
 41
0.352778
  0
SEQEND
 8
0
  0
POLYLINE
  8
0
 62
     0
 66
     1
 10
0
 20
0
 30
0.0
 40
25.4
 41
25.4
  0
VERTEX
  8
0
 10
800.278
 20
352.61
 30
0.0
 40
0.352778
 41
0.352778
  0
VERTEX
  8
0
 10
806.628
 20
352.61
 30
0.0
 40
0.352778
 41
0.352778
  0
VERTEX
  8
0
 10
806.628
 20
384.36
 30
0.0
 40
0.352778
 41
0.352778
  0
VERTEX
  8
0
 10
800.278
 20
384.36
 30
0.0
 40
0.352778
 41
0.352778
  0
SEQEND
 8
0
  0
POLYLINE
  8
0
 62
     0
 66
     1
 10
0
 20
0
 30
0.0
 40
25.4
 41
25.4
  0
VERTEX
  8
0
 10
800.278
 20
320.86
 30
0.0
 40
0.352778
 41
0.352778
  0
VERTEX
  8
0
 10
806.628
 20
320.86
 30
0.0
 40
0.352778
 41
0.352778
  0
VERTEX
  8
0
 10
806.628
 20
289.11
 30
0.0
 40
0.352778
 41
0.352778
  0
VERTEX
  8
0
 10
800.278
 20
289.11
 30
0.0
 40
0.352778
 41
0.352778
  0
SEQEND
 8
0
  0
POLYLINE
  8
0
 62
     0
 66
     1
 10
0
 20
0
 30
0.0
 40
25.4
 41
25.4
  0
VERTEX
  8
0
 10
800.278
 20
257.36
 30
0.0
 40
0.352778
 41
0.352778
  0
VERTEX
  8
0
 10
806.628
 20
257.36
 30
0.0
 40
0.352778
 41
0.352778
  0
VERTEX
  8
0
 10
860.603
 20
308.16
 30
0.0
 40
0.352778
 41
0.352778
  0
VERTEX
  8
0
 10
860.603
 20
511.36
 30
0.0
 40
0.352778
 41
0.352778
  0
VERTEX
  8
0
 10
806.628
 20
511.36
 30
0.0
 40
0.352778
 41
0.352778
  0
VERTEX
  8
0
 10
806.628
 20
479.61
 30
0.0
 40
0.352778
 41
0.352778
  0
VERTEX
  8
0
 10
800.278
 20
479.61
 30
0.0
 40
0.352778
 41
0.352778
  0
SEQEND
 8
0
  0
POLYLINE
  8
0
 62
     0
 66
     1
 10
0
 20
0
 30
0.0
 40
25.4
 41
25.4
  0
VERTEX
  8
0
 10
800.278
 20
447.86
 30
0.0
 40
0.352778
 41
0.352778
  0
VERTEX
  8
0
 10
806.628
 20
447.86
 30
0.0
 40
0.352778
 41
0.352778
  0
VERTEX
  8
0
 10
806.628
 20
416.11
 30
0.0
 40
0.352778
 41
0.352778
  0
VERTEX
  8
0
 10
800.278
 20
416.11
 30
0.0
 40
0.352778
 41
0.352778
  0
SEQEND
 8
0
  0
POLYLINE
  8
0
 62
     0
 66
     1
 10
0
 20
0
 30
0.0
 40
25.4
 41
25.4
  0
VERTEX
  8
0
 10
800.278
 20
98.609
 30
0.0
 40
0.352778
 41
0.352778
  0
VERTEX
  8
0
 10
806.628
 20
98.609
 30
0.0
 40
0.352778
 41
0.352778
  0
VERTEX
  8
0
 10
806.628
 20
130.359
 30
0.0
 40
0.352778
 41
0.352778
  0
VERTEX
  8
0
 10
800.278
 20
130.359
 30
0.0
 40
0.352778
 41
0.352778
  0
SEQEND
 8
0
  0
POLYLINE
  8
0
 62
     0
 66
     1
 10
0
 20
0
 30
0.0
 40
25.4
 41
25.4
  0
VERTEX
  8
0
 10
800.278
 20
66.859
 30
0.0
 40
0.352778
 41
0.352778
  0
VERTEX
  8
0
 10
806.628
 20
66.859
 30
0.0
 40
0.352778
 41
0.352778
  0
VERTEX
  8
0
 10
806.628
 20
35.1089
 30
0.0
 40
0.352778
 41
0.352778
  0
VERTEX
  8
0
 10
800.278
 20
35.1089
 30
0.0
 40
0.352778
 41
0.352778
  0
SEQEND
 8
0
  0
POLYLINE
  8
0
 62
     0
 66
     1
 10
0
 20
0
 30
0.0
 40
25.4
 41
25.4
  0
VERTEX
  8
0
 10
800.278
 20
3.35894
 30
0.0
 40
0.352778
 41
0.352778
  0
VERTEX
  8
0
 10
806.628
 20
3.35894
 30
0.0
 40
0.352778
 41
0.352778
  0
VERTEX
  8
0
 10
860.603
 20
54.159
 30
0.0
 40
0.352778
 41
0.352778
  0
VERTEX
  8
0
 10
860.603
 20
257.36
 30
0.0
 40
0.352778
 41
0.352778
  0
VERTEX
  8
0
 10
806.628
 20
257.36
 30
0.0
 40
0.352778
 41
0.352778
  0
VERTEX
  8
0
 10
806.628
 20
225.61
 30
0.0
 40
0.352778
 41
0.352778
  0
VERTEX
  8
0
 10
800.278
 20
225.61
 30
0.0
 40
0.352778
 41
0.352778
  0
SEQEND
 8
0
  0
POLYLINE
  8
0
 62
     0
 66
     1
 10
0
 20
0
 30
0.0
 40
25.4
 41
25.4
  0
VERTEX
  8
0
 10
800.278
 20
193.86
 30
0.0
 40
0.352778
 41
0.352778
  0
VERTEX
  8
0
 10
806.628
 20
193.86
 30
0.0
 40
0.352778
 41
0.352778
  0
VERTEX
  8
0
 10
806.628
 20
162.11
 30
0.0
 40
0.352778
 41
0.352778
  0
VERTEX
  8
0
 10
800.278
 20
162.11
 30
0.0
 40
0.352778
 41
0.352778
  0
SEQEND
 8
0
  0
ENDSEC
  0
EOF
