  0
SECTION
  2
HEADER
  9
$ACADVER
  1
AC1009
  9
$EXTMIN
 10
0.0
 20
0.0
 30
0.0
  9
$EXTMAX
 10
1000.0
 20
1000.0
 30
0.0
  9
$FILLMODE
 70
 0
  9
$SPLFRAME
 70
 1
  0
ENDSEC
  0
SECTION
  2
TABLES
  0
TABLE
  2
LAYER
 70
1
  0
LAYER
  2
0
 70
     0
 62
     7
  6
CONTINUOUS
  0
ENDTAB
  0
ENDSEC
  0
SECTION
  2
ENTITIES
  0
POLYLINE
  8
0
 62
     0
 66
     1
 10
0
 20
0
 30
0.0
 70
     1
 40
24
 41
24
  0
VERTEX
  8
0
 10
16.0514
 20
495.488
 30
0.0
 40
0.333333
 41
0.333333
  0
VERTEX
  8
0
 10
16.0514
 20
495.407
 30
0.0
 40
0.333333
 41
0.333333
  0
VERTEX
  8
0
 10
16.035
 20
495.162
 30
0.0
 40
0.333333
 41
0.333333
  0
VERTEX
  8
0
 10
15.9869
 20
494.847
 30
0.0
 40
0.333333
 41
0.333333
  0
VERTEX
  8
0
 10
15.9086
 20
494.543
 30
0.0
 40
0.333333
 41
0.333333
  0
VERTEX
  8
0
 10
15.8019
 20
494.251
 30
0.0
 40
0.333333
 41
0.333333
  0
VERTEX
  8
0
 10
15.6682
 20
493.974
 30
0.0
 40
0.333333
 41
0.333333
  0
VERTEX
  8
0
 10
15.5092
 20
493.713
 30
0.0
 40
0.333333
 41
0.333333
  0
VERTEX
  8
0
 10
15.3264
 20
493.468
 30
0.0
 40
0.333333
 41
0.333333
  0
VERTEX
  8
0
 10
15.1215
 20
493.243
 30
0.0
 40
0.333333
 41
0.333333
  0
VERTEX
  8
0
 10
14.896
 20
493.037
 30
0.0
 40
0.333333
 41
0.333333
  0
VERTEX
  8
0
 10
14.6515
 20
492.854
 30
0.0
 40
0.333333
 41
0.333333
  0
VERTEX
  8
0
 10
14.3899
 20
492.696
 30
0.0
 40
0.333333
 41
0.333333
  0
VERTEX
  8
0
 10
14.1122
 20
492.563
 30
0.0
 40
0.333333
 41
0.333333
  0
VERTEX
  8
0
 10
13.8205
 20
492.456
 30
0.0
 40
0.333333
 41
0.333333
  0
VERTEX
  8
0
 10
13.5163
 20
492.376
 30
0.0
 40
0.333333
 41
0.333333
  0
VERTEX
  8
0
 10
13.201
 20
492.329
 30
0.0
 40
0.333333
 41
0.333333
  0
VERTEX
  8
0
 10
12.9575
 20
492.313
 30
0.0
 40
0.333333
 41
0.333333
  0
VERTEX
  8
0
 10
12.8764
 20
492.313
 30
0.0
 40
0.333333
 41
0.333333
  0
VERTEX
  8
0
 10
12.7953
 20
492.313
 30
0.0
 40
0.333333
 41
0.333333
  0
VERTEX
  8
0
 10
12.5518
 20
492.329
 30
0.0
 40
0.333333
 41
0.333333
  0
VERTEX
  8
0
 10
12.2365
 20
492.376
 30
0.0
 40
0.333333
 41
0.333333
  0
VERTEX
  8
0
 10
11.9322
 20
492.456
 30
0.0
 40
0.333333
 41
0.333333
  0
VERTEX
  8
0
 10
11.6405
 20
492.563
 30
0.0
 40
0.333333
 41
0.333333
  0
VERTEX
  8
0
 10
11.363
 20
492.696
 30
0.0
 40
0.333333
 41
0.333333
  0
VERTEX
  8
0
 10
11.1012
 20
492.854
 30
0.0
 40
0.333333
 41
0.333333
  0
VERTEX
  8
0
 10
10.8568
 20
493.037
 30
0.0
 40
0.333333
 41
0.333333
  0
VERTEX
  8
0
 10
10.6313
 20
493.243
 30
0.0
 40
0.333333
 41
0.333333
  0
VERTEX
  8
0
 10
10.4264
 20
493.468
 30
0.0
 40
0.333333
 41
0.333333
  0
VERTEX
  8
0
 10
10.2436
 20
493.713
 30
0.0
 40
0.333333
 41
0.333333
  0
VERTEX
  8
0
 10
10.0846
 20
493.974
 30
0.0
 40
0.333333
 41
0.333333
  0
VERTEX
  8
0
 10
9.95085
 20
494.251
 30
0.0
 40
0.333333
 41
0.333333
  0
VERTEX
  8
0
 10
9.84412
 20
494.543
 30
0.0
 40
0.333333
 41
0.333333
  0
VERTEX
  8
0
 10
9.76585
 20
494.847
 30
0.0
 40
0.333333
 41
0.333333
  0
VERTEX
  8
0
 10
9.71778
 20
495.162
 30
0.0
 40
0.333333
 41
0.333333
  0
VERTEX
  8
0
 10
9.70139
 20
495.407
 30
0.0
 40
0.333333
 41
0.333333
  0
VERTEX
  8
0
 10
9.70139
 20
495.488
 30
0.0
 40
0.333333
 41
0.333333
  0
VERTEX
  8
0
 10
9.70139
 20
495.568
 30
0.0
 40
0.333333
 41
0.333333
  0
VERTEX
  8
0
 10
9.71778
 20
495.813
 30
0.0
 40
0.333333
 41
0.333333
  0
VERTEX
  8
0
 10
9.76585
 20
496.128
 30
0.0
 40
0.333333
 41
0.333333
  0
VERTEX
  8
0
 10
9.84412
 20
496.432
 30
0.0
 40
0.333333
 41
0.333333
  0
VERTEX
  8
0
 10
9.95085
 20
496.724
 30
0.0
 40
0.333333
 41
0.333333
  0
VERTEX
  8
0
 10
10.0846
 20
497.001
 30
0.0
 40
0.333333
 41
0.333333
  0
VERTEX
  8
0
 10
10.2436
 20
497.262
 30
0.0
 40
0.333333
 41
0.333333
  0
VERTEX
  8
0
 10
10.4264
 20
497.507
 30
0.0
 40
0.333333
 41
0.333333
  0
VERTEX
  8
0
 10
10.6313
 20
497.732
 30
0.0
 40
0.333333
 41
0.333333
  0
VERTEX
  8
0
 10
10.8568
 20
497.938
 30
0.0
 40
0.333333
 41
0.333333
  0
VERTEX
  8
0
 10
11.1012
 20
498.121
 30
0.0
 40
0.333333
 41
0.333333
  0
VERTEX
  8
0
 10
11.363
 20
498.279
 30
0.0
 40
0.333333
 41
0.333333
  0
VERTEX
  8
0
 10
11.6405
 20
498.412
 30
0.0
 40
0.333333
 41
0.333333
  0
VERTEX
  8
0
 10
11.9322
 20
498.519
 30
0.0
 40
0.333333
 41
0.333333
  0
VERTEX
  8
0
 10
12.2365
 20
498.599
 30
0.0
 40
0.333333
 41
0.333333
  0
VERTEX
  8
0
 10
12.5518
 20
498.646
 30
0.0
 40
0.333333
 41
0.333333
  0
VERTEX
  8
0
 10
12.7953
 20
498.662
 30
0.0
 40
0.333333
 41
0.333333
  0
VERTEX
  8
0
 10
12.8764
 20
498.662
 30
0.0
 40
0.333333
 41
0.333333
  0
VERTEX
  8
0
 10
12.9575
 20
498.662
 30
0.0
 40
0.333333
 41
0.333333
  0
VERTEX
  8
0
 10
13.201
 20
498.646
 30
0.0
 40
0.333333
 41
0.333333
  0
VERTEX
  8
0
 10
13.5163
 20
498.599
 30
0.0
 40
0.333333
 41
0.333333
  0
VERTEX
  8
0
 10
13.8205
 20
498.519
 30
0.0
 40
0.333333
 41
0.333333
  0
VERTEX
  8
0
 10
14.1122
 20
498.412
 30
0.0
 40
0.333333
 41
0.333333
  0
VERTEX
  8
0
 10
14.3899
 20
498.279
 30
0.0
 40
0.333333
 41
0.333333
  0
VERTEX
  8
0
 10
14.6515
 20
498.121
 30
0.0
 40
0.333333
 41
0.333333
  0
VERTEX
  8
0
 10
14.896
 20
497.938
 30
0.0
 40
0.333333
 41
0.333333
  0
VERTEX
  8
0
 10
15.1215
 20
497.732
 30
0.0
 40
0.333333
 41
0.333333
  0
VERTEX
  8
0
 10
15.3264
 20
497.507
 30
0.0
 40
0.333333
 41
0.333333
  0
VERTEX
  8
0
 10
15.5092
 20
497.262
 30
0.0
 40
0.333333
 41
0.333333
  0
VERTEX
  8
0
 10
15.6682
 20
497.001
 30
0.0
 40
0.333333
 41
0.333333
  0
VERTEX
  8
0
 10
15.8019
 20
496.724
 30
0.0
 40
0.333333
 41
0.333333
  0
VERTEX
  8
0
 10
15.9086
 20
496.432
 30
0.0
 40
0.333333
 41
0.333333
  0
VERTEX
  8
0
 10
15.9869
 20
496.128
 30
0.0
 40
0.333333
 41
0.333333
  0
VERTEX
  8
0
 10
16.035
 20
495.813
 30
0.0
 40
0.333333
 41
0.333333
  0
VERTEX
  8
0
 10
16.0514
 20
495.568
 30
0.0
 40
0.333333
 41
0.333333
  0
VERTEX
  8
0
 10
16.0514
 20
495.488
 30
0.0
 40
0.333333
 41
0.333333
  0
SEQEND
 8
0
  0
POLYLINE
  8
0
 62
     0
 66
     1
 10
0
 20
0
 30
0.0
 70
     1
 40
24
 41
24
  0
VERTEX
  8
0
 10
275.726
 20
520.887
 30
0.0
 40
0.333333
 41
0.333333
  0
VERTEX
  8
0
 10
275.726
 20
520.849
 30
0.0
 40
0.333333
 41
0.333333
  0
VERTEX
  8
0
 10
275.719
 20
520.735
 30
0.0
 40
0.333333
 41
0.333333
  0
VERTEX
  8
0
 10
275.696
 20
520.585
 30
0.0
 40
0.333333
 41
0.333333
  0
VERTEX
  8
0
 10
275.66
 20
520.442
 30
0.0
 40
0.333333
 41
0.333333
  0
VERTEX
  8
0
 10
275.608
 20
520.304
 30
0.0
 40
0.333333
 41
0.333333
  0
VERTEX
  8
0
 10
275.546
 20
520.172
 30
0.0
 40
0.333333
 41
0.333333
  0
VERTEX
  8
0
 10
275.471
 20
520.049
 30
0.0
 40
0.333333
 41
0.333333
  0
VERTEX
  8
0
 10
275.385
 20
519.933
 30
0.0
 40
0.333333
 41
0.333333
  0
VERTEX
  8
0
 10
275.287
 20
519.826
 30
0.0
 40
0.333333
 41
0.333333
  0
VERTEX
  8
0
 10
275.181
 20
519.731
 30
0.0
 40
0.333333
 41
0.333333
  0
VERTEX
  8
0
 10
275.065
 20
519.643
 30
0.0
 40
0.333333
 41
0.333333
  0
VERTEX
  8
0
 10
274.942
 20
519.568
 30
0.0
 40
0.333333
 41
0.333333
  0
VERTEX
  8
0
 10
274.811
 20
519.506
 30
0.0
 40
0.333333
 41
0.333333
  0
VERTEX
  8
0
 10
274.672
 20
519.456
 30
0.0
 40
0.333333
 41
0.333333
  0
VERTEX
  8
0
 10
274.529
 20
519.418
 30
0.0
 40
0.333333
 41
0.333333
  0
VERTEX
  8
0
 10
274.381
 20
519.396
 30
0.0
 40
0.333333
 41
0.333333
  0
VERTEX
  8
0
 10
274.265
 20
519.387
 30
0.0
 40
0.333333
 41
0.333333
  0
VERTEX
  8
0
 10
274.226
 20
519.387
 30
0.0
 40
0.333333
 41
0.333333
  0
VERTEX
  8
0
 10
274.189
 20
519.387
 30
0.0
 40
0.333333
 41
0.333333
  0
VERTEX
  8
0
 10
274.074
 20
519.396
 30
0.0
 40
0.333333
 41
0.333333
  0
VERTEX
  8
0
 10
273.925
 20
519.418
 30
0.0
 40
0.333333
 41
0.333333
  0
VERTEX
  8
0
 10
273.781
 20
519.456
 30
0.0
 40
0.333333
 41
0.333333
  0
VERTEX
  8
0
 10
273.643
 20
519.506
 30
0.0
 40
0.333333
 41
0.333333
  0
VERTEX
  8
0
 10
273.513
 20
519.568
 30
0.0
 40
0.333333
 41
0.333333
  0
VERTEX
  8
0
 10
273.388
 20
519.643
 30
0.0
 40
0.333333
 41
0.333333
  0
VERTEX
  8
0
 10
273.272
 20
519.731
 30
0.0
 40
0.333333
 41
0.333333
  0
VERTEX
  8
0
 10
273.167
 20
519.826
 30
0.0
 40
0.333333
 41
0.333333
  0
VERTEX
  8
0
 10
273.069
 20
519.933
 30
0.0
 40
0.333333
 41
0.333333
  0
VERTEX
  8
0
 10
272.983
 20
520.049
 30
0.0
 40
0.333333
 41
0.333333
  0
VERTEX
  8
0
 10
272.908
 20
520.172
 30
0.0
 40
0.333333
 41
0.333333
  0
VERTEX
  8
0
 10
272.844
 20
520.304
 30
0.0
 40
0.333333
 41
0.333333
  0
VERTEX
  8
0
 10
272.794
 20
520.442
 30
0.0
 40
0.333333
 41
0.333333
  0
VERTEX
  8
0
 10
272.757
 20
520.585
 30
0.0
 40
0.333333
 41
0.333333
  0
VERTEX
  8
0
 10
272.735
 20
520.735
 30
0.0
 40
0.333333
 41
0.333333
  0
VERTEX
  8
0
 10
272.726
 20
520.849
 30
0.0
 40
0.333333
 41
0.333333
  0
VERTEX
  8
0
 10
272.726
 20
520.887
 30
0.0
 40
0.333333
 41
0.333333
  0
VERTEX
  8
0
 10
272.726
 20
520.926
 30
0.0
 40
0.333333
 41
0.333333
  0
VERTEX
  8
0
 10
272.735
 20
521.04
 30
0.0
 40
0.333333
 41
0.333333
  0
VERTEX
  8
0
 10
272.757
 20
521.19
 30
0.0
 40
0.333333
 41
0.333333
  0
VERTEX
  8
0
 10
272.794
 20
521.333
 30
0.0
 40
0.333333
 41
0.333333
  0
VERTEX
  8
0
 10
272.844
 20
521.471
 30
0.0
 40
0.333333
 41
0.333333
  0
VERTEX
  8
0
 10
272.908
 20
521.603
 30
0.0
 40
0.333333
 41
0.333333
  0
VERTEX
  8
0
 10
272.983
 20
521.726
 30
0.0
 40
0.333333
 41
0.333333
  0
VERTEX
  8
0
 10
273.069
 20
521.842
 30
0.0
 40
0.333333
 41
0.333333
  0
VERTEX
  8
0
 10
273.167
 20
521.949
 30
0.0
 40
0.333333
 41
0.333333
  0
VERTEX
  8
0
 10
273.272
 20
522.044
 30
0.0
 40
0.333333
 41
0.333333
  0
VERTEX
  8
0
 10
273.388
 20
522.132
 30
0.0
 40
0.333333
 41
0.333333
  0
VERTEX
  8
0
 10
273.513
 20
522.207
 30
0.0
 40
0.333333
 41
0.333333
  0
VERTEX
  8
0
 10
273.643
 20
522.269
 30
0.0
 40
0.333333
 41
0.333333
  0
VERTEX
  8
0
 10
273.781
 20
522.319
 30
0.0
 40
0.333333
 41
0.333333
  0
VERTEX
  8
0
 10
273.925
 20
522.357
 30
0.0
 40
0.333333
 41
0.333333
  0
VERTEX
  8
0
 10
274.074
 20
522.379
 30
0.0
 40
0.333333
 41
0.333333
  0
VERTEX
  8
0
 10
274.189
 20
522.387
 30
0.0
 40
0.333333
 41
0.333333
  0
VERTEX
  8
0
 10
274.226
 20
522.387
 30
0.0
 40
0.333333
 41
0.333333
  0
VERTEX
  8
0
 10
274.265
 20
522.387
 30
0.0
 40
0.333333
 41
0.333333
  0
VERTEX
  8
0
 10
274.381
 20
522.379
 30
0.0
 40
0.333333
 41
0.333333
  0
VERTEX
  8
0
 10
274.529
 20
522.357
 30
0.0
 40
0.333333
 41
0.333333
  0
VERTEX
  8
0
 10
274.672
 20
522.319
 30
0.0
 40
0.333333
 41
0.333333
  0
VERTEX
  8
0
 10
274.811
 20
522.269
 30
0.0
 40
0.333333
 41
0.333333
  0
VERTEX
  8
0
 10
274.942
 20
522.207
 30
0.0
 40
0.333333
 41
0.333333
  0
VERTEX
  8
0
 10
275.065
 20
522.132
 30
0.0
 40
0.333333
 41
0.333333
  0
VERTEX
  8
0
 10
275.181
 20
522.044
 30
0.0
 40
0.333333
 41
0.333333
  0
VERTEX
  8
0
 10
275.287
 20
521.949
 30
0.0
 40
0.333333
 41
0.333333
  0
VERTEX
  8
0
 10
275.385
 20
521.842
 30
0.0
 40
0.333333
 41
0.333333
  0
VERTEX
  8
0
 10
275.471
 20
521.726
 30
0.0
 40
0.333333
 41
0.333333
  0
VERTEX
  8
0
 10
275.546
 20
521.603
 30
0.0
 40
0.333333
 41
0.333333
  0
VERTEX
  8
0
 10
275.608
 20
521.471
 30
0.0
 40
0.333333
 41
0.333333
  0
VERTEX
  8
0
 10
275.66
 20
521.333
 30
0.0
 40
0.333333
 41
0.333333
  0
VERTEX
  8
0
 10
275.696
 20
521.19
 30
0.0
 40
0.333333
 41
0.333333
  0
VERTEX
  8
0
 10
275.719
 20
521.04
 30
0.0
 40
0.333333
 41
0.333333
  0
VERTEX
  8
0
 10
275.726
 20
520.926
 30
0.0
 40
0.333333
 41
0.333333
  0
VERTEX
  8
0
 10
275.726
 20
520.887
 30
0.0
 40
0.333333
 41
0.333333
  0
SEQEND
 8
0
  0
POLYLINE
  8
0
 62
     0
 66
     1
 10
0
 20
0
 30
0.0
 70
     1
 40
24
 41
24
  0
VERTEX
  8
0
 10
275.726
 20
368.487
 30
0.0
 40
0.333333
 41
0.333333
  0
VERTEX
  8
0
 10
275.726
 20
368.449
 30
0.0
 40
0.333333
 41
0.333333
  0
VERTEX
  8
0
 10
275.719
 20
368.333
 30
0.0
 40
0.333333
 41
0.333333
  0
VERTEX
  8
0
 10
275.696
 20
368.185
 30
0.0
 40
0.333333
 41
0.333333
  0
VERTEX
  8
0
 10
275.66
 20
368.042
 30
0.0
 40
0.333333
 41
0.333333
  0
VERTEX
  8
0
 10
275.608
 20
367.903
 30
0.0
 40
0.333333
 41
0.333333
  0
VERTEX
  8
0
 10
275.546
 20
367.772
 30
0.0
 40
0.333333
 41
0.333333
  0
VERTEX
  8
0
 10
275.471
 20
367.649
 30
0.0
 40
0.333333
 41
0.333333
  0
VERTEX
  8
0
 10
275.385
 20
367.533
 30
0.0
 40
0.333333
 41
0.333333
  0
VERTEX
  8
0
 10
275.287
 20
367.426
 30
0.0
 40
0.333333
 41
0.333333
  0
VERTEX
  8
0
 10
275.181
 20
367.329
 30
0.0
 40
0.333333
 41
0.333333
  0
VERTEX
  8
0
 10
275.065
 20
367.243
 30
0.0
 40
0.333333
 41
0.333333
  0
VERTEX
  8
0
 10
274.942
 20
367.168
 30
0.0
 40
0.333333
 41
0.333333
  0
VERTEX
  8
0
 10
274.811
 20
367.106
 30
0.0
 40
0.333333
 41
0.333333
  0
VERTEX
  8
0
 10
274.672
 20
367.054
 30
0.0
 40
0.333333
 41
0.333333
  0
VERTEX
  8
0
 10
274.529
 20
367.018
 30
0.0
 40
0.333333
 41
0.333333
  0
VERTEX
  8
0
 10
274.381
 20
366.994
 30
0.0
 40
0.333333
 41
0.333333
  0
VERTEX
  8
0
 10
274.265
 20
366.987
 30
0.0
 40
0.333333
 41
0.333333
  0
VERTEX
  8
0
 10
274.226
 20
366.987
 30
0.0
 40
0.333333
 41
0.333333
  0
VERTEX
  8
0
 10
274.189
 20
366.987
 30
0.0
 40
0.333333
 41
0.333333
  0
VERTEX
  8
0
 10
274.074
 20
366.994
 30
0.0
 40
0.333333
 41
0.333333
  0
VERTEX
  8
0
 10
273.925
 20
367.018
 30
0.0
 40
0.333333
 41
0.333333
  0
VERTEX
  8
0
 10
273.781
 20
367.054
 30
0.0
 40
0.333333
 41
0.333333
  0
VERTEX
  8
0
 10
273.643
 20
367.106
 30
0.0
 40
0.333333
 41
0.333333
  0
VERTEX
  8
0
 10
273.513
 20
367.168
 30
0.0
 40
0.333333
 41
0.333333
  0
VERTEX
  8
0
 10
273.388
 20
367.243
 30
0.0
 40
0.333333
 41
0.333333
  0
VERTEX
  8
0
 10
273.272
 20
367.329
 30
0.0
 40
0.333333
 41
0.333333
  0
VERTEX
  8
0
 10
273.167
 20
367.426
 30
0.0
 40
0.333333
 41
0.333333
  0
VERTEX
  8
0
 10
273.069
 20
367.533
 30
0.0
 40
0.333333
 41
0.333333
  0
VERTEX
  8
0
 10
272.983
 20
367.649
 30
0.0
 40
0.333333
 41
0.333333
  0
VERTEX
  8
0
 10
272.908
 20
367.772
 30
0.0
 40
0.333333
 41
0.333333
  0
VERTEX
  8
0
 10
272.844
 20
367.903
 30
0.0
 40
0.333333
 41
0.333333
  0
VERTEX
  8
0
 10
272.794
 20
368.042
 30
0.0
 40
0.333333
 41
0.333333
  0
VERTEX
  8
0
 10
272.757
 20
368.185
 30
0.0
 40
0.333333
 41
0.333333
  0
VERTEX
  8
0
 10
272.735
 20
368.333
 30
0.0
 40
0.333333
 41
0.333333
  0
VERTEX
  8
0
 10
272.726
 20
368.449
 30
0.0
 40
0.333333
 41
0.333333
  0
VERTEX
  8
0
 10
272.726
 20
368.487
 30
0.0
 40
0.333333
 41
0.333333
  0
VERTEX
  8
0
 10
272.726
 20
368.525
 30
0.0
 40
0.333333
 41
0.333333
  0
VERTEX
  8
0
 10
272.735
 20
368.64
 30
0.0
 40
0.333333
 41
0.333333
  0
VERTEX
  8
0
 10
272.757
 20
368.789
 30
0.0
 40
0.333333
 41
0.333333
  0
VERTEX
  8
0
 10
272.794
 20
368.933
 30
0.0
 40
0.333333
 41
0.333333
  0
VERTEX
  8
0
 10
272.844
 20
369.071
 30
0.0
 40
0.333333
 41
0.333333
  0
VERTEX
  8
0
 10
272.908
 20
369.203
 30
0.0
 40
0.333333
 41
0.333333
  0
VERTEX
  8
0
 10
272.983
 20
369.326
 30
0.0
 40
0.333333
 41
0.333333
  0
VERTEX
  8
0
 10
273.069
 20
369.442
 30
0.0
 40
0.333333
 41
0.333333
  0
VERTEX
  8
0
 10
273.167
 20
369.547
 30
0.0
 40
0.333333
 41
0.333333
  0
VERTEX
  8
0
 10
273.272
 20
369.644
 30
0.0
 40
0.333333
 41
0.333333
  0
VERTEX
  8
0
 10
273.388
 20
369.731
 30
0.0
 40
0.333333
 41
0.333333
  0
VERTEX
  8
0
 10
273.513
 20
369.806
 30
0.0
 40
0.333333
 41
0.333333
  0
VERTEX
  8
0
 10
273.643
 20
369.869
 30
0.0
 40
0.333333
 41
0.333333
  0
VERTEX
  8
0
 10
273.781
 20
369.919
 30
0.0
 40
0.333333
 41
0.333333
  0
VERTEX
  8
0
 10
273.925
 20
369.957
 30
0.0
 40
0.333333
 41
0.333333
  0
VERTEX
  8
0
 10
274.074
 20
369.979
 30
0.0
 40
0.333333
 41
0.333333
  0
VERTEX
  8
0
 10
274.189
 20
369.987
 30
0.0
 40
0.333333
 41
0.333333
  0
VERTEX
  8
0
 10
274.226
 20
369.987
 30
0.0
 40
0.333333
 41
0.333333
  0
VERTEX
  8
0
 10
274.265
 20
369.987
 30
0.0
 40
0.333333
 41
0.333333
  0
VERTEX
  8
0
 10
274.381
 20
369.979
 30
0.0
 40
0.333333
 41
0.333333
  0
VERTEX
  8
0
 10
274.529
 20
369.957
 30
0.0
 40
0.333333
 41
0.333333
  0
VERTEX
  8
0
 10
274.672
 20
369.919
 30
0.0
 40
0.333333
 41
0.333333
  0
VERTEX
  8
0
 10
274.811
 20
369.869
 30
0.0
 40
0.333333
 41
0.333333
  0
VERTEX
  8
0
 10
274.942
 20
369.806
 30
0.0
 40
0.333333
 41
0.333333
  0
VERTEX
  8
0
 10
275.065
 20
369.731
 30
0.0
 40
0.333333
 41
0.333333
  0
VERTEX
  8
0
 10
275.181
 20
369.644
 30
0.0
 40
0.333333
 41
0.333333
  0
VERTEX
  8
0
 10
275.287
 20
369.547
 30
0.0
 40
0.333333
 41
0.333333
  0
VERTEX
  8
0
 10
275.385
 20
369.442
 30
0.0
 40
0.333333
 41
0.333333
  0
VERTEX
  8
0
 10
275.471
 20
369.326
 30
0.0
 40
0.333333
 41
0.333333
  0
VERTEX
  8
0
 10
275.546
 20
369.203
 30
0.0
 40
0.333333
 41
0.333333
  0
VERTEX
  8
0
 10
275.608
 20
369.071
 30
0.0
 40
0.333333
 41
0.333333
  0
VERTEX
  8
0
 10
275.66
 20
368.933
 30
0.0
 40
0.333333
 41
0.333333
  0
VERTEX
  8
0
 10
275.696
 20
368.789
 30
0.0
 40
0.333333
 41
0.333333
  0
VERTEX
  8
0
 10
275.719
 20
368.64
 30
0.0
 40
0.333333
 41
0.333333
  0
VERTEX
  8
0
 10
275.726
 20
368.525
 30
0.0
 40
0.333333
 41
0.333333
  0
VERTEX
  8
0
 10
275.726
 20
368.487
 30
0.0
 40
0.333333
 41
0.333333
  0
SEQEND
 8
0
  0
POLYLINE
  8
0
 62
     0
 66
     1
 10
0
 20
0
 30
0.0
 70
     1
 40
24
 41
24
  0
VERTEX
  8
0
 10
291.476
 20
368.487
 30
0.0
 40
0.333333
 41
0.333333
  0
VERTEX
  8
0
 10
291.476
 20
368.449
 30
0.0
 40
0.333333
 41
0.333333
  0
VERTEX
  8
0
 10
291.469
 20
368.333
 30
0.0
 40
0.333333
 41
0.333333
  0
VERTEX
  8
0
 10
291.446
 20
368.185
 30
0.0
 40
0.333333
 41
0.333333
  0
VERTEX
  8
0
 10
291.41
 20
368.042
 30
0.0
 40
0.333333
 41
0.333333
  0
VERTEX
  8
0
 10
291.358
 20
367.903
 30
0.0
 40
0.333333
 41
0.333333
  0
VERTEX
  8
0
 10
291.296
 20
367.772
 30
0.0
 40
0.333333
 41
0.333333
  0
VERTEX
  8
0
 10
291.221
 20
367.649
 30
0.0
 40
0.333333
 41
0.333333
  0
VERTEX
  8
0
 10
291.135
 20
367.533
 30
0.0
 40
0.333333
 41
0.333333
  0
VERTEX
  8
0
 10
291.037
 20
367.426
 30
0.0
 40
0.333333
 41
0.333333
  0
VERTEX
  8
0
 10
290.931
 20
367.329
 30
0.0
 40
0.333333
 41
0.333333
  0
VERTEX
  8
0
 10
290.815
 20
367.243
 30
0.0
 40
0.333333
 41
0.333333
  0
VERTEX
  8
0
 10
290.692
 20
367.168
 30
0.0
 40
0.333333
 41
0.333333
  0
VERTEX
  8
0
 10
290.561
 20
367.106
 30
0.0
 40
0.333333
 41
0.333333
  0
VERTEX
  8
0
 10
290.422
 20
367.054
 30
0.0
 40
0.333333
 41
0.333333
  0
VERTEX
  8
0
 10
290.279
 20
367.018
 30
0.0
 40
0.333333
 41
0.333333
  0
VERTEX
  8
0
 10
290.131
 20
366.994
 30
0.0
 40
0.333333
 41
0.333333
  0
VERTEX
  8
0
 10
290.015
 20
366.987
 30
0.0
 40
0.333333
 41
0.333333
  0
VERTEX
  8
0
 10
289.976
 20
366.987
 30
0.0
 40
0.333333
 41
0.333333
  0
VERTEX
  8
0
 10
289.939
 20
366.987
 30
0.0
 40
0.333333
 41
0.333333
  0
VERTEX
  8
0
 10
289.824
 20
366.994
 30
0.0
 40
0.333333
 41
0.333333
  0
VERTEX
  8
0
 10
289.675
 20
367.018
 30
0.0
 40
0.333333
 41
0.333333
  0
VERTEX
  8
0
 10
289.531
 20
367.054
 30
0.0
 40
0.333333
 41
0.333333
  0
VERTEX
  8
0
 10
289.393
 20
367.106
 30
0.0
 40
0.333333
 41
0.333333
  0
VERTEX
  8
0
 10
289.263
 20
367.168
 30
0.0
 40
0.333333
 41
0.333333
  0
VERTEX
  8
0
 10
289.138
 20
367.243
 30
0.0
 40
0.333333
 41
0.333333
  0
VERTEX
  8
0
 10
289.022
 20
367.329
 30
0.0
 40
0.333333
 41
0.333333
  0
VERTEX
  8
0
 10
288.917
 20
367.426
 30
0.0
 40
0.333333
 41
0.333333
  0
VERTEX
  8
0
 10
288.819
 20
367.533
 30
0.0
 40
0.333333
 41
0.333333
  0
VERTEX
  8
0
 10
288.733
 20
367.649
 30
0.0
 40
0.333333
 41
0.333333
  0
VERTEX
  8
0
 10
288.658
 20
367.772
 30
0.0
 40
0.333333
 41
0.333333
  0
VERTEX
  8
0
 10
288.594
 20
367.903
 30
0.0
 40
0.333333
 41
0.333333
  0
VERTEX
  8
0
 10
288.544
 20
368.042
 30
0.0
 40
0.333333
 41
0.333333
  0
VERTEX
  8
0
 10
288.507
 20
368.185
 30
0.0
 40
0.333333
 41
0.333333
  0
VERTEX
  8
0
 10
288.485
 20
368.333
 30
0.0
 40
0.333333
 41
0.333333
  0
VERTEX
  8
0
 10
288.476
 20
368.449
 30
0.0
 40
0.333333
 41
0.333333
  0
VERTEX
  8
0
 10
288.476
 20
368.487
 30
0.0
 40
0.333333
 41
0.333333
  0
VERTEX
  8
0
 10
288.476
 20
368.525
 30
0.0
 40
0.333333
 41
0.333333
  0
VERTEX
  8
0
 10
288.485
 20
368.64
 30
0.0
 40
0.333333
 41
0.333333
  0
VERTEX
  8
0
 10
288.507
 20
368.789
 30
0.0
 40
0.333333
 41
0.333333
  0
VERTEX
  8
0
 10
288.544
 20
368.933
 30
0.0
 40
0.333333
 41
0.333333
  0
VERTEX
  8
0
 10
288.594
 20
369.071
 30
0.0
 40
0.333333
 41
0.333333
  0
VERTEX
  8
0
 10
288.658
 20
369.203
 30
0.0
 40
0.333333
 41
0.333333
  0
VERTEX
  8
0
 10
288.733
 20
369.326
 30
0.0
 40
0.333333
 41
0.333333
  0
VERTEX
  8
0
 10
288.819
 20
369.442
 30
0.0
 40
0.333333
 41
0.333333
  0
VERTEX
  8
0
 10
288.917
 20
369.547
 30
0.0
 40
0.333333
 41
0.333333
  0
VERTEX
  8
0
 10
289.022
 20
369.644
 30
0.0
 40
0.333333
 41
0.333333
  0
VERTEX
  8
0
 10
289.138
 20
369.731
 30
0.0
 40
0.333333
 41
0.333333
  0
VERTEX
  8
0
 10
289.263
 20
369.806
 30
0.0
 40
0.333333
 41
0.333333
  0
VERTEX
  8
0
 10
289.393
 20
369.869
 30
0.0
 40
0.333333
 41
0.333333
  0
VERTEX
  8
0
 10
289.531
 20
369.919
 30
0.0
 40
0.333333
 41
0.333333
  0
VERTEX
  8
0
 10
289.675
 20
369.957
 30
0.0
 40
0.333333
 41
0.333333
  0
VERTEX
  8
0
 10
289.824
 20
369.979
 30
0.0
 40
0.333333
 41
0.333333
  0
VERTEX
  8
0
 10
289.939
 20
369.987
 30
0.0
 40
0.333333
 41
0.333333
  0
VERTEX
  8
0
 10
289.976
 20
369.987
 30
0.0
 40
0.333333
 41
0.333333
  0
VERTEX
  8
0
 10
290.015
 20
369.987
 30
0.0
 40
0.333333
 41
0.333333
  0
VERTEX
  8
0
 10
290.131
 20
369.979
 30
0.0
 40
0.333333
 41
0.333333
  0
VERTEX
  8
0
 10
290.279
 20
369.957
 30
0.0
 40
0.333333
 41
0.333333
  0
VERTEX
  8
0
 10
290.422
 20
369.919
 30
0.0
 40
0.333333
 41
0.333333
  0
VERTEX
  8
0
 10
290.561
 20
369.869
 30
0.0
 40
0.333333
 41
0.333333
  0
VERTEX
  8
0
 10
290.692
 20
369.806
 30
0.0
 40
0.333333
 41
0.333333
  0
VERTEX
  8
0
 10
290.815
 20
369.731
 30
0.0
 40
0.333333
 41
0.333333
  0
VERTEX
  8
0
 10
290.931
 20
369.644
 30
0.0
 40
0.333333
 41
0.333333
  0
VERTEX
  8
0
 10
291.037
 20
369.547
 30
0.0
 40
0.333333
 41
0.333333
  0
VERTEX
  8
0
 10
291.135
 20
369.442
 30
0.0
 40
0.333333
 41
0.333333
  0
VERTEX
  8
0
 10
291.221
 20
369.326
 30
0.0
 40
0.333333
 41
0.333333
  0
VERTEX
  8
0
 10
291.296
 20
369.203
 30
0.0
 40
0.333333
 41
0.333333
  0
VERTEX
  8
0
 10
291.358
 20
369.071
 30
0.0
 40
0.333333
 41
0.333333
  0
VERTEX
  8
0
 10
291.41
 20
368.933
 30
0.0
 40
0.333333
 41
0.333333
  0
VERTEX
  8
0
 10
291.446
 20
368.789
 30
0.0
 40
0.333333
 41
0.333333
  0
VERTEX
  8
0
 10
291.469
 20
368.64
 30
0.0
 40
0.333333
 41
0.333333
  0
VERTEX
  8
0
 10
291.476
 20
368.525
 30
0.0
 40
0.333333
 41
0.333333
  0
VERTEX
  8
0
 10
291.476
 20
368.487
 30
0.0
 40
0.333333
 41
0.333333
  0
SEQEND
 8
0
  0
POLYLINE
  8
0
 62
     0
 66
     1
 10
0
 20
0
 30
0.0
 70
     1
 40
24
 41
24
  0
VERTEX
  8
0
 10
291.476
 20
520.887
 30
0.0
 40
0.333333
 41
0.333333
  0
VERTEX
  8
0
 10
291.476
 20
520.849
 30
0.0
 40
0.333333
 41
0.333333
  0
VERTEX
  8
0
 10
291.469
 20
520.735
 30
0.0
 40
0.333333
 41
0.333333
  0
VERTEX
  8
0
 10
291.446
 20
520.585
 30
0.0
 40
0.333333
 41
0.333333
  0
VERTEX
  8
0
 10
291.41
 20
520.442
 30
0.0
 40
0.333333
 41
0.333333
  0
VERTEX
  8
0
 10
291.358
 20
520.304
 30
0.0
 40
0.333333
 41
0.333333
  0
VERTEX
  8
0
 10
291.296
 20
520.172
 30
0.0
 40
0.333333
 41
0.333333
  0
VERTEX
  8
0
 10
291.221
 20
520.049
 30
0.0
 40
0.333333
 41
0.333333
  0
VERTEX
  8
0
 10
291.135
 20
519.933
 30
0.0
 40
0.333333
 41
0.333333
  0
VERTEX
  8
0
 10
291.037
 20
519.826
 30
0.0
 40
0.333333
 41
0.333333
  0
VERTEX
  8
0
 10
290.931
 20
519.731
 30
0.0
 40
0.333333
 41
0.333333
  0
VERTEX
  8
0
 10
290.815
 20
519.643
 30
0.0
 40
0.333333
 41
0.333333
  0
VERTEX
  8
0
 10
290.692
 20
519.568
 30
0.0
 40
0.333333
 41
0.333333
  0
VERTEX
  8
0
 10
290.561
 20
519.506
 30
0.0
 40
0.333333
 41
0.333333
  0
VERTEX
  8
0
 10
290.422
 20
519.456
 30
0.0
 40
0.333333
 41
0.333333
  0
VERTEX
  8
0
 10
290.279
 20
519.418
 30
0.0
 40
0.333333
 41
0.333333
  0
VERTEX
  8
0
 10
290.131
 20
519.396
 30
0.0
 40
0.333333
 41
0.333333
  0
VERTEX
  8
0
 10
290.015
 20
519.387
 30
0.0
 40
0.333333
 41
0.333333
  0
VERTEX
  8
0
 10
289.976
 20
519.387
 30
0.0
 40
0.333333
 41
0.333333
  0
VERTEX
  8
0
 10
289.939
 20
519.387
 30
0.0
 40
0.333333
 41
0.333333
  0
VERTEX
  8
0
 10
289.824
 20
519.396
 30
0.0
 40
0.333333
 41
0.333333
  0
VERTEX
  8
0
 10
289.675
 20
519.418
 30
0.0
 40
0.333333
 41
0.333333
  0
VERTEX
  8
0
 10
289.531
 20
519.456
 30
0.0
 40
0.333333
 41
0.333333
  0
VERTEX
  8
0
 10
289.393
 20
519.506
 30
0.0
 40
0.333333
 41
0.333333
  0
VERTEX
  8
0
 10
289.263
 20
519.568
 30
0.0
 40
0.333333
 41
0.333333
  0
VERTEX
  8
0
 10
289.138
 20
519.643
 30
0.0
 40
0.333333
 41
0.333333
  0
VERTEX
  8
0
 10
289.022
 20
519.731
 30
0.0
 40
0.333333
 41
0.333333
  0
VERTEX
  8
0
 10
288.917
 20
519.826
 30
0.0
 40
0.333333
 41
0.333333
  0
VERTEX
  8
0
 10
288.819
 20
519.933
 30
0.0
 40
0.333333
 41
0.333333
  0
VERTEX
  8
0
 10
288.733
 20
520.049
 30
0.0
 40
0.333333
 41
0.333333
  0
VERTEX
  8
0
 10
288.658
 20
520.172
 30
0.0
 40
0.333333
 41
0.333333
  0
VERTEX
  8
0
 10
288.594
 20
520.304
 30
0.0
 40
0.333333
 41
0.333333
  0
VERTEX
  8
0
 10
288.544
 20
520.442
 30
0.0
 40
0.333333
 41
0.333333
  0
VERTEX
  8
0
 10
288.507
 20
520.585
 30
0.0
 40
0.333333
 41
0.333333
  0
VERTEX
  8
0
 10
288.485
 20
520.735
 30
0.0
 40
0.333333
 41
0.333333
  0
VERTEX
  8
0
 10
288.476
 20
520.849
 30
0.0
 40
0.333333
 41
0.333333
  0
VERTEX
  8
0
 10
288.476
 20
520.887
 30
0.0
 40
0.333333
 41
0.333333
  0
VERTEX
  8
0
 10
288.476
 20
520.926
 30
0.0
 40
0.333333
 41
0.333333
  0
VERTEX
  8
0
 10
288.485
 20
521.04
 30
0.0
 40
0.333333
 41
0.333333
  0
VERTEX
  8
0
 10
288.507
 20
521.19
 30
0.0
 40
0.333333
 41
0.333333
  0
VERTEX
  8
0
 10
288.544
 20
521.333
 30
0.0
 40
0.333333
 41
0.333333
  0
VERTEX
  8
0
 10
288.594
 20
521.471
 30
0.0
 40
0.333333
 41
0.333333
  0
VERTEX
  8
0
 10
288.658
 20
521.603
 30
0.0
 40
0.333333
 41
0.333333
  0
VERTEX
  8
0
 10
288.733
 20
521.726
 30
0.0
 40
0.333333
 41
0.333333
  0
VERTEX
  8
0
 10
288.819
 20
521.842
 30
0.0
 40
0.333333
 41
0.333333
  0
VERTEX
  8
0
 10
288.917
 20
521.949
 30
0.0
 40
0.333333
 41
0.333333
  0
VERTEX
  8
0
 10
289.022
 20
522.044
 30
0.0
 40
0.333333
 41
0.333333
  0
VERTEX
  8
0
 10
289.138
 20
522.132
 30
0.0
 40
0.333333
 41
0.333333
  0
VERTEX
  8
0
 10
289.263
 20
522.207
 30
0.0
 40
0.333333
 41
0.333333
  0
VERTEX
  8
0
 10
289.393
 20
522.269
 30
0.0
 40
0.333333
 41
0.333333
  0
VERTEX
  8
0
 10
289.531
 20
522.319
 30
0.0
 40
0.333333
 41
0.333333
  0
VERTEX
  8
0
 10
289.675
 20
522.357
 30
0.0
 40
0.333333
 41
0.333333
  0
VERTEX
  8
0
 10
289.824
 20
522.379
 30
0.0
 40
0.333333
 41
0.333333
  0
VERTEX
  8
0
 10
289.939
 20
522.387
 30
0.0
 40
0.333333
 41
0.333333
  0
VERTEX
  8
0
 10
289.976
 20
522.387
 30
0.0
 40
0.333333
 41
0.333333
  0
VERTEX
  8
0
 10
290.015
 20
522.387
 30
0.0
 40
0.333333
 41
0.333333
  0
VERTEX
  8
0
 10
290.131
 20
522.379
 30
0.0
 40
0.333333
 41
0.333333
  0
VERTEX
  8
0
 10
290.279
 20
522.357
 30
0.0
 40
0.333333
 41
0.333333
  0
VERTEX
  8
0
 10
290.422
 20
522.319
 30
0.0
 40
0.333333
 41
0.333333
  0
VERTEX
  8
0
 10
290.561
 20
522.269
 30
0.0
 40
0.333333
 41
0.333333
  0
VERTEX
  8
0
 10
290.692
 20
522.207
 30
0.0
 40
0.333333
 41
0.333333
  0
VERTEX
  8
0
 10
290.815
 20
522.132
 30
0.0
 40
0.333333
 41
0.333333
  0
VERTEX
  8
0
 10
290.931
 20
522.044
 30
0.0
 40
0.333333
 41
0.333333
  0
VERTEX
  8
0
 10
291.037
 20
521.949
 30
0.0
 40
0.333333
 41
0.333333
  0
VERTEX
  8
0
 10
291.135
 20
521.842
 30
0.0
 40
0.333333
 41
0.333333
  0
VERTEX
  8
0
 10
291.221
 20
521.726
 30
0.0
 40
0.333333
 41
0.333333
  0
VERTEX
  8
0
 10
291.296
 20
521.603
 30
0.0
 40
0.333333
 41
0.333333
  0
VERTEX
  8
0
 10
291.358
 20
521.471
 30
0.0
 40
0.333333
 41
0.333333
  0
VERTEX
  8
0
 10
291.41
 20
521.333
 30
0.0
 40
0.333333
 41
0.333333
  0
VERTEX
  8
0
 10
291.446
 20
521.19
 30
0.0
 40
0.333333
 41
0.333333
  0
VERTEX
  8
0
 10
291.469
 20
521.04
 30
0.0
 40
0.333333
 41
0.333333
  0
VERTEX
  8
0
 10
291.476
 20
520.926
 30
0.0
 40
0.333333
 41
0.333333
  0
VERTEX
  8
0
 10
291.476
 20
520.887
 30
0.0
 40
0.333333
 41
0.333333
  0
SEQEND
 8
0
  0
POLYLINE
  8
0
 62
     0
 66
     1
 10
0
 20
0
 30
0.0
 70
     1
 40
24
 41
24
  0
VERTEX
  8
0
 10
143.051
 20
343.088
 30
0.0
 40
0.333333
 41
0.333333
  0
VERTEX
  8
0
 10
143.051
 20
343.006
 30
0.0
 40
0.333333
 41
0.333333
  0
VERTEX
  8
0
 10
143.035
 20
342.763
 30
0.0
 40
0.333333
 41
0.333333
  0
VERTEX
  8
0
 10
142.987
 20
342.447
 30
0.0
 40
0.333333
 41
0.333333
  0
VERTEX
  8
0
 10
142.908
 20
342.143
 30
0.0
 40
0.333333
 41
0.333333
  0
VERTEX
  8
0
 10
142.803
 20
341.851
 30
0.0
 40
0.333333
 41
0.333333
  0
VERTEX
  8
0
 10
142.668
 20
341.574
 30
0.0
 40
0.333333
 41
0.333333
  0
VERTEX
  8
0
 10
142.51
 20
341.313
 30
0.0
 40
0.333333
 41
0.333333
  0
VERTEX
  8
0
 10
142.326
 20
341.068
 30
0.0
 40
0.333333
 41
0.333333
  0
VERTEX
  8
0
 10
142.122
 20
340.842
 30
0.0
 40
0.333333
 41
0.333333
  0
VERTEX
  8
0
 10
141.896
 20
340.638
 30
0.0
 40
0.333333
 41
0.333333
  0
VERTEX
  8
0
 10
141.651
 20
340.454
 30
0.0
 40
0.333333
 41
0.333333
  0
VERTEX
  8
0
 10
141.39
 20
340.296
 30
0.0
 40
0.333333
 41
0.333333
  0
VERTEX
  8
0
 10
141.112
 20
340.161
 30
0.0
 40
0.333333
 41
0.333333
  0
VERTEX
  8
0
 10
140.821
 20
340.056
 30
0.0
 40
0.333333
 41
0.333333
  0
VERTEX
  8
0
 10
140.517
 20
339.976
 30
0.0
 40
0.333333
 41
0.333333
  0
VERTEX
  8
0
 10
140.201
 20
339.929
 30
0.0
 40
0.333333
 41
0.333333
  0
VERTEX
  8
0
 10
139.958
 20
339.912
 30
0.0
 40
0.333333
 41
0.333333
  0
VERTEX
  8
0
 10
139.876
 20
339.912
 30
0.0
 40
0.333333
 41
0.333333
  0
VERTEX
  8
0
 10
139.796
 20
339.912
 30
0.0
 40
0.333333
 41
0.333333
  0
VERTEX
  8
0
 10
139.551
 20
339.929
 30
0.0
 40
0.333333
 41
0.333333
  0
VERTEX
  8
0
 10
139.236
 20
339.976
 30
0.0
 40
0.333333
 41
0.333333
  0
VERTEX
  8
0
 10
138.932
 20
340.056
 30
0.0
 40
0.333333
 41
0.333333
  0
VERTEX
  8
0
 10
138.641
 20
340.161
 30
0.0
 40
0.333333
 41
0.333333
  0
VERTEX
  8
0
 10
138.363
 20
340.296
 30
0.0
 40
0.333333
 41
0.333333
  0
VERTEX
  8
0
 10
138.101
 20
340.454
 30
0.0
 40
0.333333
 41
0.333333
  0
VERTEX
  8
0
 10
137.857
 20
340.638
 30
0.0
 40
0.333333
 41
0.333333
  0
VERTEX
  8
0
 10
137.632
 20
340.842
 30
0.0
 40
0.333333
 41
0.333333
  0
VERTEX
  8
0
 10
137.427
 20
341.068
 30
0.0
 40
0.333333
 41
0.333333
  0
VERTEX
  8
0
 10
137.244
 20
341.313
 30
0.0
 40
0.333333
 41
0.333333
  0
VERTEX
  8
0
 10
137.085
 20
341.574
 30
0.0
 40
0.333333
 41
0.333333
  0
VERTEX
  8
0
 10
136.951
 20
341.851
 30
0.0
 40
0.333333
 41
0.333333
  0
VERTEX
  8
0
 10
136.844
 20
342.143
 30
0.0
 40
0.333333
 41
0.333333
  0
VERTEX
  8
0
 10
136.766
 20
342.447
 30
0.0
 40
0.333333
 41
0.333333
  0
VERTEX
  8
0
 10
136.718
 20
342.763
 30
0.0
 40
0.333333
 41
0.333333
  0
VERTEX
  8
0
 10
136.702
 20
343.006
 30
0.0
 40
0.333333
 41
0.333333
  0
VERTEX
  8
0
 10
136.702
 20
343.088
 30
0.0
 40
0.333333
 41
0.333333
  0
VERTEX
  8
0
 10
136.702
 20
343.168
 30
0.0
 40
0.333333
 41
0.333333
  0
VERTEX
  8
0
 10
136.718
 20
343.412
 30
0.0
 40
0.333333
 41
0.333333
  0
VERTEX
  8
0
 10
136.766
 20
343.728
 30
0.0
 40
0.333333
 41
0.333333
  0
VERTEX
  8
0
 10
136.844
 20
344.032
 30
0.0
 40
0.333333
 41
0.333333
  0
VERTEX
  8
0
 10
136.951
 20
344.324
 30
0.0
 40
0.333333
 41
0.333333
  0
VERTEX
  8
0
 10
137.085
 20
344.6
 30
0.0
 40
0.333333
 41
0.333333
  0
VERTEX
  8
0
 10
137.244
 20
344.862
 30
0.0
 40
0.333333
 41
0.333333
  0
VERTEX
  8
0
 10
137.427
 20
345.107
 30
0.0
 40
0.333333
 41
0.333333
  0
VERTEX
  8
0
 10
137.632
 20
345.332
 30
0.0
 40
0.333333
 41
0.333333
  0
VERTEX
  8
0
 10
137.857
 20
345.537
 30
0.0
 40
0.333333
 41
0.333333
  0
VERTEX
  8
0
 10
138.101
 20
345.719
 30
0.0
 40
0.333333
 41
0.333333
  0
VERTEX
  8
0
 10
138.363
 20
345.879
 30
0.0
 40
0.333333
 41
0.333333
  0
VERTEX
  8
0
 10
138.641
 20
346.013
 30
0.0
 40
0.333333
 41
0.333333
  0
VERTEX
  8
0
 10
138.932
 20
346.119
 30
0.0
 40
0.333333
 41
0.333333
  0
VERTEX
  8
0
 10
139.236
 20
346.197
 30
0.0
 40
0.333333
 41
0.333333
  0
VERTEX
  8
0
 10
139.551
 20
346.246
 30
0.0
 40
0.333333
 41
0.333333
  0
VERTEX
  8
0
 10
139.796
 20
346.263
 30
0.0
 40
0.333333
 41
0.333333
  0
VERTEX
  8
0
 10
139.876
 20
346.263
 30
0.0
 40
0.333333
 41
0.333333
  0
VERTEX
  8
0
 10
139.958
 20
346.263
 30
0.0
 40
0.333333
 41
0.333333
  0
VERTEX
  8
0
 10
140.201
 20
346.246
 30
0.0
 40
0.333333
 41
0.333333
  0
VERTEX
  8
0
 10
140.517
 20
346.197
 30
0.0
 40
0.333333
 41
0.333333
  0
VERTEX
  8
0
 10
140.821
 20
346.119
 30
0.0
 40
0.333333
 41
0.333333
  0
VERTEX
  8
0
 10
141.112
 20
346.013
 30
0.0
 40
0.333333
 41
0.333333
  0
VERTEX
  8
0
 10
141.39
 20
345.879
 30
0.0
 40
0.333333
 41
0.333333
  0
VERTEX
  8
0
 10
141.651
 20
345.719
 30
0.0
 40
0.333333
 41
0.333333
  0
VERTEX
  8
0
 10
141.896
 20
345.537
 30
0.0
 40
0.333333
 41
0.333333
  0
VERTEX
  8
0
 10
142.122
 20
345.332
 30
0.0
 40
0.333333
 41
0.333333
  0
VERTEX
  8
0
 10
142.326
 20
345.107
 30
0.0
 40
0.333333
 41
0.333333
  0
VERTEX
  8
0
 10
142.51
 20
344.862
 30
0.0
 40
0.333333
 41
0.333333
  0
VERTEX
  8
0
 10
142.668
 20
344.6
 30
0.0
 40
0.333333
 41
0.333333
  0
VERTEX
  8
0
 10
142.803
 20
344.324
 30
0.0
 40
0.333333
 41
0.333333
  0
VERTEX
  8
0
 10
142.908
 20
344.032
 30
0.0
 40
0.333333
 41
0.333333
  0
VERTEX
  8
0
 10
142.987
 20
343.728
 30
0.0
 40
0.333333
 41
0.333333
  0
VERTEX
  8
0
 10
143.035
 20
343.412
 30
0.0
 40
0.333333
 41
0.333333
  0
VERTEX
  8
0
 10
143.051
 20
343.168
 30
0.0
 40
0.333333
 41
0.333333
  0
VERTEX
  8
0
 10
143.051
 20
343.088
 30
0.0
 40
0.333333
 41
0.333333
  0
SEQEND
 8
0
  0
POLYLINE
  8
0
 62
     0
 66
     1
 10
0
 20
0
 30
0.0
 70
     1
 40
24
 41
24
  0
VERTEX
  8
0
 10
166.776
 20
81.7368
 30
0.0
 40
0.333333
 41
0.333333
  0
VERTEX
  8
0
 10
166.776
 20
81.6985
 30
0.0
 40
0.333333
 41
0.333333
  0
VERTEX
  8
0
 10
166.769
 20
81.5835
 30
0.0
 40
0.333333
 41
0.333333
  0
VERTEX
  8
0
 10
166.746
 20
81.4346
 30
0.0
 40
0.333333
 41
0.333333
  0
VERTEX
  8
0
 10
166.71
 20
81.2908
 30
0.0
 40
0.333333
 41
0.333333
  0
VERTEX
  8
0
 10
166.658
 20
81.1529
 30
0.0
 40
0.333333
 41
0.333333
  0
VERTEX
  8
0
 10
166.596
 20
81.0218
 30
0.0
 40
0.333333
 41
0.333333
  0
VERTEX
  8
0
 10
166.521
 20
80.8982
 30
0.0
 40
0.333333
 41
0.333333
  0
VERTEX
  8
0
 10
166.435
 20
80.7828
 30
0.0
 40
0.333333
 41
0.333333
  0
VERTEX
  8
0
 10
166.337
 20
80.6761
 30
0.0
 40
0.333333
 41
0.333333
  0
VERTEX
  8
0
 10
166.231
 20
80.5793
 30
0.0
 40
0.333333
 41
0.333333
  0
VERTEX
  8
0
 10
166.115
 20
80.4931
 30
0.0
 40
0.333333
 41
0.333333
  0
VERTEX
  8
0
 10
165.992
 20
80.4179
 30
0.0
 40
0.333333
 41
0.333333
  0
VERTEX
  8
0
 10
165.861
 20
80.3547
 30
0.0
 40
0.333333
 41
0.333333
  0
VERTEX
  8
0
 10
165.722
 20
80.3043
 30
0.0
 40
0.333333
 41
0.333333
  0
VERTEX
  8
0
 10
165.579
 20
80.2674
 30
0.0
 40
0.333333
 41
0.333333
  0
VERTEX
  8
0
 10
165.431
 20
80.2446
 30
0.0
 40
0.333333
 41
0.333333
  0
VERTEX
  8
0
 10
165.315
 20
80.2368
 30
0.0
 40
0.333333
 41
0.333333
  0
VERTEX
  8
0
 10
165.276
 20
80.2368
 30
0.0
 40
0.333333
 41
0.333333
  0
VERTEX
  8
0
 10
165.239
 20
80.2368
 30
0.0
 40
0.333333
 41
0.333333
  0
VERTEX
  8
0
 10
165.124
 20
80.2446
 30
0.0
 40
0.333333
 41
0.333333
  0
VERTEX
  8
0
 10
164.975
 20
80.2674
 30
0.0
 40
0.333333
 41
0.333333
  0
VERTEX
  8
0
 10
164.831
 20
80.3043
 30
0.0
 40
0.333333
 41
0.333333
  0
VERTEX
  8
0
 10
164.693
 20
80.3547
 30
0.0
 40
0.333333
 41
0.333333
  0
VERTEX
  8
0
 10
164.561
 20
80.4179
 30
0.0
 40
0.333333
 41
0.333333
  0
VERTEX
  8
0
 10
164.438
 20
80.4931
 30
0.0
 40
0.333333
 41
0.333333
  0
VERTEX
  8
0
 10
164.322
 20
80.5793
 30
0.0
 40
0.333333
 41
0.333333
  0
VERTEX
  8
0
 10
164.217
 20
80.6761
 30
0.0
 40
0.333333
 41
0.333333
  0
VERTEX
  8
0
 10
164.119
 20
80.7828
 30
0.0
 40
0.333333
 41
0.333333
  0
VERTEX
  8
0
 10
164.033
 20
80.8982
 30
0.0
 40
0.333333
 41
0.333333
  0
VERTEX
  8
0
 10
163.958
 20
81.0218
 30
0.0
 40
0.333333
 41
0.333333
  0
VERTEX
  8
0
 10
163.894
 20
81.1529
 30
0.0
 40
0.333333
 41
0.333333
  0
VERTEX
  8
0
 10
163.844
 20
81.2908
 30
0.0
 40
0.333333
 41
0.333333
  0
VERTEX
  8
0
 10
163.807
 20
81.4346
 30
0.0
 40
0.333333
 41
0.333333
  0
VERTEX
  8
0
 10
163.785
 20
81.5835
 30
0.0
 40
0.333333
 41
0.333333
  0
VERTEX
  8
0
 10
163.776
 20
81.6985
 30
0.0
 40
0.333333
 41
0.333333
  0
VERTEX
  8
0
 10
163.776
 20
81.7368
 30
0.0
 40
0.333333
 41
0.333333
  0
VERTEX
  8
0
 10
163.776
 20
81.7751
 30
0.0
 40
0.333333
 41
0.333333
  0
VERTEX
  8
0
 10
163.785
 20
81.8901
 30
0.0
 40
0.333333
 41
0.333333
  0
VERTEX
  8
0
 10
163.807
 20
82.0392
 30
0.0
 40
0.333333
 41
0.333333
  0
VERTEX
  8
0
 10
163.844
 20
82.1829
 30
0.0
 40
0.333333
 41
0.333333
  0
VERTEX
  8
0
 10
163.894
 20
82.3207
 30
0.0
 40
0.333333
 41
0.333333
  0
VERTEX
  8
0
 10
163.958
 20
82.4518
 30
0.0
 40
0.333333
 41
0.333333
  0
VERTEX
  8
0
 10
164.033
 20
82.5756
 30
0.0
 40
0.333333
 41
0.333333
  0
VERTEX
  8
0
 10
164.119
 20
82.691
 30
0.0
 40
0.333333
 41
0.333333
  0
VERTEX
  8
0
 10
164.217
 20
82.7975
 30
0.0
 40
0.333333
 41
0.333333
  0
VERTEX
  8
0
 10
164.322
 20
82.8943
 30
0.0
 40
0.333333
 41
0.333333
  0
VERTEX
  8
0
 10
164.438
 20
82.9807
 30
0.0
 40
0.333333
 41
0.333333
  0
VERTEX
  8
0
 10
164.561
 20
83.0558
 30
0.0
 40
0.333333
 41
0.333333
  0
VERTEX
  8
0
 10
164.693
 20
83.119
 30
0.0
 40
0.333333
 41
0.333333
  0
VERTEX
  8
0
 10
164.831
 20
83.1694
 30
0.0
 40
0.333333
 41
0.333333
  0
VERTEX
  8
0
 10
164.975
 20
83.2064
 30
0.0
 40
0.333333
 41
0.333333
  0
VERTEX
  8
0
 10
165.124
 20
83.2292
 30
0.0
 40
0.333333
 41
0.333333
  0
VERTEX
  8
0
 10
165.239
 20
83.2368
 30
0.0
 40
0.333333
 41
0.333333
  0
VERTEX
  8
0
 10
165.276
 20
83.2368
 30
0.0
 40
0.333333
 41
0.333333
  0
VERTEX
  8
0
 10
165.315
 20
83.2368
 30
0.0
 40
0.333333
 41
0.333333
  0
VERTEX
  8
0
 10
165.431
 20
83.2292
 30
0.0
 40
0.333333
 41
0.333333
  0
VERTEX
  8
0
 10
165.579
 20
83.2064
 30
0.0
 40
0.333333
 41
0.333333
  0
VERTEX
  8
0
 10
165.722
 20
83.1694
 30
0.0
 40
0.333333
 41
0.333333
  0
VERTEX
  8
0
 10
165.861
 20
83.119
 30
0.0
 40
0.333333
 41
0.333333
  0
VERTEX
  8
0
 10
165.992
 20
83.0558
 30
0.0
 40
0.333333
 41
0.333333
  0
VERTEX
  8
0
 10
166.115
 20
82.9807
 30
0.0
 40
0.333333
 41
0.333333
  0
VERTEX
  8
0
 10
166.231
 20
82.8943
 30
0.0
 40
0.333333
 41
0.333333
  0
VERTEX
  8
0
 10
166.337
 20
82.7975
 30
0.0
 40
0.333333
 41
0.333333
  0
VERTEX
  8
0
 10
166.435
 20
82.691
 30
0.0
 40
0.333333
 41
0.333333
  0
VERTEX
  8
0
 10
166.521
 20
82.5756
 30
0.0
 40
0.333333
 41
0.333333
  0
VERTEX
  8
0
 10
166.596
 20
82.4518
 30
0.0
 40
0.333333
 41
0.333333
  0
VERTEX
  8
0
 10
166.658
 20
82.3207
 30
0.0
 40
0.333333
 41
0.333333
  0
VERTEX
  8
0
 10
166.71
 20
82.1829
 30
0.0
 40
0.333333
 41
0.333333
  0
VERTEX
  8
0
 10
166.746
 20
82.0392
 30
0.0
 40
0.333333
 41
0.333333
  0
VERTEX
  8
0
 10
166.769
 20
81.8901
 30
0.0
 40
0.333333
 41
0.333333
  0
VERTEX
  8
0
 10
166.776
 20
81.7751
 30
0.0
 40
0.333333
 41
0.333333
  0
VERTEX
  8
0
 10
166.776
 20
81.7368
 30
0.0
 40
0.333333
 41
0.333333
  0
SEQEND
 8
0
  0
POLYLINE
  8
0
 62
     0
 66
     1
 10
0
 20
0
 30
0.0
 70
     1
 40
24
 41
24
  0
VERTEX
  8
0
 10
14.3764
 20
81.7368
 30
0.0
 40
0.333333
 41
0.333333
  0
VERTEX
  8
0
 10
14.3764
 20
81.6985
 30
0.0
 40
0.333333
 41
0.333333
  0
VERTEX
  8
0
 10
14.3686
 20
81.5835
 30
0.0
 40
0.333333
 41
0.333333
  0
VERTEX
  8
0
 10
14.346
 20
81.4346
 30
0.0
 40
0.333333
 41
0.333333
  0
VERTEX
  8
0
 10
14.309
 20
81.2908
 30
0.0
 40
0.333333
 41
0.333333
  0
VERTEX
  8
0
 10
14.2585
 20
81.1529
 30
0.0
 40
0.333333
 41
0.333333
  0
VERTEX
  8
0
 10
14.1954
 20
81.0218
 30
0.0
 40
0.333333
 41
0.333333
  0
VERTEX
  8
0
 10
14.1203
 20
80.8982
 30
0.0
 40
0.333333
 41
0.333333
  0
VERTEX
  8
0
 10
14.0339
 20
80.7828
 30
0.0
 40
0.333333
 41
0.333333
  0
VERTEX
  8
0
 10
13.9371
 20
80.6761
 30
0.0
 40
0.333333
 41
0.333333
  0
VERTEX
  8
0
 10
13.8305
 20
80.5793
 30
0.0
 40
0.333333
 41
0.333333
  0
VERTEX
  8
0
 10
13.7151
 20
80.4931
 30
0.0
 40
0.333333
 41
0.333333
  0
VERTEX
  8
0
 10
13.5914
 20
80.4179
 30
0.0
 40
0.333333
 41
0.333333
  0
VERTEX
  8
0
 10
13.4603
 20
80.3547
 30
0.0
 40
0.333333
 41
0.333333
  0
VERTEX
  8
0
 10
13.3224
 20
80.3043
 30
0.0
 40
0.333333
 41
0.333333
  0
VERTEX
  8
0
 10
13.1787
 20
80.2674
 30
0.0
 40
0.333333
 41
0.333333
  0
VERTEX
  8
0
 10
13.0297
 20
80.2446
 30
0.0
 40
0.333333
 41
0.333333
  0
VERTEX
  8
0
 10
12.9147
 20
80.2368
 30
0.0
 40
0.333333
 41
0.333333
  0
VERTEX
  8
0
 10
12.8764
 20
80.2368
 30
0.0
 40
0.333333
 41
0.333333
  0
VERTEX
  8
0
 10
12.8381
 20
80.2368
 30
0.0
 40
0.333333
 41
0.333333
  0
VERTEX
  8
0
 10
12.723
 20
80.2446
 30
0.0
 40
0.333333
 41
0.333333
  0
VERTEX
  8
0
 10
12.5741
 20
80.2674
 30
0.0
 40
0.333333
 41
0.333333
  0
VERTEX
  8
0
 10
12.4303
 20
80.3043
 30
0.0
 40
0.333333
 41
0.333333
  0
VERTEX
  8
0
 10
12.2925
 20
80.3547
 30
0.0
 40
0.333333
 41
0.333333
  0
VERTEX
  8
0
 10
12.1614
 20
80.4179
 30
0.0
 40
0.333333
 41
0.333333
  0
VERTEX
  8
0
 10
12.0377
 20
80.4931
 30
0.0
 40
0.333333
 41
0.333333
  0
VERTEX
  8
0
 10
11.9222
 20
80.5793
 30
0.0
 40
0.333333
 41
0.333333
  0
VERTEX
  8
0
 10
11.8157
 20
80.6761
 30
0.0
 40
0.333333
 41
0.333333
  0
VERTEX
  8
0
 10
11.7189
 20
80.7828
 30
0.0
 40
0.333333
 41
0.333333
  0
VERTEX
  8
0
 10
11.6325
 20
80.8982
 30
0.0
 40
0.333333
 41
0.333333
  0
VERTEX
  8
0
 10
11.5574
 20
81.0218
 30
0.0
 40
0.333333
 41
0.333333
  0
VERTEX
  8
0
 10
11.4943
 20
81.1529
 30
0.0
 40
0.333333
 41
0.333333
  0
VERTEX
  8
0
 10
11.4438
 20
81.2908
 30
0.0
 40
0.333333
 41
0.333333
  0
VERTEX
  8
0
 10
11.4068
 20
81.4346
 30
0.0
 40
0.333333
 41
0.333333
  0
VERTEX
  8
0
 10
11.3841
 20
81.5835
 30
0.0
 40
0.333333
 41
0.333333
  0
VERTEX
  8
0
 10
11.3764
 20
81.6985
 30
0.0
 40
0.333333
 41
0.333333
  0
VERTEX
  8
0
 10
11.3764
 20
81.7368
 30
0.0
 40
0.333333
 41
0.333333
  0
VERTEX
  8
0
 10
11.3764
 20
81.7751
 30
0.0
 40
0.333333
 41
0.333333
  0
VERTEX
  8
0
 10
11.3841
 20
81.8901
 30
0.0
 40
0.333333
 41
0.333333
  0
VERTEX
  8
0
 10
11.4068
 20
82.0392
 30
0.0
 40
0.333333
 41
0.333333
  0
VERTEX
  8
0
 10
11.4438
 20
82.1829
 30
0.0
 40
0.333333
 41
0.333333
  0
VERTEX
  8
0
 10
11.4943
 20
82.3207
 30
0.0
 40
0.333333
 41
0.333333
  0
VERTEX
  8
0
 10
11.5574
 20
82.4518
 30
0.0
 40
0.333333
 41
0.333333
  0
VERTEX
  8
0
 10
11.6325
 20
82.5756
 30
0.0
 40
0.333333
 41
0.333333
  0
VERTEX
  8
0
 10
11.7189
 20
82.691
 30
0.0
 40
0.333333
 41
0.333333
  0
VERTEX
  8
0
 10
11.8157
 20
82.7975
 30
0.0
 40
0.333333
 41
0.333333
  0
VERTEX
  8
0
 10
11.9222
 20
82.8943
 30
0.0
 40
0.333333
 41
0.333333
  0
VERTEX
  8
0
 10
12.0377
 20
82.9807
 30
0.0
 40
0.333333
 41
0.333333
  0
VERTEX
  8
0
 10
12.1614
 20
83.0558
 30
0.0
 40
0.333333
 41
0.333333
  0
VERTEX
  8
0
 10
12.2925
 20
83.119
 30
0.0
 40
0.333333
 41
0.333333
  0
VERTEX
  8
0
 10
12.4303
 20
83.1694
 30
0.0
 40
0.333333
 41
0.333333
  0
VERTEX
  8
0
 10
12.5741
 20
83.2064
 30
0.0
 40
0.333333
 41
0.333333
  0
VERTEX
  8
0
 10
12.723
 20
83.2292
 30
0.0
 40
0.333333
 41
0.333333
  0
VERTEX
  8
0
 10
12.8381
 20
83.2368
 30
0.0
 40
0.333333
 41
0.333333
  0
VERTEX
  8
0
 10
12.8764
 20
83.2368
 30
0.0
 40
0.333333
 41
0.333333
  0
VERTEX
  8
0
 10
12.9147
 20
83.2368
 30
0.0
 40
0.333333
 41
0.333333
  0
VERTEX
  8
0
 10
13.0297
 20
83.2292
 30
0.0
 40
0.333333
 41
0.333333
  0
VERTEX
  8
0
 10
13.1787
 20
83.2064
 30
0.0
 40
0.333333
 41
0.333333
  0
VERTEX
  8
0
 10
13.3224
 20
83.1694
 30
0.0
 40
0.333333
 41
0.333333
  0
VERTEX
  8
0
 10
13.4603
 20
83.119
 30
0.0
 40
0.333333
 41
0.333333
  0
VERTEX
  8
0
 10
13.5914
 20
83.0558
 30
0.0
 40
0.333333
 41
0.333333
  0
VERTEX
  8
0
 10
13.7151
 20
82.9807
 30
0.0
 40
0.333333
 41
0.333333
  0
VERTEX
  8
0
 10
13.8305
 20
82.8943
 30
0.0
 40
0.333333
 41
0.333333
  0
VERTEX
  8
0
 10
13.9371
 20
82.7975
 30
0.0
 40
0.333333
 41
0.333333
  0
VERTEX
  8
0
 10
14.0339
 20
82.691
 30
0.0
 40
0.333333
 41
0.333333
  0
VERTEX
  8
0
 10
14.1203
 20
82.5756
 30
0.0
 40
0.333333
 41
0.333333
  0
VERTEX
  8
0
 10
14.1954
 20
82.4518
 30
0.0
 40
0.333333
 41
0.333333
  0
VERTEX
  8
0
 10
14.2585
 20
82.3207
 30
0.0
 40
0.333333
 41
0.333333
  0
VERTEX
  8
0
 10
14.309
 20
82.1829
 30
0.0
 40
0.333333
 41
0.333333
  0
VERTEX
  8
0
 10
14.346
 20
82.0392
 30
0.0
 40
0.333333
 41
0.333333
  0
VERTEX
  8
0
 10
14.3686
 20
81.8901
 30
0.0
 40
0.333333
 41
0.333333
  0
VERTEX
  8
0
 10
14.3764
 20
81.7751
 30
0.0
 40
0.333333
 41
0.333333
  0
VERTEX
  8
0
 10
14.3764
 20
81.7368
 30
0.0
 40
0.333333
 41
0.333333
  0
SEQEND
 8
0
  0
POLYLINE
  8
0
 62
     0
 66
     1
 10
0
 20
0
 30
0.0
 70
     1
 40
24
 41
24
  0
VERTEX
  8
0
 10
14.3764
 20
65.9868
 30
0.0
 40
0.333333
 41
0.333333
  0
VERTEX
  8
0
 10
14.3764
 20
65.9485
 30
0.0
 40
0.333333
 41
0.333333
  0
VERTEX
  8
0
 10
14.3686
 20
65.8335
 30
0.0
 40
0.333333
 41
0.333333
  0
VERTEX
  8
0
 10
14.346
 20
65.6846
 30
0.0
 40
0.333333
 41
0.333333
  0
VERTEX
  8
0
 10
14.309
 20
65.5407
 30
0.0
 40
0.333333
 41
0.333333
  0
VERTEX
  8
0
 10
14.2585
 20
65.4029
 30
0.0
 40
0.333333
 41
0.333333
  0
VERTEX
  8
0
 10
14.1954
 20
65.2718
 30
0.0
 40
0.333333
 41
0.333333
  0
VERTEX
  8
0
 10
14.1203
 20
65.1481
 30
0.0
 40
0.333333
 41
0.333333
  0
VERTEX
  8
0
 10
14.0339
 20
65.0326
 30
0.0
 40
0.333333
 41
0.333333
  0
VERTEX
  8
0
 10
13.9371
 20
64.9261
 30
0.0
 40
0.333333
 41
0.333333
  0
VERTEX
  8
0
 10
13.8305
 20
64.8293
 30
0.0
 40
0.333333
 41
0.333333
  0
VERTEX
  8
0
 10
13.7151
 20
64.7429
 30
0.0
 40
0.333333
 41
0.333333
  0
VERTEX
  8
0
 10
13.5914
 20
64.6679
 30
0.0
 40
0.333333
 41
0.333333
  0
VERTEX
  8
0
 10
13.4603
 20
64.6047
 30
0.0
 40
0.333333
 41
0.333333
  0
VERTEX
  8
0
 10
13.3224
 20
64.5543
 30
0.0
 40
0.333333
 41
0.333333
  0
VERTEX
  8
0
 10
13.1787
 20
64.5172
 30
0.0
 40
0.333333
 41
0.333333
  0
VERTEX
  8
0
 10
13.0297
 20
64.4946
 30
0.0
 40
0.333333
 41
0.333333
  0
VERTEX
  8
0
 10
12.9147
 20
64.4868
 30
0.0
 40
0.333333
 41
0.333333
  0
VERTEX
  8
0
 10
12.8764
 20
64.4868
 30
0.0
 40
0.333333
 41
0.333333
  0
VERTEX
  8
0
 10
12.8381
 20
64.4868
 30
0.0
 40
0.333333
 41
0.333333
  0
VERTEX
  8
0
 10
12.723
 20
64.4946
 30
0.0
 40
0.333333
 41
0.333333
  0
VERTEX
  8
0
 10
12.5741
 20
64.5172
 30
0.0
 40
0.333333
 41
0.333333
  0
VERTEX
  8
0
 10
12.4303
 20
64.5543
 30
0.0
 40
0.333333
 41
0.333333
  0
VERTEX
  8
0
 10
12.2925
 20
64.6047
 30
0.0
 40
0.333333
 41
0.333333
  0
VERTEX
  8
0
 10
12.1614
 20
64.6679
 30
0.0
 40
0.333333
 41
0.333333
  0
VERTEX
  8
0
 10
12.0377
 20
64.7429
 30
0.0
 40
0.333333
 41
0.333333
  0
VERTEX
  8
0
 10
11.9222
 20
64.8293
 30
0.0
 40
0.333333
 41
0.333333
  0
VERTEX
  8
0
 10
11.8157
 20
64.9261
 30
0.0
 40
0.333333
 41
0.333333
  0
VERTEX
  8
0
 10
11.7189
 20
65.0326
 30
0.0
 40
0.333333
 41
0.333333
  0
VERTEX
  8
0
 10
11.6325
 20
65.1481
 30
0.0
 40
0.333333
 41
0.333333
  0
VERTEX
  8
0
 10
11.5574
 20
65.2718
 30
0.0
 40
0.333333
 41
0.333333
  0
VERTEX
  8
0
 10
11.4943
 20
65.4029
 30
0.0
 40
0.333333
 41
0.333333
  0
VERTEX
  8
0
 10
11.4438
 20
65.5407
 30
0.0
 40
0.333333
 41
0.333333
  0
VERTEX
  8
0
 10
11.4068
 20
65.6846
 30
0.0
 40
0.333333
 41
0.333333
  0
VERTEX
  8
0
 10
11.3841
 20
65.8335
 30
0.0
 40
0.333333
 41
0.333333
  0
VERTEX
  8
0
 10
11.3764
 20
65.9485
 30
0.0
 40
0.333333
 41
0.333333
  0
VERTEX
  8
0
 10
11.3764
 20
65.9868
 30
0.0
 40
0.333333
 41
0.333333
  0
VERTEX
  8
0
 10
11.3764
 20
66.0251
 30
0.0
 40
0.333333
 41
0.333333
  0
VERTEX
  8
0
 10
11.3841
 20
66.1401
 30
0.0
 40
0.333333
 41
0.333333
  0
VERTEX
  8
0
 10
11.4068
 20
66.2892
 30
0.0
 40
0.333333
 41
0.333333
  0
VERTEX
  8
0
 10
11.4438
 20
66.4328
 30
0.0
 40
0.333333
 41
0.333333
  0
VERTEX
  8
0
 10
11.4943
 20
66.5707
 30
0.0
 40
0.333333
 41
0.333333
  0
VERTEX
  8
0
 10
11.5574
 20
66.7018
 30
0.0
 40
0.333333
 41
0.333333
  0
VERTEX
  8
0
 10
11.6325
 20
66.8254
 30
0.0
 40
0.333333
 41
0.333333
  0
VERTEX
  8
0
 10
11.7189
 20
66.941
 30
0.0
 40
0.333333
 41
0.333333
  0
VERTEX
  8
0
 10
11.8157
 20
67.0475
 30
0.0
 40
0.333333
 41
0.333333
  0
VERTEX
  8
0
 10
11.9222
 20
67.1443
 30
0.0
 40
0.333333
 41
0.333333
  0
VERTEX
  8
0
 10
12.0377
 20
67.2307
 30
0.0
 40
0.333333
 41
0.333333
  0
VERTEX
  8
0
 10
12.1614
 20
67.3058
 30
0.0
 40
0.333333
 41
0.333333
  0
VERTEX
  8
0
 10
12.2925
 20
67.3689
 30
0.0
 40
0.333333
 41
0.333333
  0
VERTEX
  8
0
 10
12.4303
 20
67.4194
 30
0.0
 40
0.333333
 41
0.333333
  0
VERTEX
  8
0
 10
12.5741
 20
67.4564
 30
0.0
 40
0.333333
 41
0.333333
  0
VERTEX
  8
0
 10
12.723
 20
67.479
 30
0.0
 40
0.333333
 41
0.333333
  0
VERTEX
  8
0
 10
12.8381
 20
67.4868
 30
0.0
 40
0.333333
 41
0.333333
  0
VERTEX
  8
0
 10
12.8764
 20
67.4868
 30
0.0
 40
0.333333
 41
0.333333
  0
VERTEX
  8
0
 10
12.9147
 20
67.4868
 30
0.0
 40
0.333333
 41
0.333333
  0
VERTEX
  8
0
 10
13.0297
 20
67.479
 30
0.0
 40
0.333333
 41
0.333333
  0
VERTEX
  8
0
 10
13.1787
 20
67.4564
 30
0.0
 40
0.333333
 41
0.333333
  0
VERTEX
  8
0
 10
13.3224
 20
67.4194
 30
0.0
 40
0.333333
 41
0.333333
  0
VERTEX
  8
0
 10
13.4603
 20
67.3689
 30
0.0
 40
0.333333
 41
0.333333
  0
VERTEX
  8
0
 10
13.5914
 20
67.3058
 30
0.0
 40
0.333333
 41
0.333333
  0
VERTEX
  8
0
 10
13.7151
 20
67.2307
 30
0.0
 40
0.333333
 41
0.333333
  0
VERTEX
  8
0
 10
13.8305
 20
67.1443
 30
0.0
 40
0.333333
 41
0.333333
  0
VERTEX
  8
0
 10
13.9371
 20
67.0475
 30
0.0
 40
0.333333
 41
0.333333
  0
VERTEX
  8
0
 10
14.0339
 20
66.941
 30
0.0
 40
0.333333
 41
0.333333
  0
VERTEX
  8
0
 10
14.1203
 20
66.8254
 30
0.0
 40
0.333333
 41
0.333333
  0
VERTEX
  8
0
 10
14.1954
 20
66.7018
 30
0.0
 40
0.333333
 41
0.333333
  0
VERTEX
  8
0
 10
14.2585
 20
66.5707
 30
0.0
 40
0.333333
 41
0.333333
  0
VERTEX
  8
0
 10
14.309
 20
66.4328
 30
0.0
 40
0.333333
 41
0.333333
  0
VERTEX
  8
0
 10
14.346
 20
66.2892
 30
0.0
 40
0.333333
 41
0.333333
  0
VERTEX
  8
0
 10
14.3686
 20
66.1401
 30
0.0
 40
0.333333
 41
0.333333
  0
VERTEX
  8
0
 10
14.3764
 20
66.0251
 30
0.0
 40
0.333333
 41
0.333333
  0
VERTEX
  8
0
 10
14.3764
 20
65.9868
 30
0.0
 40
0.333333
 41
0.333333
  0
SEQEND
 8
0
  0
POLYLINE
  8
0
 62
     0
 66
     1
 10
0
 20
0
 30
0.0
 70
     1
 40
24
 41
24
  0
VERTEX
  8
0
 10
166.776
 20
65.9868
 30
0.0
 40
0.333333
 41
0.333333
  0
VERTEX
  8
0
 10
166.776
 20
65.9485
 30
0.0
 40
0.333333
 41
0.333333
  0
VERTEX
  8
0
 10
166.769
 20
65.8335
 30
0.0
 40
0.333333
 41
0.333333
  0
VERTEX
  8
0
 10
166.746
 20
65.6846
 30
0.0
 40
0.333333
 41
0.333333
  0
VERTEX
  8
0
 10
166.71
 20
65.5407
 30
0.0
 40
0.333333
 41
0.333333
  0
VERTEX
  8
0
 10
166.658
 20
65.4029
 30
0.0
 40
0.333333
 41
0.333333
  0
VERTEX
  8
0
 10
166.596
 20
65.2718
 30
0.0
 40
0.333333
 41
0.333333
  0
VERTEX
  8
0
 10
166.521
 20
65.1481
 30
0.0
 40
0.333333
 41
0.333333
  0
VERTEX
  8
0
 10
166.435
 20
65.0326
 30
0.0
 40
0.333333
 41
0.333333
  0
VERTEX
  8
0
 10
166.337
 20
64.9261
 30
0.0
 40
0.333333
 41
0.333333
  0
VERTEX
  8
0
 10
166.231
 20
64.8293
 30
0.0
 40
0.333333
 41
0.333333
  0
VERTEX
  8
0
 10
166.115
 20
64.7429
 30
0.0
 40
0.333333
 41
0.333333
  0
VERTEX
  8
0
 10
165.992
 20
64.6679
 30
0.0
 40
0.333333
 41
0.333333
  0
VERTEX
  8
0
 10
165.861
 20
64.6047
 30
0.0
 40
0.333333
 41
0.333333
  0
VERTEX
  8
0
 10
165.722
 20
64.5543
 30
0.0
 40
0.333333
 41
0.333333
  0
VERTEX
  8
0
 10
165.579
 20
64.5172
 30
0.0
 40
0.333333
 41
0.333333
  0
VERTEX
  8
0
 10
165.431
 20
64.4946
 30
0.0
 40
0.333333
 41
0.333333
  0
VERTEX
  8
0
 10
165.315
 20
64.4868
 30
0.0
 40
0.333333
 41
0.333333
  0
VERTEX
  8
0
 10
165.276
 20
64.4868
 30
0.0
 40
0.333333
 41
0.333333
  0
VERTEX
  8
0
 10
165.239
 20
64.4868
 30
0.0
 40
0.333333
 41
0.333333
  0
VERTEX
  8
0
 10
165.124
 20
64.4946
 30
0.0
 40
0.333333
 41
0.333333
  0
VERTEX
  8
0
 10
164.975
 20
64.5172
 30
0.0
 40
0.333333
 41
0.333333
  0
VERTEX
  8
0
 10
164.831
 20
64.5543
 30
0.0
 40
0.333333
 41
0.333333
  0
VERTEX
  8
0
 10
164.693
 20
64.6047
 30
0.0
 40
0.333333
 41
0.333333
  0
VERTEX
  8
0
 10
164.561
 20
64.6679
 30
0.0
 40
0.333333
 41
0.333333
  0
VERTEX
  8
0
 10
164.438
 20
64.7429
 30
0.0
 40
0.333333
 41
0.333333
  0
VERTEX
  8
0
 10
164.322
 20
64.8293
 30
0.0
 40
0.333333
 41
0.333333
  0
VERTEX
  8
0
 10
164.217
 20
64.9261
 30
0.0
 40
0.333333
 41
0.333333
  0
VERTEX
  8
0
 10
164.119
 20
65.0326
 30
0.0
 40
0.333333
 41
0.333333
  0
VERTEX
  8
0
 10
164.033
 20
65.1481
 30
0.0
 40
0.333333
 41
0.333333
  0
VERTEX
  8
0
 10
163.958
 20
65.2718
 30
0.0
 40
0.333333
 41
0.333333
  0
VERTEX
  8
0
 10
163.894
 20
65.4029
 30
0.0
 40
0.333333
 41
0.333333
  0
VERTEX
  8
0
 10
163.844
 20
65.5407
 30
0.0
 40
0.333333
 41
0.333333
  0
VERTEX
  8
0
 10
163.807
 20
65.6846
 30
0.0
 40
0.333333
 41
0.333333
  0
VERTEX
  8
0
 10
163.785
 20
65.8335
 30
0.0
 40
0.333333
 41
0.333333
  0
VERTEX
  8
0
 10
163.776
 20
65.9485
 30
0.0
 40
0.333333
 41
0.333333
  0
VERTEX
  8
0
 10
163.776
 20
65.9868
 30
0.0
 40
0.333333
 41
0.333333
  0
VERTEX
  8
0
 10
163.776
 20
66.0251
 30
0.0
 40
0.333333
 41
0.333333
  0
VERTEX
  8
0
 10
163.785
 20
66.1401
 30
0.0
 40
0.333333
 41
0.333333
  0
VERTEX
  8
0
 10
163.807
 20
66.2892
 30
0.0
 40
0.333333
 41
0.333333
  0
VERTEX
  8
0
 10
163.844
 20
66.4328
 30
0.0
 40
0.333333
 41
0.333333
  0
VERTEX
  8
0
 10
163.894
 20
66.5707
 30
0.0
 40
0.333333
 41
0.333333
  0
VERTEX
  8
0
 10
163.958
 20
66.7018
 30
0.0
 40
0.333333
 41
0.333333
  0
VERTEX
  8
0
 10
164.033
 20
66.8254
 30
0.0
 40
0.333333
 41
0.333333
  0
VERTEX
  8
0
 10
164.119
 20
66.941
 30
0.0
 40
0.333333
 41
0.333333
  0
VERTEX
  8
0
 10
164.217
 20
67.0475
 30
0.0
 40
0.333333
 41
0.333333
  0
VERTEX
  8
0
 10
164.322
 20
67.1443
 30
0.0
 40
0.333333
 41
0.333333
  0
VERTEX
  8
0
 10
164.438
 20
67.2307
 30
0.0
 40
0.333333
 41
0.333333
  0
VERTEX
  8
0
 10
164.561
 20
67.3058
 30
0.0
 40
0.333333
 41
0.333333
  0
VERTEX
  8
0
 10
164.693
 20
67.3689
 30
0.0
 40
0.333333
 41
0.333333
  0
VERTEX
  8
0
 10
164.831
 20
67.4194
 30
0.0
 40
0.333333
 41
0.333333
  0
VERTEX
  8
0
 10
164.975
 20
67.4564
 30
0.0
 40
0.333333
 41
0.333333
  0
VERTEX
  8
0
 10
165.124
 20
67.479
 30
0.0
 40
0.333333
 41
0.333333
  0
VERTEX
  8
0
 10
165.239
 20
67.4868
 30
0.0
 40
0.333333
 41
0.333333
  0
VERTEX
  8
0
 10
165.276
 20
67.4868
 30
0.0
 40
0.333333
 41
0.333333
  0
VERTEX
  8
0
 10
165.315
 20
67.4868
 30
0.0
 40
0.333333
 41
0.333333
  0
VERTEX
  8
0
 10
165.431
 20
67.479
 30
0.0
 40
0.333333
 41
0.333333
  0
VERTEX
  8
0
 10
165.579
 20
67.4564
 30
0.0
 40
0.333333
 41
0.333333
  0
VERTEX
  8
0
 10
165.722
 20
67.4194
 30
0.0
 40
0.333333
 41
0.333333
  0
VERTEX
  8
0
 10
165.861
 20
67.3689
 30
0.0
 40
0.333333
 41
0.333333
  0
VERTEX
  8
0
 10
165.992
 20
67.3058
 30
0.0
 40
0.333333
 41
0.333333
  0
VERTEX
  8
0
 10
166.115
 20
67.2307
 30
0.0
 40
0.333333
 41
0.333333
  0
VERTEX
  8
0
 10
166.231
 20
67.1443
 30
0.0
 40
0.333333
 41
0.333333
  0
VERTEX
  8
0
 10
166.337
 20
67.0475
 30
0.0
 40
0.333333
 41
0.333333
  0
VERTEX
  8
0
 10
166.435
 20
66.941
 30
0.0
 40
0.333333
 41
0.333333
  0
VERTEX
  8
0
 10
166.521
 20
66.8254
 30
0.0
 40
0.333333
 41
0.333333
  0
VERTEX
  8
0
 10
166.596
 20
66.7018
 30
0.0
 40
0.333333
 41
0.333333
  0
VERTEX
  8
0
 10
166.658
 20
66.5707
 30
0.0
 40
0.333333
 41
0.333333
  0
VERTEX
  8
0
 10
166.71
 20
66.4328
 30
0.0
 40
0.333333
 41
0.333333
  0
VERTEX
  8
0
 10
166.746
 20
66.2892
 30
0.0
 40
0.333333
 41
0.333333
  0
VERTEX
  8
0
 10
166.769
 20
66.1401
 30
0.0
 40
0.333333
 41
0.333333
  0
VERTEX
  8
0
 10
166.776
 20
66.0251
 30
0.0
 40
0.333333
 41
0.333333
  0
VERTEX
  8
0
 10
166.776
 20
65.9868
 30
0.0
 40
0.333333
 41
0.333333
  0
SEQEND
 8
0
  0
POLYLINE
  8
0
 62
     0
 66
     1
 10
0
 20
0
 30
0.0
 70
     1
 40
24
 41
24
  0
VERTEX
  8
0
 10
193.851
 20
317.688
 30
0.0
 40
0.333333
 41
0.333333
  0
VERTEX
  8
0
 10
193.851
 20
317.606
 30
0.0
 40
0.333333
 41
0.333333
  0
VERTEX
  8
0
 10
193.835
 20
317.362
 30
0.0
 40
0.333333
 41
0.333333
  0
VERTEX
  8
0
 10
193.788
 20
317.047
 30
0.0
 40
0.333333
 41
0.333333
  0
VERTEX
  8
0
 10
193.708
 20
316.743
 30
0.0
 40
0.333333
 41
0.333333
  0
VERTEX
  8
0
 10
193.603
 20
316.451
 30
0.0
 40
0.333333
 41
0.333333
  0
VERTEX
  8
0
 10
193.468
 20
316.174
 30
0.0
 40
0.333333
 41
0.333333
  0
VERTEX
  8
0
 10
193.31
 20
315.912
 30
0.0
 40
0.333333
 41
0.333333
  0
VERTEX
  8
0
 10
193.126
 20
315.668
 30
0.0
 40
0.333333
 41
0.333333
  0
VERTEX
  8
0
 10
192.922
 20
315.442
 30
0.0
 40
0.333333
 41
0.333333
  0
VERTEX
  8
0
 10
192.696
 20
315.237
 30
0.0
 40
0.333333
 41
0.333333
  0
VERTEX
  8
0
 10
192.451
 20
315.054
 30
0.0
 40
0.333333
 41
0.333333
  0
VERTEX
  8
0
 10
192.19
 20
314.896
 30
0.0
 40
0.333333
 41
0.333333
  0
VERTEX
  8
0
 10
191.913
 20
314.761
 30
0.0
 40
0.333333
 41
0.333333
  0
VERTEX
  8
0
 10
191.621
 20
314.656
 30
0.0
 40
0.333333
 41
0.333333
  0
VERTEX
  8
0
 10
191.317
 20
314.576
 30
0.0
 40
0.333333
 41
0.333333
  0
VERTEX
  8
0
 10
191.001
 20
314.529
 30
0.0
 40
0.333333
 41
0.333333
  0
VERTEX
  8
0
 10
190.758
 20
314.513
 30
0.0
 40
0.333333
 41
0.333333
  0
VERTEX
  8
0
 10
190.676
 20
314.513
 30
0.0
 40
0.333333
 41
0.333333
  0
VERTEX
  8
0
 10
190.596
 20
314.513
 30
0.0
 40
0.333333
 41
0.333333
  0
VERTEX
  8
0
 10
190.351
 20
314.529
 30
0.0
 40
0.333333
 41
0.333333
  0
VERTEX
  8
0
 10
190.036
 20
314.576
 30
0.0
 40
0.333333
 41
0.333333
  0
VERTEX
  8
0
 10
189.732
 20
314.656
 30
0.0
 40
0.333333
 41
0.333333
  0
VERTEX
  8
0
 10
189.44
 20
314.761
 30
0.0
 40
0.333333
 41
0.333333
  0
VERTEX
  8
0
 10
189.164
 20
314.896
 30
0.0
 40
0.333333
 41
0.333333
  0
VERTEX
  8
0
 10
188.901
 20
315.054
 30
0.0
 40
0.333333
 41
0.333333
  0
VERTEX
  8
0
 10
188.657
 20
315.237
 30
0.0
 40
0.333333
 41
0.333333
  0
VERTEX
  8
0
 10
188.432
 20
315.442
 30
0.0
 40
0.333333
 41
0.333333
  0
VERTEX
  8
0
 10
188.226
 20
315.668
 30
0.0
 40
0.333333
 41
0.333333
  0
VERTEX
  8
0
 10
188.044
 20
315.912
 30
0.0
 40
0.333333
 41
0.333333
  0
VERTEX
  8
0
 10
187.885
 20
316.174
 30
0.0
 40
0.333333
 41
0.333333
  0
VERTEX
  8
0
 10
187.751
 20
316.451
 30
0.0
 40
0.333333
 41
0.333333
  0
VERTEX
  8
0
 10
187.644
 20
316.743
 30
0.0
 40
0.333333
 41
0.333333
  0
VERTEX
  8
0
 10
187.567
 20
317.047
 30
0.0
 40
0.333333
 41
0.333333
  0
VERTEX
  8
0
 10
187.518
 20
317.362
 30
0.0
 40
0.333333
 41
0.333333
  0
VERTEX
  8
0
 10
187.501
 20
317.606
 30
0.0
 40
0.333333
 41
0.333333
  0
VERTEX
  8
0
 10
187.501
 20
317.688
 30
0.0
 40
0.333333
 41
0.333333
  0
VERTEX
  8
0
 10
187.501
 20
317.768
 30
0.0
 40
0.333333
 41
0.333333
  0
VERTEX
  8
0
 10
187.518
 20
318.013
 30
0.0
 40
0.333333
 41
0.333333
  0
VERTEX
  8
0
 10
187.567
 20
318.328
 30
0.0
 40
0.333333
 41
0.333333
  0
VERTEX
  8
0
 10
187.644
 20
318.632
 30
0.0
 40
0.333333
 41
0.333333
  0
VERTEX
  8
0
 10
187.751
 20
318.924
 30
0.0
 40
0.333333
 41
0.333333
  0
VERTEX
  8
0
 10
187.885
 20
319.2
 30
0.0
 40
0.333333
 41
0.333333
  0
VERTEX
  8
0
 10
188.044
 20
319.463
 30
0.0
 40
0.333333
 41
0.333333
  0
VERTEX
  8
0
 10
188.226
 20
319.707
 30
0.0
 40
0.333333
 41
0.333333
  0
VERTEX
  8
0
 10
188.432
 20
319.932
 30
0.0
 40
0.333333
 41
0.333333
  0
VERTEX
  8
0
 10
188.657
 20
320.138
 30
0.0
 40
0.333333
 41
0.333333
  0
VERTEX
  8
0
 10
188.901
 20
320.319
 30
0.0
 40
0.333333
 41
0.333333
  0
VERTEX
  8
0
 10
189.164
 20
320.479
 30
0.0
 40
0.333333
 41
0.333333
  0
VERTEX
  8
0
 10
189.44
 20
320.612
 30
0.0
 40
0.333333
 41
0.333333
  0
VERTEX
  8
0
 10
189.732
 20
320.719
 30
0.0
 40
0.333333
 41
0.333333
  0
VERTEX
  8
0
 10
190.036
 20
320.797
 30
0.0
 40
0.333333
 41
0.333333
  0
VERTEX
  8
0
 10
190.351
 20
320.846
 30
0.0
 40
0.333333
 41
0.333333
  0
VERTEX
  8
0
 10
190.596
 20
320.862
 30
0.0
 40
0.333333
 41
0.333333
  0
VERTEX
  8
0
 10
190.676
 20
320.862
 30
0.0
 40
0.333333
 41
0.333333
  0
VERTEX
  8
0
 10
190.758
 20
320.862
 30
0.0
 40
0.333333
 41
0.333333
  0
VERTEX
  8
0
 10
191.001
 20
320.846
 30
0.0
 40
0.333333
 41
0.333333
  0
VERTEX
  8
0
 10
191.317
 20
320.797
 30
0.0
 40
0.333333
 41
0.333333
  0
VERTEX
  8
0
 10
191.621
 20
320.719
 30
0.0
 40
0.333333
 41
0.333333
  0
VERTEX
  8
0
 10
191.913
 20
320.612
 30
0.0
 40
0.333333
 41
0.333333
  0
VERTEX
  8
0
 10
192.19
 20
320.479
 30
0.0
 40
0.333333
 41
0.333333
  0
VERTEX
  8
0
 10
192.451
 20
320.319
 30
0.0
 40
0.333333
 41
0.333333
  0
VERTEX
  8
0
 10
192.696
 20
320.138
 30
0.0
 40
0.333333
 41
0.333333
  0
VERTEX
  8
0
 10
192.922
 20
319.932
 30
0.0
 40
0.333333
 41
0.333333
  0
VERTEX
  8
0
 10
193.126
 20
319.707
 30
0.0
 40
0.333333
 41
0.333333
  0
VERTEX
  8
0
 10
193.31
 20
319.463
 30
0.0
 40
0.333333
 41
0.333333
  0
VERTEX
  8
0
 10
193.468
 20
319.2
 30
0.0
 40
0.333333
 41
0.333333
  0
VERTEX
  8
0
 10
193.603
 20
318.924
 30
0.0
 40
0.333333
 41
0.333333
  0
VERTEX
  8
0
 10
193.708
 20
318.632
 30
0.0
 40
0.333333
 41
0.333333
  0
VERTEX
  8
0
 10
193.788
 20
318.328
 30
0.0
 40
0.333333
 41
0.333333
  0
VERTEX
  8
0
 10
193.835
 20
318.013
 30
0.0
 40
0.333333
 41
0.333333
  0
VERTEX
  8
0
 10
193.851
 20
317.768
 30
0.0
 40
0.333333
 41
0.333333
  0
VERTEX
  8
0
 10
193.851
 20
317.688
 30
0.0
 40
0.333333
 41
0.333333
  0
SEQEND
 8
0
  0
POLYLINE
  8
0
 62
     0
 66
     1
 10
0
 20
0
 30
0.0
 70
     1
 40
24
 41
24
  0
VERTEX
  8
0
 10
453.526
 20
343.088
 30
0.0
 40
0.333333
 41
0.333333
  0
VERTEX
  8
0
 10
453.526
 20
343.049
 30
0.0
 40
0.333333
 41
0.333333
  0
VERTEX
  8
0
 10
453.519
 20
342.933
 30
0.0
 40
0.333333
 41
0.333333
  0
VERTEX
  8
0
 10
453.497
 20
342.785
 30
0.0
 40
0.333333
 41
0.333333
  0
VERTEX
  8
0
 10
453.46
 20
342.642
 30
0.0
 40
0.333333
 41
0.333333
  0
VERTEX
  8
0
 10
453.41
 20
342.503
 30
0.0
 40
0.333333
 41
0.333333
  0
VERTEX
  8
0
 10
453.346
 20
342.372
 30
0.0
 40
0.333333
 41
0.333333
  0
VERTEX
  8
0
 10
453.271
 20
342.249
 30
0.0
 40
0.333333
 41
0.333333
  0
VERTEX
  8
0
 10
453.185
 20
342.133
 30
0.0
 40
0.333333
 41
0.333333
  0
VERTEX
  8
0
 10
453.088
 20
342.026
 30
0.0
 40
0.333333
 41
0.333333
  0
VERTEX
  8
0
 10
452.981
 20
341.929
 30
0.0
 40
0.333333
 41
0.333333
  0
VERTEX
  8
0
 10
452.865
 20
341.843
 30
0.0
 40
0.333333
 41
0.333333
  0
VERTEX
  8
0
 10
452.742
 20
341.768
 30
0.0
 40
0.333333
 41
0.333333
  0
VERTEX
  8
0
 10
452.611
 20
341.706
 30
0.0
 40
0.333333
 41
0.333333
  0
VERTEX
  8
0
 10
452.474
 20
341.654
 30
0.0
 40
0.333333
 41
0.333333
  0
VERTEX
  8
0
 10
452.329
 20
341.618
 30
0.0
 40
0.333333
 41
0.333333
  0
VERTEX
  8
0
 10
452.181
 20
341.594
 30
0.0
 40
0.333333
 41
0.333333
  0
VERTEX
  8
0
 10
452.065
 20
341.588
 30
0.0
 40
0.333333
 41
0.333333
  0
VERTEX
  8
0
 10
452.026
 20
341.588
 30
0.0
 40
0.333333
 41
0.333333
  0
VERTEX
  8
0
 10
451.989
 20
341.588
 30
0.0
 40
0.333333
 41
0.333333
  0
VERTEX
  8
0
 10
451.874
 20
341.594
 30
0.0
 40
0.333333
 41
0.333333
  0
VERTEX
  8
0
 10
451.725
 20
341.618
 30
0.0
 40
0.333333
 41
0.333333
  0
VERTEX
  8
0
 10
451.581
 20
341.654
 30
0.0
 40
0.333333
 41
0.333333
  0
VERTEX
  8
0
 10
451.443
 20
341.706
 30
0.0
 40
0.333333
 41
0.333333
  0
VERTEX
  8
0
 10
451.313
 20
341.768
 30
0.0
 40
0.333333
 41
0.333333
  0
VERTEX
  8
0
 10
451.189
 20
341.843
 30
0.0
 40
0.333333
 41
0.333333
  0
VERTEX
  8
0
 10
451.074
 20
341.929
 30
0.0
 40
0.333333
 41
0.333333
  0
VERTEX
  8
0
 10
450.967
 20
342.026
 30
0.0
 40
0.333333
 41
0.333333
  0
VERTEX
  8
0
 10
450.869
 20
342.133
 30
0.0
 40
0.333333
 41
0.333333
  0
VERTEX
  8
0
 10
450.783
 20
342.249
 30
0.0
 40
0.333333
 41
0.333333
  0
VERTEX
  8
0
 10
450.708
 20
342.372
 30
0.0
 40
0.333333
 41
0.333333
  0
VERTEX
  8
0
 10
450.644
 20
342.503
 30
0.0
 40
0.333333
 41
0.333333
  0
VERTEX
  8
0
 10
450.594
 20
342.642
 30
0.0
 40
0.333333
 41
0.333333
  0
VERTEX
  8
0
 10
450.557
 20
342.785
 30
0.0
 40
0.333333
 41
0.333333
  0
VERTEX
  8
0
 10
450.535
 20
342.933
 30
0.0
 40
0.333333
 41
0.333333
  0
VERTEX
  8
0
 10
450.526
 20
343.049
 30
0.0
 40
0.333333
 41
0.333333
  0
VERTEX
  8
0
 10
450.526
 20
343.088
 30
0.0
 40
0.333333
 41
0.333333
  0
VERTEX
  8
0
 10
450.526
 20
343.125
 30
0.0
 40
0.333333
 41
0.333333
  0
VERTEX
  8
0
 10
450.535
 20
343.24
 30
0.0
 40
0.333333
 41
0.333333
  0
VERTEX
  8
0
 10
450.557
 20
343.389
 30
0.0
 40
0.333333
 41
0.333333
  0
VERTEX
  8
0
 10
450.594
 20
343.533
 30
0.0
 40
0.333333
 41
0.333333
  0
VERTEX
  8
0
 10
450.644
 20
343.671
 30
0.0
 40
0.333333
 41
0.333333
  0
VERTEX
  8
0
 10
450.708
 20
343.803
 30
0.0
 40
0.333333
 41
0.333333
  0
VERTEX
  8
0
 10
450.783
 20
343.926
 30
0.0
 40
0.333333
 41
0.333333
  0
VERTEX
  8
0
 10
450.869
 20
344.042
 30
0.0
 40
0.333333
 41
0.333333
  0
VERTEX
  8
0
 10
450.967
 20
344.147
 30
0.0
 40
0.333333
 41
0.333333
  0
VERTEX
  8
0
 10
451.074
 20
344.244
 30
0.0
 40
0.333333
 41
0.333333
  0
VERTEX
  8
0
 10
451.189
 20
344.331
 30
0.0
 40
0.333333
 41
0.333333
  0
VERTEX
  8
0
 10
451.313
 20
344.406
 30
0.0
 40
0.333333
 41
0.333333
  0
VERTEX
  8
0
 10
451.443
 20
344.469
 30
0.0
 40
0.333333
 41
0.333333
  0
VERTEX
  8
0
 10
451.581
 20
344.519
 30
0.0
 40
0.333333
 41
0.333333
  0
VERTEX
  8
0
 10
451.725
 20
344.557
 30
0.0
 40
0.333333
 41
0.333333
  0
VERTEX
  8
0
 10
451.874
 20
344.579
 30
0.0
 40
0.333333
 41
0.333333
  0
VERTEX
  8
0
 10
451.989
 20
344.588
 30
0.0
 40
0.333333
 41
0.333333
  0
VERTEX
  8
0
 10
452.026
 20
344.588
 30
0.0
 40
0.333333
 41
0.333333
  0
VERTEX
  8
0
 10
452.065
 20
344.588
 30
0.0
 40
0.333333
 41
0.333333
  0
VERTEX
  8
0
 10
452.181
 20
344.579
 30
0.0
 40
0.333333
 41
0.333333
  0
VERTEX
  8
0
 10
452.329
 20
344.557
 30
0.0
 40
0.333333
 41
0.333333
  0
VERTEX
  8
0
 10
452.474
 20
344.519
 30
0.0
 40
0.333333
 41
0.333333
  0
VERTEX
  8
0
 10
452.611
 20
344.469
 30
0.0
 40
0.333333
 41
0.333333
  0
VERTEX
  8
0
 10
452.742
 20
344.406
 30
0.0
 40
0.333333
 41
0.333333
  0
VERTEX
  8
0
 10
452.865
 20
344.331
 30
0.0
 40
0.333333
 41
0.333333
  0
VERTEX
  8
0
 10
452.981
 20
344.244
 30
0.0
 40
0.333333
 41
0.333333
  0
VERTEX
  8
0
 10
453.088
 20
344.147
 30
0.0
 40
0.333333
 41
0.333333
  0
VERTEX
  8
0
 10
453.185
 20
344.042
 30
0.0
 40
0.333333
 41
0.333333
  0
VERTEX
  8
0
 10
453.271
 20
343.926
 30
0.0
 40
0.333333
 41
0.333333
  0
VERTEX
  8
0
 10
453.346
 20
343.803
 30
0.0
 40
0.333333
 41
0.333333
  0
VERTEX
  8
0
 10
453.41
 20
343.671
 30
0.0
 40
0.333333
 41
0.333333
  0
VERTEX
  8
0
 10
453.46
 20
343.533
 30
0.0
 40
0.333333
 41
0.333333
  0
VERTEX
  8
0
 10
453.497
 20
343.389
 30
0.0
 40
0.333333
 41
0.333333
  0
VERTEX
  8
0
 10
453.519
 20
343.24
 30
0.0
 40
0.333333
 41
0.333333
  0
VERTEX
  8
0
 10
453.526
 20
343.125
 30
0.0
 40
0.333333
 41
0.333333
  0
VERTEX
  8
0
 10
453.526
 20
343.088
 30
0.0
 40
0.333333
 41
0.333333
  0
SEQEND
 8
0
  0
POLYLINE
  8
0
 62
     0
 66
     1
 10
0
 20
0
 30
0.0
 70
     1
 40
24
 41
24
  0
VERTEX
  8
0
 10
453.526
 20
190.688
 30
0.0
 40
0.333333
 41
0.333333
  0
VERTEX
  8
0
 10
453.526
 20
190.649
 30
0.0
 40
0.333333
 41
0.333333
  0
VERTEX
  8
0
 10
453.519
 20
190.533
 30
0.0
 40
0.333333
 41
0.333333
  0
VERTEX
  8
0
 10
453.497
 20
190.385
 30
0.0
 40
0.333333
 41
0.333333
  0
VERTEX
  8
0
 10
453.46
 20
190.24
 30
0.0
 40
0.333333
 41
0.333333
  0
VERTEX
  8
0
 10
453.41
 20
190.103
 30
0.0
 40
0.333333
 41
0.333333
  0
VERTEX
  8
0
 10
453.346
 20
189.972
 30
0.0
 40
0.333333
 41
0.333333
  0
VERTEX
  8
0
 10
453.271
 20
189.849
 30
0.0
 40
0.333333
 41
0.333333
  0
VERTEX
  8
0
 10
453.185
 20
189.733
 30
0.0
 40
0.333333
 41
0.333333
  0
VERTEX
  8
0
 10
453.088
 20
189.626
 30
0.0
 40
0.333333
 41
0.333333
  0
VERTEX
  8
0
 10
452.981
 20
189.529
 30
0.0
 40
0.333333
 41
0.333333
  0
VERTEX
  8
0
 10
452.865
 20
189.443
 30
0.0
 40
0.333333
 41
0.333333
  0
VERTEX
  8
0
 10
452.742
 20
189.368
 30
0.0
 40
0.333333
 41
0.333333
  0
VERTEX
  8
0
 10
452.611
 20
189.304
 30
0.0
 40
0.333333
 41
0.333333
  0
VERTEX
  8
0
 10
452.474
 20
189.254
 30
0.0
 40
0.333333
 41
0.333333
  0
VERTEX
  8
0
 10
452.329
 20
189.218
 30
0.0
 40
0.333333
 41
0.333333
  0
VERTEX
  8
0
 10
452.181
 20
189.194
 30
0.0
 40
0.333333
 41
0.333333
  0
VERTEX
  8
0
 10
452.065
 20
189.188
 30
0.0
 40
0.333333
 41
0.333333
  0
VERTEX
  8
0
 10
452.026
 20
189.188
 30
0.0
 40
0.333333
 41
0.333333
  0
VERTEX
  8
0
 10
451.989
 20
189.188
 30
0.0
 40
0.333333
 41
0.333333
  0
VERTEX
  8
0
 10
451.874
 20
189.194
 30
0.0
 40
0.333333
 41
0.333333
  0
VERTEX
  8
0
 10
451.725
 20
189.218
 30
0.0
 40
0.333333
 41
0.333333
  0
VERTEX
  8
0
 10
451.581
 20
189.254
 30
0.0
 40
0.333333
 41
0.333333
  0
VERTEX
  8
0
 10
451.443
 20
189.304
 30
0.0
 40
0.333333
 41
0.333333
  0
VERTEX
  8
0
 10
451.313
 20
189.368
 30
0.0
 40
0.333333
 41
0.333333
  0
VERTEX
  8
0
 10
451.189
 20
189.443
 30
0.0
 40
0.333333
 41
0.333333
  0
VERTEX
  8
0
 10
451.074
 20
189.529
 30
0.0
 40
0.333333
 41
0.333333
  0
VERTEX
  8
0
 10
450.967
 20
189.626
 30
0.0
 40
0.333333
 41
0.333333
  0
VERTEX
  8
0
 10
450.869
 20
189.733
 30
0.0
 40
0.333333
 41
0.333333
  0
VERTEX
  8
0
 10
450.783
 20
189.849
 30
0.0
 40
0.333333
 41
0.333333
  0
VERTEX
  8
0
 10
450.708
 20
189.972
 30
0.0
 40
0.333333
 41
0.333333
  0
VERTEX
  8
0
 10
450.644
 20
190.103
 30
0.0
 40
0.333333
 41
0.333333
  0
VERTEX
  8
0
 10
450.594
 20
190.24
 30
0.0
 40
0.333333
 41
0.333333
  0
VERTEX
  8
0
 10
450.557
 20
190.385
 30
0.0
 40
0.333333
 41
0.333333
  0
VERTEX
  8
0
 10
450.535
 20
190.533
 30
0.0
 40
0.333333
 41
0.333333
  0
VERTEX
  8
0
 10
450.526
 20
190.649
 30
0.0
 40
0.333333
 41
0.333333
  0
VERTEX
  8
0
 10
450.526
 20
190.688
 30
0.0
 40
0.333333
 41
0.333333
  0
VERTEX
  8
0
 10
450.526
 20
190.725
 30
0.0
 40
0.333333
 41
0.333333
  0
VERTEX
  8
0
 10
450.535
 20
190.84
 30
0.0
 40
0.333333
 41
0.333333
  0
VERTEX
  8
0
 10
450.557
 20
190.989
 30
0.0
 40
0.333333
 41
0.333333
  0
VERTEX
  8
0
 10
450.594
 20
191.133
 30
0.0
 40
0.333333
 41
0.333333
  0
VERTEX
  8
0
 10
450.644
 20
191.271
 30
0.0
 40
0.333333
 41
0.333333
  0
VERTEX
  8
0
 10
450.708
 20
191.401
 30
0.0
 40
0.333333
 41
0.333333
  0
VERTEX
  8
0
 10
450.783
 20
191.525
 30
0.0
 40
0.333333
 41
0.333333
  0
VERTEX
  8
0
 10
450.869
 20
191.642
 30
0.0
 40
0.333333
 41
0.333333
  0
VERTEX
  8
0
 10
450.967
 20
191.747
 30
0.0
 40
0.333333
 41
0.333333
  0
VERTEX
  8
0
 10
451.074
 20
191.844
 30
0.0
 40
0.333333
 41
0.333333
  0
VERTEX
  8
0
 10
451.189
 20
191.931
 30
0.0
 40
0.333333
 41
0.333333
  0
VERTEX
  8
0
 10
451.313
 20
192.006
 30
0.0
 40
0.333333
 41
0.333333
  0
VERTEX
  8
0
 10
451.443
 20
192.069
 30
0.0
 40
0.333333
 41
0.333333
  0
VERTEX
  8
0
 10
451.581
 20
192.119
 30
0.0
 40
0.333333
 41
0.333333
  0
VERTEX
  8
0
 10
451.725
 20
192.157
 30
0.0
 40
0.333333
 41
0.333333
  0
VERTEX
  8
0
 10
451.874
 20
192.179
 30
0.0
 40
0.333333
 41
0.333333
  0
VERTEX
  8
0
 10
451.989
 20
192.188
 30
0.0
 40
0.333333
 41
0.333333
  0
VERTEX
  8
0
 10
452.026
 20
192.188
 30
0.0
 40
0.333333
 41
0.333333
  0
VERTEX
  8
0
 10
452.065
 20
192.188
 30
0.0
 40
0.333333
 41
0.333333
  0
VERTEX
  8
0
 10
452.181
 20
192.179
 30
0.0
 40
0.333333
 41
0.333333
  0
VERTEX
  8
0
 10
452.329
 20
192.157
 30
0.0
 40
0.333333
 41
0.333333
  0
VERTEX
  8
0
 10
452.474
 20
192.119
 30
0.0
 40
0.333333
 41
0.333333
  0
VERTEX
  8
0
 10
452.611
 20
192.069
 30
0.0
 40
0.333333
 41
0.333333
  0
VERTEX
  8
0
 10
452.742
 20
192.006
 30
0.0
 40
0.333333
 41
0.333333
  0
VERTEX
  8
0
 10
452.865
 20
191.931
 30
0.0
 40
0.333333
 41
0.333333
  0
VERTEX
  8
0
 10
452.981
 20
191.844
 30
0.0
 40
0.333333
 41
0.333333
  0
VERTEX
  8
0
 10
453.088
 20
191.747
 30
0.0
 40
0.333333
 41
0.333333
  0
VERTEX
  8
0
 10
453.185
 20
191.642
 30
0.0
 40
0.333333
 41
0.333333
  0
VERTEX
  8
0
 10
453.271
 20
191.525
 30
0.0
 40
0.333333
 41
0.333333
  0
VERTEX
  8
0
 10
453.346
 20
191.401
 30
0.0
 40
0.333333
 41
0.333333
  0
VERTEX
  8
0
 10
453.41
 20
191.271
 30
0.0
 40
0.333333
 41
0.333333
  0
VERTEX
  8
0
 10
453.46
 20
191.133
 30
0.0
 40
0.333333
 41
0.333333
  0
VERTEX
  8
0
 10
453.497
 20
190.989
 30
0.0
 40
0.333333
 41
0.333333
  0
VERTEX
  8
0
 10
453.519
 20
190.84
 30
0.0
 40
0.333333
 41
0.333333
  0
VERTEX
  8
0
 10
453.526
 20
190.725
 30
0.0
 40
0.333333
 41
0.333333
  0
VERTEX
  8
0
 10
453.526
 20
190.688
 30
0.0
 40
0.333333
 41
0.333333
  0
SEQEND
 8
0
  0
POLYLINE
  8
0
 62
     0
 66
     1
 10
0
 20
0
 30
0.0
 70
     1
 40
24
 41
24
  0
VERTEX
  8
0
 10
469.278
 20
190.688
 30
0.0
 40
0.333333
 41
0.333333
  0
VERTEX
  8
0
 10
469.278
 20
190.649
 30
0.0
 40
0.333333
 41
0.333333
  0
VERTEX
  8
0
 10
469.269
 20
190.533
 30
0.0
 40
0.333333
 41
0.333333
  0
VERTEX
  8
0
 10
469.247
 20
190.385
 30
0.0
 40
0.333333
 41
0.333333
  0
VERTEX
  8
0
 10
469.21
 20
190.24
 30
0.0
 40
0.333333
 41
0.333333
  0
VERTEX
  8
0
 10
469.16
 20
190.103
 30
0.0
 40
0.333333
 41
0.333333
  0
VERTEX
  8
0
 10
469.096
 20
189.972
 30
0.0
 40
0.333333
 41
0.333333
  0
VERTEX
  8
0
 10
469.021
 20
189.849
 30
0.0
 40
0.333333
 41
0.333333
  0
VERTEX
  8
0
 10
468.935
 20
189.733
 30
0.0
 40
0.333333
 41
0.333333
  0
VERTEX
  8
0
 10
468.838
 20
189.626
 30
0.0
 40
0.333333
 41
0.333333
  0
VERTEX
  8
0
 10
468.731
 20
189.529
 30
0.0
 40
0.333333
 41
0.333333
  0
VERTEX
  8
0
 10
468.615
 20
189.443
 30
0.0
 40
0.333333
 41
0.333333
  0
VERTEX
  8
0
 10
468.492
 20
189.368
 30
0.0
 40
0.333333
 41
0.333333
  0
VERTEX
  8
0
 10
468.361
 20
189.304
 30
0.0
 40
0.333333
 41
0.333333
  0
VERTEX
  8
0
 10
468.224
 20
189.254
 30
0.0
 40
0.333333
 41
0.333333
  0
VERTEX
  8
0
 10
468.079
 20
189.218
 30
0.0
 40
0.333333
 41
0.333333
  0
VERTEX
  8
0
 10
467.931
 20
189.194
 30
0.0
 40
0.333333
 41
0.333333
  0
VERTEX
  8
0
 10
467.815
 20
189.188
 30
0.0
 40
0.333333
 41
0.333333
  0
VERTEX
  8
0
 10
467.778
 20
189.188
 30
0.0
 40
0.333333
 41
0.333333
  0
VERTEX
  8
0
 10
467.739
 20
189.188
 30
0.0
 40
0.333333
 41
0.333333
  0
VERTEX
  8
0
 10
467.624
 20
189.194
 30
0.0
 40
0.333333
 41
0.333333
  0
VERTEX
  8
0
 10
467.475
 20
189.218
 30
0.0
 40
0.333333
 41
0.333333
  0
VERTEX
  8
0
 10
467.331
 20
189.254
 30
0.0
 40
0.333333
 41
0.333333
  0
VERTEX
  8
0
 10
467.193
 20
189.304
 30
0.0
 40
0.333333
 41
0.333333
  0
VERTEX
  8
0
 10
467.063
 20
189.368
 30
0.0
 40
0.333333
 41
0.333333
  0
VERTEX
  8
0
 10
466.939
 20
189.443
 30
0.0
 40
0.333333
 41
0.333333
  0
VERTEX
  8
0
 10
466.824
 20
189.529
 30
0.0
 40
0.333333
 41
0.333333
  0
VERTEX
  8
0
 10
466.717
 20
189.626
 30
0.0
 40
0.333333
 41
0.333333
  0
VERTEX
  8
0
 10
466.619
 20
189.733
 30
0.0
 40
0.333333
 41
0.333333
  0
VERTEX
  8
0
 10
466.533
 20
189.849
 30
0.0
 40
0.333333
 41
0.333333
  0
VERTEX
  8
0
 10
466.458
 20
189.972
 30
0.0
 40
0.333333
 41
0.333333
  0
VERTEX
  8
0
 10
466.394
 20
190.103
 30
0.0
 40
0.333333
 41
0.333333
  0
VERTEX
  8
0
 10
466.344
 20
190.24
 30
0.0
 40
0.333333
 41
0.333333
  0
VERTEX
  8
0
 10
466.307
 20
190.385
 30
0.0
 40
0.333333
 41
0.333333
  0
VERTEX
  8
0
 10
466.285
 20
190.533
 30
0.0
 40
0.333333
 41
0.333333
  0
VERTEX
  8
0
 10
466.278
 20
190.649
 30
0.0
 40
0.333333
 41
0.333333
  0
VERTEX
  8
0
 10
466.278
 20
190.688
 30
0.0
 40
0.333333
 41
0.333333
  0
VERTEX
  8
0
 10
466.278
 20
190.725
 30
0.0
 40
0.333333
 41
0.333333
  0
VERTEX
  8
0
 10
466.285
 20
190.84
 30
0.0
 40
0.333333
 41
0.333333
  0
VERTEX
  8
0
 10
466.307
 20
190.989
 30
0.0
 40
0.333333
 41
0.333333
  0
VERTEX
  8
0
 10
466.344
 20
191.133
 30
0.0
 40
0.333333
 41
0.333333
  0
VERTEX
  8
0
 10
466.394
 20
191.271
 30
0.0
 40
0.333333
 41
0.333333
  0
VERTEX
  8
0
 10
466.458
 20
191.401
 30
0.0
 40
0.333333
 41
0.333333
  0
VERTEX
  8
0
 10
466.533
 20
191.525
 30
0.0
 40
0.333333
 41
0.333333
  0
VERTEX
  8
0
 10
466.619
 20
191.642
 30
0.0
 40
0.333333
 41
0.333333
  0
VERTEX
  8
0
 10
466.717
 20
191.747
 30
0.0
 40
0.333333
 41
0.333333
  0
VERTEX
  8
0
 10
466.824
 20
191.844
 30
0.0
 40
0.333333
 41
0.333333
  0
VERTEX
  8
0
 10
466.939
 20
191.931
 30
0.0
 40
0.333333
 41
0.333333
  0
VERTEX
  8
0
 10
467.063
 20
192.006
 30
0.0
 40
0.333333
 41
0.333333
  0
VERTEX
  8
0
 10
467.193
 20
192.069
 30
0.0
 40
0.333333
 41
0.333333
  0
VERTEX
  8
0
 10
467.331
 20
192.119
 30
0.0
 40
0.333333
 41
0.333333
  0
VERTEX
  8
0
 10
467.475
 20
192.157
 30
0.0
 40
0.333333
 41
0.333333
  0
VERTEX
  8
0
 10
467.624
 20
192.179
 30
0.0
 40
0.333333
 41
0.333333
  0
VERTEX
  8
0
 10
467.739
 20
192.188
 30
0.0
 40
0.333333
 41
0.333333
  0
VERTEX
  8
0
 10
467.778
 20
192.188
 30
0.0
 40
0.333333
 41
0.333333
  0
VERTEX
  8
0
 10
467.815
 20
192.188
 30
0.0
 40
0.333333
 41
0.333333
  0
VERTEX
  8
0
 10
467.931
 20
192.179
 30
0.0
 40
0.333333
 41
0.333333
  0
VERTEX
  8
0
 10
468.079
 20
192.157
 30
0.0
 40
0.333333
 41
0.333333
  0
VERTEX
  8
0
 10
468.224
 20
192.119
 30
0.0
 40
0.333333
 41
0.333333
  0
VERTEX
  8
0
 10
468.361
 20
192.069
 30
0.0
 40
0.333333
 41
0.333333
  0
VERTEX
  8
0
 10
468.492
 20
192.006
 30
0.0
 40
0.333333
 41
0.333333
  0
VERTEX
  8
0
 10
468.615
 20
191.931
 30
0.0
 40
0.333333
 41
0.333333
  0
VERTEX
  8
0
 10
468.731
 20
191.844
 30
0.0
 40
0.333333
 41
0.333333
  0
VERTEX
  8
0
 10
468.838
 20
191.747
 30
0.0
 40
0.333333
 41
0.333333
  0
VERTEX
  8
0
 10
468.935
 20
191.642
 30
0.0
 40
0.333333
 41
0.333333
  0
VERTEX
  8
0
 10
469.021
 20
191.525
 30
0.0
 40
0.333333
 41
0.333333
  0
VERTEX
  8
0
 10
469.096
 20
191.401
 30
0.0
 40
0.333333
 41
0.333333
  0
VERTEX
  8
0
 10
469.16
 20
191.271
 30
0.0
 40
0.333333
 41
0.333333
  0
VERTEX
  8
0
 10
469.21
 20
191.133
 30
0.0
 40
0.333333
 41
0.333333
  0
VERTEX
  8
0
 10
469.247
 20
190.989
 30
0.0
 40
0.333333
 41
0.333333
  0
VERTEX
  8
0
 10
469.269
 20
190.84
 30
0.0
 40
0.333333
 41
0.333333
  0
VERTEX
  8
0
 10
469.278
 20
190.725
 30
0.0
 40
0.333333
 41
0.333333
  0
VERTEX
  8
0
 10
469.278
 20
190.688
 30
0.0
 40
0.333333
 41
0.333333
  0
SEQEND
 8
0
  0
POLYLINE
  8
0
 62
     0
 66
     1
 10
0
 20
0
 30
0.0
 70
     1
 40
24
 41
24
  0
VERTEX
  8
0
 10
469.278
 20
343.088
 30
0.0
 40
0.333333
 41
0.333333
  0
VERTEX
  8
0
 10
469.278
 20
343.049
 30
0.0
 40
0.333333
 41
0.333333
  0
VERTEX
  8
0
 10
469.269
 20
342.933
 30
0.0
 40
0.333333
 41
0.333333
  0
VERTEX
  8
0
 10
469.247
 20
342.785
 30
0.0
 40
0.333333
 41
0.333333
  0
VERTEX
  8
0
 10
469.21
 20
342.642
 30
0.0
 40
0.333333
 41
0.333333
  0
VERTEX
  8
0
 10
469.16
 20
342.503
 30
0.0
 40
0.333333
 41
0.333333
  0
VERTEX
  8
0
 10
469.096
 20
342.372
 30
0.0
 40
0.333333
 41
0.333333
  0
VERTEX
  8
0
 10
469.021
 20
342.249
 30
0.0
 40
0.333333
 41
0.333333
  0
VERTEX
  8
0
 10
468.935
 20
342.133
 30
0.0
 40
0.333333
 41
0.333333
  0
VERTEX
  8
0
 10
468.838
 20
342.026
 30
0.0
 40
0.333333
 41
0.333333
  0
VERTEX
  8
0
 10
468.731
 20
341.929
 30
0.0
 40
0.333333
 41
0.333333
  0
VERTEX
  8
0
 10
468.615
 20
341.843
 30
0.0
 40
0.333333
 41
0.333333
  0
VERTEX
  8
0
 10
468.492
 20
341.768
 30
0.0
 40
0.333333
 41
0.333333
  0
VERTEX
  8
0
 10
468.361
 20
341.706
 30
0.0
 40
0.333333
 41
0.333333
  0
VERTEX
  8
0
 10
468.224
 20
341.654
 30
0.0
 40
0.333333
 41
0.333333
  0
VERTEX
  8
0
 10
468.079
 20
341.618
 30
0.0
 40
0.333333
 41
0.333333
  0
VERTEX
  8
0
 10
467.931
 20
341.594
 30
0.0
 40
0.333333
 41
0.333333
  0
VERTEX
  8
0
 10
467.815
 20
341.588
 30
0.0
 40
0.333333
 41
0.333333
  0
VERTEX
  8
0
 10
467.778
 20
341.588
 30
0.0
 40
0.333333
 41
0.333333
  0
VERTEX
  8
0
 10
467.739
 20
341.588
 30
0.0
 40
0.333333
 41
0.333333
  0
VERTEX
  8
0
 10
467.624
 20
341.594
 30
0.0
 40
0.333333
 41
0.333333
  0
VERTEX
  8
0
 10
467.475
 20
341.618
 30
0.0
 40
0.333333
 41
0.333333
  0
VERTEX
  8
0
 10
467.331
 20
341.654
 30
0.0
 40
0.333333
 41
0.333333
  0
VERTEX
  8
0
 10
467.193
 20
341.706
 30
0.0
 40
0.333333
 41
0.333333
  0
VERTEX
  8
0
 10
467.063
 20
341.768
 30
0.0
 40
0.333333
 41
0.333333
  0
VERTEX
  8
0
 10
466.939
 20
341.843
 30
0.0
 40
0.333333
 41
0.333333
  0
VERTEX
  8
0
 10
466.824
 20
341.929
 30
0.0
 40
0.333333
 41
0.333333
  0
VERTEX
  8
0
 10
466.717
 20
342.026
 30
0.0
 40
0.333333
 41
0.333333
  0
VERTEX
  8
0
 10
466.619
 20
342.133
 30
0.0
 40
0.333333
 41
0.333333
  0
VERTEX
  8
0
 10
466.533
 20
342.249
 30
0.0
 40
0.333333
 41
0.333333
  0
VERTEX
  8
0
 10
466.458
 20
342.372
 30
0.0
 40
0.333333
 41
0.333333
  0
VERTEX
  8
0
 10
466.394
 20
342.503
 30
0.0
 40
0.333333
 41
0.333333
  0
VERTEX
  8
0
 10
466.344
 20
342.642
 30
0.0
 40
0.333333
 41
0.333333
  0
VERTEX
  8
0
 10
466.307
 20
342.785
 30
0.0
 40
0.333333
 41
0.333333
  0
VERTEX
  8
0
 10
466.285
 20
342.933
 30
0.0
 40
0.333333
 41
0.333333
  0
VERTEX
  8
0
 10
466.278
 20
343.049
 30
0.0
 40
0.333333
 41
0.333333
  0
VERTEX
  8
0
 10
466.278
 20
343.088
 30
0.0
 40
0.333333
 41
0.333333
  0
VERTEX
  8
0
 10
466.278
 20
343.125
 30
0.0
 40
0.333333
 41
0.333333
  0
VERTEX
  8
0
 10
466.285
 20
343.24
 30
0.0
 40
0.333333
 41
0.333333
  0
VERTEX
  8
0
 10
466.307
 20
343.389
 30
0.0
 40
0.333333
 41
0.333333
  0
VERTEX
  8
0
 10
466.344
 20
343.533
 30
0.0
 40
0.333333
 41
0.333333
  0
VERTEX
  8
0
 10
466.394
 20
343.671
 30
0.0
 40
0.333333
 41
0.333333
  0
VERTEX
  8
0
 10
466.458
 20
343.803
 30
0.0
 40
0.333333
 41
0.333333
  0
VERTEX
  8
0
 10
466.533
 20
343.926
 30
0.0
 40
0.333333
 41
0.333333
  0
VERTEX
  8
0
 10
466.619
 20
344.042
 30
0.0
 40
0.333333
 41
0.333333
  0
VERTEX
  8
0
 10
466.717
 20
344.147
 30
0.0
 40
0.333333
 41
0.333333
  0
VERTEX
  8
0
 10
466.824
 20
344.244
 30
0.0
 40
0.333333
 41
0.333333
  0
VERTEX
  8
0
 10
466.939
 20
344.331
 30
0.0
 40
0.333333
 41
0.333333
  0
VERTEX
  8
0
 10
467.063
 20
344.406
 30
0.0
 40
0.333333
 41
0.333333
  0
VERTEX
  8
0
 10
467.193
 20
344.469
 30
0.0
 40
0.333333
 41
0.333333
  0
VERTEX
  8
0
 10
467.331
 20
344.519
 30
0.0
 40
0.333333
 41
0.333333
  0
VERTEX
  8
0
 10
467.475
 20
344.557
 30
0.0
 40
0.333333
 41
0.333333
  0
VERTEX
  8
0
 10
467.624
 20
344.579
 30
0.0
 40
0.333333
 41
0.333333
  0
VERTEX
  8
0
 10
467.739
 20
344.588
 30
0.0
 40
0.333333
 41
0.333333
  0
VERTEX
  8
0
 10
467.778
 20
344.588
 30
0.0
 40
0.333333
 41
0.333333
  0
VERTEX
  8
0
 10
467.815
 20
344.588
 30
0.0
 40
0.333333
 41
0.333333
  0
VERTEX
  8
0
 10
467.931
 20
344.579
 30
0.0
 40
0.333333
 41
0.333333
  0
VERTEX
  8
0
 10
468.079
 20
344.557
 30
0.0
 40
0.333333
 41
0.333333
  0
VERTEX
  8
0
 10
468.224
 20
344.519
 30
0.0
 40
0.333333
 41
0.333333
  0
VERTEX
  8
0
 10
468.361
 20
344.469
 30
0.0
 40
0.333333
 41
0.333333
  0
VERTEX
  8
0
 10
468.492
 20
344.406
 30
0.0
 40
0.333333
 41
0.333333
  0
VERTEX
  8
0
 10
468.615
 20
344.331
 30
0.0
 40
0.333333
 41
0.333333
  0
VERTEX
  8
0
 10
468.731
 20
344.244
 30
0.0
 40
0.333333
 41
0.333333
  0
VERTEX
  8
0
 10
468.838
 20
344.147
 30
0.0
 40
0.333333
 41
0.333333
  0
VERTEX
  8
0
 10
468.935
 20
344.042
 30
0.0
 40
0.333333
 41
0.333333
  0
VERTEX
  8
0
 10
469.021
 20
343.926
 30
0.0
 40
0.333333
 41
0.333333
  0
VERTEX
  8
0
 10
469.096
 20
343.803
 30
0.0
 40
0.333333
 41
0.333333
  0
VERTEX
  8
0
 10
469.16
 20
343.671
 30
0.0
 40
0.333333
 41
0.333333
  0
VERTEX
  8
0
 10
469.21
 20
343.533
 30
0.0
 40
0.333333
 41
0.333333
  0
VERTEX
  8
0
 10
469.247
 20
343.389
 30
0.0
 40
0.333333
 41
0.333333
  0
VERTEX
  8
0
 10
469.269
 20
343.24
 30
0.0
 40
0.333333
 41
0.333333
  0
VERTEX
  8
0
 10
469.278
 20
343.125
 30
0.0
 40
0.333333
 41
0.333333
  0
VERTEX
  8
0
 10
469.278
 20
343.088
 30
0.0
 40
0.333333
 41
0.333333
  0
SEQEND
 8
0
  0
POLYLINE
  8
0
 62
     0
 66
     1
 10
0
 20
0
 30
0.0
 70
     1
 40
24
 41
24
  0
VERTEX
  8
0
 10
193.851
 20
139.888
 30
0.0
 40
0.333333
 41
0.333333
  0
VERTEX
  8
0
 10
193.851
 20
139.806
 30
0.0
 40
0.333333
 41
0.333333
  0
VERTEX
  8
0
 10
193.835
 20
139.563
 30
0.0
 40
0.333333
 41
0.333333
  0
VERTEX
  8
0
 10
193.788
 20
139.247
 30
0.0
 40
0.333333
 41
0.333333
  0
VERTEX
  8
0
 10
193.708
 20
138.943
 30
0.0
 40
0.333333
 41
0.333333
  0
VERTEX
  8
0
 10
193.603
 20
138.651
 30
0.0
 40
0.333333
 41
0.333333
  0
VERTEX
  8
0
 10
193.468
 20
138.373
 30
0.0
 40
0.333333
 41
0.333333
  0
VERTEX
  8
0
 10
193.31
 20
138.112
 30
0.0
 40
0.333333
 41
0.333333
  0
VERTEX
  8
0
 10
193.126
 20
137.867
 30
0.0
 40
0.333333
 41
0.333333
  0
VERTEX
  8
0
 10
192.922
 20
137.642
 30
0.0
 40
0.333333
 41
0.333333
  0
VERTEX
  8
0
 10
192.696
 20
137.437
 30
0.0
 40
0.333333
 41
0.333333
  0
VERTEX
  8
0
 10
192.451
 20
137.254
 30
0.0
 40
0.333333
 41
0.333333
  0
VERTEX
  8
0
 10
192.19
 20
137.095
 30
0.0
 40
0.333333
 41
0.333333
  0
VERTEX
  8
0
 10
191.913
 20
136.961
 30
0.0
 40
0.333333
 41
0.333333
  0
VERTEX
  8
0
 10
191.621
 20
136.855
 30
0.0
 40
0.333333
 41
0.333333
  0
VERTEX
  8
0
 10
191.317
 20
136.776
 30
0.0
 40
0.333333
 41
0.333333
  0
VERTEX
  8
0
 10
191.001
 20
136.728
 30
0.0
 40
0.333333
 41
0.333333
  0
VERTEX
  8
0
 10
190.758
 20
136.712
 30
0.0
 40
0.333333
 41
0.333333
  0
VERTEX
  8
0
 10
190.676
 20
136.712
 30
0.0
 40
0.333333
 41
0.333333
  0
VERTEX
  8
0
 10
190.596
 20
136.712
 30
0.0
 40
0.333333
 41
0.333333
  0
VERTEX
  8
0
 10
190.351
 20
136.728
 30
0.0
 40
0.333333
 41
0.333333
  0
VERTEX
  8
0
 10
190.036
 20
136.776
 30
0.0
 40
0.333333
 41
0.333333
  0
VERTEX
  8
0
 10
189.732
 20
136.855
 30
0.0
 40
0.333333
 41
0.333333
  0
VERTEX
  8
0
 10
189.44
 20
136.961
 30
0.0
 40
0.333333
 41
0.333333
  0
VERTEX
  8
0
 10
189.164
 20
137.095
 30
0.0
 40
0.333333
 41
0.333333
  0
VERTEX
  8
0
 10
188.901
 20
137.254
 30
0.0
 40
0.333333
 41
0.333333
  0
VERTEX
  8
0
 10
188.657
 20
137.437
 30
0.0
 40
0.333333
 41
0.333333
  0
VERTEX
  8
0
 10
188.432
 20
137.642
 30
0.0
 40
0.333333
 41
0.333333
  0
VERTEX
  8
0
 10
188.226
 20
137.867
 30
0.0
 40
0.333333
 41
0.333333
  0
VERTEX
  8
0
 10
188.044
 20
138.112
 30
0.0
 40
0.333333
 41
0.333333
  0
VERTEX
  8
0
 10
187.885
 20
138.373
 30
0.0
 40
0.333333
 41
0.333333
  0
VERTEX
  8
0
 10
187.751
 20
138.651
 30
0.0
 40
0.333333
 41
0.333333
  0
VERTEX
  8
0
 10
187.644
 20
138.943
 30
0.0
 40
0.333333
 41
0.333333
  0
VERTEX
  8
0
 10
187.567
 20
139.247
 30
0.0
 40
0.333333
 41
0.333333
  0
VERTEX
  8
0
 10
187.518
 20
139.563
 30
0.0
 40
0.333333
 41
0.333333
  0
VERTEX
  8
0
 10
187.501
 20
139.806
 30
0.0
 40
0.333333
 41
0.333333
  0
VERTEX
  8
0
 10
187.501
 20
139.888
 30
0.0
 40
0.333333
 41
0.333333
  0
VERTEX
  8
0
 10
187.501
 20
139.968
 30
0.0
 40
0.333333
 41
0.333333
  0
VERTEX
  8
0
 10
187.518
 20
140.211
 30
0.0
 40
0.333333
 41
0.333333
  0
VERTEX
  8
0
 10
187.567
 20
140.526
 30
0.0
 40
0.333333
 41
0.333333
  0
VERTEX
  8
0
 10
187.644
 20
140.831
 30
0.0
 40
0.333333
 41
0.333333
  0
VERTEX
  8
0
 10
187.751
 20
141.122
 30
0.0
 40
0.333333
 41
0.333333
  0
VERTEX
  8
0
 10
187.885
 20
141.4
 30
0.0
 40
0.333333
 41
0.333333
  0
VERTEX
  8
0
 10
188.044
 20
141.663
 30
0.0
 40
0.333333
 41
0.333333
  0
VERTEX
  8
0
 10
188.226
 20
141.907
 30
0.0
 40
0.333333
 41
0.333333
  0
VERTEX
  8
0
 10
188.432
 20
142.132
 30
0.0
 40
0.333333
 41
0.333333
  0
VERTEX
  8
0
 10
188.657
 20
142.337
 30
0.0
 40
0.333333
 41
0.333333
  0
VERTEX
  8
0
 10
188.901
 20
142.519
 30
0.0
 40
0.333333
 41
0.333333
  0
VERTEX
  8
0
 10
189.164
 20
142.679
 30
0.0
 40
0.333333
 41
0.333333
  0
VERTEX
  8
0
 10
189.44
 20
142.813
 30
0.0
 40
0.333333
 41
0.333333
  0
VERTEX
  8
0
 10
189.732
 20
142.919
 30
0.0
 40
0.333333
 41
0.333333
  0
VERTEX
  8
0
 10
190.036
 20
142.997
 30
0.0
 40
0.333333
 41
0.333333
  0
VERTEX
  8
0
 10
190.351
 20
143.046
 30
0.0
 40
0.333333
 41
0.333333
  0
VERTEX
  8
0
 10
190.596
 20
143.063
 30
0.0
 40
0.333333
 41
0.333333
  0
VERTEX
  8
0
 10
190.676
 20
143.063
 30
0.0
 40
0.333333
 41
0.333333
  0
VERTEX
  8
0
 10
190.758
 20
143.063
 30
0.0
 40
0.333333
 41
0.333333
  0
VERTEX
  8
0
 10
191.001
 20
143.046
 30
0.0
 40
0.333333
 41
0.333333
  0
VERTEX
  8
0
 10
191.317
 20
142.997
 30
0.0
 40
0.333333
 41
0.333333
  0
VERTEX
  8
0
 10
191.621
 20
142.919
 30
0.0
 40
0.333333
 41
0.333333
  0
VERTEX
  8
0
 10
191.913
 20
142.813
 30
0.0
 40
0.333333
 41
0.333333
  0
VERTEX
  8
0
 10
192.19
 20
142.679
 30
0.0
 40
0.333333
 41
0.333333
  0
VERTEX
  8
0
 10
192.451
 20
142.519
 30
0.0
 40
0.333333
 41
0.333333
  0
VERTEX
  8
0
 10
192.696
 20
142.337
 30
0.0
 40
0.333333
 41
0.333333
  0
VERTEX
  8
0
 10
192.922
 20
142.132
 30
0.0
 40
0.333333
 41
0.333333
  0
VERTEX
  8
0
 10
193.126
 20
141.907
 30
0.0
 40
0.333333
 41
0.333333
  0
VERTEX
  8
0
 10
193.31
 20
141.663
 30
0.0
 40
0.333333
 41
0.333333
  0
VERTEX
  8
0
 10
193.468
 20
141.4
 30
0.0
 40
0.333333
 41
0.333333
  0
VERTEX
  8
0
 10
193.603
 20
141.122
 30
0.0
 40
0.333333
 41
0.333333
  0
VERTEX
  8
0
 10
193.708
 20
140.831
 30
0.0
 40
0.333333
 41
0.333333
  0
VERTEX
  8
0
 10
193.788
 20
140.526
 30
0.0
 40
0.333333
 41
0.333333
  0
VERTEX
  8
0
 10
193.835
 20
140.211
 30
0.0
 40
0.333333
 41
0.333333
  0
VERTEX
  8
0
 10
193.851
 20
139.968
 30
0.0
 40
0.333333
 41
0.333333
  0
VERTEX
  8
0
 10
193.851
 20
139.888
 30
0.0
 40
0.333333
 41
0.333333
  0
SEQEND
 8
0
  0
POLYLINE
  8
0
 62
     0
 66
     1
 10
0
 20
0
 30
0.0
 70
     1
 40
24
 41
24
  0
VERTEX
  8
0
 10
453.526
 20
165.288
 30
0.0
 40
0.333333
 41
0.333333
  0
VERTEX
  8
0
 10
453.526
 20
165.249
 30
0.0
 40
0.333333
 41
0.333333
  0
VERTEX
  8
0
 10
453.519
 20
165.133
 30
0.0
 40
0.333333
 41
0.333333
  0
VERTEX
  8
0
 10
453.497
 20
164.985
 30
0.0
 40
0.333333
 41
0.333333
  0
VERTEX
  8
0
 10
453.46
 20
164.84
 30
0.0
 40
0.333333
 41
0.333333
  0
VERTEX
  8
0
 10
453.41
 20
164.703
 30
0.0
 40
0.333333
 41
0.333333
  0
VERTEX
  8
0
 10
453.346
 20
164.572
 30
0.0
 40
0.333333
 41
0.333333
  0
VERTEX
  8
0
 10
453.271
 20
164.449
 30
0.0
 40
0.333333
 41
0.333333
  0
VERTEX
  8
0
 10
453.185
 20
164.333
 30
0.0
 40
0.333333
 41
0.333333
  0
VERTEX
  8
0
 10
453.088
 20
164.226
 30
0.0
 40
0.333333
 41
0.333333
  0
VERTEX
  8
0
 10
452.981
 20
164.129
 30
0.0
 40
0.333333
 41
0.333333
  0
VERTEX
  8
0
 10
452.865
 20
164.043
 30
0.0
 40
0.333333
 41
0.333333
  0
VERTEX
  8
0
 10
452.742
 20
163.968
 30
0.0
 40
0.333333
 41
0.333333
  0
VERTEX
  8
0
 10
452.611
 20
163.904
 30
0.0
 40
0.333333
 41
0.333333
  0
VERTEX
  8
0
 10
452.474
 20
163.854
 30
0.0
 40
0.333333
 41
0.333333
  0
VERTEX
  8
0
 10
452.329
 20
163.818
 30
0.0
 40
0.333333
 41
0.333333
  0
VERTEX
  8
0
 10
452.181
 20
163.794
 30
0.0
 40
0.333333
 41
0.333333
  0
VERTEX
  8
0
 10
452.065
 20
163.788
 30
0.0
 40
0.333333
 41
0.333333
  0
VERTEX
  8
0
 10
452.026
 20
163.788
 30
0.0
 40
0.333333
 41
0.333333
  0
VERTEX
  8
0
 10
451.989
 20
163.788
 30
0.0
 40
0.333333
 41
0.333333
  0
VERTEX
  8
0
 10
451.874
 20
163.794
 30
0.0
 40
0.333333
 41
0.333333
  0
VERTEX
  8
0
 10
451.725
 20
163.818
 30
0.0
 40
0.333333
 41
0.333333
  0
VERTEX
  8
0
 10
451.581
 20
163.854
 30
0.0
 40
0.333333
 41
0.333333
  0
VERTEX
  8
0
 10
451.443
 20
163.904
 30
0.0
 40
0.333333
 41
0.333333
  0
VERTEX
  8
0
 10
451.313
 20
163.968
 30
0.0
 40
0.333333
 41
0.333333
  0
VERTEX
  8
0
 10
451.189
 20
164.043
 30
0.0
 40
0.333333
 41
0.333333
  0
VERTEX
  8
0
 10
451.074
 20
164.129
 30
0.0
 40
0.333333
 41
0.333333
  0
VERTEX
  8
0
 10
450.967
 20
164.226
 30
0.0
 40
0.333333
 41
0.333333
  0
VERTEX
  8
0
 10
450.869
 20
164.333
 30
0.0
 40
0.333333
 41
0.333333
  0
VERTEX
  8
0
 10
450.783
 20
164.449
 30
0.0
 40
0.333333
 41
0.333333
  0
VERTEX
  8
0
 10
450.708
 20
164.572
 30
0.0
 40
0.333333
 41
0.333333
  0
VERTEX
  8
0
 10
450.644
 20
164.703
 30
0.0
 40
0.333333
 41
0.333333
  0
VERTEX
  8
0
 10
450.594
 20
164.84
 30
0.0
 40
0.333333
 41
0.333333
  0
VERTEX
  8
0
 10
450.557
 20
164.985
 30
0.0
 40
0.333333
 41
0.333333
  0
VERTEX
  8
0
 10
450.535
 20
165.133
 30
0.0
 40
0.333333
 41
0.333333
  0
VERTEX
  8
0
 10
450.526
 20
165.249
 30
0.0
 40
0.333333
 41
0.333333
  0
VERTEX
  8
0
 10
450.526
 20
165.288
 30
0.0
 40
0.333333
 41
0.333333
  0
VERTEX
  8
0
 10
450.526
 20
165.325
 30
0.0
 40
0.333333
 41
0.333333
  0
VERTEX
  8
0
 10
450.535
 20
165.44
 30
0.0
 40
0.333333
 41
0.333333
  0
VERTEX
  8
0
 10
450.557
 20
165.589
 30
0.0
 40
0.333333
 41
0.333333
  0
VERTEX
  8
0
 10
450.594
 20
165.733
 30
0.0
 40
0.333333
 41
0.333333
  0
VERTEX
  8
0
 10
450.644
 20
165.871
 30
0.0
 40
0.333333
 41
0.333333
  0
VERTEX
  8
0
 10
450.708
 20
166.001
 30
0.0
 40
0.333333
 41
0.333333
  0
VERTEX
  8
0
 10
450.783
 20
166.125
 30
0.0
 40
0.333333
 41
0.333333
  0
VERTEX
  8
0
 10
450.869
 20
166.242
 30
0.0
 40
0.333333
 41
0.333333
  0
VERTEX
  8
0
 10
450.967
 20
166.347
 30
0.0
 40
0.333333
 41
0.333333
  0
VERTEX
  8
0
 10
451.074
 20
166.444
 30
0.0
 40
0.333333
 41
0.333333
  0
VERTEX
  8
0
 10
451.189
 20
166.531
 30
0.0
 40
0.333333
 41
0.333333
  0
VERTEX
  8
0
 10
451.313
 20
166.606
 30
0.0
 40
0.333333
 41
0.333333
  0
VERTEX
  8
0
 10
451.443
 20
166.669
 30
0.0
 40
0.333333
 41
0.333333
  0
VERTEX
  8
0
 10
451.581
 20
166.719
 30
0.0
 40
0.333333
 41
0.333333
  0
VERTEX
  8
0
 10
451.725
 20
166.757
 30
0.0
 40
0.333333
 41
0.333333
  0
VERTEX
  8
0
 10
451.874
 20
166.779
 30
0.0
 40
0.333333
 41
0.333333
  0
VERTEX
  8
0
 10
451.989
 20
166.788
 30
0.0
 40
0.333333
 41
0.333333
  0
VERTEX
  8
0
 10
452.026
 20
166.788
 30
0.0
 40
0.333333
 41
0.333333
  0
VERTEX
  8
0
 10
452.065
 20
166.788
 30
0.0
 40
0.333333
 41
0.333333
  0
VERTEX
  8
0
 10
452.181
 20
166.779
 30
0.0
 40
0.333333
 41
0.333333
  0
VERTEX
  8
0
 10
452.329
 20
166.757
 30
0.0
 40
0.333333
 41
0.333333
  0
VERTEX
  8
0
 10
452.474
 20
166.719
 30
0.0
 40
0.333333
 41
0.333333
  0
VERTEX
  8
0
 10
452.611
 20
166.669
 30
0.0
 40
0.333333
 41
0.333333
  0
VERTEX
  8
0
 10
452.742
 20
166.606
 30
0.0
 40
0.333333
 41
0.333333
  0
VERTEX
  8
0
 10
452.865
 20
166.531
 30
0.0
 40
0.333333
 41
0.333333
  0
VERTEX
  8
0
 10
452.981
 20
166.444
 30
0.0
 40
0.333333
 41
0.333333
  0
VERTEX
  8
0
 10
453.088
 20
166.347
 30
0.0
 40
0.333333
 41
0.333333
  0
VERTEX
  8
0
 10
453.185
 20
166.242
 30
0.0
 40
0.333333
 41
0.333333
  0
VERTEX
  8
0
 10
453.271
 20
166.125
 30
0.0
 40
0.333333
 41
0.333333
  0
VERTEX
  8
0
 10
453.346
 20
166.001
 30
0.0
 40
0.333333
 41
0.333333
  0
VERTEX
  8
0
 10
453.41
 20
165.871
 30
0.0
 40
0.333333
 41
0.333333
  0
VERTEX
  8
0
 10
453.46
 20
165.733
 30
0.0
 40
0.333333
 41
0.333333
  0
VERTEX
  8
0
 10
453.497
 20
165.589
 30
0.0
 40
0.333333
 41
0.333333
  0
VERTEX
  8
0
 10
453.519
 20
165.44
 30
0.0
 40
0.333333
 41
0.333333
  0
VERTEX
  8
0
 10
453.526
 20
165.325
 30
0.0
 40
0.333333
 41
0.333333
  0
VERTEX
  8
0
 10
453.526
 20
165.288
 30
0.0
 40
0.333333
 41
0.333333
  0
SEQEND
 8
0
  0
POLYLINE
  8
0
 62
     0
 66
     1
 10
0
 20
0
 30
0.0
 70
     1
 40
24
 41
24
  0
VERTEX
  8
0
 10
453.526
 20
12.8867
 30
0.0
 40
0.333333
 41
0.333333
  0
VERTEX
  8
0
 10
453.526
 20
12.8484
 30
0.0
 40
0.333333
 41
0.333333
  0
VERTEX
  8
0
 10
453.519
 20
12.7333
 30
0.0
 40
0.333333
 41
0.333333
  0
VERTEX
  8
0
 10
453.497
 20
12.5844
 30
0.0
 40
0.333333
 41
0.333333
  0
VERTEX
  8
0
 10
453.46
 20
12.4407
 30
0.0
 40
0.333333
 41
0.333333
  0
VERTEX
  8
0
 10
453.41
 20
12.3028
 30
0.0
 40
0.333333
 41
0.333333
  0
VERTEX
  8
0
 10
453.346
 20
12.1717
 30
0.0
 40
0.333333
 41
0.333333
  0
VERTEX
  8
0
 10
453.271
 20
12.048
 30
0.0
 40
0.333333
 41
0.333333
  0
VERTEX
  8
0
 10
453.185
 20
11.9326
 30
0.0
 40
0.333333
 41
0.333333
  0
VERTEX
  8
0
 10
453.088
 20
11.826
 30
0.0
 40
0.333333
 41
0.333333
  0
VERTEX
  8
0
 10
452.981
 20
11.7292
 30
0.0
 40
0.333333
 41
0.333333
  0
VERTEX
  8
0
 10
452.865
 20
11.6428
 30
0.0
 40
0.333333
 41
0.333333
  0
VERTEX
  8
0
 10
452.742
 20
11.5677
 30
0.0
 40
0.333333
 41
0.333333
  0
VERTEX
  8
0
 10
452.611
 20
11.5046
 30
0.0
 40
0.333333
 41
0.333333
  0
VERTEX
  8
0
 10
452.474
 20
11.4541
 30
0.0
 40
0.333333
 41
0.333333
  0
VERTEX
  8
0
 10
452.329
 20
11.4172
 30
0.0
 40
0.333333
 41
0.333333
  0
VERTEX
  8
0
 10
452.181
 20
11.3944
 30
0.0
 40
0.333333
 41
0.333333
  0
VERTEX
  8
0
 10
452.065
 20
11.3867
 30
0.0
 40
0.333333
 41
0.333333
  0
VERTEX
  8
0
 10
452.026
 20
11.3867
 30
0.0
 40
0.333333
 41
0.333333
  0
VERTEX
  8
0
 10
451.989
 20
11.3867
 30
0.0
 40
0.333333
 41
0.333333
  0
VERTEX
  8
0
 10
451.874
 20
11.3944
 30
0.0
 40
0.333333
 41
0.333333
  0
VERTEX
  8
0
 10
451.725
 20
11.4172
 30
0.0
 40
0.333333
 41
0.333333
  0
VERTEX
  8
0
 10
451.581
 20
11.4541
 30
0.0
 40
0.333333
 41
0.333333
  0
VERTEX
  8
0
 10
451.443
 20
11.5046
 30
0.0
 40
0.333333
 41
0.333333
  0
VERTEX
  8
0
 10
451.313
 20
11.5677
 30
0.0
 40
0.333333
 41
0.333333
  0
VERTEX
  8
0
 10
451.189
 20
11.6428
 30
0.0
 40
0.333333
 41
0.333333
  0
VERTEX
  8
0
 10
451.074
 20
11.7292
 30
0.0
 40
0.333333
 41
0.333333
  0
VERTEX
  8
0
 10
450.967
 20
11.826
 30
0.0
 40
0.333333
 41
0.333333
  0
VERTEX
  8
0
 10
450.869
 20
11.9326
 30
0.0
 40
0.333333
 41
0.333333
  0
VERTEX
  8
0
 10
450.783
 20
12.048
 30
0.0
 40
0.333333
 41
0.333333
  0
VERTEX
  8
0
 10
450.708
 20
12.1717
 30
0.0
 40
0.333333
 41
0.333333
  0
VERTEX
  8
0
 10
450.644
 20
12.3028
 30
0.0
 40
0.333333
 41
0.333333
  0
VERTEX
  8
0
 10
450.594
 20
12.4407
 30
0.0
 40
0.333333
 41
0.333333
  0
VERTEX
  8
0
 10
450.557
 20
12.5844
 30
0.0
 40
0.333333
 41
0.333333
  0
VERTEX
  8
0
 10
450.535
 20
12.7333
 30
0.0
 40
0.333333
 41
0.333333
  0
VERTEX
  8
0
 10
450.526
 20
12.8484
 30
0.0
 40
0.333333
 41
0.333333
  0
VERTEX
  8
0
 10
450.526
 20
12.8867
 30
0.0
 40
0.333333
 41
0.333333
  0
VERTEX
  8
0
 10
450.526
 20
12.925
 30
0.0
 40
0.333333
 41
0.333333
  0
VERTEX
  8
0
 10
450.535
 20
13.04
 30
0.0
 40
0.333333
 41
0.333333
  0
VERTEX
  8
0
 10
450.557
 20
13.189
 30
0.0
 40
0.333333
 41
0.333333
  0
VERTEX
  8
0
 10
450.594
 20
13.3327
 30
0.0
 40
0.333333
 41
0.333333
  0
VERTEX
  8
0
 10
450.644
 20
13.4706
 30
0.0
 40
0.333333
 41
0.333333
  0
VERTEX
  8
0
 10
450.708
 20
13.6017
 30
0.0
 40
0.333333
 41
0.333333
  0
VERTEX
  8
0
 10
450.783
 20
13.7254
 30
0.0
 40
0.333333
 41
0.333333
  0
VERTEX
  8
0
 10
450.869
 20
13.8408
 30
0.0
 40
0.333333
 41
0.333333
  0
VERTEX
  8
0
 10
450.967
 20
13.9474
 30
0.0
 40
0.333333
 41
0.333333
  0
VERTEX
  8
0
 10
451.074
 20
14.0442
 30
0.0
 40
0.333333
 41
0.333333
  0
VERTEX
  8
0
 10
451.189
 20
14.1306
 30
0.0
 40
0.333333
 41
0.333333
  0
VERTEX
  8
0
 10
451.313
 20
14.2057
 30
0.0
 40
0.333333
 41
0.333333
  0
VERTEX
  8
0
 10
451.443
 20
14.2689
 30
0.0
 40
0.333333
 41
0.333333
  0
VERTEX
  8
0
 10
451.581
 20
14.3193
 30
0.0
 40
0.333333
 41
0.333333
  0
VERTEX
  8
0
 10
451.725
 20
14.3563
 30
0.0
 40
0.333333
 41
0.333333
  0
VERTEX
  8
0
 10
451.874
 20
14.379
 30
0.0
 40
0.333333
 41
0.333333
  0
VERTEX
  8
0
 10
451.989
 20
14.3867
 30
0.0
 40
0.333333
 41
0.333333
  0
VERTEX
  8
0
 10
452.026
 20
14.3867
 30
0.0
 40
0.333333
 41
0.333333
  0
VERTEX
  8
0
 10
452.065
 20
14.3867
 30
0.0
 40
0.333333
 41
0.333333
  0
VERTEX
  8
0
 10
452.181
 20
14.379
 30
0.0
 40
0.333333
 41
0.333333
  0
VERTEX
  8
0
 10
452.329
 20
14.3563
 30
0.0
 40
0.333333
 41
0.333333
  0
VERTEX
  8
0
 10
452.474
 20
14.3193
 30
0.0
 40
0.333333
 41
0.333333
  0
VERTEX
  8
0
 10
452.611
 20
14.2689
 30
0.0
 40
0.333333
 41
0.333333
  0
VERTEX
  8
0
 10
452.742
 20
14.2057
 30
0.0
 40
0.333333
 41
0.333333
  0
VERTEX
  8
0
 10
452.865
 20
14.1306
 30
0.0
 40
0.333333
 41
0.333333
  0
VERTEX
  8
0
 10
452.981
 20
14.0442
 30
0.0
 40
0.333333
 41
0.333333
  0
VERTEX
  8
0
 10
453.088
 20
13.9474
 30
0.0
 40
0.333333
 41
0.333333
  0
VERTEX
  8
0
 10
453.185
 20
13.8408
 30
0.0
 40
0.333333
 41
0.333333
  0
VERTEX
  8
0
 10
453.271
 20
13.7254
 30
0.0
 40
0.333333
 41
0.333333
  0
VERTEX
  8
0
 10
453.346
 20
13.6017
 30
0.0
 40
0.333333
 41
0.333333
  0
VERTEX
  8
0
 10
453.41
 20
13.4706
 30
0.0
 40
0.333333
 41
0.333333
  0
VERTEX
  8
0
 10
453.46
 20
13.3327
 30
0.0
 40
0.333333
 41
0.333333
  0
VERTEX
  8
0
 10
453.497
 20
13.189
 30
0.0
 40
0.333333
 41
0.333333
  0
VERTEX
  8
0
 10
453.519
 20
13.04
 30
0.0
 40
0.333333
 41
0.333333
  0
VERTEX
  8
0
 10
453.526
 20
12.925
 30
0.0
 40
0.333333
 41
0.333333
  0
VERTEX
  8
0
 10
453.526
 20
12.8867
 30
0.0
 40
0.333333
 41
0.333333
  0
SEQEND
 8
0
  0
POLYLINE
  8
0
 62
     0
 66
     1
 10
0
 20
0
 30
0.0
 70
     1
 40
24
 41
24
  0
VERTEX
  8
0
 10
469.278
 20
12.8867
 30
0.0
 40
0.333333
 41
0.333333
  0
VERTEX
  8
0
 10
469.278
 20
12.8484
 30
0.0
 40
0.333333
 41
0.333333
  0
VERTEX
  8
0
 10
469.269
 20
12.7333
 30
0.0
 40
0.333333
 41
0.333333
  0
VERTEX
  8
0
 10
469.247
 20
12.5844
 30
0.0
 40
0.333333
 41
0.333333
  0
VERTEX
  8
0
 10
469.21
 20
12.4407
 30
0.0
 40
0.333333
 41
0.333333
  0
VERTEX
  8
0
 10
469.16
 20
12.3028
 30
0.0
 40
0.333333
 41
0.333333
  0
VERTEX
  8
0
 10
469.096
 20
12.1717
 30
0.0
 40
0.333333
 41
0.333333
  0
VERTEX
  8
0
 10
469.021
 20
12.048
 30
0.0
 40
0.333333
 41
0.333333
  0
VERTEX
  8
0
 10
468.935
 20
11.9326
 30
0.0
 40
0.333333
 41
0.333333
  0
VERTEX
  8
0
 10
468.838
 20
11.826
 30
0.0
 40
0.333333
 41
0.333333
  0
VERTEX
  8
0
 10
468.731
 20
11.7292
 30
0.0
 40
0.333333
 41
0.333333
  0
VERTEX
  8
0
 10
468.615
 20
11.6428
 30
0.0
 40
0.333333
 41
0.333333
  0
VERTEX
  8
0
 10
468.492
 20
11.5677
 30
0.0
 40
0.333333
 41
0.333333
  0
VERTEX
  8
0
 10
468.361
 20
11.5046
 30
0.0
 40
0.333333
 41
0.333333
  0
VERTEX
  8
0
 10
468.224
 20
11.4541
 30
0.0
 40
0.333333
 41
0.333333
  0
VERTEX
  8
0
 10
468.079
 20
11.4172
 30
0.0
 40
0.333333
 41
0.333333
  0
VERTEX
  8
0
 10
467.931
 20
11.3944
 30
0.0
 40
0.333333
 41
0.333333
  0
VERTEX
  8
0
 10
467.815
 20
11.3867
 30
0.0
 40
0.333333
 41
0.333333
  0
VERTEX
  8
0
 10
467.778
 20
11.3867
 30
0.0
 40
0.333333
 41
0.333333
  0
VERTEX
  8
0
 10
467.739
 20
11.3867
 30
0.0
 40
0.333333
 41
0.333333
  0
VERTEX
  8
0
 10
467.624
 20
11.3944
 30
0.0
 40
0.333333
 41
0.333333
  0
VERTEX
  8
0
 10
467.475
 20
11.4172
 30
0.0
 40
0.333333
 41
0.333333
  0
VERTEX
  8
0
 10
467.331
 20
11.4541
 30
0.0
 40
0.333333
 41
0.333333
  0
VERTEX
  8
0
 10
467.193
 20
11.5046
 30
0.0
 40
0.333333
 41
0.333333
  0
VERTEX
  8
0
 10
467.063
 20
11.5677
 30
0.0
 40
0.333333
 41
0.333333
  0
VERTEX
  8
0
 10
466.939
 20
11.6428
 30
0.0
 40
0.333333
 41
0.333333
  0
VERTEX
  8
0
 10
466.824
 20
11.7292
 30
0.0
 40
0.333333
 41
0.333333
  0
VERTEX
  8
0
 10
466.717
 20
11.826
 30
0.0
 40
0.333333
 41
0.333333
  0
VERTEX
  8
0
 10
466.619
 20
11.9326
 30
0.0
 40
0.333333
 41
0.333333
  0
VERTEX
  8
0
 10
466.533
 20
12.048
 30
0.0
 40
0.333333
 41
0.333333
  0
VERTEX
  8
0
 10
466.458
 20
12.1717
 30
0.0
 40
0.333333
 41
0.333333
  0
VERTEX
  8
0
 10
466.394
 20
12.3028
 30
0.0
 40
0.333333
 41
0.333333
  0
VERTEX
  8
0
 10
466.344
 20
12.4407
 30
0.0
 40
0.333333
 41
0.333333
  0
VERTEX
  8
0
 10
466.307
 20
12.5844
 30
0.0
 40
0.333333
 41
0.333333
  0
VERTEX
  8
0
 10
466.285
 20
12.7333
 30
0.0
 40
0.333333
 41
0.333333
  0
VERTEX
  8
0
 10
466.278
 20
12.8484
 30
0.0
 40
0.333333
 41
0.333333
  0
VERTEX
  8
0
 10
466.278
 20
12.8867
 30
0.0
 40
0.333333
 41
0.333333
  0
VERTEX
  8
0
 10
466.278
 20
12.925
 30
0.0
 40
0.333333
 41
0.333333
  0
VERTEX
  8
0
 10
466.285
 20
13.04
 30
0.0
 40
0.333333
 41
0.333333
  0
VERTEX
  8
0
 10
466.307
 20
13.189
 30
0.0
 40
0.333333
 41
0.333333
  0
VERTEX
  8
0
 10
466.344
 20
13.3327
 30
0.0
 40
0.333333
 41
0.333333
  0
VERTEX
  8
0
 10
466.394
 20
13.4706
 30
0.0
 40
0.333333
 41
0.333333
  0
VERTEX
  8
0
 10
466.458
 20
13.6017
 30
0.0
 40
0.333333
 41
0.333333
  0
VERTEX
  8
0
 10
466.533
 20
13.7254
 30
0.0
 40
0.333333
 41
0.333333
  0
VERTEX
  8
0
 10
466.619
 20
13.8408
 30
0.0
 40
0.333333
 41
0.333333
  0
VERTEX
  8
0
 10
466.717
 20
13.9474
 30
0.0
 40
0.333333
 41
0.333333
  0
VERTEX
  8
0
 10
466.824
 20
14.0442
 30
0.0
 40
0.333333
 41
0.333333
  0
VERTEX
  8
0
 10
466.939
 20
14.1306
 30
0.0
 40
0.333333
 41
0.333333
  0
VERTEX
  8
0
 10
467.063
 20
14.2057
 30
0.0
 40
0.333333
 41
0.333333
  0
VERTEX
  8
0
 10
467.193
 20
14.2689
 30
0.0
 40
0.333333
 41
0.333333
  0
VERTEX
  8
0
 10
467.331
 20
14.3193
 30
0.0
 40
0.333333
 41
0.333333
  0
VERTEX
  8
0
 10
467.475
 20
14.3563
 30
0.0
 40
0.333333
 41
0.333333
  0
VERTEX
  8
0
 10
467.624
 20
14.379
 30
0.0
 40
0.333333
 41
0.333333
  0
VERTEX
  8
0
 10
467.739
 20
14.3867
 30
0.0
 40
0.333333
 41
0.333333
  0
VERTEX
  8
0
 10
467.778
 20
14.3867
 30
0.0
 40
0.333333
 41
0.333333
  0
VERTEX
  8
0
 10
467.815
 20
14.3867
 30
0.0
 40
0.333333
 41
0.333333
  0
VERTEX
  8
0
 10
467.931
 20
14.379
 30
0.0
 40
0.333333
 41
0.333333
  0
VERTEX
  8
0
 10
468.079
 20
14.3563
 30
0.0
 40
0.333333
 41
0.333333
  0
VERTEX
  8
0
 10
468.224
 20
14.3193
 30
0.0
 40
0.333333
 41
0.333333
  0
VERTEX
  8
0
 10
468.361
 20
14.2689
 30
0.0
 40
0.333333
 41
0.333333
  0
VERTEX
  8
0
 10
468.492
 20
14.2057
 30
0.0
 40
0.333333
 41
0.333333
  0
VERTEX
  8
0
 10
468.615
 20
14.1306
 30
0.0
 40
0.333333
 41
0.333333
  0
VERTEX
  8
0
 10
468.731
 20
14.0442
 30
0.0
 40
0.333333
 41
0.333333
  0
VERTEX
  8
0
 10
468.838
 20
13.9474
 30
0.0
 40
0.333333
 41
0.333333
  0
VERTEX
  8
0
 10
468.935
 20
13.8408
 30
0.0
 40
0.333333
 41
0.333333
  0
VERTEX
  8
0
 10
469.021
 20
13.7254
 30
0.0
 40
0.333333
 41
0.333333
  0
VERTEX
  8
0
 10
469.096
 20
13.6017
 30
0.0
 40
0.333333
 41
0.333333
  0
VERTEX
  8
0
 10
469.16
 20
13.4706
 30
0.0
 40
0.333333
 41
0.333333
  0
VERTEX
  8
0
 10
469.21
 20
13.3327
 30
0.0
 40
0.333333
 41
0.333333
  0
VERTEX
  8
0
 10
469.247
 20
13.189
 30
0.0
 40
0.333333
 41
0.333333
  0
VERTEX
  8
0
 10
469.269
 20
13.04
 30
0.0
 40
0.333333
 41
0.333333
  0
VERTEX
  8
0
 10
469.278
 20
12.925
 30
0.0
 40
0.333333
 41
0.333333
  0
VERTEX
  8
0
 10
469.278
 20
12.8867
 30
0.0
 40
0.333333
 41
0.333333
  0
SEQEND
 8
0
  0
POLYLINE
  8
0
 62
     0
 66
     1
 10
0
 20
0
 30
0.0
 70
     1
 40
24
 41
24
  0
VERTEX
  8
0
 10
469.278
 20
165.288
 30
0.0
 40
0.333333
 41
0.333333
  0
VERTEX
  8
0
 10
469.278
 20
165.249
 30
0.0
 40
0.333333
 41
0.333333
  0
VERTEX
  8
0
 10
469.269
 20
165.133
 30
0.0
 40
0.333333
 41
0.333333
  0
VERTEX
  8
0
 10
469.247
 20
164.985
 30
0.0
 40
0.333333
 41
0.333333
  0
VERTEX
  8
0
 10
469.21
 20
164.84
 30
0.0
 40
0.333333
 41
0.333333
  0
VERTEX
  8
0
 10
469.16
 20
164.703
 30
0.0
 40
0.333333
 41
0.333333
  0
VERTEX
  8
0
 10
469.096
 20
164.572
 30
0.0
 40
0.333333
 41
0.333333
  0
VERTEX
  8
0
 10
469.021
 20
164.449
 30
0.0
 40
0.333333
 41
0.333333
  0
VERTEX
  8
0
 10
468.935
 20
164.333
 30
0.0
 40
0.333333
 41
0.333333
  0
VERTEX
  8
0
 10
468.838
 20
164.226
 30
0.0
 40
0.333333
 41
0.333333
  0
VERTEX
  8
0
 10
468.731
 20
164.129
 30
0.0
 40
0.333333
 41
0.333333
  0
VERTEX
  8
0
 10
468.615
 20
164.043
 30
0.0
 40
0.333333
 41
0.333333
  0
VERTEX
  8
0
 10
468.492
 20
163.968
 30
0.0
 40
0.333333
 41
0.333333
  0
VERTEX
  8
0
 10
468.361
 20
163.904
 30
0.0
 40
0.333333
 41
0.333333
  0
VERTEX
  8
0
 10
468.224
 20
163.854
 30
0.0
 40
0.333333
 41
0.333333
  0
VERTEX
  8
0
 10
468.079
 20
163.818
 30
0.0
 40
0.333333
 41
0.333333
  0
VERTEX
  8
0
 10
467.931
 20
163.794
 30
0.0
 40
0.333333
 41
0.333333
  0
VERTEX
  8
0
 10
467.815
 20
163.788
 30
0.0
 40
0.333333
 41
0.333333
  0
VERTEX
  8
0
 10
467.778
 20
163.788
 30
0.0
 40
0.333333
 41
0.333333
  0
VERTEX
  8
0
 10
467.739
 20
163.788
 30
0.0
 40
0.333333
 41
0.333333
  0
VERTEX
  8
0
 10
467.624
 20
163.794
 30
0.0
 40
0.333333
 41
0.333333
  0
VERTEX
  8
0
 10
467.475
 20
163.818
 30
0.0
 40
0.333333
 41
0.333333
  0
VERTEX
  8
0
 10
467.331
 20
163.854
 30
0.0
 40
0.333333
 41
0.333333
  0
VERTEX
  8
0
 10
467.193
 20
163.904
 30
0.0
 40
0.333333
 41
0.333333
  0
VERTEX
  8
0
 10
467.063
 20
163.968
 30
0.0
 40
0.333333
 41
0.333333
  0
VERTEX
  8
0
 10
466.939
 20
164.043
 30
0.0
 40
0.333333
 41
0.333333
  0
VERTEX
  8
0
 10
466.824
 20
164.129
 30
0.0
 40
0.333333
 41
0.333333
  0
VERTEX
  8
0
 10
466.717
 20
164.226
 30
0.0
 40
0.333333
 41
0.333333
  0
VERTEX
  8
0
 10
466.619
 20
164.333
 30
0.0
 40
0.333333
 41
0.333333
  0
VERTEX
  8
0
 10
466.533
 20
164.449
 30
0.0
 40
0.333333
 41
0.333333
  0
VERTEX
  8
0
 10
466.458
 20
164.572
 30
0.0
 40
0.333333
 41
0.333333
  0
VERTEX
  8
0
 10
466.394
 20
164.703
 30
0.0
 40
0.333333
 41
0.333333
  0
VERTEX
  8
0
 10
466.344
 20
164.84
 30
0.0
 40
0.333333
 41
0.333333
  0
VERTEX
  8
0
 10
466.307
 20
164.985
 30
0.0
 40
0.333333
 41
0.333333
  0
VERTEX
  8
0
 10
466.285
 20
165.133
 30
0.0
 40
0.333333
 41
0.333333
  0
VERTEX
  8
0
 10
466.278
 20
165.249
 30
0.0
 40
0.333333
 41
0.333333
  0
VERTEX
  8
0
 10
466.278
 20
165.288
 30
0.0
 40
0.333333
 41
0.333333
  0
VERTEX
  8
0
 10
466.278
 20
165.325
 30
0.0
 40
0.333333
 41
0.333333
  0
VERTEX
  8
0
 10
466.285
 20
165.44
 30
0.0
 40
0.333333
 41
0.333333
  0
VERTEX
  8
0
 10
466.307
 20
165.589
 30
0.0
 40
0.333333
 41
0.333333
  0
VERTEX
  8
0
 10
466.344
 20
165.733
 30
0.0
 40
0.333333
 41
0.333333
  0
VERTEX
  8
0
 10
466.394
 20
165.871
 30
0.0
 40
0.333333
 41
0.333333
  0
VERTEX
  8
0
 10
466.458
 20
166.001
 30
0.0
 40
0.333333
 41
0.333333
  0
VERTEX
  8
0
 10
466.533
 20
166.125
 30
0.0
 40
0.333333
 41
0.333333
  0
VERTEX
  8
0
 10
466.619
 20
166.242
 30
0.0
 40
0.333333
 41
0.333333
  0
VERTEX
  8
0
 10
466.717
 20
166.347
 30
0.0
 40
0.333333
 41
0.333333
  0
VERTEX
  8
0
 10
466.824
 20
166.444
 30
0.0
 40
0.333333
 41
0.333333
  0
VERTEX
  8
0
 10
466.939
 20
166.531
 30
0.0
 40
0.333333
 41
0.333333
  0
VERTEX
  8
0
 10
467.063
 20
166.606
 30
0.0
 40
0.333333
 41
0.333333
  0
VERTEX
  8
0
 10
467.193
 20
166.669
 30
0.0
 40
0.333333
 41
0.333333
  0
VERTEX
  8
0
 10
467.331
 20
166.719
 30
0.0
 40
0.333333
 41
0.333333
  0
VERTEX
  8
0
 10
467.475
 20
166.757
 30
0.0
 40
0.333333
 41
0.333333
  0
VERTEX
  8
0
 10
467.624
 20
166.779
 30
0.0
 40
0.333333
 41
0.333333
  0
VERTEX
  8
0
 10
467.739
 20
166.788
 30
0.0
 40
0.333333
 41
0.333333
  0
VERTEX
  8
0
 10
467.778
 20
166.788
 30
0.0
 40
0.333333
 41
0.333333
  0
VERTEX
  8
0
 10
467.815
 20
166.788
 30
0.0
 40
0.333333
 41
0.333333
  0
VERTEX
  8
0
 10
467.931
 20
166.779
 30
0.0
 40
0.333333
 41
0.333333
  0
VERTEX
  8
0
 10
468.079
 20
166.757
 30
0.0
 40
0.333333
 41
0.333333
  0
VERTEX
  8
0
 10
468.224
 20
166.719
 30
0.0
 40
0.333333
 41
0.333333
  0
VERTEX
  8
0
 10
468.361
 20
166.669
 30
0.0
 40
0.333333
 41
0.333333
  0
VERTEX
  8
0
 10
468.492
 20
166.606
 30
0.0
 40
0.333333
 41
0.333333
  0
VERTEX
  8
0
 10
468.615
 20
166.531
 30
0.0
 40
0.333333
 41
0.333333
  0
VERTEX
  8
0
 10
468.731
 20
166.444
 30
0.0
 40
0.333333
 41
0.333333
  0
VERTEX
  8
0
 10
468.838
 20
166.347
 30
0.0
 40
0.333333
 41
0.333333
  0
VERTEX
  8
0
 10
468.935
 20
166.242
 30
0.0
 40
0.333333
 41
0.333333
  0
VERTEX
  8
0
 10
469.021
 20
166.125
 30
0.0
 40
0.333333
 41
0.333333
  0
VERTEX
  8
0
 10
469.096
 20
166.001
 30
0.0
 40
0.333333
 41
0.333333
  0
VERTEX
  8
0
 10
469.16
 20
165.871
 30
0.0
 40
0.333333
 41
0.333333
  0
VERTEX
  8
0
 10
469.21
 20
165.733
 30
0.0
 40
0.333333
 41
0.333333
  0
VERTEX
  8
0
 10
469.247
 20
165.589
 30
0.0
 40
0.333333
 41
0.333333
  0
VERTEX
  8
0
 10
469.269
 20
165.44
 30
0.0
 40
0.333333
 41
0.333333
  0
VERTEX
  8
0
 10
469.278
 20
165.325
 30
0.0
 40
0.333333
 41
0.333333
  0
VERTEX
  8
0
 10
469.278
 20
165.288
 30
0.0
 40
0.333333
 41
0.333333
  0
SEQEND
 8
0
  0
POLYLINE
  8
0
 62
     0
 66
     1
 10
0
 20
0
 30
0.0
 40
25.4
 41
25.4
  0
VERTEX
  8
0
 10
177.976
 20
177.987
 30
0.0
 40
0.352778
 41
0.352778
  0
VERTEX
  8
0
 10
482.778
 20
177.987
 30
0.0
 40
0.352778
 41
0.352778
  0
SEQEND
 8
0
  0
POLYLINE
  8
0
 62
     0
 66
     1
 10
0
 20
0
 30
0.0
 40
25.4
 41
25.4
  0
VERTEX
  8
0
 10
177.976
 20
355.787
 30
0.0
 40
0.352778
 41
0.352778
  0
VERTEX
  8
0
 10
177.976
 20
0.186686
 30
0.0
 40
0.352778
 41
0.352778
  0
SEQEND
 8
0
  0
POLYLINE
  8
0
 62
     0
 66
     1
 10
0
 20
0
 30
0.0
 40
25.4
 41
25.4
  0
VERTEX
  8
0
 10
0.176378
 20
355.787
 30
0.0
 40
0.352778
 41
0.352778
  0
VERTEX
  8
0
 10
0.176378
 20
533.588
 30
0.0
 40
0.352778
 41
0.352778
  0
VERTEX
  8
0
 10
304.976
 20
533.588
 30
0.0
 40
0.352778
 41
0.352778
  0
VERTEX
  8
0
 10
304.976
 20
448.656
 30
0.0
 40
0.352778
 41
0.352778
  0
VERTEX
  8
0
 10
76.3765
 20
448.656
 30
0.0
 40
0.352778
 41
0.352778
  0
VERTEX
  8
0
 10
76.3765
 20
440.718
 30
0.0
 40
0.352778
 41
0.352778
  0
VERTEX
  8
0
 10
304.976
 20
440.718
 30
0.0
 40
0.352778
 41
0.352778
  0
VERTEX
  8
0
 10
304.976
 20
355.787
 30
0.0
 40
0.352778
 41
0.352778
  0
SEQEND
 8
0
  0
POLYLINE
  8
0
 62
     0
 66
     1
 10
0
 20
0
 30
0.0
 40
25.4
 41
25.4
  0
VERTEX
  8
0
 10
0.176378
 20
355.787
 30
0.0
 40
0.352778
 41
0.352778
  0
VERTEX
  8
0
 10
0.176378
 20
50.9868
 30
0.0
 40
0.352778
 41
0.352778
  0
VERTEX
  8
0
 10
85.1078
 20
50.9868
 30
0.0
 40
0.352778
 41
0.352778
  0
VERTEX
  8
0
 10
85.1078
 20
279.588
 30
0.0
 40
0.352778
 41
0.352778
  0
VERTEX
  8
0
 10
93.0453
 20
279.588
 30
0.0
 40
0.352778
 41
0.352778
  0
VERTEX
  8
0
 10
93.0453
 20
50.9868
 30
0.0
 40
0.352778
 41
0.352778
  0
VERTEX
  8
0
 10
177.976
 20
50.9868
 30
0.0
 40
0.352778
 41
0.352778
  0
SEQEND
 8
0
  0
POLYLINE
  8
0
 62
     0
 66
     1
 10
0
 20
0
 30
0.0
 40
25.4
 41
25.4
  0
VERTEX
  8
0
 10
0.176378
 20
355.787
 30
0.0
 40
0.352778
 41
0.352778
  0
VERTEX
  8
0
 10
482.778
 20
355.787
 30
0.0
 40
0.352778
 41
0.352778
  0
VERTEX
  8
0
 10
482.778
 20
270.856
 30
0.0
 40
0.352778
 41
0.352778
  0
VERTEX
  8
0
 10
254.176
 20
270.856
 30
0.0
 40
0.352778
 41
0.352778
  0
VERTEX
  8
0
 10
254.176
 20
262.918
 30
0.0
 40
0.352778
 41
0.352778
  0
VERTEX
  8
0
 10
482.778
 20
262.918
 30
0.0
 40
0.352778
 41
0.352778
  0
VERTEX
  8
0
 10
482.778
 20
93.0556
 30
0.0
 40
0.352778
 41
0.352778
  0
VERTEX
  8
0
 10
254.176
 20
93.0556
 30
0.0
 40
0.352778
 41
0.352778
  0
VERTEX
  8
0
 10
254.176
 20
85.1181
 30
0.0
 40
0.352778
 41
0.352778
  0
VERTEX
  8
0
 10
482.778
 20
85.1181
 30
0.0
 40
0.352778
 41
0.352778
  0
VERTEX
  8
0
 10
482.778
 20
0.186686
 30
0.0
 40
0.352778
 41
0.352778
  0
VERTEX
  8
0
 10
177.976
 20
0.186686
 30
0.0
 40
0.352778
 41
0.352778
  0
SEQEND
 8
0
  0
ENDSEC
  0
EOF
