<svg xmlns="http://www.w3.org/2000/svg" width="36in" height="45.375in" viewBox="0 0 2592 3267"><g/><g/><g/><g/><g/><g/><g/><circle cx="1404.0021442269742" cy="796.9618560427451" r="4.251975" color="rgb(0,0,0)" stroke="#000000" id="B0" stroke-width="0.25mm" fill="none"/><circle cx="1404.0021442269742" cy="752.3161185427451" r="4.251975" color="rgb(0,0,0)" stroke="#000000" id="B1" stroke-width="0.25mm" fill="none"/><circle cx="54.00008172697426" cy="752.3161185427454" r="4.251975" color="rgb(0,0,0)" stroke="#000000" id="B2" stroke-width="0.25mm" fill="none"/><circle cx="54.000081726974486" cy="796.9618560427454" r="4.251975" color="rgb(0,0,0)" stroke="#000000" id="B3" stroke-width="0.25mm" fill="none"/><g/><g/><g/><circle cx="54.00009810645207" cy="1451.2394917307374" r="4.251975" color="rgb(0,0,0)" stroke="#000000" id="B0" stroke-width="0.25mm" fill="none"/><circle cx="54.00009810645207" cy="1495.8852292307374" r="4.251975" color="rgb(0,0,0)" stroke="#000000" id="B1" stroke-width="0.25mm" fill="none"/><circle cx="1404.002160606452" cy="1495.885229230737" r="4.251975" color="rgb(0,0,0)" stroke="#000000" id="B2" stroke-width="0.25mm" fill="none"/><circle cx="1404.002160606452" cy="1451.239491730737" r="4.251975" color="rgb(0,0,0)" stroke="#000000" id="B3" stroke-width="0.25mm" fill="none"/><circle cx="1863.0028483975243" cy="1420.2000828135908" r="9.000013749999951" color="rgb(0,0,0)" stroke="#000000" id="ID_76" stroke-width="0.25mm" fill="none"/><circle cx="1926.0029446475246" cy="2163.1618478135906" r="4.2519750000001215" color="rgb(0,0,0)" stroke="#000000" id="ID_77" stroke-width="0.25mm" fill="none"/><circle cx="1512.0023121475244" cy="2118.516110313591" r="4.251975" color="rgb(0,0,0)" stroke="#000000" id="ID_78" stroke-width="0.25mm" fill="none"/><circle cx="1512.0023121475244" cy="2163.161847813591" r="4.251975" color="rgb(0,0,0)" stroke="#000000" id="ID_79" stroke-width="0.25mm" fill="none"/><circle cx="1926.0029446475246" cy="2118.5161103135906" r="4.25197500000004" color="rgb(0,0,0)" stroke="#000000" id="ID_7A" stroke-width="0.25mm" fill="none"/><circle cx="2385.003645897524" cy="1420.2000828135908" r="9.000013749999951" color="rgb(0,0,0)" stroke="#000000" id="ID_76" stroke-width="0.25mm" fill="none"/><circle cx="2448.0037421475245" cy="2163.1618478135906" r="4.2519750000001215" color="rgb(0,0,0)" stroke="#000000" id="ID_77" stroke-width="0.25mm" fill="none"/><circle cx="2034.0031096475243" cy="2118.516110313591" r="4.251975" color="rgb(0,0,0)" stroke="#000000" id="ID_78" stroke-width="0.25mm" fill="none"/><circle cx="2034.0031096475243" cy="2163.161847813591" r="4.251975" color="rgb(0,0,0)" stroke="#000000" id="ID_79" stroke-width="0.25mm" fill="none"/><circle cx="2448.0037421475245" cy="2118.5161103135906" r="4.25197500000004" color="rgb(0,0,0)" stroke="#000000" id="ID_7A" stroke-width="0.25mm" fill="none"/><line x1="738.001137067896" x2="738.001137067896" y1="1044.0016035660371" y2="1035.001589816037" fill="none" stroke="#000000"/><line x1="602.4715183321041" x2="602.4715183321041" y1="882.0013561339628" y2="891.0013698839629" fill="none" stroke="#000000"/><line x1="594.0009170678961" y1="882.0013560660371" x2="746.4717383194795" y2="1044.0016036458446" fill="none" stroke="#000000"/><path d="M 738.0011267269741 18.000036042745336 L 738.0011267269741 100.28587604282632 L 738.0011267269741 100.28587604282632 L 747.0011404769742 100.28587604282632 L 747.0011404769742 100.28587604282632 L 747.0011404769742 18.000036042745336 L 747.0011404769742 18.000036042745336 L 794.4557584317773 18.000036042745307 L 794.4557584317773 18.000036042745307 L 794.4557584317773 0.000008542745320028189 L 794.4557584317773 0.000008542745320028189 L 925.3650493408167 0.000008542745320028189 L 925.3650493408167 0.000008542745320028189 L 925.3650493408167 18.000036042745307 L 925.3650493408167 18.000036042745307 L 1056.2743402498559 18.00003604274528 L 1056.2743402498559 18.00003604274528 L 1056.2743402498559 0.000008542745291606481 L 1056.2743402498559 0.000008542745291606481 L 1187.1836311588954 0.000008542745291606481 L 1187.1836311588954 0.000008542745291606481 L 1187.1836311588954 18.00003604274528 L 1187.1836311588954 18.00003604274528 L 1318.0929220679348 18.00003604274525 L 1318.0929220679348 18.00003604274525 L 1318.0929220679348 0.000008542745263184772 L 1318.0929220679348 0.000008542745263184772 L 1449.002212976974 0.000008542745263184772 L 1449.002212976974 0.000008542745263184772 L 1449.002212976974 141.42879604286668 L 1449.002212976974 141.42879604286668 L 1458.0022267269742 141.42879604286668 L 1458.0022267269742 141.42879604286668 L 1458.0022267269742 264.8575560429882 L 1458.0022267269742 264.8575560429882 L 1449.0022129769743 264.8575560429882 L 1449.0022129769743 264.8575560429882 L 1449.0022129769743 388.28631604282623 L 1449.0022129769743 388.28631604282623 L 1458.0022267269742 388.28631604282623 L 1458.0022267269742 388.28631604282623 L 1458.0022267269742 511.71507604294766 L 1458.0022267269742 511.71507604294766 L 1449.0022129769743 511.71507604294766 L 1449.0022129769743 511.71507604294766 L 1449.0022129769743 635.1438360427858 L 1449.0022129769743 635.1438360427858 L 1458.0022267269742 635.1438360427858 L 1458.0022267269742 635.1438360427858 L 1458.0022267269742 758.5725960429072 L 1458.0022267269742 758.5725960429072 L 1449.0022129769743 758.5725960429072 L 1449.0022129769743 758.5725960429072 L 1449.0022129769743 882.0013560427451 L 1449.0022129769743 882.0013560427451 L 9.000012976974404 882.0013560427453 L 9.000012976974404 882.0013560427453 L 9.000012976974176 758.5725960429074 L 9.000012976974176 758.5725960429074 L -7.730257038929267e-7 758.5725960429074 L -7.730257038929267e-7 758.5725960429074 L -7.730257038929267e-7 635.143836042786 L -7.730257038929267e-7 635.143836042786 L 9.000012976974176 635.143836042786 L 9.000012976974176 635.143836042786 L 9.000012976974176 511.7150760429479 L 9.000012976974176 511.7150760429479 L -7.730257038929267e-7 511.7150760429479 L -7.730257038929267e-7 511.7150760429479 L -7.730257038929267e-7 388.28631604282646 L -7.730257038929267e-7 388.28631604282646 L 9.000012976974176 388.28631604282646 L 9.000012976974176 388.28631604282646 L 9.000012976974176 264.8575560429884 L 9.000012976974176 264.8575560429884 L -7.730257038929267e-7 264.8575560429884 L -7.730257038929267e-7 264.8575560429884 L -7.730257038929267e-7 141.42879604286685 L -7.730257038929267e-7 141.42879604286685 L 9.000012976974176 141.42879604286685 L 9.000012976974176 141.42879604286685 L 9.000012976974176 0.000008542745433715027 L 9.000012976974176 0.000008542745433715027 L 139.90930388629704 0.000008542745405293319 L 139.90930388629704 0.000008542745405293319 L 139.90930388629704 18.000036042745393 L 139.90930388629704 18.000036042745393 L 270.81859479533637 18.000036042745393 L 270.81859479533637 18.000036042745393 L 270.81859479533637 0.000008542745405293319 L 270.81859479533637 0.000008542745405293319 L 401.7278857043759 0.000008542745376871611 L 401.7278857043759 0.000008542745376871611 L 401.7278857043759 18.000036042745364 L 401.7278857043759 18.000036042745364 L 532.6371766134152 18.000036042745336 L 532.6371766134152 18.000036042745336 L 532.6371766134152 0.000008542745348449898 L 532.6371766134152 0.000008542745348449898 L 663.5464675224546 0.000008542745348449898 L 663.5464675224546 0.000008542745348449898 L 663.5464675224546 18.000036042745336 L 663.5464675224546 18.000036042745336 L 738.0011267269741 18.000036042745336 z" fill="none" stroke="#000000"/><path d="M 747.0011404769742 182.57171604290733 L 738.0011267269741 182.57171604290733 L 738.0011267269741 182.57171604290733 L 738.0011267269741 264.85755604298834 L 738.0011267269741 264.85755604298834 L 747.0011404769742 264.85755604298834 L 747.0011404769742 264.85755604298834 L 747.0011404769742 182.57171604290733 z" fill="none" stroke="#000000"/><path d="M 747.0011404769743 347.1433960427858 L 738.0011267269742 347.1433960427858 L 738.0011267269742 347.1433960427858 L 738.0011267269742 429.4292360428668 L 738.0011267269742 429.4292360428668 L 747.0011404769743 429.4292360428668 L 747.0011404769743 429.4292360428668 L 747.0011404769743 347.1433960427858 z" fill="none" stroke="#000000"/><path d="M 747.0011404769743 511.71507604294777 L 738.0011267269742 511.71507604294777 L 738.0011267269742 511.71507604294777 L 738.0011267269742 594.0009160427453 L 738.0011267269742 594.0009160427453 L 747.0011404769743 594.0009160427453 L 747.0011404769743 594.0009160427453 L 747.0011404769743 511.71507604294777 z" fill="none" stroke="#000000"/><path d="M 711.0010854769743 198.0003110427453 L 720.0010992269742 198.0003110427453 L 720.0010992269742 198.0003110427453 L 720.0010992269742 108.00017354274533 L 720.0010992269742 108.00017354274533 L 711.0010854769743 108.00017354274533 L 711.0010854769743 108.00017354274533 L 711.0010854769743 198.0003110427453 z" fill="none" stroke="#000000"/><path d="M 711.0010854769744 378.00058604274534 L 720.0010992269744 378.00058604274534 L 720.0010992269744 378.00058604274534 L 720.0010992269742 288.0004485427453 L 720.0010992269742 288.0004485427453 L 711.0010854769743 288.0004485427453 L 711.0010854769743 288.0004485427453 L 711.0010854769744 378.00058604274534 z" fill="none" stroke="#000000"/><path d="M 711.0010854769744 558.0008610427453 L 720.0010992269744 558.0008610427453 L 720.0010992269744 558.0008610427453 L 720.0010992269744 468.0007235427453 L 720.0010992269744 468.0007235427453 L 711.0010854769744 468.0007235427453 L 711.0010854769744 468.0007235427453 L 711.0010854769744 558.0008610427453 z" fill="none" stroke="#000000"/><path d="M 711.0010854769744 738.0011360427454 L 720.0010992269744 738.0011360427454 L 720.0010992269744 738.0011360427454 L 720.0010992269744 648.0009985427454 L 720.0010992269744 648.0009985427454 L 711.0010854769744 648.0009985427454 L 711.0010854769744 648.0009985427454 L 711.0010854769744 738.0011360427454 z" fill="none" stroke="#000000"/><path d="M 468.0007245678961 1044.0016035660374 L 468.0007245678961 1035.0015898160373 L 468.0007245678961 1035.0015898160373 L 378.00058706789616 1035.0015898160373 L 378.00058706789616 1035.0015898160373 L 378.00058706789616 1044.0016035660374" fill="none" stroke="#000000"/><path d="M 558.000862067896 1044.0016035660374 L 558.000862067896 1035.0015898160373 L 558.000862067896 1035.0015898160373 L 648.000999567896 1035.0015898160373 L 648.000999567896 1035.0015898160373 L 648.000999567896 1044.0016035660374" fill="none" stroke="#000000"/><path d="M 18.00003706789616 882.0013560660373 L 18.00003706789616 999.0015348160372 L 18.00003706789616 999.0015348160372 L 0.000009567896114504038 999.0015348160372 L 0.000009567896114504038 999.0015348160372 L 0.000009567896114504038 1035.0015898160373 L 0.000009567896114504038 1035.0015898160373 L 108.00017456789618 1035.0015898160373 L 108.00017456789618 1035.0015898160373 L 108.00017456789618 1044.0016035660374" fill="none" stroke="#000000"/><path d="M 198.00031206789617 1044.0016035660374 L 198.00031206789617 1035.0015898160373 L 198.00031206789617 1035.0015898160373 L 288.00044956789617 1035.0015898160373 L 288.00044956789617 1035.0015898160373 L 288.00044956789617 1044.0016035660374" fill="none" stroke="#000000"/><path d="M 872.471930832104 882.0013561339626 L 872.471930832104 891.0013698839628 L 872.471930832104 891.0013698839628 L 962.472068332104 891.0013698839628 L 962.472068332104 891.0013698839628 L 962.472068332104 882.0013561339626" fill="none" stroke="#000000"/><path d="M 782.4717933321041 882.0013561339626 L 782.4717933321041 891.0013698839628 L 782.4717933321041 891.0013698839628 L 692.4716558321041 891.0013698839628 L 692.4716558321041 891.0013698839628 L 692.4716558321041 882.0013561339626" fill="none" stroke="#000000"/><path d="M 1322.472618332104 1044.0016036339625 L 1322.472618332104 927.0014248839626 L 1322.472618332104 927.0014248839626 L 1340.472645832104 927.0014248839626 L 1340.472645832104 927.0014248839626 L 1340.472645832104 891.0013698839626 L 1340.472645832104 891.0013698839626 L 1232.4724808321039 891.0013698839628 L 1232.4724808321039 891.0013698839628 L 1232.4724808321039 882.0013561339626" fill="none" stroke="#000000"/><path d="M 1142.472343332104 882.0013561339626 L 1142.472343332104 891.0013698839628 L 1142.472343332104 891.0013698839628 L 1052.472205832104 891.0013698839628 L 1052.472205832104 891.0013698839628 L 1052.472205832104 882.0013561339626" fill="none" stroke="#000000"/><path d="M 576.0008808481705 1044.0016035641684 L 576.0008808481705 1089.0016723141684 L 576.0008808481705 1089.0016723141684 L 493.71504084837284 1089.0016723141684 L 493.71504084837284 1089.0016723141684 L 493.71504084837284 1080.0016585641683 L 493.71504084837284 1080.0016585641683 L 411.4292008482919 1080.0016585641683 L 411.4292008482919 1080.0016585641683 L 411.4292008482919 1089.0016723141684 L 411.4292008482919 1089.0016723141684 L 329.1433608482108 1089.0016723141684 L 329.1433608482108 1089.0016723141684 L 329.1433608482108 1080.0016585641683 L 329.1433608482108 1080.0016585641683 L 246.85752084812987 1080.0016585641683 L 246.85752084812987 1080.0016585641683 L 246.85752084812987 1089.0016723141684 L 246.85752084812987 1089.0016723141684 L 164.57168084833245 1089.0016723141684 L 164.57168084833245 1089.0016723141684 L 164.57168084833245 1080.0016585641683 L 164.57168084833245 1080.0016585641683 L 82.28584084825144 1080.0016585641683 L 82.28584084825144 1080.0016585641683 L 82.28584084825144 1089.0016723141684 L 82.28584084825144 1089.0016723141684 L 8.481704298901604e-7 1089.0016723141684 L 8.481704298901604e-7 1089.0016723141684 L 8.481704298901604e-7 1044.0016035641684 L 8.481704298901604e-7 1044.0016035641684 L 1322.472618332104 1044.0016035641684" fill="none" stroke="#000000"/><path d="M 576.0008808481705 1089.0016723141684 L 658.2867208482514 1089.0016723141684 L 658.2867208482514 1089.0016723141684 L 658.2867208482514 1080.0016585641683 L 658.2867208482514 1080.0016585641683 L 740.5725608483325 1080.0016585641683 L 740.5725608483325 1080.0016585641683 L 740.5725608483325 1089.0016723141684 L 740.5725608483325 1089.0016723141684 L 822.8584008481299 1089.0016723141684 L 822.8584008481299 1089.0016723141684 L 822.8584008481299 1080.0016585641683 L 822.8584008481299 1080.0016585641683 L 905.1442408482109 1080.0016585641683 L 905.1442408482109 1080.0016585641683 L 905.1442408482109 1089.0016723141684 L 905.1442408482109 1089.0016723141684 L 987.4300808482919 1089.0016723141684 L 987.4300808482919 1089.0016723141684 L 987.4300808482919 1080.0016585641683 L 987.4300808482919 1080.0016585641683 L 1069.715920848373 1080.0016585641683 L 1069.715920848373 1080.0016585641683 L 1069.715920848373 1089.0016723141684 L 1069.715920848373 1089.0016723141684 L 1152.0017608481705 1089.0016723141684 L 1152.0017608481705 1089.0016723141684 L 1152.0017608481705 1044.0016035641684" fill="none" stroke="#000000"/><path d="M 1458.002243106452 1489.628751730575 L 1449.002229356452 1489.628751730575 L 1449.002229356452 1489.628751730575 L 1449.002229356452 1366.1999917307369 L 1449.002229356452 1366.1999917307369 L 9.000029356452046 1366.1999917307373 L 9.000029356452046 1366.1999917307373 L 9.000029356452075 1489.6287517305752 L 9.000029356452075 1489.6287517305752 L 0.00001560645208087408 1489.6287517305752 L 0.00001560645208087408 1489.6287517305752 L 0.000015606452123506652 1613.0575117306967 L 0.000015606452123506652 1613.0575117306967 L 9.000029356452117 1613.0575117306967 L 9.000029356452117 1613.0575117306967 L 9.000029356452146 1736.4862717305348 L 9.000029356452146 1736.4862717305348 L 0.00001560645215192836 1736.4862717305348 L 0.00001560645215192836 1736.4862717305348 L 0.000015606452180350064 1859.9150317306562 L 0.000015606452180350064 1859.9150317306562 L 9.000029356452174 1859.9150317306562 L 9.000029356452174 1859.9150317306562 L 9.000029356452202 1983.343791730494 L 9.000029356452202 1983.343791730494 L 0.000015606452208771777 1983.343791730494 L 0.000015606452208771777 1983.343791730494 L 0.000015606452237193483 2106.7725517306158 L 0.000015606452237193483 2106.7725517306158 L 9.000029356452231 2106.7725517306158 L 9.000029356452231 2106.7725517306158 L 9.00002935645226 2248.201339230737 L 9.00002935645226 2248.201339230737 L 139.9093202654916 2248.201339230737 L 139.9093202654916 2248.201339230737 L 139.9093202654916 2230.201311730737 L 139.9093202654916 2230.201311730737 L 270.81861117453104 2230.201311730737 L 270.81861117453104 2230.201311730737 L 270.81861117453104 2248.201339230737 L 270.81861117453104 2248.201339230737 L 401.7279020835705 2248.201339230737 L 401.7279020835705 2248.201339230737 L 401.7279020835705 2230.201311730737 L 401.7279020835705 2230.201311730737 L 532.6371929926098 2230.201311730737 L 532.6371929926098 2230.201311730737 L 532.6371929926098 2248.201339230737 L 532.6371929926098 2248.201339230737 L 663.5464839016491 2248.201339230737 L 663.5464839016491 2248.201339230737 L 663.5464839016491 2230.201311730737 L 663.5464839016491 2230.201311730737 L 711.0011018564522 2230.201311730737 L 711.0011018564522 2230.201311730737 L 711.0011018564521 2147.915471730656 L 711.0011018564521 2147.915471730656 L 720.0011156064522 2147.915471730656 L 720.0011156064522 2147.915471730656 L 720.0011156064523 2230.201311730737 L 720.0011156064523 2230.201311730737 L 794.4557748109719 2230.201311730737 L 794.4557748109719 2230.201311730737 L 794.4557748109719 2248.201339230737 L 794.4557748109719 2248.201339230737 L 925.3650657200112 2248.201339230737 L 925.3650657200112 2248.201339230737 L 925.3650657200112 2230.201311730737 L 925.3650657200112 2230.201311730737 L 1056.2743566290505 2230.201311730737 L 1056.2743566290505 2230.201311730737 L 1056.2743566290505 2248.2013392307367 L 1056.2743566290505 2248.2013392307367 L 1187.18364753809 2248.2013392307367 L 1187.18364753809 2248.2013392307367 L 1187.18364753809 2230.201311730737 L 1187.18364753809 2230.201311730737 L 1318.0929384471294 2230.201311730737 L 1318.0929384471294 2230.201311730737 L 1318.0929384471294 2248.2013392307367 L 1318.0929384471294 2248.2013392307367 L 1449.0022293564523 2248.2013392307367 L 1449.0022293564523 2248.2013392307367 L 1449.0022293564523 2106.7725517306153 L 1449.0022293564523 2106.7725517306153 L 1458.0022431064522 2106.7725517306153 L 1458.0022431064522 2106.7725517306153 L 1458.0022431064522 1877.91506781351" fill="none" stroke="#000000"/><path d="M 1458.0022431064522 1983.3437917304939 L 1449.0022293564523 1983.3437917304939 L 1449.0022293564523 1983.3437917304939 L 1449.002229356452 1859.9150317306558 L 1449.002229356452 1859.9150317306558 L 1458.002243106452 1859.9150317306558 L 1458.002243106452 1859.9150317306558 L 1458.002243106452 1631.0575478135504" fill="none" stroke="#000000"/><path d="M 1458.002243106452 1736.4862717305346 L 1449.002229356452 1736.4862717305346 L 1449.002229356452 1736.4862717305346 L 1449.002229356452 1613.0575117306962 L 1449.002229356452 1613.0575117306962 L 1458.002243106452 1613.0575117306962 L 1458.002243106452 1613.0575117306962 L 1458.002243106452 1384.2000278135909" fill="none" stroke="#000000"/><path d="M 711.0011018564521 2065.629631730575 L 720.0011156064522 2065.629631730575 L 720.0011156064522 2065.629631730575 L 720.0011156064522 1983.343791730494 L 720.0011156064522 1983.343791730494 L 711.0011018564521 1983.343791730494 L 711.0011018564521 1983.343791730494 L 711.0011018564521 2065.629631730575 z" fill="none" stroke="#000000"/><path d="M 711.0011018564521 1901.0579517306965 L 720.0011156064522 1901.0579517306965 L 720.0011156064522 1901.0579517306965 L 720.0011156064522 1818.7721117306155 L 720.0011156064522 1818.7721117306155 L 711.0011018564521 1818.7721117306155 L 711.0011018564521 1818.7721117306155 L 711.0011018564521 1901.0579517306965 z" fill="none" stroke="#000000"/><path d="M 711.0011018564521 1736.4862717305346 L 720.0011156064522 1736.4862717305346 L 720.0011156064522 1736.4862717305346 L 720.0011156064521 1654.200431730737 L 720.0011156064521 1654.200431730737 L 711.001101856452 1654.200431730737 L 711.001101856452 1654.200431730737 L 711.0011018564521 1736.4862717305346 z" fill="none" stroke="#000000"/><path d="M 747.0011568564521 2050.201036730737 L 738.0011431064521 2050.201036730737 L 738.0011431064521 2050.201036730737 L 738.0011431064521 2140.201174230737 L 738.0011431064521 2140.201174230737 L 747.0011568564521 2140.201174230737 L 747.0011568564521 2140.201174230737 L 747.0011568564521 2050.201036730737 z" fill="none" stroke="#000000"/><path d="M 747.0011568564521 1870.200761730737 L 738.0011431064521 1870.200761730737 L 738.0011431064521 1870.200761730737 L 738.0011431064521 1960.200899230737 L 738.0011431064521 1960.200899230737 L 747.0011568564521 1960.200899230737 L 747.0011568564521 1960.200899230737 L 747.0011568564521 1870.200761730737 z" fill="none" stroke="#000000"/><path d="M 747.001156856452 1690.2004867307369 L 738.001143106452 1690.2004867307369 L 738.001143106452 1690.2004867307369 L 738.0011431064521 1780.200624230737 L 738.0011431064521 1780.200624230737 L 747.0011568564521 1780.200624230737 L 747.0011568564521 1780.200624230737 L 747.001156856452 1690.2004867307369 z" fill="none" stroke="#000000"/><path d="M 747.001156856452 1510.200211730737 L 738.001143106452 1510.200211730737 L 738.001143106452 1510.200211730737 L 738.001143106452 1600.200349230737 L 738.001143106452 1600.200349230737 L 747.001156856452 1600.200349230737 L 747.001156856452 1600.200349230737 L 747.001156856452 1510.200211730737 z" fill="none" stroke="#000000"/><path d="M 1980.0030271475243 1384.2000278135909 L 1980.0030271475243 1507.628787813429 L 1980.0030271475243 1507.628787813429 L 1971.0030133975245 1507.628787813429 L 1971.0030133975245 1507.628787813429 L 1971.0030133975245 1631.0575478135504 L 1971.0030133975245 1631.0575478135504 L 1980.0030271475243 1631.0575478135504 L 1980.0030271475243 1631.0575478135504 L 1980.0030271475243 1754.4863078133883 L 1980.0030271475243 1754.4863078133883 L 1971.0030133975245 1754.4863078133883 L 1971.0030133975245 1754.4863078133883 L 1971.0030133975245 1877.9150678135097 L 1971.0030133975245 1877.9150678135097 L 1980.0030271475243 1877.9150678135097 L 1980.0030271475243 1877.9150678135097 L 1980.0030271475243 2001.3438278136314 L 1980.0030271475243 2001.3438278136314 L 1971.0030133975245 2001.3438278136314 L 1971.0030133975245 2001.3438278136314 L 1971.0030133975245 2124.7725878134693 L 1971.0030133975245 2124.7725878134693 L 1980.0030271475243 2124.7725878134693 L 1980.0030271475243 2124.7725878134693 L 1980.0030271475243 2248.201347813591 L 1980.0030271475243 2248.201347813591 L 1730.2526455850245 2248.201347813591 L 1730.2526455850245 2248.201347813591 L 1730.2526455850243 1600.200357813591 L 1730.2526455850243 1600.200357813591 L 1707.7526112100245 1600.200357813591 L 1707.7526112100245 1600.200357813591 L 1707.7526112100245 2248.201347813591 L 1707.7526112100245 2248.201347813591 L 1458.0022296475245 2248.201347813591 L 1458.0022296475245 2248.201347813591 L 1458.0022296475245 2124.7725878134697 L 1458.0022296475245 2124.7725878134697 L 1467.0022433975244 2124.7725878134697 L 1467.0022433975244 2124.7725878134697 L 1467.0022433975244 2001.3438278136314 L 1467.0022433975244 2001.3438278136314 L 1458.0022296475245 2001.3438278136314" fill="none" stroke="#000000"/><path d="M 1458.0022296475245 1384.2000278135909 L 1567.8023973975244 1384.2000278135909 L 1567.8023973975244 1384.2000278135909 L 1567.8023973975244 1366.2000003135909 L 1567.8023973975244 1366.2000003135909 L 1668.6025513975244 1366.2000003135909 L 1668.6025513975244 1366.2000003135909 L 1668.6025513975244 1384.2000278135909 L 1668.6025513975244 1384.2000278135909 L 1769.4027053975244 1384.2000278135909 L 1769.4027053975244 1384.2000278135909 L 1769.4027053975244 1366.2000003135909 L 1769.4027053975244 1366.2000003135909 L 1870.2028593975244 1366.2000003135909 L 1870.2028593975244 1366.2000003135909 L 1870.2028593975244 1384.2000278135909 L 1870.2028593975244 1384.2000278135909 L 2089.803194897524 1384.2000278135909 L 2089.803194897524 1384.2000278135909 L 2089.803194897524 1366.2000003135909 L 2089.803194897524 1366.2000003135909 L 2190.6033488975245 1366.2000003135909 L 2190.6033488975245 1366.2000003135909 L 2190.6033488975245 1384.2000278135909 L 2190.6033488975245 1384.2000278135909 L 2291.403502897524 1384.2000278135909 L 2291.403502897524 1384.2000278135909 L 2291.403502897524 1366.2000003135909 L 2291.403502897524 1366.2000003135909 L 2392.203656897524 1366.2000003135909 L 2392.203656897524 1366.2000003135909 L 2392.203656897524 1384.2000278135909 L 2392.203656897524 1384.2000278135909 L 2502.003824647524 1384.2000278135909 L 2502.003824647524 1384.2000278135909 L 2502.003824647524 1507.628787813429 L 2502.003824647524 1507.628787813429 L 2493.003810897524 1507.628787813429 L 2493.003810897524 1507.628787813429 L 2493.003810897524 1631.0575478135504 L 2493.003810897524 1631.0575478135504 L 2502.003824647524 1631.0575478135504 L 2502.003824647524 1631.0575478135504 L 2502.003824647524 1754.4863078133883 L 2502.003824647524 1754.4863078133883 L 2493.003810897524 1754.4863078133883 L 2493.003810897524 1754.4863078133883 L 2493.003810897524 1877.9150678135097 L 2493.003810897524 1877.9150678135097 L 2502.003824647524 1877.9150678135097 L 2502.003824647524 1877.9150678135097 L 2502.003824647524 2001.3438278136314 L 2502.003824647524 2001.3438278136314 L 2493.003810897524 2001.3438278136314 L 2493.003810897524 2001.3438278136314 L 2493.003810897524 2124.7725878134693 L 2493.003810897524 2124.7725878134693 L 2502.003824647524 2124.7725878134693 L 2502.003824647524 2124.7725878134693 L 2502.003824647524 2248.201347813591 L 2502.003824647524 2248.201347813591 L 2252.2534430850246 2248.201347813591 L 2252.2534430850246 2248.201347813591 L 2252.253443085024 1600.200357813591 L 2252.253443085024 1600.200357813591 L 2229.7534087100244 1600.200357813591 L 2229.7534087100244 1600.200357813591 L 2229.7534087100244 2248.201347813591 L 2229.7534087100244 2248.201347813591 L 1980.0030271475243 2248.201347813591" fill="none" stroke="#000000"/><path d="M 1458.0022296475245 1507.628787813429 L 1467.0022433975241 1507.628787813429 L 1467.0022433975241 1507.628787813429 L 1467.0022433975241 1631.0575478135504 L 1467.0022433975241 1631.0575478135504 L 1458.0022296475245 1631.0575478135504" fill="none" stroke="#000000"/><path d="M 1458.0022296475245 1754.4863078133885 L 1467.0022433975244 1754.4863078133885 L 1467.0022433975244 1754.4863078133885 L 1467.0022433975244 1877.91506781351 L 1467.0022433975244 1877.91506781351 L 1458.0022296475245 1877.91506781351" fill="none" stroke="#000000"/><path d="M 1980.0030271475243 1507.628787813429 L 1989.003040897524 1507.628787813429 L 1989.003040897524 1507.628787813429 L 1989.003040897524 1631.0575478135504 L 1989.003040897524 1631.0575478135504 L 1980.0030271475243 1631.0575478135504" fill="none" stroke="#000000"/><path d="M 1980.0030271475243 1754.4863078133885 L 1989.0030408975242 1754.4863078133885 L 1989.0030408975242 1754.4863078133885 L 1989.0030408975242 1877.91506781351 L 1989.0030408975242 1877.91506781351 L 1980.0030271475243 1877.91506781351" fill="none" stroke="#000000"/><path d="M 1980.0030271475243 2001.3438278136314 L 1989.0030408975242 2001.3438278136314 L 1989.0030408975242 2001.3438278136314 L 1989.0030408975242 2124.7725878134697 L 1989.0030408975242 2124.7725878134697 L 1980.0030271475243 2124.7725878134697" fill="none" stroke="#000000"/></svg>