  0
SECTION
  2
HEADER
  9
$ACADVER
  1
AC1009
  9
$EXTMIN
 10
0.0
 20
0.0
 30
0.0
  9
$EXTMAX
 10
1000.0
 20
1000.0
 30
0.0
  9
$FILLMODE
 70
 0
  9
$SPLFRAME
 70
 1
  0
ENDSEC
  0
SECTION
  2
TABLES
  0
TABLE
  2
LAYER
 70
1
  0
LAYER
  2
0
 70
     0
 62
     7
  6
CONTINUOUS
  0
ENDTAB
  0
ENDSEC
  0
SECTION
  2
ENTITIES
  0
POLYLINE
  8
0
 62
     0
 66
     1
 10
0
 20
0
 30
0.0
 70
     1
 40
24
 41
24
  0
VERTEX
  8
0
 10
496.978
 20
512.146
 30
0.0
 40
0.333333
 41
0.333333
  0
VERTEX
  8
0
 10
496.978
 20
512.107
 30
0.0
 40
0.333333
 41
0.333333
  0
VERTEX
  8
0
 10
496.969
 20
511.992
 30
0.0
 40
0.333333
 41
0.333333
  0
VERTEX
  8
0
 10
496.947
 20
511.843
 30
0.0
 40
0.333333
 41
0.333333
  0
VERTEX
  8
0
 10
496.91
 20
511.7
 30
0.0
 40
0.333333
 41
0.333333
  0
VERTEX
  8
0
 10
496.86
 20
511.561
 30
0.0
 40
0.333333
 41
0.333333
  0
VERTEX
  8
0
 10
496.796
 20
511.431
 30
0.0
 40
0.333333
 41
0.333333
  0
VERTEX
  8
0
 10
496.721
 20
511.307
 30
0.0
 40
0.333333
 41
0.333333
  0
VERTEX
  8
0
 10
496.635
 20
511.192
 30
0.0
 40
0.333333
 41
0.333333
  0
VERTEX
  8
0
 10
496.537
 20
511.085
 30
0.0
 40
0.333333
 41
0.333333
  0
VERTEX
  8
0
 10
496.432
 20
510.988
 30
0.0
 40
0.333333
 41
0.333333
  0
VERTEX
  8
0
 10
496.315
 20
510.901
 30
0.0
 40
0.333333
 41
0.333333
  0
VERTEX
  8
0
 10
496.192
 20
510.826
 30
0.0
 40
0.333333
 41
0.333333
  0
VERTEX
  8
0
 10
496.061
 20
510.764
 30
0.0
 40
0.333333
 41
0.333333
  0
VERTEX
  8
0
 10
495.924
 20
510.713
 30
0.0
 40
0.333333
 41
0.333333
  0
VERTEX
  8
0
 10
495.779
 20
510.676
 30
0.0
 40
0.333333
 41
0.333333
  0
VERTEX
  8
0
 10
495.631
 20
510.653
 30
0.0
 40
0.333333
 41
0.333333
  0
VERTEX
  8
0
 10
495.515
 20
510.646
 30
0.0
 40
0.333333
 41
0.333333
  0
VERTEX
  8
0
 10
495.478
 20
510.646
 30
0.0
 40
0.333333
 41
0.333333
  0
VERTEX
  8
0
 10
495.439
 20
510.646
 30
0.0
 40
0.333333
 41
0.333333
  0
VERTEX
  8
0
 10
495.324
 20
510.653
 30
0.0
 40
0.333333
 41
0.333333
  0
VERTEX
  8
0
 10
495.175
 20
510.676
 30
0.0
 40
0.333333
 41
0.333333
  0
VERTEX
  8
0
 10
495.031
 20
510.713
 30
0.0
 40
0.333333
 41
0.333333
  0
VERTEX
  8
0
 10
494.893
 20
510.764
 30
0.0
 40
0.333333
 41
0.333333
  0
VERTEX
  8
0
 10
494.762
 20
510.826
 30
0.0
 40
0.333333
 41
0.333333
  0
VERTEX
  8
0
 10
494.639
 20
510.901
 30
0.0
 40
0.333333
 41
0.333333
  0
VERTEX
  8
0
 10
494.524
 20
510.988
 30
0.0
 40
0.333333
 41
0.333333
  0
VERTEX
  8
0
 10
494.417
 20
511.085
 30
0.0
 40
0.333333
 41
0.333333
  0
VERTEX
  8
0
 10
494.319
 20
511.192
 30
0.0
 40
0.333333
 41
0.333333
  0
VERTEX
  8
0
 10
494.233
 20
511.307
 30
0.0
 40
0.333333
 41
0.333333
  0
VERTEX
  8
0
 10
494.158
 20
511.431
 30
0.0
 40
0.333333
 41
0.333333
  0
VERTEX
  8
0
 10
494.094
 20
511.561
 30
0.0
 40
0.333333
 41
0.333333
  0
VERTEX
  8
0
 10
494.044
 20
511.7
 30
0.0
 40
0.333333
 41
0.333333
  0
VERTEX
  8
0
 10
494.008
 20
511.843
 30
0.0
 40
0.333333
 41
0.333333
  0
VERTEX
  8
0
 10
493.985
 20
511.992
 30
0.0
 40
0.333333
 41
0.333333
  0
VERTEX
  8
0
 10
493.978
 20
512.107
 30
0.0
 40
0.333333
 41
0.333333
  0
VERTEX
  8
0
 10
493.978
 20
512.146
 30
0.0
 40
0.333333
 41
0.333333
  0
VERTEX
  8
0
 10
493.978
 20
512.183
 30
0.0
 40
0.333333
 41
0.333333
  0
VERTEX
  8
0
 10
493.985
 20
512.299
 30
0.0
 40
0.333333
 41
0.333333
  0
VERTEX
  8
0
 10
494.008
 20
512.447
 30
0.0
 40
0.333333
 41
0.333333
  0
VERTEX
  8
0
 10
494.044
 20
512.592
 30
0.0
 40
0.333333
 41
0.333333
  0
VERTEX
  8
0
 10
494.094
 20
512.729
 30
0.0
 40
0.333333
 41
0.333333
  0
VERTEX
  8
0
 10
494.158
 20
512.86
 30
0.0
 40
0.333333
 41
0.333333
  0
VERTEX
  8
0
 10
494.233
 20
512.985
 30
0.0
 40
0.333333
 41
0.333333
  0
VERTEX
  8
0
 10
494.319
 20
513.1
 30
0.0
 40
0.333333
 41
0.333333
  0
VERTEX
  8
0
 10
494.417
 20
513.206
 30
0.0
 40
0.333333
 41
0.333333
  0
VERTEX
  8
0
 10
494.524
 20
513.303
 30
0.0
 40
0.333333
 41
0.333333
  0
VERTEX
  8
0
 10
494.639
 20
513.389
 30
0.0
 40
0.333333
 41
0.333333
  0
VERTEX
  8
0
 10
494.762
 20
513.464
 30
0.0
 40
0.333333
 41
0.333333
  0
VERTEX
  8
0
 10
494.893
 20
513.528
 30
0.0
 40
0.333333
 41
0.333333
  0
VERTEX
  8
0
 10
495.031
 20
513.578
 30
0.0
 40
0.333333
 41
0.333333
  0
VERTEX
  8
0
 10
495.175
 20
513.615
 30
0.0
 40
0.333333
 41
0.333333
  0
VERTEX
  8
0
 10
495.324
 20
513.637
 30
0.0
 40
0.333333
 41
0.333333
  0
VERTEX
  8
0
 10
495.439
 20
513.646
 30
0.0
 40
0.333333
 41
0.333333
  0
VERTEX
  8
0
 10
495.478
 20
513.646
 30
0.0
 40
0.333333
 41
0.333333
  0
VERTEX
  8
0
 10
495.515
 20
513.646
 30
0.0
 40
0.333333
 41
0.333333
  0
VERTEX
  8
0
 10
495.631
 20
513.637
 30
0.0
 40
0.333333
 41
0.333333
  0
VERTEX
  8
0
 10
495.779
 20
513.615
 30
0.0
 40
0.333333
 41
0.333333
  0
VERTEX
  8
0
 10
495.924
 20
513.578
 30
0.0
 40
0.333333
 41
0.333333
  0
VERTEX
  8
0
 10
496.061
 20
513.528
 30
0.0
 40
0.333333
 41
0.333333
  0
VERTEX
  8
0
 10
496.192
 20
513.464
 30
0.0
 40
0.333333
 41
0.333333
  0
VERTEX
  8
0
 10
496.315
 20
513.389
 30
0.0
 40
0.333333
 41
0.333333
  0
VERTEX
  8
0
 10
496.432
 20
513.303
 30
0.0
 40
0.333333
 41
0.333333
  0
VERTEX
  8
0
 10
496.537
 20
513.206
 30
0.0
 40
0.333333
 41
0.333333
  0
VERTEX
  8
0
 10
496.635
 20
513.1
 30
0.0
 40
0.333333
 41
0.333333
  0
VERTEX
  8
0
 10
496.721
 20
512.985
 30
0.0
 40
0.333333
 41
0.333333
  0
VERTEX
  8
0
 10
496.796
 20
512.86
 30
0.0
 40
0.333333
 41
0.333333
  0
VERTEX
  8
0
 10
496.86
 20
512.729
 30
0.0
 40
0.333333
 41
0.333333
  0
VERTEX
  8
0
 10
496.91
 20
512.592
 30
0.0
 40
0.333333
 41
0.333333
  0
VERTEX
  8
0
 10
496.947
 20
512.447
 30
0.0
 40
0.333333
 41
0.333333
  0
VERTEX
  8
0
 10
496.969
 20
512.299
 30
0.0
 40
0.333333
 41
0.333333
  0
VERTEX
  8
0
 10
496.978
 20
512.183
 30
0.0
 40
0.333333
 41
0.333333
  0
VERTEX
  8
0
 10
496.978
 20
512.146
 30
0.0
 40
0.333333
 41
0.333333
  0
SEQEND
 8
0
  0
POLYLINE
  8
0
 62
     0
 66
     1
 10
0
 20
0
 30
0.0
 70
     1
 40
24
 41
24
  0
VERTEX
  8
0
 10
496.978
 20
527.896
 30
0.0
 40
0.333333
 41
0.333333
  0
VERTEX
  8
0
 10
496.978
 20
527.857
 30
0.0
 40
0.333333
 41
0.333333
  0
VERTEX
  8
0
 10
496.969
 20
527.742
 30
0.0
 40
0.333333
 41
0.333333
  0
VERTEX
  8
0
 10
496.947
 20
527.593
 30
0.0
 40
0.333333
 41
0.333333
  0
VERTEX
  8
0
 10
496.91
 20
527.45
 30
0.0
 40
0.333333
 41
0.333333
  0
VERTEX
  8
0
 10
496.86
 20
527.311
 30
0.0
 40
0.333333
 41
0.333333
  0
VERTEX
  8
0
 10
496.796
 20
527.181
 30
0.0
 40
0.333333
 41
0.333333
  0
VERTEX
  8
0
 10
496.721
 20
527.057
 30
0.0
 40
0.333333
 41
0.333333
  0
VERTEX
  8
0
 10
496.635
 20
526.942
 30
0.0
 40
0.333333
 41
0.333333
  0
VERTEX
  8
0
 10
496.537
 20
526.835
 30
0.0
 40
0.333333
 41
0.333333
  0
VERTEX
  8
0
 10
496.432
 20
526.738
 30
0.0
 40
0.333333
 41
0.333333
  0
VERTEX
  8
0
 10
496.315
 20
526.651
 30
0.0
 40
0.333333
 41
0.333333
  0
VERTEX
  8
0
 10
496.192
 20
526.576
 30
0.0
 40
0.333333
 41
0.333333
  0
VERTEX
  8
0
 10
496.061
 20
526.514
 30
0.0
 40
0.333333
 41
0.333333
  0
VERTEX
  8
0
 10
495.924
 20
526.463
 30
0.0
 40
0.333333
 41
0.333333
  0
VERTEX
  8
0
 10
495.779
 20
526.426
 30
0.0
 40
0.333333
 41
0.333333
  0
VERTEX
  8
0
 10
495.631
 20
526.403
 30
0.0
 40
0.333333
 41
0.333333
  0
VERTEX
  8
0
 10
495.515
 20
526.396
 30
0.0
 40
0.333333
 41
0.333333
  0
VERTEX
  8
0
 10
495.478
 20
526.396
 30
0.0
 40
0.333333
 41
0.333333
  0
VERTEX
  8
0
 10
495.439
 20
526.396
 30
0.0
 40
0.333333
 41
0.333333
  0
VERTEX
  8
0
 10
495.324
 20
526.403
 30
0.0
 40
0.333333
 41
0.333333
  0
VERTEX
  8
0
 10
495.175
 20
526.426
 30
0.0
 40
0.333333
 41
0.333333
  0
VERTEX
  8
0
 10
495.031
 20
526.463
 30
0.0
 40
0.333333
 41
0.333333
  0
VERTEX
  8
0
 10
494.893
 20
526.514
 30
0.0
 40
0.333333
 41
0.333333
  0
VERTEX
  8
0
 10
494.762
 20
526.576
 30
0.0
 40
0.333333
 41
0.333333
  0
VERTEX
  8
0
 10
494.639
 20
526.651
 30
0.0
 40
0.333333
 41
0.333333
  0
VERTEX
  8
0
 10
494.524
 20
526.738
 30
0.0
 40
0.333333
 41
0.333333
  0
VERTEX
  8
0
 10
494.417
 20
526.835
 30
0.0
 40
0.333333
 41
0.333333
  0
VERTEX
  8
0
 10
494.319
 20
526.942
 30
0.0
 40
0.333333
 41
0.333333
  0
VERTEX
  8
0
 10
494.233
 20
527.057
 30
0.0
 40
0.333333
 41
0.333333
  0
VERTEX
  8
0
 10
494.158
 20
527.181
 30
0.0
 40
0.333333
 41
0.333333
  0
VERTEX
  8
0
 10
494.094
 20
527.311
 30
0.0
 40
0.333333
 41
0.333333
  0
VERTEX
  8
0
 10
494.044
 20
527.45
 30
0.0
 40
0.333333
 41
0.333333
  0
VERTEX
  8
0
 10
494.008
 20
527.593
 30
0.0
 40
0.333333
 41
0.333333
  0
VERTEX
  8
0
 10
493.985
 20
527.742
 30
0.0
 40
0.333333
 41
0.333333
  0
VERTEX
  8
0
 10
493.978
 20
527.857
 30
0.0
 40
0.333333
 41
0.333333
  0
VERTEX
  8
0
 10
493.978
 20
527.896
 30
0.0
 40
0.333333
 41
0.333333
  0
VERTEX
  8
0
 10
493.978
 20
527.933
 30
0.0
 40
0.333333
 41
0.333333
  0
VERTEX
  8
0
 10
493.985
 20
528.049
 30
0.0
 40
0.333333
 41
0.333333
  0
VERTEX
  8
0
 10
494.008
 20
528.197
 30
0.0
 40
0.333333
 41
0.333333
  0
VERTEX
  8
0
 10
494.044
 20
528.342
 30
0.0
 40
0.333333
 41
0.333333
  0
VERTEX
  8
0
 10
494.094
 20
528.479
 30
0.0
 40
0.333333
 41
0.333333
  0
VERTEX
  8
0
 10
494.158
 20
528.61
 30
0.0
 40
0.333333
 41
0.333333
  0
VERTEX
  8
0
 10
494.233
 20
528.735
 30
0.0
 40
0.333333
 41
0.333333
  0
VERTEX
  8
0
 10
494.319
 20
528.85
 30
0.0
 40
0.333333
 41
0.333333
  0
VERTEX
  8
0
 10
494.417
 20
528.956
 30
0.0
 40
0.333333
 41
0.333333
  0
VERTEX
  8
0
 10
494.524
 20
529.053
 30
0.0
 40
0.333333
 41
0.333333
  0
VERTEX
  8
0
 10
494.639
 20
529.139
 30
0.0
 40
0.333333
 41
0.333333
  0
VERTEX
  8
0
 10
494.762
 20
529.214
 30
0.0
 40
0.333333
 41
0.333333
  0
VERTEX
  8
0
 10
494.893
 20
529.278
 30
0.0
 40
0.333333
 41
0.333333
  0
VERTEX
  8
0
 10
495.031
 20
529.328
 30
0.0
 40
0.333333
 41
0.333333
  0
VERTEX
  8
0
 10
495.175
 20
529.365
 30
0.0
 40
0.333333
 41
0.333333
  0
VERTEX
  8
0
 10
495.324
 20
529.387
 30
0.0
 40
0.333333
 41
0.333333
  0
VERTEX
  8
0
 10
495.439
 20
529.396
 30
0.0
 40
0.333333
 41
0.333333
  0
VERTEX
  8
0
 10
495.478
 20
529.396
 30
0.0
 40
0.333333
 41
0.333333
  0
VERTEX
  8
0
 10
495.515
 20
529.396
 30
0.0
 40
0.333333
 41
0.333333
  0
VERTEX
  8
0
 10
495.631
 20
529.387
 30
0.0
 40
0.333333
 41
0.333333
  0
VERTEX
  8
0
 10
495.779
 20
529.365
 30
0.0
 40
0.333333
 41
0.333333
  0
VERTEX
  8
0
 10
495.924
 20
529.328
 30
0.0
 40
0.333333
 41
0.333333
  0
VERTEX
  8
0
 10
496.061
 20
529.278
 30
0.0
 40
0.333333
 41
0.333333
  0
VERTEX
  8
0
 10
496.192
 20
529.214
 30
0.0
 40
0.333333
 41
0.333333
  0
VERTEX
  8
0
 10
496.315
 20
529.139
 30
0.0
 40
0.333333
 41
0.333333
  0
VERTEX
  8
0
 10
496.432
 20
529.053
 30
0.0
 40
0.333333
 41
0.333333
  0
VERTEX
  8
0
 10
496.537
 20
528.956
 30
0.0
 40
0.333333
 41
0.333333
  0
VERTEX
  8
0
 10
496.635
 20
528.85
 30
0.0
 40
0.333333
 41
0.333333
  0
VERTEX
  8
0
 10
496.721
 20
528.735
 30
0.0
 40
0.333333
 41
0.333333
  0
VERTEX
  8
0
 10
496.796
 20
528.61
 30
0.0
 40
0.333333
 41
0.333333
  0
VERTEX
  8
0
 10
496.86
 20
528.479
 30
0.0
 40
0.333333
 41
0.333333
  0
VERTEX
  8
0
 10
496.91
 20
528.342
 30
0.0
 40
0.333333
 41
0.333333
  0
VERTEX
  8
0
 10
496.947
 20
528.197
 30
0.0
 40
0.333333
 41
0.333333
  0
VERTEX
  8
0
 10
496.969
 20
528.049
 30
0.0
 40
0.333333
 41
0.333333
  0
VERTEX
  8
0
 10
496.978
 20
527.933
 30
0.0
 40
0.333333
 41
0.333333
  0
VERTEX
  8
0
 10
496.978
 20
527.896
 30
0.0
 40
0.333333
 41
0.333333
  0
SEQEND
 8
0
  0
POLYLINE
  8
0
 62
     0
 66
     1
 10
0
 20
0
 30
0.0
 70
     1
 40
24
 41
24
  0
VERTEX
  8
0
 10
20.7264
 20
527.896
 30
0.0
 40
0.333333
 41
0.333333
  0
VERTEX
  8
0
 10
20.7264
 20
527.857
 30
0.0
 40
0.333333
 41
0.333333
  0
VERTEX
  8
0
 10
20.7186
 20
527.742
 30
0.0
 40
0.333333
 41
0.333333
  0
VERTEX
  8
0
 10
20.696
 20
527.593
 30
0.0
 40
0.333333
 41
0.333333
  0
VERTEX
  8
0
 10
20.659
 20
527.45
 30
0.0
 40
0.333333
 41
0.333333
  0
VERTEX
  8
0
 10
20.6085
 20
527.311
 30
0.0
 40
0.333333
 41
0.333333
  0
VERTEX
  8
0
 10
20.5454
 20
527.181
 30
0.0
 40
0.333333
 41
0.333333
  0
VERTEX
  8
0
 10
20.4703
 20
527.057
 30
0.0
 40
0.333333
 41
0.333333
  0
VERTEX
  8
0
 10
20.3839
 20
526.942
 30
0.0
 40
0.333333
 41
0.333333
  0
VERTEX
  8
0
 10
20.2871
 20
526.835
 30
0.0
 40
0.333333
 41
0.333333
  0
VERTEX
  8
0
 10
20.1806
 20
526.738
 30
0.0
 40
0.333333
 41
0.333333
  0
VERTEX
  8
0
 10
20.065
 20
526.651
 30
0.0
 40
0.333333
 41
0.333333
  0
VERTEX
  8
0
 10
19.9414
 20
526.576
 30
0.0
 40
0.333333
 41
0.333333
  0
VERTEX
  8
0
 10
19.8103
 20
526.514
 30
0.0
 40
0.333333
 41
0.333333
  0
VERTEX
  8
0
 10
19.6724
 20
526.463
 30
0.0
 40
0.333333
 41
0.333333
  0
VERTEX
  8
0
 10
19.5287
 20
526.426
 30
0.0
 40
0.333333
 41
0.333333
  0
VERTEX
  8
0
 10
19.3797
 20
526.403
 30
0.0
 40
0.333333
 41
0.333333
  0
VERTEX
  8
0
 10
19.2647
 20
526.396
 30
0.0
 40
0.333333
 41
0.333333
  0
VERTEX
  8
0
 10
19.2264
 20
526.396
 30
0.0
 40
0.333333
 41
0.333333
  0
VERTEX
  8
0
 10
19.1881
 20
526.396
 30
0.0
 40
0.333333
 41
0.333333
  0
VERTEX
  8
0
 10
19.0731
 20
526.403
 30
0.0
 40
0.333333
 41
0.333333
  0
VERTEX
  8
0
 10
18.9242
 20
526.426
 30
0.0
 40
0.333333
 41
0.333333
  0
VERTEX
  8
0
 10
18.7803
 20
526.463
 30
0.0
 40
0.333333
 41
0.333333
  0
VERTEX
  8
0
 10
18.6425
 20
526.514
 30
0.0
 40
0.333333
 41
0.333333
  0
VERTEX
  8
0
 10
18.5114
 20
526.576
 30
0.0
 40
0.333333
 41
0.333333
  0
VERTEX
  8
0
 10
18.3876
 20
526.651
 30
0.0
 40
0.333333
 41
0.333333
  0
VERTEX
  8
0
 10
18.2722
 20
526.738
 30
0.0
 40
0.333333
 41
0.333333
  0
VERTEX
  8
0
 10
18.1657
 20
526.835
 30
0.0
 40
0.333333
 41
0.333333
  0
VERTEX
  8
0
 10
18.0689
 20
526.942
 30
0.0
 40
0.333333
 41
0.333333
  0
VERTEX
  8
0
 10
17.9825
 20
527.057
 30
0.0
 40
0.333333
 41
0.333333
  0
VERTEX
  8
0
 10
17.9075
 20
527.181
 30
0.0
 40
0.333333
 41
0.333333
  0
VERTEX
  8
0
 10
17.8443
 20
527.311
 30
0.0
 40
0.333333
 41
0.333333
  0
VERTEX
  8
0
 10
17.7939
 20
527.45
 30
0.0
 40
0.333333
 41
0.333333
  0
VERTEX
  8
0
 10
17.7568
 20
527.593
 30
0.0
 40
0.333333
 41
0.333333
  0
VERTEX
  8
0
 10
17.7342
 20
527.742
 30
0.0
 40
0.333333
 41
0.333333
  0
VERTEX
  8
0
 10
17.7264
 20
527.857
 30
0.0
 40
0.333333
 41
0.333333
  0
VERTEX
  8
0
 10
17.7264
 20
527.896
 30
0.0
 40
0.333333
 41
0.333333
  0
VERTEX
  8
0
 10
17.7264
 20
527.933
 30
0.0
 40
0.333333
 41
0.333333
  0
VERTEX
  8
0
 10
17.7342
 20
528.049
 30
0.0
 40
0.333333
 41
0.333333
  0
VERTEX
  8
0
 10
17.7568
 20
528.197
 30
0.0
 40
0.333333
 41
0.333333
  0
VERTEX
  8
0
 10
17.7939
 20
528.342
 30
0.0
 40
0.333333
 41
0.333333
  0
VERTEX
  8
0
 10
17.8443
 20
528.479
 30
0.0
 40
0.333333
 41
0.333333
  0
VERTEX
  8
0
 10
17.9075
 20
528.61
 30
0.0
 40
0.333333
 41
0.333333
  0
VERTEX
  8
0
 10
17.9825
 20
528.735
 30
0.0
 40
0.333333
 41
0.333333
  0
VERTEX
  8
0
 10
18.0689
 20
528.85
 30
0.0
 40
0.333333
 41
0.333333
  0
VERTEX
  8
0
 10
18.1657
 20
528.956
 30
0.0
 40
0.333333
 41
0.333333
  0
VERTEX
  8
0
 10
18.2722
 20
529.053
 30
0.0
 40
0.333333
 41
0.333333
  0
VERTEX
  8
0
 10
18.3876
 20
529.139
 30
0.0
 40
0.333333
 41
0.333333
  0
VERTEX
  8
0
 10
18.5114
 20
529.214
 30
0.0
 40
0.333333
 41
0.333333
  0
VERTEX
  8
0
 10
18.6425
 20
529.278
 30
0.0
 40
0.333333
 41
0.333333
  0
VERTEX
  8
0
 10
18.7803
 20
529.328
 30
0.0
 40
0.333333
 41
0.333333
  0
VERTEX
  8
0
 10
18.9242
 20
529.365
 30
0.0
 40
0.333333
 41
0.333333
  0
VERTEX
  8
0
 10
19.0731
 20
529.387
 30
0.0
 40
0.333333
 41
0.333333
  0
VERTEX
  8
0
 10
19.1881
 20
529.396
 30
0.0
 40
0.333333
 41
0.333333
  0
VERTEX
  8
0
 10
19.2264
 20
529.396
 30
0.0
 40
0.333333
 41
0.333333
  0
VERTEX
  8
0
 10
19.2647
 20
529.396
 30
0.0
 40
0.333333
 41
0.333333
  0
VERTEX
  8
0
 10
19.3797
 20
529.387
 30
0.0
 40
0.333333
 41
0.333333
  0
VERTEX
  8
0
 10
19.5287
 20
529.365
 30
0.0
 40
0.333333
 41
0.333333
  0
VERTEX
  8
0
 10
19.6724
 20
529.328
 30
0.0
 40
0.333333
 41
0.333333
  0
VERTEX
  8
0
 10
19.8103
 20
529.278
 30
0.0
 40
0.333333
 41
0.333333
  0
VERTEX
  8
0
 10
19.9414
 20
529.214
 30
0.0
 40
0.333333
 41
0.333333
  0
VERTEX
  8
0
 10
20.065
 20
529.139
 30
0.0
 40
0.333333
 41
0.333333
  0
VERTEX
  8
0
 10
20.1806
 20
529.053
 30
0.0
 40
0.333333
 41
0.333333
  0
VERTEX
  8
0
 10
20.2871
 20
528.956
 30
0.0
 40
0.333333
 41
0.333333
  0
VERTEX
  8
0
 10
20.3839
 20
528.85
 30
0.0
 40
0.333333
 41
0.333333
  0
VERTEX
  8
0
 10
20.4703
 20
528.735
 30
0.0
 40
0.333333
 41
0.333333
  0
VERTEX
  8
0
 10
20.5454
 20
528.61
 30
0.0
 40
0.333333
 41
0.333333
  0
VERTEX
  8
0
 10
20.6085
 20
528.479
 30
0.0
 40
0.333333
 41
0.333333
  0
VERTEX
  8
0
 10
20.659
 20
528.342
 30
0.0
 40
0.333333
 41
0.333333
  0
VERTEX
  8
0
 10
20.696
 20
528.197
 30
0.0
 40
0.333333
 41
0.333333
  0
VERTEX
  8
0
 10
20.7186
 20
528.049
 30
0.0
 40
0.333333
 41
0.333333
  0
VERTEX
  8
0
 10
20.7264
 20
527.933
 30
0.0
 40
0.333333
 41
0.333333
  0
VERTEX
  8
0
 10
20.7264
 20
527.896
 30
0.0
 40
0.333333
 41
0.333333
  0
SEQEND
 8
0
  0
POLYLINE
  8
0
 62
     0
 66
     1
 10
0
 20
0
 30
0.0
 70
     1
 40
24
 41
24
  0
VERTEX
  8
0
 10
20.7264
 20
512.146
 30
0.0
 40
0.333333
 41
0.333333
  0
VERTEX
  8
0
 10
20.7264
 20
512.107
 30
0.0
 40
0.333333
 41
0.333333
  0
VERTEX
  8
0
 10
20.7186
 20
511.992
 30
0.0
 40
0.333333
 41
0.333333
  0
VERTEX
  8
0
 10
20.696
 20
511.843
 30
0.0
 40
0.333333
 41
0.333333
  0
VERTEX
  8
0
 10
20.659
 20
511.7
 30
0.0
 40
0.333333
 41
0.333333
  0
VERTEX
  8
0
 10
20.6085
 20
511.561
 30
0.0
 40
0.333333
 41
0.333333
  0
VERTEX
  8
0
 10
20.5454
 20
511.431
 30
0.0
 40
0.333333
 41
0.333333
  0
VERTEX
  8
0
 10
20.4703
 20
511.307
 30
0.0
 40
0.333333
 41
0.333333
  0
VERTEX
  8
0
 10
20.3839
 20
511.192
 30
0.0
 40
0.333333
 41
0.333333
  0
VERTEX
  8
0
 10
20.2871
 20
511.085
 30
0.0
 40
0.333333
 41
0.333333
  0
VERTEX
  8
0
 10
20.1806
 20
510.988
 30
0.0
 40
0.333333
 41
0.333333
  0
VERTEX
  8
0
 10
20.065
 20
510.901
 30
0.0
 40
0.333333
 41
0.333333
  0
VERTEX
  8
0
 10
19.9414
 20
510.826
 30
0.0
 40
0.333333
 41
0.333333
  0
VERTEX
  8
0
 10
19.8103
 20
510.764
 30
0.0
 40
0.333333
 41
0.333333
  0
VERTEX
  8
0
 10
19.6724
 20
510.713
 30
0.0
 40
0.333333
 41
0.333333
  0
VERTEX
  8
0
 10
19.5287
 20
510.676
 30
0.0
 40
0.333333
 41
0.333333
  0
VERTEX
  8
0
 10
19.3797
 20
510.653
 30
0.0
 40
0.333333
 41
0.333333
  0
VERTEX
  8
0
 10
19.2647
 20
510.646
 30
0.0
 40
0.333333
 41
0.333333
  0
VERTEX
  8
0
 10
19.2264
 20
510.646
 30
0.0
 40
0.333333
 41
0.333333
  0
VERTEX
  8
0
 10
19.1881
 20
510.646
 30
0.0
 40
0.333333
 41
0.333333
  0
VERTEX
  8
0
 10
19.0731
 20
510.653
 30
0.0
 40
0.333333
 41
0.333333
  0
VERTEX
  8
0
 10
18.9242
 20
510.676
 30
0.0
 40
0.333333
 41
0.333333
  0
VERTEX
  8
0
 10
18.7803
 20
510.713
 30
0.0
 40
0.333333
 41
0.333333
  0
VERTEX
  8
0
 10
18.6425
 20
510.764
 30
0.0
 40
0.333333
 41
0.333333
  0
VERTEX
  8
0
 10
18.5114
 20
510.826
 30
0.0
 40
0.333333
 41
0.333333
  0
VERTEX
  8
0
 10
18.3876
 20
510.901
 30
0.0
 40
0.333333
 41
0.333333
  0
VERTEX
  8
0
 10
18.2722
 20
510.988
 30
0.0
 40
0.333333
 41
0.333333
  0
VERTEX
  8
0
 10
18.1657
 20
511.085
 30
0.0
 40
0.333333
 41
0.333333
  0
VERTEX
  8
0
 10
18.0689
 20
511.192
 30
0.0
 40
0.333333
 41
0.333333
  0
VERTEX
  8
0
 10
17.9825
 20
511.307
 30
0.0
 40
0.333333
 41
0.333333
  0
VERTEX
  8
0
 10
17.9075
 20
511.431
 30
0.0
 40
0.333333
 41
0.333333
  0
VERTEX
  8
0
 10
17.8443
 20
511.561
 30
0.0
 40
0.333333
 41
0.333333
  0
VERTEX
  8
0
 10
17.7939
 20
511.7
 30
0.0
 40
0.333333
 41
0.333333
  0
VERTEX
  8
0
 10
17.7568
 20
511.843
 30
0.0
 40
0.333333
 41
0.333333
  0
VERTEX
  8
0
 10
17.7342
 20
511.992
 30
0.0
 40
0.333333
 41
0.333333
  0
VERTEX
  8
0
 10
17.7264
 20
512.107
 30
0.0
 40
0.333333
 41
0.333333
  0
VERTEX
  8
0
 10
17.7264
 20
512.146
 30
0.0
 40
0.333333
 41
0.333333
  0
VERTEX
  8
0
 10
17.7264
 20
512.183
 30
0.0
 40
0.333333
 41
0.333333
  0
VERTEX
  8
0
 10
17.7342
 20
512.299
 30
0.0
 40
0.333333
 41
0.333333
  0
VERTEX
  8
0
 10
17.7568
 20
512.447
 30
0.0
 40
0.333333
 41
0.333333
  0
VERTEX
  8
0
 10
17.7939
 20
512.592
 30
0.0
 40
0.333333
 41
0.333333
  0
VERTEX
  8
0
 10
17.8443
 20
512.729
 30
0.0
 40
0.333333
 41
0.333333
  0
VERTEX
  8
0
 10
17.9075
 20
512.86
 30
0.0
 40
0.333333
 41
0.333333
  0
VERTEX
  8
0
 10
17.9825
 20
512.985
 30
0.0
 40
0.333333
 41
0.333333
  0
VERTEX
  8
0
 10
18.0689
 20
513.1
 30
0.0
 40
0.333333
 41
0.333333
  0
VERTEX
  8
0
 10
18.1657
 20
513.206
 30
0.0
 40
0.333333
 41
0.333333
  0
VERTEX
  8
0
 10
18.2722
 20
513.303
 30
0.0
 40
0.333333
 41
0.333333
  0
VERTEX
  8
0
 10
18.3876
 20
513.389
 30
0.0
 40
0.333333
 41
0.333333
  0
VERTEX
  8
0
 10
18.5114
 20
513.464
 30
0.0
 40
0.333333
 41
0.333333
  0
VERTEX
  8
0
 10
18.6425
 20
513.528
 30
0.0
 40
0.333333
 41
0.333333
  0
VERTEX
  8
0
 10
18.7803
 20
513.578
 30
0.0
 40
0.333333
 41
0.333333
  0
VERTEX
  8
0
 10
18.9242
 20
513.615
 30
0.0
 40
0.333333
 41
0.333333
  0
VERTEX
  8
0
 10
19.0731
 20
513.637
 30
0.0
 40
0.333333
 41
0.333333
  0
VERTEX
  8
0
 10
19.1881
 20
513.646
 30
0.0
 40
0.333333
 41
0.333333
  0
VERTEX
  8
0
 10
19.2264
 20
513.646
 30
0.0
 40
0.333333
 41
0.333333
  0
VERTEX
  8
0
 10
19.2647
 20
513.646
 30
0.0
 40
0.333333
 41
0.333333
  0
VERTEX
  8
0
 10
19.3797
 20
513.637
 30
0.0
 40
0.333333
 41
0.333333
  0
VERTEX
  8
0
 10
19.5287
 20
513.615
 30
0.0
 40
0.333333
 41
0.333333
  0
VERTEX
  8
0
 10
19.6724
 20
513.578
 30
0.0
 40
0.333333
 41
0.333333
  0
VERTEX
  8
0
 10
19.8103
 20
513.528
 30
0.0
 40
0.333333
 41
0.333333
  0
VERTEX
  8
0
 10
19.9414
 20
513.464
 30
0.0
 40
0.333333
 41
0.333333
  0
VERTEX
  8
0
 10
20.065
 20
513.389
 30
0.0
 40
0.333333
 41
0.333333
  0
VERTEX
  8
0
 10
20.1806
 20
513.303
 30
0.0
 40
0.333333
 41
0.333333
  0
VERTEX
  8
0
 10
20.2871
 20
513.206
 30
0.0
 40
0.333333
 41
0.333333
  0
VERTEX
  8
0
 10
20.3839
 20
513.1
 30
0.0
 40
0.333333
 41
0.333333
  0
VERTEX
  8
0
 10
20.4703
 20
512.985
 30
0.0
 40
0.333333
 41
0.333333
  0
VERTEX
  8
0
 10
20.5454
 20
512.86
 30
0.0
 40
0.333333
 41
0.333333
  0
VERTEX
  8
0
 10
20.6085
 20
512.729
 30
0.0
 40
0.333333
 41
0.333333
  0
VERTEX
  8
0
 10
20.659
 20
512.592
 30
0.0
 40
0.333333
 41
0.333333
  0
VERTEX
  8
0
 10
20.696
 20
512.447
 30
0.0
 40
0.333333
 41
0.333333
  0
VERTEX
  8
0
 10
20.7186
 20
512.299
 30
0.0
 40
0.333333
 41
0.333333
  0
VERTEX
  8
0
 10
20.7264
 20
512.183
 30
0.0
 40
0.333333
 41
0.333333
  0
VERTEX
  8
0
 10
20.7264
 20
512.146
 30
0.0
 40
0.333333
 41
0.333333
  0
SEQEND
 8
0
  0
POLYLINE
  8
0
 62
     0
 66
     1
 10
0
 20
0
 30
0.0
 70
     1
 40
24
 41
24
  0
VERTEX
  8
0
 10
20.7264
 20
281.331
 30
0.0
 40
0.333333
 41
0.333333
  0
VERTEX
  8
0
 10
20.7264
 20
281.293
 30
0.0
 40
0.333333
 41
0.333333
  0
VERTEX
  8
0
 10
20.7188
 20
281.178
 30
0.0
 40
0.333333
 41
0.333333
  0
VERTEX
  8
0
 10
20.696
 20
281.029
 30
0.0
 40
0.333333
 41
0.333333
  0
VERTEX
  8
0
 10
20.659
 20
280.885
 30
0.0
 40
0.333333
 41
0.333333
  0
VERTEX
  8
0
 10
20.6086
 20
280.747
 30
0.0
 40
0.333333
 41
0.333333
  0
VERTEX
  8
0
 10
20.5454
 20
280.615
 30
0.0
 40
0.333333
 41
0.333333
  0
VERTEX
  8
0
 10
20.4703
 20
280.492
 30
0.0
 40
0.333333
 41
0.333333
  0
VERTEX
  8
0
 10
20.3839
 20
280.376
 30
0.0
 40
0.333333
 41
0.333333
  0
VERTEX
  8
0
 10
20.2871
 20
280.269
 30
0.0
 40
0.333333
 41
0.333333
  0
VERTEX
  8
0
 10
20.1806
 20
280.174
 30
0.0
 40
0.333333
 41
0.333333
  0
VERTEX
  8
0
 10
20.065
 20
280.088
 30
0.0
 40
0.333333
 41
0.333333
  0
VERTEX
  8
0
 10
19.9414
 20
280.013
 30
0.0
 40
0.333333
 41
0.333333
  0
VERTEX
  8
0
 10
19.8103
 20
279.949
 30
0.0
 40
0.333333
 41
0.333333
  0
VERTEX
  8
0
 10
19.6724
 20
279.899
 30
0.0
 40
0.333333
 41
0.333333
  0
VERTEX
  8
0
 10
19.5287
 20
279.861
 30
0.0
 40
0.333333
 41
0.333333
  0
VERTEX
  8
0
 10
19.3797
 20
279.839
 30
0.0
 40
0.333333
 41
0.333333
  0
VERTEX
  8
0
 10
19.2647
 20
279.831
 30
0.0
 40
0.333333
 41
0.333333
  0
VERTEX
  8
0
 10
19.2264
 20
279.831
 30
0.0
 40
0.333333
 41
0.333333
  0
VERTEX
  8
0
 10
19.1881
 20
279.831
 30
0.0
 40
0.333333
 41
0.333333
  0
VERTEX
  8
0
 10
19.0731
 20
279.839
 30
0.0
 40
0.333333
 41
0.333333
  0
VERTEX
  8
0
 10
18.9242
 20
279.861
 30
0.0
 40
0.333333
 41
0.333333
  0
VERTEX
  8
0
 10
18.7803
 20
279.899
 30
0.0
 40
0.333333
 41
0.333333
  0
VERTEX
  8
0
 10
18.6425
 20
279.949
 30
0.0
 40
0.333333
 41
0.333333
  0
VERTEX
  8
0
 10
18.5114
 20
280.013
 30
0.0
 40
0.333333
 41
0.333333
  0
VERTEX
  8
0
 10
18.3876
 20
280.088
 30
0.0
 40
0.333333
 41
0.333333
  0
VERTEX
  8
0
 10
18.2722
 20
280.174
 30
0.0
 40
0.333333
 41
0.333333
  0
VERTEX
  8
0
 10
18.1657
 20
280.269
 30
0.0
 40
0.333333
 41
0.333333
  0
VERTEX
  8
0
 10
18.0689
 20
280.376
 30
0.0
 40
0.333333
 41
0.333333
  0
VERTEX
  8
0
 10
17.9825
 20
280.492
 30
0.0
 40
0.333333
 41
0.333333
  0
VERTEX
  8
0
 10
17.9075
 20
280.615
 30
0.0
 40
0.333333
 41
0.333333
  0
VERTEX
  8
0
 10
17.8443
 20
280.747
 30
0.0
 40
0.333333
 41
0.333333
  0
VERTEX
  8
0
 10
17.7939
 20
280.885
 30
0.0
 40
0.333333
 41
0.333333
  0
VERTEX
  8
0
 10
17.7568
 20
281.029
 30
0.0
 40
0.333333
 41
0.333333
  0
VERTEX
  8
0
 10
17.7342
 20
281.178
 30
0.0
 40
0.333333
 41
0.333333
  0
VERTEX
  8
0
 10
17.7264
 20
281.293
 30
0.0
 40
0.333333
 41
0.333333
  0
VERTEX
  8
0
 10
17.7264
 20
281.331
 30
0.0
 40
0.333333
 41
0.333333
  0
VERTEX
  8
0
 10
17.7264
 20
281.369
 30
0.0
 40
0.333333
 41
0.333333
  0
VERTEX
  8
0
 10
17.7342
 20
281.485
 30
0.0
 40
0.333333
 41
0.333333
  0
VERTEX
  8
0
 10
17.7568
 20
281.633
 30
0.0
 40
0.333333
 41
0.333333
  0
VERTEX
  8
0
 10
17.7939
 20
281.776
 30
0.0
 40
0.333333
 41
0.333333
  0
VERTEX
  8
0
 10
17.8443
 20
281.915
 30
0.0
 40
0.333333
 41
0.333333
  0
VERTEX
  8
0
 10
17.9075
 20
282.046
 30
0.0
 40
0.333333
 41
0.333333
  0
VERTEX
  8
0
 10
17.9825
 20
282.169
 30
0.0
 40
0.333333
 41
0.333333
  0
VERTEX
  8
0
 10
18.0689
 20
282.285
 30
0.0
 40
0.333333
 41
0.333333
  0
VERTEX
  8
0
 10
18.1657
 20
282.392
 30
0.0
 40
0.333333
 41
0.333333
  0
VERTEX
  8
0
 10
18.2722
 20
282.489
 30
0.0
 40
0.333333
 41
0.333333
  0
VERTEX
  8
0
 10
18.3876
 20
282.575
 30
0.0
 40
0.333333
 41
0.333333
  0
VERTEX
  8
0
 10
18.5114
 20
282.65
 30
0.0
 40
0.333333
 41
0.333333
  0
VERTEX
  8
0
 10
18.6425
 20
282.713
 30
0.0
 40
0.333333
 41
0.333333
  0
VERTEX
  8
0
 10
18.7803
 20
282.764
 30
0.0
 40
0.333333
 41
0.333333
  0
VERTEX
  8
0
 10
18.9242
 20
282.8
 30
0.0
 40
0.333333
 41
0.333333
  0
VERTEX
  8
0
 10
19.0731
 20
282.824
 30
0.0
 40
0.333333
 41
0.333333
  0
VERTEX
  8
0
 10
19.1881
 20
282.831
 30
0.0
 40
0.333333
 41
0.333333
  0
VERTEX
  8
0
 10
19.2264
 20
282.831
 30
0.0
 40
0.333333
 41
0.333333
  0
VERTEX
  8
0
 10
19.2647
 20
282.831
 30
0.0
 40
0.333333
 41
0.333333
  0
VERTEX
  8
0
 10
19.3797
 20
282.824
 30
0.0
 40
0.333333
 41
0.333333
  0
VERTEX
  8
0
 10
19.5287
 20
282.8
 30
0.0
 40
0.333333
 41
0.333333
  0
VERTEX
  8
0
 10
19.6724
 20
282.764
 30
0.0
 40
0.333333
 41
0.333333
  0
VERTEX
  8
0
 10
19.8103
 20
282.713
 30
0.0
 40
0.333333
 41
0.333333
  0
VERTEX
  8
0
 10
19.9414
 20
282.65
 30
0.0
 40
0.333333
 41
0.333333
  0
VERTEX
  8
0
 10
20.065
 20
282.575
 30
0.0
 40
0.333333
 41
0.333333
  0
VERTEX
  8
0
 10
20.1806
 20
282.489
 30
0.0
 40
0.333333
 41
0.333333
  0
VERTEX
  8
0
 10
20.2871
 20
282.392
 30
0.0
 40
0.333333
 41
0.333333
  0
VERTEX
  8
0
 10
20.3839
 20
282.285
 30
0.0
 40
0.333333
 41
0.333333
  0
VERTEX
  8
0
 10
20.4703
 20
282.169
 30
0.0
 40
0.333333
 41
0.333333
  0
VERTEX
  8
0
 10
20.5454
 20
282.046
 30
0.0
 40
0.333333
 41
0.333333
  0
VERTEX
  8
0
 10
20.6086
 20
281.915
 30
0.0
 40
0.333333
 41
0.333333
  0
VERTEX
  8
0
 10
20.659
 20
281.776
 30
0.0
 40
0.333333
 41
0.333333
  0
VERTEX
  8
0
 10
20.696
 20
281.633
 30
0.0
 40
0.333333
 41
0.333333
  0
VERTEX
  8
0
 10
20.7188
 20
281.485
 30
0.0
 40
0.333333
 41
0.333333
  0
VERTEX
  8
0
 10
20.7264
 20
281.369
 30
0.0
 40
0.333333
 41
0.333333
  0
VERTEX
  8
0
 10
20.7264
 20
281.331
 30
0.0
 40
0.333333
 41
0.333333
  0
SEQEND
 8
0
  0
POLYLINE
  8
0
 62
     0
 66
     1
 10
0
 20
0
 30
0.0
 70
     1
 40
24
 41
24
  0
VERTEX
  8
0
 10
20.7264
 20
265.581
 30
0.0
 40
0.333333
 41
0.333333
  0
VERTEX
  8
0
 10
20.7264
 20
265.543
 30
0.0
 40
0.333333
 41
0.333333
  0
VERTEX
  8
0
 10
20.7188
 20
265.428
 30
0.0
 40
0.333333
 41
0.333333
  0
VERTEX
  8
0
 10
20.696
 20
265.278
 30
0.0
 40
0.333333
 41
0.333333
  0
VERTEX
  8
0
 10
20.659
 20
265.135
 30
0.0
 40
0.333333
 41
0.333333
  0
VERTEX
  8
0
 10
20.6086
 20
264.997
 30
0.0
 40
0.333333
 41
0.333333
  0
VERTEX
  8
0
 10
20.5454
 20
264.865
 30
0.0
 40
0.333333
 41
0.333333
  0
VERTEX
  8
0
 10
20.4703
 20
264.742
 30
0.0
 40
0.333333
 41
0.333333
  0
VERTEX
  8
0
 10
20.3839
 20
264.626
 30
0.0
 40
0.333333
 41
0.333333
  0
VERTEX
  8
0
 10
20.2871
 20
264.519
 30
0.0
 40
0.333333
 41
0.333333
  0
VERTEX
  8
0
 10
20.1806
 20
264.424
 30
0.0
 40
0.333333
 41
0.333333
  0
VERTEX
  8
0
 10
20.065
 20
264.338
 30
0.0
 40
0.333333
 41
0.333333
  0
VERTEX
  8
0
 10
19.9414
 20
264.261
 30
0.0
 40
0.333333
 41
0.333333
  0
VERTEX
  8
0
 10
19.8103
 20
264.199
 30
0.0
 40
0.333333
 41
0.333333
  0
VERTEX
  8
0
 10
19.6724
 20
264.149
 30
0.0
 40
0.333333
 41
0.333333
  0
VERTEX
  8
0
 10
19.5287
 20
264.111
 30
0.0
 40
0.333333
 41
0.333333
  0
VERTEX
  8
0
 10
19.3797
 20
264.089
 30
0.0
 40
0.333333
 41
0.333333
  0
VERTEX
  8
0
 10
19.2647
 20
264.081
 30
0.0
 40
0.333333
 41
0.333333
  0
VERTEX
  8
0
 10
19.2264
 20
264.081
 30
0.0
 40
0.333333
 41
0.333333
  0
VERTEX
  8
0
 10
19.1881
 20
264.081
 30
0.0
 40
0.333333
 41
0.333333
  0
VERTEX
  8
0
 10
19.0731
 20
264.089
 30
0.0
 40
0.333333
 41
0.333333
  0
VERTEX
  8
0
 10
18.9242
 20
264.111
 30
0.0
 40
0.333333
 41
0.333333
  0
VERTEX
  8
0
 10
18.7803
 20
264.149
 30
0.0
 40
0.333333
 41
0.333333
  0
VERTEX
  8
0
 10
18.6425
 20
264.199
 30
0.0
 40
0.333333
 41
0.333333
  0
VERTEX
  8
0
 10
18.5114
 20
264.261
 30
0.0
 40
0.333333
 41
0.333333
  0
VERTEX
  8
0
 10
18.3876
 20
264.338
 30
0.0
 40
0.333333
 41
0.333333
  0
VERTEX
  8
0
 10
18.2722
 20
264.424
 30
0.0
 40
0.333333
 41
0.333333
  0
VERTEX
  8
0
 10
18.1657
 20
264.519
 30
0.0
 40
0.333333
 41
0.333333
  0
VERTEX
  8
0
 10
18.0689
 20
264.626
 30
0.0
 40
0.333333
 41
0.333333
  0
VERTEX
  8
0
 10
17.9825
 20
264.742
 30
0.0
 40
0.333333
 41
0.333333
  0
VERTEX
  8
0
 10
17.9075
 20
264.865
 30
0.0
 40
0.333333
 41
0.333333
  0
VERTEX
  8
0
 10
17.8443
 20
264.997
 30
0.0
 40
0.333333
 41
0.333333
  0
VERTEX
  8
0
 10
17.7939
 20
265.135
 30
0.0
 40
0.333333
 41
0.333333
  0
VERTEX
  8
0
 10
17.7568
 20
265.278
 30
0.0
 40
0.333333
 41
0.333333
  0
VERTEX
  8
0
 10
17.7342
 20
265.428
 30
0.0
 40
0.333333
 41
0.333333
  0
VERTEX
  8
0
 10
17.7264
 20
265.543
 30
0.0
 40
0.333333
 41
0.333333
  0
VERTEX
  8
0
 10
17.7264
 20
265.581
 30
0.0
 40
0.333333
 41
0.333333
  0
VERTEX
  8
0
 10
17.7264
 20
265.619
 30
0.0
 40
0.333333
 41
0.333333
  0
VERTEX
  8
0
 10
17.7342
 20
265.735
 30
0.0
 40
0.333333
 41
0.333333
  0
VERTEX
  8
0
 10
17.7568
 20
265.883
 30
0.0
 40
0.333333
 41
0.333333
  0
VERTEX
  8
0
 10
17.7939
 20
266.026
 30
0.0
 40
0.333333
 41
0.333333
  0
VERTEX
  8
0
 10
17.8443
 20
266.165
 30
0.0
 40
0.333333
 41
0.333333
  0
VERTEX
  8
0
 10
17.9075
 20
266.296
 30
0.0
 40
0.333333
 41
0.333333
  0
VERTEX
  8
0
 10
17.9825
 20
266.419
 30
0.0
 40
0.333333
 41
0.333333
  0
VERTEX
  8
0
 10
18.0689
 20
266.535
 30
0.0
 40
0.333333
 41
0.333333
  0
VERTEX
  8
0
 10
18.1657
 20
266.642
 30
0.0
 40
0.333333
 41
0.333333
  0
VERTEX
  8
0
 10
18.2722
 20
266.739
 30
0.0
 40
0.333333
 41
0.333333
  0
VERTEX
  8
0
 10
18.3876
 20
266.825
 30
0.0
 40
0.333333
 41
0.333333
  0
VERTEX
  8
0
 10
18.5114
 20
266.9
 30
0.0
 40
0.333333
 41
0.333333
  0
VERTEX
  8
0
 10
18.6425
 20
266.963
 30
0.0
 40
0.333333
 41
0.333333
  0
VERTEX
  8
0
 10
18.7803
 20
267.014
 30
0.0
 40
0.333333
 41
0.333333
  0
VERTEX
  8
0
 10
18.9242
 20
267.05
 30
0.0
 40
0.333333
 41
0.333333
  0
VERTEX
  8
0
 10
19.0731
 20
267.074
 30
0.0
 40
0.333333
 41
0.333333
  0
VERTEX
  8
0
 10
19.1881
 20
267.081
 30
0.0
 40
0.333333
 41
0.333333
  0
VERTEX
  8
0
 10
19.2264
 20
267.081
 30
0.0
 40
0.333333
 41
0.333333
  0
VERTEX
  8
0
 10
19.2647
 20
267.081
 30
0.0
 40
0.333333
 41
0.333333
  0
VERTEX
  8
0
 10
19.3797
 20
267.074
 30
0.0
 40
0.333333
 41
0.333333
  0
VERTEX
  8
0
 10
19.5287
 20
267.05
 30
0.0
 40
0.333333
 41
0.333333
  0
VERTEX
  8
0
 10
19.6724
 20
267.014
 30
0.0
 40
0.333333
 41
0.333333
  0
VERTEX
  8
0
 10
19.8103
 20
266.963
 30
0.0
 40
0.333333
 41
0.333333
  0
VERTEX
  8
0
 10
19.9414
 20
266.9
 30
0.0
 40
0.333333
 41
0.333333
  0
VERTEX
  8
0
 10
20.065
 20
266.825
 30
0.0
 40
0.333333
 41
0.333333
  0
VERTEX
  8
0
 10
20.1806
 20
266.739
 30
0.0
 40
0.333333
 41
0.333333
  0
VERTEX
  8
0
 10
20.2871
 20
266.642
 30
0.0
 40
0.333333
 41
0.333333
  0
VERTEX
  8
0
 10
20.3839
 20
266.535
 30
0.0
 40
0.333333
 41
0.333333
  0
VERTEX
  8
0
 10
20.4703
 20
266.419
 30
0.0
 40
0.333333
 41
0.333333
  0
VERTEX
  8
0
 10
20.5454
 20
266.296
 30
0.0
 40
0.333333
 41
0.333333
  0
VERTEX
  8
0
 10
20.6086
 20
266.165
 30
0.0
 40
0.333333
 41
0.333333
  0
VERTEX
  8
0
 10
20.659
 20
266.026
 30
0.0
 40
0.333333
 41
0.333333
  0
VERTEX
  8
0
 10
20.696
 20
265.883
 30
0.0
 40
0.333333
 41
0.333333
  0
VERTEX
  8
0
 10
20.7188
 20
265.735
 30
0.0
 40
0.333333
 41
0.333333
  0
VERTEX
  8
0
 10
20.7264
 20
265.619
 30
0.0
 40
0.333333
 41
0.333333
  0
VERTEX
  8
0
 10
20.7264
 20
265.581
 30
0.0
 40
0.333333
 41
0.333333
  0
SEQEND
 8
0
  0
POLYLINE
  8
0
 62
     0
 66
     1
 10
0
 20
0
 30
0.0
 70
     1
 40
24
 41
24
  0
VERTEX
  8
0
 10
496.978
 20
265.581
 30
0.0
 40
0.333333
 41
0.333333
  0
VERTEX
  8
0
 10
496.978
 20
265.543
 30
0.0
 40
0.333333
 41
0.333333
  0
VERTEX
  8
0
 10
496.969
 20
265.428
 30
0.0
 40
0.333333
 41
0.333333
  0
VERTEX
  8
0
 10
496.947
 20
265.278
 30
0.0
 40
0.333333
 41
0.333333
  0
VERTEX
  8
0
 10
496.91
 20
265.135
 30
0.0
 40
0.333333
 41
0.333333
  0
VERTEX
  8
0
 10
496.86
 20
264.997
 30
0.0
 40
0.333333
 41
0.333333
  0
VERTEX
  8
0
 10
496.796
 20
264.865
 30
0.0
 40
0.333333
 41
0.333333
  0
VERTEX
  8
0
 10
496.721
 20
264.742
 30
0.0
 40
0.333333
 41
0.333333
  0
VERTEX
  8
0
 10
496.635
 20
264.626
 30
0.0
 40
0.333333
 41
0.333333
  0
VERTEX
  8
0
 10
496.537
 20
264.519
 30
0.0
 40
0.333333
 41
0.333333
  0
VERTEX
  8
0
 10
496.432
 20
264.424
 30
0.0
 40
0.333333
 41
0.333333
  0
VERTEX
  8
0
 10
496.315
 20
264.338
 30
0.0
 40
0.333333
 41
0.333333
  0
VERTEX
  8
0
 10
496.192
 20
264.261
 30
0.0
 40
0.333333
 41
0.333333
  0
VERTEX
  8
0
 10
496.061
 20
264.199
 30
0.0
 40
0.333333
 41
0.333333
  0
VERTEX
  8
0
 10
495.924
 20
264.149
 30
0.0
 40
0.333333
 41
0.333333
  0
VERTEX
  8
0
 10
495.779
 20
264.111
 30
0.0
 40
0.333333
 41
0.333333
  0
VERTEX
  8
0
 10
495.631
 20
264.089
 30
0.0
 40
0.333333
 41
0.333333
  0
VERTEX
  8
0
 10
495.515
 20
264.081
 30
0.0
 40
0.333333
 41
0.333333
  0
VERTEX
  8
0
 10
495.478
 20
264.081
 30
0.0
 40
0.333333
 41
0.333333
  0
VERTEX
  8
0
 10
495.439
 20
264.081
 30
0.0
 40
0.333333
 41
0.333333
  0
VERTEX
  8
0
 10
495.324
 20
264.089
 30
0.0
 40
0.333333
 41
0.333333
  0
VERTEX
  8
0
 10
495.175
 20
264.111
 30
0.0
 40
0.333333
 41
0.333333
  0
VERTEX
  8
0
 10
495.031
 20
264.149
 30
0.0
 40
0.333333
 41
0.333333
  0
VERTEX
  8
0
 10
494.893
 20
264.199
 30
0.0
 40
0.333333
 41
0.333333
  0
VERTEX
  8
0
 10
494.762
 20
264.261
 30
0.0
 40
0.333333
 41
0.333333
  0
VERTEX
  8
0
 10
494.639
 20
264.338
 30
0.0
 40
0.333333
 41
0.333333
  0
VERTEX
  8
0
 10
494.524
 20
264.424
 30
0.0
 40
0.333333
 41
0.333333
  0
VERTEX
  8
0
 10
494.417
 20
264.519
 30
0.0
 40
0.333333
 41
0.333333
  0
VERTEX
  8
0
 10
494.319
 20
264.626
 30
0.0
 40
0.333333
 41
0.333333
  0
VERTEX
  8
0
 10
494.233
 20
264.742
 30
0.0
 40
0.333333
 41
0.333333
  0
VERTEX
  8
0
 10
494.158
 20
264.865
 30
0.0
 40
0.333333
 41
0.333333
  0
VERTEX
  8
0
 10
494.094
 20
264.997
 30
0.0
 40
0.333333
 41
0.333333
  0
VERTEX
  8
0
 10
494.044
 20
265.135
 30
0.0
 40
0.333333
 41
0.333333
  0
VERTEX
  8
0
 10
494.008
 20
265.278
 30
0.0
 40
0.333333
 41
0.333333
  0
VERTEX
  8
0
 10
493.985
 20
265.428
 30
0.0
 40
0.333333
 41
0.333333
  0
VERTEX
  8
0
 10
493.978
 20
265.543
 30
0.0
 40
0.333333
 41
0.333333
  0
VERTEX
  8
0
 10
493.978
 20
265.581
 30
0.0
 40
0.333333
 41
0.333333
  0
VERTEX
  8
0
 10
493.978
 20
265.619
 30
0.0
 40
0.333333
 41
0.333333
  0
VERTEX
  8
0
 10
493.985
 20
265.735
 30
0.0
 40
0.333333
 41
0.333333
  0
VERTEX
  8
0
 10
494.008
 20
265.883
 30
0.0
 40
0.333333
 41
0.333333
  0
VERTEX
  8
0
 10
494.044
 20
266.026
 30
0.0
 40
0.333333
 41
0.333333
  0
VERTEX
  8
0
 10
494.094
 20
266.165
 30
0.0
 40
0.333333
 41
0.333333
  0
VERTEX
  8
0
 10
494.158
 20
266.296
 30
0.0
 40
0.333333
 41
0.333333
  0
VERTEX
  8
0
 10
494.233
 20
266.419
 30
0.0
 40
0.333333
 41
0.333333
  0
VERTEX
  8
0
 10
494.319
 20
266.535
 30
0.0
 40
0.333333
 41
0.333333
  0
VERTEX
  8
0
 10
494.417
 20
266.642
 30
0.0
 40
0.333333
 41
0.333333
  0
VERTEX
  8
0
 10
494.524
 20
266.739
 30
0.0
 40
0.333333
 41
0.333333
  0
VERTEX
  8
0
 10
494.639
 20
266.825
 30
0.0
 40
0.333333
 41
0.333333
  0
VERTEX
  8
0
 10
494.762
 20
266.9
 30
0.0
 40
0.333333
 41
0.333333
  0
VERTEX
  8
0
 10
494.893
 20
266.963
 30
0.0
 40
0.333333
 41
0.333333
  0
VERTEX
  8
0
 10
495.031
 20
267.014
 30
0.0
 40
0.333333
 41
0.333333
  0
VERTEX
  8
0
 10
495.175
 20
267.05
 30
0.0
 40
0.333333
 41
0.333333
  0
VERTEX
  8
0
 10
495.324
 20
267.074
 30
0.0
 40
0.333333
 41
0.333333
  0
VERTEX
  8
0
 10
495.439
 20
267.081
 30
0.0
 40
0.333333
 41
0.333333
  0
VERTEX
  8
0
 10
495.478
 20
267.081
 30
0.0
 40
0.333333
 41
0.333333
  0
VERTEX
  8
0
 10
495.515
 20
267.081
 30
0.0
 40
0.333333
 41
0.333333
  0
VERTEX
  8
0
 10
495.631
 20
267.074
 30
0.0
 40
0.333333
 41
0.333333
  0
VERTEX
  8
0
 10
495.779
 20
267.05
 30
0.0
 40
0.333333
 41
0.333333
  0
VERTEX
  8
0
 10
495.924
 20
267.014
 30
0.0
 40
0.333333
 41
0.333333
  0
VERTEX
  8
0
 10
496.061
 20
266.963
 30
0.0
 40
0.333333
 41
0.333333
  0
VERTEX
  8
0
 10
496.192
 20
266.9
 30
0.0
 40
0.333333
 41
0.333333
  0
VERTEX
  8
0
 10
496.315
 20
266.825
 30
0.0
 40
0.333333
 41
0.333333
  0
VERTEX
  8
0
 10
496.432
 20
266.739
 30
0.0
 40
0.333333
 41
0.333333
  0
VERTEX
  8
0
 10
496.537
 20
266.642
 30
0.0
 40
0.333333
 41
0.333333
  0
VERTEX
  8
0
 10
496.635
 20
266.535
 30
0.0
 40
0.333333
 41
0.333333
  0
VERTEX
  8
0
 10
496.721
 20
266.419
 30
0.0
 40
0.333333
 41
0.333333
  0
VERTEX
  8
0
 10
496.796
 20
266.296
 30
0.0
 40
0.333333
 41
0.333333
  0
VERTEX
  8
0
 10
496.86
 20
266.165
 30
0.0
 40
0.333333
 41
0.333333
  0
VERTEX
  8
0
 10
496.91
 20
266.026
 30
0.0
 40
0.333333
 41
0.333333
  0
VERTEX
  8
0
 10
496.947
 20
265.883
 30
0.0
 40
0.333333
 41
0.333333
  0
VERTEX
  8
0
 10
496.969
 20
265.735
 30
0.0
 40
0.333333
 41
0.333333
  0
VERTEX
  8
0
 10
496.978
 20
265.619
 30
0.0
 40
0.333333
 41
0.333333
  0
VERTEX
  8
0
 10
496.978
 20
265.581
 30
0.0
 40
0.333333
 41
0.333333
  0
SEQEND
 8
0
  0
POLYLINE
  8
0
 62
     0
 66
     1
 10
0
 20
0
 30
0.0
 70
     1
 40
24
 41
24
  0
VERTEX
  8
0
 10
496.978
 20
281.331
 30
0.0
 40
0.333333
 41
0.333333
  0
VERTEX
  8
0
 10
496.978
 20
281.293
 30
0.0
 40
0.333333
 41
0.333333
  0
VERTEX
  8
0
 10
496.969
 20
281.178
 30
0.0
 40
0.333333
 41
0.333333
  0
VERTEX
  8
0
 10
496.947
 20
281.029
 30
0.0
 40
0.333333
 41
0.333333
  0
VERTEX
  8
0
 10
496.91
 20
280.885
 30
0.0
 40
0.333333
 41
0.333333
  0
VERTEX
  8
0
 10
496.86
 20
280.747
 30
0.0
 40
0.333333
 41
0.333333
  0
VERTEX
  8
0
 10
496.796
 20
280.615
 30
0.0
 40
0.333333
 41
0.333333
  0
VERTEX
  8
0
 10
496.721
 20
280.492
 30
0.0
 40
0.333333
 41
0.333333
  0
VERTEX
  8
0
 10
496.635
 20
280.376
 30
0.0
 40
0.333333
 41
0.333333
  0
VERTEX
  8
0
 10
496.537
 20
280.269
 30
0.0
 40
0.333333
 41
0.333333
  0
VERTEX
  8
0
 10
496.432
 20
280.174
 30
0.0
 40
0.333333
 41
0.333333
  0
VERTEX
  8
0
 10
496.315
 20
280.088
 30
0.0
 40
0.333333
 41
0.333333
  0
VERTEX
  8
0
 10
496.192
 20
280.013
 30
0.0
 40
0.333333
 41
0.333333
  0
VERTEX
  8
0
 10
496.061
 20
279.949
 30
0.0
 40
0.333333
 41
0.333333
  0
VERTEX
  8
0
 10
495.924
 20
279.899
 30
0.0
 40
0.333333
 41
0.333333
  0
VERTEX
  8
0
 10
495.779
 20
279.861
 30
0.0
 40
0.333333
 41
0.333333
  0
VERTEX
  8
0
 10
495.631
 20
279.839
 30
0.0
 40
0.333333
 41
0.333333
  0
VERTEX
  8
0
 10
495.515
 20
279.831
 30
0.0
 40
0.333333
 41
0.333333
  0
VERTEX
  8
0
 10
495.478
 20
279.831
 30
0.0
 40
0.333333
 41
0.333333
  0
VERTEX
  8
0
 10
495.439
 20
279.831
 30
0.0
 40
0.333333
 41
0.333333
  0
VERTEX
  8
0
 10
495.324
 20
279.839
 30
0.0
 40
0.333333
 41
0.333333
  0
VERTEX
  8
0
 10
495.175
 20
279.861
 30
0.0
 40
0.333333
 41
0.333333
  0
VERTEX
  8
0
 10
495.031
 20
279.899
 30
0.0
 40
0.333333
 41
0.333333
  0
VERTEX
  8
0
 10
494.893
 20
279.949
 30
0.0
 40
0.333333
 41
0.333333
  0
VERTEX
  8
0
 10
494.762
 20
280.013
 30
0.0
 40
0.333333
 41
0.333333
  0
VERTEX
  8
0
 10
494.639
 20
280.088
 30
0.0
 40
0.333333
 41
0.333333
  0
VERTEX
  8
0
 10
494.524
 20
280.174
 30
0.0
 40
0.333333
 41
0.333333
  0
VERTEX
  8
0
 10
494.417
 20
280.269
 30
0.0
 40
0.333333
 41
0.333333
  0
VERTEX
  8
0
 10
494.319
 20
280.376
 30
0.0
 40
0.333333
 41
0.333333
  0
VERTEX
  8
0
 10
494.233
 20
280.492
 30
0.0
 40
0.333333
 41
0.333333
  0
VERTEX
  8
0
 10
494.158
 20
280.615
 30
0.0
 40
0.333333
 41
0.333333
  0
VERTEX
  8
0
 10
494.094
 20
280.747
 30
0.0
 40
0.333333
 41
0.333333
  0
VERTEX
  8
0
 10
494.044
 20
280.885
 30
0.0
 40
0.333333
 41
0.333333
  0
VERTEX
  8
0
 10
494.008
 20
281.029
 30
0.0
 40
0.333333
 41
0.333333
  0
VERTEX
  8
0
 10
493.985
 20
281.178
 30
0.0
 40
0.333333
 41
0.333333
  0
VERTEX
  8
0
 10
493.978
 20
281.293
 30
0.0
 40
0.333333
 41
0.333333
  0
VERTEX
  8
0
 10
493.978
 20
281.331
 30
0.0
 40
0.333333
 41
0.333333
  0
VERTEX
  8
0
 10
493.978
 20
281.369
 30
0.0
 40
0.333333
 41
0.333333
  0
VERTEX
  8
0
 10
493.985
 20
281.485
 30
0.0
 40
0.333333
 41
0.333333
  0
VERTEX
  8
0
 10
494.008
 20
281.633
 30
0.0
 40
0.333333
 41
0.333333
  0
VERTEX
  8
0
 10
494.044
 20
281.776
 30
0.0
 40
0.333333
 41
0.333333
  0
VERTEX
  8
0
 10
494.094
 20
281.915
 30
0.0
 40
0.333333
 41
0.333333
  0
VERTEX
  8
0
 10
494.158
 20
282.046
 30
0.0
 40
0.333333
 41
0.333333
  0
VERTEX
  8
0
 10
494.233
 20
282.169
 30
0.0
 40
0.333333
 41
0.333333
  0
VERTEX
  8
0
 10
494.319
 20
282.285
 30
0.0
 40
0.333333
 41
0.333333
  0
VERTEX
  8
0
 10
494.417
 20
282.392
 30
0.0
 40
0.333333
 41
0.333333
  0
VERTEX
  8
0
 10
494.524
 20
282.489
 30
0.0
 40
0.333333
 41
0.333333
  0
VERTEX
  8
0
 10
494.639
 20
282.575
 30
0.0
 40
0.333333
 41
0.333333
  0
VERTEX
  8
0
 10
494.762
 20
282.65
 30
0.0
 40
0.333333
 41
0.333333
  0
VERTEX
  8
0
 10
494.893
 20
282.713
 30
0.0
 40
0.333333
 41
0.333333
  0
VERTEX
  8
0
 10
495.031
 20
282.764
 30
0.0
 40
0.333333
 41
0.333333
  0
VERTEX
  8
0
 10
495.175
 20
282.8
 30
0.0
 40
0.333333
 41
0.333333
  0
VERTEX
  8
0
 10
495.324
 20
282.824
 30
0.0
 40
0.333333
 41
0.333333
  0
VERTEX
  8
0
 10
495.439
 20
282.831
 30
0.0
 40
0.333333
 41
0.333333
  0
VERTEX
  8
0
 10
495.478
 20
282.831
 30
0.0
 40
0.333333
 41
0.333333
  0
VERTEX
  8
0
 10
495.515
 20
282.831
 30
0.0
 40
0.333333
 41
0.333333
  0
VERTEX
  8
0
 10
495.631
 20
282.824
 30
0.0
 40
0.333333
 41
0.333333
  0
VERTEX
  8
0
 10
495.779
 20
282.8
 30
0.0
 40
0.333333
 41
0.333333
  0
VERTEX
  8
0
 10
495.924
 20
282.764
 30
0.0
 40
0.333333
 41
0.333333
  0
VERTEX
  8
0
 10
496.061
 20
282.713
 30
0.0
 40
0.333333
 41
0.333333
  0
VERTEX
  8
0
 10
496.192
 20
282.65
 30
0.0
 40
0.333333
 41
0.333333
  0
VERTEX
  8
0
 10
496.315
 20
282.575
 30
0.0
 40
0.333333
 41
0.333333
  0
VERTEX
  8
0
 10
496.432
 20
282.489
 30
0.0
 40
0.333333
 41
0.333333
  0
VERTEX
  8
0
 10
496.537
 20
282.392
 30
0.0
 40
0.333333
 41
0.333333
  0
VERTEX
  8
0
 10
496.635
 20
282.285
 30
0.0
 40
0.333333
 41
0.333333
  0
VERTEX
  8
0
 10
496.721
 20
282.169
 30
0.0
 40
0.333333
 41
0.333333
  0
VERTEX
  8
0
 10
496.796
 20
282.046
 30
0.0
 40
0.333333
 41
0.333333
  0
VERTEX
  8
0
 10
496.86
 20
281.915
 30
0.0
 40
0.333333
 41
0.333333
  0
VERTEX
  8
0
 10
496.91
 20
281.776
 30
0.0
 40
0.333333
 41
0.333333
  0
VERTEX
  8
0
 10
496.947
 20
281.633
 30
0.0
 40
0.333333
 41
0.333333
  0
VERTEX
  8
0
 10
496.969
 20
281.485
 30
0.0
 40
0.333333
 41
0.333333
  0
VERTEX
  8
0
 10
496.978
 20
281.369
 30
0.0
 40
0.333333
 41
0.333333
  0
VERTEX
  8
0
 10
496.978
 20
281.331
 30
0.0
 40
0.333333
 41
0.333333
  0
SEQEND
 8
0
  0
POLYLINE
  8
0
 62
     0
 66
     1
 10
0
 20
0
 30
0.0
 70
     1
 40
24
 41
24
  0
VERTEX
  8
0
 10
660.578
 20
292.281
 30
0.0
 40
0.333333
 41
0.333333
  0
VERTEX
  8
0
 10
660.578
 20
292.2
 30
0.0
 40
0.333333
 41
0.333333
  0
VERTEX
  8
0
 10
660.561
 20
291.956
 30
0.0
 40
0.333333
 41
0.333333
  0
VERTEX
  8
0
 10
660.512
 20
291.64
 30
0.0
 40
0.333333
 41
0.333333
  0
VERTEX
  8
0
 10
660.435
 20
291.336
 30
0.0
 40
0.333333
 41
0.333333
  0
VERTEX
  8
0
 10
660.328
 20
291.044
 30
0.0
 40
0.333333
 41
0.333333
  0
VERTEX
  8
0
 10
660.194
 20
290.768
 30
0.0
 40
0.333333
 41
0.333333
  0
VERTEX
  8
0
 10
660.035
 20
290.506
 30
0.0
 40
0.333333
 41
0.333333
  0
VERTEX
  8
0
 10
659.853
 20
290.261
 30
0.0
 40
0.333333
 41
0.333333
  0
VERTEX
  8
0
 10
659.647
 20
290.036
 30
0.0
 40
0.333333
 41
0.333333
  0
VERTEX
  8
0
 10
659.422
 20
289.831
 30
0.0
 40
0.333333
 41
0.333333
  0
VERTEX
  8
0
 10
659.178
 20
289.649
 30
0.0
 40
0.333333
 41
0.333333
  0
VERTEX
  8
0
 10
658.915
 20
289.489
 30
0.0
 40
0.333333
 41
0.333333
  0
VERTEX
  8
0
 10
658.639
 20
289.356
 30
0.0
 40
0.333333
 41
0.333333
  0
VERTEX
  8
0
 10
658.346
 20
289.249
 30
0.0
 40
0.333333
 41
0.333333
  0
VERTEX
  8
0
 10
658.042
 20
289.171
 30
0.0
 40
0.333333
 41
0.333333
  0
VERTEX
  8
0
 10
657.726
 20
289.122
 30
0.0
 40
0.333333
 41
0.333333
  0
VERTEX
  8
0
 10
657.483
 20
289.106
 30
0.0
 40
0.333333
 41
0.333333
  0
VERTEX
  8
0
 10
657.403
 20
289.106
 30
0.0
 40
0.333333
 41
0.333333
  0
VERTEX
  8
0
 10
657.321
 20
289.106
 30
0.0
 40
0.333333
 41
0.333333
  0
VERTEX
  8
0
 10
657.078
 20
289.122
 30
0.0
 40
0.333333
 41
0.333333
  0
VERTEX
  8
0
 10
656.762
 20
289.171
 30
0.0
 40
0.333333
 41
0.333333
  0
VERTEX
  8
0
 10
656.458
 20
289.249
 30
0.0
 40
0.333333
 41
0.333333
  0
VERTEX
  8
0
 10
656.167
 20
289.356
 30
0.0
 40
0.333333
 41
0.333333
  0
VERTEX
  8
0
 10
655.889
 20
289.489
 30
0.0
 40
0.333333
 41
0.333333
  0
VERTEX
  8
0
 10
655.628
 20
289.649
 30
0.0
 40
0.333333
 41
0.333333
  0
VERTEX
  8
0
 10
655.383
 20
289.831
 30
0.0
 40
0.333333
 41
0.333333
  0
VERTEX
  8
0
 10
655.157
 20
290.036
 30
0.0
 40
0.333333
 41
0.333333
  0
VERTEX
  8
0
 10
654.953
 20
290.261
 30
0.0
 40
0.333333
 41
0.333333
  0
VERTEX
  8
0
 10
654.769
 20
290.506
 30
0.0
 40
0.333333
 41
0.333333
  0
VERTEX
  8
0
 10
654.611
 20
290.768
 30
0.0
 40
0.333333
 41
0.333333
  0
VERTEX
  8
0
 10
654.476
 20
291.044
 30
0.0
 40
0.333333
 41
0.333333
  0
VERTEX
  8
0
 10
654.371
 20
291.336
 30
0.0
 40
0.333333
 41
0.333333
  0
VERTEX
  8
0
 10
654.292
 20
291.64
 30
0.0
 40
0.333333
 41
0.333333
  0
VERTEX
  8
0
 10
654.244
 20
291.956
 30
0.0
 40
0.333333
 41
0.333333
  0
VERTEX
  8
0
 10
654.228
 20
292.2
 30
0.0
 40
0.333333
 41
0.333333
  0
VERTEX
  8
0
 10
654.228
 20
292.281
 30
0.0
 40
0.333333
 41
0.333333
  0
VERTEX
  8
0
 10
654.228
 20
292.362
 30
0.0
 40
0.333333
 41
0.333333
  0
VERTEX
  8
0
 10
654.244
 20
292.606
 30
0.0
 40
0.333333
 41
0.333333
  0
VERTEX
  8
0
 10
654.292
 20
292.921
 30
0.0
 40
0.333333
 41
0.333333
  0
VERTEX
  8
0
 10
654.371
 20
293.225
 30
0.0
 40
0.333333
 41
0.333333
  0
VERTEX
  8
0
 10
654.476
 20
293.517
 30
0.0
 40
0.333333
 41
0.333333
  0
VERTEX
  8
0
 10
654.611
 20
293.794
 30
0.0
 40
0.333333
 41
0.333333
  0
VERTEX
  8
0
 10
654.769
 20
294.056
 30
0.0
 40
0.333333
 41
0.333333
  0
VERTEX
  8
0
 10
654.953
 20
294.3
 30
0.0
 40
0.333333
 41
0.333333
  0
VERTEX
  8
0
 10
655.157
 20
294.526
 30
0.0
 40
0.333333
 41
0.333333
  0
VERTEX
  8
0
 10
655.383
 20
294.731
 30
0.0
 40
0.333333
 41
0.333333
  0
VERTEX
  8
0
 10
655.628
 20
294.914
 30
0.0
 40
0.333333
 41
0.333333
  0
VERTEX
  8
0
 10
655.889
 20
295.072
 30
0.0
 40
0.333333
 41
0.333333
  0
VERTEX
  8
0
 10
656.167
 20
295.207
 30
0.0
 40
0.333333
 41
0.333333
  0
VERTEX
  8
0
 10
656.458
 20
295.313
 30
0.0
 40
0.333333
 41
0.333333
  0
VERTEX
  8
0
 10
656.762
 20
295.392
 30
0.0
 40
0.333333
 41
0.333333
  0
VERTEX
  8
0
 10
657.078
 20
295.439
 30
0.0
 40
0.333333
 41
0.333333
  0
VERTEX
  8
0
 10
657.321
 20
295.456
 30
0.0
 40
0.333333
 41
0.333333
  0
VERTEX
  8
0
 10
657.403
 20
295.456
 30
0.0
 40
0.333333
 41
0.333333
  0
VERTEX
  8
0
 10
657.483
 20
295.456
 30
0.0
 40
0.333333
 41
0.333333
  0
VERTEX
  8
0
 10
657.726
 20
295.439
 30
0.0
 40
0.333333
 41
0.333333
  0
VERTEX
  8
0
 10
658.042
 20
295.392
 30
0.0
 40
0.333333
 41
0.333333
  0
VERTEX
  8
0
 10
658.346
 20
295.313
 30
0.0
 40
0.333333
 41
0.333333
  0
VERTEX
  8
0
 10
658.639
 20
295.207
 30
0.0
 40
0.333333
 41
0.333333
  0
VERTEX
  8
0
 10
658.915
 20
295.072
 30
0.0
 40
0.333333
 41
0.333333
  0
VERTEX
  8
0
 10
659.178
 20
294.914
 30
0.0
 40
0.333333
 41
0.333333
  0
VERTEX
  8
0
 10
659.422
 20
294.731
 30
0.0
 40
0.333333
 41
0.333333
  0
VERTEX
  8
0
 10
659.647
 20
294.526
 30
0.0
 40
0.333333
 41
0.333333
  0
VERTEX
  8
0
 10
659.853
 20
294.3
 30
0.0
 40
0.333333
 41
0.333333
  0
VERTEX
  8
0
 10
660.035
 20
294.056
 30
0.0
 40
0.333333
 41
0.333333
  0
VERTEX
  8
0
 10
660.194
 20
293.794
 30
0.0
 40
0.333333
 41
0.333333
  0
VERTEX
  8
0
 10
660.328
 20
293.517
 30
0.0
 40
0.333333
 41
0.333333
  0
VERTEX
  8
0
 10
660.435
 20
293.225
 30
0.0
 40
0.333333
 41
0.333333
  0
VERTEX
  8
0
 10
660.512
 20
292.921
 30
0.0
 40
0.333333
 41
0.333333
  0
VERTEX
  8
0
 10
660.561
 20
292.606
 30
0.0
 40
0.333333
 41
0.333333
  0
VERTEX
  8
0
 10
660.578
 20
292.362
 30
0.0
 40
0.333333
 41
0.333333
  0
VERTEX
  8
0
 10
660.578
 20
292.281
 30
0.0
 40
0.333333
 41
0.333333
  0
SEQEND
 8
0
  0
POLYLINE
  8
0
 62
     0
 66
     1
 10
0
 20
0
 30
0.0
 70
     1
 40
24
 41
24
  0
VERTEX
  8
0
 10
681.128
 20
30.1803
 30
0.0
 40
0.333333
 41
0.333333
  0
VERTEX
  8
0
 10
681.128
 20
30.1421
 30
0.0
 40
0.333333
 41
0.333333
  0
VERTEX
  8
0
 10
681.119
 20
30.0271
 30
0.0
 40
0.333333
 41
0.333333
  0
VERTEX
  8
0
 10
681.097
 20
29.8781
 30
0.0
 40
0.333333
 41
0.333333
  0
VERTEX
  8
0
 10
681.06
 20
29.7343
 30
0.0
 40
0.333333
 41
0.333333
  0
VERTEX
  8
0
 10
681.01
 20
29.5965
 30
0.0
 40
0.333333
 41
0.333333
  0
VERTEX
  8
0
 10
680.946
 20
29.4654
 30
0.0
 40
0.333333
 41
0.333333
  0
VERTEX
  8
0
 10
680.871
 20
29.3417
 30
0.0
 40
0.333333
 41
0.333333
  0
VERTEX
  8
0
 10
680.785
 20
29.2263
 30
0.0
 40
0.333333
 41
0.333333
  0
VERTEX
  8
0
 10
680.688
 20
29.1197
 30
0.0
 40
0.333333
 41
0.333333
  0
VERTEX
  8
0
 10
680.582
 20
29.0229
 30
0.0
 40
0.333333
 41
0.333333
  0
VERTEX
  8
0
 10
680.467
 20
28.9365
 30
0.0
 40
0.333333
 41
0.333333
  0
VERTEX
  8
0
 10
680.343
 20
28.8614
 30
0.0
 40
0.333333
 41
0.333333
  0
VERTEX
  8
0
 10
680.211
 20
28.7982
 30
0.0
 40
0.333333
 41
0.333333
  0
VERTEX
  8
0
 10
680.074
 20
28.7478
 30
0.0
 40
0.333333
 41
0.333333
  0
VERTEX
  8
0
 10
679.929
 20
28.7108
 30
0.0
 40
0.333333
 41
0.333333
  0
VERTEX
  8
0
 10
679.781
 20
28.6881
 30
0.0
 40
0.333333
 41
0.333333
  0
VERTEX
  8
0
 10
679.665
 20
28.6803
 30
0.0
 40
0.333333
 41
0.333333
  0
VERTEX
  8
0
 10
679.628
 20
28.6803
 30
0.0
 40
0.333333
 41
0.333333
  0
VERTEX
  8
0
 10
679.589
 20
28.6803
 30
0.0
 40
0.333333
 41
0.333333
  0
VERTEX
  8
0
 10
679.474
 20
28.6881
 30
0.0
 40
0.333333
 41
0.333333
  0
VERTEX
  8
0
 10
679.325
 20
28.7108
 30
0.0
 40
0.333333
 41
0.333333
  0
VERTEX
  8
0
 10
679.182
 20
28.7478
 30
0.0
 40
0.333333
 41
0.333333
  0
VERTEX
  8
0
 10
679.043
 20
28.7982
 30
0.0
 40
0.333333
 41
0.333333
  0
VERTEX
  8
0
 10
678.912
 20
28.8614
 30
0.0
 40
0.333333
 41
0.333333
  0
VERTEX
  8
0
 10
678.789
 20
28.9365
 30
0.0
 40
0.333333
 41
0.333333
  0
VERTEX
  8
0
 10
678.674
 20
29.0229
 30
0.0
 40
0.333333
 41
0.333333
  0
VERTEX
  8
0
 10
678.567
 20
29.1197
 30
0.0
 40
0.333333
 41
0.333333
  0
VERTEX
  8
0
 10
678.469
 20
29.2263
 30
0.0
 40
0.333333
 41
0.333333
  0
VERTEX
  8
0
 10
678.383
 20
29.3417
 30
0.0
 40
0.333333
 41
0.333333
  0
VERTEX
  8
0
 10
678.308
 20
29.4654
 30
0.0
 40
0.333333
 41
0.333333
  0
VERTEX
  8
0
 10
678.246
 20
29.5965
 30
0.0
 40
0.333333
 41
0.333333
  0
VERTEX
  8
0
 10
678.194
 20
29.7343
 30
0.0
 40
0.333333
 41
0.333333
  0
VERTEX
  8
0
 10
678.158
 20
29.8781
 30
0.0
 40
0.333333
 41
0.333333
  0
VERTEX
  8
0
 10
678.135
 20
30.0271
 30
0.0
 40
0.333333
 41
0.333333
  0
VERTEX
  8
0
 10
678.128
 20
30.1421
 30
0.0
 40
0.333333
 41
0.333333
  0
VERTEX
  8
0
 10
678.128
 20
30.1803
 30
0.0
 40
0.333333
 41
0.333333
  0
VERTEX
  8
0
 10
678.128
 20
30.2188
 30
0.0
 40
0.333333
 41
0.333333
  0
VERTEX
  8
0
 10
678.135
 20
30.3338
 30
0.0
 40
0.333333
 41
0.333333
  0
VERTEX
  8
0
 10
678.158
 20
30.4826
 30
0.0
 40
0.333333
 41
0.333333
  0
VERTEX
  8
0
 10
678.194
 20
30.6264
 30
0.0
 40
0.333333
 41
0.333333
  0
VERTEX
  8
0
 10
678.246
 20
30.7643
 30
0.0
 40
0.333333
 41
0.333333
  0
VERTEX
  8
0
 10
678.308
 20
30.8953
 30
0.0
 40
0.333333
 41
0.333333
  0
VERTEX
  8
0
 10
678.383
 20
31.019
 30
0.0
 40
0.333333
 41
0.333333
  0
VERTEX
  8
0
 10
678.469
 20
31.1344
 30
0.0
 40
0.333333
 41
0.333333
  0
VERTEX
  8
0
 10
678.567
 20
31.2411
 30
0.0
 40
0.333333
 41
0.333333
  0
VERTEX
  8
0
 10
678.674
 20
31.3378
 30
0.0
 40
0.333333
 41
0.333333
  0
VERTEX
  8
0
 10
678.789
 20
31.4242
 30
0.0
 40
0.333333
 41
0.333333
  0
VERTEX
  8
0
 10
678.912
 20
31.4993
 30
0.0
 40
0.333333
 41
0.333333
  0
VERTEX
  8
0
 10
679.043
 20
31.5625
 30
0.0
 40
0.333333
 41
0.333333
  0
VERTEX
  8
0
 10
679.182
 20
31.6129
 30
0.0
 40
0.333333
 41
0.333333
  0
VERTEX
  8
0
 10
679.325
 20
31.6499
 30
0.0
 40
0.333333
 41
0.333333
  0
VERTEX
  8
0
 10
679.474
 20
31.6726
 30
0.0
 40
0.333333
 41
0.333333
  0
VERTEX
  8
0
 10
679.589
 20
31.6803
 30
0.0
 40
0.333333
 41
0.333333
  0
VERTEX
  8
0
 10
679.628
 20
31.6803
 30
0.0
 40
0.333333
 41
0.333333
  0
VERTEX
  8
0
 10
679.665
 20
31.6803
 30
0.0
 40
0.333333
 41
0.333333
  0
VERTEX
  8
0
 10
679.781
 20
31.6726
 30
0.0
 40
0.333333
 41
0.333333
  0
VERTEX
  8
0
 10
679.929
 20
31.6499
 30
0.0
 40
0.333333
 41
0.333333
  0
VERTEX
  8
0
 10
680.074
 20
31.6129
 30
0.0
 40
0.333333
 41
0.333333
  0
VERTEX
  8
0
 10
680.211
 20
31.5625
 30
0.0
 40
0.333333
 41
0.333333
  0
VERTEX
  8
0
 10
680.343
 20
31.4993
 30
0.0
 40
0.333333
 41
0.333333
  0
VERTEX
  8
0
 10
680.467
 20
31.4242
 30
0.0
 40
0.333333
 41
0.333333
  0
VERTEX
  8
0
 10
680.582
 20
31.3378
 30
0.0
 40
0.333333
 41
0.333333
  0
VERTEX
  8
0
 10
680.688
 20
31.2411
 30
0.0
 40
0.333333
 41
0.333333
  0
VERTEX
  8
0
 10
680.785
 20
31.1344
 30
0.0
 40
0.333333
 41
0.333333
  0
VERTEX
  8
0
 10
680.871
 20
31.019
 30
0.0
 40
0.333333
 41
0.333333
  0
VERTEX
  8
0
 10
680.946
 20
30.8953
 30
0.0
 40
0.333333
 41
0.333333
  0
VERTEX
  8
0
 10
681.01
 20
30.7643
 30
0.0
 40
0.333333
 41
0.333333
  0
VERTEX
  8
0
 10
681.06
 20
30.6264
 30
0.0
 40
0.333333
 41
0.333333
  0
VERTEX
  8
0
 10
681.097
 20
30.4826
 30
0.0
 40
0.333333
 41
0.333333
  0
VERTEX
  8
0
 10
681.119
 20
30.3338
 30
0.0
 40
0.333333
 41
0.333333
  0
VERTEX
  8
0
 10
681.128
 20
30.2188
 30
0.0
 40
0.333333
 41
0.333333
  0
VERTEX
  8
0
 10
681.128
 20
30.1803
 30
0.0
 40
0.333333
 41
0.333333
  0
SEQEND
 8
0
  0
POLYLINE
  8
0
 62
     0
 66
     1
 10
0
 20
0
 30
0.0
 70
     1
 40
24
 41
24
  0
VERTEX
  8
0
 10
535.078
 20
45.9304
 30
0.0
 40
0.333333
 41
0.333333
  0
VERTEX
  8
0
 10
535.078
 20
45.8921
 30
0.0
 40
0.333333
 41
0.333333
  0
VERTEX
  8
0
 10
535.069
 20
45.7771
 30
0.0
 40
0.333333
 41
0.333333
  0
VERTEX
  8
0
 10
535.047
 20
45.6281
 30
0.0
 40
0.333333
 41
0.333333
  0
VERTEX
  8
0
 10
535.01
 20
45.4844
 30
0.0
 40
0.333333
 41
0.333333
  0
VERTEX
  8
0
 10
534.96
 20
45.3465
 30
0.0
 40
0.333333
 41
0.333333
  0
VERTEX
  8
0
 10
534.896
 20
45.2154
 30
0.0
 40
0.333333
 41
0.333333
  0
VERTEX
  8
0
 10
534.821
 20
45.0918
 30
0.0
 40
0.333333
 41
0.333333
  0
VERTEX
  8
0
 10
534.735
 20
44.9763
 30
0.0
 40
0.333333
 41
0.333333
  0
VERTEX
  8
0
 10
534.637
 20
44.8697
 30
0.0
 40
0.333333
 41
0.333333
  0
VERTEX
  8
0
 10
534.532
 20
44.7729
 30
0.0
 40
0.333333
 41
0.333333
  0
VERTEX
  8
0
 10
534.415
 20
44.6865
 30
0.0
 40
0.333333
 41
0.333333
  0
VERTEX
  8
0
 10
534.292
 20
44.6114
 30
0.0
 40
0.333333
 41
0.333333
  0
VERTEX
  8
0
 10
534.161
 20
44.5483
 30
0.0
 40
0.333333
 41
0.333333
  0
VERTEX
  8
0
 10
534.024
 20
44.4978
 30
0.0
 40
0.333333
 41
0.333333
  0
VERTEX
  8
0
 10
533.879
 20
44.4608
 30
0.0
 40
0.333333
 41
0.333333
  0
VERTEX
  8
0
 10
533.731
 20
44.4382
 30
0.0
 40
0.333333
 41
0.333333
  0
VERTEX
  8
0
 10
533.615
 20
44.4304
 30
0.0
 40
0.333333
 41
0.333333
  0
VERTEX
  8
0
 10
533.578
 20
44.4304
 30
0.0
 40
0.333333
 41
0.333333
  0
VERTEX
  8
0
 10
533.539
 20
44.4304
 30
0.0
 40
0.333333
 41
0.333333
  0
VERTEX
  8
0
 10
533.424
 20
44.4382
 30
0.0
 40
0.333333
 41
0.333333
  0
VERTEX
  8
0
 10
533.275
 20
44.4608
 30
0.0
 40
0.333333
 41
0.333333
  0
VERTEX
  8
0
 10
533.131
 20
44.4978
 30
0.0
 40
0.333333
 41
0.333333
  0
VERTEX
  8
0
 10
532.993
 20
44.5483
 30
0.0
 40
0.333333
 41
0.333333
  0
VERTEX
  8
0
 10
532.863
 20
44.6114
 30
0.0
 40
0.333333
 41
0.333333
  0
VERTEX
  8
0
 10
532.739
 20
44.6865
 30
0.0
 40
0.333333
 41
0.333333
  0
VERTEX
  8
0
 10
532.624
 20
44.7729
 30
0.0
 40
0.333333
 41
0.333333
  0
VERTEX
  8
0
 10
532.517
 20
44.8697
 30
0.0
 40
0.333333
 41
0.333333
  0
VERTEX
  8
0
 10
532.419
 20
44.9763
 30
0.0
 40
0.333333
 41
0.333333
  0
VERTEX
  8
0
 10
532.333
 20
45.0918
 30
0.0
 40
0.333333
 41
0.333333
  0
VERTEX
  8
0
 10
532.258
 20
45.2154
 30
0.0
 40
0.333333
 41
0.333333
  0
VERTEX
  8
0
 10
532.194
 20
45.3465
 30
0.0
 40
0.333333
 41
0.333333
  0
VERTEX
  8
0
 10
532.144
 20
45.4844
 30
0.0
 40
0.333333
 41
0.333333
  0
VERTEX
  8
0
 10
532.108
 20
45.6281
 30
0.0
 40
0.333333
 41
0.333333
  0
VERTEX
  8
0
 10
532.085
 20
45.7771
 30
0.0
 40
0.333333
 41
0.333333
  0
VERTEX
  8
0
 10
532.078
 20
45.8921
 30
0.0
 40
0.333333
 41
0.333333
  0
VERTEX
  8
0
 10
532.078
 20
45.9304
 30
0.0
 40
0.333333
 41
0.333333
  0
VERTEX
  8
0
 10
532.078
 20
45.9688
 30
0.0
 40
0.333333
 41
0.333333
  0
VERTEX
  8
0
 10
532.085
 20
46.0838
 30
0.0
 40
0.333333
 41
0.333333
  0
VERTEX
  8
0
 10
532.108
 20
46.2326
 30
0.0
 40
0.333333
 41
0.333333
  0
VERTEX
  8
0
 10
532.144
 20
46.3765
 30
0.0
 40
0.333333
 41
0.333333
  0
VERTEX
  8
0
 10
532.194
 20
46.5143
 30
0.0
 40
0.333333
 41
0.333333
  0
VERTEX
  8
0
 10
532.258
 20
46.6454
 30
0.0
 40
0.333333
 41
0.333333
  0
VERTEX
  8
0
 10
532.333
 20
46.7692
 30
0.0
 40
0.333333
 41
0.333333
  0
VERTEX
  8
0
 10
532.419
 20
46.8846
 30
0.0
 40
0.333333
 41
0.333333
  0
VERTEX
  8
0
 10
532.517
 20
46.9911
 30
0.0
 40
0.333333
 41
0.333333
  0
VERTEX
  8
0
 10
532.624
 20
47.0879
 30
0.0
 40
0.333333
 41
0.333333
  0
VERTEX
  8
0
 10
532.739
 20
47.1743
 30
0.0
 40
0.333333
 41
0.333333
  0
VERTEX
  8
0
 10
532.863
 20
47.2493
 30
0.0
 40
0.333333
 41
0.333333
  0
VERTEX
  8
0
 10
532.993
 20
47.3125
 30
0.0
 40
0.333333
 41
0.333333
  0
VERTEX
  8
0
 10
533.131
 20
47.3629
 30
0.0
 40
0.333333
 41
0.333333
  0
VERTEX
  8
0
 10
533.275
 20
47.4
 30
0.0
 40
0.333333
 41
0.333333
  0
VERTEX
  8
0
 10
533.424
 20
47.4226
 30
0.0
 40
0.333333
 41
0.333333
  0
VERTEX
  8
0
 10
533.539
 20
47.4304
 30
0.0
 40
0.333333
 41
0.333333
  0
VERTEX
  8
0
 10
533.578
 20
47.4304
 30
0.0
 40
0.333333
 41
0.333333
  0
VERTEX
  8
0
 10
533.615
 20
47.4304
 30
0.0
 40
0.333333
 41
0.333333
  0
VERTEX
  8
0
 10
533.731
 20
47.4226
 30
0.0
 40
0.333333
 41
0.333333
  0
VERTEX
  8
0
 10
533.879
 20
47.4
 30
0.0
 40
0.333333
 41
0.333333
  0
VERTEX
  8
0
 10
534.024
 20
47.3629
 30
0.0
 40
0.333333
 41
0.333333
  0
VERTEX
  8
0
 10
534.161
 20
47.3125
 30
0.0
 40
0.333333
 41
0.333333
  0
VERTEX
  8
0
 10
534.292
 20
47.2493
 30
0.0
 40
0.333333
 41
0.333333
  0
VERTEX
  8
0
 10
534.415
 20
47.1743
 30
0.0
 40
0.333333
 41
0.333333
  0
VERTEX
  8
0
 10
534.532
 20
47.0879
 30
0.0
 40
0.333333
 41
0.333333
  0
VERTEX
  8
0
 10
534.637
 20
46.9911
 30
0.0
 40
0.333333
 41
0.333333
  0
VERTEX
  8
0
 10
534.735
 20
46.8846
 30
0.0
 40
0.333333
 41
0.333333
  0
VERTEX
  8
0
 10
534.821
 20
46.7692
 30
0.0
 40
0.333333
 41
0.333333
  0
VERTEX
  8
0
 10
534.896
 20
46.6454
 30
0.0
 40
0.333333
 41
0.333333
  0
VERTEX
  8
0
 10
534.96
 20
46.5143
 30
0.0
 40
0.333333
 41
0.333333
  0
VERTEX
  8
0
 10
535.01
 20
46.3765
 30
0.0
 40
0.333333
 41
0.333333
  0
VERTEX
  8
0
 10
535.047
 20
46.2326
 30
0.0
 40
0.333333
 41
0.333333
  0
VERTEX
  8
0
 10
535.069
 20
46.0838
 30
0.0
 40
0.333333
 41
0.333333
  0
VERTEX
  8
0
 10
535.078
 20
45.9688
 30
0.0
 40
0.333333
 41
0.333333
  0
VERTEX
  8
0
 10
535.078
 20
45.9304
 30
0.0
 40
0.333333
 41
0.333333
  0
SEQEND
 8
0
  0
POLYLINE
  8
0
 62
     0
 66
     1
 10
0
 20
0
 30
0.0
 70
     1
 40
24
 41
24
  0
VERTEX
  8
0
 10
535.078
 20
30.1803
 30
0.0
 40
0.333333
 41
0.333333
  0
VERTEX
  8
0
 10
535.078
 20
30.1421
 30
0.0
 40
0.333333
 41
0.333333
  0
VERTEX
  8
0
 10
535.069
 20
30.0271
 30
0.0
 40
0.333333
 41
0.333333
  0
VERTEX
  8
0
 10
535.047
 20
29.8781
 30
0.0
 40
0.333333
 41
0.333333
  0
VERTEX
  8
0
 10
535.01
 20
29.7343
 30
0.0
 40
0.333333
 41
0.333333
  0
VERTEX
  8
0
 10
534.96
 20
29.5965
 30
0.0
 40
0.333333
 41
0.333333
  0
VERTEX
  8
0
 10
534.896
 20
29.4654
 30
0.0
 40
0.333333
 41
0.333333
  0
VERTEX
  8
0
 10
534.821
 20
29.3417
 30
0.0
 40
0.333333
 41
0.333333
  0
VERTEX
  8
0
 10
534.735
 20
29.2263
 30
0.0
 40
0.333333
 41
0.333333
  0
VERTEX
  8
0
 10
534.637
 20
29.1197
 30
0.0
 40
0.333333
 41
0.333333
  0
VERTEX
  8
0
 10
534.532
 20
29.0229
 30
0.0
 40
0.333333
 41
0.333333
  0
VERTEX
  8
0
 10
534.415
 20
28.9365
 30
0.0
 40
0.333333
 41
0.333333
  0
VERTEX
  8
0
 10
534.292
 20
28.8614
 30
0.0
 40
0.333333
 41
0.333333
  0
VERTEX
  8
0
 10
534.161
 20
28.7982
 30
0.0
 40
0.333333
 41
0.333333
  0
VERTEX
  8
0
 10
534.024
 20
28.7478
 30
0.0
 40
0.333333
 41
0.333333
  0
VERTEX
  8
0
 10
533.879
 20
28.7108
 30
0.0
 40
0.333333
 41
0.333333
  0
VERTEX
  8
0
 10
533.731
 20
28.6881
 30
0.0
 40
0.333333
 41
0.333333
  0
VERTEX
  8
0
 10
533.615
 20
28.6803
 30
0.0
 40
0.333333
 41
0.333333
  0
VERTEX
  8
0
 10
533.578
 20
28.6803
 30
0.0
 40
0.333333
 41
0.333333
  0
VERTEX
  8
0
 10
533.539
 20
28.6803
 30
0.0
 40
0.333333
 41
0.333333
  0
VERTEX
  8
0
 10
533.424
 20
28.6881
 30
0.0
 40
0.333333
 41
0.333333
  0
VERTEX
  8
0
 10
533.275
 20
28.7108
 30
0.0
 40
0.333333
 41
0.333333
  0
VERTEX
  8
0
 10
533.131
 20
28.7478
 30
0.0
 40
0.333333
 41
0.333333
  0
VERTEX
  8
0
 10
532.993
 20
28.7982
 30
0.0
 40
0.333333
 41
0.333333
  0
VERTEX
  8
0
 10
532.863
 20
28.8614
 30
0.0
 40
0.333333
 41
0.333333
  0
VERTEX
  8
0
 10
532.739
 20
28.9365
 30
0.0
 40
0.333333
 41
0.333333
  0
VERTEX
  8
0
 10
532.624
 20
29.0229
 30
0.0
 40
0.333333
 41
0.333333
  0
VERTEX
  8
0
 10
532.517
 20
29.1197
 30
0.0
 40
0.333333
 41
0.333333
  0
VERTEX
  8
0
 10
532.419
 20
29.2263
 30
0.0
 40
0.333333
 41
0.333333
  0
VERTEX
  8
0
 10
532.333
 20
29.3417
 30
0.0
 40
0.333333
 41
0.333333
  0
VERTEX
  8
0
 10
532.258
 20
29.4654
 30
0.0
 40
0.333333
 41
0.333333
  0
VERTEX
  8
0
 10
532.194
 20
29.5965
 30
0.0
 40
0.333333
 41
0.333333
  0
VERTEX
  8
0
 10
532.144
 20
29.7343
 30
0.0
 40
0.333333
 41
0.333333
  0
VERTEX
  8
0
 10
532.108
 20
29.8781
 30
0.0
 40
0.333333
 41
0.333333
  0
VERTEX
  8
0
 10
532.085
 20
30.0271
 30
0.0
 40
0.333333
 41
0.333333
  0
VERTEX
  8
0
 10
532.078
 20
30.1421
 30
0.0
 40
0.333333
 41
0.333333
  0
VERTEX
  8
0
 10
532.078
 20
30.1803
 30
0.0
 40
0.333333
 41
0.333333
  0
VERTEX
  8
0
 10
532.078
 20
30.2188
 30
0.0
 40
0.333333
 41
0.333333
  0
VERTEX
  8
0
 10
532.085
 20
30.3338
 30
0.0
 40
0.333333
 41
0.333333
  0
VERTEX
  8
0
 10
532.108
 20
30.4826
 30
0.0
 40
0.333333
 41
0.333333
  0
VERTEX
  8
0
 10
532.144
 20
30.6264
 30
0.0
 40
0.333333
 41
0.333333
  0
VERTEX
  8
0
 10
532.194
 20
30.7643
 30
0.0
 40
0.333333
 41
0.333333
  0
VERTEX
  8
0
 10
532.258
 20
30.8953
 30
0.0
 40
0.333333
 41
0.333333
  0
VERTEX
  8
0
 10
532.333
 20
31.019
 30
0.0
 40
0.333333
 41
0.333333
  0
VERTEX
  8
0
 10
532.419
 20
31.1344
 30
0.0
 40
0.333333
 41
0.333333
  0
VERTEX
  8
0
 10
532.517
 20
31.2411
 30
0.0
 40
0.333333
 41
0.333333
  0
VERTEX
  8
0
 10
532.624
 20
31.3378
 30
0.0
 40
0.333333
 41
0.333333
  0
VERTEX
  8
0
 10
532.739
 20
31.4242
 30
0.0
 40
0.333333
 41
0.333333
  0
VERTEX
  8
0
 10
532.863
 20
31.4993
 30
0.0
 40
0.333333
 41
0.333333
  0
VERTEX
  8
0
 10
532.993
 20
31.5625
 30
0.0
 40
0.333333
 41
0.333333
  0
VERTEX
  8
0
 10
533.131
 20
31.6129
 30
0.0
 40
0.333333
 41
0.333333
  0
VERTEX
  8
0
 10
533.275
 20
31.6499
 30
0.0
 40
0.333333
 41
0.333333
  0
VERTEX
  8
0
 10
533.424
 20
31.6726
 30
0.0
 40
0.333333
 41
0.333333
  0
VERTEX
  8
0
 10
533.539
 20
31.6803
 30
0.0
 40
0.333333
 41
0.333333
  0
VERTEX
  8
0
 10
533.578
 20
31.6803
 30
0.0
 40
0.333333
 41
0.333333
  0
VERTEX
  8
0
 10
533.615
 20
31.6803
 30
0.0
 40
0.333333
 41
0.333333
  0
VERTEX
  8
0
 10
533.731
 20
31.6726
 30
0.0
 40
0.333333
 41
0.333333
  0
VERTEX
  8
0
 10
533.879
 20
31.6499
 30
0.0
 40
0.333333
 41
0.333333
  0
VERTEX
  8
0
 10
534.024
 20
31.6129
 30
0.0
 40
0.333333
 41
0.333333
  0
VERTEX
  8
0
 10
534.161
 20
31.5625
 30
0.0
 40
0.333333
 41
0.333333
  0
VERTEX
  8
0
 10
534.292
 20
31.4993
 30
0.0
 40
0.333333
 41
0.333333
  0
VERTEX
  8
0
 10
534.415
 20
31.4242
 30
0.0
 40
0.333333
 41
0.333333
  0
VERTEX
  8
0
 10
534.532
 20
31.3378
 30
0.0
 40
0.333333
 41
0.333333
  0
VERTEX
  8
0
 10
534.637
 20
31.2411
 30
0.0
 40
0.333333
 41
0.333333
  0
VERTEX
  8
0
 10
534.735
 20
31.1344
 30
0.0
 40
0.333333
 41
0.333333
  0
VERTEX
  8
0
 10
534.821
 20
31.019
 30
0.0
 40
0.333333
 41
0.333333
  0
VERTEX
  8
0
 10
534.896
 20
30.8953
 30
0.0
 40
0.333333
 41
0.333333
  0
VERTEX
  8
0
 10
534.96
 20
30.7643
 30
0.0
 40
0.333333
 41
0.333333
  0
VERTEX
  8
0
 10
535.01
 20
30.6264
 30
0.0
 40
0.333333
 41
0.333333
  0
VERTEX
  8
0
 10
535.047
 20
30.4826
 30
0.0
 40
0.333333
 41
0.333333
  0
VERTEX
  8
0
 10
535.069
 20
30.3338
 30
0.0
 40
0.333333
 41
0.333333
  0
VERTEX
  8
0
 10
535.078
 20
30.2188
 30
0.0
 40
0.333333
 41
0.333333
  0
VERTEX
  8
0
 10
535.078
 20
30.1803
 30
0.0
 40
0.333333
 41
0.333333
  0
SEQEND
 8
0
  0
POLYLINE
  8
0
 62
     0
 66
     1
 10
0
 20
0
 30
0.0
 70
     1
 40
24
 41
24
  0
VERTEX
  8
0
 10
681.128
 20
45.9304
 30
0.0
 40
0.333333
 41
0.333333
  0
VERTEX
  8
0
 10
681.128
 20
45.8921
 30
0.0
 40
0.333333
 41
0.333333
  0
VERTEX
  8
0
 10
681.119
 20
45.7771
 30
0.0
 40
0.333333
 41
0.333333
  0
VERTEX
  8
0
 10
681.097
 20
45.6281
 30
0.0
 40
0.333333
 41
0.333333
  0
VERTEX
  8
0
 10
681.06
 20
45.4844
 30
0.0
 40
0.333333
 41
0.333333
  0
VERTEX
  8
0
 10
681.01
 20
45.3465
 30
0.0
 40
0.333333
 41
0.333333
  0
VERTEX
  8
0
 10
680.946
 20
45.2154
 30
0.0
 40
0.333333
 41
0.333333
  0
VERTEX
  8
0
 10
680.871
 20
45.0918
 30
0.0
 40
0.333333
 41
0.333333
  0
VERTEX
  8
0
 10
680.785
 20
44.9763
 30
0.0
 40
0.333333
 41
0.333333
  0
VERTEX
  8
0
 10
680.688
 20
44.8697
 30
0.0
 40
0.333333
 41
0.333333
  0
VERTEX
  8
0
 10
680.582
 20
44.7729
 30
0.0
 40
0.333333
 41
0.333333
  0
VERTEX
  8
0
 10
680.467
 20
44.6865
 30
0.0
 40
0.333333
 41
0.333333
  0
VERTEX
  8
0
 10
680.343
 20
44.6114
 30
0.0
 40
0.333333
 41
0.333333
  0
VERTEX
  8
0
 10
680.211
 20
44.5483
 30
0.0
 40
0.333333
 41
0.333333
  0
VERTEX
  8
0
 10
680.074
 20
44.4978
 30
0.0
 40
0.333333
 41
0.333333
  0
VERTEX
  8
0
 10
679.929
 20
44.4608
 30
0.0
 40
0.333333
 41
0.333333
  0
VERTEX
  8
0
 10
679.781
 20
44.4382
 30
0.0
 40
0.333333
 41
0.333333
  0
VERTEX
  8
0
 10
679.665
 20
44.4304
 30
0.0
 40
0.333333
 41
0.333333
  0
VERTEX
  8
0
 10
679.628
 20
44.4304
 30
0.0
 40
0.333333
 41
0.333333
  0
VERTEX
  8
0
 10
679.589
 20
44.4304
 30
0.0
 40
0.333333
 41
0.333333
  0
VERTEX
  8
0
 10
679.474
 20
44.4382
 30
0.0
 40
0.333333
 41
0.333333
  0
VERTEX
  8
0
 10
679.325
 20
44.4608
 30
0.0
 40
0.333333
 41
0.333333
  0
VERTEX
  8
0
 10
679.182
 20
44.4978
 30
0.0
 40
0.333333
 41
0.333333
  0
VERTEX
  8
0
 10
679.043
 20
44.5483
 30
0.0
 40
0.333333
 41
0.333333
  0
VERTEX
  8
0
 10
678.912
 20
44.6114
 30
0.0
 40
0.333333
 41
0.333333
  0
VERTEX
  8
0
 10
678.789
 20
44.6865
 30
0.0
 40
0.333333
 41
0.333333
  0
VERTEX
  8
0
 10
678.674
 20
44.7729
 30
0.0
 40
0.333333
 41
0.333333
  0
VERTEX
  8
0
 10
678.567
 20
44.8697
 30
0.0
 40
0.333333
 41
0.333333
  0
VERTEX
  8
0
 10
678.469
 20
44.9763
 30
0.0
 40
0.333333
 41
0.333333
  0
VERTEX
  8
0
 10
678.383
 20
45.0918
 30
0.0
 40
0.333333
 41
0.333333
  0
VERTEX
  8
0
 10
678.308
 20
45.2154
 30
0.0
 40
0.333333
 41
0.333333
  0
VERTEX
  8
0
 10
678.246
 20
45.3465
 30
0.0
 40
0.333333
 41
0.333333
  0
VERTEX
  8
0
 10
678.194
 20
45.4844
 30
0.0
 40
0.333333
 41
0.333333
  0
VERTEX
  8
0
 10
678.158
 20
45.6281
 30
0.0
 40
0.333333
 41
0.333333
  0
VERTEX
  8
0
 10
678.135
 20
45.7771
 30
0.0
 40
0.333333
 41
0.333333
  0
VERTEX
  8
0
 10
678.128
 20
45.8921
 30
0.0
 40
0.333333
 41
0.333333
  0
VERTEX
  8
0
 10
678.128
 20
45.9304
 30
0.0
 40
0.333333
 41
0.333333
  0
VERTEX
  8
0
 10
678.128
 20
45.9688
 30
0.0
 40
0.333333
 41
0.333333
  0
VERTEX
  8
0
 10
678.135
 20
46.0838
 30
0.0
 40
0.333333
 41
0.333333
  0
VERTEX
  8
0
 10
678.158
 20
46.2326
 30
0.0
 40
0.333333
 41
0.333333
  0
VERTEX
  8
0
 10
678.194
 20
46.3765
 30
0.0
 40
0.333333
 41
0.333333
  0
VERTEX
  8
0
 10
678.246
 20
46.5143
 30
0.0
 40
0.333333
 41
0.333333
  0
VERTEX
  8
0
 10
678.308
 20
46.6454
 30
0.0
 40
0.333333
 41
0.333333
  0
VERTEX
  8
0
 10
678.383
 20
46.7692
 30
0.0
 40
0.333333
 41
0.333333
  0
VERTEX
  8
0
 10
678.469
 20
46.8846
 30
0.0
 40
0.333333
 41
0.333333
  0
VERTEX
  8
0
 10
678.567
 20
46.9911
 30
0.0
 40
0.333333
 41
0.333333
  0
VERTEX
  8
0
 10
678.674
 20
47.0879
 30
0.0
 40
0.333333
 41
0.333333
  0
VERTEX
  8
0
 10
678.789
 20
47.1743
 30
0.0
 40
0.333333
 41
0.333333
  0
VERTEX
  8
0
 10
678.912
 20
47.2493
 30
0.0
 40
0.333333
 41
0.333333
  0
VERTEX
  8
0
 10
679.043
 20
47.3125
 30
0.0
 40
0.333333
 41
0.333333
  0
VERTEX
  8
0
 10
679.182
 20
47.3629
 30
0.0
 40
0.333333
 41
0.333333
  0
VERTEX
  8
0
 10
679.325
 20
47.4
 30
0.0
 40
0.333333
 41
0.333333
  0
VERTEX
  8
0
 10
679.474
 20
47.4226
 30
0.0
 40
0.333333
 41
0.333333
  0
VERTEX
  8
0
 10
679.589
 20
47.4304
 30
0.0
 40
0.333333
 41
0.333333
  0
VERTEX
  8
0
 10
679.628
 20
47.4304
 30
0.0
 40
0.333333
 41
0.333333
  0
VERTEX
  8
0
 10
679.665
 20
47.4304
 30
0.0
 40
0.333333
 41
0.333333
  0
VERTEX
  8
0
 10
679.781
 20
47.4226
 30
0.0
 40
0.333333
 41
0.333333
  0
VERTEX
  8
0
 10
679.929
 20
47.4
 30
0.0
 40
0.333333
 41
0.333333
  0
VERTEX
  8
0
 10
680.074
 20
47.3629
 30
0.0
 40
0.333333
 41
0.333333
  0
VERTEX
  8
0
 10
680.211
 20
47.3125
 30
0.0
 40
0.333333
 41
0.333333
  0
VERTEX
  8
0
 10
680.343
 20
47.2493
 30
0.0
 40
0.333333
 41
0.333333
  0
VERTEX
  8
0
 10
680.467
 20
47.1743
 30
0.0
 40
0.333333
 41
0.333333
  0
VERTEX
  8
0
 10
680.582
 20
47.0879
 30
0.0
 40
0.333333
 41
0.333333
  0
VERTEX
  8
0
 10
680.688
 20
46.9911
 30
0.0
 40
0.333333
 41
0.333333
  0
VERTEX
  8
0
 10
680.785
 20
46.8846
 30
0.0
 40
0.333333
 41
0.333333
  0
VERTEX
  8
0
 10
680.871
 20
46.7692
 30
0.0
 40
0.333333
 41
0.333333
  0
VERTEX
  8
0
 10
680.946
 20
46.6454
 30
0.0
 40
0.333333
 41
0.333333
  0
VERTEX
  8
0
 10
681.01
 20
46.5143
 30
0.0
 40
0.333333
 41
0.333333
  0
VERTEX
  8
0
 10
681.06
 20
46.3765
 30
0.0
 40
0.333333
 41
0.333333
  0
VERTEX
  8
0
 10
681.097
 20
46.2326
 30
0.0
 40
0.333333
 41
0.333333
  0
VERTEX
  8
0
 10
681.119
 20
46.0838
 30
0.0
 40
0.333333
 41
0.333333
  0
VERTEX
  8
0
 10
681.128
 20
45.9688
 30
0.0
 40
0.333333
 41
0.333333
  0
VERTEX
  8
0
 10
681.128
 20
45.9304
 30
0.0
 40
0.333333
 41
0.333333
  0
SEQEND
 8
0
  0
POLYLINE
  8
0
 62
     0
 66
     1
 10
0
 20
0
 30
0.0
 70
     1
 40
24
 41
24
  0
VERTEX
  8
0
 10
844.728
 20
292.281
 30
0.0
 40
0.333333
 41
0.333333
  0
VERTEX
  8
0
 10
844.728
 20
292.2
 30
0.0
 40
0.333333
 41
0.333333
  0
VERTEX
  8
0
 10
844.711
 20
291.956
 30
0.0
 40
0.333333
 41
0.333333
  0
VERTEX
  8
0
 10
844.664
 20
291.64
 30
0.0
 40
0.333333
 41
0.333333
  0
VERTEX
  8
0
 10
844.585
 20
291.336
 30
0.0
 40
0.333333
 41
0.333333
  0
VERTEX
  8
0
 10
844.478
 20
291.044
 30
0.0
 40
0.333333
 41
0.333333
  0
VERTEX
  8
0
 10
844.344
 20
290.768
 30
0.0
 40
0.333333
 41
0.333333
  0
VERTEX
  8
0
 10
844.186
 20
290.506
 30
0.0
 40
0.333333
 41
0.333333
  0
VERTEX
  8
0
 10
844.003
 20
290.261
 30
0.0
 40
0.333333
 41
0.333333
  0
VERTEX
  8
0
 10
843.797
 20
290.036
 30
0.0
 40
0.333333
 41
0.333333
  0
VERTEX
  8
0
 10
843.572
 20
289.831
 30
0.0
 40
0.333333
 41
0.333333
  0
VERTEX
  8
0
 10
843.328
 20
289.649
 30
0.0
 40
0.333333
 41
0.333333
  0
VERTEX
  8
0
 10
843.067
 20
289.489
 30
0.0
 40
0.333333
 41
0.333333
  0
VERTEX
  8
0
 10
842.789
 20
289.356
 30
0.0
 40
0.333333
 41
0.333333
  0
VERTEX
  8
0
 10
842.497
 20
289.249
 30
0.0
 40
0.333333
 41
0.333333
  0
VERTEX
  8
0
 10
842.193
 20
289.171
 30
0.0
 40
0.333333
 41
0.333333
  0
VERTEX
  8
0
 10
841.878
 20
289.122
 30
0.0
 40
0.333333
 41
0.333333
  0
VERTEX
  8
0
 10
841.633
 20
289.106
 30
0.0
 40
0.333333
 41
0.333333
  0
VERTEX
  8
0
 10
841.553
 20
289.106
 30
0.0
 40
0.333333
 41
0.333333
  0
VERTEX
  8
0
 10
841.472
 20
289.106
 30
0.0
 40
0.333333
 41
0.333333
  0
VERTEX
  8
0
 10
841.228
 20
289.122
 30
0.0
 40
0.333333
 41
0.333333
  0
VERTEX
  8
0
 10
840.912
 20
289.171
 30
0.0
 40
0.333333
 41
0.333333
  0
VERTEX
  8
0
 10
840.608
 20
289.249
 30
0.0
 40
0.333333
 41
0.333333
  0
VERTEX
  8
0
 10
840.317
 20
289.356
 30
0.0
 40
0.333333
 41
0.333333
  0
VERTEX
  8
0
 10
840.039
 20
289.489
 30
0.0
 40
0.333333
 41
0.333333
  0
VERTEX
  8
0
 10
839.778
 20
289.649
 30
0.0
 40
0.333333
 41
0.333333
  0
VERTEX
  8
0
 10
839.533
 20
289.831
 30
0.0
 40
0.333333
 41
0.333333
  0
VERTEX
  8
0
 10
839.307
 20
290.036
 30
0.0
 40
0.333333
 41
0.333333
  0
VERTEX
  8
0
 10
839.103
 20
290.261
 30
0.0
 40
0.333333
 41
0.333333
  0
VERTEX
  8
0
 10
838.919
 20
290.506
 30
0.0
 40
0.333333
 41
0.333333
  0
VERTEX
  8
0
 10
838.761
 20
290.768
 30
0.0
 40
0.333333
 41
0.333333
  0
VERTEX
  8
0
 10
838.628
 20
291.044
 30
0.0
 40
0.333333
 41
0.333333
  0
VERTEX
  8
0
 10
838.521
 20
291.336
 30
0.0
 40
0.333333
 41
0.333333
  0
VERTEX
  8
0
 10
838.442
 20
291.64
 30
0.0
 40
0.333333
 41
0.333333
  0
VERTEX
  8
0
 10
838.394
 20
291.956
 30
0.0
 40
0.333333
 41
0.333333
  0
VERTEX
  8
0
 10
838.378
 20
292.2
 30
0.0
 40
0.333333
 41
0.333333
  0
VERTEX
  8
0
 10
838.378
 20
292.281
 30
0.0
 40
0.333333
 41
0.333333
  0
VERTEX
  8
0
 10
838.378
 20
292.362
 30
0.0
 40
0.333333
 41
0.333333
  0
VERTEX
  8
0
 10
838.394
 20
292.606
 30
0.0
 40
0.333333
 41
0.333333
  0
VERTEX
  8
0
 10
838.442
 20
292.921
 30
0.0
 40
0.333333
 41
0.333333
  0
VERTEX
  8
0
 10
838.521
 20
293.225
 30
0.0
 40
0.333333
 41
0.333333
  0
VERTEX
  8
0
 10
838.628
 20
293.517
 30
0.0
 40
0.333333
 41
0.333333
  0
VERTEX
  8
0
 10
838.761
 20
293.794
 30
0.0
 40
0.333333
 41
0.333333
  0
VERTEX
  8
0
 10
838.919
 20
294.056
 30
0.0
 40
0.333333
 41
0.333333
  0
VERTEX
  8
0
 10
839.103
 20
294.3
 30
0.0
 40
0.333333
 41
0.333333
  0
VERTEX
  8
0
 10
839.307
 20
294.526
 30
0.0
 40
0.333333
 41
0.333333
  0
VERTEX
  8
0
 10
839.533
 20
294.731
 30
0.0
 40
0.333333
 41
0.333333
  0
VERTEX
  8
0
 10
839.778
 20
294.914
 30
0.0
 40
0.333333
 41
0.333333
  0
VERTEX
  8
0
 10
840.039
 20
295.072
 30
0.0
 40
0.333333
 41
0.333333
  0
VERTEX
  8
0
 10
840.317
 20
295.207
 30
0.0
 40
0.333333
 41
0.333333
  0
VERTEX
  8
0
 10
840.608
 20
295.313
 30
0.0
 40
0.333333
 41
0.333333
  0
VERTEX
  8
0
 10
840.912
 20
295.392
 30
0.0
 40
0.333333
 41
0.333333
  0
VERTEX
  8
0
 10
841.228
 20
295.439
 30
0.0
 40
0.333333
 41
0.333333
  0
VERTEX
  8
0
 10
841.472
 20
295.456
 30
0.0
 40
0.333333
 41
0.333333
  0
VERTEX
  8
0
 10
841.553
 20
295.456
 30
0.0
 40
0.333333
 41
0.333333
  0
VERTEX
  8
0
 10
841.633
 20
295.456
 30
0.0
 40
0.333333
 41
0.333333
  0
VERTEX
  8
0
 10
841.878
 20
295.439
 30
0.0
 40
0.333333
 41
0.333333
  0
VERTEX
  8
0
 10
842.193
 20
295.392
 30
0.0
 40
0.333333
 41
0.333333
  0
VERTEX
  8
0
 10
842.497
 20
295.313
 30
0.0
 40
0.333333
 41
0.333333
  0
VERTEX
  8
0
 10
842.789
 20
295.207
 30
0.0
 40
0.333333
 41
0.333333
  0
VERTEX
  8
0
 10
843.067
 20
295.072
 30
0.0
 40
0.333333
 41
0.333333
  0
VERTEX
  8
0
 10
843.328
 20
294.914
 30
0.0
 40
0.333333
 41
0.333333
  0
VERTEX
  8
0
 10
843.572
 20
294.731
 30
0.0
 40
0.333333
 41
0.333333
  0
VERTEX
  8
0
 10
843.797
 20
294.526
 30
0.0
 40
0.333333
 41
0.333333
  0
VERTEX
  8
0
 10
844.003
 20
294.3
 30
0.0
 40
0.333333
 41
0.333333
  0
VERTEX
  8
0
 10
844.186
 20
294.056
 30
0.0
 40
0.333333
 41
0.333333
  0
VERTEX
  8
0
 10
844.344
 20
293.794
 30
0.0
 40
0.333333
 41
0.333333
  0
VERTEX
  8
0
 10
844.478
 20
293.517
 30
0.0
 40
0.333333
 41
0.333333
  0
VERTEX
  8
0
 10
844.585
 20
293.225
 30
0.0
 40
0.333333
 41
0.333333
  0
VERTEX
  8
0
 10
844.664
 20
292.921
 30
0.0
 40
0.333333
 41
0.333333
  0
VERTEX
  8
0
 10
844.711
 20
292.606
 30
0.0
 40
0.333333
 41
0.333333
  0
VERTEX
  8
0
 10
844.728
 20
292.362
 30
0.0
 40
0.333333
 41
0.333333
  0
VERTEX
  8
0
 10
844.728
 20
292.281
 30
0.0
 40
0.333333
 41
0.333333
  0
SEQEND
 8
0
  0
POLYLINE
  8
0
 62
     0
 66
     1
 10
0
 20
0
 30
0.0
 70
     1
 40
24
 41
24
  0
VERTEX
  8
0
 10
865.278
 20
30.1803
 30
0.0
 40
0.333333
 41
0.333333
  0
VERTEX
  8
0
 10
865.278
 20
30.1421
 30
0.0
 40
0.333333
 41
0.333333
  0
VERTEX
  8
0
 10
865.269
 20
30.0271
 30
0.0
 40
0.333333
 41
0.333333
  0
VERTEX
  8
0
 10
865.247
 20
29.8781
 30
0.0
 40
0.333333
 41
0.333333
  0
VERTEX
  8
0
 10
865.21
 20
29.7343
 30
0.0
 40
0.333333
 41
0.333333
  0
VERTEX
  8
0
 10
865.16
 20
29.5965
 30
0.0
 40
0.333333
 41
0.333333
  0
VERTEX
  8
0
 10
865.097
 20
29.4654
 30
0.0
 40
0.333333
 41
0.333333
  0
VERTEX
  8
0
 10
865.022
 20
29.3417
 30
0.0
 40
0.333333
 41
0.333333
  0
VERTEX
  8
0
 10
864.935
 20
29.2263
 30
0.0
 40
0.333333
 41
0.333333
  0
VERTEX
  8
0
 10
864.839
 20
29.1197
 30
0.0
 40
0.333333
 41
0.333333
  0
VERTEX
  8
0
 10
864.732
 20
29.0229
 30
0.0
 40
0.333333
 41
0.333333
  0
VERTEX
  8
0
 10
864.617
 20
28.9365
 30
0.0
 40
0.333333
 41
0.333333
  0
VERTEX
  8
0
 10
864.493
 20
28.8614
 30
0.0
 40
0.333333
 41
0.333333
  0
VERTEX
  8
0
 10
864.361
 20
28.7982
 30
0.0
 40
0.333333
 41
0.333333
  0
VERTEX
  8
0
 10
864.224
 20
28.7478
 30
0.0
 40
0.333333
 41
0.333333
  0
VERTEX
  8
0
 10
864.081
 20
28.7108
 30
0.0
 40
0.333333
 41
0.333333
  0
VERTEX
  8
0
 10
863.931
 20
28.6881
 30
0.0
 40
0.333333
 41
0.333333
  0
VERTEX
  8
0
 10
863.817
 20
28.6803
 30
0.0
 40
0.333333
 41
0.333333
  0
VERTEX
  8
0
 10
863.778
 20
28.6803
 30
0.0
 40
0.333333
 41
0.333333
  0
VERTEX
  8
0
 10
863.739
 20
28.6803
 30
0.0
 40
0.333333
 41
0.333333
  0
VERTEX
  8
0
 10
863.625
 20
28.6881
 30
0.0
 40
0.333333
 41
0.333333
  0
VERTEX
  8
0
 10
863.475
 20
28.7108
 30
0.0
 40
0.333333
 41
0.333333
  0
VERTEX
  8
0
 10
863.332
 20
28.7478
 30
0.0
 40
0.333333
 41
0.333333
  0
VERTEX
  8
0
 10
863.194
 20
28.7982
 30
0.0
 40
0.333333
 41
0.333333
  0
VERTEX
  8
0
 10
863.063
 20
28.8614
 30
0.0
 40
0.333333
 41
0.333333
  0
VERTEX
  8
0
 10
862.939
 20
28.9365
 30
0.0
 40
0.333333
 41
0.333333
  0
VERTEX
  8
0
 10
862.824
 20
29.0229
 30
0.0
 40
0.333333
 41
0.333333
  0
VERTEX
  8
0
 10
862.717
 20
29.1197
 30
0.0
 40
0.333333
 41
0.333333
  0
VERTEX
  8
0
 10
862.621
 20
29.2263
 30
0.0
 40
0.333333
 41
0.333333
  0
VERTEX
  8
0
 10
862.533
 20
29.3417
 30
0.0
 40
0.333333
 41
0.333333
  0
VERTEX
  8
0
 10
862.458
 20
29.4654
 30
0.0
 40
0.333333
 41
0.333333
  0
VERTEX
  8
0
 10
862.396
 20
29.5965
 30
0.0
 40
0.333333
 41
0.333333
  0
VERTEX
  8
0
 10
862.346
 20
29.7343
 30
0.0
 40
0.333333
 41
0.333333
  0
VERTEX
  8
0
 10
862.308
 20
29.8781
 30
0.0
 40
0.333333
 41
0.333333
  0
VERTEX
  8
0
 10
862.286
 20
30.0271
 30
0.0
 40
0.333333
 41
0.333333
  0
VERTEX
  8
0
 10
862.278
 20
30.1421
 30
0.0
 40
0.333333
 41
0.333333
  0
VERTEX
  8
0
 10
862.278
 20
30.1803
 30
0.0
 40
0.333333
 41
0.333333
  0
VERTEX
  8
0
 10
862.278
 20
30.2188
 30
0.0
 40
0.333333
 41
0.333333
  0
VERTEX
  8
0
 10
862.286
 20
30.3338
 30
0.0
 40
0.333333
 41
0.333333
  0
VERTEX
  8
0
 10
862.308
 20
30.4826
 30
0.0
 40
0.333333
 41
0.333333
  0
VERTEX
  8
0
 10
862.346
 20
30.6264
 30
0.0
 40
0.333333
 41
0.333333
  0
VERTEX
  8
0
 10
862.396
 20
30.7643
 30
0.0
 40
0.333333
 41
0.333333
  0
VERTEX
  8
0
 10
862.458
 20
30.8953
 30
0.0
 40
0.333333
 41
0.333333
  0
VERTEX
  8
0
 10
862.533
 20
31.019
 30
0.0
 40
0.333333
 41
0.333333
  0
VERTEX
  8
0
 10
862.621
 20
31.1344
 30
0.0
 40
0.333333
 41
0.333333
  0
VERTEX
  8
0
 10
862.717
 20
31.2411
 30
0.0
 40
0.333333
 41
0.333333
  0
VERTEX
  8
0
 10
862.824
 20
31.3378
 30
0.0
 40
0.333333
 41
0.333333
  0
VERTEX
  8
0
 10
862.939
 20
31.4242
 30
0.0
 40
0.333333
 41
0.333333
  0
VERTEX
  8
0
 10
863.063
 20
31.4993
 30
0.0
 40
0.333333
 41
0.333333
  0
VERTEX
  8
0
 10
863.194
 20
31.5625
 30
0.0
 40
0.333333
 41
0.333333
  0
VERTEX
  8
0
 10
863.332
 20
31.6129
 30
0.0
 40
0.333333
 41
0.333333
  0
VERTEX
  8
0
 10
863.475
 20
31.6499
 30
0.0
 40
0.333333
 41
0.333333
  0
VERTEX
  8
0
 10
863.625
 20
31.6726
 30
0.0
 40
0.333333
 41
0.333333
  0
VERTEX
  8
0
 10
863.739
 20
31.6803
 30
0.0
 40
0.333333
 41
0.333333
  0
VERTEX
  8
0
 10
863.778
 20
31.6803
 30
0.0
 40
0.333333
 41
0.333333
  0
VERTEX
  8
0
 10
863.817
 20
31.6803
 30
0.0
 40
0.333333
 41
0.333333
  0
VERTEX
  8
0
 10
863.931
 20
31.6726
 30
0.0
 40
0.333333
 41
0.333333
  0
VERTEX
  8
0
 10
864.081
 20
31.6499
 30
0.0
 40
0.333333
 41
0.333333
  0
VERTEX
  8
0
 10
864.224
 20
31.6129
 30
0.0
 40
0.333333
 41
0.333333
  0
VERTEX
  8
0
 10
864.361
 20
31.5625
 30
0.0
 40
0.333333
 41
0.333333
  0
VERTEX
  8
0
 10
864.493
 20
31.4993
 30
0.0
 40
0.333333
 41
0.333333
  0
VERTEX
  8
0
 10
864.617
 20
31.4242
 30
0.0
 40
0.333333
 41
0.333333
  0
VERTEX
  8
0
 10
864.732
 20
31.3378
 30
0.0
 40
0.333333
 41
0.333333
  0
VERTEX
  8
0
 10
864.839
 20
31.2411
 30
0.0
 40
0.333333
 41
0.333333
  0
VERTEX
  8
0
 10
864.935
 20
31.1344
 30
0.0
 40
0.333333
 41
0.333333
  0
VERTEX
  8
0
 10
865.022
 20
31.019
 30
0.0
 40
0.333333
 41
0.333333
  0
VERTEX
  8
0
 10
865.097
 20
30.8953
 30
0.0
 40
0.333333
 41
0.333333
  0
VERTEX
  8
0
 10
865.16
 20
30.7643
 30
0.0
 40
0.333333
 41
0.333333
  0
VERTEX
  8
0
 10
865.21
 20
30.6264
 30
0.0
 40
0.333333
 41
0.333333
  0
VERTEX
  8
0
 10
865.247
 20
30.4826
 30
0.0
 40
0.333333
 41
0.333333
  0
VERTEX
  8
0
 10
865.269
 20
30.3338
 30
0.0
 40
0.333333
 41
0.333333
  0
VERTEX
  8
0
 10
865.278
 20
30.2188
 30
0.0
 40
0.333333
 41
0.333333
  0
VERTEX
  8
0
 10
865.278
 20
30.1803
 30
0.0
 40
0.333333
 41
0.333333
  0
SEQEND
 8
0
  0
POLYLINE
  8
0
 62
     0
 66
     1
 10
0
 20
0
 30
0.0
 70
     1
 40
24
 41
24
  0
VERTEX
  8
0
 10
719.228
 20
45.9304
 30
0.0
 40
0.333333
 41
0.333333
  0
VERTEX
  8
0
 10
719.228
 20
45.8921
 30
0.0
 40
0.333333
 41
0.333333
  0
VERTEX
  8
0
 10
719.219
 20
45.7771
 30
0.0
 40
0.333333
 41
0.333333
  0
VERTEX
  8
0
 10
719.197
 20
45.6281
 30
0.0
 40
0.333333
 41
0.333333
  0
VERTEX
  8
0
 10
719.16
 20
45.4844
 30
0.0
 40
0.333333
 41
0.333333
  0
VERTEX
  8
0
 10
719.11
 20
45.3465
 30
0.0
 40
0.333333
 41
0.333333
  0
VERTEX
  8
0
 10
719.046
 20
45.2154
 30
0.0
 40
0.333333
 41
0.333333
  0
VERTEX
  8
0
 10
718.971
 20
45.0918
 30
0.0
 40
0.333333
 41
0.333333
  0
VERTEX
  8
0
 10
718.885
 20
44.9763
 30
0.0
 40
0.333333
 41
0.333333
  0
VERTEX
  8
0
 10
718.787
 20
44.8697
 30
0.0
 40
0.333333
 41
0.333333
  0
VERTEX
  8
0
 10
718.682
 20
44.7729
 30
0.0
 40
0.333333
 41
0.333333
  0
VERTEX
  8
0
 10
718.567
 20
44.6865
 30
0.0
 40
0.333333
 41
0.333333
  0
VERTEX
  8
0
 10
718.443
 20
44.6114
 30
0.0
 40
0.333333
 41
0.333333
  0
VERTEX
  8
0
 10
718.311
 20
44.5483
 30
0.0
 40
0.333333
 41
0.333333
  0
VERTEX
  8
0
 10
718.174
 20
44.4978
 30
0.0
 40
0.333333
 41
0.333333
  0
VERTEX
  8
0
 10
718.029
 20
44.4608
 30
0.0
 40
0.333333
 41
0.333333
  0
VERTEX
  8
0
 10
717.881
 20
44.4382
 30
0.0
 40
0.333333
 41
0.333333
  0
VERTEX
  8
0
 10
717.765
 20
44.4304
 30
0.0
 40
0.333333
 41
0.333333
  0
VERTEX
  8
0
 10
717.728
 20
44.4304
 30
0.0
 40
0.333333
 41
0.333333
  0
VERTEX
  8
0
 10
717.689
 20
44.4304
 30
0.0
 40
0.333333
 41
0.333333
  0
VERTEX
  8
0
 10
717.574
 20
44.4382
 30
0.0
 40
0.333333
 41
0.333333
  0
VERTEX
  8
0
 10
717.425
 20
44.4608
 30
0.0
 40
0.333333
 41
0.333333
  0
VERTEX
  8
0
 10
717.282
 20
44.4978
 30
0.0
 40
0.333333
 41
0.333333
  0
VERTEX
  8
0
 10
717.143
 20
44.5483
 30
0.0
 40
0.333333
 41
0.333333
  0
VERTEX
  8
0
 10
717.012
 20
44.6114
 30
0.0
 40
0.333333
 41
0.333333
  0
VERTEX
  8
0
 10
716.889
 20
44.6865
 30
0.0
 40
0.333333
 41
0.333333
  0
VERTEX
  8
0
 10
716.774
 20
44.7729
 30
0.0
 40
0.333333
 41
0.333333
  0
VERTEX
  8
0
 10
716.667
 20
44.8697
 30
0.0
 40
0.333333
 41
0.333333
  0
VERTEX
  8
0
 10
716.569
 20
44.9763
 30
0.0
 40
0.333333
 41
0.333333
  0
VERTEX
  8
0
 10
716.483
 20
45.0918
 30
0.0
 40
0.333333
 41
0.333333
  0
VERTEX
  8
0
 10
716.408
 20
45.2154
 30
0.0
 40
0.333333
 41
0.333333
  0
VERTEX
  8
0
 10
716.346
 20
45.3465
 30
0.0
 40
0.333333
 41
0.333333
  0
VERTEX
  8
0
 10
716.294
 20
45.4844
 30
0.0
 40
0.333333
 41
0.333333
  0
VERTEX
  8
0
 10
716.258
 20
45.6281
 30
0.0
 40
0.333333
 41
0.333333
  0
VERTEX
  8
0
 10
716.235
 20
45.7771
 30
0.0
 40
0.333333
 41
0.333333
  0
VERTEX
  8
0
 10
716.228
 20
45.8921
 30
0.0
 40
0.333333
 41
0.333333
  0
VERTEX
  8
0
 10
716.228
 20
45.9304
 30
0.0
 40
0.333333
 41
0.333333
  0
VERTEX
  8
0
 10
716.228
 20
45.9688
 30
0.0
 40
0.333333
 41
0.333333
  0
VERTEX
  8
0
 10
716.235
 20
46.0838
 30
0.0
 40
0.333333
 41
0.333333
  0
VERTEX
  8
0
 10
716.258
 20
46.2326
 30
0.0
 40
0.333333
 41
0.333333
  0
VERTEX
  8
0
 10
716.294
 20
46.3765
 30
0.0
 40
0.333333
 41
0.333333
  0
VERTEX
  8
0
 10
716.346
 20
46.5143
 30
0.0
 40
0.333333
 41
0.333333
  0
VERTEX
  8
0
 10
716.408
 20
46.6454
 30
0.0
 40
0.333333
 41
0.333333
  0
VERTEX
  8
0
 10
716.483
 20
46.7692
 30
0.0
 40
0.333333
 41
0.333333
  0
VERTEX
  8
0
 10
716.569
 20
46.8846
 30
0.0
 40
0.333333
 41
0.333333
  0
VERTEX
  8
0
 10
716.667
 20
46.9911
 30
0.0
 40
0.333333
 41
0.333333
  0
VERTEX
  8
0
 10
716.774
 20
47.0879
 30
0.0
 40
0.333333
 41
0.333333
  0
VERTEX
  8
0
 10
716.889
 20
47.1743
 30
0.0
 40
0.333333
 41
0.333333
  0
VERTEX
  8
0
 10
717.012
 20
47.2493
 30
0.0
 40
0.333333
 41
0.333333
  0
VERTEX
  8
0
 10
717.143
 20
47.3125
 30
0.0
 40
0.333333
 41
0.333333
  0
VERTEX
  8
0
 10
717.282
 20
47.3629
 30
0.0
 40
0.333333
 41
0.333333
  0
VERTEX
  8
0
 10
717.425
 20
47.4
 30
0.0
 40
0.333333
 41
0.333333
  0
VERTEX
  8
0
 10
717.574
 20
47.4226
 30
0.0
 40
0.333333
 41
0.333333
  0
VERTEX
  8
0
 10
717.689
 20
47.4304
 30
0.0
 40
0.333333
 41
0.333333
  0
VERTEX
  8
0
 10
717.728
 20
47.4304
 30
0.0
 40
0.333333
 41
0.333333
  0
VERTEX
  8
0
 10
717.765
 20
47.4304
 30
0.0
 40
0.333333
 41
0.333333
  0
VERTEX
  8
0
 10
717.881
 20
47.4226
 30
0.0
 40
0.333333
 41
0.333333
  0
VERTEX
  8
0
 10
718.029
 20
47.4
 30
0.0
 40
0.333333
 41
0.333333
  0
VERTEX
  8
0
 10
718.174
 20
47.3629
 30
0.0
 40
0.333333
 41
0.333333
  0
VERTEX
  8
0
 10
718.311
 20
47.3125
 30
0.0
 40
0.333333
 41
0.333333
  0
VERTEX
  8
0
 10
718.443
 20
47.2493
 30
0.0
 40
0.333333
 41
0.333333
  0
VERTEX
  8
0
 10
718.567
 20
47.1743
 30
0.0
 40
0.333333
 41
0.333333
  0
VERTEX
  8
0
 10
718.682
 20
47.0879
 30
0.0
 40
0.333333
 41
0.333333
  0
VERTEX
  8
0
 10
718.787
 20
46.9911
 30
0.0
 40
0.333333
 41
0.333333
  0
VERTEX
  8
0
 10
718.885
 20
46.8846
 30
0.0
 40
0.333333
 41
0.333333
  0
VERTEX
  8
0
 10
718.971
 20
46.7692
 30
0.0
 40
0.333333
 41
0.333333
  0
VERTEX
  8
0
 10
719.046
 20
46.6454
 30
0.0
 40
0.333333
 41
0.333333
  0
VERTEX
  8
0
 10
719.11
 20
46.5143
 30
0.0
 40
0.333333
 41
0.333333
  0
VERTEX
  8
0
 10
719.16
 20
46.3765
 30
0.0
 40
0.333333
 41
0.333333
  0
VERTEX
  8
0
 10
719.197
 20
46.2326
 30
0.0
 40
0.333333
 41
0.333333
  0
VERTEX
  8
0
 10
719.219
 20
46.0838
 30
0.0
 40
0.333333
 41
0.333333
  0
VERTEX
  8
0
 10
719.228
 20
45.9688
 30
0.0
 40
0.333333
 41
0.333333
  0
VERTEX
  8
0
 10
719.228
 20
45.9304
 30
0.0
 40
0.333333
 41
0.333333
  0
SEQEND
 8
0
  0
POLYLINE
  8
0
 62
     0
 66
     1
 10
0
 20
0
 30
0.0
 70
     1
 40
24
 41
24
  0
VERTEX
  8
0
 10
719.228
 20
30.1803
 30
0.0
 40
0.333333
 41
0.333333
  0
VERTEX
  8
0
 10
719.228
 20
30.1421
 30
0.0
 40
0.333333
 41
0.333333
  0
VERTEX
  8
0
 10
719.219
 20
30.0271
 30
0.0
 40
0.333333
 41
0.333333
  0
VERTEX
  8
0
 10
719.197
 20
29.8781
 30
0.0
 40
0.333333
 41
0.333333
  0
VERTEX
  8
0
 10
719.16
 20
29.7343
 30
0.0
 40
0.333333
 41
0.333333
  0
VERTEX
  8
0
 10
719.11
 20
29.5965
 30
0.0
 40
0.333333
 41
0.333333
  0
VERTEX
  8
0
 10
719.046
 20
29.4654
 30
0.0
 40
0.333333
 41
0.333333
  0
VERTEX
  8
0
 10
718.971
 20
29.3417
 30
0.0
 40
0.333333
 41
0.333333
  0
VERTEX
  8
0
 10
718.885
 20
29.2263
 30
0.0
 40
0.333333
 41
0.333333
  0
VERTEX
  8
0
 10
718.787
 20
29.1197
 30
0.0
 40
0.333333
 41
0.333333
  0
VERTEX
  8
0
 10
718.682
 20
29.0229
 30
0.0
 40
0.333333
 41
0.333333
  0
VERTEX
  8
0
 10
718.567
 20
28.9365
 30
0.0
 40
0.333333
 41
0.333333
  0
VERTEX
  8
0
 10
718.443
 20
28.8614
 30
0.0
 40
0.333333
 41
0.333333
  0
VERTEX
  8
0
 10
718.311
 20
28.7982
 30
0.0
 40
0.333333
 41
0.333333
  0
VERTEX
  8
0
 10
718.174
 20
28.7478
 30
0.0
 40
0.333333
 41
0.333333
  0
VERTEX
  8
0
 10
718.029
 20
28.7108
 30
0.0
 40
0.333333
 41
0.333333
  0
VERTEX
  8
0
 10
717.881
 20
28.6881
 30
0.0
 40
0.333333
 41
0.333333
  0
VERTEX
  8
0
 10
717.765
 20
28.6803
 30
0.0
 40
0.333333
 41
0.333333
  0
VERTEX
  8
0
 10
717.728
 20
28.6803
 30
0.0
 40
0.333333
 41
0.333333
  0
VERTEX
  8
0
 10
717.689
 20
28.6803
 30
0.0
 40
0.333333
 41
0.333333
  0
VERTEX
  8
0
 10
717.574
 20
28.6881
 30
0.0
 40
0.333333
 41
0.333333
  0
VERTEX
  8
0
 10
717.425
 20
28.7108
 30
0.0
 40
0.333333
 41
0.333333
  0
VERTEX
  8
0
 10
717.282
 20
28.7478
 30
0.0
 40
0.333333
 41
0.333333
  0
VERTEX
  8
0
 10
717.143
 20
28.7982
 30
0.0
 40
0.333333
 41
0.333333
  0
VERTEX
  8
0
 10
717.012
 20
28.8614
 30
0.0
 40
0.333333
 41
0.333333
  0
VERTEX
  8
0
 10
716.889
 20
28.9365
 30
0.0
 40
0.333333
 41
0.333333
  0
VERTEX
  8
0
 10
716.774
 20
29.0229
 30
0.0
 40
0.333333
 41
0.333333
  0
VERTEX
  8
0
 10
716.667
 20
29.1197
 30
0.0
 40
0.333333
 41
0.333333
  0
VERTEX
  8
0
 10
716.569
 20
29.2263
 30
0.0
 40
0.333333
 41
0.333333
  0
VERTEX
  8
0
 10
716.483
 20
29.3417
 30
0.0
 40
0.333333
 41
0.333333
  0
VERTEX
  8
0
 10
716.408
 20
29.4654
 30
0.0
 40
0.333333
 41
0.333333
  0
VERTEX
  8
0
 10
716.346
 20
29.5965
 30
0.0
 40
0.333333
 41
0.333333
  0
VERTEX
  8
0
 10
716.294
 20
29.7343
 30
0.0
 40
0.333333
 41
0.333333
  0
VERTEX
  8
0
 10
716.258
 20
29.8781
 30
0.0
 40
0.333333
 41
0.333333
  0
VERTEX
  8
0
 10
716.235
 20
30.0271
 30
0.0
 40
0.333333
 41
0.333333
  0
VERTEX
  8
0
 10
716.228
 20
30.1421
 30
0.0
 40
0.333333
 41
0.333333
  0
VERTEX
  8
0
 10
716.228
 20
30.1803
 30
0.0
 40
0.333333
 41
0.333333
  0
VERTEX
  8
0
 10
716.228
 20
30.2188
 30
0.0
 40
0.333333
 41
0.333333
  0
VERTEX
  8
0
 10
716.235
 20
30.3338
 30
0.0
 40
0.333333
 41
0.333333
  0
VERTEX
  8
0
 10
716.258
 20
30.4826
 30
0.0
 40
0.333333
 41
0.333333
  0
VERTEX
  8
0
 10
716.294
 20
30.6264
 30
0.0
 40
0.333333
 41
0.333333
  0
VERTEX
  8
0
 10
716.346
 20
30.7643
 30
0.0
 40
0.333333
 41
0.333333
  0
VERTEX
  8
0
 10
716.408
 20
30.8953
 30
0.0
 40
0.333333
 41
0.333333
  0
VERTEX
  8
0
 10
716.483
 20
31.019
 30
0.0
 40
0.333333
 41
0.333333
  0
VERTEX
  8
0
 10
716.569
 20
31.1344
 30
0.0
 40
0.333333
 41
0.333333
  0
VERTEX
  8
0
 10
716.667
 20
31.2411
 30
0.0
 40
0.333333
 41
0.333333
  0
VERTEX
  8
0
 10
716.774
 20
31.3378
 30
0.0
 40
0.333333
 41
0.333333
  0
VERTEX
  8
0
 10
716.889
 20
31.4242
 30
0.0
 40
0.333333
 41
0.333333
  0
VERTEX
  8
0
 10
717.012
 20
31.4993
 30
0.0
 40
0.333333
 41
0.333333
  0
VERTEX
  8
0
 10
717.143
 20
31.5625
 30
0.0
 40
0.333333
 41
0.333333
  0
VERTEX
  8
0
 10
717.282
 20
31.6129
 30
0.0
 40
0.333333
 41
0.333333
  0
VERTEX
  8
0
 10
717.425
 20
31.6499
 30
0.0
 40
0.333333
 41
0.333333
  0
VERTEX
  8
0
 10
717.574
 20
31.6726
 30
0.0
 40
0.333333
 41
0.333333
  0
VERTEX
  8
0
 10
717.689
 20
31.6803
 30
0.0
 40
0.333333
 41
0.333333
  0
VERTEX
  8
0
 10
717.728
 20
31.6803
 30
0.0
 40
0.333333
 41
0.333333
  0
VERTEX
  8
0
 10
717.765
 20
31.6803
 30
0.0
 40
0.333333
 41
0.333333
  0
VERTEX
  8
0
 10
717.881
 20
31.6726
 30
0.0
 40
0.333333
 41
0.333333
  0
VERTEX
  8
0
 10
718.029
 20
31.6499
 30
0.0
 40
0.333333
 41
0.333333
  0
VERTEX
  8
0
 10
718.174
 20
31.6129
 30
0.0
 40
0.333333
 41
0.333333
  0
VERTEX
  8
0
 10
718.311
 20
31.5625
 30
0.0
 40
0.333333
 41
0.333333
  0
VERTEX
  8
0
 10
718.443
 20
31.4993
 30
0.0
 40
0.333333
 41
0.333333
  0
VERTEX
  8
0
 10
718.567
 20
31.4242
 30
0.0
 40
0.333333
 41
0.333333
  0
VERTEX
  8
0
 10
718.682
 20
31.3378
 30
0.0
 40
0.333333
 41
0.333333
  0
VERTEX
  8
0
 10
718.787
 20
31.2411
 30
0.0
 40
0.333333
 41
0.333333
  0
VERTEX
  8
0
 10
718.885
 20
31.1344
 30
0.0
 40
0.333333
 41
0.333333
  0
VERTEX
  8
0
 10
718.971
 20
31.019
 30
0.0
 40
0.333333
 41
0.333333
  0
VERTEX
  8
0
 10
719.046
 20
30.8953
 30
0.0
 40
0.333333
 41
0.333333
  0
VERTEX
  8
0
 10
719.11
 20
30.7643
 30
0.0
 40
0.333333
 41
0.333333
  0
VERTEX
  8
0
 10
719.16
 20
30.6264
 30
0.0
 40
0.333333
 41
0.333333
  0
VERTEX
  8
0
 10
719.197
 20
30.4826
 30
0.0
 40
0.333333
 41
0.333333
  0
VERTEX
  8
0
 10
719.219
 20
30.3338
 30
0.0
 40
0.333333
 41
0.333333
  0
VERTEX
  8
0
 10
719.228
 20
30.2188
 30
0.0
 40
0.333333
 41
0.333333
  0
VERTEX
  8
0
 10
719.228
 20
30.1803
 30
0.0
 40
0.333333
 41
0.333333
  0
SEQEND
 8
0
  0
POLYLINE
  8
0
 62
     0
 66
     1
 10
0
 20
0
 30
0.0
 70
     1
 40
24
 41
24
  0
VERTEX
  8
0
 10
865.278
 20
45.9304
 30
0.0
 40
0.333333
 41
0.333333
  0
VERTEX
  8
0
 10
865.278
 20
45.8921
 30
0.0
 40
0.333333
 41
0.333333
  0
VERTEX
  8
0
 10
865.269
 20
45.7771
 30
0.0
 40
0.333333
 41
0.333333
  0
VERTEX
  8
0
 10
865.247
 20
45.6281
 30
0.0
 40
0.333333
 41
0.333333
  0
VERTEX
  8
0
 10
865.21
 20
45.4844
 30
0.0
 40
0.333333
 41
0.333333
  0
VERTEX
  8
0
 10
865.16
 20
45.3465
 30
0.0
 40
0.333333
 41
0.333333
  0
VERTEX
  8
0
 10
865.097
 20
45.2154
 30
0.0
 40
0.333333
 41
0.333333
  0
VERTEX
  8
0
 10
865.022
 20
45.0918
 30
0.0
 40
0.333333
 41
0.333333
  0
VERTEX
  8
0
 10
864.935
 20
44.9763
 30
0.0
 40
0.333333
 41
0.333333
  0
VERTEX
  8
0
 10
864.839
 20
44.8697
 30
0.0
 40
0.333333
 41
0.333333
  0
VERTEX
  8
0
 10
864.732
 20
44.7729
 30
0.0
 40
0.333333
 41
0.333333
  0
VERTEX
  8
0
 10
864.617
 20
44.6865
 30
0.0
 40
0.333333
 41
0.333333
  0
VERTEX
  8
0
 10
864.493
 20
44.6114
 30
0.0
 40
0.333333
 41
0.333333
  0
VERTEX
  8
0
 10
864.361
 20
44.5483
 30
0.0
 40
0.333333
 41
0.333333
  0
VERTEX
  8
0
 10
864.224
 20
44.4978
 30
0.0
 40
0.333333
 41
0.333333
  0
VERTEX
  8
0
 10
864.081
 20
44.4608
 30
0.0
 40
0.333333
 41
0.333333
  0
VERTEX
  8
0
 10
863.931
 20
44.4382
 30
0.0
 40
0.333333
 41
0.333333
  0
VERTEX
  8
0
 10
863.817
 20
44.4304
 30
0.0
 40
0.333333
 41
0.333333
  0
VERTEX
  8
0
 10
863.778
 20
44.4304
 30
0.0
 40
0.333333
 41
0.333333
  0
VERTEX
  8
0
 10
863.739
 20
44.4304
 30
0.0
 40
0.333333
 41
0.333333
  0
VERTEX
  8
0
 10
863.625
 20
44.4382
 30
0.0
 40
0.333333
 41
0.333333
  0
VERTEX
  8
0
 10
863.475
 20
44.4608
 30
0.0
 40
0.333333
 41
0.333333
  0
VERTEX
  8
0
 10
863.332
 20
44.4978
 30
0.0
 40
0.333333
 41
0.333333
  0
VERTEX
  8
0
 10
863.194
 20
44.5483
 30
0.0
 40
0.333333
 41
0.333333
  0
VERTEX
  8
0
 10
863.063
 20
44.6114
 30
0.0
 40
0.333333
 41
0.333333
  0
VERTEX
  8
0
 10
862.939
 20
44.6865
 30
0.0
 40
0.333333
 41
0.333333
  0
VERTEX
  8
0
 10
862.824
 20
44.7729
 30
0.0
 40
0.333333
 41
0.333333
  0
VERTEX
  8
0
 10
862.717
 20
44.8697
 30
0.0
 40
0.333333
 41
0.333333
  0
VERTEX
  8
0
 10
862.621
 20
44.9763
 30
0.0
 40
0.333333
 41
0.333333
  0
VERTEX
  8
0
 10
862.533
 20
45.0918
 30
0.0
 40
0.333333
 41
0.333333
  0
VERTEX
  8
0
 10
862.458
 20
45.2154
 30
0.0
 40
0.333333
 41
0.333333
  0
VERTEX
  8
0
 10
862.396
 20
45.3465
 30
0.0
 40
0.333333
 41
0.333333
  0
VERTEX
  8
0
 10
862.346
 20
45.4844
 30
0.0
 40
0.333333
 41
0.333333
  0
VERTEX
  8
0
 10
862.308
 20
45.6281
 30
0.0
 40
0.333333
 41
0.333333
  0
VERTEX
  8
0
 10
862.286
 20
45.7771
 30
0.0
 40
0.333333
 41
0.333333
  0
VERTEX
  8
0
 10
862.278
 20
45.8921
 30
0.0
 40
0.333333
 41
0.333333
  0
VERTEX
  8
0
 10
862.278
 20
45.9304
 30
0.0
 40
0.333333
 41
0.333333
  0
VERTEX
  8
0
 10
862.278
 20
45.9688
 30
0.0
 40
0.333333
 41
0.333333
  0
VERTEX
  8
0
 10
862.286
 20
46.0838
 30
0.0
 40
0.333333
 41
0.333333
  0
VERTEX
  8
0
 10
862.308
 20
46.2326
 30
0.0
 40
0.333333
 41
0.333333
  0
VERTEX
  8
0
 10
862.346
 20
46.3765
 30
0.0
 40
0.333333
 41
0.333333
  0
VERTEX
  8
0
 10
862.396
 20
46.5143
 30
0.0
 40
0.333333
 41
0.333333
  0
VERTEX
  8
0
 10
862.458
 20
46.6454
 30
0.0
 40
0.333333
 41
0.333333
  0
VERTEX
  8
0
 10
862.533
 20
46.7692
 30
0.0
 40
0.333333
 41
0.333333
  0
VERTEX
  8
0
 10
862.621
 20
46.8846
 30
0.0
 40
0.333333
 41
0.333333
  0
VERTEX
  8
0
 10
862.717
 20
46.9911
 30
0.0
 40
0.333333
 41
0.333333
  0
VERTEX
  8
0
 10
862.824
 20
47.0879
 30
0.0
 40
0.333333
 41
0.333333
  0
VERTEX
  8
0
 10
862.939
 20
47.1743
 30
0.0
 40
0.333333
 41
0.333333
  0
VERTEX
  8
0
 10
863.063
 20
47.2493
 30
0.0
 40
0.333333
 41
0.333333
  0
VERTEX
  8
0
 10
863.194
 20
47.3125
 30
0.0
 40
0.333333
 41
0.333333
  0
VERTEX
  8
0
 10
863.332
 20
47.3629
 30
0.0
 40
0.333333
 41
0.333333
  0
VERTEX
  8
0
 10
863.475
 20
47.4
 30
0.0
 40
0.333333
 41
0.333333
  0
VERTEX
  8
0
 10
863.625
 20
47.4226
 30
0.0
 40
0.333333
 41
0.333333
  0
VERTEX
  8
0
 10
863.739
 20
47.4304
 30
0.0
 40
0.333333
 41
0.333333
  0
VERTEX
  8
0
 10
863.778
 20
47.4304
 30
0.0
 40
0.333333
 41
0.333333
  0
VERTEX
  8
0
 10
863.817
 20
47.4304
 30
0.0
 40
0.333333
 41
0.333333
  0
VERTEX
  8
0
 10
863.931
 20
47.4226
 30
0.0
 40
0.333333
 41
0.333333
  0
VERTEX
  8
0
 10
864.081
 20
47.4
 30
0.0
 40
0.333333
 41
0.333333
  0
VERTEX
  8
0
 10
864.224
 20
47.3629
 30
0.0
 40
0.333333
 41
0.333333
  0
VERTEX
  8
0
 10
864.361
 20
47.3125
 30
0.0
 40
0.333333
 41
0.333333
  0
VERTEX
  8
0
 10
864.493
 20
47.2493
 30
0.0
 40
0.333333
 41
0.333333
  0
VERTEX
  8
0
 10
864.617
 20
47.1743
 30
0.0
 40
0.333333
 41
0.333333
  0
VERTEX
  8
0
 10
864.732
 20
47.0879
 30
0.0
 40
0.333333
 41
0.333333
  0
VERTEX
  8
0
 10
864.839
 20
46.9911
 30
0.0
 40
0.333333
 41
0.333333
  0
VERTEX
  8
0
 10
864.935
 20
46.8846
 30
0.0
 40
0.333333
 41
0.333333
  0
VERTEX
  8
0
 10
865.022
 20
46.7692
 30
0.0
 40
0.333333
 41
0.333333
  0
VERTEX
  8
0
 10
865.097
 20
46.6454
 30
0.0
 40
0.333333
 41
0.333333
  0
VERTEX
  8
0
 10
865.16
 20
46.5143
 30
0.0
 40
0.333333
 41
0.333333
  0
VERTEX
  8
0
 10
865.21
 20
46.3765
 30
0.0
 40
0.333333
 41
0.333333
  0
VERTEX
  8
0
 10
865.247
 20
46.2326
 30
0.0
 40
0.333333
 41
0.333333
  0
VERTEX
  8
0
 10
865.269
 20
46.0838
 30
0.0
 40
0.333333
 41
0.333333
  0
VERTEX
  8
0
 10
865.278
 20
45.9688
 30
0.0
 40
0.333333
 41
0.333333
  0
VERTEX
  8
0
 10
865.278
 20
45.9304
 30
0.0
 40
0.333333
 41
0.333333
  0
SEQEND
 8
0
  0
POLYLINE
  8
0
 62
     0
 66
     1
 10
0
 20
0
 30
0.0
 40
25.4
 41
25.4
  0
VERTEX
  8
0
 10
260.526
 20
424.996
 30
0.0
 40
0.352778
 41
0.352778
  0
VERTEX
  8
0
 10
260.526
 20
428.171
 30
0.0
 40
0.352778
 41
0.352778
  0
SEQEND
 8
0
  0
POLYLINE
  8
0
 62
     0
 66
     1
 10
0
 20
0
 30
0.0
 40
25.4
 41
25.4
  0
VERTEX
  8
0
 10
212.715
 20
482.146
 30
0.0
 40
0.352778
 41
0.352778
  0
VERTEX
  8
0
 10
212.715
 20
478.971
 30
0.0
 40
0.352778
 41
0.352778
  0
SEQEND
 8
0
  0
POLYLINE
  8
0
 62
     0
 66
     1
 10
0
 20
0
 30
0.0
 40
25.4
 41
25.4
  0
VERTEX
  8
0
 10
209.726
 20
482.146
 30
0.0
 40
0.352778
 41
0.352778
  0
VERTEX
  8
0
 10
263.515
 20
424.996
 30
0.0
 40
0.352778
 41
0.352778
  0
SEQEND
 8
0
  0
POLYLINE
  8
0
 62
     0
 66
     1
 10
0
 20
0
 30
0.0
 70
     1
 40
25.4
 41
25.4
  0
VERTEX
  8
0
 10
260.526
 20
786.946
 30
0.0
 40
0.352778
 41
0.352778
  0
VERTEX
  8
0
 10
260.526
 20
757.917
 30
0.0
 40
0.352778
 41
0.352778
  0
VERTEX
  8
0
 10
263.701
 20
757.917
 30
0.0
 40
0.352778
 41
0.352778
  0
VERTEX
  8
0
 10
263.701
 20
786.946
 30
0.0
 40
0.352778
 41
0.352778
  0
VERTEX
  8
0
 10
280.443
 20
786.946
 30
0.0
 40
0.352778
 41
0.352778
  0
VERTEX
  8
0
 10
280.443
 20
793.296
 30
0.0
 40
0.352778
 41
0.352778
  0
VERTEX
  8
0
 10
326.625
 20
793.296
 30
0.0
 40
0.352778
 41
0.352778
  0
VERTEX
  8
0
 10
326.625
 20
786.946
 30
0.0
 40
0.352778
 41
0.352778
  0
VERTEX
  8
0
 10
372.807
 20
786.946
 30
0.0
 40
0.352778
 41
0.352778
  0
VERTEX
  8
0
 10
372.807
 20
793.296
 30
0.0
 40
0.352778
 41
0.352778
  0
VERTEX
  8
0
 10
418.989
 20
793.296
 30
0.0
 40
0.352778
 41
0.352778
  0
VERTEX
  8
0
 10
418.989
 20
786.946
 30
0.0
 40
0.352778
 41
0.352778
  0
VERTEX
  8
0
 10
465.171
 20
786.946
 30
0.0
 40
0.352778
 41
0.352778
  0
VERTEX
  8
0
 10
465.171
 20
793.296
 30
0.0
 40
0.352778
 41
0.352778
  0
VERTEX
  8
0
 10
511.353
 20
793.296
 30
0.0
 40
0.352778
 41
0.352778
  0
VERTEX
  8
0
 10
511.353
 20
743.403
 30
0.0
 40
0.352778
 41
0.352778
  0
VERTEX
  8
0
 10
514.528
 20
743.403
 30
0.0
 40
0.352778
 41
0.352778
  0
VERTEX
  8
0
 10
514.528
 20
699.86
 30
0.0
 40
0.352778
 41
0.352778
  0
VERTEX
  8
0
 10
511.353
 20
699.86
 30
0.0
 40
0.352778
 41
0.352778
  0
VERTEX
  8
0
 10
511.353
 20
656.317
 30
0.0
 40
0.352778
 41
0.352778
  0
VERTEX
  8
0
 10
514.528
 20
656.317
 30
0.0
 40
0.352778
 41
0.352778
  0
VERTEX
  8
0
 10
514.528
 20
612.774
 30
0.0
 40
0.352778
 41
0.352778
  0
VERTEX
  8
0
 10
511.353
 20
612.774
 30
0.0
 40
0.352778
 41
0.352778
  0
VERTEX
  8
0
 10
511.353
 20
569.231
 30
0.0
 40
0.352778
 41
0.352778
  0
VERTEX
  8
0
 10
514.528
 20
569.231
 30
0.0
 40
0.352778
 41
0.352778
  0
VERTEX
  8
0
 10
514.528
 20
525.689
 30
0.0
 40
0.352778
 41
0.352778
  0
VERTEX
  8
0
 10
511.353
 20
525.689
 30
0.0
 40
0.352778
 41
0.352778
  0
VERTEX
  8
0
 10
511.353
 20
482.146
 30
0.0
 40
0.352778
 41
0.352778
  0
VERTEX
  8
0
 10
3.3514
 20
482.146
 30
0.0
 40
0.352778
 41
0.352778
  0
VERTEX
  8
0
 10
3.3514
 20
525.689
 30
0.0
 40
0.352778
 41
0.352778
  0
VERTEX
  8
0
 10
0.176378
 20
525.689
 30
0.0
 40
0.352778
 41
0.352778
  0
VERTEX
  8
0
 10
0.176378
 20
569.231
 30
0.0
 40
0.352778
 41
0.352778
  0
VERTEX
  8
0
 10
3.3514
 20
569.231
 30
0.0
 40
0.352778
 41
0.352778
  0
VERTEX
  8
0
 10
3.3514
 20
612.774
 30
0.0
 40
0.352778
 41
0.352778
  0
VERTEX
  8
0
 10
0.176378
 20
612.774
 30
0.0
 40
0.352778
 41
0.352778
  0
VERTEX
  8
0
 10
0.176378
 20
656.317
 30
0.0
 40
0.352778
 41
0.352778
  0
VERTEX
  8
0
 10
3.3514
 20
656.317
 30
0.0
 40
0.352778
 41
0.352778
  0
VERTEX
  8
0
 10
3.3514
 20
699.86
 30
0.0
 40
0.352778
 41
0.352778
  0
VERTEX
  8
0
 10
0.176378
 20
699.86
 30
0.0
 40
0.352778
 41
0.352778
  0
VERTEX
  8
0
 10
0.176378
 20
743.403
 30
0.0
 40
0.352778
 41
0.352778
  0
VERTEX
  8
0
 10
3.3514
 20
743.403
 30
0.0
 40
0.352778
 41
0.352778
  0
VERTEX
  8
0
 10
3.3514
 20
793.296
 30
0.0
 40
0.352778
 41
0.352778
  0
VERTEX
  8
0
 10
49.5333
 20
793.296
 30
0.0
 40
0.352778
 41
0.352778
  0
VERTEX
  8
0
 10
49.5333
 20
786.946
 30
0.0
 40
0.352778
 41
0.352778
  0
VERTEX
  8
0
 10
95.7151
 20
786.946
 30
0.0
 40
0.352778
 41
0.352778
  0
VERTEX
  8
0
 10
95.7151
 20
793.296
 30
0.0
 40
0.352778
 41
0.352778
  0
VERTEX
  8
0
 10
141.897
 20
793.296
 30
0.0
 40
0.352778
 41
0.352778
  0
VERTEX
  8
0
 10
141.897
 20
786.946
 30
0.0
 40
0.352778
 41
0.352778
  0
VERTEX
  8
0
 10
188.079
 20
786.946
 30
0.0
 40
0.352778
 41
0.352778
  0
VERTEX
  8
0
 10
188.079
 20
793.296
 30
0.0
 40
0.352778
 41
0.352778
  0
VERTEX
  8
0
 10
234.261
 20
793.296
 30
0.0
 40
0.352778
 41
0.352778
  0
VERTEX
  8
0
 10
234.261
 20
786.946
 30
0.0
 40
0.352778
 41
0.352778
  0
VERTEX
  8
0
 10
260.526
 20
786.946
 30
0.0
 40
0.352778
 41
0.352778
  0
SEQEND
 8
0
  0
POLYLINE
  8
0
 62
     0
 66
     1
 10
0
 20
0
 30
0.0
 70
     1
 40
25.4
 41
25.4
  0
VERTEX
  8
0
 10
260.526
 20
728.889
 30
0.0
 40
0.352778
 41
0.352778
  0
VERTEX
  8
0
 10
263.701
 20
728.889
 30
0.0
 40
0.352778
 41
0.352778
  0
VERTEX
  8
0
 10
263.701
 20
699.86
 30
0.0
 40
0.352778
 41
0.352778
  0
VERTEX
  8
0
 10
260.526
 20
699.86
 30
0.0
 40
0.352778
 41
0.352778
  0
VERTEX
  8
0
 10
260.526
 20
728.889
 30
0.0
 40
0.352778
 41
0.352778
  0
SEQEND
 8
0
  0
POLYLINE
  8
0
 62
     0
 66
     1
 10
0
 20
0
 30
0.0
 70
     1
 40
25.4
 41
25.4
  0
VERTEX
  8
0
 10
260.526
 20
670.832
 30
0.0
 40
0.352778
 41
0.352778
  0
VERTEX
  8
0
 10
263.701
 20
670.832
 30
0.0
 40
0.352778
 41
0.352778
  0
VERTEX
  8
0
 10
263.701
 20
641.803
 30
0.0
 40
0.352778
 41
0.352778
  0
VERTEX
  8
0
 10
260.526
 20
641.803
 30
0.0
 40
0.352778
 41
0.352778
  0
VERTEX
  8
0
 10
260.526
 20
670.832
 30
0.0
 40
0.352778
 41
0.352778
  0
SEQEND
 8
0
  0
POLYLINE
  8
0
 62
     0
 66
     1
 10
0
 20
0
 30
0.0
 70
     1
 40
25.4
 41
25.4
  0
VERTEX
  8
0
 10
260.526
 20
612.774
 30
0.0
 40
0.352778
 41
0.352778
  0
VERTEX
  8
0
 10
263.701
 20
612.774
 30
0.0
 40
0.352778
 41
0.352778
  0
VERTEX
  8
0
 10
263.701
 20
583.746
 30
0.0
 40
0.352778
 41
0.352778
  0
VERTEX
  8
0
 10
260.526
 20
583.746
 30
0.0
 40
0.352778
 41
0.352778
  0
VERTEX
  8
0
 10
260.526
 20
612.774
 30
0.0
 40
0.352778
 41
0.352778
  0
SEQEND
 8
0
  0
POLYLINE
  8
0
 62
     0
 66
     1
 10
0
 20
0
 30
0.0
 70
     1
 40
25.4
 41
25.4
  0
VERTEX
  8
0
 10
251.001
 20
755.196
 30
0.0
 40
0.352778
 41
0.352778
  0
VERTEX
  8
0
 10
254.176
 20
755.196
 30
0.0
 40
0.352778
 41
0.352778
  0
VERTEX
  8
0
 10
254.176
 20
723.446
 30
0.0
 40
0.352778
 41
0.352778
  0
VERTEX
  8
0
 10
251.001
 20
723.446
 30
0.0
 40
0.352778
 41
0.352778
  0
VERTEX
  8
0
 10
251.001
 20
755.196
 30
0.0
 40
0.352778
 41
0.352778
  0
SEQEND
 8
0
  0
POLYLINE
  8
0
 62
     0
 66
     1
 10
0
 20
0
 30
0.0
 70
     1
 40
25.4
 41
25.4
  0
VERTEX
  8
0
 10
251.001
 20
691.696
 30
0.0
 40
0.352778
 41
0.352778
  0
VERTEX
  8
0
 10
254.176
 20
691.696
 30
0.0
 40
0.352778
 41
0.352778
  0
VERTEX
  8
0
 10
254.176
 20
659.946
 30
0.0
 40
0.352778
 41
0.352778
  0
VERTEX
  8
0
 10
251.001
 20
659.946
 30
0.0
 40
0.352778
 41
0.352778
  0
VERTEX
  8
0
 10
251.001
 20
691.696
 30
0.0
 40
0.352778
 41
0.352778
  0
SEQEND
 8
0
  0
POLYLINE
  8
0
 62
     0
 66
     1
 10
0
 20
0
 30
0.0
 70
     1
 40
25.4
 41
25.4
  0
VERTEX
  8
0
 10
251.001
 20
628.196
 30
0.0
 40
0.352778
 41
0.352778
  0
VERTEX
  8
0
 10
254.176
 20
628.196
 30
0.0
 40
0.352778
 41
0.352778
  0
VERTEX
  8
0
 10
254.176
 20
596.446
 30
0.0
 40
0.352778
 41
0.352778
  0
VERTEX
  8
0
 10
251.001
 20
596.446
 30
0.0
 40
0.352778
 41
0.352778
  0
VERTEX
  8
0
 10
251.001
 20
628.196
 30
0.0
 40
0.352778
 41
0.352778
  0
SEQEND
 8
0
  0
POLYLINE
  8
0
 62
     0
 66
     1
 10
0
 20
0
 30
0.0
 70
     1
 40
25.4
 41
25.4
  0
VERTEX
  8
0
 10
251.001
 20
564.696
 30
0.0
 40
0.352778
 41
0.352778
  0
VERTEX
  8
0
 10
254.176
 20
564.696
 30
0.0
 40
0.352778
 41
0.352778
  0
VERTEX
  8
0
 10
254.176
 20
532.946
 30
0.0
 40
0.352778
 41
0.352778
  0
VERTEX
  8
0
 10
251.001
 20
532.946
 30
0.0
 40
0.352778
 41
0.352778
  0
VERTEX
  8
0
 10
251.001
 20
564.696
 30
0.0
 40
0.352778
 41
0.352778
  0
SEQEND
 8
0
  0
POLYLINE
  8
0
 62
     0
 66
     1
 10
0
 20
0
 30
0.0
 40
25.4
 41
25.4
  0
VERTEX
  8
0
 10
165.276
 20
424.996
 30
0.0
 40
0.352778
 41
0.352778
  0
VERTEX
  8
0
 10
165.276
 20
428.171
 30
0.0
 40
0.352778
 41
0.352778
  0
VERTEX
  8
0
 10
133.527
 20
428.171
 30
0.0
 40
0.352778
 41
0.352778
  0
VERTEX
  8
0
 10
133.527
 20
424.996
 30
0.0
 40
0.352778
 41
0.352778
  0
SEQEND
 8
0
  0
POLYLINE
  8
0
 62
     0
 66
     1
 10
0
 20
0
 30
0.0
 40
25.4
 41
25.4
  0
VERTEX
  8
0
 10
197.026
 20
424.996
 30
0.0
 40
0.352778
 41
0.352778
  0
VERTEX
  8
0
 10
197.026
 20
428.171
 30
0.0
 40
0.352778
 41
0.352778
  0
VERTEX
  8
0
 10
228.776
 20
428.171
 30
0.0
 40
0.352778
 41
0.352778
  0
VERTEX
  8
0
 10
228.776
 20
424.996
 30
0.0
 40
0.352778
 41
0.352778
  0
SEQEND
 8
0
  0
POLYLINE
  8
0
 62
     0
 66
     1
 10
0
 20
0
 30
0.0
 40
25.4
 41
25.4
  0
VERTEX
  8
0
 10
6.52642
 20
482.146
 30
0.0
 40
0.352778
 41
0.352778
  0
VERTEX
  8
0
 10
6.52642
 20
440.871
 30
0.0
 40
0.352778
 41
0.352778
  0
VERTEX
  8
0
 10
0.176378
 20
440.871
 30
0.0
 40
0.352778
 41
0.352778
  0
VERTEX
  8
0
 10
0.176378
 20
428.171
 30
0.0
 40
0.352778
 41
0.352778
  0
VERTEX
  8
0
 10
38.2765
 20
428.171
 30
0.0
 40
0.352778
 41
0.352778
  0
VERTEX
  8
0
 10
38.2765
 20
424.996
 30
0.0
 40
0.352778
 41
0.352778
  0
SEQEND
 8
0
  0
POLYLINE
  8
0
 62
     0
 66
     1
 10
0
 20
0
 30
0.0
 40
25.4
 41
25.4
  0
VERTEX
  8
0
 10
70.0265
 20
424.996
 30
0.0
 40
0.352778
 41
0.352778
  0
VERTEX
  8
0
 10
70.0265
 20
428.171
 30
0.0
 40
0.352778
 41
0.352778
  0
VERTEX
  8
0
 10
101.777
 20
428.171
 30
0.0
 40
0.352778
 41
0.352778
  0
VERTEX
  8
0
 10
101.777
 20
424.996
 30
0.0
 40
0.352778
 41
0.352778
  0
SEQEND
 8
0
  0
POLYLINE
  8
0
 62
     0
 66
     1
 10
0
 20
0
 30
0.0
 40
25.4
 41
25.4
  0
VERTEX
  8
0
 10
307.965
 20
482.146
 30
0.0
 40
0.352778
 41
0.352778
  0
VERTEX
  8
0
 10
307.965
 20
478.971
 30
0.0
 40
0.352778
 41
0.352778
  0
VERTEX
  8
0
 10
339.715
 20
478.971
 30
0.0
 40
0.352778
 41
0.352778
  0
VERTEX
  8
0
 10
339.715
 20
482.146
 30
0.0
 40
0.352778
 41
0.352778
  0
SEQEND
 8
0
  0
POLYLINE
  8
0
 62
     0
 66
     1
 10
0
 20
0
 30
0.0
 40
25.4
 41
25.4
  0
VERTEX
  8
0
 10
276.215
 20
482.146
 30
0.0
 40
0.352778
 41
0.352778
  0
VERTEX
  8
0
 10
276.215
 20
478.971
 30
0.0
 40
0.352778
 41
0.352778
  0
VERTEX
  8
0
 10
244.465
 20
478.971
 30
0.0
 40
0.352778
 41
0.352778
  0
VERTEX
  8
0
 10
244.465
 20
482.146
 30
0.0
 40
0.352778
 41
0.352778
  0
SEQEND
 8
0
  0
POLYLINE
  8
0
 62
     0
 66
     1
 10
0
 20
0
 30
0.0
 40
25.4
 41
25.4
  0
VERTEX
  8
0
 10
466.715
 20
424.996
 30
0.0
 40
0.352778
 41
0.352778
  0
VERTEX
  8
0
 10
466.715
 20
466.271
 30
0.0
 40
0.352778
 41
0.352778
  0
VERTEX
  8
0
 10
473.065
 20
466.271
 30
0.0
 40
0.352778
 41
0.352778
  0
VERTEX
  8
0
 10
473.065
 20
478.971
 30
0.0
 40
0.352778
 41
0.352778
  0
VERTEX
  8
0
 10
434.965
 20
478.971
 30
0.0
 40
0.352778
 41
0.352778
  0
VERTEX
  8
0
 10
434.965
 20
482.146
 30
0.0
 40
0.352778
 41
0.352778
  0
SEQEND
 8
0
  0
POLYLINE
  8
0
 62
     0
 66
     1
 10
0
 20
0
 30
0.0
 40
25.4
 41
25.4
  0
VERTEX
  8
0
 10
403.215
 20
482.146
 30
0.0
 40
0.352778
 41
0.352778
  0
VERTEX
  8
0
 10
403.215
 20
478.971
 30
0.0
 40
0.352778
 41
0.352778
  0
VERTEX
  8
0
 10
371.465
 20
478.971
 30
0.0
 40
0.352778
 41
0.352778
  0
VERTEX
  8
0
 10
371.465
 20
482.146
 30
0.0
 40
0.352778
 41
0.352778
  0
SEQEND
 8
0
  0
POLYLINE
  8
0
 62
     0
 66
     1
 10
0
 20
0
 30
0.0
 40
25.4
 41
25.4
  0
VERTEX
  8
0
 10
203.376
 20
424.996
 30
0.0
 40
0.352778
 41
0.352778
  0
VERTEX
  8
0
 10
203.376
 20
409.121
 30
0.0
 40
0.352778
 41
0.352778
  0
VERTEX
  8
0
 10
174.349
 20
409.121
 30
0.0
 40
0.352778
 41
0.352778
  0
VERTEX
  8
0
 10
174.349
 20
412.296
 30
0.0
 40
0.352778
 41
0.352778
  0
VERTEX
  8
0
 10
145.319
 20
412.296
 30
0.0
 40
0.352778
 41
0.352778
  0
VERTEX
  8
0
 10
145.319
 20
409.121
 30
0.0
 40
0.352778
 41
0.352778
  0
VERTEX
  8
0
 10
116.291
 20
409.121
 30
0.0
 40
0.352778
 41
0.352778
  0
VERTEX
  8
0
 10
116.291
 20
412.296
 30
0.0
 40
0.352778
 41
0.352778
  0
VERTEX
  8
0
 10
87.2622
 20
412.296
 30
0.0
 40
0.352778
 41
0.352778
  0
VERTEX
  8
0
 10
87.2622
 20
409.121
 30
0.0
 40
0.352778
 41
0.352778
  0
VERTEX
  8
0
 10
58.2336
 20
409.121
 30
0.0
 40
0.352778
 41
0.352778
  0
VERTEX
  8
0
 10
58.2336
 20
412.296
 30
0.0
 40
0.352778
 41
0.352778
  0
VERTEX
  8
0
 10
29.205
 20
412.296
 30
0.0
 40
0.352778
 41
0.352778
  0
VERTEX
  8
0
 10
29.205
 20
409.121
 30
0.0
 40
0.352778
 41
0.352778
  0
VERTEX
  8
0
 10
0.176378
 20
409.121
 30
0.0
 40
0.352778
 41
0.352778
  0
VERTEX
  8
0
 10
0.176378
 20
424.996
 30
0.0
 40
0.352778
 41
0.352778
  0
VERTEX
  8
0
 10
466.715
 20
424.996
 30
0.0
 40
0.352778
 41
0.352778
  0
SEQEND
 8
0
  0
POLYLINE
  8
0
 62
     0
 66
     1
 10
0
 20
0
 30
0.0
 40
25.4
 41
25.4
  0
VERTEX
  8
0
 10
203.376
 20
409.121
 30
0.0
 40
0.352778
 41
0.352778
  0
VERTEX
  8
0
 10
232.406
 20
409.121
 30
0.0
 40
0.352778
 41
0.352778
  0
VERTEX
  8
0
 10
232.406
 20
412.296
 30
0.0
 40
0.352778
 41
0.352778
  0
VERTEX
  8
0
 10
261.433
 20
412.296
 30
0.0
 40
0.352778
 41
0.352778
  0
VERTEX
  8
0
 10
261.433
 20
409.121
 30
0.0
 40
0.352778
 41
0.352778
  0
VERTEX
  8
0
 10
290.463
 20
409.121
 30
0.0
 40
0.352778
 41
0.352778
  0
VERTEX
  8
0
 10
290.463
 20
412.296
 30
0.0
 40
0.352778
 41
0.352778
  0
VERTEX
  8
0
 10
319.492
 20
412.296
 30
0.0
 40
0.352778
 41
0.352778
  0
VERTEX
  8
0
 10
319.492
 20
409.121
 30
0.0
 40
0.352778
 41
0.352778
  0
VERTEX
  8
0
 10
348.519
 20
409.121
 30
0.0
 40
0.352778
 41
0.352778
  0
VERTEX
  8
0
 10
348.519
 20
412.296
 30
0.0
 40
0.352778
 41
0.352778
  0
VERTEX
  8
0
 10
377.549
 20
412.296
 30
0.0
 40
0.352778
 41
0.352778
  0
VERTEX
  8
0
 10
377.549
 20
409.121
 30
0.0
 40
0.352778
 41
0.352778
  0
VERTEX
  8
0
 10
406.576
 20
409.121
 30
0.0
 40
0.352778
 41
0.352778
  0
VERTEX
  8
0
 10
406.576
 20
424.996
 30
0.0
 40
0.352778
 41
0.352778
  0
SEQEND
 8
0
  0
POLYLINE
  8
0
 62
     0
 66
     1
 10
0
 20
0
 30
0.0
 40
25.4
 41
25.4
  0
VERTEX
  8
0
 10
514.528
 20
267.787
 30
0.0
 40
0.352778
 41
0.352778
  0
VERTEX
  8
0
 10
511.353
 20
267.787
 30
0.0
 40
0.352778
 41
0.352778
  0
VERTEX
  8
0
 10
511.353
 20
311.331
 30
0.0
 40
0.352778
 41
0.352778
  0
VERTEX
  8
0
 10
3.3514
 20
311.331
 30
0.0
 40
0.352778
 41
0.352778
  0
VERTEX
  8
0
 10
3.3514
 20
267.787
 30
0.0
 40
0.352778
 41
0.352778
  0
VERTEX
  8
0
 10
0.176378
 20
267.787
 30
0.0
 40
0.352778
 41
0.352778
  0
VERTEX
  8
0
 10
0.176378
 20
224.244
 30
0.0
 40
0.352778
 41
0.352778
  0
VERTEX
  8
0
 10
3.3514
 20
224.244
 30
0.0
 40
0.352778
 41
0.352778
  0
VERTEX
  8
0
 10
3.3514
 20
180.701
 30
0.0
 40
0.352778
 41
0.352778
  0
VERTEX
  8
0
 10
0.176378
 20
180.701
 30
0.0
 40
0.352778
 41
0.352778
  0
VERTEX
  8
0
 10
0.176378
 20
137.159
 30
0.0
 40
0.352778
 41
0.352778
  0
VERTEX
  8
0
 10
3.3514
 20
137.159
 30
0.0
 40
0.352778
 41
0.352778
  0
VERTEX
  8
0
 10
3.3514
 20
93.6161
 30
0.0
 40
0.352778
 41
0.352778
  0
VERTEX
  8
0
 10
0.176378
 20
93.6161
 30
0.0
 40
0.352778
 41
0.352778
  0
VERTEX
  8
0
 10
0.176378
 20
50.0732
 30
0.0
 40
0.352778
 41
0.352778
  0
VERTEX
  8
0
 10
3.3514
 20
50.0732
 30
0.0
 40
0.352778
 41
0.352778
  0
VERTEX
  8
0
 10
3.3514
 20
0.180339
 30
0.0
 40
0.352778
 41
0.352778
  0
VERTEX
  8
0
 10
49.5333
 20
0.180339
 30
0.0
 40
0.352778
 41
0.352778
  0
VERTEX
  8
0
 10
49.5333
 20
6.53033
 30
0.0
 40
0.352778
 41
0.352778
  0
VERTEX
  8
0
 10
95.7151
 20
6.53033
 30
0.0
 40
0.352778
 41
0.352778
  0
VERTEX
  8
0
 10
95.7151
 20
0.180339
 30
0.0
 40
0.352778
 41
0.352778
  0
VERTEX
  8
0
 10
141.897
 20
0.180339
 30
0.0
 40
0.352778
 41
0.352778
  0
VERTEX
  8
0
 10
141.897
 20
6.53033
 30
0.0
 40
0.352778
 41
0.352778
  0
VERTEX
  8
0
 10
188.079
 20
6.53033
 30
0.0
 40
0.352778
 41
0.352778
  0
VERTEX
  8
0
 10
188.079
 20
0.180339
 30
0.0
 40
0.352778
 41
0.352778
  0
VERTEX
  8
0
 10
234.261
 20
0.180339
 30
0.0
 40
0.352778
 41
0.352778
  0
VERTEX
  8
0
 10
234.261
 20
6.53033
 30
0.0
 40
0.352778
 41
0.352778
  0
VERTEX
  8
0
 10
251.001
 20
6.53033
 30
0.0
 40
0.352778
 41
0.352778
  0
VERTEX
  8
0
 10
251.001
 20
35.5589
 30
0.0
 40
0.352778
 41
0.352778
  0
VERTEX
  8
0
 10
254.176
 20
35.5589
 30
0.0
 40
0.352778
 41
0.352778
  0
VERTEX
  8
0
 10
254.176
 20
6.53033
 30
0.0
 40
0.352778
 41
0.352778
  0
VERTEX
  8
0
 10
280.443
 20
6.53033
 30
0.0
 40
0.352778
 41
0.352778
  0
VERTEX
  8
0
 10
280.443
 20
0.180339
 30
0.0
 40
0.352778
 41
0.352778
  0
VERTEX
  8
0
 10
326.625
 20
0.180339
 30
0.0
 40
0.352778
 41
0.352778
  0
VERTEX
  8
0
 10
326.625
 20
6.53033
 30
0.0
 40
0.352778
 41
0.352778
  0
VERTEX
  8
0
 10
372.807
 20
6.53033
 30
0.0
 40
0.352778
 41
0.352778
  0
VERTEX
  8
0
 10
372.807
 20
0.180339
 30
0.0
 40
0.352778
 41
0.352778
  0
VERTEX
  8
0
 10
418.989
 20
0.180339
 30
0.0
 40
0.352778
 41
0.352778
  0
VERTEX
  8
0
 10
418.989
 20
6.53033
 30
0.0
 40
0.352778
 41
0.352778
  0
VERTEX
  8
0
 10
465.171
 20
6.53033
 30
0.0
 40
0.352778
 41
0.352778
  0
VERTEX
  8
0
 10
465.171
 20
0.180339
 30
0.0
 40
0.352778
 41
0.352778
  0
VERTEX
  8
0
 10
511.353
 20
0.180339
 30
0.0
 40
0.352778
 41
0.352778
  0
VERTEX
  8
0
 10
511.353
 20
50.0732
 30
0.0
 40
0.352778
 41
0.352778
  0
VERTEX
  8
0
 10
514.528
 20
50.0732
 30
0.0
 40
0.352778
 41
0.352778
  0
VERTEX
  8
0
 10
514.528
 20
130.809
 30
0.0
 40
0.352778
 41
0.352778
  0
SEQEND
 8
0
  0
POLYLINE
  8
0
 62
     0
 66
     1
 10
0
 20
0
 30
0.0
 40
25.4
 41
25.4
  0
VERTEX
  8
0
 10
514.528
 20
93.6161
 30
0.0
 40
0.352778
 41
0.352778
  0
VERTEX
  8
0
 10
511.353
 20
93.6161
 30
0.0
 40
0.352778
 41
0.352778
  0
VERTEX
  8
0
 10
511.353
 20
137.159
 30
0.0
 40
0.352778
 41
0.352778
  0
VERTEX
  8
0
 10
514.528
 20
137.159
 30
0.0
 40
0.352778
 41
0.352778
  0
VERTEX
  8
0
 10
514.528
 20
217.894
 30
0.0
 40
0.352778
 41
0.352778
  0
SEQEND
 8
0
  0
POLYLINE
  8
0
 62
     0
 66
     1
 10
0
 20
0
 30
0.0
 40
25.4
 41
25.4
  0
VERTEX
  8
0
 10
514.528
 20
180.701
 30
0.0
 40
0.352778
 41
0.352778
  0
VERTEX
  8
0
 10
511.353
 20
180.701
 30
0.0
 40
0.352778
 41
0.352778
  0
VERTEX
  8
0
 10
511.353
 20
224.244
 30
0.0
 40
0.352778
 41
0.352778
  0
VERTEX
  8
0
 10
514.528
 20
224.244
 30
0.0
 40
0.352778
 41
0.352778
  0
VERTEX
  8
0
 10
514.528
 20
304.981
 30
0.0
 40
0.352778
 41
0.352778
  0
SEQEND
 8
0
  0
POLYLINE
  8
0
 62
     0
 66
     1
 10
0
 20
0
 30
0.0
 70
     1
 40
25.4
 41
25.4
  0
VERTEX
  8
0
 10
251.001
 20
93.6161
 30
0.0
 40
0.352778
 41
0.352778
  0
VERTEX
  8
0
 10
254.176
 20
93.6161
 30
0.0
 40
0.352778
 41
0.352778
  0
VERTEX
  8
0
 10
254.176
 20
64.5875
 30
0.0
 40
0.352778
 41
0.352778
  0
VERTEX
  8
0
 10
251.001
 20
64.5875
 30
0.0
 40
0.352778
 41
0.352778
  0
VERTEX
  8
0
 10
251.001
 20
93.6161
 30
0.0
 40
0.352778
 41
0.352778
  0
SEQEND
 8
0
  0
POLYLINE
  8
0
 62
     0
 66
     1
 10
0
 20
0
 30
0.0
 70
     1
 40
25.4
 41
25.4
  0
VERTEX
  8
0
 10
251.001
 20
151.674
 30
0.0
 40
0.352778
 41
0.352778
  0
VERTEX
  8
0
 10
254.176
 20
151.674
 30
0.0
 40
0.352778
 41
0.352778
  0
VERTEX
  8
0
 10
254.176
 20
122.645
 30
0.0
 40
0.352778
 41
0.352778
  0
VERTEX
  8
0
 10
251.001
 20
122.645
 30
0.0
 40
0.352778
 41
0.352778
  0
VERTEX
  8
0
 10
251.001
 20
151.674
 30
0.0
 40
0.352778
 41
0.352778
  0
SEQEND
 8
0
  0
POLYLINE
  8
0
 62
     0
 66
     1
 10
0
 20
0
 30
0.0
 70
     1
 40
25.4
 41
25.4
  0
VERTEX
  8
0
 10
251.001
 20
209.731
 30
0.0
 40
0.352778
 41
0.352778
  0
VERTEX
  8
0
 10
254.176
 20
209.731
 30
0.0
 40
0.352778
 41
0.352778
  0
VERTEX
  8
0
 10
254.176
 20
180.701
 30
0.0
 40
0.352778
 41
0.352778
  0
VERTEX
  8
0
 10
251.001
 20
180.701
 30
0.0
 40
0.352778
 41
0.352778
  0
VERTEX
  8
0
 10
251.001
 20
209.731
 30
0.0
 40
0.352778
 41
0.352778
  0
SEQEND
 8
0
  0
POLYLINE
  8
0
 62
     0
 66
     1
 10
0
 20
0
 30
0.0
 70
     1
 40
25.4
 41
25.4
  0
VERTEX
  8
0
 10
260.526
 20
70.0304
 30
0.0
 40
0.352778
 41
0.352778
  0
VERTEX
  8
0
 10
263.701
 20
70.0304
 30
0.0
 40
0.352778
 41
0.352778
  0
VERTEX
  8
0
 10
263.701
 20
38.2804
 30
0.0
 40
0.352778
 41
0.352778
  0
VERTEX
  8
0
 10
260.526
 20
38.2804
 30
0.0
 40
0.352778
 41
0.352778
  0
VERTEX
  8
0
 10
260.526
 20
70.0304
 30
0.0
 40
0.352778
 41
0.352778
  0
SEQEND
 8
0
  0
POLYLINE
  8
0
 62
     0
 66
     1
 10
0
 20
0
 30
0.0
 70
     1
 40
25.4
 41
25.4
  0
VERTEX
  8
0
 10
260.526
 20
133.531
 30
0.0
 40
0.352778
 41
0.352778
  0
VERTEX
  8
0
 10
263.701
 20
133.531
 30
0.0
 40
0.352778
 41
0.352778
  0
VERTEX
  8
0
 10
263.701
 20
101.781
 30
0.0
 40
0.352778
 41
0.352778
  0
VERTEX
  8
0
 10
260.526
 20
101.781
 30
0.0
 40
0.352778
 41
0.352778
  0
VERTEX
  8
0
 10
260.526
 20
133.531
 30
0.0
 40
0.352778
 41
0.352778
  0
SEQEND
 8
0
  0
POLYLINE
  8
0
 62
     0
 66
     1
 10
0
 20
0
 30
0.0
 70
     1
 40
25.4
 41
25.4
  0
VERTEX
  8
0
 10
260.526
 20
197.031
 30
0.0
 40
0.352778
 41
0.352778
  0
VERTEX
  8
0
 10
263.701
 20
197.031
 30
0.0
 40
0.352778
 41
0.352778
  0
VERTEX
  8
0
 10
263.701
 20
165.281
 30
0.0
 40
0.352778
 41
0.352778
  0
VERTEX
  8
0
 10
260.526
 20
165.281
 30
0.0
 40
0.352778
 41
0.352778
  0
VERTEX
  8
0
 10
260.526
 20
197.031
 30
0.0
 40
0.352778
 41
0.352778
  0
SEQEND
 8
0
  0
POLYLINE
  8
0
 62
     0
 66
     1
 10
0
 20
0
 30
0.0
 70
     1
 40
25.4
 41
25.4
  0
VERTEX
  8
0
 10
260.526
 20
260.531
 30
0.0
 40
0.352778
 41
0.352778
  0
VERTEX
  8
0
 10
263.701
 20
260.531
 30
0.0
 40
0.352778
 41
0.352778
  0
VERTEX
  8
0
 10
263.701
 20
228.781
 30
0.0
 40
0.352778
 41
0.352778
  0
VERTEX
  8
0
 10
260.526
 20
228.781
 30
0.0
 40
0.352778
 41
0.352778
  0
VERTEX
  8
0
 10
260.526
 20
260.531
 30
0.0
 40
0.352778
 41
0.352778
  0
SEQEND
 8
0
  0
POLYLINE
  8
0
 62
     0
 66
     1
 10
0
 20
0
 30
0.0
 40
25.4
 41
25.4
  0
VERTEX
  8
0
 10
698.678
 20
304.981
 30
0.0
 40
0.352778
 41
0.352778
  0
VERTEX
  8
0
 10
698.678
 20
261.438
 30
0.0
 40
0.352778
 41
0.352778
  0
VERTEX
  8
0
 10
695.503
 20
261.438
 30
0.0
 40
0.352778
 41
0.352778
  0
VERTEX
  8
0
 10
695.503
 20
217.894
 30
0.0
 40
0.352778
 41
0.352778
  0
VERTEX
  8
0
 10
698.678
 20
217.894
 30
0.0
 40
0.352778
 41
0.352778
  0
VERTEX
  8
0
 10
698.678
 20
174.351
 30
0.0
 40
0.352778
 41
0.352778
  0
VERTEX
  8
0
 10
695.503
 20
174.351
 30
0.0
 40
0.352778
 41
0.352778
  0
VERTEX
  8
0
 10
695.503
 20
130.809
 30
0.0
 40
0.352778
 41
0.352778
  0
VERTEX
  8
0
 10
698.678
 20
130.809
 30
0.0
 40
0.352778
 41
0.352778
  0
VERTEX
  8
0
 10
698.678
 20
87.2661
 30
0.0
 40
0.352778
 41
0.352778
  0
VERTEX
  8
0
 10
695.503
 20
87.2661
 30
0.0
 40
0.352778
 41
0.352778
  0
VERTEX
  8
0
 10
695.503
 20
43.7232
 30
0.0
 40
0.352778
 41
0.352778
  0
VERTEX
  8
0
 10
698.678
 20
43.7232
 30
0.0
 40
0.352778
 41
0.352778
  0
VERTEX
  8
0
 10
698.678
 20
0.180285
 30
0.0
 40
0.352778
 41
0.352778
  0
VERTEX
  8
0
 10
610.571
 20
0.180285
 30
0.0
 40
0.352778
 41
0.352778
  0
VERTEX
  8
0
 10
610.571
 20
228.781
 30
0.0
 40
0.352778
 41
0.352778
  0
VERTEX
  8
0
 10
602.633
 20
228.781
 30
0.0
 40
0.352778
 41
0.352778
  0
VERTEX
  8
0
 10
602.633
 20
0.180285
 30
0.0
 40
0.352778
 41
0.352778
  0
VERTEX
  8
0
 10
514.528
 20
0.180285
 30
0.0
 40
0.352778
 41
0.352778
  0
VERTEX
  8
0
 10
514.528
 20
43.7232
 30
0.0
 40
0.352778
 41
0.352778
  0
VERTEX
  8
0
 10
517.703
 20
43.7232
 30
0.0
 40
0.352778
 41
0.352778
  0
VERTEX
  8
0
 10
517.703
 20
87.2661
 30
0.0
 40
0.352778
 41
0.352778
  0
VERTEX
  8
0
 10
514.528
 20
87.2661
 30
0.0
 40
0.352778
 41
0.352778
  0
SEQEND
 8
0
  0
POLYLINE
  8
0
 62
     0
 66
     1
 10
0
 20
0
 30
0.0
 40
25.4
 41
25.4
  0
VERTEX
  8
0
 10
514.528
 20
304.981
 30
0.0
 40
0.352778
 41
0.352778
  0
VERTEX
  8
0
 10
553.262
 20
304.981
 30
0.0
 40
0.352778
 41
0.352778
  0
VERTEX
  8
0
 10
553.262
 20
311.331
 30
0.0
 40
0.352778
 41
0.352778
  0
VERTEX
  8
0
 10
588.822
 20
311.331
 30
0.0
 40
0.352778
 41
0.352778
  0
VERTEX
  8
0
 10
588.822
 20
304.981
 30
0.0
 40
0.352778
 41
0.352778
  0
VERTEX
  8
0
 10
624.382
 20
304.981
 30
0.0
 40
0.352778
 41
0.352778
  0
VERTEX
  8
0
 10
624.382
 20
311.331
 30
0.0
 40
0.352778
 41
0.352778
  0
VERTEX
  8
0
 10
659.943
 20
311.331
 30
0.0
 40
0.352778
 41
0.352778
  0
VERTEX
  8
0
 10
659.943
 20
304.981
 30
0.0
 40
0.352778
 41
0.352778
  0
VERTEX
  8
0
 10
737.412
 20
304.981
 30
0.0
 40
0.352778
 41
0.352778
  0
VERTEX
  8
0
 10
737.412
 20
311.331
 30
0.0
 40
0.352778
 41
0.352778
  0
VERTEX
  8
0
 10
772.972
 20
311.331
 30
0.0
 40
0.352778
 41
0.352778
  0
VERTEX
  8
0
 10
772.972
 20
304.981
 30
0.0
 40
0.352778
 41
0.352778
  0
VERTEX
  8
0
 10
808.533
 20
304.981
 30
0.0
 40
0.352778
 41
0.352778
  0
VERTEX
  8
0
 10
808.533
 20
311.331
 30
0.0
 40
0.352778
 41
0.352778
  0
VERTEX
  8
0
 10
844.093
 20
311.331
 30
0.0
 40
0.352778
 41
0.352778
  0
VERTEX
  8
0
 10
844.093
 20
304.981
 30
0.0
 40
0.352778
 41
0.352778
  0
VERTEX
  8
0
 10
882.828
 20
304.981
 30
0.0
 40
0.352778
 41
0.352778
  0
VERTEX
  8
0
 10
882.828
 20
261.438
 30
0.0
 40
0.352778
 41
0.352778
  0
VERTEX
  8
0
 10
879.653
 20
261.438
 30
0.0
 40
0.352778
 41
0.352778
  0
VERTEX
  8
0
 10
879.653
 20
217.894
 30
0.0
 40
0.352778
 41
0.352778
  0
VERTEX
  8
0
 10
882.828
 20
217.894
 30
0.0
 40
0.352778
 41
0.352778
  0
VERTEX
  8
0
 10
882.828
 20
174.351
 30
0.0
 40
0.352778
 41
0.352778
  0
VERTEX
  8
0
 10
879.653
 20
174.351
 30
0.0
 40
0.352778
 41
0.352778
  0
VERTEX
  8
0
 10
879.653
 20
130.809
 30
0.0
 40
0.352778
 41
0.352778
  0
VERTEX
  8
0
 10
882.828
 20
130.809
 30
0.0
 40
0.352778
 41
0.352778
  0
VERTEX
  8
0
 10
882.828
 20
87.2661
 30
0.0
 40
0.352778
 41
0.352778
  0
VERTEX
  8
0
 10
879.653
 20
87.2661
 30
0.0
 40
0.352778
 41
0.352778
  0
VERTEX
  8
0
 10
879.653
 20
43.7232
 30
0.0
 40
0.352778
 41
0.352778
  0
VERTEX
  8
0
 10
882.828
 20
43.7232
 30
0.0
 40
0.352778
 41
0.352778
  0
VERTEX
  8
0
 10
882.828
 20
0.180285
 30
0.0
 40
0.352778
 41
0.352778
  0
VERTEX
  8
0
 10
794.721
 20
0.180285
 30
0.0
 40
0.352778
 41
0.352778
  0
VERTEX
  8
0
 10
794.721
 20
228.781
 30
0.0
 40
0.352778
 41
0.352778
  0
VERTEX
  8
0
 10
786.783
 20
228.781
 30
0.0
 40
0.352778
 41
0.352778
  0
VERTEX
  8
0
 10
786.783
 20
0.180285
 30
0.0
 40
0.352778
 41
0.352778
  0
VERTEX
  8
0
 10
698.678
 20
0.180285
 30
0.0
 40
0.352778
 41
0.352778
  0
SEQEND
 8
0
  0
POLYLINE
  8
0
 62
     0
 66
     1
 10
0
 20
0
 30
0.0
 40
25.4
 41
25.4
  0
VERTEX
  8
0
 10
514.528
 20
261.438
 30
0.0
 40
0.352778
 41
0.352778
  0
VERTEX
  8
0
 10
517.703
 20
261.438
 30
0.0
 40
0.352778
 41
0.352778
  0
VERTEX
  8
0
 10
517.703
 20
217.894
 30
0.0
 40
0.352778
 41
0.352778
  0
VERTEX
  8
0
 10
514.528
 20
217.894
 30
0.0
 40
0.352778
 41
0.352778
  0
SEQEND
 8
0
  0
POLYLINE
  8
0
 62
     0
 66
     1
 10
0
 20
0
 30
0.0
 40
25.4
 41
25.4
  0
VERTEX
  8
0
 10
514.528
 20
174.351
 30
0.0
 40
0.352778
 41
0.352778
  0
VERTEX
  8
0
 10
517.703
 20
174.351
 30
0.0
 40
0.352778
 41
0.352778
  0
VERTEX
  8
0
 10
517.703
 20
130.809
 30
0.0
 40
0.352778
 41
0.352778
  0
VERTEX
  8
0
 10
514.528
 20
130.809
 30
0.0
 40
0.352778
 41
0.352778
  0
SEQEND
 8
0
  0
POLYLINE
  8
0
 62
     0
 66
     1
 10
0
 20
0
 30
0.0
 40
25.4
 41
25.4
  0
VERTEX
  8
0
 10
698.678
 20
261.438
 30
0.0
 40
0.352778
 41
0.352778
  0
VERTEX
  8
0
 10
701.853
 20
261.438
 30
0.0
 40
0.352778
 41
0.352778
  0
VERTEX
  8
0
 10
701.853
 20
217.894
 30
0.0
 40
0.352778
 41
0.352778
  0
VERTEX
  8
0
 10
698.678
 20
217.894
 30
0.0
 40
0.352778
 41
0.352778
  0
SEQEND
 8
0
  0
POLYLINE
  8
0
 62
     0
 66
     1
 10
0
 20
0
 30
0.0
 40
25.4
 41
25.4
  0
VERTEX
  8
0
 10
698.678
 20
174.351
 30
0.0
 40
0.352778
 41
0.352778
  0
VERTEX
  8
0
 10
701.853
 20
174.351
 30
0.0
 40
0.352778
 41
0.352778
  0
VERTEX
  8
0
 10
701.853
 20
130.809
 30
0.0
 40
0.352778
 41
0.352778
  0
VERTEX
  8
0
 10
698.678
 20
130.809
 30
0.0
 40
0.352778
 41
0.352778
  0
SEQEND
 8
0
  0
POLYLINE
  8
0
 62
     0
 66
     1
 10
0
 20
0
 30
0.0
 40
25.4
 41
25.4
  0
VERTEX
  8
0
 10
698.678
 20
87.2661
 30
0.0
 40
0.352778
 41
0.352778
  0
VERTEX
  8
0
 10
701.853
 20
87.2661
 30
0.0
 40
0.352778
 41
0.352778
  0
VERTEX
  8
0
 10
701.853
 20
43.7232
 30
0.0
 40
0.352778
 41
0.352778
  0
VERTEX
  8
0
 10
698.678
 20
43.7232
 30
0.0
 40
0.352778
 41
0.352778
  0
SEQEND
 8
0
  0
ENDSEC
  0
EOF
