<svg xmlns="http://www.w3.org/2000/svg" width="36in" height="26.400000000000002in" viewBox="0 0 2592 1900.8000000000002"><g/><g/><g/><path d="M 1458.0022187551313 9.000014309670064 L 1318.0929140960918 9.00001430967012 L 1318.0929140960918 9.00001430967012 L 1318.0929140960918 5.596701271315396e-7 L 1318.0929140960918 5.596701271315396e-7 L 1187.1836231870525 5.596701271315396e-7 L 1187.1836231870525 5.596701271315396e-7 L 1187.1836231870525 9.00001430967012 L 1187.1836231870525 9.00001430967012 L 1056.2743322780132 9.00001430967012 L 1056.2743322780132 9.00001430967012 L 1056.2743322780132 5.596701271315396e-7 L 1056.2743322780132 5.596701271315396e-7 L 925.3650413686903 5.596701271315396e-7 L 925.3650413686903 5.596701271315396e-7 L 925.3650413686903 9.00001430967012 L 925.3650413686903 9.00001430967012 L 794.455750459651 9.000014309670178 L 794.455750459651 9.000014309670178 L 794.455750459651 5.596701839749585e-7 L 794.455750459651 5.596701839749585e-7 L 663.5464595506115 5.596701839749585e-7 L 663.5464595506115 5.596701839749585e-7 L 663.5464595506115 9.000014309670178 L 663.5464595506115 9.000014309670178 L 532.6371686415723 9.000014309670178 L 532.6371686415723 9.000014309670178 L 532.6371686415723 5.596701839749585e-7 L 532.6371686415723 5.596701839749585e-7 L 401.72787773253276 5.596702408183775e-7 L 401.72787773253276 5.596702408183775e-7 L 401.72787773253276 9.000014309670235 L 401.72787773253276 9.000014309670235 L 270.8185868232101 9.000014309670235 L 270.8185868232101 9.000014309670235 L 270.8185868232101 5.596702408183775e-7 L 270.8185868232101 5.596702408183775e-7 L 139.9092959141708 5.596702408183775e-7 L 139.9092959141708 5.596702408183775e-7 L 139.9092959141708 9.000014309670235 L 139.9092959141708 9.000014309670235 L -0.000008744868864596362 9.000014309670235 L -0.000008744868864596362 9.000014309670235 L -0.000008744868864596362 109.80016830967025 L -0.000008744868864596362 109.80016830967025 L 9.000005005131243 109.80016830967025 L 9.000005005131243 109.80016830967025 L 9.000005005131243 210.60032230967033 L 9.000005005131243 210.60032230967033 L -0.000008744868864596362 210.60032230967033 L -0.000008744868864596362 210.60032230967033 L -0.000008744868864596362 311.40047630967024 L -0.000008744868864596362 311.40047630967024 L 9.000005005131243 311.40047630967024 L 9.000005005131243 311.40047630967024 L 9.000005005131243 412.20063030967026 L 9.000005005131243 412.20063030967026 L -0.000008744868864596362 412.20063030967026 L -0.000008744868864596362 412.20063030967026 L -0.000008744868864596362 513.0007843096702 L -0.000008744868864596362 513.0007843096702 L 139.9092959141708 513.0007843096702 L 139.9092959141708 513.0007843096702 L 139.9092959141708 522.0007980596703 L 139.9092959141708 522.0007980596703 L 270.8185868232101 522.0007980596702 L 270.8185868232101 522.0007980596702 L 270.8185868232101 513.00078430967 L 270.8185868232101 513.00078430967 L 401.72787773253276 513.00078430967 L 401.72787773253276 513.00078430967 L 401.72787773253276 522.0007980596702 L 401.72787773253276 522.0007980596702 L 532.6371686415723 522.0007980596702 L 532.6371686415723 522.0007980596702 L 532.6371686415723 513.00078430967 L 532.6371686415723 513.00078430967 L 663.5464595506116 513.00078430967 L 663.5464595506116 513.00078430967 L 663.5464595506116 522.0007980596702 L 663.5464595506116 522.0007980596702 L 794.4557504596511 522.0007980596702 L 794.4557504596511 522.0007980596702 L 794.4557504596511 513.00078430967 L 794.4557504596511 513.00078430967 L 925.3650413686904 513.00078430967 L 925.3650413686904 513.00078430967 L 925.3650413686904 522.0007980596702 L 925.3650413686904 522.0007980596702 L 1056.2743322780134 522.0007980596702 L 1056.2743322780134 522.0007980596702 L 1056.2743322780134 513.00078430967 L 1056.2743322780134 513.00078430967 L 1187.1836231870525 513.0007843096699 L 1187.1836231870525 513.0007843096699 L 1187.1836231870525 522.00079805967 L 1187.1836231870525 522.00079805967 L 1318.092914096092 522.00079805967 L 1318.092914096092 522.00079805967 L 1318.092914096092 513.0007843096699 L 1318.092914096092 513.0007843096699 L 1458.0022187551313 513.0007843096699 L 1458.0022187551313 513.0007843096699 L 1458.0022187551313 0.000005592289767264447" fill="none" stroke="#000000"/><path d="M 1458.0022187551313 412.20063030967003 L 1449.0022050051314 412.20063030967003 L 1449.0022050051314 412.20063030967003 L 1449.0022050051314 311.40047630967 L 1449.0022050051314 311.40047630967 L 1458.0022187551313 311.40047630967" fill="none" stroke="#000000"/><path d="M 1458.0022187551313 210.6003223096701 L 1449.0022050051314 210.6003223096701 L 1449.0022050051314 210.6003223096701 L 1449.0022050051314 109.80016830967008 L 1449.0022050051314 109.80016830967008 L 1458.0022187551313 109.80016830967008" fill="none" stroke="#000000"/><path d="M 711.0010775051314 477.0007293096702 L 711.0010775051314 513.00078430967 L 711.0010775051314 513.00078430967 L 720.0010912551314 513.00078430967 L 720.0010912551314 513.00078430967 L 720.0010912551314 477.0007293096702 L 720.0010912551314 477.0007293096702 L 711.0010775051314 477.0007293096702 z" fill="none" stroke="#000000"/><path d="M 711.0010775051313 45.00006930967015 L 711.0010775051313 9.000014309670178 L 711.0010775051313 9.000014309670178 L 720.0010912551313 9.000014309670178 L 720.0010912551313 9.000014309670178 L 720.0010912551313 45.00006930967015 L 720.0010912551313 45.00006930967015 L 711.0010775051313 45.00006930967015 z" fill="none" stroke="#000000"/><path d="M 1458.002218728082 468.0007205922898 L 2394.003648728082 468.00072059228967 L 2394.003648728082 468.00072059228967 L 2394.003648728082 0.000005592289710421028 L 2394.003648728082 0.000005592289710421028 L 1458.002218728082 0.000005592289767264447" fill="none" stroke="#000000"/></svg>