  0
SECTION
  2
HEADER
  9
$ACADVER
  1
AC1009
  9
$EXTMIN
 10
0.0
 20
0.0
 30
0.0
  9
$EXTMAX
 10
1000.0
 20
1000.0
 30
0.0
  9
$FILLMODE
 70
 0
  9
$SPLFRAME
 70
 1
  0
ENDSEC
  0
SECTION
  2
TABLES
  0
TABLE
  2
LAYER
 70
1
  0
LAYER
  2
0
 70
     0
 62
     7
  6
CONTINUOUS
  0
ENDTAB
  0
ENDSEC
  0
SECTION
  2
ENTITIES
  0
POLYLINE
  8
0
 62
     0
 66
     1
 10
0
 20
0
 30
0.0
 40
25.4
 41
25.4
  0
VERTEX
  8
0
 10
514.528
 20
181.163
 30
0.0
 40
0.352778
 41
0.352778
  0
VERTEX
  8
0
 10
465.171
 20
181.163
 30
0.0
 40
0.352778
 41
0.352778
  0
VERTEX
  8
0
 10
465.171
 20
184.337
 30
0.0
 40
0.352778
 41
0.352778
  0
VERTEX
  8
0
 10
418.989
 20
184.337
 30
0.0
 40
0.352778
 41
0.352778
  0
VERTEX
  8
0
 10
418.989
 20
181.163
 30
0.0
 40
0.352778
 41
0.352778
  0
VERTEX
  8
0
 10
372.807
 20
181.163
 30
0.0
 40
0.352778
 41
0.352778
  0
VERTEX
  8
0
 10
372.807
 20
184.337
 30
0.0
 40
0.352778
 41
0.352778
  0
VERTEX
  8
0
 10
326.625
 20
184.337
 30
0.0
 40
0.352778
 41
0.352778
  0
VERTEX
  8
0
 10
326.625
 20
181.163
 30
0.0
 40
0.352778
 41
0.352778
  0
VERTEX
  8
0
 10
280.443
 20
181.163
 30
0.0
 40
0.352778
 41
0.352778
  0
VERTEX
  8
0
 10
280.443
 20
184.337
 30
0.0
 40
0.352778
 41
0.352778
  0
VERTEX
  8
0
 10
234.261
 20
184.337
 30
0.0
 40
0.352778
 41
0.352778
  0
VERTEX
  8
0
 10
234.261
 20
181.163
 30
0.0
 40
0.352778
 41
0.352778
  0
VERTEX
  8
0
 10
188.079
 20
181.163
 30
0.0
 40
0.352778
 41
0.352778
  0
VERTEX
  8
0
 10
188.079
 20
184.337
 30
0.0
 40
0.352778
 41
0.352778
  0
VERTEX
  8
0
 10
141.897
 20
184.337
 30
0.0
 40
0.352778
 41
0.352778
  0
VERTEX
  8
0
 10
141.897
 20
181.163
 30
0.0
 40
0.352778
 41
0.352778
  0
VERTEX
  8
0
 10
95.7151
 20
181.163
 30
0.0
 40
0.352778
 41
0.352778
  0
VERTEX
  8
0
 10
95.7151
 20
184.337
 30
0.0
 40
0.352778
 41
0.352778
  0
VERTEX
  8
0
 10
49.5332
 20
184.337
 30
0.0
 40
0.352778
 41
0.352778
  0
VERTEX
  8
0
 10
49.5332
 20
181.163
 30
0.0
 40
0.352778
 41
0.352778
  0
VERTEX
  8
0
 10
0.176378
 20
181.163
 30
0.0
 40
0.352778
 41
0.352778
  0
VERTEX
  8
0
 10
0.176378
 20
145.603
 30
0.0
 40
0.352778
 41
0.352778
  0
VERTEX
  8
0
 10
3.3514
 20
145.603
 30
0.0
 40
0.352778
 41
0.352778
  0
VERTEX
  8
0
 10
3.3514
 20
110.042
 30
0.0
 40
0.352778
 41
0.352778
  0
VERTEX
  8
0
 10
0.176378
 20
110.042
 30
0.0
 40
0.352778
 41
0.352778
  0
VERTEX
  8
0
 10
0.176378
 20
74.4824
 30
0.0
 40
0.352778
 41
0.352778
  0
VERTEX
  8
0
 10
3.3514
 20
74.4824
 30
0.0
 40
0.352778
 41
0.352778
  0
VERTEX
  8
0
 10
3.3514
 20
38.9222
 30
0.0
 40
0.352778
 41
0.352778
  0
VERTEX
  8
0
 10
0.176378
 20
38.9222
 30
0.0
 40
0.352778
 41
0.352778
  0
VERTEX
  8
0
 10
0.176378
 20
3.36219
 30
0.0
 40
0.352778
 41
0.352778
  0
VERTEX
  8
0
 10
49.5332
 20
3.36219
 30
0.0
 40
0.352778
 41
0.352778
  0
VERTEX
  8
0
 10
49.5332
 20
0.187229
 30
0.0
 40
0.352778
 41
0.352778
  0
VERTEX
  8
0
 10
95.7151
 20
0.187229
 30
0.0
 40
0.352778
 41
0.352778
  0
VERTEX
  8
0
 10
95.7151
 20
3.36219
 30
0.0
 40
0.352778
 41
0.352778
  0
VERTEX
  8
0
 10
141.897
 20
3.36219
 30
0.0
 40
0.352778
 41
0.352778
  0
VERTEX
  8
0
 10
141.897
 20
0.187229
 30
0.0
 40
0.352778
 41
0.352778
  0
VERTEX
  8
0
 10
188.079
 20
0.187229
 30
0.0
 40
0.352778
 41
0.352778
  0
VERTEX
  8
0
 10
188.079
 20
3.36219
 30
0.0
 40
0.352778
 41
0.352778
  0
VERTEX
  8
0
 10
234.261
 20
3.36219
 30
0.0
 40
0.352778
 41
0.352778
  0
VERTEX
  8
0
 10
234.261
 20
0.187229
 30
0.0
 40
0.352778
 41
0.352778
  0
VERTEX
  8
0
 10
280.443
 20
0.187229
 30
0.0
 40
0.352778
 41
0.352778
  0
VERTEX
  8
0
 10
280.443
 20
3.36219
 30
0.0
 40
0.352778
 41
0.352778
  0
VERTEX
  8
0
 10
326.625
 20
3.36219
 30
0.0
 40
0.352778
 41
0.352778
  0
VERTEX
  8
0
 10
326.625
 20
0.187229
 30
0.0
 40
0.352778
 41
0.352778
  0
VERTEX
  8
0
 10
372.807
 20
0.187229
 30
0.0
 40
0.352778
 41
0.352778
  0
VERTEX
  8
0
 10
372.807
 20
3.36219
 30
0.0
 40
0.352778
 41
0.352778
  0
VERTEX
  8
0
 10
418.989
 20
3.36219
 30
0.0
 40
0.352778
 41
0.352778
  0
VERTEX
  8
0
 10
418.989
 20
0.187229
 30
0.0
 40
0.352778
 41
0.352778
  0
VERTEX
  8
0
 10
465.171
 20
0.187229
 30
0.0
 40
0.352778
 41
0.352778
  0
VERTEX
  8
0
 10
465.171
 20
3.36219
 30
0.0
 40
0.352778
 41
0.352778
  0
VERTEX
  8
0
 10
514.528
 20
3.36219
 30
0.0
 40
0.352778
 41
0.352778
  0
VERTEX
  8
0
 10
514.528
 20
184.337
 30
0.0
 40
0.352778
 41
0.352778
  0
SEQEND
 8
0
  0
POLYLINE
  8
0
 62
     0
 66
     1
 10
0
 20
0
 30
0.0
 40
25.4
 41
25.4
  0
VERTEX
  8
0
 10
514.528
 20
38.9222
 30
0.0
 40
0.352778
 41
0.352778
  0
VERTEX
  8
0
 10
511.353
 20
38.9222
 30
0.0
 40
0.352778
 41
0.352778
  0
VERTEX
  8
0
 10
511.353
 20
74.4824
 30
0.0
 40
0.352778
 41
0.352778
  0
VERTEX
  8
0
 10
514.528
 20
74.4824
 30
0.0
 40
0.352778
 41
0.352778
  0
SEQEND
 8
0
  0
POLYLINE
  8
0
 62
     0
 66
     1
 10
0
 20
0
 30
0.0
 40
25.4
 41
25.4
  0
VERTEX
  8
0
 10
514.528
 20
110.042
 30
0.0
 40
0.352778
 41
0.352778
  0
VERTEX
  8
0
 10
511.353
 20
110.042
 30
0.0
 40
0.352778
 41
0.352778
  0
VERTEX
  8
0
 10
511.353
 20
145.603
 30
0.0
 40
0.352778
 41
0.352778
  0
VERTEX
  8
0
 10
514.528
 20
145.603
 30
0.0
 40
0.352778
 41
0.352778
  0
SEQEND
 8
0
  0
POLYLINE
  8
0
 62
     0
 66
     1
 10
0
 20
0
 30
0.0
 70
     1
 40
25.4
 41
25.4
  0
VERTEX
  8
0
 10
251.001
 20
16.0622
 30
0.0
 40
0.352778
 41
0.352778
  0
VERTEX
  8
0
 10
254.176
 20
16.0622
 30
0.0
 40
0.352778
 41
0.352778
  0
VERTEX
  8
0
 10
254.176
 20
3.36219
 30
0.0
 40
0.352778
 41
0.352778
  0
VERTEX
  8
0
 10
251.001
 20
3.36219
 30
0.0
 40
0.352778
 41
0.352778
  0
VERTEX
  8
0
 10
251.001
 20
16.0622
 30
0.0
 40
0.352778
 41
0.352778
  0
SEQEND
 8
0
  0
POLYLINE
  8
0
 62
     0
 66
     1
 10
0
 20
0
 30
0.0
 70
     1
 40
25.4
 41
25.4
  0
VERTEX
  8
0
 10
251.001
 20
181.163
 30
0.0
 40
0.352778
 41
0.352778
  0
VERTEX
  8
0
 10
254.176
 20
181.163
 30
0.0
 40
0.352778
 41
0.352778
  0
VERTEX
  8
0
 10
254.176
 20
168.462
 30
0.0
 40
0.352778
 41
0.352778
  0
VERTEX
  8
0
 10
251.001
 20
168.462
 30
0.0
 40
0.352778
 41
0.352778
  0
VERTEX
  8
0
 10
251.001
 20
181.163
 30
0.0
 40
0.352778
 41
0.352778
  0
SEQEND
 8
0
  0
POLYLINE
  8
0
 62
     0
 66
     1
 10
0
 20
0
 30
0.0
 40
25.4
 41
25.4
  0
VERTEX
  8
0
 10
514.528
 20
19.2372
 30
0.0
 40
0.352778
 41
0.352778
  0
VERTEX
  8
0
 10
844.728
 20
19.2372
 30
0.0
 40
0.352778
 41
0.352778
  0
VERTEX
  8
0
 10
844.728
 20
184.337
 30
0.0
 40
0.352778
 41
0.352778
  0
VERTEX
  8
0
 10
514.528
 20
184.337
 30
0.0
 40
0.352778
 41
0.352778
  0
SEQEND
 8
0
  0
ENDSEC
  0
EOF
