  0
SECTION
  2
HEADER
  9
$ACADVER
  1
AC1009
  9
$EXTMIN
 10
0.0
 20
0.0
 30
0.0
  9
$EXTMAX
 10
1000.0
 20
1000.0
 30
0.0
  9
$FILLMODE
 70
 0
  9
$SPLFRAME
 70
 1
  0
ENDSEC
  0
SECTION
  2
TABLES
  0
TABLE
  2
LAYER
 70
1
  0
LAYER
  2
0
 70
     0
 62
     7
  6
CONTINUOUS
  0
ENDTAB
  0
ENDSEC
  0
SECTION
  2
ENTITIES
  0
POLYLINE
  8
0
 62
     0
 66
     1
 10
0
 20
0
 30
0.0
 70
     1
 40
24
 41
24
  0
VERTEX
  8
0
 10
0.166667
 20
314.875
 30
0.0
 40
0.333333
 41
0.333333
  0
VERTEX
  8
0
 10
57.6668
 20
314.875
 30
0.0
 40
0.333333
 41
0.333333
  0
VERTEX
  8
0
 10
57.6668
 20
0.168511
 30
0.0
 40
0.333333
 41
0.333333
  0
VERTEX
  8
0
 10
0.166667
 20
0.168511
 30
0.0
 40
0.333333
 41
0.333333
  0
VERTEX
  8
0
 10
0.166667
 20
13.1225
 30
0.0
 40
0.333333
 41
0.333333
  0
VERTEX
  8
0
 10
14.8453
 20
13.1225
 30
0.0
 40
0.333333
 41
0.333333
  0
VERTEX
  8
0
 10
14.9251
 20
13.1225
 30
0.0
 40
0.333333
 41
0.333333
  0
VERTEX
  8
0
 10
15.1649
 20
13.1064
 30
0.0
 40
0.333333
 41
0.333333
  0
VERTEX
  8
0
 10
15.4803
 20
13.0584
 30
0.0
 40
0.333333
 41
0.333333
  0
VERTEX
  8
0
 10
15.7894
 20
12.9789
 30
0.0
 40
0.333333
 41
0.333333
  0
VERTEX
  8
0
 10
16.0161
 20
12.8998
 30
0.0
 40
0.333333
 41
0.333333
  0
VERTEX
  8
0
 10
16.0897
 20
12.8685
 30
0.0
 40
0.333333
 41
0.333333
  0
VERTEX
  8
0
 10
41.7438
 20
12.8685
 30
0.0
 40
0.333333
 41
0.333333
  0
VERTEX
  8
0
 10
41.7892
 20
12.8685
 30
0.0
 40
0.333333
 41
0.333333
  0
VERTEX
  8
0
 10
41.9254
 20
12.8778
 30
0.0
 40
0.333333
 41
0.333333
  0
VERTEX
  8
0
 10
42.1019
 20
12.9047
 30
0.0
 40
0.333333
 41
0.333333
  0
VERTEX
  8
0
 10
42.2724
 20
12.9485
 30
0.0
 40
0.333333
 41
0.333333
  0
VERTEX
  8
0
 10
42.4358
 20
13.0083
 30
0.0
 40
0.333333
 41
0.333333
  0
VERTEX
  8
0
 10
42.5913
 20
13.0832
 30
0.0
 40
0.333333
 41
0.333333
  0
VERTEX
  8
0
 10
42.7378
 20
13.1722
 30
0.0
 40
0.333333
 41
0.333333
  0
VERTEX
  8
0
 10
42.8747
 20
13.2746
 30
0.0
 40
0.333333
 41
0.333333
  0
VERTEX
  8
0
 10
43.001
 20
13.3893
 30
0.0
 40
0.333333
 41
0.333333
  0
VERTEX
  8
0
 10
43.1157
 20
13.5156
 30
0.0
 40
0.333333
 41
0.333333
  0
VERTEX
  8
0
 10
43.2181
 20
13.6525
 30
0.0
 40
0.333333
 41
0.333333
  0
VERTEX
  8
0
 10
43.3071
 20
13.799
 30
0.0
 40
0.333333
 41
0.333333
  0
VERTEX
  8
0
 10
43.3819
 20
13.9544
 30
0.0
 40
0.333333
 41
0.333333
  0
VERTEX
  8
0
 10
43.4418
 20
14.1178
 30
0.0
 40
0.333333
 41
0.333333
  0
VERTEX
  8
0
 10
43.4856
 20
14.2882
 30
0.0
 40
0.333333
 41
0.333333
  0
VERTEX
  8
0
 10
43.5125
 20
14.4647
 30
0.0
 40
0.333333
 41
0.333333
  0
VERTEX
  8
0
 10
43.5218
 20
14.6011
 30
0.0
 40
0.333333
 41
0.333333
  0
VERTEX
  8
0
 10
43.5218
 20
14.6465
 30
0.0
 40
0.333333
 41
0.333333
  0
VERTEX
  8
0
 10
43.5218
 20
14.6919
 30
0.0
 40
0.333333
 41
0.333333
  0
VERTEX
  8
0
 10
43.5125
 20
14.8283
 30
0.0
 40
0.333333
 41
0.333333
  0
VERTEX
  8
0
 10
43.4856
 20
15.0049
 30
0.0
 40
0.333333
 41
0.333333
  0
VERTEX
  8
0
 10
43.4418
 20
15.1753
 30
0.0
 40
0.333333
 41
0.333333
  0
VERTEX
  8
0
 10
43.3819
 20
15.3386
 30
0.0
 40
0.333333
 41
0.333333
  0
VERTEX
  8
0
 10
43.3071
 20
15.494
 30
0.0
 40
0.333333
 41
0.333333
  0
VERTEX
  8
0
 10
43.2181
 20
15.6407
 30
0.0
 40
0.333333
 41
0.333333
  0
VERTEX
  8
0
 10
43.1157
 20
15.7775
 30
0.0
 40
0.333333
 41
0.333333
  0
VERTEX
  8
0
 10
43.001
 20
15.9037
 30
0.0
 40
0.333333
 41
0.333333
  0
VERTEX
  8
0
 10
42.8747
 20
16.0186
 30
0.0
 40
0.333333
 41
0.333333
  0
VERTEX
  8
0
 10
42.7378
 20
16.1208
 30
0.0
 40
0.333333
 41
0.333333
  0
VERTEX
  8
0
 10
42.5913
 20
16.21
 30
0.0
 40
0.333333
 41
0.333333
  0
VERTEX
  8
0
 10
42.4358
 20
16.2849
 30
0.0
 40
0.333333
 41
0.333333
  0
VERTEX
  8
0
 10
42.2724
 20
16.3446
 30
0.0
 40
0.333333
 41
0.333333
  0
VERTEX
  8
0
 10
42.1019
 20
16.3885
 30
0.0
 40
0.333333
 41
0.333333
  0
VERTEX
  8
0
 10
41.9254
 20
16.4154
 30
0.0
 40
0.333333
 41
0.333333
  0
VERTEX
  8
0
 10
41.7892
 20
16.4246
 30
0.0
 40
0.333333
 41
0.333333
  0
VERTEX
  8
0
 10
41.7438
 20
16.4246
 30
0.0
 40
0.333333
 41
0.333333
  0
VERTEX
  8
0
 10
0.166667
 20
16.4246
 30
0.0
 40
0.333333
 41
0.333333
  0
VERTEX
  8
0
 10
0.166667
 20
314.875
 30
0.0
 40
0.333333
 41
0.333333
  0
SEQEND
 8
0
  0
POLYLINE
  8
0
 62
     0
 66
     1
 10
0
 20
0
 30
0.0
 40
24
 41
24
  0
VERTEX
  8
0
 10
57.6668
 20
314.875
 30
0.0
 40
0.333333
 41
0.333333
  0
VERTEX
  8
0
 10
115.167
 20
314.875
 30
0.0
 40
0.333333
 41
0.333333
  0
VERTEX
  8
0
 10
115.167
 20
301.921
 30
0.0
 40
0.333333
 41
0.333333
  0
VERTEX
  8
0
 10
100.488
 20
301.921
 30
0.0
 40
0.333333
 41
0.333333
  0
VERTEX
  8
0
 10
100.408
 20
301.921
 30
0.0
 40
0.333333
 41
0.333333
  0
VERTEX
  8
0
 10
100.169
 20
301.938
 30
0.0
 40
0.333333
 41
0.333333
  0
VERTEX
  8
0
 10
99.8532
 20
301.985
 30
0.0
 40
0.333333
 41
0.333333
  0
VERTEX
  8
0
 10
99.544
 20
302.065
 30
0.0
 40
0.333333
 41
0.333333
  0
VERTEX
  8
0
 10
99.3172
 20
302.143
 30
0.0
 40
0.333333
 41
0.333333
  0
VERTEX
  8
0
 10
99.2437
 20
302.175
 30
0.0
 40
0.333333
 41
0.333333
  0
VERTEX
  8
0
 10
73.5897
 20
302.175
 30
0.0
 40
0.333333
 41
0.333333
  0
VERTEX
  8
0
 10
73.5443
 20
302.175
 30
0.0
 40
0.333333
 41
0.333333
  0
VERTEX
  8
0
 10
73.4081
 20
302.165
 30
0.0
 40
0.333333
 41
0.333333
  0
VERTEX
  8
0
 10
73.2314
 20
302.139
 30
0.0
 40
0.333333
 41
0.333333
  0
VERTEX
  8
0
 10
73.061
 20
302.094
 30
0.0
 40
0.333333
 41
0.333333
  0
VERTEX
  8
0
 10
72.8976
 20
302.035
 30
0.0
 40
0.333333
 41
0.333333
  0
VERTEX
  8
0
 10
72.7422
 20
301.96
 30
0.0
 40
0.333333
 41
0.333333
  0
VERTEX
  8
0
 10
72.5957
 20
301.871
 30
0.0
 40
0.333333
 41
0.333333
  0
VERTEX
  8
0
 10
72.4587
 20
301.769
 30
0.0
 40
0.333333
 41
0.333333
  0
VERTEX
  8
0
 10
72.3325
 20
301.654
 30
0.0
 40
0.333333
 41
0.333333
  0
VERTEX
  8
0
 10
72.2178
 20
301.528
 30
0.0
 40
0.333333
 41
0.333333
  0
VERTEX
  8
0
 10
72.1154
 20
301.392
 30
0.0
 40
0.333333
 41
0.333333
  0
VERTEX
  8
0
 10
72.0264
 20
301.244
 30
0.0
 40
0.333333
 41
0.333333
  0
VERTEX
  8
0
 10
71.9515
 20
301.089
 30
0.0
 40
0.333333
 41
0.333333
  0
VERTEX
  8
0
 10
71.8917
 20
300.926
 30
0.0
 40
0.333333
 41
0.333333
  0
VERTEX
  8
0
 10
71.8479
 20
300.756
 30
0.0
 40
0.333333
 41
0.333333
  0
VERTEX
  8
0
 10
71.821
 20
300.579
 30
0.0
 40
0.333333
 41
0.333333
  0
VERTEX
  8
0
 10
71.8118
 20
300.443
 30
0.0
 40
0.333333
 41
0.333333
  0
VERTEX
  8
0
 10
71.8118
 20
300.397
 30
0.0
 40
0.333333
 41
0.333333
  0
VERTEX
  8
0
 10
71.8118
 20
300.351
 30
0.0
 40
0.333333
 41
0.333333
  0
VERTEX
  8
0
 10
71.821
 20
300.215
 30
0.0
 40
0.333333
 41
0.333333
  0
VERTEX
  8
0
 10
71.8479
 20
300.039
 30
0.0
 40
0.333333
 41
0.333333
  0
VERTEX
  8
0
 10
71.8917
 20
299.868
 30
0.0
 40
0.333333
 41
0.333333
  0
VERTEX
  8
0
 10
71.9515
 20
299.706
 30
0.0
 40
0.333333
 41
0.333333
  0
VERTEX
  8
0
 10
72.0264
 20
299.55
 30
0.0
 40
0.333333
 41
0.333333
  0
VERTEX
  8
0
 10
72.1154
 20
299.403
 30
0.0
 40
0.333333
 41
0.333333
  0
VERTEX
  8
0
 10
72.2178
 20
299.267
 30
0.0
 40
0.333333
 41
0.333333
  0
VERTEX
  8
0
 10
72.3325
 20
299.14
 30
0.0
 40
0.333333
 41
0.333333
  0
VERTEX
  8
0
 10
72.4587
 20
299.025
 30
0.0
 40
0.333333
 41
0.333333
  0
VERTEX
  8
0
 10
72.5957
 20
298.922
 30
0.0
 40
0.333333
 41
0.333333
  0
VERTEX
  8
0
 10
72.7422
 20
298.833
 30
0.0
 40
0.333333
 41
0.333333
  0
VERTEX
  8
0
 10
72.8976
 20
298.758
 30
0.0
 40
0.333333
 41
0.333333
  0
VERTEX
  8
0
 10
73.061
 20
298.699
 30
0.0
 40
0.333333
 41
0.333333
  0
VERTEX
  8
0
 10
73.2314
 20
298.656
 30
0.0
 40
0.333333
 41
0.333333
  0
VERTEX
  8
0
 10
73.4081
 20
298.628
 30
0.0
 40
0.333333
 41
0.333333
  0
VERTEX
  8
0
 10
73.5443
 20
298.619
 30
0.0
 40
0.333333
 41
0.333333
  0
VERTEX
  8
0
 10
73.5897
 20
298.619
 30
0.0
 40
0.333333
 41
0.333333
  0
VERTEX
  8
0
 10
115.167
 20
298.619
 30
0.0
 40
0.333333
 41
0.333333
  0
VERTEX
  8
0
 10
115.167
 20
0.168511
 30
0.0
 40
0.333333
 41
0.333333
  0
VERTEX
  8
0
 10
57.6668
 20
0.168511
 30
0.0
 40
0.333333
 41
0.333333
  0
SEQEND
 8
0
  0
ENDSEC
  0
EOF
