<svg xmlns="http://www.w3.org/2000/svg" width="36in" height="26.400000000000002in" viewBox="0 0 2592 1900.8000000000002"><g/><g/><g/><line x1="117.85623859664918" x2="117.85623859664918" y1="846.0012977283291" y2="846.001297728329" fill="none" stroke="#000000"/><line x1="45.136127496649124" x2="45.13612749674064" y1="856.081313128329" y2="856.0813131283271" fill="none" stroke="#000000"/><line x1="208.1285025687963" x2="208.1285025687963" y1="46.080064434862834" y2="46.08006443486295" fill="none" stroke="#000000"/><line x1="280.84861366879636" x2="280.84861366870484" y1="36.000049034862855" y2="36.00004903486479" fill="none" stroke="#000000"/><path d="M -0.000004453350925359701 0.000005228329001738531 L 162.99237054664906 0.000005228328973316821 L 162.99237054664906 0.000005228328973316821 L 162.99237054664917 892.0813681283289 L 162.99237054664917 892.0813681283289 L -0.000004453350811672865 892.081368128329 L -0.000004453350811672865 892.081368128329 L -0.000004453350811672865 855.3613120283289 L -0.000004453350811672865 855.3613120283289 L 41.608856878259985 855.3613120283289 L 41.608856878259985 855.3613120283289 A 9.000013750000031 9.000013750000031 180 0 1 45.13612749674064 856.0813131283271 L 45.136127496649124 856.081313128329 L 117.85623859664918 856.081313128329 L 117.85623859664918 856.081313128329 A 5.040007700000056 5.040007700000056 180 0 0 117.85623859664918 846.001297728329 L 117.85623859664918 846.0012977283291 L -0.000004453350811672867 846.0012977283291 L -0.000004453350811672863 846.0012977283291 L -0.0000044533509253597 0.00000522832900173853 z" color="rgb(0,0,0)" stroke="#000000" id="ID_73" stroke-width="0.25mm" fill="none"/><path d="M 162.99237061879631 -0.000005965137120256263 L 325.9847456187963 -0.000005965137120256263 L 325.9847456187963 -0.000005965137120256263 L 325.9847456187963 36.72005013486296 L 325.9847456187963 36.72005013486296 L 284.3758842871855 36.72005013486296 L 284.3758842871855 36.72005013486296 A 9.000013750000031 9.000013750000031 0 0 1 280.84861366870484 36.00004903486479 L 280.84861366879636 36.000049034862855 L 208.1285025687963 36.000049034862855 L 208.1285025687963 36.000049034862855 A 5.040007700000056 5.040007700000056 0 0 0 208.1285025687963 46.08006443486295 L 208.1285025687963 46.080064434862834 L 325.9847456187963 46.080064434862834 L 325.9847456187963 46.080064434862834 L 325.9847456187963 892.0813569348629 L 325.9847456187963 892.0813569348629 L 162.99237061879631 892.0813569348629" color="rgb(0,0,0)" stroke="#000000" id="ID_73" stroke-width="0.25mm" fill="none"/></svg>