  0
SECTION
  2
HEADER
  9
$ACADVER
  1
AC1009
  9
$EXTMIN
 10
0.0
 20
0.0
 30
0.0
  9
$EXTMAX
 10
1000.0
 20
1000.0
 30
0.0
  9
$FILLMODE
 70
 0
  9
$SPLFRAME
 70
 1
  0
ENDSEC
  0
SECTION
  2
TABLES
  0
TABLE
  2
LAYER
 70
1
  0
LAYER
  2
0
 70
     0
 62
     7
  6
CONTINUOUS
  0
ENDTAB
  0
ENDSEC
  0
SECTION
  2
ENTITIES
  0
POLYLINE
  8
0
 62
     0
 66
     1
 10
0
 20
0
 30
0.0
 70
     1
 40
24
 41
24
  0
VERTEX
  8
0
 10
41.4514
 20
12.8895
 30
0.0
 40
0.333333
 41
0.333333
  0
VERTEX
  8
0
 10
41.4514
 20
12.8084
 30
0.0
 40
0.333333
 41
0.333333
  0
VERTEX
  8
0
 10
41.435
 20
12.5649
 30
0.0
 40
0.333333
 41
0.333333
  0
VERTEX
  8
0
 10
41.3869
 20
12.2497
 30
0.0
 40
0.333333
 41
0.333333
  0
VERTEX
  8
0
 10
41.3086
 20
11.9454
 30
0.0
 40
0.333333
 41
0.333333
  0
VERTEX
  8
0
 10
41.2019
 20
11.6537
 30
0.0
 40
0.333333
 41
0.333333
  0
VERTEX
  8
0
 10
41.0682
 20
11.3761
 30
0.0
 40
0.333333
 41
0.333333
  0
VERTEX
  8
0
 10
40.9092
 20
11.1144
 30
0.0
 40
0.333333
 41
0.333333
  0
VERTEX
  8
0
 10
40.7264
 20
10.87
 30
0.0
 40
0.333333
 41
0.333333
  0
VERTEX
  8
0
 10
40.5215
 20
10.6445
 30
0.0
 40
0.333333
 41
0.333333
  0
VERTEX
  8
0
 10
40.296
 20
10.4396
 30
0.0
 40
0.333333
 41
0.333333
  0
VERTEX
  8
0
 10
40.0515
 20
10.2568
 30
0.0
 40
0.333333
 41
0.333333
  0
VERTEX
  8
0
 10
39.7899
 20
10.0978
 30
0.0
 40
0.333333
 41
0.333333
  0
VERTEX
  8
0
 10
39.5122
 20
9.96403
 30
0.0
 40
0.333333
 41
0.333333
  0
VERTEX
  8
0
 10
39.2206
 20
9.85732
 30
0.0
 40
0.333333
 41
0.333333
  0
VERTEX
  8
0
 10
38.9162
 20
9.77903
 30
0.0
 40
0.333333
 41
0.333333
  0
VERTEX
  8
0
 10
38.6011
 20
9.73096
 30
0.0
 40
0.333333
 41
0.333333
  0
VERTEX
  8
0
 10
38.3576
 20
9.71451
 30
0.0
 40
0.333333
 41
0.333333
  0
VERTEX
  8
0
 10
38.2765
 20
9.71451
 30
0.0
 40
0.333333
 41
0.333333
  0
VERTEX
  8
0
 10
38.1953
 20
9.71451
 30
0.0
 40
0.333333
 41
0.333333
  0
VERTEX
  8
0
 10
37.9518
 20
9.73096
 30
0.0
 40
0.333333
 41
0.333333
  0
VERTEX
  8
0
 10
37.6365
 20
9.77903
 30
0.0
 40
0.333333
 41
0.333333
  0
VERTEX
  8
0
 10
37.3324
 20
9.85732
 30
0.0
 40
0.333333
 41
0.333333
  0
VERTEX
  8
0
 10
37.0406
 20
9.96403
 30
0.0
 40
0.333333
 41
0.333333
  0
VERTEX
  8
0
 10
36.7631
 20
10.0978
 30
0.0
 40
0.333333
 41
0.333333
  0
VERTEX
  8
0
 10
36.5013
 20
10.2568
 30
0.0
 40
0.333333
 41
0.333333
  0
VERTEX
  8
0
 10
36.2568
 20
10.4396
 30
0.0
 40
0.333333
 41
0.333333
  0
VERTEX
  8
0
 10
36.0314
 20
10.6445
 30
0.0
 40
0.333333
 41
0.333333
  0
VERTEX
  8
0
 10
35.8264
 20
10.87
 30
0.0
 40
0.333333
 41
0.333333
  0
VERTEX
  8
0
 10
35.6436
 20
11.1144
 30
0.0
 40
0.333333
 41
0.333333
  0
VERTEX
  8
0
 10
35.4846
 20
11.3761
 30
0.0
 40
0.333333
 41
0.333333
  0
VERTEX
  8
0
 10
35.351
 20
11.6537
 30
0.0
 40
0.333333
 41
0.333333
  0
VERTEX
  8
0
 10
35.2442
 20
11.9454
 30
0.0
 40
0.333333
 41
0.333333
  0
VERTEX
  8
0
 10
35.166
 20
12.2497
 30
0.0
 40
0.333333
 41
0.333333
  0
VERTEX
  8
0
 10
35.1178
 20
12.5649
 30
0.0
 40
0.333333
 41
0.333333
  0
VERTEX
  8
0
 10
35.1014
 20
12.8084
 30
0.0
 40
0.333333
 41
0.333333
  0
VERTEX
  8
0
 10
35.1014
 20
12.8895
 30
0.0
 40
0.333333
 41
0.333333
  0
VERTEX
  8
0
 10
35.1014
 20
12.9707
 30
0.0
 40
0.333333
 41
0.333333
  0
VERTEX
  8
0
 10
35.1178
 20
13.2142
 30
0.0
 40
0.333333
 41
0.333333
  0
VERTEX
  8
0
 10
35.166
 20
13.5294
 30
0.0
 40
0.333333
 41
0.333333
  0
VERTEX
  8
0
 10
35.2442
 20
13.8337
 30
0.0
 40
0.333333
 41
0.333333
  0
VERTEX
  8
0
 10
35.351
 20
14.1254
 30
0.0
 40
0.333333
 41
0.333333
  0
VERTEX
  8
0
 10
35.4846
 20
14.4029
 30
0.0
 40
0.333333
 41
0.333333
  0
VERTEX
  8
0
 10
35.6436
 20
14.6647
 30
0.0
 40
0.333333
 41
0.333333
  0
VERTEX
  8
0
 10
35.8264
 20
14.9092
 30
0.0
 40
0.333333
 41
0.333333
  0
VERTEX
  8
0
 10
36.0314
 20
15.1346
 30
0.0
 40
0.333333
 41
0.333333
  0
VERTEX
  8
0
 10
36.2568
 20
15.3396
 30
0.0
 40
0.333333
 41
0.333333
  0
VERTEX
  8
0
 10
36.5013
 20
15.5224
 30
0.0
 40
0.333333
 41
0.333333
  0
VERTEX
  8
0
 10
36.7631
 20
15.6813
 30
0.0
 40
0.333333
 41
0.333333
  0
VERTEX
  8
0
 10
37.0406
 20
15.815
 30
0.0
 40
0.333333
 41
0.333333
  0
VERTEX
  8
0
 10
37.3324
 20
15.9218
 30
0.0
 40
0.333333
 41
0.333333
  0
VERTEX
  8
0
 10
37.6365
 20
16
 30
0.0
 40
0.333333
 41
0.333333
  0
VERTEX
  8
0
 10
37.9518
 20
16.0481
 30
0.0
 40
0.333333
 41
0.333333
  0
VERTEX
  8
0
 10
38.1953
 20
16.0644
 30
0.0
 40
0.333333
 41
0.333333
  0
VERTEX
  8
0
 10
38.2765
 20
16.0644
 30
0.0
 40
0.333333
 41
0.333333
  0
VERTEX
  8
0
 10
38.3576
 20
16.0644
 30
0.0
 40
0.333333
 41
0.333333
  0
VERTEX
  8
0
 10
38.6011
 20
16.0481
 30
0.0
 40
0.333333
 41
0.333333
  0
VERTEX
  8
0
 10
38.9162
 20
16
 30
0.0
 40
0.333333
 41
0.333333
  0
VERTEX
  8
0
 10
39.2206
 20
15.9218
 30
0.0
 40
0.333333
 41
0.333333
  0
VERTEX
  8
0
 10
39.5122
 20
15.815
 30
0.0
 40
0.333333
 41
0.333333
  0
VERTEX
  8
0
 10
39.7899
 20
15.6813
 30
0.0
 40
0.333333
 41
0.333333
  0
VERTEX
  8
0
 10
40.0515
 20
15.5224
 30
0.0
 40
0.333333
 41
0.333333
  0
VERTEX
  8
0
 10
40.296
 20
15.3396
 30
0.0
 40
0.333333
 41
0.333333
  0
VERTEX
  8
0
 10
40.5215
 20
15.1346
 30
0.0
 40
0.333333
 41
0.333333
  0
VERTEX
  8
0
 10
40.7264
 20
14.9092
 30
0.0
 40
0.333333
 41
0.333333
  0
VERTEX
  8
0
 10
40.9092
 20
14.6647
 30
0.0
 40
0.333333
 41
0.333333
  0
VERTEX
  8
0
 10
41.0682
 20
14.4029
 30
0.0
 40
0.333333
 41
0.333333
  0
VERTEX
  8
0
 10
41.2019
 20
14.1254
 30
0.0
 40
0.333333
 41
0.333333
  0
VERTEX
  8
0
 10
41.3086
 20
13.8337
 30
0.0
 40
0.333333
 41
0.333333
  0
VERTEX
  8
0
 10
41.3869
 20
13.5294
 30
0.0
 40
0.333333
 41
0.333333
  0
VERTEX
  8
0
 10
41.435
 20
13.2142
 30
0.0
 40
0.333333
 41
0.333333
  0
VERTEX
  8
0
 10
41.4514
 20
12.9707
 30
0.0
 40
0.333333
 41
0.333333
  0
VERTEX
  8
0
 10
41.4514
 20
12.8895
 30
0.0
 40
0.333333
 41
0.333333
  0
SEQEND
 8
0
  0
POLYLINE
  8
0
 62
     0
 66
     1
 10
0
 20
0
 30
0.0
 70
     1
 40
24
 41
24
  0
VERTEX
  8
0
 10
14.3764
 20
274.24
 30
0.0
 40
0.333333
 41
0.333333
  0
VERTEX
  8
0
 10
14.3764
 20
274.201
 30
0.0
 40
0.333333
 41
0.333333
  0
VERTEX
  8
0
 10
14.3686
 20
274.086
 30
0.0
 40
0.333333
 41
0.333333
  0
VERTEX
  8
0
 10
14.346
 20
273.938
 30
0.0
 40
0.333333
 41
0.333333
  0
VERTEX
  8
0
 10
14.309
 20
273.794
 30
0.0
 40
0.333333
 41
0.333333
  0
VERTEX
  8
0
 10
14.2585
 20
273.656
 30
0.0
 40
0.333333
 41
0.333333
  0
VERTEX
  8
0
 10
14.1954
 20
273.525
 30
0.0
 40
0.333333
 41
0.333333
  0
VERTEX
  8
0
 10
14.1203
 20
273.401
 30
0.0
 40
0.333333
 41
0.333333
  0
VERTEX
  8
0
 10
14.0339
 20
273.286
 30
0.0
 40
0.333333
 41
0.333333
  0
VERTEX
  8
0
 10
13.9371
 20
273.179
 30
0.0
 40
0.333333
 41
0.333333
  0
VERTEX
  8
0
 10
13.8305
 20
273.082
 30
0.0
 40
0.333333
 41
0.333333
  0
VERTEX
  8
0
 10
13.7151
 20
272.996
 30
0.0
 40
0.333333
 41
0.333333
  0
VERTEX
  8
0
 10
13.5914
 20
272.921
 30
0.0
 40
0.333333
 41
0.333333
  0
VERTEX
  8
0
 10
13.4603
 20
272.858
 30
0.0
 40
0.333333
 41
0.333333
  0
VERTEX
  8
0
 10
13.3224
 20
272.807
 30
0.0
 40
0.333333
 41
0.333333
  0
VERTEX
  8
0
 10
13.1787
 20
272.771
 30
0.0
 40
0.333333
 41
0.333333
  0
VERTEX
  8
0
 10
13.0297
 20
272.747
 30
0.0
 40
0.333333
 41
0.333333
  0
VERTEX
  8
0
 10
12.9147
 20
272.74
 30
0.0
 40
0.333333
 41
0.333333
  0
VERTEX
  8
0
 10
12.8764
 20
272.74
 30
0.0
 40
0.333333
 41
0.333333
  0
VERTEX
  8
0
 10
12.8381
 20
272.74
 30
0.0
 40
0.333333
 41
0.333333
  0
VERTEX
  8
0
 10
12.723
 20
272.747
 30
0.0
 40
0.333333
 41
0.333333
  0
VERTEX
  8
0
 10
12.5741
 20
272.771
 30
0.0
 40
0.333333
 41
0.333333
  0
VERTEX
  8
0
 10
12.4303
 20
272.807
 30
0.0
 40
0.333333
 41
0.333333
  0
VERTEX
  8
0
 10
12.2925
 20
272.858
 30
0.0
 40
0.333333
 41
0.333333
  0
VERTEX
  8
0
 10
12.1614
 20
272.921
 30
0.0
 40
0.333333
 41
0.333333
  0
VERTEX
  8
0
 10
12.0377
 20
272.996
 30
0.0
 40
0.333333
 41
0.333333
  0
VERTEX
  8
0
 10
11.9222
 20
273.082
 30
0.0
 40
0.333333
 41
0.333333
  0
VERTEX
  8
0
 10
11.8157
 20
273.179
 30
0.0
 40
0.333333
 41
0.333333
  0
VERTEX
  8
0
 10
11.7189
 20
273.286
 30
0.0
 40
0.333333
 41
0.333333
  0
VERTEX
  8
0
 10
11.6325
 20
273.401
 30
0.0
 40
0.333333
 41
0.333333
  0
VERTEX
  8
0
 10
11.5574
 20
273.525
 30
0.0
 40
0.333333
 41
0.333333
  0
VERTEX
  8
0
 10
11.4943
 20
273.656
 30
0.0
 40
0.333333
 41
0.333333
  0
VERTEX
  8
0
 10
11.4438
 20
273.794
 30
0.0
 40
0.333333
 41
0.333333
  0
VERTEX
  8
0
 10
11.4068
 20
273.938
 30
0.0
 40
0.333333
 41
0.333333
  0
VERTEX
  8
0
 10
11.3841
 20
274.086
 30
0.0
 40
0.333333
 41
0.333333
  0
VERTEX
  8
0
 10
11.3764
 20
274.201
 30
0.0
 40
0.333333
 41
0.333333
  0
VERTEX
  8
0
 10
11.3764
 20
274.24
 30
0.0
 40
0.333333
 41
0.333333
  0
VERTEX
  8
0
 10
11.3764
 20
274.278
 30
0.0
 40
0.333333
 41
0.333333
  0
VERTEX
  8
0
 10
11.3841
 20
274.393
 30
0.0
 40
0.333333
 41
0.333333
  0
VERTEX
  8
0
 10
11.4068
 20
274.542
 30
0.0
 40
0.333333
 41
0.333333
  0
VERTEX
  8
0
 10
11.4438
 20
274.686
 30
0.0
 40
0.333333
 41
0.333333
  0
VERTEX
  8
0
 10
11.4943
 20
274.824
 30
0.0
 40
0.333333
 41
0.333333
  0
VERTEX
  8
0
 10
11.5574
 20
274.956
 30
0.0
 40
0.333333
 41
0.333333
  0
VERTEX
  8
0
 10
11.6325
 20
275.079
 30
0.0
 40
0.333333
 41
0.333333
  0
VERTEX
  8
0
 10
11.7189
 20
275.194
 30
0.0
 40
0.333333
 41
0.333333
  0
VERTEX
  8
0
 10
11.8157
 20
275.3
 30
0.0
 40
0.333333
 41
0.333333
  0
VERTEX
  8
0
 10
11.9222
 20
275.397
 30
0.0
 40
0.333333
 41
0.333333
  0
VERTEX
  8
0
 10
12.0377
 20
275.483
 30
0.0
 40
0.333333
 41
0.333333
  0
VERTEX
  8
0
 10
12.1614
 20
275.558
 30
0.0
 40
0.333333
 41
0.333333
  0
VERTEX
  8
0
 10
12.2925
 20
275.622
 30
0.0
 40
0.333333
 41
0.333333
  0
VERTEX
  8
0
 10
12.4303
 20
275.672
 30
0.0
 40
0.333333
 41
0.333333
  0
VERTEX
  8
0
 10
12.5741
 20
275.71
 30
0.0
 40
0.333333
 41
0.333333
  0
VERTEX
  8
0
 10
12.723
 20
275.732
 30
0.0
 40
0.333333
 41
0.333333
  0
VERTEX
  8
0
 10
12.8381
 20
275.74
 30
0.0
 40
0.333333
 41
0.333333
  0
VERTEX
  8
0
 10
12.8764
 20
275.74
 30
0.0
 40
0.333333
 41
0.333333
  0
VERTEX
  8
0
 10
12.9147
 20
275.74
 30
0.0
 40
0.333333
 41
0.333333
  0
VERTEX
  8
0
 10
13.0297
 20
275.732
 30
0.0
 40
0.333333
 41
0.333333
  0
VERTEX
  8
0
 10
13.1787
 20
275.71
 30
0.0
 40
0.333333
 41
0.333333
  0
VERTEX
  8
0
 10
13.3224
 20
275.672
 30
0.0
 40
0.333333
 41
0.333333
  0
VERTEX
  8
0
 10
13.4603
 20
275.622
 30
0.0
 40
0.333333
 41
0.333333
  0
VERTEX
  8
0
 10
13.5914
 20
275.558
 30
0.0
 40
0.333333
 41
0.333333
  0
VERTEX
  8
0
 10
13.7151
 20
275.483
 30
0.0
 40
0.333333
 41
0.333333
  0
VERTEX
  8
0
 10
13.8305
 20
275.397
 30
0.0
 40
0.333333
 41
0.333333
  0
VERTEX
  8
0
 10
13.9371
 20
275.3
 30
0.0
 40
0.333333
 41
0.333333
  0
VERTEX
  8
0
 10
14.0339
 20
275.194
 30
0.0
 40
0.333333
 41
0.333333
  0
VERTEX
  8
0
 10
14.1203
 20
275.079
 30
0.0
 40
0.333333
 41
0.333333
  0
VERTEX
  8
0
 10
14.1954
 20
274.956
 30
0.0
 40
0.333333
 41
0.333333
  0
VERTEX
  8
0
 10
14.2585
 20
274.824
 30
0.0
 40
0.333333
 41
0.333333
  0
VERTEX
  8
0
 10
14.309
 20
274.686
 30
0.0
 40
0.333333
 41
0.333333
  0
VERTEX
  8
0
 10
14.346
 20
274.542
 30
0.0
 40
0.333333
 41
0.333333
  0
VERTEX
  8
0
 10
14.3686
 20
274.393
 30
0.0
 40
0.333333
 41
0.333333
  0
VERTEX
  8
0
 10
14.3764
 20
274.278
 30
0.0
 40
0.333333
 41
0.333333
  0
VERTEX
  8
0
 10
14.3764
 20
274.24
 30
0.0
 40
0.333333
 41
0.333333
  0
SEQEND
 8
0
  0
POLYLINE
  8
0
 62
     0
 66
     1
 10
0
 20
0
 30
0.0
 70
     1
 40
24
 41
24
  0
VERTEX
  8
0
 10
166.776
 20
274.24
 30
0.0
 40
0.333333
 41
0.333333
  0
VERTEX
  8
0
 10
166.776
 20
274.201
 30
0.0
 40
0.333333
 41
0.333333
  0
VERTEX
  8
0
 10
166.769
 20
274.086
 30
0.0
 40
0.333333
 41
0.333333
  0
VERTEX
  8
0
 10
166.746
 20
273.938
 30
0.0
 40
0.333333
 41
0.333333
  0
VERTEX
  8
0
 10
166.71
 20
273.794
 30
0.0
 40
0.333333
 41
0.333333
  0
VERTEX
  8
0
 10
166.658
 20
273.656
 30
0.0
 40
0.333333
 41
0.333333
  0
VERTEX
  8
0
 10
166.596
 20
273.525
 30
0.0
 40
0.333333
 41
0.333333
  0
VERTEX
  8
0
 10
166.521
 20
273.401
 30
0.0
 40
0.333333
 41
0.333333
  0
VERTEX
  8
0
 10
166.435
 20
273.286
 30
0.0
 40
0.333333
 41
0.333333
  0
VERTEX
  8
0
 10
166.337
 20
273.179
 30
0.0
 40
0.333333
 41
0.333333
  0
VERTEX
  8
0
 10
166.231
 20
273.082
 30
0.0
 40
0.333333
 41
0.333333
  0
VERTEX
  8
0
 10
166.115
 20
272.996
 30
0.0
 40
0.333333
 41
0.333333
  0
VERTEX
  8
0
 10
165.992
 20
272.921
 30
0.0
 40
0.333333
 41
0.333333
  0
VERTEX
  8
0
 10
165.861
 20
272.858
 30
0.0
 40
0.333333
 41
0.333333
  0
VERTEX
  8
0
 10
165.722
 20
272.807
 30
0.0
 40
0.333333
 41
0.333333
  0
VERTEX
  8
0
 10
165.579
 20
272.771
 30
0.0
 40
0.333333
 41
0.333333
  0
VERTEX
  8
0
 10
165.431
 20
272.747
 30
0.0
 40
0.333333
 41
0.333333
  0
VERTEX
  8
0
 10
165.315
 20
272.74
 30
0.0
 40
0.333333
 41
0.333333
  0
VERTEX
  8
0
 10
165.276
 20
272.74
 30
0.0
 40
0.333333
 41
0.333333
  0
VERTEX
  8
0
 10
165.239
 20
272.74
 30
0.0
 40
0.333333
 41
0.333333
  0
VERTEX
  8
0
 10
165.124
 20
272.747
 30
0.0
 40
0.333333
 41
0.333333
  0
VERTEX
  8
0
 10
164.975
 20
272.771
 30
0.0
 40
0.333333
 41
0.333333
  0
VERTEX
  8
0
 10
164.831
 20
272.807
 30
0.0
 40
0.333333
 41
0.333333
  0
VERTEX
  8
0
 10
164.693
 20
272.858
 30
0.0
 40
0.333333
 41
0.333333
  0
VERTEX
  8
0
 10
164.561
 20
272.921
 30
0.0
 40
0.333333
 41
0.333333
  0
VERTEX
  8
0
 10
164.438
 20
272.996
 30
0.0
 40
0.333333
 41
0.333333
  0
VERTEX
  8
0
 10
164.322
 20
273.082
 30
0.0
 40
0.333333
 41
0.333333
  0
VERTEX
  8
0
 10
164.217
 20
273.179
 30
0.0
 40
0.333333
 41
0.333333
  0
VERTEX
  8
0
 10
164.119
 20
273.286
 30
0.0
 40
0.333333
 41
0.333333
  0
VERTEX
  8
0
 10
164.033
 20
273.401
 30
0.0
 40
0.333333
 41
0.333333
  0
VERTEX
  8
0
 10
163.958
 20
273.525
 30
0.0
 40
0.333333
 41
0.333333
  0
VERTEX
  8
0
 10
163.894
 20
273.656
 30
0.0
 40
0.333333
 41
0.333333
  0
VERTEX
  8
0
 10
163.844
 20
273.794
 30
0.0
 40
0.333333
 41
0.333333
  0
VERTEX
  8
0
 10
163.807
 20
273.938
 30
0.0
 40
0.333333
 41
0.333333
  0
VERTEX
  8
0
 10
163.785
 20
274.086
 30
0.0
 40
0.333333
 41
0.333333
  0
VERTEX
  8
0
 10
163.776
 20
274.201
 30
0.0
 40
0.333333
 41
0.333333
  0
VERTEX
  8
0
 10
163.776
 20
274.24
 30
0.0
 40
0.333333
 41
0.333333
  0
VERTEX
  8
0
 10
163.776
 20
274.278
 30
0.0
 40
0.333333
 41
0.333333
  0
VERTEX
  8
0
 10
163.785
 20
274.393
 30
0.0
 40
0.333333
 41
0.333333
  0
VERTEX
  8
0
 10
163.807
 20
274.542
 30
0.0
 40
0.333333
 41
0.333333
  0
VERTEX
  8
0
 10
163.844
 20
274.686
 30
0.0
 40
0.333333
 41
0.333333
  0
VERTEX
  8
0
 10
163.894
 20
274.824
 30
0.0
 40
0.333333
 41
0.333333
  0
VERTEX
  8
0
 10
163.958
 20
274.956
 30
0.0
 40
0.333333
 41
0.333333
  0
VERTEX
  8
0
 10
164.033
 20
275.079
 30
0.0
 40
0.333333
 41
0.333333
  0
VERTEX
  8
0
 10
164.119
 20
275.194
 30
0.0
 40
0.333333
 41
0.333333
  0
VERTEX
  8
0
 10
164.217
 20
275.3
 30
0.0
 40
0.333333
 41
0.333333
  0
VERTEX
  8
0
 10
164.322
 20
275.397
 30
0.0
 40
0.333333
 41
0.333333
  0
VERTEX
  8
0
 10
164.438
 20
275.483
 30
0.0
 40
0.333333
 41
0.333333
  0
VERTEX
  8
0
 10
164.561
 20
275.558
 30
0.0
 40
0.333333
 41
0.333333
  0
VERTEX
  8
0
 10
164.693
 20
275.622
 30
0.0
 40
0.333333
 41
0.333333
  0
VERTEX
  8
0
 10
164.831
 20
275.672
 30
0.0
 40
0.333333
 41
0.333333
  0
VERTEX
  8
0
 10
164.975
 20
275.71
 30
0.0
 40
0.333333
 41
0.333333
  0
VERTEX
  8
0
 10
165.124
 20
275.732
 30
0.0
 40
0.333333
 41
0.333333
  0
VERTEX
  8
0
 10
165.239
 20
275.74
 30
0.0
 40
0.333333
 41
0.333333
  0
VERTEX
  8
0
 10
165.276
 20
275.74
 30
0.0
 40
0.333333
 41
0.333333
  0
VERTEX
  8
0
 10
165.315
 20
275.74
 30
0.0
 40
0.333333
 41
0.333333
  0
VERTEX
  8
0
 10
165.431
 20
275.732
 30
0.0
 40
0.333333
 41
0.333333
  0
VERTEX
  8
0
 10
165.579
 20
275.71
 30
0.0
 40
0.333333
 41
0.333333
  0
VERTEX
  8
0
 10
165.722
 20
275.672
 30
0.0
 40
0.333333
 41
0.333333
  0
VERTEX
  8
0
 10
165.861
 20
275.622
 30
0.0
 40
0.333333
 41
0.333333
  0
VERTEX
  8
0
 10
165.992
 20
275.558
 30
0.0
 40
0.333333
 41
0.333333
  0
VERTEX
  8
0
 10
166.115
 20
275.483
 30
0.0
 40
0.333333
 41
0.333333
  0
VERTEX
  8
0
 10
166.231
 20
275.397
 30
0.0
 40
0.333333
 41
0.333333
  0
VERTEX
  8
0
 10
166.337
 20
275.3
 30
0.0
 40
0.333333
 41
0.333333
  0
VERTEX
  8
0
 10
166.435
 20
275.194
 30
0.0
 40
0.333333
 41
0.333333
  0
VERTEX
  8
0
 10
166.521
 20
275.079
 30
0.0
 40
0.333333
 41
0.333333
  0
VERTEX
  8
0
 10
166.596
 20
274.956
 30
0.0
 40
0.333333
 41
0.333333
  0
VERTEX
  8
0
 10
166.658
 20
274.824
 30
0.0
 40
0.333333
 41
0.333333
  0
VERTEX
  8
0
 10
166.71
 20
274.686
 30
0.0
 40
0.333333
 41
0.333333
  0
VERTEX
  8
0
 10
166.746
 20
274.542
 30
0.0
 40
0.333333
 41
0.333333
  0
VERTEX
  8
0
 10
166.769
 20
274.393
 30
0.0
 40
0.333333
 41
0.333333
  0
VERTEX
  8
0
 10
166.776
 20
274.278
 30
0.0
 40
0.333333
 41
0.333333
  0
VERTEX
  8
0
 10
166.776
 20
274.24
 30
0.0
 40
0.333333
 41
0.333333
  0
SEQEND
 8
0
  0
POLYLINE
  8
0
 62
     0
 66
     1
 10
0
 20
0
 30
0.0
 70
     1
 40
24
 41
24
  0
VERTEX
  8
0
 10
166.776
 20
289.99
 30
0.0
 40
0.333333
 41
0.333333
  0
VERTEX
  8
0
 10
166.776
 20
289.951
 30
0.0
 40
0.333333
 41
0.333333
  0
VERTEX
  8
0
 10
166.769
 20
289.836
 30
0.0
 40
0.333333
 41
0.333333
  0
VERTEX
  8
0
 10
166.746
 20
289.688
 30
0.0
 40
0.333333
 41
0.333333
  0
VERTEX
  8
0
 10
166.71
 20
289.544
 30
0.0
 40
0.333333
 41
0.333333
  0
VERTEX
  8
0
 10
166.658
 20
289.406
 30
0.0
 40
0.333333
 41
0.333333
  0
VERTEX
  8
0
 10
166.596
 20
289.275
 30
0.0
 40
0.333333
 41
0.333333
  0
VERTEX
  8
0
 10
166.521
 20
289.151
 30
0.0
 40
0.333333
 41
0.333333
  0
VERTEX
  8
0
 10
166.435
 20
289.036
 30
0.0
 40
0.333333
 41
0.333333
  0
VERTEX
  8
0
 10
166.337
 20
288.929
 30
0.0
 40
0.333333
 41
0.333333
  0
VERTEX
  8
0
 10
166.231
 20
288.832
 30
0.0
 40
0.333333
 41
0.333333
  0
VERTEX
  8
0
 10
166.115
 20
288.746
 30
0.0
 40
0.333333
 41
0.333333
  0
VERTEX
  8
0
 10
165.992
 20
288.671
 30
0.0
 40
0.333333
 41
0.333333
  0
VERTEX
  8
0
 10
165.861
 20
288.608
 30
0.0
 40
0.333333
 41
0.333333
  0
VERTEX
  8
0
 10
165.722
 20
288.557
 30
0.0
 40
0.333333
 41
0.333333
  0
VERTEX
  8
0
 10
165.579
 20
288.521
 30
0.0
 40
0.333333
 41
0.333333
  0
VERTEX
  8
0
 10
165.431
 20
288.497
 30
0.0
 40
0.333333
 41
0.333333
  0
VERTEX
  8
0
 10
165.315
 20
288.49
 30
0.0
 40
0.333333
 41
0.333333
  0
VERTEX
  8
0
 10
165.276
 20
288.49
 30
0.0
 40
0.333333
 41
0.333333
  0
VERTEX
  8
0
 10
165.239
 20
288.49
 30
0.0
 40
0.333333
 41
0.333333
  0
VERTEX
  8
0
 10
165.124
 20
288.497
 30
0.0
 40
0.333333
 41
0.333333
  0
VERTEX
  8
0
 10
164.975
 20
288.521
 30
0.0
 40
0.333333
 41
0.333333
  0
VERTEX
  8
0
 10
164.831
 20
288.557
 30
0.0
 40
0.333333
 41
0.333333
  0
VERTEX
  8
0
 10
164.693
 20
288.608
 30
0.0
 40
0.333333
 41
0.333333
  0
VERTEX
  8
0
 10
164.561
 20
288.671
 30
0.0
 40
0.333333
 41
0.333333
  0
VERTEX
  8
0
 10
164.438
 20
288.746
 30
0.0
 40
0.333333
 41
0.333333
  0
VERTEX
  8
0
 10
164.322
 20
288.832
 30
0.0
 40
0.333333
 41
0.333333
  0
VERTEX
  8
0
 10
164.217
 20
288.929
 30
0.0
 40
0.333333
 41
0.333333
  0
VERTEX
  8
0
 10
164.119
 20
289.036
 30
0.0
 40
0.333333
 41
0.333333
  0
VERTEX
  8
0
 10
164.033
 20
289.151
 30
0.0
 40
0.333333
 41
0.333333
  0
VERTEX
  8
0
 10
163.958
 20
289.275
 30
0.0
 40
0.333333
 41
0.333333
  0
VERTEX
  8
0
 10
163.894
 20
289.406
 30
0.0
 40
0.333333
 41
0.333333
  0
VERTEX
  8
0
 10
163.844
 20
289.544
 30
0.0
 40
0.333333
 41
0.333333
  0
VERTEX
  8
0
 10
163.807
 20
289.688
 30
0.0
 40
0.333333
 41
0.333333
  0
VERTEX
  8
0
 10
163.785
 20
289.836
 30
0.0
 40
0.333333
 41
0.333333
  0
VERTEX
  8
0
 10
163.776
 20
289.951
 30
0.0
 40
0.333333
 41
0.333333
  0
VERTEX
  8
0
 10
163.776
 20
289.99
 30
0.0
 40
0.333333
 41
0.333333
  0
VERTEX
  8
0
 10
163.776
 20
290.028
 30
0.0
 40
0.333333
 41
0.333333
  0
VERTEX
  8
0
 10
163.785
 20
290.143
 30
0.0
 40
0.333333
 41
0.333333
  0
VERTEX
  8
0
 10
163.807
 20
290.292
 30
0.0
 40
0.333333
 41
0.333333
  0
VERTEX
  8
0
 10
163.844
 20
290.436
 30
0.0
 40
0.333333
 41
0.333333
  0
VERTEX
  8
0
 10
163.894
 20
290.574
 30
0.0
 40
0.333333
 41
0.333333
  0
VERTEX
  8
0
 10
163.958
 20
290.706
 30
0.0
 40
0.333333
 41
0.333333
  0
VERTEX
  8
0
 10
164.033
 20
290.829
 30
0.0
 40
0.333333
 41
0.333333
  0
VERTEX
  8
0
 10
164.119
 20
290.944
 30
0.0
 40
0.333333
 41
0.333333
  0
VERTEX
  8
0
 10
164.217
 20
291.05
 30
0.0
 40
0.333333
 41
0.333333
  0
VERTEX
  8
0
 10
164.322
 20
291.147
 30
0.0
 40
0.333333
 41
0.333333
  0
VERTEX
  8
0
 10
164.438
 20
291.233
 30
0.0
 40
0.333333
 41
0.333333
  0
VERTEX
  8
0
 10
164.561
 20
291.308
 30
0.0
 40
0.333333
 41
0.333333
  0
VERTEX
  8
0
 10
164.693
 20
291.372
 30
0.0
 40
0.333333
 41
0.333333
  0
VERTEX
  8
0
 10
164.831
 20
291.422
 30
0.0
 40
0.333333
 41
0.333333
  0
VERTEX
  8
0
 10
164.975
 20
291.46
 30
0.0
 40
0.333333
 41
0.333333
  0
VERTEX
  8
0
 10
165.124
 20
291.482
 30
0.0
 40
0.333333
 41
0.333333
  0
VERTEX
  8
0
 10
165.239
 20
291.49
 30
0.0
 40
0.333333
 41
0.333333
  0
VERTEX
  8
0
 10
165.276
 20
291.49
 30
0.0
 40
0.333333
 41
0.333333
  0
VERTEX
  8
0
 10
165.315
 20
291.49
 30
0.0
 40
0.333333
 41
0.333333
  0
VERTEX
  8
0
 10
165.431
 20
291.482
 30
0.0
 40
0.333333
 41
0.333333
  0
VERTEX
  8
0
 10
165.579
 20
291.46
 30
0.0
 40
0.333333
 41
0.333333
  0
VERTEX
  8
0
 10
165.722
 20
291.422
 30
0.0
 40
0.333333
 41
0.333333
  0
VERTEX
  8
0
 10
165.861
 20
291.372
 30
0.0
 40
0.333333
 41
0.333333
  0
VERTEX
  8
0
 10
165.992
 20
291.308
 30
0.0
 40
0.333333
 41
0.333333
  0
VERTEX
  8
0
 10
166.115
 20
291.233
 30
0.0
 40
0.333333
 41
0.333333
  0
VERTEX
  8
0
 10
166.231
 20
291.147
 30
0.0
 40
0.333333
 41
0.333333
  0
VERTEX
  8
0
 10
166.337
 20
291.05
 30
0.0
 40
0.333333
 41
0.333333
  0
VERTEX
  8
0
 10
166.435
 20
290.944
 30
0.0
 40
0.333333
 41
0.333333
  0
VERTEX
  8
0
 10
166.521
 20
290.829
 30
0.0
 40
0.333333
 41
0.333333
  0
VERTEX
  8
0
 10
166.596
 20
290.706
 30
0.0
 40
0.333333
 41
0.333333
  0
VERTEX
  8
0
 10
166.658
 20
290.574
 30
0.0
 40
0.333333
 41
0.333333
  0
VERTEX
  8
0
 10
166.71
 20
290.436
 30
0.0
 40
0.333333
 41
0.333333
  0
VERTEX
  8
0
 10
166.746
 20
290.292
 30
0.0
 40
0.333333
 41
0.333333
  0
VERTEX
  8
0
 10
166.769
 20
290.143
 30
0.0
 40
0.333333
 41
0.333333
  0
VERTEX
  8
0
 10
166.776
 20
290.028
 30
0.0
 40
0.333333
 41
0.333333
  0
VERTEX
  8
0
 10
166.776
 20
289.99
 30
0.0
 40
0.333333
 41
0.333333
  0
SEQEND
 8
0
  0
POLYLINE
  8
0
 62
     0
 66
     1
 10
0
 20
0
 30
0.0
 70
     1
 40
24
 41
24
  0
VERTEX
  8
0
 10
14.3764
 20
289.99
 30
0.0
 40
0.333333
 41
0.333333
  0
VERTEX
  8
0
 10
14.3764
 20
289.951
 30
0.0
 40
0.333333
 41
0.333333
  0
VERTEX
  8
0
 10
14.3686
 20
289.836
 30
0.0
 40
0.333333
 41
0.333333
  0
VERTEX
  8
0
 10
14.346
 20
289.688
 30
0.0
 40
0.333333
 41
0.333333
  0
VERTEX
  8
0
 10
14.309
 20
289.544
 30
0.0
 40
0.333333
 41
0.333333
  0
VERTEX
  8
0
 10
14.2585
 20
289.406
 30
0.0
 40
0.333333
 41
0.333333
  0
VERTEX
  8
0
 10
14.1954
 20
289.275
 30
0.0
 40
0.333333
 41
0.333333
  0
VERTEX
  8
0
 10
14.1203
 20
289.151
 30
0.0
 40
0.333333
 41
0.333333
  0
VERTEX
  8
0
 10
14.0339
 20
289.036
 30
0.0
 40
0.333333
 41
0.333333
  0
VERTEX
  8
0
 10
13.9371
 20
288.929
 30
0.0
 40
0.333333
 41
0.333333
  0
VERTEX
  8
0
 10
13.8305
 20
288.832
 30
0.0
 40
0.333333
 41
0.333333
  0
VERTEX
  8
0
 10
13.7151
 20
288.746
 30
0.0
 40
0.333333
 41
0.333333
  0
VERTEX
  8
0
 10
13.5914
 20
288.671
 30
0.0
 40
0.333333
 41
0.333333
  0
VERTEX
  8
0
 10
13.4603
 20
288.608
 30
0.0
 40
0.333333
 41
0.333333
  0
VERTEX
  8
0
 10
13.3224
 20
288.557
 30
0.0
 40
0.333333
 41
0.333333
  0
VERTEX
  8
0
 10
13.1787
 20
288.521
 30
0.0
 40
0.333333
 41
0.333333
  0
VERTEX
  8
0
 10
13.0297
 20
288.497
 30
0.0
 40
0.333333
 41
0.333333
  0
VERTEX
  8
0
 10
12.9147
 20
288.49
 30
0.0
 40
0.333333
 41
0.333333
  0
VERTEX
  8
0
 10
12.8764
 20
288.49
 30
0.0
 40
0.333333
 41
0.333333
  0
VERTEX
  8
0
 10
12.8381
 20
288.49
 30
0.0
 40
0.333333
 41
0.333333
  0
VERTEX
  8
0
 10
12.723
 20
288.497
 30
0.0
 40
0.333333
 41
0.333333
  0
VERTEX
  8
0
 10
12.5741
 20
288.521
 30
0.0
 40
0.333333
 41
0.333333
  0
VERTEX
  8
0
 10
12.4303
 20
288.557
 30
0.0
 40
0.333333
 41
0.333333
  0
VERTEX
  8
0
 10
12.2925
 20
288.608
 30
0.0
 40
0.333333
 41
0.333333
  0
VERTEX
  8
0
 10
12.1614
 20
288.671
 30
0.0
 40
0.333333
 41
0.333333
  0
VERTEX
  8
0
 10
12.0377
 20
288.746
 30
0.0
 40
0.333333
 41
0.333333
  0
VERTEX
  8
0
 10
11.9222
 20
288.832
 30
0.0
 40
0.333333
 41
0.333333
  0
VERTEX
  8
0
 10
11.8157
 20
288.929
 30
0.0
 40
0.333333
 41
0.333333
  0
VERTEX
  8
0
 10
11.7189
 20
289.036
 30
0.0
 40
0.333333
 41
0.333333
  0
VERTEX
  8
0
 10
11.6325
 20
289.151
 30
0.0
 40
0.333333
 41
0.333333
  0
VERTEX
  8
0
 10
11.5574
 20
289.275
 30
0.0
 40
0.333333
 41
0.333333
  0
VERTEX
  8
0
 10
11.4943
 20
289.406
 30
0.0
 40
0.333333
 41
0.333333
  0
VERTEX
  8
0
 10
11.4438
 20
289.544
 30
0.0
 40
0.333333
 41
0.333333
  0
VERTEX
  8
0
 10
11.4068
 20
289.688
 30
0.0
 40
0.333333
 41
0.333333
  0
VERTEX
  8
0
 10
11.3841
 20
289.836
 30
0.0
 40
0.333333
 41
0.333333
  0
VERTEX
  8
0
 10
11.3764
 20
289.951
 30
0.0
 40
0.333333
 41
0.333333
  0
VERTEX
  8
0
 10
11.3764
 20
289.99
 30
0.0
 40
0.333333
 41
0.333333
  0
VERTEX
  8
0
 10
11.3764
 20
290.028
 30
0.0
 40
0.333333
 41
0.333333
  0
VERTEX
  8
0
 10
11.3841
 20
290.143
 30
0.0
 40
0.333333
 41
0.333333
  0
VERTEX
  8
0
 10
11.4068
 20
290.292
 30
0.0
 40
0.333333
 41
0.333333
  0
VERTEX
  8
0
 10
11.4438
 20
290.436
 30
0.0
 40
0.333333
 41
0.333333
  0
VERTEX
  8
0
 10
11.4943
 20
290.574
 30
0.0
 40
0.333333
 41
0.333333
  0
VERTEX
  8
0
 10
11.5574
 20
290.706
 30
0.0
 40
0.333333
 41
0.333333
  0
VERTEX
  8
0
 10
11.6325
 20
290.829
 30
0.0
 40
0.333333
 41
0.333333
  0
VERTEX
  8
0
 10
11.7189
 20
290.944
 30
0.0
 40
0.333333
 41
0.333333
  0
VERTEX
  8
0
 10
11.8157
 20
291.05
 30
0.0
 40
0.333333
 41
0.333333
  0
VERTEX
  8
0
 10
11.9222
 20
291.147
 30
0.0
 40
0.333333
 41
0.333333
  0
VERTEX
  8
0
 10
12.0377
 20
291.233
 30
0.0
 40
0.333333
 41
0.333333
  0
VERTEX
  8
0
 10
12.1614
 20
291.308
 30
0.0
 40
0.333333
 41
0.333333
  0
VERTEX
  8
0
 10
12.2925
 20
291.372
 30
0.0
 40
0.333333
 41
0.333333
  0
VERTEX
  8
0
 10
12.4303
 20
291.422
 30
0.0
 40
0.333333
 41
0.333333
  0
VERTEX
  8
0
 10
12.5741
 20
291.46
 30
0.0
 40
0.333333
 41
0.333333
  0
VERTEX
  8
0
 10
12.723
 20
291.482
 30
0.0
 40
0.333333
 41
0.333333
  0
VERTEX
  8
0
 10
12.8381
 20
291.49
 30
0.0
 40
0.333333
 41
0.333333
  0
VERTEX
  8
0
 10
12.8764
 20
291.49
 30
0.0
 40
0.333333
 41
0.333333
  0
VERTEX
  8
0
 10
12.9147
 20
291.49
 30
0.0
 40
0.333333
 41
0.333333
  0
VERTEX
  8
0
 10
13.0297
 20
291.482
 30
0.0
 40
0.333333
 41
0.333333
  0
VERTEX
  8
0
 10
13.1787
 20
291.46
 30
0.0
 40
0.333333
 41
0.333333
  0
VERTEX
  8
0
 10
13.3224
 20
291.422
 30
0.0
 40
0.333333
 41
0.333333
  0
VERTEX
  8
0
 10
13.4603
 20
291.372
 30
0.0
 40
0.333333
 41
0.333333
  0
VERTEX
  8
0
 10
13.5914
 20
291.308
 30
0.0
 40
0.333333
 41
0.333333
  0
VERTEX
  8
0
 10
13.7151
 20
291.233
 30
0.0
 40
0.333333
 41
0.333333
  0
VERTEX
  8
0
 10
13.8305
 20
291.147
 30
0.0
 40
0.333333
 41
0.333333
  0
VERTEX
  8
0
 10
13.9371
 20
291.05
 30
0.0
 40
0.333333
 41
0.333333
  0
VERTEX
  8
0
 10
14.0339
 20
290.944
 30
0.0
 40
0.333333
 41
0.333333
  0
VERTEX
  8
0
 10
14.1203
 20
290.829
 30
0.0
 40
0.333333
 41
0.333333
  0
VERTEX
  8
0
 10
14.1954
 20
290.706
 30
0.0
 40
0.333333
 41
0.333333
  0
VERTEX
  8
0
 10
14.2585
 20
290.574
 30
0.0
 40
0.333333
 41
0.333333
  0
VERTEX
  8
0
 10
14.309
 20
290.436
 30
0.0
 40
0.333333
 41
0.333333
  0
VERTEX
  8
0
 10
14.346
 20
290.292
 30
0.0
 40
0.333333
 41
0.333333
  0
VERTEX
  8
0
 10
14.3686
 20
290.143
 30
0.0
 40
0.333333
 41
0.333333
  0
VERTEX
  8
0
 10
14.3764
 20
290.028
 30
0.0
 40
0.333333
 41
0.333333
  0
VERTEX
  8
0
 10
14.3764
 20
289.99
 30
0.0
 40
0.333333
 41
0.333333
  0
SEQEND
 8
0
  0
POLYLINE
  8
0
 62
     0
 66
     1
 10
0
 20
0
 30
0.0
 70
     1
 40
24
 41
24
  0
VERTEX
  8
0
 10
219.251
 20
12.8895
 30
0.0
 40
0.333333
 41
0.333333
  0
VERTEX
  8
0
 10
219.251
 20
12.8084
 30
0.0
 40
0.333333
 41
0.333333
  0
VERTEX
  8
0
 10
219.235
 20
12.5649
 30
0.0
 40
0.333333
 41
0.333333
  0
VERTEX
  8
0
 10
219.188
 20
12.2497
 30
0.0
 40
0.333333
 41
0.333333
  0
VERTEX
  8
0
 10
219.108
 20
11.9454
 30
0.0
 40
0.333333
 41
0.333333
  0
VERTEX
  8
0
 10
219.003
 20
11.6537
 30
0.0
 40
0.333333
 41
0.333333
  0
VERTEX
  8
0
 10
218.868
 20
11.3761
 30
0.0
 40
0.333333
 41
0.333333
  0
VERTEX
  8
0
 10
218.71
 20
11.1144
 30
0.0
 40
0.333333
 41
0.333333
  0
VERTEX
  8
0
 10
218.526
 20
10.87
 30
0.0
 40
0.333333
 41
0.333333
  0
VERTEX
  8
0
 10
218.322
 20
10.6445
 30
0.0
 40
0.333333
 41
0.333333
  0
VERTEX
  8
0
 10
218.096
 20
10.4396
 30
0.0
 40
0.333333
 41
0.333333
  0
VERTEX
  8
0
 10
217.851
 20
10.2568
 30
0.0
 40
0.333333
 41
0.333333
  0
VERTEX
  8
0
 10
217.59
 20
10.0978
 30
0.0
 40
0.333333
 41
0.333333
  0
VERTEX
  8
0
 10
217.313
 20
9.96403
 30
0.0
 40
0.333333
 41
0.333333
  0
VERTEX
  8
0
 10
217.021
 20
9.85732
 30
0.0
 40
0.333333
 41
0.333333
  0
VERTEX
  8
0
 10
216.717
 20
9.77903
 30
0.0
 40
0.333333
 41
0.333333
  0
VERTEX
  8
0
 10
216.401
 20
9.73096
 30
0.0
 40
0.333333
 41
0.333333
  0
VERTEX
  8
0
 10
216.158
 20
9.71451
 30
0.0
 40
0.333333
 41
0.333333
  0
VERTEX
  8
0
 10
216.076
 20
9.71451
 30
0.0
 40
0.333333
 41
0.333333
  0
VERTEX
  8
0
 10
215.996
 20
9.71451
 30
0.0
 40
0.333333
 41
0.333333
  0
VERTEX
  8
0
 10
215.751
 20
9.73096
 30
0.0
 40
0.333333
 41
0.333333
  0
VERTEX
  8
0
 10
215.438
 20
9.77903
 30
0.0
 40
0.333333
 41
0.333333
  0
VERTEX
  8
0
 10
215.132
 20
9.85732
 30
0.0
 40
0.333333
 41
0.333333
  0
VERTEX
  8
0
 10
214.84
 20
9.96403
 30
0.0
 40
0.333333
 41
0.333333
  0
VERTEX
  8
0
 10
214.564
 20
10.0978
 30
0.0
 40
0.333333
 41
0.333333
  0
VERTEX
  8
0
 10
214.301
 20
10.2568
 30
0.0
 40
0.333333
 41
0.333333
  0
VERTEX
  8
0
 10
214.057
 20
10.4396
 30
0.0
 40
0.333333
 41
0.333333
  0
VERTEX
  8
0
 10
213.832
 20
10.6445
 30
0.0
 40
0.333333
 41
0.333333
  0
VERTEX
  8
0
 10
213.626
 20
10.87
 30
0.0
 40
0.333333
 41
0.333333
  0
VERTEX
  8
0
 10
213.444
 20
11.1144
 30
0.0
 40
0.333333
 41
0.333333
  0
VERTEX
  8
0
 10
213.285
 20
11.3761
 30
0.0
 40
0.333333
 41
0.333333
  0
VERTEX
  8
0
 10
213.151
 20
11.6537
 30
0.0
 40
0.333333
 41
0.333333
  0
VERTEX
  8
0
 10
213.044
 20
11.9454
 30
0.0
 40
0.333333
 41
0.333333
  0
VERTEX
  8
0
 10
212.967
 20
12.2497
 30
0.0
 40
0.333333
 41
0.333333
  0
VERTEX
  8
0
 10
212.918
 20
12.5649
 30
0.0
 40
0.333333
 41
0.333333
  0
VERTEX
  8
0
 10
212.901
 20
12.8084
 30
0.0
 40
0.333333
 41
0.333333
  0
VERTEX
  8
0
 10
212.901
 20
12.8895
 30
0.0
 40
0.333333
 41
0.333333
  0
VERTEX
  8
0
 10
212.901
 20
12.9707
 30
0.0
 40
0.333333
 41
0.333333
  0
VERTEX
  8
0
 10
212.918
 20
13.2142
 30
0.0
 40
0.333333
 41
0.333333
  0
VERTEX
  8
0
 10
212.967
 20
13.5294
 30
0.0
 40
0.333333
 41
0.333333
  0
VERTEX
  8
0
 10
213.044
 20
13.8337
 30
0.0
 40
0.333333
 41
0.333333
  0
VERTEX
  8
0
 10
213.151
 20
14.1254
 30
0.0
 40
0.333333
 41
0.333333
  0
VERTEX
  8
0
 10
213.285
 20
14.4029
 30
0.0
 40
0.333333
 41
0.333333
  0
VERTEX
  8
0
 10
213.444
 20
14.6647
 30
0.0
 40
0.333333
 41
0.333333
  0
VERTEX
  8
0
 10
213.626
 20
14.9092
 30
0.0
 40
0.333333
 41
0.333333
  0
VERTEX
  8
0
 10
213.832
 20
15.1346
 30
0.0
 40
0.333333
 41
0.333333
  0
VERTEX
  8
0
 10
214.057
 20
15.3396
 30
0.0
 40
0.333333
 41
0.333333
  0
VERTEX
  8
0
 10
214.301
 20
15.5224
 30
0.0
 40
0.333333
 41
0.333333
  0
VERTEX
  8
0
 10
214.564
 20
15.6813
 30
0.0
 40
0.333333
 41
0.333333
  0
VERTEX
  8
0
 10
214.84
 20
15.815
 30
0.0
 40
0.333333
 41
0.333333
  0
VERTEX
  8
0
 10
215.132
 20
15.9218
 30
0.0
 40
0.333333
 41
0.333333
  0
VERTEX
  8
0
 10
215.438
 20
16
 30
0.0
 40
0.333333
 41
0.333333
  0
VERTEX
  8
0
 10
215.751
 20
16.0481
 30
0.0
 40
0.333333
 41
0.333333
  0
VERTEX
  8
0
 10
215.996
 20
16.0644
 30
0.0
 40
0.333333
 41
0.333333
  0
VERTEX
  8
0
 10
216.076
 20
16.0644
 30
0.0
 40
0.333333
 41
0.333333
  0
VERTEX
  8
0
 10
216.158
 20
16.0644
 30
0.0
 40
0.333333
 41
0.333333
  0
VERTEX
  8
0
 10
216.401
 20
16.0481
 30
0.0
 40
0.333333
 41
0.333333
  0
VERTEX
  8
0
 10
216.717
 20
16
 30
0.0
 40
0.333333
 41
0.333333
  0
VERTEX
  8
0
 10
217.021
 20
15.9218
 30
0.0
 40
0.333333
 41
0.333333
  0
VERTEX
  8
0
 10
217.313
 20
15.815
 30
0.0
 40
0.333333
 41
0.333333
  0
VERTEX
  8
0
 10
217.59
 20
15.6813
 30
0.0
 40
0.333333
 41
0.333333
  0
VERTEX
  8
0
 10
217.851
 20
15.5224
 30
0.0
 40
0.333333
 41
0.333333
  0
VERTEX
  8
0
 10
218.096
 20
15.3396
 30
0.0
 40
0.333333
 41
0.333333
  0
VERTEX
  8
0
 10
218.322
 20
15.1346
 30
0.0
 40
0.333333
 41
0.333333
  0
VERTEX
  8
0
 10
218.526
 20
14.9092
 30
0.0
 40
0.333333
 41
0.333333
  0
VERTEX
  8
0
 10
218.71
 20
14.6647
 30
0.0
 40
0.333333
 41
0.333333
  0
VERTEX
  8
0
 10
218.868
 20
14.4029
 30
0.0
 40
0.333333
 41
0.333333
  0
VERTEX
  8
0
 10
219.003
 20
14.1254
 30
0.0
 40
0.333333
 41
0.333333
  0
VERTEX
  8
0
 10
219.108
 20
13.8337
 30
0.0
 40
0.333333
 41
0.333333
  0
VERTEX
  8
0
 10
219.188
 20
13.5294
 30
0.0
 40
0.333333
 41
0.333333
  0
VERTEX
  8
0
 10
219.235
 20
13.2142
 30
0.0
 40
0.333333
 41
0.333333
  0
VERTEX
  8
0
 10
219.251
 20
12.9707
 30
0.0
 40
0.333333
 41
0.333333
  0
VERTEX
  8
0
 10
219.251
 20
12.8895
 30
0.0
 40
0.333333
 41
0.333333
  0
SEQEND
 8
0
  0
POLYLINE
  8
0
 62
     0
 66
     1
 10
0
 20
0
 30
0.0
 70
     1
 40
24
 41
24
  0
VERTEX
  8
0
 10
192.176
 20
274.24
 30
0.0
 40
0.333333
 41
0.333333
  0
VERTEX
  8
0
 10
192.176
 20
274.201
 30
0.0
 40
0.333333
 41
0.333333
  0
VERTEX
  8
0
 10
192.169
 20
274.086
 30
0.0
 40
0.333333
 41
0.333333
  0
VERTEX
  8
0
 10
192.146
 20
273.938
 30
0.0
 40
0.333333
 41
0.333333
  0
VERTEX
  8
0
 10
192.11
 20
273.794
 30
0.0
 40
0.333333
 41
0.333333
  0
VERTEX
  8
0
 10
192.058
 20
273.656
 30
0.0
 40
0.333333
 41
0.333333
  0
VERTEX
  8
0
 10
191.996
 20
273.525
 30
0.0
 40
0.333333
 41
0.333333
  0
VERTEX
  8
0
 10
191.921
 20
273.401
 30
0.0
 40
0.333333
 41
0.333333
  0
VERTEX
  8
0
 10
191.835
 20
273.286
 30
0.0
 40
0.333333
 41
0.333333
  0
VERTEX
  8
0
 10
191.737
 20
273.179
 30
0.0
 40
0.333333
 41
0.333333
  0
VERTEX
  8
0
 10
191.631
 20
273.082
 30
0.0
 40
0.333333
 41
0.333333
  0
VERTEX
  8
0
 10
191.515
 20
272.996
 30
0.0
 40
0.333333
 41
0.333333
  0
VERTEX
  8
0
 10
191.392
 20
272.921
 30
0.0
 40
0.333333
 41
0.333333
  0
VERTEX
  8
0
 10
191.261
 20
272.858
 30
0.0
 40
0.333333
 41
0.333333
  0
VERTEX
  8
0
 10
191.122
 20
272.807
 30
0.0
 40
0.333333
 41
0.333333
  0
VERTEX
  8
0
 10
190.979
 20
272.771
 30
0.0
 40
0.333333
 41
0.333333
  0
VERTEX
  8
0
 10
190.831
 20
272.747
 30
0.0
 40
0.333333
 41
0.333333
  0
VERTEX
  8
0
 10
190.715
 20
272.74
 30
0.0
 40
0.333333
 41
0.333333
  0
VERTEX
  8
0
 10
190.676
 20
272.74
 30
0.0
 40
0.333333
 41
0.333333
  0
VERTEX
  8
0
 10
190.639
 20
272.74
 30
0.0
 40
0.333333
 41
0.333333
  0
VERTEX
  8
0
 10
190.524
 20
272.747
 30
0.0
 40
0.333333
 41
0.333333
  0
VERTEX
  8
0
 10
190.375
 20
272.771
 30
0.0
 40
0.333333
 41
0.333333
  0
VERTEX
  8
0
 10
190.231
 20
272.807
 30
0.0
 40
0.333333
 41
0.333333
  0
VERTEX
  8
0
 10
190.093
 20
272.858
 30
0.0
 40
0.333333
 41
0.333333
  0
VERTEX
  8
0
 10
189.961
 20
272.921
 30
0.0
 40
0.333333
 41
0.333333
  0
VERTEX
  8
0
 10
189.837
 20
272.996
 30
0.0
 40
0.333333
 41
0.333333
  0
VERTEX
  8
0
 10
189.722
 20
273.082
 30
0.0
 40
0.333333
 41
0.333333
  0
VERTEX
  8
0
 10
189.617
 20
273.179
 30
0.0
 40
0.333333
 41
0.333333
  0
VERTEX
  8
0
 10
189.519
 20
273.286
 30
0.0
 40
0.333333
 41
0.333333
  0
VERTEX
  8
0
 10
189.433
 20
273.401
 30
0.0
 40
0.333333
 41
0.333333
  0
VERTEX
  8
0
 10
189.358
 20
273.525
 30
0.0
 40
0.333333
 41
0.333333
  0
VERTEX
  8
0
 10
189.294
 20
273.656
 30
0.0
 40
0.333333
 41
0.333333
  0
VERTEX
  8
0
 10
189.244
 20
273.794
 30
0.0
 40
0.333333
 41
0.333333
  0
VERTEX
  8
0
 10
189.207
 20
273.938
 30
0.0
 40
0.333333
 41
0.333333
  0
VERTEX
  8
0
 10
189.185
 20
274.086
 30
0.0
 40
0.333333
 41
0.333333
  0
VERTEX
  8
0
 10
189.176
 20
274.201
 30
0.0
 40
0.333333
 41
0.333333
  0
VERTEX
  8
0
 10
189.176
 20
274.24
 30
0.0
 40
0.333333
 41
0.333333
  0
VERTEX
  8
0
 10
189.176
 20
274.278
 30
0.0
 40
0.333333
 41
0.333333
  0
VERTEX
  8
0
 10
189.185
 20
274.393
 30
0.0
 40
0.333333
 41
0.333333
  0
VERTEX
  8
0
 10
189.207
 20
274.542
 30
0.0
 40
0.333333
 41
0.333333
  0
VERTEX
  8
0
 10
189.244
 20
274.686
 30
0.0
 40
0.333333
 41
0.333333
  0
VERTEX
  8
0
 10
189.294
 20
274.824
 30
0.0
 40
0.333333
 41
0.333333
  0
VERTEX
  8
0
 10
189.358
 20
274.956
 30
0.0
 40
0.333333
 41
0.333333
  0
VERTEX
  8
0
 10
189.433
 20
275.079
 30
0.0
 40
0.333333
 41
0.333333
  0
VERTEX
  8
0
 10
189.519
 20
275.194
 30
0.0
 40
0.333333
 41
0.333333
  0
VERTEX
  8
0
 10
189.617
 20
275.3
 30
0.0
 40
0.333333
 41
0.333333
  0
VERTEX
  8
0
 10
189.722
 20
275.397
 30
0.0
 40
0.333333
 41
0.333333
  0
VERTEX
  8
0
 10
189.837
 20
275.483
 30
0.0
 40
0.333333
 41
0.333333
  0
VERTEX
  8
0
 10
189.961
 20
275.558
 30
0.0
 40
0.333333
 41
0.333333
  0
VERTEX
  8
0
 10
190.093
 20
275.622
 30
0.0
 40
0.333333
 41
0.333333
  0
VERTEX
  8
0
 10
190.231
 20
275.672
 30
0.0
 40
0.333333
 41
0.333333
  0
VERTEX
  8
0
 10
190.375
 20
275.71
 30
0.0
 40
0.333333
 41
0.333333
  0
VERTEX
  8
0
 10
190.524
 20
275.732
 30
0.0
 40
0.333333
 41
0.333333
  0
VERTEX
  8
0
 10
190.639
 20
275.74
 30
0.0
 40
0.333333
 41
0.333333
  0
VERTEX
  8
0
 10
190.676
 20
275.74
 30
0.0
 40
0.333333
 41
0.333333
  0
VERTEX
  8
0
 10
190.715
 20
275.74
 30
0.0
 40
0.333333
 41
0.333333
  0
VERTEX
  8
0
 10
190.831
 20
275.732
 30
0.0
 40
0.333333
 41
0.333333
  0
VERTEX
  8
0
 10
190.979
 20
275.71
 30
0.0
 40
0.333333
 41
0.333333
  0
VERTEX
  8
0
 10
191.122
 20
275.672
 30
0.0
 40
0.333333
 41
0.333333
  0
VERTEX
  8
0
 10
191.261
 20
275.622
 30
0.0
 40
0.333333
 41
0.333333
  0
VERTEX
  8
0
 10
191.392
 20
275.558
 30
0.0
 40
0.333333
 41
0.333333
  0
VERTEX
  8
0
 10
191.515
 20
275.483
 30
0.0
 40
0.333333
 41
0.333333
  0
VERTEX
  8
0
 10
191.631
 20
275.397
 30
0.0
 40
0.333333
 41
0.333333
  0
VERTEX
  8
0
 10
191.737
 20
275.3
 30
0.0
 40
0.333333
 41
0.333333
  0
VERTEX
  8
0
 10
191.835
 20
275.194
 30
0.0
 40
0.333333
 41
0.333333
  0
VERTEX
  8
0
 10
191.921
 20
275.079
 30
0.0
 40
0.333333
 41
0.333333
  0
VERTEX
  8
0
 10
191.996
 20
274.956
 30
0.0
 40
0.333333
 41
0.333333
  0
VERTEX
  8
0
 10
192.058
 20
274.824
 30
0.0
 40
0.333333
 41
0.333333
  0
VERTEX
  8
0
 10
192.11
 20
274.686
 30
0.0
 40
0.333333
 41
0.333333
  0
VERTEX
  8
0
 10
192.146
 20
274.542
 30
0.0
 40
0.333333
 41
0.333333
  0
VERTEX
  8
0
 10
192.169
 20
274.393
 30
0.0
 40
0.333333
 41
0.333333
  0
VERTEX
  8
0
 10
192.176
 20
274.278
 30
0.0
 40
0.333333
 41
0.333333
  0
VERTEX
  8
0
 10
192.176
 20
274.24
 30
0.0
 40
0.333333
 41
0.333333
  0
SEQEND
 8
0
  0
POLYLINE
  8
0
 62
     0
 66
     1
 10
0
 20
0
 30
0.0
 70
     1
 40
24
 41
24
  0
VERTEX
  8
0
 10
344.576
 20
274.24
 30
0.0
 40
0.333333
 41
0.333333
  0
VERTEX
  8
0
 10
344.576
 20
274.201
 30
0.0
 40
0.333333
 41
0.333333
  0
VERTEX
  8
0
 10
344.569
 20
274.086
 30
0.0
 40
0.333333
 41
0.333333
  0
VERTEX
  8
0
 10
344.546
 20
273.938
 30
0.0
 40
0.333333
 41
0.333333
  0
VERTEX
  8
0
 10
344.51
 20
273.794
 30
0.0
 40
0.333333
 41
0.333333
  0
VERTEX
  8
0
 10
344.46
 20
273.656
 30
0.0
 40
0.333333
 41
0.333333
  0
VERTEX
  8
0
 10
344.396
 20
273.525
 30
0.0
 40
0.333333
 41
0.333333
  0
VERTEX
  8
0
 10
344.321
 20
273.401
 30
0.0
 40
0.333333
 41
0.333333
  0
VERTEX
  8
0
 10
344.235
 20
273.286
 30
0.0
 40
0.333333
 41
0.333333
  0
VERTEX
  8
0
 10
344.138
 20
273.179
 30
0.0
 40
0.333333
 41
0.333333
  0
VERTEX
  8
0
 10
344.031
 20
273.082
 30
0.0
 40
0.333333
 41
0.333333
  0
VERTEX
  8
0
 10
343.915
 20
272.996
 30
0.0
 40
0.333333
 41
0.333333
  0
VERTEX
  8
0
 10
343.792
 20
272.921
 30
0.0
 40
0.333333
 41
0.333333
  0
VERTEX
  8
0
 10
343.661
 20
272.858
 30
0.0
 40
0.333333
 41
0.333333
  0
VERTEX
  8
0
 10
343.524
 20
272.807
 30
0.0
 40
0.333333
 41
0.333333
  0
VERTEX
  8
0
 10
343.379
 20
272.771
 30
0.0
 40
0.333333
 41
0.333333
  0
VERTEX
  8
0
 10
343.231
 20
272.747
 30
0.0
 40
0.333333
 41
0.333333
  0
VERTEX
  8
0
 10
343.115
 20
272.74
 30
0.0
 40
0.333333
 41
0.333333
  0
VERTEX
  8
0
 10
343.076
 20
272.74
 30
0.0
 40
0.333333
 41
0.333333
  0
VERTEX
  8
0
 10
343.039
 20
272.74
 30
0.0
 40
0.333333
 41
0.333333
  0
VERTEX
  8
0
 10
342.924
 20
272.747
 30
0.0
 40
0.333333
 41
0.333333
  0
VERTEX
  8
0
 10
342.775
 20
272.771
 30
0.0
 40
0.333333
 41
0.333333
  0
VERTEX
  8
0
 10
342.631
 20
272.807
 30
0.0
 40
0.333333
 41
0.333333
  0
VERTEX
  8
0
 10
342.493
 20
272.858
 30
0.0
 40
0.333333
 41
0.333333
  0
VERTEX
  8
0
 10
342.362
 20
272.921
 30
0.0
 40
0.333333
 41
0.333333
  0
VERTEX
  8
0
 10
342.239
 20
272.996
 30
0.0
 40
0.333333
 41
0.333333
  0
VERTEX
  8
0
 10
342.122
 20
273.082
 30
0.0
 40
0.333333
 41
0.333333
  0
VERTEX
  8
0
 10
342.017
 20
273.179
 30
0.0
 40
0.333333
 41
0.333333
  0
VERTEX
  8
0
 10
341.919
 20
273.286
 30
0.0
 40
0.333333
 41
0.333333
  0
VERTEX
  8
0
 10
341.833
 20
273.401
 30
0.0
 40
0.333333
 41
0.333333
  0
VERTEX
  8
0
 10
341.758
 20
273.525
 30
0.0
 40
0.333333
 41
0.333333
  0
VERTEX
  8
0
 10
341.694
 20
273.656
 30
0.0
 40
0.333333
 41
0.333333
  0
VERTEX
  8
0
 10
341.644
 20
273.794
 30
0.0
 40
0.333333
 41
0.333333
  0
VERTEX
  8
0
 10
341.607
 20
273.938
 30
0.0
 40
0.333333
 41
0.333333
  0
VERTEX
  8
0
 10
341.585
 20
274.086
 30
0.0
 40
0.333333
 41
0.333333
  0
VERTEX
  8
0
 10
341.576
 20
274.201
 30
0.0
 40
0.333333
 41
0.333333
  0
VERTEX
  8
0
 10
341.576
 20
274.24
 30
0.0
 40
0.333333
 41
0.333333
  0
VERTEX
  8
0
 10
341.576
 20
274.278
 30
0.0
 40
0.333333
 41
0.333333
  0
VERTEX
  8
0
 10
341.585
 20
274.393
 30
0.0
 40
0.333333
 41
0.333333
  0
VERTEX
  8
0
 10
341.607
 20
274.542
 30
0.0
 40
0.333333
 41
0.333333
  0
VERTEX
  8
0
 10
341.644
 20
274.686
 30
0.0
 40
0.333333
 41
0.333333
  0
VERTEX
  8
0
 10
341.694
 20
274.824
 30
0.0
 40
0.333333
 41
0.333333
  0
VERTEX
  8
0
 10
341.758
 20
274.956
 30
0.0
 40
0.333333
 41
0.333333
  0
VERTEX
  8
0
 10
341.833
 20
275.079
 30
0.0
 40
0.333333
 41
0.333333
  0
VERTEX
  8
0
 10
341.919
 20
275.194
 30
0.0
 40
0.333333
 41
0.333333
  0
VERTEX
  8
0
 10
342.017
 20
275.3
 30
0.0
 40
0.333333
 41
0.333333
  0
VERTEX
  8
0
 10
342.122
 20
275.397
 30
0.0
 40
0.333333
 41
0.333333
  0
VERTEX
  8
0
 10
342.239
 20
275.483
 30
0.0
 40
0.333333
 41
0.333333
  0
VERTEX
  8
0
 10
342.362
 20
275.558
 30
0.0
 40
0.333333
 41
0.333333
  0
VERTEX
  8
0
 10
342.493
 20
275.622
 30
0.0
 40
0.333333
 41
0.333333
  0
VERTEX
  8
0
 10
342.631
 20
275.672
 30
0.0
 40
0.333333
 41
0.333333
  0
VERTEX
  8
0
 10
342.775
 20
275.71
 30
0.0
 40
0.333333
 41
0.333333
  0
VERTEX
  8
0
 10
342.924
 20
275.732
 30
0.0
 40
0.333333
 41
0.333333
  0
VERTEX
  8
0
 10
343.039
 20
275.74
 30
0.0
 40
0.333333
 41
0.333333
  0
VERTEX
  8
0
 10
343.076
 20
275.74
 30
0.0
 40
0.333333
 41
0.333333
  0
VERTEX
  8
0
 10
343.115
 20
275.74
 30
0.0
 40
0.333333
 41
0.333333
  0
VERTEX
  8
0
 10
343.231
 20
275.732
 30
0.0
 40
0.333333
 41
0.333333
  0
VERTEX
  8
0
 10
343.379
 20
275.71
 30
0.0
 40
0.333333
 41
0.333333
  0
VERTEX
  8
0
 10
343.524
 20
275.672
 30
0.0
 40
0.333333
 41
0.333333
  0
VERTEX
  8
0
 10
343.661
 20
275.622
 30
0.0
 40
0.333333
 41
0.333333
  0
VERTEX
  8
0
 10
343.792
 20
275.558
 30
0.0
 40
0.333333
 41
0.333333
  0
VERTEX
  8
0
 10
343.915
 20
275.483
 30
0.0
 40
0.333333
 41
0.333333
  0
VERTEX
  8
0
 10
344.031
 20
275.397
 30
0.0
 40
0.333333
 41
0.333333
  0
VERTEX
  8
0
 10
344.138
 20
275.3
 30
0.0
 40
0.333333
 41
0.333333
  0
VERTEX
  8
0
 10
344.235
 20
275.194
 30
0.0
 40
0.333333
 41
0.333333
  0
VERTEX
  8
0
 10
344.321
 20
275.079
 30
0.0
 40
0.333333
 41
0.333333
  0
VERTEX
  8
0
 10
344.396
 20
274.956
 30
0.0
 40
0.333333
 41
0.333333
  0
VERTEX
  8
0
 10
344.46
 20
274.824
 30
0.0
 40
0.333333
 41
0.333333
  0
VERTEX
  8
0
 10
344.51
 20
274.686
 30
0.0
 40
0.333333
 41
0.333333
  0
VERTEX
  8
0
 10
344.546
 20
274.542
 30
0.0
 40
0.333333
 41
0.333333
  0
VERTEX
  8
0
 10
344.569
 20
274.393
 30
0.0
 40
0.333333
 41
0.333333
  0
VERTEX
  8
0
 10
344.576
 20
274.278
 30
0.0
 40
0.333333
 41
0.333333
  0
VERTEX
  8
0
 10
344.576
 20
274.24
 30
0.0
 40
0.333333
 41
0.333333
  0
SEQEND
 8
0
  0
POLYLINE
  8
0
 62
     0
 66
     1
 10
0
 20
0
 30
0.0
 70
     1
 40
24
 41
24
  0
VERTEX
  8
0
 10
344.576
 20
289.99
 30
0.0
 40
0.333333
 41
0.333333
  0
VERTEX
  8
0
 10
344.576
 20
289.951
 30
0.0
 40
0.333333
 41
0.333333
  0
VERTEX
  8
0
 10
344.569
 20
289.836
 30
0.0
 40
0.333333
 41
0.333333
  0
VERTEX
  8
0
 10
344.546
 20
289.688
 30
0.0
 40
0.333333
 41
0.333333
  0
VERTEX
  8
0
 10
344.51
 20
289.544
 30
0.0
 40
0.333333
 41
0.333333
  0
VERTEX
  8
0
 10
344.46
 20
289.406
 30
0.0
 40
0.333333
 41
0.333333
  0
VERTEX
  8
0
 10
344.396
 20
289.275
 30
0.0
 40
0.333333
 41
0.333333
  0
VERTEX
  8
0
 10
344.321
 20
289.151
 30
0.0
 40
0.333333
 41
0.333333
  0
VERTEX
  8
0
 10
344.235
 20
289.036
 30
0.0
 40
0.333333
 41
0.333333
  0
VERTEX
  8
0
 10
344.138
 20
288.929
 30
0.0
 40
0.333333
 41
0.333333
  0
VERTEX
  8
0
 10
344.031
 20
288.832
 30
0.0
 40
0.333333
 41
0.333333
  0
VERTEX
  8
0
 10
343.915
 20
288.746
 30
0.0
 40
0.333333
 41
0.333333
  0
VERTEX
  8
0
 10
343.792
 20
288.671
 30
0.0
 40
0.333333
 41
0.333333
  0
VERTEX
  8
0
 10
343.661
 20
288.608
 30
0.0
 40
0.333333
 41
0.333333
  0
VERTEX
  8
0
 10
343.524
 20
288.557
 30
0.0
 40
0.333333
 41
0.333333
  0
VERTEX
  8
0
 10
343.379
 20
288.521
 30
0.0
 40
0.333333
 41
0.333333
  0
VERTEX
  8
0
 10
343.231
 20
288.497
 30
0.0
 40
0.333333
 41
0.333333
  0
VERTEX
  8
0
 10
343.115
 20
288.49
 30
0.0
 40
0.333333
 41
0.333333
  0
VERTEX
  8
0
 10
343.076
 20
288.49
 30
0.0
 40
0.333333
 41
0.333333
  0
VERTEX
  8
0
 10
343.039
 20
288.49
 30
0.0
 40
0.333333
 41
0.333333
  0
VERTEX
  8
0
 10
342.924
 20
288.497
 30
0.0
 40
0.333333
 41
0.333333
  0
VERTEX
  8
0
 10
342.775
 20
288.521
 30
0.0
 40
0.333333
 41
0.333333
  0
VERTEX
  8
0
 10
342.631
 20
288.557
 30
0.0
 40
0.333333
 41
0.333333
  0
VERTEX
  8
0
 10
342.493
 20
288.608
 30
0.0
 40
0.333333
 41
0.333333
  0
VERTEX
  8
0
 10
342.362
 20
288.671
 30
0.0
 40
0.333333
 41
0.333333
  0
VERTEX
  8
0
 10
342.239
 20
288.746
 30
0.0
 40
0.333333
 41
0.333333
  0
VERTEX
  8
0
 10
342.122
 20
288.832
 30
0.0
 40
0.333333
 41
0.333333
  0
VERTEX
  8
0
 10
342.017
 20
288.929
 30
0.0
 40
0.333333
 41
0.333333
  0
VERTEX
  8
0
 10
341.919
 20
289.036
 30
0.0
 40
0.333333
 41
0.333333
  0
VERTEX
  8
0
 10
341.833
 20
289.151
 30
0.0
 40
0.333333
 41
0.333333
  0
VERTEX
  8
0
 10
341.758
 20
289.275
 30
0.0
 40
0.333333
 41
0.333333
  0
VERTEX
  8
0
 10
341.694
 20
289.406
 30
0.0
 40
0.333333
 41
0.333333
  0
VERTEX
  8
0
 10
341.644
 20
289.544
 30
0.0
 40
0.333333
 41
0.333333
  0
VERTEX
  8
0
 10
341.607
 20
289.688
 30
0.0
 40
0.333333
 41
0.333333
  0
VERTEX
  8
0
 10
341.585
 20
289.836
 30
0.0
 40
0.333333
 41
0.333333
  0
VERTEX
  8
0
 10
341.576
 20
289.951
 30
0.0
 40
0.333333
 41
0.333333
  0
VERTEX
  8
0
 10
341.576
 20
289.99
 30
0.0
 40
0.333333
 41
0.333333
  0
VERTEX
  8
0
 10
341.576
 20
290.028
 30
0.0
 40
0.333333
 41
0.333333
  0
VERTEX
  8
0
 10
341.585
 20
290.143
 30
0.0
 40
0.333333
 41
0.333333
  0
VERTEX
  8
0
 10
341.607
 20
290.292
 30
0.0
 40
0.333333
 41
0.333333
  0
VERTEX
  8
0
 10
341.644
 20
290.436
 30
0.0
 40
0.333333
 41
0.333333
  0
VERTEX
  8
0
 10
341.694
 20
290.574
 30
0.0
 40
0.333333
 41
0.333333
  0
VERTEX
  8
0
 10
341.758
 20
290.706
 30
0.0
 40
0.333333
 41
0.333333
  0
VERTEX
  8
0
 10
341.833
 20
290.829
 30
0.0
 40
0.333333
 41
0.333333
  0
VERTEX
  8
0
 10
341.919
 20
290.944
 30
0.0
 40
0.333333
 41
0.333333
  0
VERTEX
  8
0
 10
342.017
 20
291.05
 30
0.0
 40
0.333333
 41
0.333333
  0
VERTEX
  8
0
 10
342.122
 20
291.147
 30
0.0
 40
0.333333
 41
0.333333
  0
VERTEX
  8
0
 10
342.239
 20
291.233
 30
0.0
 40
0.333333
 41
0.333333
  0
VERTEX
  8
0
 10
342.362
 20
291.308
 30
0.0
 40
0.333333
 41
0.333333
  0
VERTEX
  8
0
 10
342.493
 20
291.372
 30
0.0
 40
0.333333
 41
0.333333
  0
VERTEX
  8
0
 10
342.631
 20
291.422
 30
0.0
 40
0.333333
 41
0.333333
  0
VERTEX
  8
0
 10
342.775
 20
291.46
 30
0.0
 40
0.333333
 41
0.333333
  0
VERTEX
  8
0
 10
342.924
 20
291.482
 30
0.0
 40
0.333333
 41
0.333333
  0
VERTEX
  8
0
 10
343.039
 20
291.49
 30
0.0
 40
0.333333
 41
0.333333
  0
VERTEX
  8
0
 10
343.076
 20
291.49
 30
0.0
 40
0.333333
 41
0.333333
  0
VERTEX
  8
0
 10
343.115
 20
291.49
 30
0.0
 40
0.333333
 41
0.333333
  0
VERTEX
  8
0
 10
343.231
 20
291.482
 30
0.0
 40
0.333333
 41
0.333333
  0
VERTEX
  8
0
 10
343.379
 20
291.46
 30
0.0
 40
0.333333
 41
0.333333
  0
VERTEX
  8
0
 10
343.524
 20
291.422
 30
0.0
 40
0.333333
 41
0.333333
  0
VERTEX
  8
0
 10
343.661
 20
291.372
 30
0.0
 40
0.333333
 41
0.333333
  0
VERTEX
  8
0
 10
343.792
 20
291.308
 30
0.0
 40
0.333333
 41
0.333333
  0
VERTEX
  8
0
 10
343.915
 20
291.233
 30
0.0
 40
0.333333
 41
0.333333
  0
VERTEX
  8
0
 10
344.031
 20
291.147
 30
0.0
 40
0.333333
 41
0.333333
  0
VERTEX
  8
0
 10
344.138
 20
291.05
 30
0.0
 40
0.333333
 41
0.333333
  0
VERTEX
  8
0
 10
344.235
 20
290.944
 30
0.0
 40
0.333333
 41
0.333333
  0
VERTEX
  8
0
 10
344.321
 20
290.829
 30
0.0
 40
0.333333
 41
0.333333
  0
VERTEX
  8
0
 10
344.396
 20
290.706
 30
0.0
 40
0.333333
 41
0.333333
  0
VERTEX
  8
0
 10
344.46
 20
290.574
 30
0.0
 40
0.333333
 41
0.333333
  0
VERTEX
  8
0
 10
344.51
 20
290.436
 30
0.0
 40
0.333333
 41
0.333333
  0
VERTEX
  8
0
 10
344.546
 20
290.292
 30
0.0
 40
0.333333
 41
0.333333
  0
VERTEX
  8
0
 10
344.569
 20
290.143
 30
0.0
 40
0.333333
 41
0.333333
  0
VERTEX
  8
0
 10
344.576
 20
290.028
 30
0.0
 40
0.333333
 41
0.333333
  0
VERTEX
  8
0
 10
344.576
 20
289.99
 30
0.0
 40
0.333333
 41
0.333333
  0
SEQEND
 8
0
  0
POLYLINE
  8
0
 62
     0
 66
     1
 10
0
 20
0
 30
0.0
 70
     1
 40
24
 41
24
  0
VERTEX
  8
0
 10
192.176
 20
289.99
 30
0.0
 40
0.333333
 41
0.333333
  0
VERTEX
  8
0
 10
192.176
 20
289.951
 30
0.0
 40
0.333333
 41
0.333333
  0
VERTEX
  8
0
 10
192.169
 20
289.836
 30
0.0
 40
0.333333
 41
0.333333
  0
VERTEX
  8
0
 10
192.146
 20
289.688
 30
0.0
 40
0.333333
 41
0.333333
  0
VERTEX
  8
0
 10
192.11
 20
289.544
 30
0.0
 40
0.333333
 41
0.333333
  0
VERTEX
  8
0
 10
192.058
 20
289.406
 30
0.0
 40
0.333333
 41
0.333333
  0
VERTEX
  8
0
 10
191.996
 20
289.275
 30
0.0
 40
0.333333
 41
0.333333
  0
VERTEX
  8
0
 10
191.921
 20
289.151
 30
0.0
 40
0.333333
 41
0.333333
  0
VERTEX
  8
0
 10
191.835
 20
289.036
 30
0.0
 40
0.333333
 41
0.333333
  0
VERTEX
  8
0
 10
191.737
 20
288.929
 30
0.0
 40
0.333333
 41
0.333333
  0
VERTEX
  8
0
 10
191.631
 20
288.832
 30
0.0
 40
0.333333
 41
0.333333
  0
VERTEX
  8
0
 10
191.515
 20
288.746
 30
0.0
 40
0.333333
 41
0.333333
  0
VERTEX
  8
0
 10
191.392
 20
288.671
 30
0.0
 40
0.333333
 41
0.333333
  0
VERTEX
  8
0
 10
191.261
 20
288.608
 30
0.0
 40
0.333333
 41
0.333333
  0
VERTEX
  8
0
 10
191.122
 20
288.557
 30
0.0
 40
0.333333
 41
0.333333
  0
VERTEX
  8
0
 10
190.979
 20
288.521
 30
0.0
 40
0.333333
 41
0.333333
  0
VERTEX
  8
0
 10
190.831
 20
288.497
 30
0.0
 40
0.333333
 41
0.333333
  0
VERTEX
  8
0
 10
190.715
 20
288.49
 30
0.0
 40
0.333333
 41
0.333333
  0
VERTEX
  8
0
 10
190.676
 20
288.49
 30
0.0
 40
0.333333
 41
0.333333
  0
VERTEX
  8
0
 10
190.639
 20
288.49
 30
0.0
 40
0.333333
 41
0.333333
  0
VERTEX
  8
0
 10
190.524
 20
288.497
 30
0.0
 40
0.333333
 41
0.333333
  0
VERTEX
  8
0
 10
190.375
 20
288.521
 30
0.0
 40
0.333333
 41
0.333333
  0
VERTEX
  8
0
 10
190.231
 20
288.557
 30
0.0
 40
0.333333
 41
0.333333
  0
VERTEX
  8
0
 10
190.093
 20
288.608
 30
0.0
 40
0.333333
 41
0.333333
  0
VERTEX
  8
0
 10
189.961
 20
288.671
 30
0.0
 40
0.333333
 41
0.333333
  0
VERTEX
  8
0
 10
189.837
 20
288.746
 30
0.0
 40
0.333333
 41
0.333333
  0
VERTEX
  8
0
 10
189.722
 20
288.832
 30
0.0
 40
0.333333
 41
0.333333
  0
VERTEX
  8
0
 10
189.617
 20
288.929
 30
0.0
 40
0.333333
 41
0.333333
  0
VERTEX
  8
0
 10
189.519
 20
289.036
 30
0.0
 40
0.333333
 41
0.333333
  0
VERTEX
  8
0
 10
189.433
 20
289.151
 30
0.0
 40
0.333333
 41
0.333333
  0
VERTEX
  8
0
 10
189.358
 20
289.275
 30
0.0
 40
0.333333
 41
0.333333
  0
VERTEX
  8
0
 10
189.294
 20
289.406
 30
0.0
 40
0.333333
 41
0.333333
  0
VERTEX
  8
0
 10
189.244
 20
289.544
 30
0.0
 40
0.333333
 41
0.333333
  0
VERTEX
  8
0
 10
189.207
 20
289.688
 30
0.0
 40
0.333333
 41
0.333333
  0
VERTEX
  8
0
 10
189.185
 20
289.836
 30
0.0
 40
0.333333
 41
0.333333
  0
VERTEX
  8
0
 10
189.176
 20
289.951
 30
0.0
 40
0.333333
 41
0.333333
  0
VERTEX
  8
0
 10
189.176
 20
289.99
 30
0.0
 40
0.333333
 41
0.333333
  0
VERTEX
  8
0
 10
189.176
 20
290.028
 30
0.0
 40
0.333333
 41
0.333333
  0
VERTEX
  8
0
 10
189.185
 20
290.143
 30
0.0
 40
0.333333
 41
0.333333
  0
VERTEX
  8
0
 10
189.207
 20
290.292
 30
0.0
 40
0.333333
 41
0.333333
  0
VERTEX
  8
0
 10
189.244
 20
290.436
 30
0.0
 40
0.333333
 41
0.333333
  0
VERTEX
  8
0
 10
189.294
 20
290.574
 30
0.0
 40
0.333333
 41
0.333333
  0
VERTEX
  8
0
 10
189.358
 20
290.706
 30
0.0
 40
0.333333
 41
0.333333
  0
VERTEX
  8
0
 10
189.433
 20
290.829
 30
0.0
 40
0.333333
 41
0.333333
  0
VERTEX
  8
0
 10
189.519
 20
290.944
 30
0.0
 40
0.333333
 41
0.333333
  0
VERTEX
  8
0
 10
189.617
 20
291.05
 30
0.0
 40
0.333333
 41
0.333333
  0
VERTEX
  8
0
 10
189.722
 20
291.147
 30
0.0
 40
0.333333
 41
0.333333
  0
VERTEX
  8
0
 10
189.837
 20
291.233
 30
0.0
 40
0.333333
 41
0.333333
  0
VERTEX
  8
0
 10
189.961
 20
291.308
 30
0.0
 40
0.333333
 41
0.333333
  0
VERTEX
  8
0
 10
190.093
 20
291.372
 30
0.0
 40
0.333333
 41
0.333333
  0
VERTEX
  8
0
 10
190.231
 20
291.422
 30
0.0
 40
0.333333
 41
0.333333
  0
VERTEX
  8
0
 10
190.375
 20
291.46
 30
0.0
 40
0.333333
 41
0.333333
  0
VERTEX
  8
0
 10
190.524
 20
291.482
 30
0.0
 40
0.333333
 41
0.333333
  0
VERTEX
  8
0
 10
190.639
 20
291.49
 30
0.0
 40
0.333333
 41
0.333333
  0
VERTEX
  8
0
 10
190.676
 20
291.49
 30
0.0
 40
0.333333
 41
0.333333
  0
VERTEX
  8
0
 10
190.715
 20
291.49
 30
0.0
 40
0.333333
 41
0.333333
  0
VERTEX
  8
0
 10
190.831
 20
291.482
 30
0.0
 40
0.333333
 41
0.333333
  0
VERTEX
  8
0
 10
190.979
 20
291.46
 30
0.0
 40
0.333333
 41
0.333333
  0
VERTEX
  8
0
 10
191.122
 20
291.422
 30
0.0
 40
0.333333
 41
0.333333
  0
VERTEX
  8
0
 10
191.261
 20
291.372
 30
0.0
 40
0.333333
 41
0.333333
  0
VERTEX
  8
0
 10
191.392
 20
291.308
 30
0.0
 40
0.333333
 41
0.333333
  0
VERTEX
  8
0
 10
191.515
 20
291.233
 30
0.0
 40
0.333333
 41
0.333333
  0
VERTEX
  8
0
 10
191.631
 20
291.147
 30
0.0
 40
0.333333
 41
0.333333
  0
VERTEX
  8
0
 10
191.737
 20
291.05
 30
0.0
 40
0.333333
 41
0.333333
  0
VERTEX
  8
0
 10
191.835
 20
290.944
 30
0.0
 40
0.333333
 41
0.333333
  0
VERTEX
  8
0
 10
191.921
 20
290.829
 30
0.0
 40
0.333333
 41
0.333333
  0
VERTEX
  8
0
 10
191.996
 20
290.706
 30
0.0
 40
0.333333
 41
0.333333
  0
VERTEX
  8
0
 10
192.058
 20
290.574
 30
0.0
 40
0.333333
 41
0.333333
  0
VERTEX
  8
0
 10
192.11
 20
290.436
 30
0.0
 40
0.333333
 41
0.333333
  0
VERTEX
  8
0
 10
192.146
 20
290.292
 30
0.0
 40
0.333333
 41
0.333333
  0
VERTEX
  8
0
 10
192.169
 20
290.143
 30
0.0
 40
0.333333
 41
0.333333
  0
VERTEX
  8
0
 10
192.176
 20
290.028
 30
0.0
 40
0.333333
 41
0.333333
  0
VERTEX
  8
0
 10
192.176
 20
289.99
 30
0.0
 40
0.333333
 41
0.333333
  0
SEQEND
 8
0
  0
POLYLINE
  8
0
 62
     0
 66
     1
 10
0
 20
0
 30
0.0
 70
     1
 40
25.4
 41
25.4
  0
VERTEX
  8
0
 10
0.176378
 20
495.49
 30
0.0
 40
0.352778
 41
0.352778
  0
VERTEX
  8
0
 10
774.878
 20
495.49
 30
0.0
 40
0.352778
 41
0.352778
  0
VERTEX
  8
0
 10
774.878
 20
304.99
 30
0.0
 40
0.352778
 41
0.352778
  0
VERTEX
  8
0
 10
0.176378
 20
304.99
 30
0.0
 40
0.352778
 41
0.352778
  0
VERTEX
  8
0
 10
0.176378
 20
495.49
 30
0.0
 40
0.352778
 41
0.352778
  0
SEQEND
 8
0
  0
POLYLINE
  8
0
 62
     0
 66
     1
 10
0
 20
0
 30
0.0
 40
25.4
 41
25.4
  0
VERTEX
  8
0
 10
0.176378
 20
304.99
 30
0.0
 40
0.352778
 41
0.352778
  0
VERTEX
  8
0
 10
0.176378
 20
0.189507
 30
0.0
 40
0.352778
 41
0.352778
  0
VERTEX
  8
0
 10
177.976
 20
0.189507
 30
0.0
 40
0.352778
 41
0.352778
  0
VERTEX
  8
0
 10
177.976
 20
304.99
 30
0.0
 40
0.352778
 41
0.352778
  0
SEQEND
 8
0
  0
POLYLINE
  8
0
 62
     0
 66
     1
 10
0
 20
0
 30
0.0
 40
25.4
 41
25.4
  0
VERTEX
  8
0
 10
93.0453
 20
304.99
 30
0.0
 40
0.352778
 41
0.352778
  0
VERTEX
  8
0
 10
93.0453
 20
76.3896
 30
0.0
 40
0.352778
 41
0.352778
  0
VERTEX
  8
0
 10
85.1078
 20
76.3896
 30
0.0
 40
0.352778
 41
0.352778
  0
VERTEX
  8
0
 10
85.1078
 20
304.99
 30
0.0
 40
0.352778
 41
0.352778
  0
SEQEND
 8
0
  0
POLYLINE
  8
0
 62
     0
 66
     1
 10
0
 20
0
 30
0.0
 40
25.4
 41
25.4
  0
VERTEX
  8
0
 10
177.976
 20
0.189507
 30
0.0
 40
0.352778
 41
0.352778
  0
VERTEX
  8
0
 10
355.776
 20
0.189507
 30
0.0
 40
0.352778
 41
0.352778
  0
VERTEX
  8
0
 10
355.776
 20
304.99
 30
0.0
 40
0.352778
 41
0.352778
  0
SEQEND
 8
0
  0
POLYLINE
  8
0
 62
     0
 66
     1
 10
0
 20
0
 30
0.0
 40
25.4
 41
25.4
  0
VERTEX
  8
0
 10
270.846
 20
304.99
 30
0.0
 40
0.352778
 41
0.352778
  0
VERTEX
  8
0
 10
270.846
 20
76.3896
 30
0.0
 40
0.352778
 41
0.352778
  0
VERTEX
  8
0
 10
262.908
 20
76.3896
 30
0.0
 40
0.352778
 41
0.352778
  0
VERTEX
  8
0
 10
262.908
 20
304.99
 30
0.0
 40
0.352778
 41
0.352778
  0
SEQEND
 8
0
  0
POLYLINE
  8
0
 62
     0
 66
     1
 10
0
 20
0
 30
0.0
 40
25.4
 41
25.4
  0
VERTEX
  8
0
 10
416.101
 20
209.74
 30
0.0
 40
0.352778
 41
0.352778
  0
VERTEX
  8
0
 10
409.751
 20
209.74
 30
0.0
 40
0.352778
 41
0.352778
  0
VERTEX
  8
0
 10
409.751
 20
177.99
 30
0.0
 40
0.352778
 41
0.352778
  0
VERTEX
  8
0
 10
416.101
 20
177.99
 30
0.0
 40
0.352778
 41
0.352778
  0
VERTEX
  8
0
 10
416.101
 20
114.49
 30
0.0
 40
0.352778
 41
0.352778
  0
SEQEND
 8
0
  0
POLYLINE
  8
0
 62
     0
 66
     1
 10
0
 20
0
 30
0.0
 40
25.4
 41
25.4
  0
VERTEX
  8
0
 10
416.101
 20
273.24
 30
0.0
 40
0.352778
 41
0.352778
  0
VERTEX
  8
0
 10
409.751
 20
273.24
 30
0.0
 40
0.352778
 41
0.352778
  0
VERTEX
  8
0
 10
409.751
 20
241.49
 30
0.0
 40
0.352778
 41
0.352778
  0
VERTEX
  8
0
 10
416.101
 20
241.49
 30
0.0
 40
0.352778
 41
0.352778
  0
VERTEX
  8
0
 10
416.101
 20
177.99
 30
0.0
 40
0.352778
 41
0.352778
  0
SEQEND
 8
0
  0
POLYLINE
  8
0
 62
     0
 66
     1
 10
0
 20
0
 30
0.0
 40
25.4
 41
25.4
  0
VERTEX
  8
0
 10
355.776
 20
254.19
 30
0.0
 40
0.352778
 41
0.352778
  0
VERTEX
  8
0
 10
409.751
 20
304.99
 30
0.0
 40
0.352778
 41
0.352778
  0
VERTEX
  8
0
 10
416.101
 20
304.99
 30
0.0
 40
0.352778
 41
0.352778
  0
VERTEX
  8
0
 10
416.101
 20
241.49
 30
0.0
 40
0.352778
 41
0.352778
  0
SEQEND
 8
0
  0
POLYLINE
  8
0
 62
     0
 66
     1
 10
0
 20
0
 30
0.0
 40
25.4
 41
25.4
  0
VERTEX
  8
0
 10
416.101
 20
82.7396
 30
0.0
 40
0.352778
 41
0.352778
  0
VERTEX
  8
0
 10
409.751
 20
82.7396
 30
0.0
 40
0.352778
 41
0.352778
  0
VERTEX
  8
0
 10
409.751
 20
50.9896
 30
0.0
 40
0.352778
 41
0.352778
  0
VERTEX
  8
0
 10
355.776
 20
50.9896
 30
0.0
 40
0.352778
 41
0.352778
  0
SEQEND
 8
0
  0
POLYLINE
  8
0
 62
     0
 66
     1
 10
0
 20
0
 30
0.0
 40
25.4
 41
25.4
  0
VERTEX
  8
0
 10
416.101
 20
146.24
 30
0.0
 40
0.352778
 41
0.352778
  0
VERTEX
  8
0
 10
409.751
 20
146.24
 30
0.0
 40
0.352778
 41
0.352778
  0
VERTEX
  8
0
 10
409.751
 20
114.49
 30
0.0
 40
0.352778
 41
0.352778
  0
VERTEX
  8
0
 10
416.101
 20
114.49
 30
0.0
 40
0.352778
 41
0.352778
  0
VERTEX
  8
0
 10
416.101
 20
50.9896
 30
0.0
 40
0.352778
 41
0.352778
  0
SEQEND
 8
0
  0
POLYLINE
  8
0
 62
     0
 66
     1
 10
0
 20
0
 30
0.0
 40
25.4
 41
25.4
  0
VERTEX
  8
0
 10
416.101
 20
146.24
 30
0.0
 40
0.352778
 41
0.352778
  0
VERTEX
  8
0
 10
422.451
 20
146.24
 30
0.0
 40
0.352778
 41
0.352778
  0
VERTEX
  8
0
 10
422.451
 20
177.99
 30
0.0
 40
0.352778
 41
0.352778
  0
VERTEX
  8
0
 10
416.101
 20
177.99
 30
0.0
 40
0.352778
 41
0.352778
  0
SEQEND
 8
0
  0
POLYLINE
  8
0
 62
     0
 66
     1
 10
0
 20
0
 30
0.0
 40
25.4
 41
25.4
  0
VERTEX
  8
0
 10
416.101
 20
114.49
 30
0.0
 40
0.352778
 41
0.352778
  0
VERTEX
  8
0
 10
422.451
 20
114.49
 30
0.0
 40
0.352778
 41
0.352778
  0
VERTEX
  8
0
 10
422.451
 20
82.7396
 30
0.0
 40
0.352778
 41
0.352778
  0
VERTEX
  8
0
 10
416.101
 20
82.7396
 30
0.0
 40
0.352778
 41
0.352778
  0
SEQEND
 8
0
  0
POLYLINE
  8
0
 62
     0
 66
     1
 10
0
 20
0
 30
0.0
 40
25.4
 41
25.4
  0
VERTEX
  8
0
 10
422.451
 20
50.9896
 30
0.0
 40
0.352778
 41
0.352778
  0
VERTEX
  8
0
 10
476.428
 20
101.79
 30
0.0
 40
0.352778
 41
0.352778
  0
VERTEX
  8
0
 10
476.428
 20
304.99
 30
0.0
 40
0.352778
 41
0.352778
  0
SEQEND
 8
0
  0
POLYLINE
  8
0
 62
     0
 66
     1
 10
0
 20
0
 30
0.0
 40
25.4
 41
25.4
  0
VERTEX
  8
0
 10
422.451
 20
304.99
 30
0.0
 40
0.352778
 41
0.352778
  0
VERTEX
  8
0
 10
422.451
 20
273.24
 30
0.0
 40
0.352778
 41
0.352778
  0
VERTEX
  8
0
 10
416.101
 20
273.24
 30
0.0
 40
0.352778
 41
0.352778
  0
SEQEND
 8
0
  0
POLYLINE
  8
0
 62
     0
 66
     1
 10
0
 20
0
 30
0.0
 40
25.4
 41
25.4
  0
VERTEX
  8
0
 10
416.101
 20
241.49
 30
0.0
 40
0.352778
 41
0.352778
  0
VERTEX
  8
0
 10
422.451
 20
241.49
 30
0.0
 40
0.352778
 41
0.352778
  0
VERTEX
  8
0
 10
422.451
 20
209.74
 30
0.0
 40
0.352778
 41
0.352778
  0
VERTEX
  8
0
 10
416.101
 20
209.74
 30
0.0
 40
0.352778
 41
0.352778
  0
SEQEND
 8
0
  0
POLYLINE
  8
0
 62
     0
 66
     1
 10
0
 20
0
 30
0.0
 40
25.4
 41
25.4
  0
VERTEX
  8
0
 10
476.428
 20
146.24
 30
0.0
 40
0.352778
 41
0.352778
  0
VERTEX
  8
0
 10
482.778
 20
146.24
 30
0.0
 40
0.352778
 41
0.352778
  0
VERTEX
  8
0
 10
482.778
 20
177.99
 30
0.0
 40
0.352778
 41
0.352778
  0
VERTEX
  8
0
 10
476.428
 20
177.99
 30
0.0
 40
0.352778
 41
0.352778
  0
SEQEND
 8
0
  0
POLYLINE
  8
0
 62
     0
 66
     1
 10
0
 20
0
 30
0.0
 40
25.4
 41
25.4
  0
VERTEX
  8
0
 10
476.428
 20
114.49
 30
0.0
 40
0.352778
 41
0.352778
  0
VERTEX
  8
0
 10
482.778
 20
114.49
 30
0.0
 40
0.352778
 41
0.352778
  0
VERTEX
  8
0
 10
482.778
 20
82.7396
 30
0.0
 40
0.352778
 41
0.352778
  0
VERTEX
  8
0
 10
476.428
 20
82.7396
 30
0.0
 40
0.352778
 41
0.352778
  0
VERTEX
  8
0
 10
476.428
 20
50.9896
 30
0.0
 40
0.352778
 41
0.352778
  0
SEQEND
 8
0
  0
POLYLINE
  8
0
 62
     0
 66
     1
 10
0
 20
0
 30
0.0
 40
25.4
 41
25.4
  0
VERTEX
  8
0
 10
482.778
 20
50.9896
 30
0.0
 40
0.352778
 41
0.352778
  0
VERTEX
  8
0
 10
536.753
 20
101.79
 30
0.0
 40
0.352778
 41
0.352778
  0
VERTEX
  8
0
 10
536.753
 20
304.99
 30
0.0
 40
0.352778
 41
0.352778
  0
SEQEND
 8
0
  0
POLYLINE
  8
0
 62
     0
 66
     1
 10
0
 20
0
 30
0.0
 40
25.4
 41
25.4
  0
VERTEX
  8
0
 10
482.778
 20
304.99
 30
0.0
 40
0.352778
 41
0.352778
  0
VERTEX
  8
0
 10
482.778
 20
273.24
 30
0.0
 40
0.352778
 41
0.352778
  0
VERTEX
  8
0
 10
476.428
 20
273.24
 30
0.0
 40
0.352778
 41
0.352778
  0
SEQEND
 8
0
  0
POLYLINE
  8
0
 62
     0
 66
     1
 10
0
 20
0
 30
0.0
 40
25.4
 41
25.4
  0
VERTEX
  8
0
 10
476.428
 20
241.49
 30
0.0
 40
0.352778
 41
0.352778
  0
VERTEX
  8
0
 10
482.778
 20
241.49
 30
0.0
 40
0.352778
 41
0.352778
  0
VERTEX
  8
0
 10
482.778
 20
209.74
 30
0.0
 40
0.352778
 41
0.352778
  0
VERTEX
  8
0
 10
476.428
 20
209.74
 30
0.0
 40
0.352778
 41
0.352778
  0
SEQEND
 8
0
  0
POLYLINE
  8
0
 62
     0
 66
     1
 10
0
 20
0
 30
0.0
 40
25.4
 41
25.4
  0
VERTEX
  8
0
 10
536.753
 20
146.24
 30
0.0
 40
0.352778
 41
0.352778
  0
VERTEX
  8
0
 10
543.103
 20
146.24
 30
0.0
 40
0.352778
 41
0.352778
  0
VERTEX
  8
0
 10
543.103
 20
177.99
 30
0.0
 40
0.352778
 41
0.352778
  0
VERTEX
  8
0
 10
536.753
 20
177.99
 30
0.0
 40
0.352778
 41
0.352778
  0
SEQEND
 8
0
  0
POLYLINE
  8
0
 62
     0
 66
     1
 10
0
 20
0
 30
0.0
 40
25.4
 41
25.4
  0
VERTEX
  8
0
 10
536.753
 20
114.49
 30
0.0
 40
0.352778
 41
0.352778
  0
VERTEX
  8
0
 10
543.103
 20
114.49
 30
0.0
 40
0.352778
 41
0.352778
  0
VERTEX
  8
0
 10
543.103
 20
82.7396
 30
0.0
 40
0.352778
 41
0.352778
  0
VERTEX
  8
0
 10
536.753
 20
82.7396
 30
0.0
 40
0.352778
 41
0.352778
  0
VERTEX
  8
0
 10
536.753
 20
50.9896
 30
0.0
 40
0.352778
 41
0.352778
  0
SEQEND
 8
0
  0
POLYLINE
  8
0
 62
     0
 66
     1
 10
0
 20
0
 30
0.0
 40
25.4
 41
25.4
  0
VERTEX
  8
0
 10
543.103
 20
50.9896
 30
0.0
 40
0.352778
 41
0.352778
  0
VERTEX
  8
0
 10
597.078
 20
101.79
 30
0.0
 40
0.352778
 41
0.352778
  0
VERTEX
  8
0
 10
597.078
 20
304.99
 30
0.0
 40
0.352778
 41
0.352778
  0
SEQEND
 8
0
  0
POLYLINE
  8
0
 62
     0
 66
     1
 10
0
 20
0
 30
0.0
 40
25.4
 41
25.4
  0
VERTEX
  8
0
 10
543.103
 20
304.99
 30
0.0
 40
0.352778
 41
0.352778
  0
VERTEX
  8
0
 10
543.103
 20
273.24
 30
0.0
 40
0.352778
 41
0.352778
  0
VERTEX
  8
0
 10
536.753
 20
273.24
 30
0.0
 40
0.352778
 41
0.352778
  0
SEQEND
 8
0
  0
POLYLINE
  8
0
 62
     0
 66
     1
 10
0
 20
0
 30
0.0
 40
25.4
 41
25.4
  0
VERTEX
  8
0
 10
536.753
 20
241.49
 30
0.0
 40
0.352778
 41
0.352778
  0
VERTEX
  8
0
 10
543.103
 20
241.49
 30
0.0
 40
0.352778
 41
0.352778
  0
VERTEX
  8
0
 10
543.103
 20
209.74
 30
0.0
 40
0.352778
 41
0.352778
  0
VERTEX
  8
0
 10
536.753
 20
209.74
 30
0.0
 40
0.352778
 41
0.352778
  0
SEQEND
 8
0
  0
POLYLINE
  8
0
 62
     0
 66
     1
 10
0
 20
0
 30
0.0
 40
25.4
 41
25.4
  0
VERTEX
  8
0
 10
629.688
 20
130.818
 30
0.0
 40
0.352778
 41
0.352778
  0
VERTEX
  8
0
 10
629.688
 20
101.79
 30
0.0
 40
0.352778
 41
0.352778
  0
VERTEX
  8
0
 10
597.078
 20
101.79
 30
0.0
 40
0.352778
 41
0.352778
  0
SEQEND
 8
0
  0
POLYLINE
  8
0
 62
     0
 66
     1
 10
0
 20
0
 30
0.0
 40
25.4
 41
25.4
  0
VERTEX
  8
0
 10
629.688
 20
188.875
 30
0.0
 40
0.352778
 41
0.352778
  0
VERTEX
  8
0
 10
629.688
 20
159.847
 30
0.0
 40
0.352778
 41
0.352778
  0
VERTEX
  8
0
 10
623.338
 20
159.847
 30
0.0
 40
0.352778
 41
0.352778
  0
VERTEX
  8
0
 10
623.338
 20
130.818
 30
0.0
 40
0.352778
 41
0.352778
  0
VERTEX
  8
0
 10
636.037
 20
130.818
 30
0.0
 40
0.352778
 41
0.352778
  0
SEQEND
 8
0
  0
POLYLINE
  8
0
 62
     0
 66
     1
 10
0
 20
0
 30
0.0
 40
25.4
 41
25.4
  0
VERTEX
  8
0
 10
629.688
 20
246.933
 30
0.0
 40
0.352778
 41
0.352778
  0
VERTEX
  8
0
 10
629.688
 20
217.904
 30
0.0
 40
0.352778
 41
0.352778
  0
VERTEX
  8
0
 10
623.338
 20
217.904
 30
0.0
 40
0.352778
 41
0.352778
  0
VERTEX
  8
0
 10
623.338
 20
188.875
 30
0.0
 40
0.352778
 41
0.352778
  0
VERTEX
  8
0
 10
636.037
 20
188.875
 30
0.0
 40
0.352778
 41
0.352778
  0
SEQEND
 8
0
  0
POLYLINE
  8
0
 62
     0
 66
     1
 10
0
 20
0
 30
0.0
 40
25.4
 41
25.4
  0
VERTEX
  8
0
 10
629.688
 20
304.99
 30
0.0
 40
0.352778
 41
0.352778
  0
VERTEX
  8
0
 10
629.688
 20
275.961
 30
0.0
 40
0.352778
 41
0.352778
  0
VERTEX
  8
0
 10
623.338
 20
275.961
 30
0.0
 40
0.352778
 41
0.352778
  0
VERTEX
  8
0
 10
623.338
 20
246.933
 30
0.0
 40
0.352778
 41
0.352778
  0
VERTEX
  8
0
 10
636.037
 20
246.933
 30
0.0
 40
0.352778
 41
0.352778
  0
SEQEND
 8
0
  0
POLYLINE
  8
0
 62
     0
 66
     1
 10
0
 20
0
 30
0.0
 40
25.4
 41
25.4
  0
VERTEX
  8
0
 10
629.688
 20
275.961
 30
0.0
 40
0.352778
 41
0.352778
  0
VERTEX
  8
0
 10
636.037
 20
275.961
 30
0.0
 40
0.352778
 41
0.352778
  0
VERTEX
  8
0
 10
636.037
 20
246.933
 30
0.0
 40
0.352778
 41
0.352778
  0
SEQEND
 8
0
  0
POLYLINE
  8
0
 62
     0
 66
     1
 10
0
 20
0
 30
0.0
 40
25.4
 41
25.4
  0
VERTEX
  8
0
 10
629.688
 20
217.904
 30
0.0
 40
0.352778
 41
0.352778
  0
VERTEX
  8
0
 10
636.037
 20
217.904
 30
0.0
 40
0.352778
 41
0.352778
  0
VERTEX
  8
0
 10
636.037
 20
188.875
 30
0.0
 40
0.352778
 41
0.352778
  0
SEQEND
 8
0
  0
POLYLINE
  8
0
 62
     0
 66
     1
 10
0
 20
0
 30
0.0
 40
25.4
 41
25.4
  0
VERTEX
  8
0
 10
629.688
 20
159.847
 30
0.0
 40
0.352778
 41
0.352778
  0
VERTEX
  8
0
 10
636.037
 20
159.847
 30
0.0
 40
0.352778
 41
0.352778
  0
VERTEX
  8
0
 10
636.037
 20
130.818
 30
0.0
 40
0.352778
 41
0.352778
  0
SEQEND
 8
0
  0
POLYLINE
  8
0
 62
     0
 66
     1
 10
0
 20
0
 30
0.0
 40
25.4
 41
25.4
  0
VERTEX
  8
0
 10
629.688
 20
101.79
 30
0.0
 40
0.352778
 41
0.352778
  0
VERTEX
  8
0
 10
662.297
 20
101.79
 30
0.0
 40
0.352778
 41
0.352778
  0
VERTEX
  8
0
 10
662.297
 20
304.99
 30
0.0
 40
0.352778
 41
0.352778
  0
SEQEND
 8
0
  0
POLYLINE
  8
0
 62
     0
 66
     1
 10
0
 20
0
 30
0.0
 40
25.4
 41
25.4
  0
VERTEX
  8
0
 10
384.806
 20
50.9896
 30
0.0
 40
0.352778
 41
0.352778
  0
VERTEX
  8
0
 10
384.806
 20
44.6396
 30
0.0
 40
0.352778
 41
0.352778
  0
VERTEX
  8
0
 10
413.835
 20
44.6396
 30
0.0
 40
0.352778
 41
0.352778
  0
VERTEX
  8
0
 10
413.835
 20
50.9896
 30
0.0
 40
0.352778
 41
0.352778
  0
VERTEX
  8
0
 10
442.862
 20
50.9896
 30
0.0
 40
0.352778
 41
0.352778
  0
VERTEX
  8
0
 10
442.862
 20
44.6396
 30
0.0
 40
0.352778
 41
0.352778
  0
VERTEX
  8
0
 10
471.892
 20
44.6396
 30
0.0
 40
0.352778
 41
0.352778
  0
VERTEX
  8
0
 10
471.892
 20
50.9896
 30
0.0
 40
0.352778
 41
0.352778
  0
VERTEX
  8
0
 10
500.919
 20
50.9896
 30
0.0
 40
0.352778
 41
0.352778
  0
VERTEX
  8
0
 10
500.919
 20
44.6396
 30
0.0
 40
0.352778
 41
0.352778
  0
VERTEX
  8
0
 10
529.949
 20
44.6396
 30
0.0
 40
0.352778
 41
0.352778
  0
VERTEX
  8
0
 10
529.949
 20
50.9896
 30
0.0
 40
0.352778
 41
0.352778
  0
VERTEX
  8
0
 10
558.978
 20
50.9896
 30
0.0
 40
0.352778
 41
0.352778
  0
VERTEX
  8
0
 10
558.978
 20
18.3794
 30
0.0
 40
0.352778
 41
0.352778
  0
VERTEX
  8
0
 10
355.776
 20
18.3794
 30
0.0
 40
0.352778
 41
0.352778
  0
SEQEND
 8
0
  0
POLYLINE
  8
0
 62
     0
 66
     1
 10
0
 20
0
 30
0.0
 40
25.4
 41
25.4
  0
VERTEX
  8
0
 10
694.907
 20
304.99
 30
0.0
 40
0.352778
 41
0.352778
  0
VERTEX
  8
0
 10
694.907
 20
275.961
 30
0.0
 40
0.352778
 41
0.352778
  0
VERTEX
  8
0
 10
688.557
 20
275.961
 30
0.0
 40
0.352778
 41
0.352778
  0
VERTEX
  8
0
 10
688.557
 20
246.933
 30
0.0
 40
0.352778
 41
0.352778
  0
VERTEX
  8
0
 10
694.907
 20
246.933
 30
0.0
 40
0.352778
 41
0.352778
  0
VERTEX
  8
0
 10
694.907
 20
217.904
 30
0.0
 40
0.352778
 41
0.352778
  0
VERTEX
  8
0
 10
688.557
 20
217.904
 30
0.0
 40
0.352778
 41
0.352778
  0
VERTEX
  8
0
 10
688.557
 20
188.875
 30
0.0
 40
0.352778
 41
0.352778
  0
VERTEX
  8
0
 10
694.907
 20
188.875
 30
0.0
 40
0.352778
 41
0.352778
  0
VERTEX
  8
0
 10
694.907
 20
159.847
 30
0.0
 40
0.352778
 41
0.352778
  0
VERTEX
  8
0
 10
688.557
 20
159.847
 30
0.0
 40
0.352778
 41
0.352778
  0
VERTEX
  8
0
 10
688.557
 20
130.818
 30
0.0
 40
0.352778
 41
0.352778
  0
VERTEX
  8
0
 10
694.907
 20
130.818
 30
0.0
 40
0.352778
 41
0.352778
  0
VERTEX
  8
0
 10
694.907
 20
101.79
 30
0.0
 40
0.352778
 41
0.352778
  0
VERTEX
  8
0
 10
662.297
 20
101.79
 30
0.0
 40
0.352778
 41
0.352778
  0
SEQEND
 8
0
  0
ENDSEC
  0
EOF
