  0
SECTION
  2
HEADER
  9
$ACADVER
  1
AC1009
  9
$EXTMIN
 10
0.0
 20
0.0
 30
0.0
  9
$EXTMAX
 10
1000.0
 20
1000.0
 30
0.0
  9
$FILLMODE
 70
 0
  9
$SPLFRAME
 70
 1
  0
ENDSEC
  0
SECTION
  2
TABLES
  0
TABLE
  2
LAYER
 70
1
  0
LAYER
  2
0
 70
     0
 62
     7
  6
CONTINUOUS
  0
ENDTAB
  0
ENDSEC
  0
SECTION
  2
ENTITIES
  0
POLYLINE
  8
0
 62
     0
 66
     1
 10
0
 20
0
 30
0.0
 70
     1
 40
24
 41
24
  0
VERTEX
  8
0
 10
22.4014
 20
143.063
 30
0.0
 40
0.333333
 41
0.333333
  0
VERTEX
  8
0
 10
22.4014
 20
142.982
 30
0.0
 40
0.333333
 41
0.333333
  0
VERTEX
  8
0
 10
22.385
 20
142.737
 30
0.0
 40
0.333333
 41
0.333333
  0
VERTEX
  8
0
 10
22.3369
 20
142.422
 30
0.0
 40
0.333333
 41
0.333333
  0
VERTEX
  8
0
 10
22.2586
 20
142.118
 30
0.0
 40
0.333333
 41
0.333333
  0
VERTEX
  8
0
 10
22.1519
 20
141.826
 30
0.0
 40
0.333333
 41
0.333333
  0
VERTEX
  8
0
 10
22.0182
 20
141.549
 30
0.0
 40
0.333333
 41
0.333333
  0
VERTEX
  8
0
 10
21.8592
 20
141.288
 30
0.0
 40
0.333333
 41
0.333333
  0
VERTEX
  8
0
 10
21.6764
 20
141.043
 30
0.0
 40
0.333333
 41
0.333333
  0
VERTEX
  8
0
 10
21.4715
 20
140.818
 30
0.0
 40
0.333333
 41
0.333333
  0
VERTEX
  8
0
 10
21.246
 20
140.612
 30
0.0
 40
0.333333
 41
0.333333
  0
VERTEX
  8
0
 10
21.0015
 20
140.429
 30
0.0
 40
0.333333
 41
0.333333
  0
VERTEX
  8
0
 10
20.7399
 20
140.271
 30
0.0
 40
0.333333
 41
0.333333
  0
VERTEX
  8
0
 10
20.4622
 20
140.138
 30
0.0
 40
0.333333
 41
0.333333
  0
VERTEX
  8
0
 10
20.1706
 20
140.031
 30
0.0
 40
0.333333
 41
0.333333
  0
VERTEX
  8
0
 10
19.8663
 20
139.951
 30
0.0
 40
0.333333
 41
0.333333
  0
VERTEX
  8
0
 10
19.551
 20
139.904
 30
0.0
 40
0.333333
 41
0.333333
  0
VERTEX
  8
0
 10
19.3075
 20
139.888
 30
0.0
 40
0.333333
 41
0.333333
  0
VERTEX
  8
0
 10
19.2264
 20
139.888
 30
0.0
 40
0.333333
 41
0.333333
  0
VERTEX
  8
0
 10
19.1453
 20
139.888
 30
0.0
 40
0.333333
 41
0.333333
  0
VERTEX
  8
0
 10
18.9018
 20
139.904
 30
0.0
 40
0.333333
 41
0.333333
  0
VERTEX
  8
0
 10
18.5865
 20
139.951
 30
0.0
 40
0.333333
 41
0.333333
  0
VERTEX
  8
0
 10
18.2822
 20
140.031
 30
0.0
 40
0.333333
 41
0.333333
  0
VERTEX
  8
0
 10
17.9906
 20
140.138
 30
0.0
 40
0.333333
 41
0.333333
  0
VERTEX
  8
0
 10
17.7131
 20
140.271
 30
0.0
 40
0.333333
 41
0.333333
  0
VERTEX
  8
0
 10
17.4512
 20
140.429
 30
0.0
 40
0.333333
 41
0.333333
  0
VERTEX
  8
0
 10
17.2068
 20
140.612
 30
0.0
 40
0.333333
 41
0.333333
  0
VERTEX
  8
0
 10
16.9814
 20
140.818
 30
0.0
 40
0.333333
 41
0.333333
  0
VERTEX
  8
0
 10
16.7764
 20
141.043
 30
0.0
 40
0.333333
 41
0.333333
  0
VERTEX
  8
0
 10
16.5936
 20
141.288
 30
0.0
 40
0.333333
 41
0.333333
  0
VERTEX
  8
0
 10
16.4346
 20
141.549
 30
0.0
 40
0.333333
 41
0.333333
  0
VERTEX
  8
0
 10
16.3008
 20
141.826
 30
0.0
 40
0.333333
 41
0.333333
  0
VERTEX
  8
0
 10
16.1942
 20
142.118
 30
0.0
 40
0.333333
 41
0.333333
  0
VERTEX
  8
0
 10
16.1158
 20
142.422
 30
0.0
 40
0.333333
 41
0.333333
  0
VERTEX
  8
0
 10
16.0678
 20
142.737
 30
0.0
 40
0.333333
 41
0.333333
  0
VERTEX
  8
0
 10
16.0514
 20
142.982
 30
0.0
 40
0.333333
 41
0.333333
  0
VERTEX
  8
0
 10
16.0514
 20
143.063
 30
0.0
 40
0.333333
 41
0.333333
  0
VERTEX
  8
0
 10
16.0514
 20
143.143
 30
0.0
 40
0.333333
 41
0.333333
  0
VERTEX
  8
0
 10
16.0678
 20
143.388
 30
0.0
 40
0.333333
 41
0.333333
  0
VERTEX
  8
0
 10
16.1158
 20
143.703
 30
0.0
 40
0.333333
 41
0.333333
  0
VERTEX
  8
0
 10
16.1942
 20
144.007
 30
0.0
 40
0.333333
 41
0.333333
  0
VERTEX
  8
0
 10
16.3008
 20
144.299
 30
0.0
 40
0.333333
 41
0.333333
  0
VERTEX
  8
0
 10
16.4346
 20
144.576
 30
0.0
 40
0.333333
 41
0.333333
  0
VERTEX
  8
0
 10
16.5936
 20
144.837
 30
0.0
 40
0.333333
 41
0.333333
  0
VERTEX
  8
0
 10
16.7764
 20
145.082
 30
0.0
 40
0.333333
 41
0.333333
  0
VERTEX
  8
0
 10
16.9814
 20
145.307
 30
0.0
 40
0.333333
 41
0.333333
  0
VERTEX
  8
0
 10
17.2068
 20
145.513
 30
0.0
 40
0.333333
 41
0.333333
  0
VERTEX
  8
0
 10
17.4512
 20
145.696
 30
0.0
 40
0.333333
 41
0.333333
  0
VERTEX
  8
0
 10
17.7131
 20
145.854
 30
0.0
 40
0.333333
 41
0.333333
  0
VERTEX
  8
0
 10
17.9906
 20
145.987
 30
0.0
 40
0.333333
 41
0.333333
  0
VERTEX
  8
0
 10
18.2822
 20
146.094
 30
0.0
 40
0.333333
 41
0.333333
  0
VERTEX
  8
0
 10
18.5865
 20
146.174
 30
0.0
 40
0.333333
 41
0.333333
  0
VERTEX
  8
0
 10
18.9018
 20
146.221
 30
0.0
 40
0.333333
 41
0.333333
  0
VERTEX
  8
0
 10
19.1453
 20
146.237
 30
0.0
 40
0.333333
 41
0.333333
  0
VERTEX
  8
0
 10
19.2264
 20
146.237
 30
0.0
 40
0.333333
 41
0.333333
  0
VERTEX
  8
0
 10
19.3075
 20
146.237
 30
0.0
 40
0.333333
 41
0.333333
  0
VERTEX
  8
0
 10
19.551
 20
146.221
 30
0.0
 40
0.333333
 41
0.333333
  0
VERTEX
  8
0
 10
19.8663
 20
146.174
 30
0.0
 40
0.333333
 41
0.333333
  0
VERTEX
  8
0
 10
20.1706
 20
146.094
 30
0.0
 40
0.333333
 41
0.333333
  0
VERTEX
  8
0
 10
20.4622
 20
145.987
 30
0.0
 40
0.333333
 41
0.333333
  0
VERTEX
  8
0
 10
20.7399
 20
145.854
 30
0.0
 40
0.333333
 41
0.333333
  0
VERTEX
  8
0
 10
21.0015
 20
145.696
 30
0.0
 40
0.333333
 41
0.333333
  0
VERTEX
  8
0
 10
21.246
 20
145.513
 30
0.0
 40
0.333333
 41
0.333333
  0
VERTEX
  8
0
 10
21.4715
 20
145.307
 30
0.0
 40
0.333333
 41
0.333333
  0
VERTEX
  8
0
 10
21.6764
 20
145.082
 30
0.0
 40
0.333333
 41
0.333333
  0
VERTEX
  8
0
 10
21.8592
 20
144.837
 30
0.0
 40
0.333333
 41
0.333333
  0
VERTEX
  8
0
 10
22.0182
 20
144.576
 30
0.0
 40
0.333333
 41
0.333333
  0
VERTEX
  8
0
 10
22.1519
 20
144.299
 30
0.0
 40
0.333333
 41
0.333333
  0
VERTEX
  8
0
 10
22.2586
 20
144.007
 30
0.0
 40
0.333333
 41
0.333333
  0
VERTEX
  8
0
 10
22.3369
 20
143.703
 30
0.0
 40
0.333333
 41
0.333333
  0
VERTEX
  8
0
 10
22.385
 20
143.388
 30
0.0
 40
0.333333
 41
0.333333
  0
VERTEX
  8
0
 10
22.4014
 20
143.143
 30
0.0
 40
0.333333
 41
0.333333
  0
VERTEX
  8
0
 10
22.4014
 20
143.063
 30
0.0
 40
0.333333
 41
0.333333
  0
SEQEND
 8
0
  0
POLYLINE
  8
0
 62
     0
 66
     1
 10
0
 20
0
 30
0.0
 70
     1
 40
24
 41
24
  0
VERTEX
  8
0
 10
297.826
 20
165.288
 30
0.0
 40
0.333333
 41
0.333333
  0
VERTEX
  8
0
 10
297.826
 20
165.249
 30
0.0
 40
0.333333
 41
0.333333
  0
VERTEX
  8
0
 10
297.819
 20
165.135
 30
0.0
 40
0.333333
 41
0.333333
  0
VERTEX
  8
0
 10
297.796
 20
164.985
 30
0.0
 40
0.333333
 41
0.333333
  0
VERTEX
  8
0
 10
297.76
 20
164.842
 30
0.0
 40
0.333333
 41
0.333333
  0
VERTEX
  8
0
 10
297.708
 20
164.704
 30
0.0
 40
0.333333
 41
0.333333
  0
VERTEX
  8
0
 10
297.646
 20
164.572
 30
0.0
 40
0.333333
 41
0.333333
  0
VERTEX
  8
0
 10
297.571
 20
164.449
 30
0.0
 40
0.333333
 41
0.333333
  0
VERTEX
  8
0
 10
297.485
 20
164.333
 30
0.0
 40
0.333333
 41
0.333333
  0
VERTEX
  8
0
 10
297.388
 20
164.226
 30
0.0
 40
0.333333
 41
0.333333
  0
VERTEX
  8
0
 10
297.281
 20
164.131
 30
0.0
 40
0.333333
 41
0.333333
  0
VERTEX
  8
0
 10
297.165
 20
164.043
 30
0.0
 40
0.333333
 41
0.333333
  0
VERTEX
  8
0
 10
297.042
 20
163.968
 30
0.0
 40
0.333333
 41
0.333333
  0
VERTEX
  8
0
 10
296.911
 20
163.906
 30
0.0
 40
0.333333
 41
0.333333
  0
VERTEX
  8
0
 10
296.772
 20
163.856
 30
0.0
 40
0.333333
 41
0.333333
  0
VERTEX
  8
0
 10
296.629
 20
163.818
 30
0.0
 40
0.333333
 41
0.333333
  0
VERTEX
  8
0
 10
296.481
 20
163.796
 30
0.0
 40
0.333333
 41
0.333333
  0
VERTEX
  8
0
 10
296.365
 20
163.788
 30
0.0
 40
0.333333
 41
0.333333
  0
VERTEX
  8
0
 10
296.326
 20
163.788
 30
0.0
 40
0.333333
 41
0.333333
  0
VERTEX
  8
0
 10
296.289
 20
163.788
 30
0.0
 40
0.333333
 41
0.333333
  0
VERTEX
  8
0
 10
296.174
 20
163.796
 30
0.0
 40
0.333333
 41
0.333333
  0
VERTEX
  8
0
 10
296.025
 20
163.818
 30
0.0
 40
0.333333
 41
0.333333
  0
VERTEX
  8
0
 10
295.881
 20
163.856
 30
0.0
 40
0.333333
 41
0.333333
  0
VERTEX
  8
0
 10
295.743
 20
163.906
 30
0.0
 40
0.333333
 41
0.333333
  0
VERTEX
  8
0
 10
295.612
 20
163.968
 30
0.0
 40
0.333333
 41
0.333333
  0
VERTEX
  8
0
 10
295.487
 20
164.043
 30
0.0
 40
0.333333
 41
0.333333
  0
VERTEX
  8
0
 10
295.372
 20
164.131
 30
0.0
 40
0.333333
 41
0.333333
  0
VERTEX
  8
0
 10
295.267
 20
164.226
 30
0.0
 40
0.333333
 41
0.333333
  0
VERTEX
  8
0
 10
295.169
 20
164.333
 30
0.0
 40
0.333333
 41
0.333333
  0
VERTEX
  8
0
 10
295.083
 20
164.449
 30
0.0
 40
0.333333
 41
0.333333
  0
VERTEX
  8
0
 10
295.008
 20
164.572
 30
0.0
 40
0.333333
 41
0.333333
  0
VERTEX
  8
0
 10
294.944
 20
164.704
 30
0.0
 40
0.333333
 41
0.333333
  0
VERTEX
  8
0
 10
294.894
 20
164.842
 30
0.0
 40
0.333333
 41
0.333333
  0
VERTEX
  8
0
 10
294.857
 20
164.985
 30
0.0
 40
0.333333
 41
0.333333
  0
VERTEX
  8
0
 10
294.835
 20
165.135
 30
0.0
 40
0.333333
 41
0.333333
  0
VERTEX
  8
0
 10
294.826
 20
165.249
 30
0.0
 40
0.333333
 41
0.333333
  0
VERTEX
  8
0
 10
294.826
 20
165.288
 30
0.0
 40
0.333333
 41
0.333333
  0
VERTEX
  8
0
 10
294.826
 20
165.326
 30
0.0
 40
0.333333
 41
0.333333
  0
VERTEX
  8
0
 10
294.835
 20
165.44
 30
0.0
 40
0.333333
 41
0.333333
  0
VERTEX
  8
0
 10
294.857
 20
165.59
 30
0.0
 40
0.333333
 41
0.333333
  0
VERTEX
  8
0
 10
294.894
 20
165.733
 30
0.0
 40
0.333333
 41
0.333333
  0
VERTEX
  8
0
 10
294.944
 20
165.871
 30
0.0
 40
0.333333
 41
0.333333
  0
VERTEX
  8
0
 10
295.008
 20
166.003
 30
0.0
 40
0.333333
 41
0.333333
  0
VERTEX
  8
0
 10
295.083
 20
166.126
 30
0.0
 40
0.333333
 41
0.333333
  0
VERTEX
  8
0
 10
295.169
 20
166.242
 30
0.0
 40
0.333333
 41
0.333333
  0
VERTEX
  8
0
 10
295.267
 20
166.349
 30
0.0
 40
0.333333
 41
0.333333
  0
VERTEX
  8
0
 10
295.372
 20
166.444
 30
0.0
 40
0.333333
 41
0.333333
  0
VERTEX
  8
0
 10
295.487
 20
166.532
 30
0.0
 40
0.333333
 41
0.333333
  0
VERTEX
  8
0
 10
295.612
 20
166.607
 30
0.0
 40
0.333333
 41
0.333333
  0
VERTEX
  8
0
 10
295.743
 20
166.669
 30
0.0
 40
0.333333
 41
0.333333
  0
VERTEX
  8
0
 10
295.881
 20
166.719
 30
0.0
 40
0.333333
 41
0.333333
  0
VERTEX
  8
0
 10
296.025
 20
166.757
 30
0.0
 40
0.333333
 41
0.333333
  0
VERTEX
  8
0
 10
296.174
 20
166.779
 30
0.0
 40
0.333333
 41
0.333333
  0
VERTEX
  8
0
 10
296.289
 20
166.788
 30
0.0
 40
0.333333
 41
0.333333
  0
VERTEX
  8
0
 10
296.326
 20
166.788
 30
0.0
 40
0.333333
 41
0.333333
  0
VERTEX
  8
0
 10
296.365
 20
166.788
 30
0.0
 40
0.333333
 41
0.333333
  0
VERTEX
  8
0
 10
296.481
 20
166.779
 30
0.0
 40
0.333333
 41
0.333333
  0
VERTEX
  8
0
 10
296.629
 20
166.757
 30
0.0
 40
0.333333
 41
0.333333
  0
VERTEX
  8
0
 10
296.772
 20
166.719
 30
0.0
 40
0.333333
 41
0.333333
  0
VERTEX
  8
0
 10
296.911
 20
166.669
 30
0.0
 40
0.333333
 41
0.333333
  0
VERTEX
  8
0
 10
297.042
 20
166.607
 30
0.0
 40
0.333333
 41
0.333333
  0
VERTEX
  8
0
 10
297.165
 20
166.532
 30
0.0
 40
0.333333
 41
0.333333
  0
VERTEX
  8
0
 10
297.281
 20
166.444
 30
0.0
 40
0.333333
 41
0.333333
  0
VERTEX
  8
0
 10
297.388
 20
166.349
 30
0.0
 40
0.333333
 41
0.333333
  0
VERTEX
  8
0
 10
297.485
 20
166.242
 30
0.0
 40
0.333333
 41
0.333333
  0
VERTEX
  8
0
 10
297.571
 20
166.126
 30
0.0
 40
0.333333
 41
0.333333
  0
VERTEX
  8
0
 10
297.646
 20
166.003
 30
0.0
 40
0.333333
 41
0.333333
  0
VERTEX
  8
0
 10
297.708
 20
165.871
 30
0.0
 40
0.333333
 41
0.333333
  0
VERTEX
  8
0
 10
297.76
 20
165.733
 30
0.0
 40
0.333333
 41
0.333333
  0
VERTEX
  8
0
 10
297.796
 20
165.59
 30
0.0
 40
0.333333
 41
0.333333
  0
VERTEX
  8
0
 10
297.819
 20
165.44
 30
0.0
 40
0.333333
 41
0.333333
  0
VERTEX
  8
0
 10
297.826
 20
165.326
 30
0.0
 40
0.333333
 41
0.333333
  0
VERTEX
  8
0
 10
297.826
 20
165.288
 30
0.0
 40
0.333333
 41
0.333333
  0
SEQEND
 8
0
  0
POLYLINE
  8
0
 62
     0
 66
     1
 10
0
 20
0
 30
0.0
 70
     1
 40
24
 41
24
  0
VERTEX
  8
0
 10
282.076
 20
165.288
 30
0.0
 40
0.333333
 41
0.333333
  0
VERTEX
  8
0
 10
282.076
 20
165.249
 30
0.0
 40
0.333333
 41
0.333333
  0
VERTEX
  8
0
 10
282.069
 20
165.135
 30
0.0
 40
0.333333
 41
0.333333
  0
VERTEX
  8
0
 10
282.046
 20
164.985
 30
0.0
 40
0.333333
 41
0.333333
  0
VERTEX
  8
0
 10
282.01
 20
164.842
 30
0.0
 40
0.333333
 41
0.333333
  0
VERTEX
  8
0
 10
281.958
 20
164.704
 30
0.0
 40
0.333333
 41
0.333333
  0
VERTEX
  8
0
 10
281.896
 20
164.572
 30
0.0
 40
0.333333
 41
0.333333
  0
VERTEX
  8
0
 10
281.821
 20
164.449
 30
0.0
 40
0.333333
 41
0.333333
  0
VERTEX
  8
0
 10
281.735
 20
164.333
 30
0.0
 40
0.333333
 41
0.333333
  0
VERTEX
  8
0
 10
281.638
 20
164.226
 30
0.0
 40
0.333333
 41
0.333333
  0
VERTEX
  8
0
 10
281.531
 20
164.131
 30
0.0
 40
0.333333
 41
0.333333
  0
VERTEX
  8
0
 10
281.415
 20
164.043
 30
0.0
 40
0.333333
 41
0.333333
  0
VERTEX
  8
0
 10
281.292
 20
163.968
 30
0.0
 40
0.333333
 41
0.333333
  0
VERTEX
  8
0
 10
281.161
 20
163.906
 30
0.0
 40
0.333333
 41
0.333333
  0
VERTEX
  8
0
 10
281.022
 20
163.856
 30
0.0
 40
0.333333
 41
0.333333
  0
VERTEX
  8
0
 10
280.879
 20
163.818
 30
0.0
 40
0.333333
 41
0.333333
  0
VERTEX
  8
0
 10
280.731
 20
163.796
 30
0.0
 40
0.333333
 41
0.333333
  0
VERTEX
  8
0
 10
280.615
 20
163.788
 30
0.0
 40
0.333333
 41
0.333333
  0
VERTEX
  8
0
 10
280.576
 20
163.788
 30
0.0
 40
0.333333
 41
0.333333
  0
VERTEX
  8
0
 10
280.539
 20
163.788
 30
0.0
 40
0.333333
 41
0.333333
  0
VERTEX
  8
0
 10
280.424
 20
163.796
 30
0.0
 40
0.333333
 41
0.333333
  0
VERTEX
  8
0
 10
280.275
 20
163.818
 30
0.0
 40
0.333333
 41
0.333333
  0
VERTEX
  8
0
 10
280.131
 20
163.856
 30
0.0
 40
0.333333
 41
0.333333
  0
VERTEX
  8
0
 10
279.993
 20
163.906
 30
0.0
 40
0.333333
 41
0.333333
  0
VERTEX
  8
0
 10
279.862
 20
163.968
 30
0.0
 40
0.333333
 41
0.333333
  0
VERTEX
  8
0
 10
279.737
 20
164.043
 30
0.0
 40
0.333333
 41
0.333333
  0
VERTEX
  8
0
 10
279.622
 20
164.131
 30
0.0
 40
0.333333
 41
0.333333
  0
VERTEX
  8
0
 10
279.517
 20
164.226
 30
0.0
 40
0.333333
 41
0.333333
  0
VERTEX
  8
0
 10
279.419
 20
164.333
 30
0.0
 40
0.333333
 41
0.333333
  0
VERTEX
  8
0
 10
279.333
 20
164.449
 30
0.0
 40
0.333333
 41
0.333333
  0
VERTEX
  8
0
 10
279.258
 20
164.572
 30
0.0
 40
0.333333
 41
0.333333
  0
VERTEX
  8
0
 10
279.194
 20
164.704
 30
0.0
 40
0.333333
 41
0.333333
  0
VERTEX
  8
0
 10
279.144
 20
164.842
 30
0.0
 40
0.333333
 41
0.333333
  0
VERTEX
  8
0
 10
279.107
 20
164.985
 30
0.0
 40
0.333333
 41
0.333333
  0
VERTEX
  8
0
 10
279.085
 20
165.135
 30
0.0
 40
0.333333
 41
0.333333
  0
VERTEX
  8
0
 10
279.076
 20
165.249
 30
0.0
 40
0.333333
 41
0.333333
  0
VERTEX
  8
0
 10
279.076
 20
165.288
 30
0.0
 40
0.333333
 41
0.333333
  0
VERTEX
  8
0
 10
279.076
 20
165.326
 30
0.0
 40
0.333333
 41
0.333333
  0
VERTEX
  8
0
 10
279.085
 20
165.44
 30
0.0
 40
0.333333
 41
0.333333
  0
VERTEX
  8
0
 10
279.107
 20
165.59
 30
0.0
 40
0.333333
 41
0.333333
  0
VERTEX
  8
0
 10
279.144
 20
165.733
 30
0.0
 40
0.333333
 41
0.333333
  0
VERTEX
  8
0
 10
279.194
 20
165.871
 30
0.0
 40
0.333333
 41
0.333333
  0
VERTEX
  8
0
 10
279.258
 20
166.003
 30
0.0
 40
0.333333
 41
0.333333
  0
VERTEX
  8
0
 10
279.333
 20
166.126
 30
0.0
 40
0.333333
 41
0.333333
  0
VERTEX
  8
0
 10
279.419
 20
166.242
 30
0.0
 40
0.333333
 41
0.333333
  0
VERTEX
  8
0
 10
279.517
 20
166.349
 30
0.0
 40
0.333333
 41
0.333333
  0
VERTEX
  8
0
 10
279.622
 20
166.444
 30
0.0
 40
0.333333
 41
0.333333
  0
VERTEX
  8
0
 10
279.737
 20
166.532
 30
0.0
 40
0.333333
 41
0.333333
  0
VERTEX
  8
0
 10
279.862
 20
166.607
 30
0.0
 40
0.333333
 41
0.333333
  0
VERTEX
  8
0
 10
279.993
 20
166.669
 30
0.0
 40
0.333333
 41
0.333333
  0
VERTEX
  8
0
 10
280.131
 20
166.719
 30
0.0
 40
0.333333
 41
0.333333
  0
VERTEX
  8
0
 10
280.275
 20
166.757
 30
0.0
 40
0.333333
 41
0.333333
  0
VERTEX
  8
0
 10
280.424
 20
166.779
 30
0.0
 40
0.333333
 41
0.333333
  0
VERTEX
  8
0
 10
280.539
 20
166.788
 30
0.0
 40
0.333333
 41
0.333333
  0
VERTEX
  8
0
 10
280.576
 20
166.788
 30
0.0
 40
0.333333
 41
0.333333
  0
VERTEX
  8
0
 10
280.615
 20
166.788
 30
0.0
 40
0.333333
 41
0.333333
  0
VERTEX
  8
0
 10
280.731
 20
166.779
 30
0.0
 40
0.333333
 41
0.333333
  0
VERTEX
  8
0
 10
280.879
 20
166.757
 30
0.0
 40
0.333333
 41
0.333333
  0
VERTEX
  8
0
 10
281.022
 20
166.719
 30
0.0
 40
0.333333
 41
0.333333
  0
VERTEX
  8
0
 10
281.161
 20
166.669
 30
0.0
 40
0.333333
 41
0.333333
  0
VERTEX
  8
0
 10
281.292
 20
166.607
 30
0.0
 40
0.333333
 41
0.333333
  0
VERTEX
  8
0
 10
281.415
 20
166.532
 30
0.0
 40
0.333333
 41
0.333333
  0
VERTEX
  8
0
 10
281.531
 20
166.444
 30
0.0
 40
0.333333
 41
0.333333
  0
VERTEX
  8
0
 10
281.638
 20
166.349
 30
0.0
 40
0.333333
 41
0.333333
  0
VERTEX
  8
0
 10
281.735
 20
166.242
 30
0.0
 40
0.333333
 41
0.333333
  0
VERTEX
  8
0
 10
281.821
 20
166.126
 30
0.0
 40
0.333333
 41
0.333333
  0
VERTEX
  8
0
 10
281.896
 20
166.003
 30
0.0
 40
0.333333
 41
0.333333
  0
VERTEX
  8
0
 10
281.958
 20
165.871
 30
0.0
 40
0.333333
 41
0.333333
  0
VERTEX
  8
0
 10
282.01
 20
165.733
 30
0.0
 40
0.333333
 41
0.333333
  0
VERTEX
  8
0
 10
282.046
 20
165.59
 30
0.0
 40
0.333333
 41
0.333333
  0
VERTEX
  8
0
 10
282.069
 20
165.44
 30
0.0
 40
0.333333
 41
0.333333
  0
VERTEX
  8
0
 10
282.076
 20
165.326
 30
0.0
 40
0.333333
 41
0.333333
  0
VERTEX
  8
0
 10
282.076
 20
165.288
 30
0.0
 40
0.333333
 41
0.333333
  0
SEQEND
 8
0
  0
POLYLINE
  8
0
 62
     0
 66
     1
 10
0
 20
0
 30
0.0
 70
     1
 40
24
 41
24
  0
VERTEX
  8
0
 10
282.076
 20
19.2372
 30
0.0
 40
0.333333
 41
0.333333
  0
VERTEX
  8
0
 10
282.076
 20
19.1989
 30
0.0
 40
0.333333
 41
0.333333
  0
VERTEX
  8
0
 10
282.069
 20
19.0839
 30
0.0
 40
0.333333
 41
0.333333
  0
VERTEX
  8
0
 10
282.046
 20
18.935
 30
0.0
 40
0.333333
 41
0.333333
  0
VERTEX
  8
0
 10
282.01
 20
18.7912
 30
0.0
 40
0.333333
 41
0.333333
  0
VERTEX
  8
0
 10
281.958
 20
18.6533
 30
0.0
 40
0.333333
 41
0.333333
  0
VERTEX
  8
0
 10
281.896
 20
18.5224
 30
0.0
 40
0.333333
 41
0.333333
  0
VERTEX
  8
0
 10
281.821
 20
18.3986
 30
0.0
 40
0.333333
 41
0.333333
  0
VERTEX
  8
0
 10
281.735
 20
18.2832
 30
0.0
 40
0.333333
 41
0.333333
  0
VERTEX
  8
0
 10
281.638
 20
18.1765
 30
0.0
 40
0.333333
 41
0.333333
  0
VERTEX
  8
0
 10
281.531
 20
18.0799
 30
0.0
 40
0.333333
 41
0.333333
  0
VERTEX
  8
0
 10
281.415
 20
17.9935
 30
0.0
 40
0.333333
 41
0.333333
  0
VERTEX
  8
0
 10
281.292
 20
17.9183
 30
0.0
 40
0.333333
 41
0.333333
  0
VERTEX
  8
0
 10
281.161
 20
17.8551
 30
0.0
 40
0.333333
 41
0.333333
  0
VERTEX
  8
0
 10
281.022
 20
17.8047
 30
0.0
 40
0.333333
 41
0.333333
  0
VERTEX
  8
0
 10
280.879
 20
17.7678
 30
0.0
 40
0.333333
 41
0.333333
  0
VERTEX
  8
0
 10
280.731
 20
17.745
 30
0.0
 40
0.333333
 41
0.333333
  0
VERTEX
  8
0
 10
280.615
 20
17.7372
 30
0.0
 40
0.333333
 41
0.333333
  0
VERTEX
  8
0
 10
280.576
 20
17.7372
 30
0.0
 40
0.333333
 41
0.333333
  0
VERTEX
  8
0
 10
280.539
 20
17.7372
 30
0.0
 40
0.333333
 41
0.333333
  0
VERTEX
  8
0
 10
280.424
 20
17.745
 30
0.0
 40
0.333333
 41
0.333333
  0
VERTEX
  8
0
 10
280.275
 20
17.7678
 30
0.0
 40
0.333333
 41
0.333333
  0
VERTEX
  8
0
 10
280.131
 20
17.8047
 30
0.0
 40
0.333333
 41
0.333333
  0
VERTEX
  8
0
 10
279.993
 20
17.8551
 30
0.0
 40
0.333333
 41
0.333333
  0
VERTEX
  8
0
 10
279.862
 20
17.9183
 30
0.0
 40
0.333333
 41
0.333333
  0
VERTEX
  8
0
 10
279.737
 20
17.9935
 30
0.0
 40
0.333333
 41
0.333333
  0
VERTEX
  8
0
 10
279.622
 20
18.0799
 30
0.0
 40
0.333333
 41
0.333333
  0
VERTEX
  8
0
 10
279.517
 20
18.1765
 30
0.0
 40
0.333333
 41
0.333333
  0
VERTEX
  8
0
 10
279.419
 20
18.2832
 30
0.0
 40
0.333333
 41
0.333333
  0
VERTEX
  8
0
 10
279.333
 20
18.3986
 30
0.0
 40
0.333333
 41
0.333333
  0
VERTEX
  8
0
 10
279.258
 20
18.5224
 30
0.0
 40
0.333333
 41
0.333333
  0
VERTEX
  8
0
 10
279.194
 20
18.6533
 30
0.0
 40
0.333333
 41
0.333333
  0
VERTEX
  8
0
 10
279.144
 20
18.7912
 30
0.0
 40
0.333333
 41
0.333333
  0
VERTEX
  8
0
 10
279.107
 20
18.935
 30
0.0
 40
0.333333
 41
0.333333
  0
VERTEX
  8
0
 10
279.085
 20
19.0839
 30
0.0
 40
0.333333
 41
0.333333
  0
VERTEX
  8
0
 10
279.076
 20
19.1989
 30
0.0
 40
0.333333
 41
0.333333
  0
VERTEX
  8
0
 10
279.076
 20
19.2372
 30
0.0
 40
0.333333
 41
0.333333
  0
VERTEX
  8
0
 10
279.076
 20
19.2756
 30
0.0
 40
0.333333
 41
0.333333
  0
VERTEX
  8
0
 10
279.085
 20
19.3907
 30
0.0
 40
0.333333
 41
0.333333
  0
VERTEX
  8
0
 10
279.107
 20
19.5396
 30
0.0
 40
0.333333
 41
0.333333
  0
VERTEX
  8
0
 10
279.144
 20
19.6833
 30
0.0
 40
0.333333
 41
0.333333
  0
VERTEX
  8
0
 10
279.194
 20
19.8211
 30
0.0
 40
0.333333
 41
0.333333
  0
VERTEX
  8
0
 10
279.258
 20
19.9522
 30
0.0
 40
0.333333
 41
0.333333
  0
VERTEX
  8
0
 10
279.333
 20
20.076
 30
0.0
 40
0.333333
 41
0.333333
  0
VERTEX
  8
0
 10
279.419
 20
20.1914
 30
0.0
 40
0.333333
 41
0.333333
  0
VERTEX
  8
0
 10
279.517
 20
20.2979
 30
0.0
 40
0.333333
 41
0.333333
  0
VERTEX
  8
0
 10
279.622
 20
20.3947
 30
0.0
 40
0.333333
 41
0.333333
  0
VERTEX
  8
0
 10
279.737
 20
20.4811
 30
0.0
 40
0.333333
 41
0.333333
  0
VERTEX
  8
0
 10
279.862
 20
20.5563
 30
0.0
 40
0.333333
 41
0.333333
  0
VERTEX
  8
0
 10
279.993
 20
20.6194
 30
0.0
 40
0.333333
 41
0.333333
  0
VERTEX
  8
0
 10
280.131
 20
20.6699
 30
0.0
 40
0.333333
 41
0.333333
  0
VERTEX
  8
0
 10
280.275
 20
20.7068
 30
0.0
 40
0.333333
 41
0.333333
  0
VERTEX
  8
0
 10
280.424
 20
20.7296
 30
0.0
 40
0.333333
 41
0.333333
  0
VERTEX
  8
0
 10
280.539
 20
20.7372
 30
0.0
 40
0.333333
 41
0.333333
  0
VERTEX
  8
0
 10
280.576
 20
20.7372
 30
0.0
 40
0.333333
 41
0.333333
  0
VERTEX
  8
0
 10
280.615
 20
20.7372
 30
0.0
 40
0.333333
 41
0.333333
  0
VERTEX
  8
0
 10
280.731
 20
20.7296
 30
0.0
 40
0.333333
 41
0.333333
  0
VERTEX
  8
0
 10
280.879
 20
20.7068
 30
0.0
 40
0.333333
 41
0.333333
  0
VERTEX
  8
0
 10
281.022
 20
20.6699
 30
0.0
 40
0.333333
 41
0.333333
  0
VERTEX
  8
0
 10
281.161
 20
20.6194
 30
0.0
 40
0.333333
 41
0.333333
  0
VERTEX
  8
0
 10
281.292
 20
20.5563
 30
0.0
 40
0.333333
 41
0.333333
  0
VERTEX
  8
0
 10
281.415
 20
20.4811
 30
0.0
 40
0.333333
 41
0.333333
  0
VERTEX
  8
0
 10
281.531
 20
20.3947
 30
0.0
 40
0.333333
 41
0.333333
  0
VERTEX
  8
0
 10
281.638
 20
20.2979
 30
0.0
 40
0.333333
 41
0.333333
  0
VERTEX
  8
0
 10
281.735
 20
20.1914
 30
0.0
 40
0.333333
 41
0.333333
  0
VERTEX
  8
0
 10
281.821
 20
20.076
 30
0.0
 40
0.333333
 41
0.333333
  0
VERTEX
  8
0
 10
281.896
 20
19.9522
 30
0.0
 40
0.333333
 41
0.333333
  0
VERTEX
  8
0
 10
281.958
 20
19.8211
 30
0.0
 40
0.333333
 41
0.333333
  0
VERTEX
  8
0
 10
282.01
 20
19.6833
 30
0.0
 40
0.333333
 41
0.333333
  0
VERTEX
  8
0
 10
282.046
 20
19.5396
 30
0.0
 40
0.333333
 41
0.333333
  0
VERTEX
  8
0
 10
282.069
 20
19.3907
 30
0.0
 40
0.333333
 41
0.333333
  0
VERTEX
  8
0
 10
282.076
 20
19.2756
 30
0.0
 40
0.333333
 41
0.333333
  0
VERTEX
  8
0
 10
282.076
 20
19.2372
 30
0.0
 40
0.333333
 41
0.333333
  0
SEQEND
 8
0
  0
POLYLINE
  8
0
 62
     0
 66
     1
 10
0
 20
0
 30
0.0
 70
     1
 40
24
 41
24
  0
VERTEX
  8
0
 10
297.826
 20
19.2372
 30
0.0
 40
0.333333
 41
0.333333
  0
VERTEX
  8
0
 10
297.826
 20
19.1989
 30
0.0
 40
0.333333
 41
0.333333
  0
VERTEX
  8
0
 10
297.819
 20
19.0839
 30
0.0
 40
0.333333
 41
0.333333
  0
VERTEX
  8
0
 10
297.796
 20
18.935
 30
0.0
 40
0.333333
 41
0.333333
  0
VERTEX
  8
0
 10
297.76
 20
18.7912
 30
0.0
 40
0.333333
 41
0.333333
  0
VERTEX
  8
0
 10
297.708
 20
18.6533
 30
0.0
 40
0.333333
 41
0.333333
  0
VERTEX
  8
0
 10
297.646
 20
18.5224
 30
0.0
 40
0.333333
 41
0.333333
  0
VERTEX
  8
0
 10
297.571
 20
18.3986
 30
0.0
 40
0.333333
 41
0.333333
  0
VERTEX
  8
0
 10
297.485
 20
18.2832
 30
0.0
 40
0.333333
 41
0.333333
  0
VERTEX
  8
0
 10
297.388
 20
18.1765
 30
0.0
 40
0.333333
 41
0.333333
  0
VERTEX
  8
0
 10
297.281
 20
18.0799
 30
0.0
 40
0.333333
 41
0.333333
  0
VERTEX
  8
0
 10
297.165
 20
17.9935
 30
0.0
 40
0.333333
 41
0.333333
  0
VERTEX
  8
0
 10
297.042
 20
17.9183
 30
0.0
 40
0.333333
 41
0.333333
  0
VERTEX
  8
0
 10
296.911
 20
17.8551
 30
0.0
 40
0.333333
 41
0.333333
  0
VERTEX
  8
0
 10
296.772
 20
17.8047
 30
0.0
 40
0.333333
 41
0.333333
  0
VERTEX
  8
0
 10
296.629
 20
17.7678
 30
0.0
 40
0.333333
 41
0.333333
  0
VERTEX
  8
0
 10
296.481
 20
17.745
 30
0.0
 40
0.333333
 41
0.333333
  0
VERTEX
  8
0
 10
296.365
 20
17.7372
 30
0.0
 40
0.333333
 41
0.333333
  0
VERTEX
  8
0
 10
296.326
 20
17.7372
 30
0.0
 40
0.333333
 41
0.333333
  0
VERTEX
  8
0
 10
296.289
 20
17.7372
 30
0.0
 40
0.333333
 41
0.333333
  0
VERTEX
  8
0
 10
296.174
 20
17.745
 30
0.0
 40
0.333333
 41
0.333333
  0
VERTEX
  8
0
 10
296.025
 20
17.7678
 30
0.0
 40
0.333333
 41
0.333333
  0
VERTEX
  8
0
 10
295.881
 20
17.8047
 30
0.0
 40
0.333333
 41
0.333333
  0
VERTEX
  8
0
 10
295.743
 20
17.8551
 30
0.0
 40
0.333333
 41
0.333333
  0
VERTEX
  8
0
 10
295.612
 20
17.9183
 30
0.0
 40
0.333333
 41
0.333333
  0
VERTEX
  8
0
 10
295.487
 20
17.9935
 30
0.0
 40
0.333333
 41
0.333333
  0
VERTEX
  8
0
 10
295.372
 20
18.0799
 30
0.0
 40
0.333333
 41
0.333333
  0
VERTEX
  8
0
 10
295.267
 20
18.1765
 30
0.0
 40
0.333333
 41
0.333333
  0
VERTEX
  8
0
 10
295.169
 20
18.2832
 30
0.0
 40
0.333333
 41
0.333333
  0
VERTEX
  8
0
 10
295.083
 20
18.3986
 30
0.0
 40
0.333333
 41
0.333333
  0
VERTEX
  8
0
 10
295.008
 20
18.5224
 30
0.0
 40
0.333333
 41
0.333333
  0
VERTEX
  8
0
 10
294.944
 20
18.6533
 30
0.0
 40
0.333333
 41
0.333333
  0
VERTEX
  8
0
 10
294.894
 20
18.7912
 30
0.0
 40
0.333333
 41
0.333333
  0
VERTEX
  8
0
 10
294.857
 20
18.935
 30
0.0
 40
0.333333
 41
0.333333
  0
VERTEX
  8
0
 10
294.835
 20
19.0839
 30
0.0
 40
0.333333
 41
0.333333
  0
VERTEX
  8
0
 10
294.826
 20
19.1989
 30
0.0
 40
0.333333
 41
0.333333
  0
VERTEX
  8
0
 10
294.826
 20
19.2372
 30
0.0
 40
0.333333
 41
0.333333
  0
VERTEX
  8
0
 10
294.826
 20
19.2756
 30
0.0
 40
0.333333
 41
0.333333
  0
VERTEX
  8
0
 10
294.835
 20
19.3907
 30
0.0
 40
0.333333
 41
0.333333
  0
VERTEX
  8
0
 10
294.857
 20
19.5396
 30
0.0
 40
0.333333
 41
0.333333
  0
VERTEX
  8
0
 10
294.894
 20
19.6833
 30
0.0
 40
0.333333
 41
0.333333
  0
VERTEX
  8
0
 10
294.944
 20
19.8211
 30
0.0
 40
0.333333
 41
0.333333
  0
VERTEX
  8
0
 10
295.008
 20
19.9522
 30
0.0
 40
0.333333
 41
0.333333
  0
VERTEX
  8
0
 10
295.083
 20
20.076
 30
0.0
 40
0.333333
 41
0.333333
  0
VERTEX
  8
0
 10
295.169
 20
20.1914
 30
0.0
 40
0.333333
 41
0.333333
  0
VERTEX
  8
0
 10
295.267
 20
20.2979
 30
0.0
 40
0.333333
 41
0.333333
  0
VERTEX
  8
0
 10
295.372
 20
20.3947
 30
0.0
 40
0.333333
 41
0.333333
  0
VERTEX
  8
0
 10
295.487
 20
20.4811
 30
0.0
 40
0.333333
 41
0.333333
  0
VERTEX
  8
0
 10
295.612
 20
20.5563
 30
0.0
 40
0.333333
 41
0.333333
  0
VERTEX
  8
0
 10
295.743
 20
20.6194
 30
0.0
 40
0.333333
 41
0.333333
  0
VERTEX
  8
0
 10
295.881
 20
20.6699
 30
0.0
 40
0.333333
 41
0.333333
  0
VERTEX
  8
0
 10
296.025
 20
20.7068
 30
0.0
 40
0.333333
 41
0.333333
  0
VERTEX
  8
0
 10
296.174
 20
20.7296
 30
0.0
 40
0.333333
 41
0.333333
  0
VERTEX
  8
0
 10
296.289
 20
20.7372
 30
0.0
 40
0.333333
 41
0.333333
  0
VERTEX
  8
0
 10
296.326
 20
20.7372
 30
0.0
 40
0.333333
 41
0.333333
  0
VERTEX
  8
0
 10
296.365
 20
20.7372
 30
0.0
 40
0.333333
 41
0.333333
  0
VERTEX
  8
0
 10
296.481
 20
20.7296
 30
0.0
 40
0.333333
 41
0.333333
  0
VERTEX
  8
0
 10
296.629
 20
20.7068
 30
0.0
 40
0.333333
 41
0.333333
  0
VERTEX
  8
0
 10
296.772
 20
20.6699
 30
0.0
 40
0.333333
 41
0.333333
  0
VERTEX
  8
0
 10
296.911
 20
20.6194
 30
0.0
 40
0.333333
 41
0.333333
  0
VERTEX
  8
0
 10
297.042
 20
20.5563
 30
0.0
 40
0.333333
 41
0.333333
  0
VERTEX
  8
0
 10
297.165
 20
20.4811
 30
0.0
 40
0.333333
 41
0.333333
  0
VERTEX
  8
0
 10
297.281
 20
20.3947
 30
0.0
 40
0.333333
 41
0.333333
  0
VERTEX
  8
0
 10
297.388
 20
20.2979
 30
0.0
 40
0.333333
 41
0.333333
  0
VERTEX
  8
0
 10
297.485
 20
20.1914
 30
0.0
 40
0.333333
 41
0.333333
  0
VERTEX
  8
0
 10
297.571
 20
20.076
 30
0.0
 40
0.333333
 41
0.333333
  0
VERTEX
  8
0
 10
297.646
 20
19.9522
 30
0.0
 40
0.333333
 41
0.333333
  0
VERTEX
  8
0
 10
297.708
 20
19.8211
 30
0.0
 40
0.333333
 41
0.333333
  0
VERTEX
  8
0
 10
297.76
 20
19.6833
 30
0.0
 40
0.333333
 41
0.333333
  0
VERTEX
  8
0
 10
297.796
 20
19.5396
 30
0.0
 40
0.333333
 41
0.333333
  0
VERTEX
  8
0
 10
297.819
 20
19.3907
 30
0.0
 40
0.333333
 41
0.333333
  0
VERTEX
  8
0
 10
297.826
 20
19.2756
 30
0.0
 40
0.333333
 41
0.333333
  0
VERTEX
  8
0
 10
297.826
 20
19.2372
 30
0.0
 40
0.333333
 41
0.333333
  0
SEQEND
 8
0
  0
POLYLINE
  8
0
 62
     0
 66
     1
 10
0
 20
0
 30
0.0
 70
     1
 40
24
 41
24
  0
VERTEX
  8
0
 10
606.603
 20
41.4624
 30
0.0
 40
0.333333
 41
0.333333
  0
VERTEX
  8
0
 10
606.603
 20
41.3812
 30
0.0
 40
0.333333
 41
0.333333
  0
VERTEX
  8
0
 10
606.586
 20
41.1376
 30
0.0
 40
0.333333
 41
0.333333
  0
VERTEX
  8
0
 10
606.537
 20
40.8224
 30
0.0
 40
0.333333
 41
0.333333
  0
VERTEX
  8
0
 10
606.46
 20
40.5182
 30
0.0
 40
0.333333
 41
0.333333
  0
VERTEX
  8
0
 10
606.353
 20
40.2264
 30
0.0
 40
0.333333
 41
0.333333
  0
VERTEX
  8
0
 10
606.219
 20
39.9489
 30
0.0
 40
0.333333
 41
0.333333
  0
VERTEX
  8
0
 10
606.06
 20
39.6871
 30
0.0
 40
0.333333
 41
0.333333
  0
VERTEX
  8
0
 10
605.878
 20
39.4428
 30
0.0
 40
0.333333
 41
0.333333
  0
VERTEX
  8
0
 10
605.672
 20
39.2172
 30
0.0
 40
0.333333
 41
0.333333
  0
VERTEX
  8
0
 10
605.447
 20
39.0124
 30
0.0
 40
0.333333
 41
0.333333
  0
VERTEX
  8
0
 10
605.203
 20
38.8296
 30
0.0
 40
0.333333
 41
0.333333
  0
VERTEX
  8
0
 10
604.94
 20
38.6706
 30
0.0
 40
0.333333
 41
0.333333
  0
VERTEX
  8
0
 10
604.662
 20
38.5368
 30
0.0
 40
0.333333
 41
0.333333
  0
VERTEX
  8
0
 10
604.371
 20
38.43
 30
0.0
 40
0.333333
 41
0.333333
  0
VERTEX
  8
0
 10
604.067
 20
38.3518
 30
0.0
 40
0.333333
 41
0.333333
  0
VERTEX
  8
0
 10
603.751
 20
38.3038
 30
0.0
 40
0.333333
 41
0.333333
  0
VERTEX
  8
0
 10
603.508
 20
38.2872
 30
0.0
 40
0.333333
 41
0.333333
  0
VERTEX
  8
0
 10
603.428
 20
38.2872
 30
0.0
 40
0.333333
 41
0.333333
  0
VERTEX
  8
0
 10
603.346
 20
38.2872
 30
0.0
 40
0.333333
 41
0.333333
  0
VERTEX
  8
0
 10
603.103
 20
38.3038
 30
0.0
 40
0.333333
 41
0.333333
  0
VERTEX
  8
0
 10
602.787
 20
38.3518
 30
0.0
 40
0.333333
 41
0.333333
  0
VERTEX
  8
0
 10
602.483
 20
38.43
 30
0.0
 40
0.333333
 41
0.333333
  0
VERTEX
  8
0
 10
602.192
 20
38.5368
 30
0.0
 40
0.333333
 41
0.333333
  0
VERTEX
  8
0
 10
601.914
 20
38.6706
 30
0.0
 40
0.333333
 41
0.333333
  0
VERTEX
  8
0
 10
601.653
 20
38.8296
 30
0.0
 40
0.333333
 41
0.333333
  0
VERTEX
  8
0
 10
601.408
 20
39.0124
 30
0.0
 40
0.333333
 41
0.333333
  0
VERTEX
  8
0
 10
601.182
 20
39.2172
 30
0.0
 40
0.333333
 41
0.333333
  0
VERTEX
  8
0
 10
600.978
 20
39.4428
 30
0.0
 40
0.333333
 41
0.333333
  0
VERTEX
  8
0
 10
600.794
 20
39.6871
 30
0.0
 40
0.333333
 41
0.333333
  0
VERTEX
  8
0
 10
600.636
 20
39.9489
 30
0.0
 40
0.333333
 41
0.333333
  0
VERTEX
  8
0
 10
600.501
 20
40.2264
 30
0.0
 40
0.333333
 41
0.333333
  0
VERTEX
  8
0
 10
600.394
 20
40.5182
 30
0.0
 40
0.333333
 41
0.333333
  0
VERTEX
  8
0
 10
600.317
 20
40.8224
 30
0.0
 40
0.333333
 41
0.333333
  0
VERTEX
  8
0
 10
600.268
 20
41.1376
 30
0.0
 40
0.333333
 41
0.333333
  0
VERTEX
  8
0
 10
600.253
 20
41.3812
 30
0.0
 40
0.333333
 41
0.333333
  0
VERTEX
  8
0
 10
600.253
 20
41.4624
 30
0.0
 40
0.333333
 41
0.333333
  0
VERTEX
  8
0
 10
600.253
 20
41.5435
 30
0.0
 40
0.333333
 41
0.333333
  0
VERTEX
  8
0
 10
600.268
 20
41.7869
 30
0.0
 40
0.333333
 41
0.333333
  0
VERTEX
  8
0
 10
600.317
 20
42.1022
 30
0.0
 40
0.333333
 41
0.333333
  0
VERTEX
  8
0
 10
600.394
 20
42.4065
 30
0.0
 40
0.333333
 41
0.333333
  0
VERTEX
  8
0
 10
600.501
 20
42.6982
 30
0.0
 40
0.333333
 41
0.333333
  0
VERTEX
  8
0
 10
600.636
 20
42.9757
 30
0.0
 40
0.333333
 41
0.333333
  0
VERTEX
  8
0
 10
600.794
 20
43.2375
 30
0.0
 40
0.333333
 41
0.333333
  0
VERTEX
  8
0
 10
600.978
 20
43.4819
 30
0.0
 40
0.333333
 41
0.333333
  0
VERTEX
  8
0
 10
601.182
 20
43.7074
 30
0.0
 40
0.333333
 41
0.333333
  0
VERTEX
  8
0
 10
601.408
 20
43.9122
 30
0.0
 40
0.333333
 41
0.333333
  0
VERTEX
  8
0
 10
601.653
 20
44.095
 30
0.0
 40
0.333333
 41
0.333333
  0
VERTEX
  8
0
 10
601.914
 20
44.254
 30
0.0
 40
0.333333
 41
0.333333
  0
VERTEX
  8
0
 10
602.192
 20
44.3878
 30
0.0
 40
0.333333
 41
0.333333
  0
VERTEX
  8
0
 10
602.483
 20
44.4946
 30
0.0
 40
0.333333
 41
0.333333
  0
VERTEX
  8
0
 10
602.787
 20
44.5728
 30
0.0
 40
0.333333
 41
0.333333
  0
VERTEX
  8
0
 10
603.103
 20
44.6208
 30
0.0
 40
0.333333
 41
0.333333
  0
VERTEX
  8
0
 10
603.346
 20
44.6372
 30
0.0
 40
0.333333
 41
0.333333
  0
VERTEX
  8
0
 10
603.428
 20
44.6372
 30
0.0
 40
0.333333
 41
0.333333
  0
VERTEX
  8
0
 10
603.508
 20
44.6372
 30
0.0
 40
0.333333
 41
0.333333
  0
VERTEX
  8
0
 10
603.751
 20
44.6208
 30
0.0
 40
0.333333
 41
0.333333
  0
VERTEX
  8
0
 10
604.067
 20
44.5728
 30
0.0
 40
0.333333
 41
0.333333
  0
VERTEX
  8
0
 10
604.371
 20
44.4946
 30
0.0
 40
0.333333
 41
0.333333
  0
VERTEX
  8
0
 10
604.662
 20
44.3878
 30
0.0
 40
0.333333
 41
0.333333
  0
VERTEX
  8
0
 10
604.94
 20
44.254
 30
0.0
 40
0.333333
 41
0.333333
  0
VERTEX
  8
0
 10
605.203
 20
44.095
 30
0.0
 40
0.333333
 41
0.333333
  0
VERTEX
  8
0
 10
605.447
 20
43.9122
 30
0.0
 40
0.333333
 41
0.333333
  0
VERTEX
  8
0
 10
605.672
 20
43.7074
 30
0.0
 40
0.333333
 41
0.333333
  0
VERTEX
  8
0
 10
605.878
 20
43.4819
 30
0.0
 40
0.333333
 41
0.333333
  0
VERTEX
  8
0
 10
606.06
 20
43.2375
 30
0.0
 40
0.333333
 41
0.333333
  0
VERTEX
  8
0
 10
606.219
 20
42.9757
 30
0.0
 40
0.333333
 41
0.333333
  0
VERTEX
  8
0
 10
606.353
 20
42.6982
 30
0.0
 40
0.333333
 41
0.333333
  0
VERTEX
  8
0
 10
606.46
 20
42.4065
 30
0.0
 40
0.333333
 41
0.333333
  0
VERTEX
  8
0
 10
606.537
 20
42.1022
 30
0.0
 40
0.333333
 41
0.333333
  0
VERTEX
  8
0
 10
606.586
 20
41.7869
 30
0.0
 40
0.333333
 41
0.333333
  0
VERTEX
  8
0
 10
606.603
 20
41.5435
 30
0.0
 40
0.333333
 41
0.333333
  0
VERTEX
  8
0
 10
606.603
 20
41.4624
 30
0.0
 40
0.333333
 41
0.333333
  0
SEQEND
 8
0
  0
POLYLINE
  8
0
 62
     0
 66
     1
 10
0
 20
0
 30
0.0
 70
     1
 40
24
 41
24
  0
VERTEX
  8
0
 10
327.826
 20
19.2372
 30
0.0
 40
0.333333
 41
0.333333
  0
VERTEX
  8
0
 10
327.826
 20
19.1989
 30
0.0
 40
0.333333
 41
0.333333
  0
VERTEX
  8
0
 10
327.819
 20
19.0839
 30
0.0
 40
0.333333
 41
0.333333
  0
VERTEX
  8
0
 10
327.796
 20
18.935
 30
0.0
 40
0.333333
 41
0.333333
  0
VERTEX
  8
0
 10
327.76
 20
18.7912
 30
0.0
 40
0.333333
 41
0.333333
  0
VERTEX
  8
0
 10
327.71
 20
18.6533
 30
0.0
 40
0.333333
 41
0.333333
  0
VERTEX
  8
0
 10
327.646
 20
18.5224
 30
0.0
 40
0.333333
 41
0.333333
  0
VERTEX
  8
0
 10
327.571
 20
18.3986
 30
0.0
 40
0.333333
 41
0.333333
  0
VERTEX
  8
0
 10
327.485
 20
18.2832
 30
0.0
 40
0.333333
 41
0.333333
  0
VERTEX
  8
0
 10
327.388
 20
18.1765
 30
0.0
 40
0.333333
 41
0.333333
  0
VERTEX
  8
0
 10
327.281
 20
18.0799
 30
0.0
 40
0.333333
 41
0.333333
  0
VERTEX
  8
0
 10
327.165
 20
17.9935
 30
0.0
 40
0.333333
 41
0.333333
  0
VERTEX
  8
0
 10
327.042
 20
17.9183
 30
0.0
 40
0.333333
 41
0.333333
  0
VERTEX
  8
0
 10
326.911
 20
17.8551
 30
0.0
 40
0.333333
 41
0.333333
  0
VERTEX
  8
0
 10
326.774
 20
17.8047
 30
0.0
 40
0.333333
 41
0.333333
  0
VERTEX
  8
0
 10
326.629
 20
17.7678
 30
0.0
 40
0.333333
 41
0.333333
  0
VERTEX
  8
0
 10
326.481
 20
17.745
 30
0.0
 40
0.333333
 41
0.333333
  0
VERTEX
  8
0
 10
326.365
 20
17.7372
 30
0.0
 40
0.333333
 41
0.333333
  0
VERTEX
  8
0
 10
326.326
 20
17.7372
 30
0.0
 40
0.333333
 41
0.333333
  0
VERTEX
  8
0
 10
326.289
 20
17.7372
 30
0.0
 40
0.333333
 41
0.333333
  0
VERTEX
  8
0
 10
326.174
 20
17.745
 30
0.0
 40
0.333333
 41
0.333333
  0
VERTEX
  8
0
 10
326.025
 20
17.7678
 30
0.0
 40
0.333333
 41
0.333333
  0
VERTEX
  8
0
 10
325.881
 20
17.8047
 30
0.0
 40
0.333333
 41
0.333333
  0
VERTEX
  8
0
 10
325.743
 20
17.8551
 30
0.0
 40
0.333333
 41
0.333333
  0
VERTEX
  8
0
 10
325.612
 20
17.9183
 30
0.0
 40
0.333333
 41
0.333333
  0
VERTEX
  8
0
 10
325.489
 20
17.9935
 30
0.0
 40
0.333333
 41
0.333333
  0
VERTEX
  8
0
 10
325.372
 20
18.0799
 30
0.0
 40
0.333333
 41
0.333333
  0
VERTEX
  8
0
 10
325.267
 20
18.1765
 30
0.0
 40
0.333333
 41
0.333333
  0
VERTEX
  8
0
 10
325.169
 20
18.2832
 30
0.0
 40
0.333333
 41
0.333333
  0
VERTEX
  8
0
 10
325.083
 20
18.3986
 30
0.0
 40
0.333333
 41
0.333333
  0
VERTEX
  8
0
 10
325.008
 20
18.5224
 30
0.0
 40
0.333333
 41
0.333333
  0
VERTEX
  8
0
 10
324.944
 20
18.6533
 30
0.0
 40
0.333333
 41
0.333333
  0
VERTEX
  8
0
 10
324.894
 20
18.7912
 30
0.0
 40
0.333333
 41
0.333333
  0
VERTEX
  8
0
 10
324.857
 20
18.935
 30
0.0
 40
0.333333
 41
0.333333
  0
VERTEX
  8
0
 10
324.835
 20
19.0839
 30
0.0
 40
0.333333
 41
0.333333
  0
VERTEX
  8
0
 10
324.826
 20
19.1989
 30
0.0
 40
0.333333
 41
0.333333
  0
VERTEX
  8
0
 10
324.826
 20
19.2372
 30
0.0
 40
0.333333
 41
0.333333
  0
VERTEX
  8
0
 10
324.826
 20
19.2756
 30
0.0
 40
0.333333
 41
0.333333
  0
VERTEX
  8
0
 10
324.835
 20
19.3907
 30
0.0
 40
0.333333
 41
0.333333
  0
VERTEX
  8
0
 10
324.857
 20
19.5396
 30
0.0
 40
0.333333
 41
0.333333
  0
VERTEX
  8
0
 10
324.894
 20
19.6833
 30
0.0
 40
0.333333
 41
0.333333
  0
VERTEX
  8
0
 10
324.944
 20
19.8211
 30
0.0
 40
0.333333
 41
0.333333
  0
VERTEX
  8
0
 10
325.008
 20
19.9522
 30
0.0
 40
0.333333
 41
0.333333
  0
VERTEX
  8
0
 10
325.083
 20
20.076
 30
0.0
 40
0.333333
 41
0.333333
  0
VERTEX
  8
0
 10
325.169
 20
20.1914
 30
0.0
 40
0.333333
 41
0.333333
  0
VERTEX
  8
0
 10
325.267
 20
20.2979
 30
0.0
 40
0.333333
 41
0.333333
  0
VERTEX
  8
0
 10
325.372
 20
20.3947
 30
0.0
 40
0.333333
 41
0.333333
  0
VERTEX
  8
0
 10
325.489
 20
20.4811
 30
0.0
 40
0.333333
 41
0.333333
  0
VERTEX
  8
0
 10
325.612
 20
20.5563
 30
0.0
 40
0.333333
 41
0.333333
  0
VERTEX
  8
0
 10
325.743
 20
20.6194
 30
0.0
 40
0.333333
 41
0.333333
  0
VERTEX
  8
0
 10
325.881
 20
20.6699
 30
0.0
 40
0.333333
 41
0.333333
  0
VERTEX
  8
0
 10
326.025
 20
20.7068
 30
0.0
 40
0.333333
 41
0.333333
  0
VERTEX
  8
0
 10
326.174
 20
20.7296
 30
0.0
 40
0.333333
 41
0.333333
  0
VERTEX
  8
0
 10
326.289
 20
20.7372
 30
0.0
 40
0.333333
 41
0.333333
  0
VERTEX
  8
0
 10
326.326
 20
20.7372
 30
0.0
 40
0.333333
 41
0.333333
  0
VERTEX
  8
0
 10
326.365
 20
20.7372
 30
0.0
 40
0.333333
 41
0.333333
  0
VERTEX
  8
0
 10
326.481
 20
20.7296
 30
0.0
 40
0.333333
 41
0.333333
  0
VERTEX
  8
0
 10
326.629
 20
20.7068
 30
0.0
 40
0.333333
 41
0.333333
  0
VERTEX
  8
0
 10
326.774
 20
20.6699
 30
0.0
 40
0.333333
 41
0.333333
  0
VERTEX
  8
0
 10
326.911
 20
20.6194
 30
0.0
 40
0.333333
 41
0.333333
  0
VERTEX
  8
0
 10
327.042
 20
20.5563
 30
0.0
 40
0.333333
 41
0.333333
  0
VERTEX
  8
0
 10
327.165
 20
20.4811
 30
0.0
 40
0.333333
 41
0.333333
  0
VERTEX
  8
0
 10
327.281
 20
20.3947
 30
0.0
 40
0.333333
 41
0.333333
  0
VERTEX
  8
0
 10
327.388
 20
20.2979
 30
0.0
 40
0.333333
 41
0.333333
  0
VERTEX
  8
0
 10
327.485
 20
20.1914
 30
0.0
 40
0.333333
 41
0.333333
  0
VERTEX
  8
0
 10
327.571
 20
20.076
 30
0.0
 40
0.333333
 41
0.333333
  0
VERTEX
  8
0
 10
327.646
 20
19.9522
 30
0.0
 40
0.333333
 41
0.333333
  0
VERTEX
  8
0
 10
327.71
 20
19.8211
 30
0.0
 40
0.333333
 41
0.333333
  0
VERTEX
  8
0
 10
327.76
 20
19.6833
 30
0.0
 40
0.333333
 41
0.333333
  0
VERTEX
  8
0
 10
327.796
 20
19.5396
 30
0.0
 40
0.333333
 41
0.333333
  0
VERTEX
  8
0
 10
327.819
 20
19.3907
 30
0.0
 40
0.333333
 41
0.333333
  0
VERTEX
  8
0
 10
327.826
 20
19.2756
 30
0.0
 40
0.333333
 41
0.333333
  0
VERTEX
  8
0
 10
327.826
 20
19.2372
 30
0.0
 40
0.333333
 41
0.333333
  0
SEQEND
 8
0
  0
POLYLINE
  8
0
 62
     0
 66
     1
 10
0
 20
0
 30
0.0
 70
     1
 40
24
 41
24
  0
VERTEX
  8
0
 10
343.576
 20
19.2372
 30
0.0
 40
0.333333
 41
0.333333
  0
VERTEX
  8
0
 10
343.576
 20
19.1989
 30
0.0
 40
0.333333
 41
0.333333
  0
VERTEX
  8
0
 10
343.569
 20
19.0839
 30
0.0
 40
0.333333
 41
0.333333
  0
VERTEX
  8
0
 10
343.546
 20
18.935
 30
0.0
 40
0.333333
 41
0.333333
  0
VERTEX
  8
0
 10
343.51
 20
18.7912
 30
0.0
 40
0.333333
 41
0.333333
  0
VERTEX
  8
0
 10
343.46
 20
18.6533
 30
0.0
 40
0.333333
 41
0.333333
  0
VERTEX
  8
0
 10
343.396
 20
18.5224
 30
0.0
 40
0.333333
 41
0.333333
  0
VERTEX
  8
0
 10
343.321
 20
18.3986
 30
0.0
 40
0.333333
 41
0.333333
  0
VERTEX
  8
0
 10
343.235
 20
18.2832
 30
0.0
 40
0.333333
 41
0.333333
  0
VERTEX
  8
0
 10
343.138
 20
18.1765
 30
0.0
 40
0.333333
 41
0.333333
  0
VERTEX
  8
0
 10
343.031
 20
18.0799
 30
0.0
 40
0.333333
 41
0.333333
  0
VERTEX
  8
0
 10
342.915
 20
17.9935
 30
0.0
 40
0.333333
 41
0.333333
  0
VERTEX
  8
0
 10
342.792
 20
17.9183
 30
0.0
 40
0.333333
 41
0.333333
  0
VERTEX
  8
0
 10
342.661
 20
17.8551
 30
0.0
 40
0.333333
 41
0.333333
  0
VERTEX
  8
0
 10
342.524
 20
17.8047
 30
0.0
 40
0.333333
 41
0.333333
  0
VERTEX
  8
0
 10
342.379
 20
17.7678
 30
0.0
 40
0.333333
 41
0.333333
  0
VERTEX
  8
0
 10
342.231
 20
17.745
 30
0.0
 40
0.333333
 41
0.333333
  0
VERTEX
  8
0
 10
342.115
 20
17.7372
 30
0.0
 40
0.333333
 41
0.333333
  0
VERTEX
  8
0
 10
342.076
 20
17.7372
 30
0.0
 40
0.333333
 41
0.333333
  0
VERTEX
  8
0
 10
342.039
 20
17.7372
 30
0.0
 40
0.333333
 41
0.333333
  0
VERTEX
  8
0
 10
341.924
 20
17.745
 30
0.0
 40
0.333333
 41
0.333333
  0
VERTEX
  8
0
 10
341.775
 20
17.7678
 30
0.0
 40
0.333333
 41
0.333333
  0
VERTEX
  8
0
 10
341.631
 20
17.8047
 30
0.0
 40
0.333333
 41
0.333333
  0
VERTEX
  8
0
 10
341.493
 20
17.8551
 30
0.0
 40
0.333333
 41
0.333333
  0
VERTEX
  8
0
 10
341.362
 20
17.9183
 30
0.0
 40
0.333333
 41
0.333333
  0
VERTEX
  8
0
 10
341.239
 20
17.9935
 30
0.0
 40
0.333333
 41
0.333333
  0
VERTEX
  8
0
 10
341.122
 20
18.0799
 30
0.0
 40
0.333333
 41
0.333333
  0
VERTEX
  8
0
 10
341.017
 20
18.1765
 30
0.0
 40
0.333333
 41
0.333333
  0
VERTEX
  8
0
 10
340.919
 20
18.2832
 30
0.0
 40
0.333333
 41
0.333333
  0
VERTEX
  8
0
 10
340.833
 20
18.3986
 30
0.0
 40
0.333333
 41
0.333333
  0
VERTEX
  8
0
 10
340.758
 20
18.5224
 30
0.0
 40
0.333333
 41
0.333333
  0
VERTEX
  8
0
 10
340.694
 20
18.6533
 30
0.0
 40
0.333333
 41
0.333333
  0
VERTEX
  8
0
 10
340.644
 20
18.7912
 30
0.0
 40
0.333333
 41
0.333333
  0
VERTEX
  8
0
 10
340.607
 20
18.935
 30
0.0
 40
0.333333
 41
0.333333
  0
VERTEX
  8
0
 10
340.585
 20
19.0839
 30
0.0
 40
0.333333
 41
0.333333
  0
VERTEX
  8
0
 10
340.576
 20
19.1989
 30
0.0
 40
0.333333
 41
0.333333
  0
VERTEX
  8
0
 10
340.576
 20
19.2372
 30
0.0
 40
0.333333
 41
0.333333
  0
VERTEX
  8
0
 10
340.576
 20
19.2756
 30
0.0
 40
0.333333
 41
0.333333
  0
VERTEX
  8
0
 10
340.585
 20
19.3907
 30
0.0
 40
0.333333
 41
0.333333
  0
VERTEX
  8
0
 10
340.607
 20
19.5396
 30
0.0
 40
0.333333
 41
0.333333
  0
VERTEX
  8
0
 10
340.644
 20
19.6833
 30
0.0
 40
0.333333
 41
0.333333
  0
VERTEX
  8
0
 10
340.694
 20
19.8211
 30
0.0
 40
0.333333
 41
0.333333
  0
VERTEX
  8
0
 10
340.758
 20
19.9522
 30
0.0
 40
0.333333
 41
0.333333
  0
VERTEX
  8
0
 10
340.833
 20
20.076
 30
0.0
 40
0.333333
 41
0.333333
  0
VERTEX
  8
0
 10
340.919
 20
20.1914
 30
0.0
 40
0.333333
 41
0.333333
  0
VERTEX
  8
0
 10
341.017
 20
20.2979
 30
0.0
 40
0.333333
 41
0.333333
  0
VERTEX
  8
0
 10
341.122
 20
20.3947
 30
0.0
 40
0.333333
 41
0.333333
  0
VERTEX
  8
0
 10
341.239
 20
20.4811
 30
0.0
 40
0.333333
 41
0.333333
  0
VERTEX
  8
0
 10
341.362
 20
20.5563
 30
0.0
 40
0.333333
 41
0.333333
  0
VERTEX
  8
0
 10
341.493
 20
20.6194
 30
0.0
 40
0.333333
 41
0.333333
  0
VERTEX
  8
0
 10
341.631
 20
20.6699
 30
0.0
 40
0.333333
 41
0.333333
  0
VERTEX
  8
0
 10
341.775
 20
20.7068
 30
0.0
 40
0.333333
 41
0.333333
  0
VERTEX
  8
0
 10
341.924
 20
20.7296
 30
0.0
 40
0.333333
 41
0.333333
  0
VERTEX
  8
0
 10
342.039
 20
20.7372
 30
0.0
 40
0.333333
 41
0.333333
  0
VERTEX
  8
0
 10
342.076
 20
20.7372
 30
0.0
 40
0.333333
 41
0.333333
  0
VERTEX
  8
0
 10
342.115
 20
20.7372
 30
0.0
 40
0.333333
 41
0.333333
  0
VERTEX
  8
0
 10
342.231
 20
20.7296
 30
0.0
 40
0.333333
 41
0.333333
  0
VERTEX
  8
0
 10
342.379
 20
20.7068
 30
0.0
 40
0.333333
 41
0.333333
  0
VERTEX
  8
0
 10
342.524
 20
20.6699
 30
0.0
 40
0.333333
 41
0.333333
  0
VERTEX
  8
0
 10
342.661
 20
20.6194
 30
0.0
 40
0.333333
 41
0.333333
  0
VERTEX
  8
0
 10
342.792
 20
20.5563
 30
0.0
 40
0.333333
 41
0.333333
  0
VERTEX
  8
0
 10
342.915
 20
20.4811
 30
0.0
 40
0.333333
 41
0.333333
  0
VERTEX
  8
0
 10
343.031
 20
20.3947
 30
0.0
 40
0.333333
 41
0.333333
  0
VERTEX
  8
0
 10
343.138
 20
20.2979
 30
0.0
 40
0.333333
 41
0.333333
  0
VERTEX
  8
0
 10
343.235
 20
20.1914
 30
0.0
 40
0.333333
 41
0.333333
  0
VERTEX
  8
0
 10
343.321
 20
20.076
 30
0.0
 40
0.333333
 41
0.333333
  0
VERTEX
  8
0
 10
343.396
 20
19.9522
 30
0.0
 40
0.333333
 41
0.333333
  0
VERTEX
  8
0
 10
343.46
 20
19.8211
 30
0.0
 40
0.333333
 41
0.333333
  0
VERTEX
  8
0
 10
343.51
 20
19.6833
 30
0.0
 40
0.333333
 41
0.333333
  0
VERTEX
  8
0
 10
343.546
 20
19.5396
 30
0.0
 40
0.333333
 41
0.333333
  0
VERTEX
  8
0
 10
343.569
 20
19.3907
 30
0.0
 40
0.333333
 41
0.333333
  0
VERTEX
  8
0
 10
343.576
 20
19.2756
 30
0.0
 40
0.333333
 41
0.333333
  0
VERTEX
  8
0
 10
343.576
 20
19.2372
 30
0.0
 40
0.333333
 41
0.333333
  0
SEQEND
 8
0
  0
POLYLINE
  8
0
 62
     0
 66
     1
 10
0
 20
0
 30
0.0
 70
     1
 40
24
 41
24
  0
VERTEX
  8
0
 10
343.576
 20
165.288
 30
0.0
 40
0.333333
 41
0.333333
  0
VERTEX
  8
0
 10
343.576
 20
165.249
 30
0.0
 40
0.333333
 41
0.333333
  0
VERTEX
  8
0
 10
343.569
 20
165.135
 30
0.0
 40
0.333333
 41
0.333333
  0
VERTEX
  8
0
 10
343.546
 20
164.985
 30
0.0
 40
0.333333
 41
0.333333
  0
VERTEX
  8
0
 10
343.51
 20
164.842
 30
0.0
 40
0.333333
 41
0.333333
  0
VERTEX
  8
0
 10
343.46
 20
164.704
 30
0.0
 40
0.333333
 41
0.333333
  0
VERTEX
  8
0
 10
343.396
 20
164.572
 30
0.0
 40
0.333333
 41
0.333333
  0
VERTEX
  8
0
 10
343.321
 20
164.449
 30
0.0
 40
0.333333
 41
0.333333
  0
VERTEX
  8
0
 10
343.235
 20
164.333
 30
0.0
 40
0.333333
 41
0.333333
  0
VERTEX
  8
0
 10
343.138
 20
164.226
 30
0.0
 40
0.333333
 41
0.333333
  0
VERTEX
  8
0
 10
343.031
 20
164.131
 30
0.0
 40
0.333333
 41
0.333333
  0
VERTEX
  8
0
 10
342.915
 20
164.043
 30
0.0
 40
0.333333
 41
0.333333
  0
VERTEX
  8
0
 10
342.792
 20
163.968
 30
0.0
 40
0.333333
 41
0.333333
  0
VERTEX
  8
0
 10
342.661
 20
163.906
 30
0.0
 40
0.333333
 41
0.333333
  0
VERTEX
  8
0
 10
342.524
 20
163.856
 30
0.0
 40
0.333333
 41
0.333333
  0
VERTEX
  8
0
 10
342.379
 20
163.818
 30
0.0
 40
0.333333
 41
0.333333
  0
VERTEX
  8
0
 10
342.231
 20
163.796
 30
0.0
 40
0.333333
 41
0.333333
  0
VERTEX
  8
0
 10
342.115
 20
163.788
 30
0.0
 40
0.333333
 41
0.333333
  0
VERTEX
  8
0
 10
342.076
 20
163.788
 30
0.0
 40
0.333333
 41
0.333333
  0
VERTEX
  8
0
 10
342.039
 20
163.788
 30
0.0
 40
0.333333
 41
0.333333
  0
VERTEX
  8
0
 10
341.924
 20
163.796
 30
0.0
 40
0.333333
 41
0.333333
  0
VERTEX
  8
0
 10
341.775
 20
163.818
 30
0.0
 40
0.333333
 41
0.333333
  0
VERTEX
  8
0
 10
341.631
 20
163.856
 30
0.0
 40
0.333333
 41
0.333333
  0
VERTEX
  8
0
 10
341.493
 20
163.906
 30
0.0
 40
0.333333
 41
0.333333
  0
VERTEX
  8
0
 10
341.362
 20
163.968
 30
0.0
 40
0.333333
 41
0.333333
  0
VERTEX
  8
0
 10
341.239
 20
164.043
 30
0.0
 40
0.333333
 41
0.333333
  0
VERTEX
  8
0
 10
341.122
 20
164.131
 30
0.0
 40
0.333333
 41
0.333333
  0
VERTEX
  8
0
 10
341.017
 20
164.226
 30
0.0
 40
0.333333
 41
0.333333
  0
VERTEX
  8
0
 10
340.919
 20
164.333
 30
0.0
 40
0.333333
 41
0.333333
  0
VERTEX
  8
0
 10
340.833
 20
164.449
 30
0.0
 40
0.333333
 41
0.333333
  0
VERTEX
  8
0
 10
340.758
 20
164.572
 30
0.0
 40
0.333333
 41
0.333333
  0
VERTEX
  8
0
 10
340.694
 20
164.704
 30
0.0
 40
0.333333
 41
0.333333
  0
VERTEX
  8
0
 10
340.644
 20
164.842
 30
0.0
 40
0.333333
 41
0.333333
  0
VERTEX
  8
0
 10
340.607
 20
164.985
 30
0.0
 40
0.333333
 41
0.333333
  0
VERTEX
  8
0
 10
340.585
 20
165.135
 30
0.0
 40
0.333333
 41
0.333333
  0
VERTEX
  8
0
 10
340.576
 20
165.249
 30
0.0
 40
0.333333
 41
0.333333
  0
VERTEX
  8
0
 10
340.576
 20
165.288
 30
0.0
 40
0.333333
 41
0.333333
  0
VERTEX
  8
0
 10
340.576
 20
165.326
 30
0.0
 40
0.333333
 41
0.333333
  0
VERTEX
  8
0
 10
340.585
 20
165.44
 30
0.0
 40
0.333333
 41
0.333333
  0
VERTEX
  8
0
 10
340.607
 20
165.59
 30
0.0
 40
0.333333
 41
0.333333
  0
VERTEX
  8
0
 10
340.644
 20
165.733
 30
0.0
 40
0.333333
 41
0.333333
  0
VERTEX
  8
0
 10
340.694
 20
165.871
 30
0.0
 40
0.333333
 41
0.333333
  0
VERTEX
  8
0
 10
340.758
 20
166.003
 30
0.0
 40
0.333333
 41
0.333333
  0
VERTEX
  8
0
 10
340.833
 20
166.126
 30
0.0
 40
0.333333
 41
0.333333
  0
VERTEX
  8
0
 10
340.919
 20
166.242
 30
0.0
 40
0.333333
 41
0.333333
  0
VERTEX
  8
0
 10
341.017
 20
166.349
 30
0.0
 40
0.333333
 41
0.333333
  0
VERTEX
  8
0
 10
341.122
 20
166.444
 30
0.0
 40
0.333333
 41
0.333333
  0
VERTEX
  8
0
 10
341.239
 20
166.532
 30
0.0
 40
0.333333
 41
0.333333
  0
VERTEX
  8
0
 10
341.362
 20
166.607
 30
0.0
 40
0.333333
 41
0.333333
  0
VERTEX
  8
0
 10
341.493
 20
166.669
 30
0.0
 40
0.333333
 41
0.333333
  0
VERTEX
  8
0
 10
341.631
 20
166.719
 30
0.0
 40
0.333333
 41
0.333333
  0
VERTEX
  8
0
 10
341.775
 20
166.757
 30
0.0
 40
0.333333
 41
0.333333
  0
VERTEX
  8
0
 10
341.924
 20
166.779
 30
0.0
 40
0.333333
 41
0.333333
  0
VERTEX
  8
0
 10
342.039
 20
166.788
 30
0.0
 40
0.333333
 41
0.333333
  0
VERTEX
  8
0
 10
342.076
 20
166.788
 30
0.0
 40
0.333333
 41
0.333333
  0
VERTEX
  8
0
 10
342.115
 20
166.788
 30
0.0
 40
0.333333
 41
0.333333
  0
VERTEX
  8
0
 10
342.231
 20
166.779
 30
0.0
 40
0.333333
 41
0.333333
  0
VERTEX
  8
0
 10
342.379
 20
166.757
 30
0.0
 40
0.333333
 41
0.333333
  0
VERTEX
  8
0
 10
342.524
 20
166.719
 30
0.0
 40
0.333333
 41
0.333333
  0
VERTEX
  8
0
 10
342.661
 20
166.669
 30
0.0
 40
0.333333
 41
0.333333
  0
VERTEX
  8
0
 10
342.792
 20
166.607
 30
0.0
 40
0.333333
 41
0.333333
  0
VERTEX
  8
0
 10
342.915
 20
166.532
 30
0.0
 40
0.333333
 41
0.333333
  0
VERTEX
  8
0
 10
343.031
 20
166.444
 30
0.0
 40
0.333333
 41
0.333333
  0
VERTEX
  8
0
 10
343.138
 20
166.349
 30
0.0
 40
0.333333
 41
0.333333
  0
VERTEX
  8
0
 10
343.235
 20
166.242
 30
0.0
 40
0.333333
 41
0.333333
  0
VERTEX
  8
0
 10
343.321
 20
166.126
 30
0.0
 40
0.333333
 41
0.333333
  0
VERTEX
  8
0
 10
343.396
 20
166.003
 30
0.0
 40
0.333333
 41
0.333333
  0
VERTEX
  8
0
 10
343.46
 20
165.871
 30
0.0
 40
0.333333
 41
0.333333
  0
VERTEX
  8
0
 10
343.51
 20
165.733
 30
0.0
 40
0.333333
 41
0.333333
  0
VERTEX
  8
0
 10
343.546
 20
165.59
 30
0.0
 40
0.333333
 41
0.333333
  0
VERTEX
  8
0
 10
343.569
 20
165.44
 30
0.0
 40
0.333333
 41
0.333333
  0
VERTEX
  8
0
 10
343.576
 20
165.326
 30
0.0
 40
0.333333
 41
0.333333
  0
VERTEX
  8
0
 10
343.576
 20
165.288
 30
0.0
 40
0.333333
 41
0.333333
  0
SEQEND
 8
0
  0
POLYLINE
  8
0
 62
     0
 66
     1
 10
0
 20
0
 30
0.0
 70
     1
 40
24
 41
24
  0
VERTEX
  8
0
 10
327.826
 20
165.288
 30
0.0
 40
0.333333
 41
0.333333
  0
VERTEX
  8
0
 10
327.826
 20
165.249
 30
0.0
 40
0.333333
 41
0.333333
  0
VERTEX
  8
0
 10
327.819
 20
165.135
 30
0.0
 40
0.333333
 41
0.333333
  0
VERTEX
  8
0
 10
327.796
 20
164.985
 30
0.0
 40
0.333333
 41
0.333333
  0
VERTEX
  8
0
 10
327.76
 20
164.842
 30
0.0
 40
0.333333
 41
0.333333
  0
VERTEX
  8
0
 10
327.71
 20
164.704
 30
0.0
 40
0.333333
 41
0.333333
  0
VERTEX
  8
0
 10
327.646
 20
164.572
 30
0.0
 40
0.333333
 41
0.333333
  0
VERTEX
  8
0
 10
327.571
 20
164.449
 30
0.0
 40
0.333333
 41
0.333333
  0
VERTEX
  8
0
 10
327.485
 20
164.333
 30
0.0
 40
0.333333
 41
0.333333
  0
VERTEX
  8
0
 10
327.388
 20
164.226
 30
0.0
 40
0.333333
 41
0.333333
  0
VERTEX
  8
0
 10
327.281
 20
164.131
 30
0.0
 40
0.333333
 41
0.333333
  0
VERTEX
  8
0
 10
327.165
 20
164.043
 30
0.0
 40
0.333333
 41
0.333333
  0
VERTEX
  8
0
 10
327.042
 20
163.968
 30
0.0
 40
0.333333
 41
0.333333
  0
VERTEX
  8
0
 10
326.911
 20
163.906
 30
0.0
 40
0.333333
 41
0.333333
  0
VERTEX
  8
0
 10
326.774
 20
163.856
 30
0.0
 40
0.333333
 41
0.333333
  0
VERTEX
  8
0
 10
326.629
 20
163.818
 30
0.0
 40
0.333333
 41
0.333333
  0
VERTEX
  8
0
 10
326.481
 20
163.796
 30
0.0
 40
0.333333
 41
0.333333
  0
VERTEX
  8
0
 10
326.365
 20
163.788
 30
0.0
 40
0.333333
 41
0.333333
  0
VERTEX
  8
0
 10
326.326
 20
163.788
 30
0.0
 40
0.333333
 41
0.333333
  0
VERTEX
  8
0
 10
326.289
 20
163.788
 30
0.0
 40
0.333333
 41
0.333333
  0
VERTEX
  8
0
 10
326.174
 20
163.796
 30
0.0
 40
0.333333
 41
0.333333
  0
VERTEX
  8
0
 10
326.025
 20
163.818
 30
0.0
 40
0.333333
 41
0.333333
  0
VERTEX
  8
0
 10
325.881
 20
163.856
 30
0.0
 40
0.333333
 41
0.333333
  0
VERTEX
  8
0
 10
325.743
 20
163.906
 30
0.0
 40
0.333333
 41
0.333333
  0
VERTEX
  8
0
 10
325.612
 20
163.968
 30
0.0
 40
0.333333
 41
0.333333
  0
VERTEX
  8
0
 10
325.489
 20
164.043
 30
0.0
 40
0.333333
 41
0.333333
  0
VERTEX
  8
0
 10
325.372
 20
164.131
 30
0.0
 40
0.333333
 41
0.333333
  0
VERTEX
  8
0
 10
325.267
 20
164.226
 30
0.0
 40
0.333333
 41
0.333333
  0
VERTEX
  8
0
 10
325.169
 20
164.333
 30
0.0
 40
0.333333
 41
0.333333
  0
VERTEX
  8
0
 10
325.083
 20
164.449
 30
0.0
 40
0.333333
 41
0.333333
  0
VERTEX
  8
0
 10
325.008
 20
164.572
 30
0.0
 40
0.333333
 41
0.333333
  0
VERTEX
  8
0
 10
324.944
 20
164.704
 30
0.0
 40
0.333333
 41
0.333333
  0
VERTEX
  8
0
 10
324.894
 20
164.842
 30
0.0
 40
0.333333
 41
0.333333
  0
VERTEX
  8
0
 10
324.857
 20
164.985
 30
0.0
 40
0.333333
 41
0.333333
  0
VERTEX
  8
0
 10
324.835
 20
165.135
 30
0.0
 40
0.333333
 41
0.333333
  0
VERTEX
  8
0
 10
324.826
 20
165.249
 30
0.0
 40
0.333333
 41
0.333333
  0
VERTEX
  8
0
 10
324.826
 20
165.288
 30
0.0
 40
0.333333
 41
0.333333
  0
VERTEX
  8
0
 10
324.826
 20
165.326
 30
0.0
 40
0.333333
 41
0.333333
  0
VERTEX
  8
0
 10
324.835
 20
165.44
 30
0.0
 40
0.333333
 41
0.333333
  0
VERTEX
  8
0
 10
324.857
 20
165.59
 30
0.0
 40
0.333333
 41
0.333333
  0
VERTEX
  8
0
 10
324.894
 20
165.733
 30
0.0
 40
0.333333
 41
0.333333
  0
VERTEX
  8
0
 10
324.944
 20
165.871
 30
0.0
 40
0.333333
 41
0.333333
  0
VERTEX
  8
0
 10
325.008
 20
166.003
 30
0.0
 40
0.333333
 41
0.333333
  0
VERTEX
  8
0
 10
325.083
 20
166.126
 30
0.0
 40
0.333333
 41
0.333333
  0
VERTEX
  8
0
 10
325.169
 20
166.242
 30
0.0
 40
0.333333
 41
0.333333
  0
VERTEX
  8
0
 10
325.267
 20
166.349
 30
0.0
 40
0.333333
 41
0.333333
  0
VERTEX
  8
0
 10
325.372
 20
166.444
 30
0.0
 40
0.333333
 41
0.333333
  0
VERTEX
  8
0
 10
325.489
 20
166.532
 30
0.0
 40
0.333333
 41
0.333333
  0
VERTEX
  8
0
 10
325.612
 20
166.607
 30
0.0
 40
0.333333
 41
0.333333
  0
VERTEX
  8
0
 10
325.743
 20
166.669
 30
0.0
 40
0.333333
 41
0.333333
  0
VERTEX
  8
0
 10
325.881
 20
166.719
 30
0.0
 40
0.333333
 41
0.333333
  0
VERTEX
  8
0
 10
326.025
 20
166.757
 30
0.0
 40
0.333333
 41
0.333333
  0
VERTEX
  8
0
 10
326.174
 20
166.779
 30
0.0
 40
0.333333
 41
0.333333
  0
VERTEX
  8
0
 10
326.289
 20
166.788
 30
0.0
 40
0.333333
 41
0.333333
  0
VERTEX
  8
0
 10
326.326
 20
166.788
 30
0.0
 40
0.333333
 41
0.333333
  0
VERTEX
  8
0
 10
326.365
 20
166.788
 30
0.0
 40
0.333333
 41
0.333333
  0
VERTEX
  8
0
 10
326.481
 20
166.779
 30
0.0
 40
0.333333
 41
0.333333
  0
VERTEX
  8
0
 10
326.629
 20
166.757
 30
0.0
 40
0.333333
 41
0.333333
  0
VERTEX
  8
0
 10
326.774
 20
166.719
 30
0.0
 40
0.333333
 41
0.333333
  0
VERTEX
  8
0
 10
326.911
 20
166.669
 30
0.0
 40
0.333333
 41
0.333333
  0
VERTEX
  8
0
 10
327.042
 20
166.607
 30
0.0
 40
0.333333
 41
0.333333
  0
VERTEX
  8
0
 10
327.165
 20
166.532
 30
0.0
 40
0.333333
 41
0.333333
  0
VERTEX
  8
0
 10
327.281
 20
166.444
 30
0.0
 40
0.333333
 41
0.333333
  0
VERTEX
  8
0
 10
327.388
 20
166.349
 30
0.0
 40
0.333333
 41
0.333333
  0
VERTEX
  8
0
 10
327.485
 20
166.242
 30
0.0
 40
0.333333
 41
0.333333
  0
VERTEX
  8
0
 10
327.571
 20
166.126
 30
0.0
 40
0.333333
 41
0.333333
  0
VERTEX
  8
0
 10
327.646
 20
166.003
 30
0.0
 40
0.333333
 41
0.333333
  0
VERTEX
  8
0
 10
327.71
 20
165.871
 30
0.0
 40
0.333333
 41
0.333333
  0
VERTEX
  8
0
 10
327.76
 20
165.733
 30
0.0
 40
0.333333
 41
0.333333
  0
VERTEX
  8
0
 10
327.796
 20
165.59
 30
0.0
 40
0.333333
 41
0.333333
  0
VERTEX
  8
0
 10
327.819
 20
165.44
 30
0.0
 40
0.333333
 41
0.333333
  0
VERTEX
  8
0
 10
327.826
 20
165.326
 30
0.0
 40
0.333333
 41
0.333333
  0
VERTEX
  8
0
 10
327.826
 20
165.288
 30
0.0
 40
0.333333
 41
0.333333
  0
SEQEND
 8
0
  0
POLYLINE
  8
0
 62
     0
 66
     1
 10
0
 20
0
 30
0.0
 40
25.4
 41
25.4
  0
VERTEX
  8
0
 10
311.326
 20
88.2936
 30
0.0
 40
0.352778
 41
0.352778
  0
VERTEX
  8
0
 10
311.326
 20
3.36219
 30
0.0
 40
0.352778
 41
0.352778
  0
VERTEX
  8
0
 10
266.876
 20
3.36219
 30
0.0
 40
0.352778
 41
0.352778
  0
VERTEX
  8
0
 10
266.876
 20
0.187229
 30
0.0
 40
0.352778
 41
0.352778
  0
VERTEX
  8
0
 10
222.426
 20
0.187229
 30
0.0
 40
0.352778
 41
0.352778
  0
VERTEX
  8
0
 10
222.426
 20
3.36219
 30
0.0
 40
0.352778
 41
0.352778
  0
VERTEX
  8
0
 10
177.976
 20
3.36219
 30
0.0
 40
0.352778
 41
0.352778
  0
VERTEX
  8
0
 10
177.976
 20
0.187229
 30
0.0
 40
0.352778
 41
0.352778
  0
VERTEX
  8
0
 10
133.527
 20
0.187229
 30
0.0
 40
0.352778
 41
0.352778
  0
VERTEX
  8
0
 10
133.527
 20
3.36219
 30
0.0
 40
0.352778
 41
0.352778
  0
VERTEX
  8
0
 10
89.0765
 20
3.36219
 30
0.0
 40
0.352778
 41
0.352778
  0
VERTEX
  8
0
 10
89.0765
 20
0.187229
 30
0.0
 40
0.352778
 41
0.352778
  0
VERTEX
  8
0
 10
44.6265
 20
0.187229
 30
0.0
 40
0.352778
 41
0.352778
  0
VERTEX
  8
0
 10
44.6265
 20
3.36219
 30
0.0
 40
0.352778
 41
0.352778
  0
VERTEX
  8
0
 10
0.176378
 20
3.36219
 30
0.0
 40
0.352778
 41
0.352778
  0
VERTEX
  8
0
 10
0.176378
 20
26.4944
 30
0.0
 40
0.352778
 41
0.352778
  0
VERTEX
  8
0
 10
6.52642
 20
26.4944
 30
0.0
 40
0.352778
 41
0.352778
  0
VERTEX
  8
0
 10
6.52642
 20
52.8015
 30
0.0
 40
0.352778
 41
0.352778
  0
VERTEX
  8
0
 10
0.176378
 20
52.8015
 30
0.0
 40
0.352778
 41
0.352778
  0
VERTEX
  8
0
 10
0.176378
 20
79.1088
 30
0.0
 40
0.352778
 41
0.352778
  0
VERTEX
  8
0
 10
6.52642
 20
79.1088
 30
0.0
 40
0.352778
 41
0.352778
  0
VERTEX
  8
0
 10
6.52642
 20
105.416
 30
0.0
 40
0.352778
 41
0.352778
  0
VERTEX
  8
0
 10
0.176378
 20
105.416
 30
0.0
 40
0.352778
 41
0.352778
  0
VERTEX
  8
0
 10
0.176378
 20
131.723
 30
0.0
 40
0.352778
 41
0.352778
  0
VERTEX
  8
0
 10
6.52642
 20
131.723
 30
0.0
 40
0.352778
 41
0.352778
  0
VERTEX
  8
0
 10
6.52642
 20
158.031
 30
0.0
 40
0.352778
 41
0.352778
  0
VERTEX
  8
0
 10
0.176378
 20
158.031
 30
0.0
 40
0.352778
 41
0.352778
  0
VERTEX
  8
0
 10
0.176378
 20
181.163
 30
0.0
 40
0.352778
 41
0.352778
  0
VERTEX
  8
0
 10
44.6265
 20
181.163
 30
0.0
 40
0.352778
 41
0.352778
  0
VERTEX
  8
0
 10
44.6265
 20
184.337
 30
0.0
 40
0.352778
 41
0.352778
  0
VERTEX
  8
0
 10
89.0765
 20
184.337
 30
0.0
 40
0.352778
 41
0.352778
  0
VERTEX
  8
0
 10
89.0765
 20
181.163
 30
0.0
 40
0.352778
 41
0.352778
  0
VERTEX
  8
0
 10
133.527
 20
181.163
 30
0.0
 40
0.352778
 41
0.352778
  0
VERTEX
  8
0
 10
133.527
 20
184.337
 30
0.0
 40
0.352778
 41
0.352778
  0
VERTEX
  8
0
 10
177.976
 20
184.337
 30
0.0
 40
0.352778
 41
0.352778
  0
VERTEX
  8
0
 10
177.976
 20
181.163
 30
0.0
 40
0.352778
 41
0.352778
  0
VERTEX
  8
0
 10
222.426
 20
181.163
 30
0.0
 40
0.352778
 41
0.352778
  0
VERTEX
  8
0
 10
222.426
 20
184.337
 30
0.0
 40
0.352778
 41
0.352778
  0
VERTEX
  8
0
 10
266.876
 20
184.337
 30
0.0
 40
0.352778
 41
0.352778
  0
VERTEX
  8
0
 10
266.876
 20
181.163
 30
0.0
 40
0.352778
 41
0.352778
  0
VERTEX
  8
0
 10
355.776
 20
181.163
 30
0.0
 40
0.352778
 41
0.352778
  0
SEQEND
 8
0
  0
POLYLINE
  8
0
 62
     0
 66
     1
 10
0
 20
0
 30
0.0
 40
25.4
 41
25.4
  0
VERTEX
  8
0
 10
311.326
 20
181.163
 30
0.0
 40
0.352778
 41
0.352778
  0
VERTEX
  8
0
 10
311.326
 20
96.2311
 30
0.0
 40
0.352778
 41
0.352778
  0
VERTEX
  8
0
 10
82.7265
 20
96.2311
 30
0.0
 40
0.352778
 41
0.352778
  0
VERTEX
  8
0
 10
82.7265
 20
88.2936
 30
0.0
 40
0.352778
 41
0.352778
  0
VERTEX
  8
0
 10
539.928
 20
88.2936
 30
0.0
 40
0.352778
 41
0.352778
  0
SEQEND
 8
0
  0
POLYLINE
  8
0
 62
     0
 66
     1
 10
0
 20
0
 30
0.0
 40
25.4
 41
25.4
  0
VERTEX
  8
0
 10
311.326
 20
3.36219
 30
0.0
 40
0.352778
 41
0.352778
  0
VERTEX
  8
0
 10
355.776
 20
3.36219
 30
0.0
 40
0.352778
 41
0.352778
  0
VERTEX
  8
0
 10
355.776
 20
0.187229
 30
0.0
 40
0.352778
 41
0.352778
  0
VERTEX
  8
0
 10
400.226
 20
0.187229
 30
0.0
 40
0.352778
 41
0.352778
  0
VERTEX
  8
0
 10
400.226
 20
3.36219
 30
0.0
 40
0.352778
 41
0.352778
  0
VERTEX
  8
0
 10
444.678
 20
3.36219
 30
0.0
 40
0.352778
 41
0.352778
  0
VERTEX
  8
0
 10
444.678
 20
0.187229
 30
0.0
 40
0.352778
 41
0.352778
  0
VERTEX
  8
0
 10
489.128
 20
0.187229
 30
0.0
 40
0.352778
 41
0.352778
  0
VERTEX
  8
0
 10
489.128
 20
3.36219
 30
0.0
 40
0.352778
 41
0.352778
  0
VERTEX
  8
0
 10
533.578
 20
3.36219
 30
0.0
 40
0.352778
 41
0.352778
  0
VERTEX
  8
0
 10
533.578
 20
0.187229
 30
0.0
 40
0.352778
 41
0.352778
  0
VERTEX
  8
0
 10
578.028
 20
0.187229
 30
0.0
 40
0.352778
 41
0.352778
  0
VERTEX
  8
0
 10
578.028
 20
3.36219
 30
0.0
 40
0.352778
 41
0.352778
  0
VERTEX
  8
0
 10
622.478
 20
3.36219
 30
0.0
 40
0.352778
 41
0.352778
  0
VERTEX
  8
0
 10
622.478
 20
26.4944
 30
0.0
 40
0.352778
 41
0.352778
  0
VERTEX
  8
0
 10
616.128
 20
26.4944
 30
0.0
 40
0.352778
 41
0.352778
  0
VERTEX
  8
0
 10
616.128
 20
52.8015
 30
0.0
 40
0.352778
 41
0.352778
  0
VERTEX
  8
0
 10
622.478
 20
52.8015
 30
0.0
 40
0.352778
 41
0.352778
  0
VERTEX
  8
0
 10
622.478
 20
79.1088
 30
0.0
 40
0.352778
 41
0.352778
  0
VERTEX
  8
0
 10
616.128
 20
79.1088
 30
0.0
 40
0.352778
 41
0.352778
  0
VERTEX
  8
0
 10
616.128
 20
105.416
 30
0.0
 40
0.352778
 41
0.352778
  0
VERTEX
  8
0
 10
622.478
 20
105.416
 30
0.0
 40
0.352778
 41
0.352778
  0
VERTEX
  8
0
 10
622.478
 20
131.723
 30
0.0
 40
0.352778
 41
0.352778
  0
VERTEX
  8
0
 10
616.128
 20
131.723
 30
0.0
 40
0.352778
 41
0.352778
  0
VERTEX
  8
0
 10
616.128
 20
158.031
 30
0.0
 40
0.352778
 41
0.352778
  0
VERTEX
  8
0
 10
622.478
 20
158.031
 30
0.0
 40
0.352778
 41
0.352778
  0
VERTEX
  8
0
 10
622.478
 20
181.163
 30
0.0
 40
0.352778
 41
0.352778
  0
VERTEX
  8
0
 10
578.028
 20
181.163
 30
0.0
 40
0.352778
 41
0.352778
  0
VERTEX
  8
0
 10
578.028
 20
184.337
 30
0.0
 40
0.352778
 41
0.352778
  0
VERTEX
  8
0
 10
533.578
 20
184.337
 30
0.0
 40
0.352778
 41
0.352778
  0
VERTEX
  8
0
 10
533.578
 20
181.163
 30
0.0
 40
0.352778
 41
0.352778
  0
VERTEX
  8
0
 10
489.128
 20
181.163
 30
0.0
 40
0.352778
 41
0.352778
  0
VERTEX
  8
0
 10
489.128
 20
184.337
 30
0.0
 40
0.352778
 41
0.352778
  0
VERTEX
  8
0
 10
444.678
 20
184.337
 30
0.0
 40
0.352778
 41
0.352778
  0
VERTEX
  8
0
 10
444.678
 20
181.163
 30
0.0
 40
0.352778
 41
0.352778
  0
VERTEX
  8
0
 10
400.226
 20
181.163
 30
0.0
 40
0.352778
 41
0.352778
  0
VERTEX
  8
0
 10
400.226
 20
184.337
 30
0.0
 40
0.352778
 41
0.352778
  0
VERTEX
  8
0
 10
355.776
 20
184.337
 30
0.0
 40
0.352778
 41
0.352778
  0
VERTEX
  8
0
 10
355.776
 20
181.163
 30
0.0
 40
0.352778
 41
0.352778
  0
SEQEND
 8
0
  0
POLYLINE
  8
0
 62
     0
 66
     1
 10
0
 20
0
 30
0.0
 40
25.4
 41
25.4
  0
VERTEX
  8
0
 10
311.326
 20
96.2311
 30
0.0
 40
0.352778
 41
0.352778
  0
VERTEX
  8
0
 10
539.928
 20
96.2311
 30
0.0
 40
0.352778
 41
0.352778
  0
VERTEX
  8
0
 10
539.928
 20
88.2936
 30
0.0
 40
0.352778
 41
0.352778
  0
SEQEND
 8
0
  0
ENDSEC
  0
EOF
