<svg xmlns="http://www.w3.org/2000/svg" width="36in" height="12.375000000000002in" viewBox="0 0 2592 891.0000000000001"><g/><g/><g/><circle cx="54.00009969948621" cy="117.00019347152329" r="9.000013749999951" color="rgb(0,0,0)" stroke="#000000" id="ID_76" stroke-width="0.25mm" fill="none"/><circle cx="839.4816146994862" cy="54.000097221523276" r="4.25197499999996" color="rgb(0,0,0)" stroke="#000000" id="ID_77" stroke-width="0.25mm" fill="none"/><circle cx="794.8358771994862" cy="54.000097221523276" r="4.25197499999996" color="rgb(0,0,0)" stroke="#000000" id="ID_78" stroke-width="0.25mm" fill="none"/><circle cx="794.8358771994862" cy="468.00072972152316" r="4.251975" color="rgb(0,0,0)" stroke="#000000" id="ID_79" stroke-width="0.25mm" fill="none"/><circle cx="839.4816146994862" cy="468.00072972152316" r="4.251975" color="rgb(0,0,0)" stroke="#000000" id="ID_7A" stroke-width="0.25mm" fill="none"/><circle cx="1710.0026211120157" cy="405.0006153" r="9.000013749999951" color="rgb(0,0,0)" stroke="#000000" id="ID_76" stroke-width="0.25mm" fill="none"/><circle cx="924.5211061120157" cy="468.00071155000006" r="4.25197499999996" color="rgb(0,0,0)" stroke="#000000" id="ID_77" stroke-width="0.25mm" fill="none"/><circle cx="969.1668436120157" cy="468.00071155000006" r="4.25197499999996" color="rgb(0,0,0)" stroke="#000000" id="ID_78" stroke-width="0.25mm" fill="none"/><circle cx="969.1668436120157" cy="54.00007905000018" r="4.251975" color="rgb(0,0,0)" stroke="#000000" id="ID_79" stroke-width="0.25mm" fill="none"/><circle cx="924.5211061120157" cy="54.00007905000018" r="4.251975" color="rgb(0,0,0)" stroke="#000000" id="ID_7A" stroke-width="0.25mm" fill="none"/><path d="M 882.0013646994861 272.2504306590232 L 882.0013646994861 513.0007984715231 L 882.0013646994861 513.0007984715231 L 756.0011721994862 513.0007984715232 L 756.0011721994862 513.0007984715232 L 756.0011721994862 522.0008122215232 L 756.0011721994862 522.0008122215232 L 630.0009796994862 522.0008122215232 L 630.0009796994862 522.0008122215232 L 630.0009796994862 513.0007984715232 L 630.0009796994862 513.0007984715232 L 504.00078719948624 513.0007984715232 L 504.00078719948624 513.0007984715232 L 504.00078719948624 522.0008122215232 L 504.00078719948624 522.0008122215232 L 378.0005946994862 522.0008122215232 L 378.0005946994862 522.0008122215232 L 378.0005946994862 513.0007984715232 L 378.0005946994862 513.0007984715232 L 252.00040219948627 513.0007984715232 L 252.00040219948627 513.0007984715232 L 252.00040219948627 522.0008122215232 L 252.00040219948627 522.0008122215232 L 126.00020969948625 522.0008122215232 L 126.00020969948625 522.0008122215232 L 126.00020969948625 513.0007984715232 L 126.00020969948625 513.0007984715232 L 0.000017199486251229252 513.0007984715232 L 0.000017199486251229252 513.0007984715232 L 0.000017199486251229252 447.4292697216449 L 0.000017199486251229252 447.4292697216449 L 18.00004469948624 447.4292697216449 L 18.00004469948624 447.4292697216449 L 18.00004469948621 372.85772722148283 L 18.00004469948621 372.85772722148283 L 0.000017199486222807543 372.85772722148283 L 0.000017199486222807543 372.85772722148283 L 0.000017199486222807543 298.2861847216043 L 0.000017199486222807543 298.2861847216043 L 18.00004469948621 298.2861847216043 L 18.00004469948621 298.2861847216043 L 18.00004469948621 223.71464222144232 L 18.00004469948621 223.71464222144232 L 0.000017199486222807543 223.71464222144232 L 0.000017199486222807543 223.71464222144232 L 0.000017199486222807543 149.14309972156383 L 0.000017199486222807543 149.14309972156383 L 18.00004469948621 149.14309972156383 L 18.00004469948621 149.14309972156383 L 18.00004469948621 74.57155722140186 L 18.00004469948621 74.57155722140186 L 0.000017199486222807543 74.57155722140186 L 0.000017199486222807543 74.57155722140186 L 0.000017199486222807543 9.000028471523308 L 0.000017199486222807543 9.000028471523308 L 126.00020969948619 9.000028471523308 L 126.00020969948619 9.000028471523308 L 126.00020969948619 0.0000147215233141651 L 126.00020969948619 0.0000147215233141651 L 252.00040219948622 0.0000147215233141651 L 252.00040219948622 0.0000147215233141651 L 252.00040219948622 9.000028471523308 L 252.00040219948622 9.000028471523308 L 378.0005946994862 9.000028471523251 L 378.0005946994862 9.000028471523251 L 378.0005946994862 0.000014721523257321683 L 378.0005946994862 0.000014721523257321683 L 504.00078719948624 0.000014721523257321683 L 504.00078719948624 0.000014721523257321683 L 504.00078719948624 9.000028471523251 L 504.00078719948624 9.000028471523251 L 630.0009796994862 9.000028471523251 L 630.0009796994862 9.000028471523251 L 630.0009796994862 0.000014721523257321683 L 630.0009796994862 0.000014721523257321683 L 756.0011721994862 0.000014721523257321683 L 756.0011721994862 0.000014721523257321683 L 756.0011721994862 9.000028471523251 L 756.0011721994862 9.000028471523267 L 1008.0015486120157 9.000028471523235" fill="none" stroke="#000000"/><path d="M 882.0013646994861 9.000028471523251 L 882.0013646994861 249.75039628402317 L 882.0013646994861 249.75039628402317 L 234.0003746994863 249.75039628402328 L 234.0003746994863 249.75039628402328 L 234.0003746994863 272.2504306590233 L 234.00037469948631 272.25043065902327 L 1530.0023461120156 272.25043065902315" fill="none" stroke="#000000"/><path d="M 882.0013561120159 513.0007803000001 L 1008.0015486120157 513.0007803000001 L 1008.0015486120157 513.0007803000001 L 1008.0015486120158 522.0007940500001 L 1008.0015486120158 522.0007940500001 L 1134.0017411120157 522.0007940500001 L 1134.0017411120157 522.0007940500001 L 1134.0017411120157 513.0007803000001 L 1134.0017411120157 513.0007803000001 L 1260.0019336120156 513.0007803000001 L 1260.0019336120156 513.0007803000001 L 1260.0019336120158 522.00079405 L 1260.0019336120158 522.00079405 L 1386.0021261120157 522.00079405 L 1386.0021261120157 522.00079405 L 1386.0021261120155 513.0007803000001 L 1386.0021261120155 513.0007803000001 L 1512.0023186120156 513.0007803 L 1512.0023186120156 513.0007803 L 1512.0023186120156 522.00079405 L 1512.0023186120156 522.00079405 L 1638.0025111120158 522.00079405 L 1638.0025111120158 522.00079405 L 1638.0025111120158 513.0007803 L 1638.0025111120158 513.0007803 L 1764.0027036120157 513.0007802999999 L 1764.0027036120157 513.0007802999999 L 1764.0027036120157 447.42925155012136 L 1764.0027036120157 447.42925155012136 L 1746.0026761120157 447.4292515501214 L 1746.0026761120157 447.4292515501214 L 1746.0026761120157 372.85770904995945 L 1746.0026761120157 372.85770904995945 L 1764.0027036120157 372.8577090499594 L 1764.0027036120157 372.8577090499594 L 1764.0027036120157 298.2861665500809 L 1764.0027036120157 298.2861665500809 L 1746.0026761120157 298.2861665500809 L 1746.0026761120157 298.2861665500809 L 1746.0026761120157 223.71462404991894 L 1746.0026761120157 223.71462404991894 L 1764.0027036120157 223.71462404991894 L 1764.0027036120157 223.71462404991894 L 1764.0027036120157 149.1430815500404 L 1764.0027036120157 149.1430815500404 L 1746.0026761120157 149.1430815500404 L 1746.0026761120157 149.1430815500404 L 1746.0026761120157 74.57153904987831 L 1746.0026761120157 74.57153904987831 L 1764.0027036120155 74.57153904987831 L 1764.0027036120155 74.57153904987831 L 1764.0027036120155 9.000010299999985 L 1764.0027036120155 9.000010299999985 L 1638.0025111120156 9.000010299999985 L 1638.0025111120156 9.000010299999985 L 1638.0025111120156 -0.000003450000008342613 L 1638.0025111120156 -0.000003450000008342613 L 1512.0023186120156 -0.0000034499998946557753 L 1512.0023186120156 -0.0000034499998946557753 L 1512.0023186120156 9.000010300000099 L 1512.0023186120156 9.000010300000099 L 1386.0021261120155 9.000010300000099 L 1386.0021261120155 9.000010300000099 L 1386.0021261120155 -0.0000034499998946557753 L 1386.0021261120155 -0.0000034499998946557753 L 1260.0019336120156 -0.0000034499998946557753 L 1260.0019336120156 -0.0000034499998946557753 L 1260.0019336120156 9.000010300000099 L 1260.0019336120156 9.000010300000099 L 1134.0017411120157 9.000010300000099 L 1134.0017411120157 9.000010300000099 L 1134.0017411120157 -0.0000034499998946557753 L 1134.0017411120157 -0.0000034499998946557753 L 1008.0015486120157 -0.0000034499998946557753 L 1008.0015486120157 -0.0000034499998946557753 L 1008.0015486120157 9.000010300000099" fill="none" stroke="#000000"/><path d="M 882.0013561120159 249.75037811250013 L 1530.0023461120156 249.75037811250002 L 1530.0023461120156 249.75037811250002 L 1530.0023461120156 272.25041248750006" fill="none" stroke="#000000"/></svg>