  0
SECTION
  2
HEADER
  9
$ACADVER
  1
AC1009
  9
$EXTMIN
 10
0.0
 20
0.0
 30
0.0
  9
$EXTMAX
 10
1000.0
 20
1000.0
 30
0.0
  9
$FILLMODE
 70
 0
  9
$SPLFRAME
 70
 1
  0
ENDSEC
  0
SECTION
  2
TABLES
  0
TABLE
  2
LAYER
 70
1
  0
LAYER
  2
0
 70
     0
 62
     7
  6
CONTINUOUS
  0
ENDTAB
  0
ENDSEC
  0
SECTION
  2
ENTITIES
  0
POLYLINE
  8
0
 62
     0
 66
     1
 10
0
 20
0
 30
0.0
 70
     1
 40
24
 41
24
  0
VERTEX
  8
0
 10
146.226
 20
479.607
 30
0.0
 40
0.333333
 41
0.333333
  0
VERTEX
  8
0
 10
146.226
 20
479.526
 30
0.0
 40
0.333333
 41
0.333333
  0
VERTEX
  8
0
 10
146.21
 20
479.282
 30
0.0
 40
0.333333
 41
0.333333
  0
VERTEX
  8
0
 10
146.163
 20
478.967
 30
0.0
 40
0.333333
 41
0.333333
  0
VERTEX
  8
0
 10
146.083
 20
478.662
 30
0.0
 40
0.333333
 41
0.333333
  0
VERTEX
  8
0
 10
145.978
 20
478.371
 30
0.0
 40
0.333333
 41
0.333333
  0
VERTEX
  8
0
 10
145.843
 20
478.093
 30
0.0
 40
0.333333
 41
0.333333
  0
VERTEX
  8
0
 10
145.685
 20
477.832
 30
0.0
 40
0.333333
 41
0.333333
  0
VERTEX
  8
0
 10
145.501
 20
477.588
 30
0.0
 40
0.333333
 41
0.333333
  0
VERTEX
  8
0
 10
145.297
 20
477.363
 30
0.0
 40
0.333333
 41
0.333333
  0
VERTEX
  8
0
 10
145.071
 20
477.157
 30
0.0
 40
0.333333
 41
0.333333
  0
VERTEX
  8
0
 10
144.826
 20
476.974
 30
0.0
 40
0.333333
 41
0.333333
  0
VERTEX
  8
0
 10
144.565
 20
476.815
 30
0.0
 40
0.333333
 41
0.333333
  0
VERTEX
  8
0
 10
144.288
 20
476.682
 30
0.0
 40
0.333333
 41
0.333333
  0
VERTEX
  8
0
 10
143.996
 20
476.575
 30
0.0
 40
0.333333
 41
0.333333
  0
VERTEX
  8
0
 10
143.692
 20
476.496
 30
0.0
 40
0.333333
 41
0.333333
  0
VERTEX
  8
0
 10
143.376
 20
476.449
 30
0.0
 40
0.333333
 41
0.333333
  0
VERTEX
  8
0
 10
143.133
 20
476.432
 30
0.0
 40
0.333333
 41
0.333333
  0
VERTEX
  8
0
 10
143.051
 20
476.432
 30
0.0
 40
0.333333
 41
0.333333
  0
VERTEX
  8
0
 10
142.971
 20
476.432
 30
0.0
 40
0.333333
 41
0.333333
  0
VERTEX
  8
0
 10
142.726
 20
476.449
 30
0.0
 40
0.333333
 41
0.333333
  0
VERTEX
  8
0
 10
142.411
 20
476.496
 30
0.0
 40
0.333333
 41
0.333333
  0
VERTEX
  8
0
 10
142.107
 20
476.575
 30
0.0
 40
0.333333
 41
0.333333
  0
VERTEX
  8
0
 10
141.815
 20
476.682
 30
0.0
 40
0.333333
 41
0.333333
  0
VERTEX
  8
0
 10
141.539
 20
476.815
 30
0.0
 40
0.333333
 41
0.333333
  0
VERTEX
  8
0
 10
141.276
 20
476.974
 30
0.0
 40
0.333333
 41
0.333333
  0
VERTEX
  8
0
 10
141.032
 20
477.157
 30
0.0
 40
0.333333
 41
0.333333
  0
VERTEX
  8
0
 10
140.807
 20
477.363
 30
0.0
 40
0.333333
 41
0.333333
  0
VERTEX
  8
0
 10
140.601
 20
477.588
 30
0.0
 40
0.333333
 41
0.333333
  0
VERTEX
  8
0
 10
140.419
 20
477.832
 30
0.0
 40
0.333333
 41
0.333333
  0
VERTEX
  8
0
 10
140.26
 20
478.093
 30
0.0
 40
0.333333
 41
0.333333
  0
VERTEX
  8
0
 10
140.126
 20
478.371
 30
0.0
 40
0.333333
 41
0.333333
  0
VERTEX
  8
0
 10
140.019
 20
478.662
 30
0.0
 40
0.333333
 41
0.333333
  0
VERTEX
  8
0
 10
139.942
 20
478.967
 30
0.0
 40
0.333333
 41
0.333333
  0
VERTEX
  8
0
 10
139.893
 20
479.282
 30
0.0
 40
0.333333
 41
0.333333
  0
VERTEX
  8
0
 10
139.876
 20
479.526
 30
0.0
 40
0.333333
 41
0.333333
  0
VERTEX
  8
0
 10
139.876
 20
479.607
 30
0.0
 40
0.333333
 41
0.333333
  0
VERTEX
  8
0
 10
139.876
 20
479.688
 30
0.0
 40
0.333333
 41
0.333333
  0
VERTEX
  8
0
 10
139.893
 20
479.932
 30
0.0
 40
0.333333
 41
0.333333
  0
VERTEX
  8
0
 10
139.942
 20
480.247
 30
0.0
 40
0.333333
 41
0.333333
  0
VERTEX
  8
0
 10
140.019
 20
480.551
 30
0.0
 40
0.333333
 41
0.333333
  0
VERTEX
  8
0
 10
140.126
 20
480.843
 30
0.0
 40
0.333333
 41
0.333333
  0
VERTEX
  8
0
 10
140.26
 20
481.121
 30
0.0
 40
0.333333
 41
0.333333
  0
VERTEX
  8
0
 10
140.419
 20
481.382
 30
0.0
 40
0.333333
 41
0.333333
  0
VERTEX
  8
0
 10
140.601
 20
481.626
 30
0.0
 40
0.333333
 41
0.333333
  0
VERTEX
  8
0
 10
140.807
 20
481.851
 30
0.0
 40
0.333333
 41
0.333333
  0
VERTEX
  8
0
 10
141.032
 20
482.057
 30
0.0
 40
0.333333
 41
0.333333
  0
VERTEX
  8
0
 10
141.276
 20
482.24
 30
0.0
 40
0.333333
 41
0.333333
  0
VERTEX
  8
0
 10
141.539
 20
482.399
 30
0.0
 40
0.333333
 41
0.333333
  0
VERTEX
  8
0
 10
141.815
 20
482.532
 30
0.0
 40
0.333333
 41
0.333333
  0
VERTEX
  8
0
 10
142.107
 20
482.639
 30
0.0
 40
0.333333
 41
0.333333
  0
VERTEX
  8
0
 10
142.411
 20
482.718
 30
0.0
 40
0.333333
 41
0.333333
  0
VERTEX
  8
0
 10
142.726
 20
482.765
 30
0.0
 40
0.333333
 41
0.333333
  0
VERTEX
  8
0
 10
142.971
 20
482.782
 30
0.0
 40
0.333333
 41
0.333333
  0
VERTEX
  8
0
 10
143.051
 20
482.782
 30
0.0
 40
0.333333
 41
0.333333
  0
VERTEX
  8
0
 10
143.133
 20
482.782
 30
0.0
 40
0.333333
 41
0.333333
  0
VERTEX
  8
0
 10
143.376
 20
482.765
 30
0.0
 40
0.333333
 41
0.333333
  0
VERTEX
  8
0
 10
143.692
 20
482.718
 30
0.0
 40
0.333333
 41
0.333333
  0
VERTEX
  8
0
 10
143.996
 20
482.639
 30
0.0
 40
0.333333
 41
0.333333
  0
VERTEX
  8
0
 10
144.288
 20
482.532
 30
0.0
 40
0.333333
 41
0.333333
  0
VERTEX
  8
0
 10
144.565
 20
482.399
 30
0.0
 40
0.333333
 41
0.333333
  0
VERTEX
  8
0
 10
144.826
 20
482.24
 30
0.0
 40
0.333333
 41
0.333333
  0
VERTEX
  8
0
 10
145.071
 20
482.057
 30
0.0
 40
0.333333
 41
0.333333
  0
VERTEX
  8
0
 10
145.297
 20
481.851
 30
0.0
 40
0.333333
 41
0.333333
  0
VERTEX
  8
0
 10
145.501
 20
481.626
 30
0.0
 40
0.333333
 41
0.333333
  0
VERTEX
  8
0
 10
145.685
 20
481.382
 30
0.0
 40
0.333333
 41
0.333333
  0
VERTEX
  8
0
 10
145.843
 20
481.121
 30
0.0
 40
0.333333
 41
0.333333
  0
VERTEX
  8
0
 10
145.978
 20
480.843
 30
0.0
 40
0.333333
 41
0.333333
  0
VERTEX
  8
0
 10
146.083
 20
480.551
 30
0.0
 40
0.333333
 41
0.333333
  0
VERTEX
  8
0
 10
146.163
 20
480.247
 30
0.0
 40
0.333333
 41
0.333333
  0
VERTEX
  8
0
 10
146.21
 20
479.932
 30
0.0
 40
0.333333
 41
0.333333
  0
VERTEX
  8
0
 10
146.226
 20
479.688
 30
0.0
 40
0.333333
 41
0.333333
  0
VERTEX
  8
0
 10
146.226
 20
479.607
 30
0.0
 40
0.333333
 41
0.333333
  0
SEQEND
 8
0
  0
POLYLINE
  8
0
 62
     0
 66
     1
 10
0
 20
0
 30
0.0
 70
     1
 40
24
 41
24
  0
VERTEX
  8
0
 10
166.776
 20
202.507
 30
0.0
 40
0.333333
 41
0.333333
  0
VERTEX
  8
0
 10
166.776
 20
202.468
 30
0.0
 40
0.333333
 41
0.333333
  0
VERTEX
  8
0
 10
166.769
 20
202.353
 30
0.0
 40
0.333333
 41
0.333333
  0
VERTEX
  8
0
 10
166.746
 20
202.204
 30
0.0
 40
0.333333
 41
0.333333
  0
VERTEX
  8
0
 10
166.71
 20
202.061
 30
0.0
 40
0.333333
 41
0.333333
  0
VERTEX
  8
0
 10
166.658
 20
201.922
 30
0.0
 40
0.333333
 41
0.333333
  0
VERTEX
  8
0
 10
166.596
 20
201.792
 30
0.0
 40
0.333333
 41
0.333333
  0
VERTEX
  8
0
 10
166.521
 20
201.668
 30
0.0
 40
0.333333
 41
0.333333
  0
VERTEX
  8
0
 10
166.435
 20
201.553
 30
0.0
 40
0.333333
 41
0.333333
  0
VERTEX
  8
0
 10
166.337
 20
201.446
 30
0.0
 40
0.333333
 41
0.333333
  0
VERTEX
  8
0
 10
166.231
 20
201.349
 30
0.0
 40
0.333333
 41
0.333333
  0
VERTEX
  8
0
 10
166.115
 20
201.263
 30
0.0
 40
0.333333
 41
0.333333
  0
VERTEX
  8
0
 10
165.992
 20
201.188
 30
0.0
 40
0.333333
 41
0.333333
  0
VERTEX
  8
0
 10
165.861
 20
201.125
 30
0.0
 40
0.333333
 41
0.333333
  0
VERTEX
  8
0
 10
165.722
 20
201.074
 30
0.0
 40
0.333333
 41
0.333333
  0
VERTEX
  8
0
 10
165.579
 20
201.038
 30
0.0
 40
0.333333
 41
0.333333
  0
VERTEX
  8
0
 10
165.431
 20
201.014
 30
0.0
 40
0.333333
 41
0.333333
  0
VERTEX
  8
0
 10
165.315
 20
201.007
 30
0.0
 40
0.333333
 41
0.333333
  0
VERTEX
  8
0
 10
165.276
 20
201.007
 30
0.0
 40
0.333333
 41
0.333333
  0
VERTEX
  8
0
 10
165.239
 20
201.007
 30
0.0
 40
0.333333
 41
0.333333
  0
VERTEX
  8
0
 10
165.124
 20
201.014
 30
0.0
 40
0.333333
 41
0.333333
  0
VERTEX
  8
0
 10
164.975
 20
201.038
 30
0.0
 40
0.333333
 41
0.333333
  0
VERTEX
  8
0
 10
164.831
 20
201.074
 30
0.0
 40
0.333333
 41
0.333333
  0
VERTEX
  8
0
 10
164.693
 20
201.125
 30
0.0
 40
0.333333
 41
0.333333
  0
VERTEX
  8
0
 10
164.561
 20
201.188
 30
0.0
 40
0.333333
 41
0.333333
  0
VERTEX
  8
0
 10
164.438
 20
201.263
 30
0.0
 40
0.333333
 41
0.333333
  0
VERTEX
  8
0
 10
164.322
 20
201.349
 30
0.0
 40
0.333333
 41
0.333333
  0
VERTEX
  8
0
 10
164.217
 20
201.446
 30
0.0
 40
0.333333
 41
0.333333
  0
VERTEX
  8
0
 10
164.119
 20
201.553
 30
0.0
 40
0.333333
 41
0.333333
  0
VERTEX
  8
0
 10
164.033
 20
201.668
 30
0.0
 40
0.333333
 41
0.333333
  0
VERTEX
  8
0
 10
163.958
 20
201.792
 30
0.0
 40
0.333333
 41
0.333333
  0
VERTEX
  8
0
 10
163.894
 20
201.922
 30
0.0
 40
0.333333
 41
0.333333
  0
VERTEX
  8
0
 10
163.844
 20
202.061
 30
0.0
 40
0.333333
 41
0.333333
  0
VERTEX
  8
0
 10
163.807
 20
202.204
 30
0.0
 40
0.333333
 41
0.333333
  0
VERTEX
  8
0
 10
163.785
 20
202.353
 30
0.0
 40
0.333333
 41
0.333333
  0
VERTEX
  8
0
 10
163.776
 20
202.468
 30
0.0
 40
0.333333
 41
0.333333
  0
VERTEX
  8
0
 10
163.776
 20
202.507
 30
0.0
 40
0.333333
 41
0.333333
  0
VERTEX
  8
0
 10
163.776
 20
202.544
 30
0.0
 40
0.333333
 41
0.333333
  0
VERTEX
  8
0
 10
163.785
 20
202.66
 30
0.0
 40
0.333333
 41
0.333333
  0
VERTEX
  8
0
 10
163.807
 20
202.808
 30
0.0
 40
0.333333
 41
0.333333
  0
VERTEX
  8
0
 10
163.844
 20
202.953
 30
0.0
 40
0.333333
 41
0.333333
  0
VERTEX
  8
0
 10
163.894
 20
203.09
 30
0.0
 40
0.333333
 41
0.333333
  0
VERTEX
  8
0
 10
163.958
 20
203.221
 30
0.0
 40
0.333333
 41
0.333333
  0
VERTEX
  8
0
 10
164.033
 20
203.346
 30
0.0
 40
0.333333
 41
0.333333
  0
VERTEX
  8
0
 10
164.119
 20
203.461
 30
0.0
 40
0.333333
 41
0.333333
  0
VERTEX
  8
0
 10
164.217
 20
203.567
 30
0.0
 40
0.333333
 41
0.333333
  0
VERTEX
  8
0
 10
164.322
 20
203.664
 30
0.0
 40
0.333333
 41
0.333333
  0
VERTEX
  8
0
 10
164.438
 20
203.75
 30
0.0
 40
0.333333
 41
0.333333
  0
VERTEX
  8
0
 10
164.561
 20
203.825
 30
0.0
 40
0.333333
 41
0.333333
  0
VERTEX
  8
0
 10
164.693
 20
203.889
 30
0.0
 40
0.333333
 41
0.333333
  0
VERTEX
  8
0
 10
164.831
 20
203.939
 30
0.0
 40
0.333333
 41
0.333333
  0
VERTEX
  8
0
 10
164.975
 20
203.976
 30
0.0
 40
0.333333
 41
0.333333
  0
VERTEX
  8
0
 10
165.124
 20
203.999
 30
0.0
 40
0.333333
 41
0.333333
  0
VERTEX
  8
0
 10
165.239
 20
204.007
 30
0.0
 40
0.333333
 41
0.333333
  0
VERTEX
  8
0
 10
165.276
 20
204.007
 30
0.0
 40
0.333333
 41
0.333333
  0
VERTEX
  8
0
 10
165.315
 20
204.007
 30
0.0
 40
0.333333
 41
0.333333
  0
VERTEX
  8
0
 10
165.431
 20
203.999
 30
0.0
 40
0.333333
 41
0.333333
  0
VERTEX
  8
0
 10
165.579
 20
203.976
 30
0.0
 40
0.333333
 41
0.333333
  0
VERTEX
  8
0
 10
165.722
 20
203.939
 30
0.0
 40
0.333333
 41
0.333333
  0
VERTEX
  8
0
 10
165.861
 20
203.889
 30
0.0
 40
0.333333
 41
0.333333
  0
VERTEX
  8
0
 10
165.992
 20
203.825
 30
0.0
 40
0.333333
 41
0.333333
  0
VERTEX
  8
0
 10
166.115
 20
203.75
 30
0.0
 40
0.333333
 41
0.333333
  0
VERTEX
  8
0
 10
166.231
 20
203.664
 30
0.0
 40
0.333333
 41
0.333333
  0
VERTEX
  8
0
 10
166.337
 20
203.567
 30
0.0
 40
0.333333
 41
0.333333
  0
VERTEX
  8
0
 10
166.435
 20
203.461
 30
0.0
 40
0.333333
 41
0.333333
  0
VERTEX
  8
0
 10
166.521
 20
203.346
 30
0.0
 40
0.333333
 41
0.333333
  0
VERTEX
  8
0
 10
166.596
 20
203.221
 30
0.0
 40
0.333333
 41
0.333333
  0
VERTEX
  8
0
 10
166.658
 20
203.09
 30
0.0
 40
0.333333
 41
0.333333
  0
VERTEX
  8
0
 10
166.71
 20
202.953
 30
0.0
 40
0.333333
 41
0.333333
  0
VERTEX
  8
0
 10
166.746
 20
202.808
 30
0.0
 40
0.333333
 41
0.333333
  0
VERTEX
  8
0
 10
166.769
 20
202.66
 30
0.0
 40
0.333333
 41
0.333333
  0
VERTEX
  8
0
 10
166.776
 20
202.544
 30
0.0
 40
0.333333
 41
0.333333
  0
VERTEX
  8
0
 10
166.776
 20
202.507
 30
0.0
 40
0.333333
 41
0.333333
  0
SEQEND
 8
0
  0
POLYLINE
  8
0
 62
     0
 66
     1
 10
0
 20
0
 30
0.0
 70
     1
 40
24
 41
24
  0
VERTEX
  8
0
 10
166.776
 20
218.257
 30
0.0
 40
0.333333
 41
0.333333
  0
VERTEX
  8
0
 10
166.776
 20
218.218
 30
0.0
 40
0.333333
 41
0.333333
  0
VERTEX
  8
0
 10
166.769
 20
218.103
 30
0.0
 40
0.333333
 41
0.333333
  0
VERTEX
  8
0
 10
166.746
 20
217.954
 30
0.0
 40
0.333333
 41
0.333333
  0
VERTEX
  8
0
 10
166.71
 20
217.811
 30
0.0
 40
0.333333
 41
0.333333
  0
VERTEX
  8
0
 10
166.658
 20
217.672
 30
0.0
 40
0.333333
 41
0.333333
  0
VERTEX
  8
0
 10
166.596
 20
217.542
 30
0.0
 40
0.333333
 41
0.333333
  0
VERTEX
  8
0
 10
166.521
 20
217.418
 30
0.0
 40
0.333333
 41
0.333333
  0
VERTEX
  8
0
 10
166.435
 20
217.303
 30
0.0
 40
0.333333
 41
0.333333
  0
VERTEX
  8
0
 10
166.337
 20
217.196
 30
0.0
 40
0.333333
 41
0.333333
  0
VERTEX
  8
0
 10
166.231
 20
217.099
 30
0.0
 40
0.333333
 41
0.333333
  0
VERTEX
  8
0
 10
166.115
 20
217.013
 30
0.0
 40
0.333333
 41
0.333333
  0
VERTEX
  8
0
 10
165.992
 20
216.938
 30
0.0
 40
0.333333
 41
0.333333
  0
VERTEX
  8
0
 10
165.861
 20
216.875
 30
0.0
 40
0.333333
 41
0.333333
  0
VERTEX
  8
0
 10
165.722
 20
216.824
 30
0.0
 40
0.333333
 41
0.333333
  0
VERTEX
  8
0
 10
165.579
 20
216.788
 30
0.0
 40
0.333333
 41
0.333333
  0
VERTEX
  8
0
 10
165.431
 20
216.764
 30
0.0
 40
0.333333
 41
0.333333
  0
VERTEX
  8
0
 10
165.315
 20
216.757
 30
0.0
 40
0.333333
 41
0.333333
  0
VERTEX
  8
0
 10
165.276
 20
216.757
 30
0.0
 40
0.333333
 41
0.333333
  0
VERTEX
  8
0
 10
165.239
 20
216.757
 30
0.0
 40
0.333333
 41
0.333333
  0
VERTEX
  8
0
 10
165.124
 20
216.764
 30
0.0
 40
0.333333
 41
0.333333
  0
VERTEX
  8
0
 10
164.975
 20
216.788
 30
0.0
 40
0.333333
 41
0.333333
  0
VERTEX
  8
0
 10
164.831
 20
216.824
 30
0.0
 40
0.333333
 41
0.333333
  0
VERTEX
  8
0
 10
164.693
 20
216.875
 30
0.0
 40
0.333333
 41
0.333333
  0
VERTEX
  8
0
 10
164.561
 20
216.938
 30
0.0
 40
0.333333
 41
0.333333
  0
VERTEX
  8
0
 10
164.438
 20
217.013
 30
0.0
 40
0.333333
 41
0.333333
  0
VERTEX
  8
0
 10
164.322
 20
217.099
 30
0.0
 40
0.333333
 41
0.333333
  0
VERTEX
  8
0
 10
164.217
 20
217.196
 30
0.0
 40
0.333333
 41
0.333333
  0
VERTEX
  8
0
 10
164.119
 20
217.303
 30
0.0
 40
0.333333
 41
0.333333
  0
VERTEX
  8
0
 10
164.033
 20
217.418
 30
0.0
 40
0.333333
 41
0.333333
  0
VERTEX
  8
0
 10
163.958
 20
217.542
 30
0.0
 40
0.333333
 41
0.333333
  0
VERTEX
  8
0
 10
163.894
 20
217.672
 30
0.0
 40
0.333333
 41
0.333333
  0
VERTEX
  8
0
 10
163.844
 20
217.811
 30
0.0
 40
0.333333
 41
0.333333
  0
VERTEX
  8
0
 10
163.807
 20
217.954
 30
0.0
 40
0.333333
 41
0.333333
  0
VERTEX
  8
0
 10
163.785
 20
218.103
 30
0.0
 40
0.333333
 41
0.333333
  0
VERTEX
  8
0
 10
163.776
 20
218.218
 30
0.0
 40
0.333333
 41
0.333333
  0
VERTEX
  8
0
 10
163.776
 20
218.257
 30
0.0
 40
0.333333
 41
0.333333
  0
VERTEX
  8
0
 10
163.776
 20
218.294
 30
0.0
 40
0.333333
 41
0.333333
  0
VERTEX
  8
0
 10
163.785
 20
218.41
 30
0.0
 40
0.333333
 41
0.333333
  0
VERTEX
  8
0
 10
163.807
 20
218.558
 30
0.0
 40
0.333333
 41
0.333333
  0
VERTEX
  8
0
 10
163.844
 20
218.703
 30
0.0
 40
0.333333
 41
0.333333
  0
VERTEX
  8
0
 10
163.894
 20
218.84
 30
0.0
 40
0.333333
 41
0.333333
  0
VERTEX
  8
0
 10
163.958
 20
218.971
 30
0.0
 40
0.333333
 41
0.333333
  0
VERTEX
  8
0
 10
164.033
 20
219.096
 30
0.0
 40
0.333333
 41
0.333333
  0
VERTEX
  8
0
 10
164.119
 20
219.211
 30
0.0
 40
0.333333
 41
0.333333
  0
VERTEX
  8
0
 10
164.217
 20
219.317
 30
0.0
 40
0.333333
 41
0.333333
  0
VERTEX
  8
0
 10
164.322
 20
219.414
 30
0.0
 40
0.333333
 41
0.333333
  0
VERTEX
  8
0
 10
164.438
 20
219.5
 30
0.0
 40
0.333333
 41
0.333333
  0
VERTEX
  8
0
 10
164.561
 20
219.575
 30
0.0
 40
0.333333
 41
0.333333
  0
VERTEX
  8
0
 10
164.693
 20
219.639
 30
0.0
 40
0.333333
 41
0.333333
  0
VERTEX
  8
0
 10
164.831
 20
219.689
 30
0.0
 40
0.333333
 41
0.333333
  0
VERTEX
  8
0
 10
164.975
 20
219.726
 30
0.0
 40
0.333333
 41
0.333333
  0
VERTEX
  8
0
 10
165.124
 20
219.749
 30
0.0
 40
0.333333
 41
0.333333
  0
VERTEX
  8
0
 10
165.239
 20
219.757
 30
0.0
 40
0.333333
 41
0.333333
  0
VERTEX
  8
0
 10
165.276
 20
219.757
 30
0.0
 40
0.333333
 41
0.333333
  0
VERTEX
  8
0
 10
165.315
 20
219.757
 30
0.0
 40
0.333333
 41
0.333333
  0
VERTEX
  8
0
 10
165.431
 20
219.749
 30
0.0
 40
0.333333
 41
0.333333
  0
VERTEX
  8
0
 10
165.579
 20
219.726
 30
0.0
 40
0.333333
 41
0.333333
  0
VERTEX
  8
0
 10
165.722
 20
219.689
 30
0.0
 40
0.333333
 41
0.333333
  0
VERTEX
  8
0
 10
165.861
 20
219.639
 30
0.0
 40
0.333333
 41
0.333333
  0
VERTEX
  8
0
 10
165.992
 20
219.575
 30
0.0
 40
0.333333
 41
0.333333
  0
VERTEX
  8
0
 10
166.115
 20
219.5
 30
0.0
 40
0.333333
 41
0.333333
  0
VERTEX
  8
0
 10
166.231
 20
219.414
 30
0.0
 40
0.333333
 41
0.333333
  0
VERTEX
  8
0
 10
166.337
 20
219.317
 30
0.0
 40
0.333333
 41
0.333333
  0
VERTEX
  8
0
 10
166.435
 20
219.211
 30
0.0
 40
0.333333
 41
0.333333
  0
VERTEX
  8
0
 10
166.521
 20
219.096
 30
0.0
 40
0.333333
 41
0.333333
  0
VERTEX
  8
0
 10
166.596
 20
218.971
 30
0.0
 40
0.333333
 41
0.333333
  0
VERTEX
  8
0
 10
166.658
 20
218.84
 30
0.0
 40
0.333333
 41
0.333333
  0
VERTEX
  8
0
 10
166.71
 20
218.703
 30
0.0
 40
0.333333
 41
0.333333
  0
VERTEX
  8
0
 10
166.746
 20
218.558
 30
0.0
 40
0.333333
 41
0.333333
  0
VERTEX
  8
0
 10
166.769
 20
218.41
 30
0.0
 40
0.333333
 41
0.333333
  0
VERTEX
  8
0
 10
166.776
 20
218.294
 30
0.0
 40
0.333333
 41
0.333333
  0
VERTEX
  8
0
 10
166.776
 20
218.257
 30
0.0
 40
0.333333
 41
0.333333
  0
SEQEND
 8
0
  0
POLYLINE
  8
0
 62
     0
 66
     1
 10
0
 20
0
 30
0.0
 70
     1
 40
24
 41
24
  0
VERTEX
  8
0
 10
20.7264
 20
218.257
 30
0.0
 40
0.333333
 41
0.333333
  0
VERTEX
  8
0
 10
20.7264
 20
218.218
 30
0.0
 40
0.333333
 41
0.333333
  0
VERTEX
  8
0
 10
20.7186
 20
218.103
 30
0.0
 40
0.333333
 41
0.333333
  0
VERTEX
  8
0
 10
20.696
 20
217.954
 30
0.0
 40
0.333333
 41
0.333333
  0
VERTEX
  8
0
 10
20.659
 20
217.811
 30
0.0
 40
0.333333
 41
0.333333
  0
VERTEX
  8
0
 10
20.6085
 20
217.672
 30
0.0
 40
0.333333
 41
0.333333
  0
VERTEX
  8
0
 10
20.5454
 20
217.542
 30
0.0
 40
0.333333
 41
0.333333
  0
VERTEX
  8
0
 10
20.4703
 20
217.418
 30
0.0
 40
0.333333
 41
0.333333
  0
VERTEX
  8
0
 10
20.3839
 20
217.303
 30
0.0
 40
0.333333
 41
0.333333
  0
VERTEX
  8
0
 10
20.2871
 20
217.196
 30
0.0
 40
0.333333
 41
0.333333
  0
VERTEX
  8
0
 10
20.1806
 20
217.099
 30
0.0
 40
0.333333
 41
0.333333
  0
VERTEX
  8
0
 10
20.065
 20
217.013
 30
0.0
 40
0.333333
 41
0.333333
  0
VERTEX
  8
0
 10
19.9414
 20
216.938
 30
0.0
 40
0.333333
 41
0.333333
  0
VERTEX
  8
0
 10
19.8103
 20
216.875
 30
0.0
 40
0.333333
 41
0.333333
  0
VERTEX
  8
0
 10
19.6724
 20
216.824
 30
0.0
 40
0.333333
 41
0.333333
  0
VERTEX
  8
0
 10
19.5287
 20
216.788
 30
0.0
 40
0.333333
 41
0.333333
  0
VERTEX
  8
0
 10
19.3797
 20
216.764
 30
0.0
 40
0.333333
 41
0.333333
  0
VERTEX
  8
0
 10
19.2647
 20
216.757
 30
0.0
 40
0.333333
 41
0.333333
  0
VERTEX
  8
0
 10
19.2264
 20
216.757
 30
0.0
 40
0.333333
 41
0.333333
  0
VERTEX
  8
0
 10
19.1881
 20
216.757
 30
0.0
 40
0.333333
 41
0.333333
  0
VERTEX
  8
0
 10
19.0731
 20
216.764
 30
0.0
 40
0.333333
 41
0.333333
  0
VERTEX
  8
0
 10
18.9242
 20
216.788
 30
0.0
 40
0.333333
 41
0.333333
  0
VERTEX
  8
0
 10
18.7803
 20
216.824
 30
0.0
 40
0.333333
 41
0.333333
  0
VERTEX
  8
0
 10
18.6425
 20
216.875
 30
0.0
 40
0.333333
 41
0.333333
  0
VERTEX
  8
0
 10
18.5114
 20
216.938
 30
0.0
 40
0.333333
 41
0.333333
  0
VERTEX
  8
0
 10
18.3876
 20
217.013
 30
0.0
 40
0.333333
 41
0.333333
  0
VERTEX
  8
0
 10
18.2722
 20
217.099
 30
0.0
 40
0.333333
 41
0.333333
  0
VERTEX
  8
0
 10
18.1657
 20
217.196
 30
0.0
 40
0.333333
 41
0.333333
  0
VERTEX
  8
0
 10
18.0689
 20
217.303
 30
0.0
 40
0.333333
 41
0.333333
  0
VERTEX
  8
0
 10
17.9825
 20
217.418
 30
0.0
 40
0.333333
 41
0.333333
  0
VERTEX
  8
0
 10
17.9075
 20
217.542
 30
0.0
 40
0.333333
 41
0.333333
  0
VERTEX
  8
0
 10
17.8443
 20
217.672
 30
0.0
 40
0.333333
 41
0.333333
  0
VERTEX
  8
0
 10
17.7939
 20
217.811
 30
0.0
 40
0.333333
 41
0.333333
  0
VERTEX
  8
0
 10
17.7568
 20
217.954
 30
0.0
 40
0.333333
 41
0.333333
  0
VERTEX
  8
0
 10
17.7342
 20
218.103
 30
0.0
 40
0.333333
 41
0.333333
  0
VERTEX
  8
0
 10
17.7264
 20
218.218
 30
0.0
 40
0.333333
 41
0.333333
  0
VERTEX
  8
0
 10
17.7264
 20
218.257
 30
0.0
 40
0.333333
 41
0.333333
  0
VERTEX
  8
0
 10
17.7264
 20
218.294
 30
0.0
 40
0.333333
 41
0.333333
  0
VERTEX
  8
0
 10
17.7342
 20
218.41
 30
0.0
 40
0.333333
 41
0.333333
  0
VERTEX
  8
0
 10
17.7568
 20
218.558
 30
0.0
 40
0.333333
 41
0.333333
  0
VERTEX
  8
0
 10
17.7939
 20
218.703
 30
0.0
 40
0.333333
 41
0.333333
  0
VERTEX
  8
0
 10
17.8443
 20
218.84
 30
0.0
 40
0.333333
 41
0.333333
  0
VERTEX
  8
0
 10
17.9075
 20
218.971
 30
0.0
 40
0.333333
 41
0.333333
  0
VERTEX
  8
0
 10
17.9825
 20
219.096
 30
0.0
 40
0.333333
 41
0.333333
  0
VERTEX
  8
0
 10
18.0689
 20
219.211
 30
0.0
 40
0.333333
 41
0.333333
  0
VERTEX
  8
0
 10
18.1657
 20
219.317
 30
0.0
 40
0.333333
 41
0.333333
  0
VERTEX
  8
0
 10
18.2722
 20
219.414
 30
0.0
 40
0.333333
 41
0.333333
  0
VERTEX
  8
0
 10
18.3876
 20
219.5
 30
0.0
 40
0.333333
 41
0.333333
  0
VERTEX
  8
0
 10
18.5114
 20
219.575
 30
0.0
 40
0.333333
 41
0.333333
  0
VERTEX
  8
0
 10
18.6425
 20
219.639
 30
0.0
 40
0.333333
 41
0.333333
  0
VERTEX
  8
0
 10
18.7803
 20
219.689
 30
0.0
 40
0.333333
 41
0.333333
  0
VERTEX
  8
0
 10
18.9242
 20
219.726
 30
0.0
 40
0.333333
 41
0.333333
  0
VERTEX
  8
0
 10
19.0731
 20
219.749
 30
0.0
 40
0.333333
 41
0.333333
  0
VERTEX
  8
0
 10
19.1881
 20
219.757
 30
0.0
 40
0.333333
 41
0.333333
  0
VERTEX
  8
0
 10
19.2264
 20
219.757
 30
0.0
 40
0.333333
 41
0.333333
  0
VERTEX
  8
0
 10
19.2647
 20
219.757
 30
0.0
 40
0.333333
 41
0.333333
  0
VERTEX
  8
0
 10
19.3797
 20
219.749
 30
0.0
 40
0.333333
 41
0.333333
  0
VERTEX
  8
0
 10
19.5287
 20
219.726
 30
0.0
 40
0.333333
 41
0.333333
  0
VERTEX
  8
0
 10
19.6724
 20
219.689
 30
0.0
 40
0.333333
 41
0.333333
  0
VERTEX
  8
0
 10
19.8103
 20
219.639
 30
0.0
 40
0.333333
 41
0.333333
  0
VERTEX
  8
0
 10
19.9414
 20
219.575
 30
0.0
 40
0.333333
 41
0.333333
  0
VERTEX
  8
0
 10
20.065
 20
219.5
 30
0.0
 40
0.333333
 41
0.333333
  0
VERTEX
  8
0
 10
20.1806
 20
219.414
 30
0.0
 40
0.333333
 41
0.333333
  0
VERTEX
  8
0
 10
20.2871
 20
219.317
 30
0.0
 40
0.333333
 41
0.333333
  0
VERTEX
  8
0
 10
20.3839
 20
219.211
 30
0.0
 40
0.333333
 41
0.333333
  0
VERTEX
  8
0
 10
20.4703
 20
219.096
 30
0.0
 40
0.333333
 41
0.333333
  0
VERTEX
  8
0
 10
20.5454
 20
218.971
 30
0.0
 40
0.333333
 41
0.333333
  0
VERTEX
  8
0
 10
20.6085
 20
218.84
 30
0.0
 40
0.333333
 41
0.333333
  0
VERTEX
  8
0
 10
20.659
 20
218.703
 30
0.0
 40
0.333333
 41
0.333333
  0
VERTEX
  8
0
 10
20.696
 20
218.558
 30
0.0
 40
0.333333
 41
0.333333
  0
VERTEX
  8
0
 10
20.7186
 20
218.41
 30
0.0
 40
0.333333
 41
0.333333
  0
VERTEX
  8
0
 10
20.7264
 20
218.294
 30
0.0
 40
0.333333
 41
0.333333
  0
VERTEX
  8
0
 10
20.7264
 20
218.257
 30
0.0
 40
0.333333
 41
0.333333
  0
SEQEND
 8
0
  0
POLYLINE
  8
0
 62
     0
 66
     1
 10
0
 20
0
 30
0.0
 70
     1
 40
24
 41
24
  0
VERTEX
  8
0
 10
20.7264
 20
202.507
 30
0.0
 40
0.333333
 41
0.333333
  0
VERTEX
  8
0
 10
20.7264
 20
202.468
 30
0.0
 40
0.333333
 41
0.333333
  0
VERTEX
  8
0
 10
20.7186
 20
202.353
 30
0.0
 40
0.333333
 41
0.333333
  0
VERTEX
  8
0
 10
20.696
 20
202.204
 30
0.0
 40
0.333333
 41
0.333333
  0
VERTEX
  8
0
 10
20.659
 20
202.061
 30
0.0
 40
0.333333
 41
0.333333
  0
VERTEX
  8
0
 10
20.6085
 20
201.922
 30
0.0
 40
0.333333
 41
0.333333
  0
VERTEX
  8
0
 10
20.5454
 20
201.792
 30
0.0
 40
0.333333
 41
0.333333
  0
VERTEX
  8
0
 10
20.4703
 20
201.668
 30
0.0
 40
0.333333
 41
0.333333
  0
VERTEX
  8
0
 10
20.3839
 20
201.553
 30
0.0
 40
0.333333
 41
0.333333
  0
VERTEX
  8
0
 10
20.2871
 20
201.446
 30
0.0
 40
0.333333
 41
0.333333
  0
VERTEX
  8
0
 10
20.1806
 20
201.349
 30
0.0
 40
0.333333
 41
0.333333
  0
VERTEX
  8
0
 10
20.065
 20
201.263
 30
0.0
 40
0.333333
 41
0.333333
  0
VERTEX
  8
0
 10
19.9414
 20
201.188
 30
0.0
 40
0.333333
 41
0.333333
  0
VERTEX
  8
0
 10
19.8103
 20
201.125
 30
0.0
 40
0.333333
 41
0.333333
  0
VERTEX
  8
0
 10
19.6724
 20
201.074
 30
0.0
 40
0.333333
 41
0.333333
  0
VERTEX
  8
0
 10
19.5287
 20
201.038
 30
0.0
 40
0.333333
 41
0.333333
  0
VERTEX
  8
0
 10
19.3797
 20
201.014
 30
0.0
 40
0.333333
 41
0.333333
  0
VERTEX
  8
0
 10
19.2647
 20
201.007
 30
0.0
 40
0.333333
 41
0.333333
  0
VERTEX
  8
0
 10
19.2264
 20
201.007
 30
0.0
 40
0.333333
 41
0.333333
  0
VERTEX
  8
0
 10
19.1881
 20
201.007
 30
0.0
 40
0.333333
 41
0.333333
  0
VERTEX
  8
0
 10
19.0731
 20
201.014
 30
0.0
 40
0.333333
 41
0.333333
  0
VERTEX
  8
0
 10
18.9242
 20
201.038
 30
0.0
 40
0.333333
 41
0.333333
  0
VERTEX
  8
0
 10
18.7803
 20
201.074
 30
0.0
 40
0.333333
 41
0.333333
  0
VERTEX
  8
0
 10
18.6425
 20
201.125
 30
0.0
 40
0.333333
 41
0.333333
  0
VERTEX
  8
0
 10
18.5114
 20
201.188
 30
0.0
 40
0.333333
 41
0.333333
  0
VERTEX
  8
0
 10
18.3876
 20
201.263
 30
0.0
 40
0.333333
 41
0.333333
  0
VERTEX
  8
0
 10
18.2722
 20
201.349
 30
0.0
 40
0.333333
 41
0.333333
  0
VERTEX
  8
0
 10
18.1657
 20
201.446
 30
0.0
 40
0.333333
 41
0.333333
  0
VERTEX
  8
0
 10
18.0689
 20
201.553
 30
0.0
 40
0.333333
 41
0.333333
  0
VERTEX
  8
0
 10
17.9825
 20
201.668
 30
0.0
 40
0.333333
 41
0.333333
  0
VERTEX
  8
0
 10
17.9075
 20
201.792
 30
0.0
 40
0.333333
 41
0.333333
  0
VERTEX
  8
0
 10
17.8443
 20
201.922
 30
0.0
 40
0.333333
 41
0.333333
  0
VERTEX
  8
0
 10
17.7939
 20
202.061
 30
0.0
 40
0.333333
 41
0.333333
  0
VERTEX
  8
0
 10
17.7568
 20
202.204
 30
0.0
 40
0.333333
 41
0.333333
  0
VERTEX
  8
0
 10
17.7342
 20
202.353
 30
0.0
 40
0.333333
 41
0.333333
  0
VERTEX
  8
0
 10
17.7264
 20
202.468
 30
0.0
 40
0.333333
 41
0.333333
  0
VERTEX
  8
0
 10
17.7264
 20
202.507
 30
0.0
 40
0.333333
 41
0.333333
  0
VERTEX
  8
0
 10
17.7264
 20
202.544
 30
0.0
 40
0.333333
 41
0.333333
  0
VERTEX
  8
0
 10
17.7342
 20
202.66
 30
0.0
 40
0.333333
 41
0.333333
  0
VERTEX
  8
0
 10
17.7568
 20
202.808
 30
0.0
 40
0.333333
 41
0.333333
  0
VERTEX
  8
0
 10
17.7939
 20
202.953
 30
0.0
 40
0.333333
 41
0.333333
  0
VERTEX
  8
0
 10
17.8443
 20
203.09
 30
0.0
 40
0.333333
 41
0.333333
  0
VERTEX
  8
0
 10
17.9075
 20
203.221
 30
0.0
 40
0.333333
 41
0.333333
  0
VERTEX
  8
0
 10
17.9825
 20
203.346
 30
0.0
 40
0.333333
 41
0.333333
  0
VERTEX
  8
0
 10
18.0689
 20
203.461
 30
0.0
 40
0.333333
 41
0.333333
  0
VERTEX
  8
0
 10
18.1657
 20
203.567
 30
0.0
 40
0.333333
 41
0.333333
  0
VERTEX
  8
0
 10
18.2722
 20
203.664
 30
0.0
 40
0.333333
 41
0.333333
  0
VERTEX
  8
0
 10
18.3876
 20
203.75
 30
0.0
 40
0.333333
 41
0.333333
  0
VERTEX
  8
0
 10
18.5114
 20
203.825
 30
0.0
 40
0.333333
 41
0.333333
  0
VERTEX
  8
0
 10
18.6425
 20
203.889
 30
0.0
 40
0.333333
 41
0.333333
  0
VERTEX
  8
0
 10
18.7803
 20
203.939
 30
0.0
 40
0.333333
 41
0.333333
  0
VERTEX
  8
0
 10
18.9242
 20
203.976
 30
0.0
 40
0.333333
 41
0.333333
  0
VERTEX
  8
0
 10
19.0731
 20
203.999
 30
0.0
 40
0.333333
 41
0.333333
  0
VERTEX
  8
0
 10
19.1881
 20
204.007
 30
0.0
 40
0.333333
 41
0.333333
  0
VERTEX
  8
0
 10
19.2264
 20
204.007
 30
0.0
 40
0.333333
 41
0.333333
  0
VERTEX
  8
0
 10
19.2647
 20
204.007
 30
0.0
 40
0.333333
 41
0.333333
  0
VERTEX
  8
0
 10
19.3797
 20
203.999
 30
0.0
 40
0.333333
 41
0.333333
  0
VERTEX
  8
0
 10
19.5287
 20
203.976
 30
0.0
 40
0.333333
 41
0.333333
  0
VERTEX
  8
0
 10
19.6724
 20
203.939
 30
0.0
 40
0.333333
 41
0.333333
  0
VERTEX
  8
0
 10
19.8103
 20
203.889
 30
0.0
 40
0.333333
 41
0.333333
  0
VERTEX
  8
0
 10
19.9414
 20
203.825
 30
0.0
 40
0.333333
 41
0.333333
  0
VERTEX
  8
0
 10
20.065
 20
203.75
 30
0.0
 40
0.333333
 41
0.333333
  0
VERTEX
  8
0
 10
20.1806
 20
203.664
 30
0.0
 40
0.333333
 41
0.333333
  0
VERTEX
  8
0
 10
20.2871
 20
203.567
 30
0.0
 40
0.333333
 41
0.333333
  0
VERTEX
  8
0
 10
20.3839
 20
203.461
 30
0.0
 40
0.333333
 41
0.333333
  0
VERTEX
  8
0
 10
20.4703
 20
203.346
 30
0.0
 40
0.333333
 41
0.333333
  0
VERTEX
  8
0
 10
20.5454
 20
203.221
 30
0.0
 40
0.333333
 41
0.333333
  0
VERTEX
  8
0
 10
20.6085
 20
203.09
 30
0.0
 40
0.333333
 41
0.333333
  0
VERTEX
  8
0
 10
20.659
 20
202.953
 30
0.0
 40
0.333333
 41
0.333333
  0
VERTEX
  8
0
 10
20.696
 20
202.808
 30
0.0
 40
0.333333
 41
0.333333
  0
VERTEX
  8
0
 10
20.7186
 20
202.66
 30
0.0
 40
0.333333
 41
0.333333
  0
VERTEX
  8
0
 10
20.7264
 20
202.544
 30
0.0
 40
0.333333
 41
0.333333
  0
VERTEX
  8
0
 10
20.7264
 20
202.507
 30
0.0
 40
0.333333
 41
0.333333
  0
SEQEND
 8
0
  0
POLYLINE
  8
0
 62
     0
 66
     1
 10
0
 20
0
 30
0.0
 70
     1
 40
24
 41
24
  0
VERTEX
  8
0
 10
330.376
 20
479.607
 30
0.0
 40
0.333333
 41
0.333333
  0
VERTEX
  8
0
 10
330.376
 20
479.526
 30
0.0
 40
0.333333
 41
0.333333
  0
VERTEX
  8
0
 10
330.361
 20
479.282
 30
0.0
 40
0.333333
 41
0.333333
  0
VERTEX
  8
0
 10
330.313
 20
478.967
 30
0.0
 40
0.333333
 41
0.333333
  0
VERTEX
  8
0
 10
330.235
 20
478.662
 30
0.0
 40
0.333333
 41
0.333333
  0
VERTEX
  8
0
 10
330.128
 20
478.371
 30
0.0
 40
0.333333
 41
0.333333
  0
VERTEX
  8
0
 10
329.993
 20
478.093
 30
0.0
 40
0.333333
 41
0.333333
  0
VERTEX
  8
0
 10
329.835
 20
477.832
 30
0.0
 40
0.333333
 41
0.333333
  0
VERTEX
  8
0
 10
329.651
 20
477.588
 30
0.0
 40
0.333333
 41
0.333333
  0
VERTEX
  8
0
 10
329.447
 20
477.363
 30
0.0
 40
0.333333
 41
0.333333
  0
VERTEX
  8
0
 10
329.221
 20
477.157
 30
0.0
 40
0.333333
 41
0.333333
  0
VERTEX
  8
0
 10
328.976
 20
476.974
 30
0.0
 40
0.333333
 41
0.333333
  0
VERTEX
  8
0
 10
328.715
 20
476.815
 30
0.0
 40
0.333333
 41
0.333333
  0
VERTEX
  8
0
 10
328.438
 20
476.682
 30
0.0
 40
0.333333
 41
0.333333
  0
VERTEX
  8
0
 10
328.146
 20
476.575
 30
0.0
 40
0.333333
 41
0.333333
  0
VERTEX
  8
0
 10
327.842
 20
476.496
 30
0.0
 40
0.333333
 41
0.333333
  0
VERTEX
  8
0
 10
327.526
 20
476.449
 30
0.0
 40
0.333333
 41
0.333333
  0
VERTEX
  8
0
 10
327.283
 20
476.432
 30
0.0
 40
0.333333
 41
0.333333
  0
VERTEX
  8
0
 10
327.201
 20
476.432
 30
0.0
 40
0.333333
 41
0.333333
  0
VERTEX
  8
0
 10
327.121
 20
476.432
 30
0.0
 40
0.333333
 41
0.333333
  0
VERTEX
  8
0
 10
326.878
 20
476.449
 30
0.0
 40
0.333333
 41
0.333333
  0
VERTEX
  8
0
 10
326.563
 20
476.496
 30
0.0
 40
0.333333
 41
0.333333
  0
VERTEX
  8
0
 10
326.258
 20
476.575
 30
0.0
 40
0.333333
 41
0.333333
  0
VERTEX
  8
0
 10
325.967
 20
476.682
 30
0.0
 40
0.333333
 41
0.333333
  0
VERTEX
  8
0
 10
325.689
 20
476.815
 30
0.0
 40
0.333333
 41
0.333333
  0
VERTEX
  8
0
 10
325.426
 20
476.974
 30
0.0
 40
0.333333
 41
0.333333
  0
VERTEX
  8
0
 10
325.182
 20
477.157
 30
0.0
 40
0.333333
 41
0.333333
  0
VERTEX
  8
0
 10
324.957
 20
477.363
 30
0.0
 40
0.333333
 41
0.333333
  0
VERTEX
  8
0
 10
324.751
 20
477.588
 30
0.0
 40
0.333333
 41
0.333333
  0
VERTEX
  8
0
 10
324.569
 20
477.832
 30
0.0
 40
0.333333
 41
0.333333
  0
VERTEX
  8
0
 10
324.41
 20
478.093
 30
0.0
 40
0.333333
 41
0.333333
  0
VERTEX
  8
0
 10
324.276
 20
478.371
 30
0.0
 40
0.333333
 41
0.333333
  0
VERTEX
  8
0
 10
324.169
 20
478.662
 30
0.0
 40
0.333333
 41
0.333333
  0
VERTEX
  8
0
 10
324.092
 20
478.967
 30
0.0
 40
0.333333
 41
0.333333
  0
VERTEX
  8
0
 10
324.043
 20
479.282
 30
0.0
 40
0.333333
 41
0.333333
  0
VERTEX
  8
0
 10
324.026
 20
479.526
 30
0.0
 40
0.333333
 41
0.333333
  0
VERTEX
  8
0
 10
324.026
 20
479.607
 30
0.0
 40
0.333333
 41
0.333333
  0
VERTEX
  8
0
 10
324.026
 20
479.688
 30
0.0
 40
0.333333
 41
0.333333
  0
VERTEX
  8
0
 10
324.043
 20
479.932
 30
0.0
 40
0.333333
 41
0.333333
  0
VERTEX
  8
0
 10
324.092
 20
480.247
 30
0.0
 40
0.333333
 41
0.333333
  0
VERTEX
  8
0
 10
324.169
 20
480.551
 30
0.0
 40
0.333333
 41
0.333333
  0
VERTEX
  8
0
 10
324.276
 20
480.843
 30
0.0
 40
0.333333
 41
0.333333
  0
VERTEX
  8
0
 10
324.41
 20
481.121
 30
0.0
 40
0.333333
 41
0.333333
  0
VERTEX
  8
0
 10
324.569
 20
481.382
 30
0.0
 40
0.333333
 41
0.333333
  0
VERTEX
  8
0
 10
324.751
 20
481.626
 30
0.0
 40
0.333333
 41
0.333333
  0
VERTEX
  8
0
 10
324.957
 20
481.851
 30
0.0
 40
0.333333
 41
0.333333
  0
VERTEX
  8
0
 10
325.182
 20
482.057
 30
0.0
 40
0.333333
 41
0.333333
  0
VERTEX
  8
0
 10
325.426
 20
482.24
 30
0.0
 40
0.333333
 41
0.333333
  0
VERTEX
  8
0
 10
325.689
 20
482.399
 30
0.0
 40
0.333333
 41
0.333333
  0
VERTEX
  8
0
 10
325.967
 20
482.532
 30
0.0
 40
0.333333
 41
0.333333
  0
VERTEX
  8
0
 10
326.258
 20
482.639
 30
0.0
 40
0.333333
 41
0.333333
  0
VERTEX
  8
0
 10
326.563
 20
482.718
 30
0.0
 40
0.333333
 41
0.333333
  0
VERTEX
  8
0
 10
326.878
 20
482.765
 30
0.0
 40
0.333333
 41
0.333333
  0
VERTEX
  8
0
 10
327.121
 20
482.782
 30
0.0
 40
0.333333
 41
0.333333
  0
VERTEX
  8
0
 10
327.201
 20
482.782
 30
0.0
 40
0.333333
 41
0.333333
  0
VERTEX
  8
0
 10
327.283
 20
482.782
 30
0.0
 40
0.333333
 41
0.333333
  0
VERTEX
  8
0
 10
327.526
 20
482.765
 30
0.0
 40
0.333333
 41
0.333333
  0
VERTEX
  8
0
 10
327.842
 20
482.718
 30
0.0
 40
0.333333
 41
0.333333
  0
VERTEX
  8
0
 10
328.146
 20
482.639
 30
0.0
 40
0.333333
 41
0.333333
  0
VERTEX
  8
0
 10
328.438
 20
482.532
 30
0.0
 40
0.333333
 41
0.333333
  0
VERTEX
  8
0
 10
328.715
 20
482.399
 30
0.0
 40
0.333333
 41
0.333333
  0
VERTEX
  8
0
 10
328.976
 20
482.24
 30
0.0
 40
0.333333
 41
0.333333
  0
VERTEX
  8
0
 10
329.221
 20
482.057
 30
0.0
 40
0.333333
 41
0.333333
  0
VERTEX
  8
0
 10
329.447
 20
481.851
 30
0.0
 40
0.333333
 41
0.333333
  0
VERTEX
  8
0
 10
329.651
 20
481.626
 30
0.0
 40
0.333333
 41
0.333333
  0
VERTEX
  8
0
 10
329.835
 20
481.382
 30
0.0
 40
0.333333
 41
0.333333
  0
VERTEX
  8
0
 10
329.993
 20
481.121
 30
0.0
 40
0.333333
 41
0.333333
  0
VERTEX
  8
0
 10
330.128
 20
480.843
 30
0.0
 40
0.333333
 41
0.333333
  0
VERTEX
  8
0
 10
330.235
 20
480.551
 30
0.0
 40
0.333333
 41
0.333333
  0
VERTEX
  8
0
 10
330.313
 20
480.247
 30
0.0
 40
0.333333
 41
0.333333
  0
VERTEX
  8
0
 10
330.361
 20
479.932
 30
0.0
 40
0.333333
 41
0.333333
  0
VERTEX
  8
0
 10
330.376
 20
479.688
 30
0.0
 40
0.333333
 41
0.333333
  0
VERTEX
  8
0
 10
330.376
 20
479.607
 30
0.0
 40
0.333333
 41
0.333333
  0
SEQEND
 8
0
  0
POLYLINE
  8
0
 62
     0
 66
     1
 10
0
 20
0
 30
0.0
 70
     1
 40
24
 41
24
  0
VERTEX
  8
0
 10
350.926
 20
202.507
 30
0.0
 40
0.333333
 41
0.333333
  0
VERTEX
  8
0
 10
350.926
 20
202.468
 30
0.0
 40
0.333333
 41
0.333333
  0
VERTEX
  8
0
 10
350.919
 20
202.353
 30
0.0
 40
0.333333
 41
0.333333
  0
VERTEX
  8
0
 10
350.896
 20
202.204
 30
0.0
 40
0.333333
 41
0.333333
  0
VERTEX
  8
0
 10
350.86
 20
202.061
 30
0.0
 40
0.333333
 41
0.333333
  0
VERTEX
  8
0
 10
350.81
 20
201.922
 30
0.0
 40
0.333333
 41
0.333333
  0
VERTEX
  8
0
 10
350.746
 20
201.792
 30
0.0
 40
0.333333
 41
0.333333
  0
VERTEX
  8
0
 10
350.671
 20
201.668
 30
0.0
 40
0.333333
 41
0.333333
  0
VERTEX
  8
0
 10
350.585
 20
201.553
 30
0.0
 40
0.333333
 41
0.333333
  0
VERTEX
  8
0
 10
350.487
 20
201.446
 30
0.0
 40
0.333333
 41
0.333333
  0
VERTEX
  8
0
 10
350.381
 20
201.349
 30
0.0
 40
0.333333
 41
0.333333
  0
VERTEX
  8
0
 10
350.265
 20
201.263
 30
0.0
 40
0.333333
 41
0.333333
  0
VERTEX
  8
0
 10
350.142
 20
201.188
 30
0.0
 40
0.333333
 41
0.333333
  0
VERTEX
  8
0
 10
350.011
 20
201.125
 30
0.0
 40
0.333333
 41
0.333333
  0
VERTEX
  8
0
 10
349.874
 20
201.074
 30
0.0
 40
0.333333
 41
0.333333
  0
VERTEX
  8
0
 10
349.729
 20
201.038
 30
0.0
 40
0.333333
 41
0.333333
  0
VERTEX
  8
0
 10
349.581
 20
201.014
 30
0.0
 40
0.333333
 41
0.333333
  0
VERTEX
  8
0
 10
349.465
 20
201.007
 30
0.0
 40
0.333333
 41
0.333333
  0
VERTEX
  8
0
 10
349.426
 20
201.007
 30
0.0
 40
0.333333
 41
0.333333
  0
VERTEX
  8
0
 10
349.389
 20
201.007
 30
0.0
 40
0.333333
 41
0.333333
  0
VERTEX
  8
0
 10
349.274
 20
201.014
 30
0.0
 40
0.333333
 41
0.333333
  0
VERTEX
  8
0
 10
349.125
 20
201.038
 30
0.0
 40
0.333333
 41
0.333333
  0
VERTEX
  8
0
 10
348.981
 20
201.074
 30
0.0
 40
0.333333
 41
0.333333
  0
VERTEX
  8
0
 10
348.843
 20
201.125
 30
0.0
 40
0.333333
 41
0.333333
  0
VERTEX
  8
0
 10
348.713
 20
201.188
 30
0.0
 40
0.333333
 41
0.333333
  0
VERTEX
  8
0
 10
348.589
 20
201.263
 30
0.0
 40
0.333333
 41
0.333333
  0
VERTEX
  8
0
 10
348.472
 20
201.349
 30
0.0
 40
0.333333
 41
0.333333
  0
VERTEX
  8
0
 10
348.367
 20
201.446
 30
0.0
 40
0.333333
 41
0.333333
  0
VERTEX
  8
0
 10
348.269
 20
201.553
 30
0.0
 40
0.333333
 41
0.333333
  0
VERTEX
  8
0
 10
348.183
 20
201.668
 30
0.0
 40
0.333333
 41
0.333333
  0
VERTEX
  8
0
 10
348.108
 20
201.792
 30
0.0
 40
0.333333
 41
0.333333
  0
VERTEX
  8
0
 10
348.044
 20
201.922
 30
0.0
 40
0.333333
 41
0.333333
  0
VERTEX
  8
0
 10
347.994
 20
202.061
 30
0.0
 40
0.333333
 41
0.333333
  0
VERTEX
  8
0
 10
347.957
 20
202.204
 30
0.0
 40
0.333333
 41
0.333333
  0
VERTEX
  8
0
 10
347.935
 20
202.353
 30
0.0
 40
0.333333
 41
0.333333
  0
VERTEX
  8
0
 10
347.926
 20
202.468
 30
0.0
 40
0.333333
 41
0.333333
  0
VERTEX
  8
0
 10
347.926
 20
202.507
 30
0.0
 40
0.333333
 41
0.333333
  0
VERTEX
  8
0
 10
347.926
 20
202.544
 30
0.0
 40
0.333333
 41
0.333333
  0
VERTEX
  8
0
 10
347.935
 20
202.66
 30
0.0
 40
0.333333
 41
0.333333
  0
VERTEX
  8
0
 10
347.957
 20
202.808
 30
0.0
 40
0.333333
 41
0.333333
  0
VERTEX
  8
0
 10
347.994
 20
202.953
 30
0.0
 40
0.333333
 41
0.333333
  0
VERTEX
  8
0
 10
348.044
 20
203.09
 30
0.0
 40
0.333333
 41
0.333333
  0
VERTEX
  8
0
 10
348.108
 20
203.221
 30
0.0
 40
0.333333
 41
0.333333
  0
VERTEX
  8
0
 10
348.183
 20
203.346
 30
0.0
 40
0.333333
 41
0.333333
  0
VERTEX
  8
0
 10
348.269
 20
203.461
 30
0.0
 40
0.333333
 41
0.333333
  0
VERTEX
  8
0
 10
348.367
 20
203.567
 30
0.0
 40
0.333333
 41
0.333333
  0
VERTEX
  8
0
 10
348.472
 20
203.664
 30
0.0
 40
0.333333
 41
0.333333
  0
VERTEX
  8
0
 10
348.589
 20
203.75
 30
0.0
 40
0.333333
 41
0.333333
  0
VERTEX
  8
0
 10
348.713
 20
203.825
 30
0.0
 40
0.333333
 41
0.333333
  0
VERTEX
  8
0
 10
348.843
 20
203.889
 30
0.0
 40
0.333333
 41
0.333333
  0
VERTEX
  8
0
 10
348.981
 20
203.939
 30
0.0
 40
0.333333
 41
0.333333
  0
VERTEX
  8
0
 10
349.125
 20
203.976
 30
0.0
 40
0.333333
 41
0.333333
  0
VERTEX
  8
0
 10
349.274
 20
203.999
 30
0.0
 40
0.333333
 41
0.333333
  0
VERTEX
  8
0
 10
349.389
 20
204.007
 30
0.0
 40
0.333333
 41
0.333333
  0
VERTEX
  8
0
 10
349.426
 20
204.007
 30
0.0
 40
0.333333
 41
0.333333
  0
VERTEX
  8
0
 10
349.465
 20
204.007
 30
0.0
 40
0.333333
 41
0.333333
  0
VERTEX
  8
0
 10
349.581
 20
203.999
 30
0.0
 40
0.333333
 41
0.333333
  0
VERTEX
  8
0
 10
349.729
 20
203.976
 30
0.0
 40
0.333333
 41
0.333333
  0
VERTEX
  8
0
 10
349.874
 20
203.939
 30
0.0
 40
0.333333
 41
0.333333
  0
VERTEX
  8
0
 10
350.011
 20
203.889
 30
0.0
 40
0.333333
 41
0.333333
  0
VERTEX
  8
0
 10
350.142
 20
203.825
 30
0.0
 40
0.333333
 41
0.333333
  0
VERTEX
  8
0
 10
350.265
 20
203.75
 30
0.0
 40
0.333333
 41
0.333333
  0
VERTEX
  8
0
 10
350.381
 20
203.664
 30
0.0
 40
0.333333
 41
0.333333
  0
VERTEX
  8
0
 10
350.487
 20
203.567
 30
0.0
 40
0.333333
 41
0.333333
  0
VERTEX
  8
0
 10
350.585
 20
203.461
 30
0.0
 40
0.333333
 41
0.333333
  0
VERTEX
  8
0
 10
350.671
 20
203.346
 30
0.0
 40
0.333333
 41
0.333333
  0
VERTEX
  8
0
 10
350.746
 20
203.221
 30
0.0
 40
0.333333
 41
0.333333
  0
VERTEX
  8
0
 10
350.81
 20
203.09
 30
0.0
 40
0.333333
 41
0.333333
  0
VERTEX
  8
0
 10
350.86
 20
202.953
 30
0.0
 40
0.333333
 41
0.333333
  0
VERTEX
  8
0
 10
350.896
 20
202.808
 30
0.0
 40
0.333333
 41
0.333333
  0
VERTEX
  8
0
 10
350.919
 20
202.66
 30
0.0
 40
0.333333
 41
0.333333
  0
VERTEX
  8
0
 10
350.926
 20
202.544
 30
0.0
 40
0.333333
 41
0.333333
  0
VERTEX
  8
0
 10
350.926
 20
202.507
 30
0.0
 40
0.333333
 41
0.333333
  0
SEQEND
 8
0
  0
POLYLINE
  8
0
 62
     0
 66
     1
 10
0
 20
0
 30
0.0
 70
     1
 40
24
 41
24
  0
VERTEX
  8
0
 10
350.926
 20
218.257
 30
0.0
 40
0.333333
 41
0.333333
  0
VERTEX
  8
0
 10
350.926
 20
218.218
 30
0.0
 40
0.333333
 41
0.333333
  0
VERTEX
  8
0
 10
350.919
 20
218.103
 30
0.0
 40
0.333333
 41
0.333333
  0
VERTEX
  8
0
 10
350.896
 20
217.954
 30
0.0
 40
0.333333
 41
0.333333
  0
VERTEX
  8
0
 10
350.86
 20
217.811
 30
0.0
 40
0.333333
 41
0.333333
  0
VERTEX
  8
0
 10
350.81
 20
217.672
 30
0.0
 40
0.333333
 41
0.333333
  0
VERTEX
  8
0
 10
350.746
 20
217.542
 30
0.0
 40
0.333333
 41
0.333333
  0
VERTEX
  8
0
 10
350.671
 20
217.418
 30
0.0
 40
0.333333
 41
0.333333
  0
VERTEX
  8
0
 10
350.585
 20
217.303
 30
0.0
 40
0.333333
 41
0.333333
  0
VERTEX
  8
0
 10
350.487
 20
217.196
 30
0.0
 40
0.333333
 41
0.333333
  0
VERTEX
  8
0
 10
350.381
 20
217.099
 30
0.0
 40
0.333333
 41
0.333333
  0
VERTEX
  8
0
 10
350.265
 20
217.013
 30
0.0
 40
0.333333
 41
0.333333
  0
VERTEX
  8
0
 10
350.142
 20
216.938
 30
0.0
 40
0.333333
 41
0.333333
  0
VERTEX
  8
0
 10
350.011
 20
216.875
 30
0.0
 40
0.333333
 41
0.333333
  0
VERTEX
  8
0
 10
349.874
 20
216.824
 30
0.0
 40
0.333333
 41
0.333333
  0
VERTEX
  8
0
 10
349.729
 20
216.788
 30
0.0
 40
0.333333
 41
0.333333
  0
VERTEX
  8
0
 10
349.581
 20
216.764
 30
0.0
 40
0.333333
 41
0.333333
  0
VERTEX
  8
0
 10
349.465
 20
216.757
 30
0.0
 40
0.333333
 41
0.333333
  0
VERTEX
  8
0
 10
349.426
 20
216.757
 30
0.0
 40
0.333333
 41
0.333333
  0
VERTEX
  8
0
 10
349.389
 20
216.757
 30
0.0
 40
0.333333
 41
0.333333
  0
VERTEX
  8
0
 10
349.274
 20
216.764
 30
0.0
 40
0.333333
 41
0.333333
  0
VERTEX
  8
0
 10
349.125
 20
216.788
 30
0.0
 40
0.333333
 41
0.333333
  0
VERTEX
  8
0
 10
348.981
 20
216.824
 30
0.0
 40
0.333333
 41
0.333333
  0
VERTEX
  8
0
 10
348.843
 20
216.875
 30
0.0
 40
0.333333
 41
0.333333
  0
VERTEX
  8
0
 10
348.713
 20
216.938
 30
0.0
 40
0.333333
 41
0.333333
  0
VERTEX
  8
0
 10
348.589
 20
217.013
 30
0.0
 40
0.333333
 41
0.333333
  0
VERTEX
  8
0
 10
348.472
 20
217.099
 30
0.0
 40
0.333333
 41
0.333333
  0
VERTEX
  8
0
 10
348.367
 20
217.196
 30
0.0
 40
0.333333
 41
0.333333
  0
VERTEX
  8
0
 10
348.269
 20
217.303
 30
0.0
 40
0.333333
 41
0.333333
  0
VERTEX
  8
0
 10
348.183
 20
217.418
 30
0.0
 40
0.333333
 41
0.333333
  0
VERTEX
  8
0
 10
348.108
 20
217.542
 30
0.0
 40
0.333333
 41
0.333333
  0
VERTEX
  8
0
 10
348.044
 20
217.672
 30
0.0
 40
0.333333
 41
0.333333
  0
VERTEX
  8
0
 10
347.994
 20
217.811
 30
0.0
 40
0.333333
 41
0.333333
  0
VERTEX
  8
0
 10
347.957
 20
217.954
 30
0.0
 40
0.333333
 41
0.333333
  0
VERTEX
  8
0
 10
347.935
 20
218.103
 30
0.0
 40
0.333333
 41
0.333333
  0
VERTEX
  8
0
 10
347.926
 20
218.218
 30
0.0
 40
0.333333
 41
0.333333
  0
VERTEX
  8
0
 10
347.926
 20
218.257
 30
0.0
 40
0.333333
 41
0.333333
  0
VERTEX
  8
0
 10
347.926
 20
218.294
 30
0.0
 40
0.333333
 41
0.333333
  0
VERTEX
  8
0
 10
347.935
 20
218.41
 30
0.0
 40
0.333333
 41
0.333333
  0
VERTEX
  8
0
 10
347.957
 20
218.558
 30
0.0
 40
0.333333
 41
0.333333
  0
VERTEX
  8
0
 10
347.994
 20
218.703
 30
0.0
 40
0.333333
 41
0.333333
  0
VERTEX
  8
0
 10
348.044
 20
218.84
 30
0.0
 40
0.333333
 41
0.333333
  0
VERTEX
  8
0
 10
348.108
 20
218.971
 30
0.0
 40
0.333333
 41
0.333333
  0
VERTEX
  8
0
 10
348.183
 20
219.096
 30
0.0
 40
0.333333
 41
0.333333
  0
VERTEX
  8
0
 10
348.269
 20
219.211
 30
0.0
 40
0.333333
 41
0.333333
  0
VERTEX
  8
0
 10
348.367
 20
219.317
 30
0.0
 40
0.333333
 41
0.333333
  0
VERTEX
  8
0
 10
348.472
 20
219.414
 30
0.0
 40
0.333333
 41
0.333333
  0
VERTEX
  8
0
 10
348.589
 20
219.5
 30
0.0
 40
0.333333
 41
0.333333
  0
VERTEX
  8
0
 10
348.713
 20
219.575
 30
0.0
 40
0.333333
 41
0.333333
  0
VERTEX
  8
0
 10
348.843
 20
219.639
 30
0.0
 40
0.333333
 41
0.333333
  0
VERTEX
  8
0
 10
348.981
 20
219.689
 30
0.0
 40
0.333333
 41
0.333333
  0
VERTEX
  8
0
 10
349.125
 20
219.726
 30
0.0
 40
0.333333
 41
0.333333
  0
VERTEX
  8
0
 10
349.274
 20
219.749
 30
0.0
 40
0.333333
 41
0.333333
  0
VERTEX
  8
0
 10
349.389
 20
219.757
 30
0.0
 40
0.333333
 41
0.333333
  0
VERTEX
  8
0
 10
349.426
 20
219.757
 30
0.0
 40
0.333333
 41
0.333333
  0
VERTEX
  8
0
 10
349.465
 20
219.757
 30
0.0
 40
0.333333
 41
0.333333
  0
VERTEX
  8
0
 10
349.581
 20
219.749
 30
0.0
 40
0.333333
 41
0.333333
  0
VERTEX
  8
0
 10
349.729
 20
219.726
 30
0.0
 40
0.333333
 41
0.333333
  0
VERTEX
  8
0
 10
349.874
 20
219.689
 30
0.0
 40
0.333333
 41
0.333333
  0
VERTEX
  8
0
 10
350.011
 20
219.639
 30
0.0
 40
0.333333
 41
0.333333
  0
VERTEX
  8
0
 10
350.142
 20
219.575
 30
0.0
 40
0.333333
 41
0.333333
  0
VERTEX
  8
0
 10
350.265
 20
219.5
 30
0.0
 40
0.333333
 41
0.333333
  0
VERTEX
  8
0
 10
350.381
 20
219.414
 30
0.0
 40
0.333333
 41
0.333333
  0
VERTEX
  8
0
 10
350.487
 20
219.317
 30
0.0
 40
0.333333
 41
0.333333
  0
VERTEX
  8
0
 10
350.585
 20
219.211
 30
0.0
 40
0.333333
 41
0.333333
  0
VERTEX
  8
0
 10
350.671
 20
219.096
 30
0.0
 40
0.333333
 41
0.333333
  0
VERTEX
  8
0
 10
350.746
 20
218.971
 30
0.0
 40
0.333333
 41
0.333333
  0
VERTEX
  8
0
 10
350.81
 20
218.84
 30
0.0
 40
0.333333
 41
0.333333
  0
VERTEX
  8
0
 10
350.86
 20
218.703
 30
0.0
 40
0.333333
 41
0.333333
  0
VERTEX
  8
0
 10
350.896
 20
218.558
 30
0.0
 40
0.333333
 41
0.333333
  0
VERTEX
  8
0
 10
350.919
 20
218.41
 30
0.0
 40
0.333333
 41
0.333333
  0
VERTEX
  8
0
 10
350.926
 20
218.294
 30
0.0
 40
0.333333
 41
0.333333
  0
VERTEX
  8
0
 10
350.926
 20
218.257
 30
0.0
 40
0.333333
 41
0.333333
  0
SEQEND
 8
0
  0
POLYLINE
  8
0
 62
     0
 66
     1
 10
0
 20
0
 30
0.0
 70
     1
 40
24
 41
24
  0
VERTEX
  8
0
 10
204.876
 20
218.257
 30
0.0
 40
0.333333
 41
0.333333
  0
VERTEX
  8
0
 10
204.876
 20
218.218
 30
0.0
 40
0.333333
 41
0.333333
  0
VERTEX
  8
0
 10
204.869
 20
218.103
 30
0.0
 40
0.333333
 41
0.333333
  0
VERTEX
  8
0
 10
204.846
 20
217.954
 30
0.0
 40
0.333333
 41
0.333333
  0
VERTEX
  8
0
 10
204.81
 20
217.811
 30
0.0
 40
0.333333
 41
0.333333
  0
VERTEX
  8
0
 10
204.758
 20
217.672
 30
0.0
 40
0.333333
 41
0.333333
  0
VERTEX
  8
0
 10
204.696
 20
217.542
 30
0.0
 40
0.333333
 41
0.333333
  0
VERTEX
  8
0
 10
204.621
 20
217.418
 30
0.0
 40
0.333333
 41
0.333333
  0
VERTEX
  8
0
 10
204.535
 20
217.303
 30
0.0
 40
0.333333
 41
0.333333
  0
VERTEX
  8
0
 10
204.438
 20
217.196
 30
0.0
 40
0.333333
 41
0.333333
  0
VERTEX
  8
0
 10
204.331
 20
217.099
 30
0.0
 40
0.333333
 41
0.333333
  0
VERTEX
  8
0
 10
204.215
 20
217.013
 30
0.0
 40
0.333333
 41
0.333333
  0
VERTEX
  8
0
 10
204.092
 20
216.938
 30
0.0
 40
0.333333
 41
0.333333
  0
VERTEX
  8
0
 10
203.961
 20
216.875
 30
0.0
 40
0.333333
 41
0.333333
  0
VERTEX
  8
0
 10
203.822
 20
216.824
 30
0.0
 40
0.333333
 41
0.333333
  0
VERTEX
  8
0
 10
203.679
 20
216.788
 30
0.0
 40
0.333333
 41
0.333333
  0
VERTEX
  8
0
 10
203.531
 20
216.764
 30
0.0
 40
0.333333
 41
0.333333
  0
VERTEX
  8
0
 10
203.415
 20
216.757
 30
0.0
 40
0.333333
 41
0.333333
  0
VERTEX
  8
0
 10
203.376
 20
216.757
 30
0.0
 40
0.333333
 41
0.333333
  0
VERTEX
  8
0
 10
203.339
 20
216.757
 30
0.0
 40
0.333333
 41
0.333333
  0
VERTEX
  8
0
 10
203.224
 20
216.764
 30
0.0
 40
0.333333
 41
0.333333
  0
VERTEX
  8
0
 10
203.075
 20
216.788
 30
0.0
 40
0.333333
 41
0.333333
  0
VERTEX
  8
0
 10
202.931
 20
216.824
 30
0.0
 40
0.333333
 41
0.333333
  0
VERTEX
  8
0
 10
202.793
 20
216.875
 30
0.0
 40
0.333333
 41
0.333333
  0
VERTEX
  8
0
 10
202.661
 20
216.938
 30
0.0
 40
0.333333
 41
0.333333
  0
VERTEX
  8
0
 10
202.538
 20
217.013
 30
0.0
 40
0.333333
 41
0.333333
  0
VERTEX
  8
0
 10
202.422
 20
217.099
 30
0.0
 40
0.333333
 41
0.333333
  0
VERTEX
  8
0
 10
202.317
 20
217.196
 30
0.0
 40
0.333333
 41
0.333333
  0
VERTEX
  8
0
 10
202.219
 20
217.303
 30
0.0
 40
0.333333
 41
0.333333
  0
VERTEX
  8
0
 10
202.133
 20
217.418
 30
0.0
 40
0.333333
 41
0.333333
  0
VERTEX
  8
0
 10
202.058
 20
217.542
 30
0.0
 40
0.333333
 41
0.333333
  0
VERTEX
  8
0
 10
201.994
 20
217.672
 30
0.0
 40
0.333333
 41
0.333333
  0
VERTEX
  8
0
 10
201.944
 20
217.811
 30
0.0
 40
0.333333
 41
0.333333
  0
VERTEX
  8
0
 10
201.907
 20
217.954
 30
0.0
 40
0.333333
 41
0.333333
  0
VERTEX
  8
0
 10
201.885
 20
218.103
 30
0.0
 40
0.333333
 41
0.333333
  0
VERTEX
  8
0
 10
201.876
 20
218.218
 30
0.0
 40
0.333333
 41
0.333333
  0
VERTEX
  8
0
 10
201.876
 20
218.257
 30
0.0
 40
0.333333
 41
0.333333
  0
VERTEX
  8
0
 10
201.876
 20
218.294
 30
0.0
 40
0.333333
 41
0.333333
  0
VERTEX
  8
0
 10
201.885
 20
218.41
 30
0.0
 40
0.333333
 41
0.333333
  0
VERTEX
  8
0
 10
201.907
 20
218.558
 30
0.0
 40
0.333333
 41
0.333333
  0
VERTEX
  8
0
 10
201.944
 20
218.703
 30
0.0
 40
0.333333
 41
0.333333
  0
VERTEX
  8
0
 10
201.994
 20
218.84
 30
0.0
 40
0.333333
 41
0.333333
  0
VERTEX
  8
0
 10
202.058
 20
218.971
 30
0.0
 40
0.333333
 41
0.333333
  0
VERTEX
  8
0
 10
202.133
 20
219.096
 30
0.0
 40
0.333333
 41
0.333333
  0
VERTEX
  8
0
 10
202.219
 20
219.211
 30
0.0
 40
0.333333
 41
0.333333
  0
VERTEX
  8
0
 10
202.317
 20
219.317
 30
0.0
 40
0.333333
 41
0.333333
  0
VERTEX
  8
0
 10
202.422
 20
219.414
 30
0.0
 40
0.333333
 41
0.333333
  0
VERTEX
  8
0
 10
202.538
 20
219.5
 30
0.0
 40
0.333333
 41
0.333333
  0
VERTEX
  8
0
 10
202.661
 20
219.575
 30
0.0
 40
0.333333
 41
0.333333
  0
VERTEX
  8
0
 10
202.793
 20
219.639
 30
0.0
 40
0.333333
 41
0.333333
  0
VERTEX
  8
0
 10
202.931
 20
219.689
 30
0.0
 40
0.333333
 41
0.333333
  0
VERTEX
  8
0
 10
203.075
 20
219.726
 30
0.0
 40
0.333333
 41
0.333333
  0
VERTEX
  8
0
 10
203.224
 20
219.749
 30
0.0
 40
0.333333
 41
0.333333
  0
VERTEX
  8
0
 10
203.339
 20
219.757
 30
0.0
 40
0.333333
 41
0.333333
  0
VERTEX
  8
0
 10
203.376
 20
219.757
 30
0.0
 40
0.333333
 41
0.333333
  0
VERTEX
  8
0
 10
203.415
 20
219.757
 30
0.0
 40
0.333333
 41
0.333333
  0
VERTEX
  8
0
 10
203.531
 20
219.749
 30
0.0
 40
0.333333
 41
0.333333
  0
VERTEX
  8
0
 10
203.679
 20
219.726
 30
0.0
 40
0.333333
 41
0.333333
  0
VERTEX
  8
0
 10
203.822
 20
219.689
 30
0.0
 40
0.333333
 41
0.333333
  0
VERTEX
  8
0
 10
203.961
 20
219.639
 30
0.0
 40
0.333333
 41
0.333333
  0
VERTEX
  8
0
 10
204.092
 20
219.575
 30
0.0
 40
0.333333
 41
0.333333
  0
VERTEX
  8
0
 10
204.215
 20
219.5
 30
0.0
 40
0.333333
 41
0.333333
  0
VERTEX
  8
0
 10
204.331
 20
219.414
 30
0.0
 40
0.333333
 41
0.333333
  0
VERTEX
  8
0
 10
204.438
 20
219.317
 30
0.0
 40
0.333333
 41
0.333333
  0
VERTEX
  8
0
 10
204.535
 20
219.211
 30
0.0
 40
0.333333
 41
0.333333
  0
VERTEX
  8
0
 10
204.621
 20
219.096
 30
0.0
 40
0.333333
 41
0.333333
  0
VERTEX
  8
0
 10
204.696
 20
218.971
 30
0.0
 40
0.333333
 41
0.333333
  0
VERTEX
  8
0
 10
204.758
 20
218.84
 30
0.0
 40
0.333333
 41
0.333333
  0
VERTEX
  8
0
 10
204.81
 20
218.703
 30
0.0
 40
0.333333
 41
0.333333
  0
VERTEX
  8
0
 10
204.846
 20
218.558
 30
0.0
 40
0.333333
 41
0.333333
  0
VERTEX
  8
0
 10
204.869
 20
218.41
 30
0.0
 40
0.333333
 41
0.333333
  0
VERTEX
  8
0
 10
204.876
 20
218.294
 30
0.0
 40
0.333333
 41
0.333333
  0
VERTEX
  8
0
 10
204.876
 20
218.257
 30
0.0
 40
0.333333
 41
0.333333
  0
SEQEND
 8
0
  0
POLYLINE
  8
0
 62
     0
 66
     1
 10
0
 20
0
 30
0.0
 70
     1
 40
24
 41
24
  0
VERTEX
  8
0
 10
204.876
 20
202.507
 30
0.0
 40
0.333333
 41
0.333333
  0
VERTEX
  8
0
 10
204.876
 20
202.468
 30
0.0
 40
0.333333
 41
0.333333
  0
VERTEX
  8
0
 10
204.869
 20
202.353
 30
0.0
 40
0.333333
 41
0.333333
  0
VERTEX
  8
0
 10
204.846
 20
202.204
 30
0.0
 40
0.333333
 41
0.333333
  0
VERTEX
  8
0
 10
204.81
 20
202.061
 30
0.0
 40
0.333333
 41
0.333333
  0
VERTEX
  8
0
 10
204.758
 20
201.922
 30
0.0
 40
0.333333
 41
0.333333
  0
VERTEX
  8
0
 10
204.696
 20
201.792
 30
0.0
 40
0.333333
 41
0.333333
  0
VERTEX
  8
0
 10
204.621
 20
201.668
 30
0.0
 40
0.333333
 41
0.333333
  0
VERTEX
  8
0
 10
204.535
 20
201.553
 30
0.0
 40
0.333333
 41
0.333333
  0
VERTEX
  8
0
 10
204.438
 20
201.446
 30
0.0
 40
0.333333
 41
0.333333
  0
VERTEX
  8
0
 10
204.331
 20
201.349
 30
0.0
 40
0.333333
 41
0.333333
  0
VERTEX
  8
0
 10
204.215
 20
201.263
 30
0.0
 40
0.333333
 41
0.333333
  0
VERTEX
  8
0
 10
204.092
 20
201.188
 30
0.0
 40
0.333333
 41
0.333333
  0
VERTEX
  8
0
 10
203.961
 20
201.125
 30
0.0
 40
0.333333
 41
0.333333
  0
VERTEX
  8
0
 10
203.822
 20
201.074
 30
0.0
 40
0.333333
 41
0.333333
  0
VERTEX
  8
0
 10
203.679
 20
201.038
 30
0.0
 40
0.333333
 41
0.333333
  0
VERTEX
  8
0
 10
203.531
 20
201.014
 30
0.0
 40
0.333333
 41
0.333333
  0
VERTEX
  8
0
 10
203.415
 20
201.007
 30
0.0
 40
0.333333
 41
0.333333
  0
VERTEX
  8
0
 10
203.376
 20
201.007
 30
0.0
 40
0.333333
 41
0.333333
  0
VERTEX
  8
0
 10
203.339
 20
201.007
 30
0.0
 40
0.333333
 41
0.333333
  0
VERTEX
  8
0
 10
203.224
 20
201.014
 30
0.0
 40
0.333333
 41
0.333333
  0
VERTEX
  8
0
 10
203.075
 20
201.038
 30
0.0
 40
0.333333
 41
0.333333
  0
VERTEX
  8
0
 10
202.931
 20
201.074
 30
0.0
 40
0.333333
 41
0.333333
  0
VERTEX
  8
0
 10
202.793
 20
201.125
 30
0.0
 40
0.333333
 41
0.333333
  0
VERTEX
  8
0
 10
202.661
 20
201.188
 30
0.0
 40
0.333333
 41
0.333333
  0
VERTEX
  8
0
 10
202.538
 20
201.263
 30
0.0
 40
0.333333
 41
0.333333
  0
VERTEX
  8
0
 10
202.422
 20
201.349
 30
0.0
 40
0.333333
 41
0.333333
  0
VERTEX
  8
0
 10
202.317
 20
201.446
 30
0.0
 40
0.333333
 41
0.333333
  0
VERTEX
  8
0
 10
202.219
 20
201.553
 30
0.0
 40
0.333333
 41
0.333333
  0
VERTEX
  8
0
 10
202.133
 20
201.668
 30
0.0
 40
0.333333
 41
0.333333
  0
VERTEX
  8
0
 10
202.058
 20
201.792
 30
0.0
 40
0.333333
 41
0.333333
  0
VERTEX
  8
0
 10
201.994
 20
201.922
 30
0.0
 40
0.333333
 41
0.333333
  0
VERTEX
  8
0
 10
201.944
 20
202.061
 30
0.0
 40
0.333333
 41
0.333333
  0
VERTEX
  8
0
 10
201.907
 20
202.204
 30
0.0
 40
0.333333
 41
0.333333
  0
VERTEX
  8
0
 10
201.885
 20
202.353
 30
0.0
 40
0.333333
 41
0.333333
  0
VERTEX
  8
0
 10
201.876
 20
202.468
 30
0.0
 40
0.333333
 41
0.333333
  0
VERTEX
  8
0
 10
201.876
 20
202.507
 30
0.0
 40
0.333333
 41
0.333333
  0
VERTEX
  8
0
 10
201.876
 20
202.544
 30
0.0
 40
0.333333
 41
0.333333
  0
VERTEX
  8
0
 10
201.885
 20
202.66
 30
0.0
 40
0.333333
 41
0.333333
  0
VERTEX
  8
0
 10
201.907
 20
202.808
 30
0.0
 40
0.333333
 41
0.333333
  0
VERTEX
  8
0
 10
201.944
 20
202.953
 30
0.0
 40
0.333333
 41
0.333333
  0
VERTEX
  8
0
 10
201.994
 20
203.09
 30
0.0
 40
0.333333
 41
0.333333
  0
VERTEX
  8
0
 10
202.058
 20
203.221
 30
0.0
 40
0.333333
 41
0.333333
  0
VERTEX
  8
0
 10
202.133
 20
203.346
 30
0.0
 40
0.333333
 41
0.333333
  0
VERTEX
  8
0
 10
202.219
 20
203.461
 30
0.0
 40
0.333333
 41
0.333333
  0
VERTEX
  8
0
 10
202.317
 20
203.567
 30
0.0
 40
0.333333
 41
0.333333
  0
VERTEX
  8
0
 10
202.422
 20
203.664
 30
0.0
 40
0.333333
 41
0.333333
  0
VERTEX
  8
0
 10
202.538
 20
203.75
 30
0.0
 40
0.333333
 41
0.333333
  0
VERTEX
  8
0
 10
202.661
 20
203.825
 30
0.0
 40
0.333333
 41
0.333333
  0
VERTEX
  8
0
 10
202.793
 20
203.889
 30
0.0
 40
0.333333
 41
0.333333
  0
VERTEX
  8
0
 10
202.931
 20
203.939
 30
0.0
 40
0.333333
 41
0.333333
  0
VERTEX
  8
0
 10
203.075
 20
203.976
 30
0.0
 40
0.333333
 41
0.333333
  0
VERTEX
  8
0
 10
203.224
 20
203.999
 30
0.0
 40
0.333333
 41
0.333333
  0
VERTEX
  8
0
 10
203.339
 20
204.007
 30
0.0
 40
0.333333
 41
0.333333
  0
VERTEX
  8
0
 10
203.376
 20
204.007
 30
0.0
 40
0.333333
 41
0.333333
  0
VERTEX
  8
0
 10
203.415
 20
204.007
 30
0.0
 40
0.333333
 41
0.333333
  0
VERTEX
  8
0
 10
203.531
 20
203.999
 30
0.0
 40
0.333333
 41
0.333333
  0
VERTEX
  8
0
 10
203.679
 20
203.976
 30
0.0
 40
0.333333
 41
0.333333
  0
VERTEX
  8
0
 10
203.822
 20
203.939
 30
0.0
 40
0.333333
 41
0.333333
  0
VERTEX
  8
0
 10
203.961
 20
203.889
 30
0.0
 40
0.333333
 41
0.333333
  0
VERTEX
  8
0
 10
204.092
 20
203.825
 30
0.0
 40
0.333333
 41
0.333333
  0
VERTEX
  8
0
 10
204.215
 20
203.75
 30
0.0
 40
0.333333
 41
0.333333
  0
VERTEX
  8
0
 10
204.331
 20
203.664
 30
0.0
 40
0.333333
 41
0.333333
  0
VERTEX
  8
0
 10
204.438
 20
203.567
 30
0.0
 40
0.333333
 41
0.333333
  0
VERTEX
  8
0
 10
204.535
 20
203.461
 30
0.0
 40
0.333333
 41
0.333333
  0
VERTEX
  8
0
 10
204.621
 20
203.346
 30
0.0
 40
0.333333
 41
0.333333
  0
VERTEX
  8
0
 10
204.696
 20
203.221
 30
0.0
 40
0.333333
 41
0.333333
  0
VERTEX
  8
0
 10
204.758
 20
203.09
 30
0.0
 40
0.333333
 41
0.333333
  0
VERTEX
  8
0
 10
204.81
 20
202.953
 30
0.0
 40
0.333333
 41
0.333333
  0
VERTEX
  8
0
 10
204.846
 20
202.808
 30
0.0
 40
0.333333
 41
0.333333
  0
VERTEX
  8
0
 10
204.869
 20
202.66
 30
0.0
 40
0.333333
 41
0.333333
  0
VERTEX
  8
0
 10
204.876
 20
202.544
 30
0.0
 40
0.333333
 41
0.333333
  0
VERTEX
  8
0
 10
204.876
 20
202.507
 30
0.0
 40
0.333333
 41
0.333333
  0
SEQEND
 8
0
  0
POLYLINE
  8
0
 62
     0
 66
     1
 10
0
 20
0
 30
0.0
 70
     1
 40
24
 41
24
  0
VERTEX
  8
0
 10
514.528
 20
479.607
 30
0.0
 40
0.333333
 41
0.333333
  0
VERTEX
  8
0
 10
514.528
 20
479.526
 30
0.0
 40
0.333333
 41
0.333333
  0
VERTEX
  8
0
 10
514.511
 20
479.282
 30
0.0
 40
0.333333
 41
0.333333
  0
VERTEX
  8
0
 10
514.463
 20
478.967
 30
0.0
 40
0.333333
 41
0.333333
  0
VERTEX
  8
0
 10
514.385
 20
478.662
 30
0.0
 40
0.333333
 41
0.333333
  0
VERTEX
  8
0
 10
514.278
 20
478.371
 30
0.0
 40
0.333333
 41
0.333333
  0
VERTEX
  8
0
 10
514.144
 20
478.093
 30
0.0
 40
0.333333
 41
0.333333
  0
VERTEX
  8
0
 10
513.985
 20
477.832
 30
0.0
 40
0.333333
 41
0.333333
  0
VERTEX
  8
0
 10
513.803
 20
477.588
 30
0.0
 40
0.333333
 41
0.333333
  0
VERTEX
  8
0
 10
513.597
 20
477.363
 30
0.0
 40
0.333333
 41
0.333333
  0
VERTEX
  8
0
 10
513.372
 20
477.157
 30
0.0
 40
0.333333
 41
0.333333
  0
VERTEX
  8
0
 10
513.128
 20
476.974
 30
0.0
 40
0.333333
 41
0.333333
  0
VERTEX
  8
0
 10
512.865
 20
476.815
 30
0.0
 40
0.333333
 41
0.333333
  0
VERTEX
  8
0
 10
512.588
 20
476.682
 30
0.0
 40
0.333333
 41
0.333333
  0
VERTEX
  8
0
 10
512.296
 20
476.575
 30
0.0
 40
0.333333
 41
0.333333
  0
VERTEX
  8
0
 10
511.992
 20
476.496
 30
0.0
 40
0.333333
 41
0.333333
  0
VERTEX
  8
0
 10
511.676
 20
476.449
 30
0.0
 40
0.333333
 41
0.333333
  0
VERTEX
  8
0
 10
511.433
 20
476.432
 30
0.0
 40
0.333333
 41
0.333333
  0
VERTEX
  8
0
 10
511.353
 20
476.432
 30
0.0
 40
0.333333
 41
0.333333
  0
VERTEX
  8
0
 10
511.271
 20
476.432
 30
0.0
 40
0.333333
 41
0.333333
  0
VERTEX
  8
0
 10
511.028
 20
476.449
 30
0.0
 40
0.333333
 41
0.333333
  0
VERTEX
  8
0
 10
510.713
 20
476.496
 30
0.0
 40
0.333333
 41
0.333333
  0
VERTEX
  8
0
 10
510.408
 20
476.575
 30
0.0
 40
0.333333
 41
0.333333
  0
VERTEX
  8
0
 10
510.117
 20
476.682
 30
0.0
 40
0.333333
 41
0.333333
  0
VERTEX
  8
0
 10
509.839
 20
476.815
 30
0.0
 40
0.333333
 41
0.333333
  0
VERTEX
  8
0
 10
509.576
 20
476.974
 30
0.0
 40
0.333333
 41
0.333333
  0
VERTEX
  8
0
 10
509.332
 20
477.157
 30
0.0
 40
0.333333
 41
0.333333
  0
VERTEX
  8
0
 10
509.107
 20
477.363
 30
0.0
 40
0.333333
 41
0.333333
  0
VERTEX
  8
0
 10
508.903
 20
477.588
 30
0.0
 40
0.333333
 41
0.333333
  0
VERTEX
  8
0
 10
508.719
 20
477.832
 30
0.0
 40
0.333333
 41
0.333333
  0
VERTEX
  8
0
 10
508.56
 20
478.093
 30
0.0
 40
0.333333
 41
0.333333
  0
VERTEX
  8
0
 10
508.426
 20
478.371
 30
0.0
 40
0.333333
 41
0.333333
  0
VERTEX
  8
0
 10
508.319
 20
478.662
 30
0.0
 40
0.333333
 41
0.333333
  0
VERTEX
  8
0
 10
508.242
 20
478.967
 30
0.0
 40
0.333333
 41
0.333333
  0
VERTEX
  8
0
 10
508.193
 20
479.282
 30
0.0
 40
0.333333
 41
0.333333
  0
VERTEX
  8
0
 10
508.178
 20
479.526
 30
0.0
 40
0.333333
 41
0.333333
  0
VERTEX
  8
0
 10
508.178
 20
479.607
 30
0.0
 40
0.333333
 41
0.333333
  0
VERTEX
  8
0
 10
508.178
 20
479.688
 30
0.0
 40
0.333333
 41
0.333333
  0
VERTEX
  8
0
 10
508.193
 20
479.932
 30
0.0
 40
0.333333
 41
0.333333
  0
VERTEX
  8
0
 10
508.242
 20
480.247
 30
0.0
 40
0.333333
 41
0.333333
  0
VERTEX
  8
0
 10
508.319
 20
480.551
 30
0.0
 40
0.333333
 41
0.333333
  0
VERTEX
  8
0
 10
508.426
 20
480.843
 30
0.0
 40
0.333333
 41
0.333333
  0
VERTEX
  8
0
 10
508.56
 20
481.121
 30
0.0
 40
0.333333
 41
0.333333
  0
VERTEX
  8
0
 10
508.719
 20
481.382
 30
0.0
 40
0.333333
 41
0.333333
  0
VERTEX
  8
0
 10
508.903
 20
481.626
 30
0.0
 40
0.333333
 41
0.333333
  0
VERTEX
  8
0
 10
509.107
 20
481.851
 30
0.0
 40
0.333333
 41
0.333333
  0
VERTEX
  8
0
 10
509.332
 20
482.057
 30
0.0
 40
0.333333
 41
0.333333
  0
VERTEX
  8
0
 10
509.576
 20
482.24
 30
0.0
 40
0.333333
 41
0.333333
  0
VERTEX
  8
0
 10
509.839
 20
482.399
 30
0.0
 40
0.333333
 41
0.333333
  0
VERTEX
  8
0
 10
510.117
 20
482.532
 30
0.0
 40
0.333333
 41
0.333333
  0
VERTEX
  8
0
 10
510.408
 20
482.639
 30
0.0
 40
0.333333
 41
0.333333
  0
VERTEX
  8
0
 10
510.713
 20
482.718
 30
0.0
 40
0.333333
 41
0.333333
  0
VERTEX
  8
0
 10
511.028
 20
482.765
 30
0.0
 40
0.333333
 41
0.333333
  0
VERTEX
  8
0
 10
511.271
 20
482.782
 30
0.0
 40
0.333333
 41
0.333333
  0
VERTEX
  8
0
 10
511.353
 20
482.782
 30
0.0
 40
0.333333
 41
0.333333
  0
VERTEX
  8
0
 10
511.433
 20
482.782
 30
0.0
 40
0.333333
 41
0.333333
  0
VERTEX
  8
0
 10
511.676
 20
482.765
 30
0.0
 40
0.333333
 41
0.333333
  0
VERTEX
  8
0
 10
511.992
 20
482.718
 30
0.0
 40
0.333333
 41
0.333333
  0
VERTEX
  8
0
 10
512.296
 20
482.639
 30
0.0
 40
0.333333
 41
0.333333
  0
VERTEX
  8
0
 10
512.588
 20
482.532
 30
0.0
 40
0.333333
 41
0.333333
  0
VERTEX
  8
0
 10
512.865
 20
482.399
 30
0.0
 40
0.333333
 41
0.333333
  0
VERTEX
  8
0
 10
513.128
 20
482.24
 30
0.0
 40
0.333333
 41
0.333333
  0
VERTEX
  8
0
 10
513.372
 20
482.057
 30
0.0
 40
0.333333
 41
0.333333
  0
VERTEX
  8
0
 10
513.597
 20
481.851
 30
0.0
 40
0.333333
 41
0.333333
  0
VERTEX
  8
0
 10
513.803
 20
481.626
 30
0.0
 40
0.333333
 41
0.333333
  0
VERTEX
  8
0
 10
513.985
 20
481.382
 30
0.0
 40
0.333333
 41
0.333333
  0
VERTEX
  8
0
 10
514.144
 20
481.121
 30
0.0
 40
0.333333
 41
0.333333
  0
VERTEX
  8
0
 10
514.278
 20
480.843
 30
0.0
 40
0.333333
 41
0.333333
  0
VERTEX
  8
0
 10
514.385
 20
480.551
 30
0.0
 40
0.333333
 41
0.333333
  0
VERTEX
  8
0
 10
514.463
 20
480.247
 30
0.0
 40
0.333333
 41
0.333333
  0
VERTEX
  8
0
 10
514.511
 20
479.932
 30
0.0
 40
0.333333
 41
0.333333
  0
VERTEX
  8
0
 10
514.528
 20
479.688
 30
0.0
 40
0.333333
 41
0.333333
  0
VERTEX
  8
0
 10
514.528
 20
479.607
 30
0.0
 40
0.333333
 41
0.333333
  0
SEQEND
 8
0
  0
POLYLINE
  8
0
 62
     0
 66
     1
 10
0
 20
0
 30
0.0
 70
     1
 40
24
 41
24
  0
VERTEX
  8
0
 10
535.078
 20
202.507
 30
0.0
 40
0.333333
 41
0.333333
  0
VERTEX
  8
0
 10
535.078
 20
202.468
 30
0.0
 40
0.333333
 41
0.333333
  0
VERTEX
  8
0
 10
535.069
 20
202.353
 30
0.0
 40
0.333333
 41
0.333333
  0
VERTEX
  8
0
 10
535.047
 20
202.204
 30
0.0
 40
0.333333
 41
0.333333
  0
VERTEX
  8
0
 10
535.01
 20
202.061
 30
0.0
 40
0.333333
 41
0.333333
  0
VERTEX
  8
0
 10
534.96
 20
201.922
 30
0.0
 40
0.333333
 41
0.333333
  0
VERTEX
  8
0
 10
534.896
 20
201.792
 30
0.0
 40
0.333333
 41
0.333333
  0
VERTEX
  8
0
 10
534.821
 20
201.668
 30
0.0
 40
0.333333
 41
0.333333
  0
VERTEX
  8
0
 10
534.735
 20
201.553
 30
0.0
 40
0.333333
 41
0.333333
  0
VERTEX
  8
0
 10
534.637
 20
201.446
 30
0.0
 40
0.333333
 41
0.333333
  0
VERTEX
  8
0
 10
534.532
 20
201.349
 30
0.0
 40
0.333333
 41
0.333333
  0
VERTEX
  8
0
 10
534.415
 20
201.263
 30
0.0
 40
0.333333
 41
0.333333
  0
VERTEX
  8
0
 10
534.292
 20
201.188
 30
0.0
 40
0.333333
 41
0.333333
  0
VERTEX
  8
0
 10
534.161
 20
201.125
 30
0.0
 40
0.333333
 41
0.333333
  0
VERTEX
  8
0
 10
534.024
 20
201.074
 30
0.0
 40
0.333333
 41
0.333333
  0
VERTEX
  8
0
 10
533.879
 20
201.038
 30
0.0
 40
0.333333
 41
0.333333
  0
VERTEX
  8
0
 10
533.731
 20
201.014
 30
0.0
 40
0.333333
 41
0.333333
  0
VERTEX
  8
0
 10
533.615
 20
201.007
 30
0.0
 40
0.333333
 41
0.333333
  0
VERTEX
  8
0
 10
533.578
 20
201.007
 30
0.0
 40
0.333333
 41
0.333333
  0
VERTEX
  8
0
 10
533.539
 20
201.007
 30
0.0
 40
0.333333
 41
0.333333
  0
VERTEX
  8
0
 10
533.424
 20
201.014
 30
0.0
 40
0.333333
 41
0.333333
  0
VERTEX
  8
0
 10
533.275
 20
201.038
 30
0.0
 40
0.333333
 41
0.333333
  0
VERTEX
  8
0
 10
533.131
 20
201.074
 30
0.0
 40
0.333333
 41
0.333333
  0
VERTEX
  8
0
 10
532.993
 20
201.125
 30
0.0
 40
0.333333
 41
0.333333
  0
VERTEX
  8
0
 10
532.863
 20
201.188
 30
0.0
 40
0.333333
 41
0.333333
  0
VERTEX
  8
0
 10
532.739
 20
201.263
 30
0.0
 40
0.333333
 41
0.333333
  0
VERTEX
  8
0
 10
532.624
 20
201.349
 30
0.0
 40
0.333333
 41
0.333333
  0
VERTEX
  8
0
 10
532.517
 20
201.446
 30
0.0
 40
0.333333
 41
0.333333
  0
VERTEX
  8
0
 10
532.419
 20
201.553
 30
0.0
 40
0.333333
 41
0.333333
  0
VERTEX
  8
0
 10
532.333
 20
201.668
 30
0.0
 40
0.333333
 41
0.333333
  0
VERTEX
  8
0
 10
532.258
 20
201.792
 30
0.0
 40
0.333333
 41
0.333333
  0
VERTEX
  8
0
 10
532.194
 20
201.922
 30
0.0
 40
0.333333
 41
0.333333
  0
VERTEX
  8
0
 10
532.144
 20
202.061
 30
0.0
 40
0.333333
 41
0.333333
  0
VERTEX
  8
0
 10
532.108
 20
202.204
 30
0.0
 40
0.333333
 41
0.333333
  0
VERTEX
  8
0
 10
532.085
 20
202.353
 30
0.0
 40
0.333333
 41
0.333333
  0
VERTEX
  8
0
 10
532.078
 20
202.468
 30
0.0
 40
0.333333
 41
0.333333
  0
VERTEX
  8
0
 10
532.078
 20
202.507
 30
0.0
 40
0.333333
 41
0.333333
  0
VERTEX
  8
0
 10
532.078
 20
202.544
 30
0.0
 40
0.333333
 41
0.333333
  0
VERTEX
  8
0
 10
532.085
 20
202.66
 30
0.0
 40
0.333333
 41
0.333333
  0
VERTEX
  8
0
 10
532.108
 20
202.808
 30
0.0
 40
0.333333
 41
0.333333
  0
VERTEX
  8
0
 10
532.144
 20
202.953
 30
0.0
 40
0.333333
 41
0.333333
  0
VERTEX
  8
0
 10
532.194
 20
203.09
 30
0.0
 40
0.333333
 41
0.333333
  0
VERTEX
  8
0
 10
532.258
 20
203.221
 30
0.0
 40
0.333333
 41
0.333333
  0
VERTEX
  8
0
 10
532.333
 20
203.346
 30
0.0
 40
0.333333
 41
0.333333
  0
VERTEX
  8
0
 10
532.419
 20
203.461
 30
0.0
 40
0.333333
 41
0.333333
  0
VERTEX
  8
0
 10
532.517
 20
203.567
 30
0.0
 40
0.333333
 41
0.333333
  0
VERTEX
  8
0
 10
532.624
 20
203.664
 30
0.0
 40
0.333333
 41
0.333333
  0
VERTEX
  8
0
 10
532.739
 20
203.75
 30
0.0
 40
0.333333
 41
0.333333
  0
VERTEX
  8
0
 10
532.863
 20
203.825
 30
0.0
 40
0.333333
 41
0.333333
  0
VERTEX
  8
0
 10
532.993
 20
203.889
 30
0.0
 40
0.333333
 41
0.333333
  0
VERTEX
  8
0
 10
533.131
 20
203.939
 30
0.0
 40
0.333333
 41
0.333333
  0
VERTEX
  8
0
 10
533.275
 20
203.976
 30
0.0
 40
0.333333
 41
0.333333
  0
VERTEX
  8
0
 10
533.424
 20
203.999
 30
0.0
 40
0.333333
 41
0.333333
  0
VERTEX
  8
0
 10
533.539
 20
204.007
 30
0.0
 40
0.333333
 41
0.333333
  0
VERTEX
  8
0
 10
533.578
 20
204.007
 30
0.0
 40
0.333333
 41
0.333333
  0
VERTEX
  8
0
 10
533.615
 20
204.007
 30
0.0
 40
0.333333
 41
0.333333
  0
VERTEX
  8
0
 10
533.731
 20
203.999
 30
0.0
 40
0.333333
 41
0.333333
  0
VERTEX
  8
0
 10
533.879
 20
203.976
 30
0.0
 40
0.333333
 41
0.333333
  0
VERTEX
  8
0
 10
534.024
 20
203.939
 30
0.0
 40
0.333333
 41
0.333333
  0
VERTEX
  8
0
 10
534.161
 20
203.889
 30
0.0
 40
0.333333
 41
0.333333
  0
VERTEX
  8
0
 10
534.292
 20
203.825
 30
0.0
 40
0.333333
 41
0.333333
  0
VERTEX
  8
0
 10
534.415
 20
203.75
 30
0.0
 40
0.333333
 41
0.333333
  0
VERTEX
  8
0
 10
534.532
 20
203.664
 30
0.0
 40
0.333333
 41
0.333333
  0
VERTEX
  8
0
 10
534.637
 20
203.567
 30
0.0
 40
0.333333
 41
0.333333
  0
VERTEX
  8
0
 10
534.735
 20
203.461
 30
0.0
 40
0.333333
 41
0.333333
  0
VERTEX
  8
0
 10
534.821
 20
203.346
 30
0.0
 40
0.333333
 41
0.333333
  0
VERTEX
  8
0
 10
534.896
 20
203.221
 30
0.0
 40
0.333333
 41
0.333333
  0
VERTEX
  8
0
 10
534.96
 20
203.09
 30
0.0
 40
0.333333
 41
0.333333
  0
VERTEX
  8
0
 10
535.01
 20
202.953
 30
0.0
 40
0.333333
 41
0.333333
  0
VERTEX
  8
0
 10
535.047
 20
202.808
 30
0.0
 40
0.333333
 41
0.333333
  0
VERTEX
  8
0
 10
535.069
 20
202.66
 30
0.0
 40
0.333333
 41
0.333333
  0
VERTEX
  8
0
 10
535.078
 20
202.544
 30
0.0
 40
0.333333
 41
0.333333
  0
VERTEX
  8
0
 10
535.078
 20
202.507
 30
0.0
 40
0.333333
 41
0.333333
  0
SEQEND
 8
0
  0
POLYLINE
  8
0
 62
     0
 66
     1
 10
0
 20
0
 30
0.0
 70
     1
 40
24
 41
24
  0
VERTEX
  8
0
 10
535.078
 20
218.257
 30
0.0
 40
0.333333
 41
0.333333
  0
VERTEX
  8
0
 10
535.078
 20
218.218
 30
0.0
 40
0.333333
 41
0.333333
  0
VERTEX
  8
0
 10
535.069
 20
218.103
 30
0.0
 40
0.333333
 41
0.333333
  0
VERTEX
  8
0
 10
535.047
 20
217.954
 30
0.0
 40
0.333333
 41
0.333333
  0
VERTEX
  8
0
 10
535.01
 20
217.811
 30
0.0
 40
0.333333
 41
0.333333
  0
VERTEX
  8
0
 10
534.96
 20
217.672
 30
0.0
 40
0.333333
 41
0.333333
  0
VERTEX
  8
0
 10
534.896
 20
217.542
 30
0.0
 40
0.333333
 41
0.333333
  0
VERTEX
  8
0
 10
534.821
 20
217.418
 30
0.0
 40
0.333333
 41
0.333333
  0
VERTEX
  8
0
 10
534.735
 20
217.303
 30
0.0
 40
0.333333
 41
0.333333
  0
VERTEX
  8
0
 10
534.637
 20
217.196
 30
0.0
 40
0.333333
 41
0.333333
  0
VERTEX
  8
0
 10
534.532
 20
217.099
 30
0.0
 40
0.333333
 41
0.333333
  0
VERTEX
  8
0
 10
534.415
 20
217.013
 30
0.0
 40
0.333333
 41
0.333333
  0
VERTEX
  8
0
 10
534.292
 20
216.938
 30
0.0
 40
0.333333
 41
0.333333
  0
VERTEX
  8
0
 10
534.161
 20
216.875
 30
0.0
 40
0.333333
 41
0.333333
  0
VERTEX
  8
0
 10
534.024
 20
216.824
 30
0.0
 40
0.333333
 41
0.333333
  0
VERTEX
  8
0
 10
533.879
 20
216.788
 30
0.0
 40
0.333333
 41
0.333333
  0
VERTEX
  8
0
 10
533.731
 20
216.764
 30
0.0
 40
0.333333
 41
0.333333
  0
VERTEX
  8
0
 10
533.615
 20
216.757
 30
0.0
 40
0.333333
 41
0.333333
  0
VERTEX
  8
0
 10
533.578
 20
216.757
 30
0.0
 40
0.333333
 41
0.333333
  0
VERTEX
  8
0
 10
533.539
 20
216.757
 30
0.0
 40
0.333333
 41
0.333333
  0
VERTEX
  8
0
 10
533.424
 20
216.764
 30
0.0
 40
0.333333
 41
0.333333
  0
VERTEX
  8
0
 10
533.275
 20
216.788
 30
0.0
 40
0.333333
 41
0.333333
  0
VERTEX
  8
0
 10
533.131
 20
216.824
 30
0.0
 40
0.333333
 41
0.333333
  0
VERTEX
  8
0
 10
532.993
 20
216.875
 30
0.0
 40
0.333333
 41
0.333333
  0
VERTEX
  8
0
 10
532.863
 20
216.938
 30
0.0
 40
0.333333
 41
0.333333
  0
VERTEX
  8
0
 10
532.739
 20
217.013
 30
0.0
 40
0.333333
 41
0.333333
  0
VERTEX
  8
0
 10
532.624
 20
217.099
 30
0.0
 40
0.333333
 41
0.333333
  0
VERTEX
  8
0
 10
532.517
 20
217.196
 30
0.0
 40
0.333333
 41
0.333333
  0
VERTEX
  8
0
 10
532.419
 20
217.303
 30
0.0
 40
0.333333
 41
0.333333
  0
VERTEX
  8
0
 10
532.333
 20
217.418
 30
0.0
 40
0.333333
 41
0.333333
  0
VERTEX
  8
0
 10
532.258
 20
217.542
 30
0.0
 40
0.333333
 41
0.333333
  0
VERTEX
  8
0
 10
532.194
 20
217.672
 30
0.0
 40
0.333333
 41
0.333333
  0
VERTEX
  8
0
 10
532.144
 20
217.811
 30
0.0
 40
0.333333
 41
0.333333
  0
VERTEX
  8
0
 10
532.108
 20
217.954
 30
0.0
 40
0.333333
 41
0.333333
  0
VERTEX
  8
0
 10
532.085
 20
218.103
 30
0.0
 40
0.333333
 41
0.333333
  0
VERTEX
  8
0
 10
532.078
 20
218.218
 30
0.0
 40
0.333333
 41
0.333333
  0
VERTEX
  8
0
 10
532.078
 20
218.257
 30
0.0
 40
0.333333
 41
0.333333
  0
VERTEX
  8
0
 10
532.078
 20
218.294
 30
0.0
 40
0.333333
 41
0.333333
  0
VERTEX
  8
0
 10
532.085
 20
218.41
 30
0.0
 40
0.333333
 41
0.333333
  0
VERTEX
  8
0
 10
532.108
 20
218.558
 30
0.0
 40
0.333333
 41
0.333333
  0
VERTEX
  8
0
 10
532.144
 20
218.703
 30
0.0
 40
0.333333
 41
0.333333
  0
VERTEX
  8
0
 10
532.194
 20
218.84
 30
0.0
 40
0.333333
 41
0.333333
  0
VERTEX
  8
0
 10
532.258
 20
218.971
 30
0.0
 40
0.333333
 41
0.333333
  0
VERTEX
  8
0
 10
532.333
 20
219.096
 30
0.0
 40
0.333333
 41
0.333333
  0
VERTEX
  8
0
 10
532.419
 20
219.211
 30
0.0
 40
0.333333
 41
0.333333
  0
VERTEX
  8
0
 10
532.517
 20
219.317
 30
0.0
 40
0.333333
 41
0.333333
  0
VERTEX
  8
0
 10
532.624
 20
219.414
 30
0.0
 40
0.333333
 41
0.333333
  0
VERTEX
  8
0
 10
532.739
 20
219.5
 30
0.0
 40
0.333333
 41
0.333333
  0
VERTEX
  8
0
 10
532.863
 20
219.575
 30
0.0
 40
0.333333
 41
0.333333
  0
VERTEX
  8
0
 10
532.993
 20
219.639
 30
0.0
 40
0.333333
 41
0.333333
  0
VERTEX
  8
0
 10
533.131
 20
219.689
 30
0.0
 40
0.333333
 41
0.333333
  0
VERTEX
  8
0
 10
533.275
 20
219.726
 30
0.0
 40
0.333333
 41
0.333333
  0
VERTEX
  8
0
 10
533.424
 20
219.749
 30
0.0
 40
0.333333
 41
0.333333
  0
VERTEX
  8
0
 10
533.539
 20
219.757
 30
0.0
 40
0.333333
 41
0.333333
  0
VERTEX
  8
0
 10
533.578
 20
219.757
 30
0.0
 40
0.333333
 41
0.333333
  0
VERTEX
  8
0
 10
533.615
 20
219.757
 30
0.0
 40
0.333333
 41
0.333333
  0
VERTEX
  8
0
 10
533.731
 20
219.749
 30
0.0
 40
0.333333
 41
0.333333
  0
VERTEX
  8
0
 10
533.879
 20
219.726
 30
0.0
 40
0.333333
 41
0.333333
  0
VERTEX
  8
0
 10
534.024
 20
219.689
 30
0.0
 40
0.333333
 41
0.333333
  0
VERTEX
  8
0
 10
534.161
 20
219.639
 30
0.0
 40
0.333333
 41
0.333333
  0
VERTEX
  8
0
 10
534.292
 20
219.575
 30
0.0
 40
0.333333
 41
0.333333
  0
VERTEX
  8
0
 10
534.415
 20
219.5
 30
0.0
 40
0.333333
 41
0.333333
  0
VERTEX
  8
0
 10
534.532
 20
219.414
 30
0.0
 40
0.333333
 41
0.333333
  0
VERTEX
  8
0
 10
534.637
 20
219.317
 30
0.0
 40
0.333333
 41
0.333333
  0
VERTEX
  8
0
 10
534.735
 20
219.211
 30
0.0
 40
0.333333
 41
0.333333
  0
VERTEX
  8
0
 10
534.821
 20
219.096
 30
0.0
 40
0.333333
 41
0.333333
  0
VERTEX
  8
0
 10
534.896
 20
218.971
 30
0.0
 40
0.333333
 41
0.333333
  0
VERTEX
  8
0
 10
534.96
 20
218.84
 30
0.0
 40
0.333333
 41
0.333333
  0
VERTEX
  8
0
 10
535.01
 20
218.703
 30
0.0
 40
0.333333
 41
0.333333
  0
VERTEX
  8
0
 10
535.047
 20
218.558
 30
0.0
 40
0.333333
 41
0.333333
  0
VERTEX
  8
0
 10
535.069
 20
218.41
 30
0.0
 40
0.333333
 41
0.333333
  0
VERTEX
  8
0
 10
535.078
 20
218.294
 30
0.0
 40
0.333333
 41
0.333333
  0
VERTEX
  8
0
 10
535.078
 20
218.257
 30
0.0
 40
0.333333
 41
0.333333
  0
SEQEND
 8
0
  0
POLYLINE
  8
0
 62
     0
 66
     1
 10
0
 20
0
 30
0.0
 70
     1
 40
24
 41
24
  0
VERTEX
  8
0
 10
389.026
 20
218.257
 30
0.0
 40
0.333333
 41
0.333333
  0
VERTEX
  8
0
 10
389.026
 20
218.218
 30
0.0
 40
0.333333
 41
0.333333
  0
VERTEX
  8
0
 10
389.019
 20
218.103
 30
0.0
 40
0.333333
 41
0.333333
  0
VERTEX
  8
0
 10
388.997
 20
217.954
 30
0.0
 40
0.333333
 41
0.333333
  0
VERTEX
  8
0
 10
388.96
 20
217.811
 30
0.0
 40
0.333333
 41
0.333333
  0
VERTEX
  8
0
 10
388.91
 20
217.672
 30
0.0
 40
0.333333
 41
0.333333
  0
VERTEX
  8
0
 10
388.846
 20
217.542
 30
0.0
 40
0.333333
 41
0.333333
  0
VERTEX
  8
0
 10
388.771
 20
217.418
 30
0.0
 40
0.333333
 41
0.333333
  0
VERTEX
  8
0
 10
388.685
 20
217.303
 30
0.0
 40
0.333333
 41
0.333333
  0
VERTEX
  8
0
 10
388.588
 20
217.196
 30
0.0
 40
0.333333
 41
0.333333
  0
VERTEX
  8
0
 10
388.481
 20
217.099
 30
0.0
 40
0.333333
 41
0.333333
  0
VERTEX
  8
0
 10
388.365
 20
217.013
 30
0.0
 40
0.333333
 41
0.333333
  0
VERTEX
  8
0
 10
388.242
 20
216.938
 30
0.0
 40
0.333333
 41
0.333333
  0
VERTEX
  8
0
 10
388.111
 20
216.875
 30
0.0
 40
0.333333
 41
0.333333
  0
VERTEX
  8
0
 10
387.974
 20
216.824
 30
0.0
 40
0.333333
 41
0.333333
  0
VERTEX
  8
0
 10
387.829
 20
216.788
 30
0.0
 40
0.333333
 41
0.333333
  0
VERTEX
  8
0
 10
387.681
 20
216.764
 30
0.0
 40
0.333333
 41
0.333333
  0
VERTEX
  8
0
 10
387.565
 20
216.757
 30
0.0
 40
0.333333
 41
0.333333
  0
VERTEX
  8
0
 10
387.526
 20
216.757
 30
0.0
 40
0.333333
 41
0.333333
  0
VERTEX
  8
0
 10
387.489
 20
216.757
 30
0.0
 40
0.333333
 41
0.333333
  0
VERTEX
  8
0
 10
387.374
 20
216.764
 30
0.0
 40
0.333333
 41
0.333333
  0
VERTEX
  8
0
 10
387.225
 20
216.788
 30
0.0
 40
0.333333
 41
0.333333
  0
VERTEX
  8
0
 10
387.081
 20
216.824
 30
0.0
 40
0.333333
 41
0.333333
  0
VERTEX
  8
0
 10
386.943
 20
216.875
 30
0.0
 40
0.333333
 41
0.333333
  0
VERTEX
  8
0
 10
386.813
 20
216.938
 30
0.0
 40
0.333333
 41
0.333333
  0
VERTEX
  8
0
 10
386.689
 20
217.013
 30
0.0
 40
0.333333
 41
0.333333
  0
VERTEX
  8
0
 10
386.572
 20
217.099
 30
0.0
 40
0.333333
 41
0.333333
  0
VERTEX
  8
0
 10
386.467
 20
217.196
 30
0.0
 40
0.333333
 41
0.333333
  0
VERTEX
  8
0
 10
386.369
 20
217.303
 30
0.0
 40
0.333333
 41
0.333333
  0
VERTEX
  8
0
 10
386.283
 20
217.418
 30
0.0
 40
0.333333
 41
0.333333
  0
VERTEX
  8
0
 10
386.208
 20
217.542
 30
0.0
 40
0.333333
 41
0.333333
  0
VERTEX
  8
0
 10
386.144
 20
217.672
 30
0.0
 40
0.333333
 41
0.333333
  0
VERTEX
  8
0
 10
386.094
 20
217.811
 30
0.0
 40
0.333333
 41
0.333333
  0
VERTEX
  8
0
 10
386.057
 20
217.954
 30
0.0
 40
0.333333
 41
0.333333
  0
VERTEX
  8
0
 10
386.035
 20
218.103
 30
0.0
 40
0.333333
 41
0.333333
  0
VERTEX
  8
0
 10
386.026
 20
218.218
 30
0.0
 40
0.333333
 41
0.333333
  0
VERTEX
  8
0
 10
386.026
 20
218.257
 30
0.0
 40
0.333333
 41
0.333333
  0
VERTEX
  8
0
 10
386.026
 20
218.294
 30
0.0
 40
0.333333
 41
0.333333
  0
VERTEX
  8
0
 10
386.035
 20
218.41
 30
0.0
 40
0.333333
 41
0.333333
  0
VERTEX
  8
0
 10
386.057
 20
218.558
 30
0.0
 40
0.333333
 41
0.333333
  0
VERTEX
  8
0
 10
386.094
 20
218.703
 30
0.0
 40
0.333333
 41
0.333333
  0
VERTEX
  8
0
 10
386.144
 20
218.84
 30
0.0
 40
0.333333
 41
0.333333
  0
VERTEX
  8
0
 10
386.208
 20
218.971
 30
0.0
 40
0.333333
 41
0.333333
  0
VERTEX
  8
0
 10
386.283
 20
219.096
 30
0.0
 40
0.333333
 41
0.333333
  0
VERTEX
  8
0
 10
386.369
 20
219.211
 30
0.0
 40
0.333333
 41
0.333333
  0
VERTEX
  8
0
 10
386.467
 20
219.317
 30
0.0
 40
0.333333
 41
0.333333
  0
VERTEX
  8
0
 10
386.572
 20
219.414
 30
0.0
 40
0.333333
 41
0.333333
  0
VERTEX
  8
0
 10
386.689
 20
219.5
 30
0.0
 40
0.333333
 41
0.333333
  0
VERTEX
  8
0
 10
386.813
 20
219.575
 30
0.0
 40
0.333333
 41
0.333333
  0
VERTEX
  8
0
 10
386.943
 20
219.639
 30
0.0
 40
0.333333
 41
0.333333
  0
VERTEX
  8
0
 10
387.081
 20
219.689
 30
0.0
 40
0.333333
 41
0.333333
  0
VERTEX
  8
0
 10
387.225
 20
219.726
 30
0.0
 40
0.333333
 41
0.333333
  0
VERTEX
  8
0
 10
387.374
 20
219.749
 30
0.0
 40
0.333333
 41
0.333333
  0
VERTEX
  8
0
 10
387.489
 20
219.757
 30
0.0
 40
0.333333
 41
0.333333
  0
VERTEX
  8
0
 10
387.526
 20
219.757
 30
0.0
 40
0.333333
 41
0.333333
  0
VERTEX
  8
0
 10
387.565
 20
219.757
 30
0.0
 40
0.333333
 41
0.333333
  0
VERTEX
  8
0
 10
387.681
 20
219.749
 30
0.0
 40
0.333333
 41
0.333333
  0
VERTEX
  8
0
 10
387.829
 20
219.726
 30
0.0
 40
0.333333
 41
0.333333
  0
VERTEX
  8
0
 10
387.974
 20
219.689
 30
0.0
 40
0.333333
 41
0.333333
  0
VERTEX
  8
0
 10
388.111
 20
219.639
 30
0.0
 40
0.333333
 41
0.333333
  0
VERTEX
  8
0
 10
388.242
 20
219.575
 30
0.0
 40
0.333333
 41
0.333333
  0
VERTEX
  8
0
 10
388.365
 20
219.5
 30
0.0
 40
0.333333
 41
0.333333
  0
VERTEX
  8
0
 10
388.481
 20
219.414
 30
0.0
 40
0.333333
 41
0.333333
  0
VERTEX
  8
0
 10
388.588
 20
219.317
 30
0.0
 40
0.333333
 41
0.333333
  0
VERTEX
  8
0
 10
388.685
 20
219.211
 30
0.0
 40
0.333333
 41
0.333333
  0
VERTEX
  8
0
 10
388.771
 20
219.096
 30
0.0
 40
0.333333
 41
0.333333
  0
VERTEX
  8
0
 10
388.846
 20
218.971
 30
0.0
 40
0.333333
 41
0.333333
  0
VERTEX
  8
0
 10
388.91
 20
218.84
 30
0.0
 40
0.333333
 41
0.333333
  0
VERTEX
  8
0
 10
388.96
 20
218.703
 30
0.0
 40
0.333333
 41
0.333333
  0
VERTEX
  8
0
 10
388.997
 20
218.558
 30
0.0
 40
0.333333
 41
0.333333
  0
VERTEX
  8
0
 10
389.019
 20
218.41
 30
0.0
 40
0.333333
 41
0.333333
  0
VERTEX
  8
0
 10
389.026
 20
218.294
 30
0.0
 40
0.333333
 41
0.333333
  0
VERTEX
  8
0
 10
389.026
 20
218.257
 30
0.0
 40
0.333333
 41
0.333333
  0
SEQEND
 8
0
  0
POLYLINE
  8
0
 62
     0
 66
     1
 10
0
 20
0
 30
0.0
 70
     1
 40
24
 41
24
  0
VERTEX
  8
0
 10
389.026
 20
202.507
 30
0.0
 40
0.333333
 41
0.333333
  0
VERTEX
  8
0
 10
389.026
 20
202.468
 30
0.0
 40
0.333333
 41
0.333333
  0
VERTEX
  8
0
 10
389.019
 20
202.353
 30
0.0
 40
0.333333
 41
0.333333
  0
VERTEX
  8
0
 10
388.997
 20
202.204
 30
0.0
 40
0.333333
 41
0.333333
  0
VERTEX
  8
0
 10
388.96
 20
202.061
 30
0.0
 40
0.333333
 41
0.333333
  0
VERTEX
  8
0
 10
388.91
 20
201.922
 30
0.0
 40
0.333333
 41
0.333333
  0
VERTEX
  8
0
 10
388.846
 20
201.792
 30
0.0
 40
0.333333
 41
0.333333
  0
VERTEX
  8
0
 10
388.771
 20
201.668
 30
0.0
 40
0.333333
 41
0.333333
  0
VERTEX
  8
0
 10
388.685
 20
201.553
 30
0.0
 40
0.333333
 41
0.333333
  0
VERTEX
  8
0
 10
388.588
 20
201.446
 30
0.0
 40
0.333333
 41
0.333333
  0
VERTEX
  8
0
 10
388.481
 20
201.349
 30
0.0
 40
0.333333
 41
0.333333
  0
VERTEX
  8
0
 10
388.365
 20
201.263
 30
0.0
 40
0.333333
 41
0.333333
  0
VERTEX
  8
0
 10
388.242
 20
201.188
 30
0.0
 40
0.333333
 41
0.333333
  0
VERTEX
  8
0
 10
388.111
 20
201.125
 30
0.0
 40
0.333333
 41
0.333333
  0
VERTEX
  8
0
 10
387.974
 20
201.074
 30
0.0
 40
0.333333
 41
0.333333
  0
VERTEX
  8
0
 10
387.829
 20
201.038
 30
0.0
 40
0.333333
 41
0.333333
  0
VERTEX
  8
0
 10
387.681
 20
201.014
 30
0.0
 40
0.333333
 41
0.333333
  0
VERTEX
  8
0
 10
387.565
 20
201.007
 30
0.0
 40
0.333333
 41
0.333333
  0
VERTEX
  8
0
 10
387.526
 20
201.007
 30
0.0
 40
0.333333
 41
0.333333
  0
VERTEX
  8
0
 10
387.489
 20
201.007
 30
0.0
 40
0.333333
 41
0.333333
  0
VERTEX
  8
0
 10
387.374
 20
201.014
 30
0.0
 40
0.333333
 41
0.333333
  0
VERTEX
  8
0
 10
387.225
 20
201.038
 30
0.0
 40
0.333333
 41
0.333333
  0
VERTEX
  8
0
 10
387.081
 20
201.074
 30
0.0
 40
0.333333
 41
0.333333
  0
VERTEX
  8
0
 10
386.943
 20
201.125
 30
0.0
 40
0.333333
 41
0.333333
  0
VERTEX
  8
0
 10
386.813
 20
201.188
 30
0.0
 40
0.333333
 41
0.333333
  0
VERTEX
  8
0
 10
386.689
 20
201.263
 30
0.0
 40
0.333333
 41
0.333333
  0
VERTEX
  8
0
 10
386.572
 20
201.349
 30
0.0
 40
0.333333
 41
0.333333
  0
VERTEX
  8
0
 10
386.467
 20
201.446
 30
0.0
 40
0.333333
 41
0.333333
  0
VERTEX
  8
0
 10
386.369
 20
201.553
 30
0.0
 40
0.333333
 41
0.333333
  0
VERTEX
  8
0
 10
386.283
 20
201.668
 30
0.0
 40
0.333333
 41
0.333333
  0
VERTEX
  8
0
 10
386.208
 20
201.792
 30
0.0
 40
0.333333
 41
0.333333
  0
VERTEX
  8
0
 10
386.144
 20
201.922
 30
0.0
 40
0.333333
 41
0.333333
  0
VERTEX
  8
0
 10
386.094
 20
202.061
 30
0.0
 40
0.333333
 41
0.333333
  0
VERTEX
  8
0
 10
386.057
 20
202.204
 30
0.0
 40
0.333333
 41
0.333333
  0
VERTEX
  8
0
 10
386.035
 20
202.353
 30
0.0
 40
0.333333
 41
0.333333
  0
VERTEX
  8
0
 10
386.026
 20
202.468
 30
0.0
 40
0.333333
 41
0.333333
  0
VERTEX
  8
0
 10
386.026
 20
202.507
 30
0.0
 40
0.333333
 41
0.333333
  0
VERTEX
  8
0
 10
386.026
 20
202.544
 30
0.0
 40
0.333333
 41
0.333333
  0
VERTEX
  8
0
 10
386.035
 20
202.66
 30
0.0
 40
0.333333
 41
0.333333
  0
VERTEX
  8
0
 10
386.057
 20
202.808
 30
0.0
 40
0.333333
 41
0.333333
  0
VERTEX
  8
0
 10
386.094
 20
202.953
 30
0.0
 40
0.333333
 41
0.333333
  0
VERTEX
  8
0
 10
386.144
 20
203.09
 30
0.0
 40
0.333333
 41
0.333333
  0
VERTEX
  8
0
 10
386.208
 20
203.221
 30
0.0
 40
0.333333
 41
0.333333
  0
VERTEX
  8
0
 10
386.283
 20
203.346
 30
0.0
 40
0.333333
 41
0.333333
  0
VERTEX
  8
0
 10
386.369
 20
203.461
 30
0.0
 40
0.333333
 41
0.333333
  0
VERTEX
  8
0
 10
386.467
 20
203.567
 30
0.0
 40
0.333333
 41
0.333333
  0
VERTEX
  8
0
 10
386.572
 20
203.664
 30
0.0
 40
0.333333
 41
0.333333
  0
VERTEX
  8
0
 10
386.689
 20
203.75
 30
0.0
 40
0.333333
 41
0.333333
  0
VERTEX
  8
0
 10
386.813
 20
203.825
 30
0.0
 40
0.333333
 41
0.333333
  0
VERTEX
  8
0
 10
386.943
 20
203.889
 30
0.0
 40
0.333333
 41
0.333333
  0
VERTEX
  8
0
 10
387.081
 20
203.939
 30
0.0
 40
0.333333
 41
0.333333
  0
VERTEX
  8
0
 10
387.225
 20
203.976
 30
0.0
 40
0.333333
 41
0.333333
  0
VERTEX
  8
0
 10
387.374
 20
203.999
 30
0.0
 40
0.333333
 41
0.333333
  0
VERTEX
  8
0
 10
387.489
 20
204.007
 30
0.0
 40
0.333333
 41
0.333333
  0
VERTEX
  8
0
 10
387.526
 20
204.007
 30
0.0
 40
0.333333
 41
0.333333
  0
VERTEX
  8
0
 10
387.565
 20
204.007
 30
0.0
 40
0.333333
 41
0.333333
  0
VERTEX
  8
0
 10
387.681
 20
203.999
 30
0.0
 40
0.333333
 41
0.333333
  0
VERTEX
  8
0
 10
387.829
 20
203.976
 30
0.0
 40
0.333333
 41
0.333333
  0
VERTEX
  8
0
 10
387.974
 20
203.939
 30
0.0
 40
0.333333
 41
0.333333
  0
VERTEX
  8
0
 10
388.111
 20
203.889
 30
0.0
 40
0.333333
 41
0.333333
  0
VERTEX
  8
0
 10
388.242
 20
203.825
 30
0.0
 40
0.333333
 41
0.333333
  0
VERTEX
  8
0
 10
388.365
 20
203.75
 30
0.0
 40
0.333333
 41
0.333333
  0
VERTEX
  8
0
 10
388.481
 20
203.664
 30
0.0
 40
0.333333
 41
0.333333
  0
VERTEX
  8
0
 10
388.588
 20
203.567
 30
0.0
 40
0.333333
 41
0.333333
  0
VERTEX
  8
0
 10
388.685
 20
203.461
 30
0.0
 40
0.333333
 41
0.333333
  0
VERTEX
  8
0
 10
388.771
 20
203.346
 30
0.0
 40
0.333333
 41
0.333333
  0
VERTEX
  8
0
 10
388.846
 20
203.221
 30
0.0
 40
0.333333
 41
0.333333
  0
VERTEX
  8
0
 10
388.91
 20
203.09
 30
0.0
 40
0.333333
 41
0.333333
  0
VERTEX
  8
0
 10
388.96
 20
202.953
 30
0.0
 40
0.333333
 41
0.333333
  0
VERTEX
  8
0
 10
388.997
 20
202.808
 30
0.0
 40
0.333333
 41
0.333333
  0
VERTEX
  8
0
 10
389.019
 20
202.66
 30
0.0
 40
0.333333
 41
0.333333
  0
VERTEX
  8
0
 10
389.026
 20
202.544
 30
0.0
 40
0.333333
 41
0.333333
  0
VERTEX
  8
0
 10
389.026
 20
202.507
 30
0.0
 40
0.333333
 41
0.333333
  0
SEQEND
 8
0
  0
POLYLINE
  8
0
 62
     0
 66
     1
 10
0
 20
0
 30
0.0
 70
     1
 40
24
 41
24
  0
VERTEX
  8
0
 10
698.678
 20
479.607
 30
0.0
 40
0.333333
 41
0.333333
  0
VERTEX
  8
0
 10
698.678
 20
479.526
 30
0.0
 40
0.333333
 41
0.333333
  0
VERTEX
  8
0
 10
698.661
 20
479.282
 30
0.0
 40
0.333333
 41
0.333333
  0
VERTEX
  8
0
 10
698.613
 20
478.967
 30
0.0
 40
0.333333
 41
0.333333
  0
VERTEX
  8
0
 10
698.535
 20
478.662
 30
0.0
 40
0.333333
 41
0.333333
  0
VERTEX
  8
0
 10
698.428
 20
478.371
 30
0.0
 40
0.333333
 41
0.333333
  0
VERTEX
  8
0
 10
698.294
 20
478.093
 30
0.0
 40
0.333333
 41
0.333333
  0
VERTEX
  8
0
 10
698.135
 20
477.832
 30
0.0
 40
0.333333
 41
0.333333
  0
VERTEX
  8
0
 10
697.953
 20
477.588
 30
0.0
 40
0.333333
 41
0.333333
  0
VERTEX
  8
0
 10
697.747
 20
477.363
 30
0.0
 40
0.333333
 41
0.333333
  0
VERTEX
  8
0
 10
697.522
 20
477.157
 30
0.0
 40
0.333333
 41
0.333333
  0
VERTEX
  8
0
 10
697.278
 20
476.974
 30
0.0
 40
0.333333
 41
0.333333
  0
VERTEX
  8
0
 10
697.015
 20
476.815
 30
0.0
 40
0.333333
 41
0.333333
  0
VERTEX
  8
0
 10
696.739
 20
476.682
 30
0.0
 40
0.333333
 41
0.333333
  0
VERTEX
  8
0
 10
696.447
 20
476.575
 30
0.0
 40
0.333333
 41
0.333333
  0
VERTEX
  8
0
 10
696.143
 20
476.496
 30
0.0
 40
0.333333
 41
0.333333
  0
VERTEX
  8
0
 10
695.828
 20
476.449
 30
0.0
 40
0.333333
 41
0.333333
  0
VERTEX
  8
0
 10
695.583
 20
476.432
 30
0.0
 40
0.333333
 41
0.333333
  0
VERTEX
  8
0
 10
695.503
 20
476.432
 30
0.0
 40
0.333333
 41
0.333333
  0
VERTEX
  8
0
 10
695.421
 20
476.432
 30
0.0
 40
0.333333
 41
0.333333
  0
VERTEX
  8
0
 10
695.178
 20
476.449
 30
0.0
 40
0.333333
 41
0.333333
  0
VERTEX
  8
0
 10
694.863
 20
476.496
 30
0.0
 40
0.333333
 41
0.333333
  0
VERTEX
  8
0
 10
694.558
 20
476.575
 30
0.0
 40
0.333333
 41
0.333333
  0
VERTEX
  8
0
 10
694.267
 20
476.682
 30
0.0
 40
0.333333
 41
0.333333
  0
VERTEX
  8
0
 10
693.989
 20
476.815
 30
0.0
 40
0.333333
 41
0.333333
  0
VERTEX
  8
0
 10
693.728
 20
476.974
 30
0.0
 40
0.333333
 41
0.333333
  0
VERTEX
  8
0
 10
693.483
 20
477.157
 30
0.0
 40
0.333333
 41
0.333333
  0
VERTEX
  8
0
 10
693.257
 20
477.363
 30
0.0
 40
0.333333
 41
0.333333
  0
VERTEX
  8
0
 10
693.053
 20
477.588
 30
0.0
 40
0.333333
 41
0.333333
  0
VERTEX
  8
0
 10
692.869
 20
477.832
 30
0.0
 40
0.333333
 41
0.333333
  0
VERTEX
  8
0
 10
692.711
 20
478.093
 30
0.0
 40
0.333333
 41
0.333333
  0
VERTEX
  8
0
 10
692.576
 20
478.371
 30
0.0
 40
0.333333
 41
0.333333
  0
VERTEX
  8
0
 10
692.471
 20
478.662
 30
0.0
 40
0.333333
 41
0.333333
  0
VERTEX
  8
0
 10
692.392
 20
478.967
 30
0.0
 40
0.333333
 41
0.333333
  0
VERTEX
  8
0
 10
692.344
 20
479.282
 30
0.0
 40
0.333333
 41
0.333333
  0
VERTEX
  8
0
 10
692.328
 20
479.526
 30
0.0
 40
0.333333
 41
0.333333
  0
VERTEX
  8
0
 10
692.328
 20
479.607
 30
0.0
 40
0.333333
 41
0.333333
  0
VERTEX
  8
0
 10
692.328
 20
479.688
 30
0.0
 40
0.333333
 41
0.333333
  0
VERTEX
  8
0
 10
692.344
 20
479.932
 30
0.0
 40
0.333333
 41
0.333333
  0
VERTEX
  8
0
 10
692.392
 20
480.247
 30
0.0
 40
0.333333
 41
0.333333
  0
VERTEX
  8
0
 10
692.471
 20
480.551
 30
0.0
 40
0.333333
 41
0.333333
  0
VERTEX
  8
0
 10
692.576
 20
480.843
 30
0.0
 40
0.333333
 41
0.333333
  0
VERTEX
  8
0
 10
692.711
 20
481.121
 30
0.0
 40
0.333333
 41
0.333333
  0
VERTEX
  8
0
 10
692.869
 20
481.382
 30
0.0
 40
0.333333
 41
0.333333
  0
VERTEX
  8
0
 10
693.053
 20
481.626
 30
0.0
 40
0.333333
 41
0.333333
  0
VERTEX
  8
0
 10
693.257
 20
481.851
 30
0.0
 40
0.333333
 41
0.333333
  0
VERTEX
  8
0
 10
693.483
 20
482.057
 30
0.0
 40
0.333333
 41
0.333333
  0
VERTEX
  8
0
 10
693.728
 20
482.24
 30
0.0
 40
0.333333
 41
0.333333
  0
VERTEX
  8
0
 10
693.989
 20
482.399
 30
0.0
 40
0.333333
 41
0.333333
  0
VERTEX
  8
0
 10
694.267
 20
482.532
 30
0.0
 40
0.333333
 41
0.333333
  0
VERTEX
  8
0
 10
694.558
 20
482.639
 30
0.0
 40
0.333333
 41
0.333333
  0
VERTEX
  8
0
 10
694.863
 20
482.718
 30
0.0
 40
0.333333
 41
0.333333
  0
VERTEX
  8
0
 10
695.178
 20
482.765
 30
0.0
 40
0.333333
 41
0.333333
  0
VERTEX
  8
0
 10
695.421
 20
482.782
 30
0.0
 40
0.333333
 41
0.333333
  0
VERTEX
  8
0
 10
695.503
 20
482.782
 30
0.0
 40
0.333333
 41
0.333333
  0
VERTEX
  8
0
 10
695.583
 20
482.782
 30
0.0
 40
0.333333
 41
0.333333
  0
VERTEX
  8
0
 10
695.828
 20
482.765
 30
0.0
 40
0.333333
 41
0.333333
  0
VERTEX
  8
0
 10
696.143
 20
482.718
 30
0.0
 40
0.333333
 41
0.333333
  0
VERTEX
  8
0
 10
696.447
 20
482.639
 30
0.0
 40
0.333333
 41
0.333333
  0
VERTEX
  8
0
 10
696.739
 20
482.532
 30
0.0
 40
0.333333
 41
0.333333
  0
VERTEX
  8
0
 10
697.015
 20
482.399
 30
0.0
 40
0.333333
 41
0.333333
  0
VERTEX
  8
0
 10
697.278
 20
482.24
 30
0.0
 40
0.333333
 41
0.333333
  0
VERTEX
  8
0
 10
697.522
 20
482.057
 30
0.0
 40
0.333333
 41
0.333333
  0
VERTEX
  8
0
 10
697.747
 20
481.851
 30
0.0
 40
0.333333
 41
0.333333
  0
VERTEX
  8
0
 10
697.953
 20
481.626
 30
0.0
 40
0.333333
 41
0.333333
  0
VERTEX
  8
0
 10
698.135
 20
481.382
 30
0.0
 40
0.333333
 41
0.333333
  0
VERTEX
  8
0
 10
698.294
 20
481.121
 30
0.0
 40
0.333333
 41
0.333333
  0
VERTEX
  8
0
 10
698.428
 20
480.843
 30
0.0
 40
0.333333
 41
0.333333
  0
VERTEX
  8
0
 10
698.535
 20
480.551
 30
0.0
 40
0.333333
 41
0.333333
  0
VERTEX
  8
0
 10
698.613
 20
480.247
 30
0.0
 40
0.333333
 41
0.333333
  0
VERTEX
  8
0
 10
698.661
 20
479.932
 30
0.0
 40
0.333333
 41
0.333333
  0
VERTEX
  8
0
 10
698.678
 20
479.688
 30
0.0
 40
0.333333
 41
0.333333
  0
VERTEX
  8
0
 10
698.678
 20
479.607
 30
0.0
 40
0.333333
 41
0.333333
  0
SEQEND
 8
0
  0
POLYLINE
  8
0
 62
     0
 66
     1
 10
0
 20
0
 30
0.0
 70
     1
 40
24
 41
24
  0
VERTEX
  8
0
 10
719.228
 20
202.507
 30
0.0
 40
0.333333
 41
0.333333
  0
VERTEX
  8
0
 10
719.228
 20
202.468
 30
0.0
 40
0.333333
 41
0.333333
  0
VERTEX
  8
0
 10
719.219
 20
202.353
 30
0.0
 40
0.333333
 41
0.333333
  0
VERTEX
  8
0
 10
719.197
 20
202.204
 30
0.0
 40
0.333333
 41
0.333333
  0
VERTEX
  8
0
 10
719.16
 20
202.061
 30
0.0
 40
0.333333
 41
0.333333
  0
VERTEX
  8
0
 10
719.11
 20
201.922
 30
0.0
 40
0.333333
 41
0.333333
  0
VERTEX
  8
0
 10
719.046
 20
201.792
 30
0.0
 40
0.333333
 41
0.333333
  0
VERTEX
  8
0
 10
718.971
 20
201.668
 30
0.0
 40
0.333333
 41
0.333333
  0
VERTEX
  8
0
 10
718.885
 20
201.553
 30
0.0
 40
0.333333
 41
0.333333
  0
VERTEX
  8
0
 10
718.787
 20
201.446
 30
0.0
 40
0.333333
 41
0.333333
  0
VERTEX
  8
0
 10
718.682
 20
201.349
 30
0.0
 40
0.333333
 41
0.333333
  0
VERTEX
  8
0
 10
718.567
 20
201.263
 30
0.0
 40
0.333333
 41
0.333333
  0
VERTEX
  8
0
 10
718.443
 20
201.188
 30
0.0
 40
0.333333
 41
0.333333
  0
VERTEX
  8
0
 10
718.311
 20
201.125
 30
0.0
 40
0.333333
 41
0.333333
  0
VERTEX
  8
0
 10
718.174
 20
201.074
 30
0.0
 40
0.333333
 41
0.333333
  0
VERTEX
  8
0
 10
718.029
 20
201.038
 30
0.0
 40
0.333333
 41
0.333333
  0
VERTEX
  8
0
 10
717.881
 20
201.014
 30
0.0
 40
0.333333
 41
0.333333
  0
VERTEX
  8
0
 10
717.765
 20
201.007
 30
0.0
 40
0.333333
 41
0.333333
  0
VERTEX
  8
0
 10
717.728
 20
201.007
 30
0.0
 40
0.333333
 41
0.333333
  0
VERTEX
  8
0
 10
717.689
 20
201.007
 30
0.0
 40
0.333333
 41
0.333333
  0
VERTEX
  8
0
 10
717.574
 20
201.014
 30
0.0
 40
0.333333
 41
0.333333
  0
VERTEX
  8
0
 10
717.425
 20
201.038
 30
0.0
 40
0.333333
 41
0.333333
  0
VERTEX
  8
0
 10
717.282
 20
201.074
 30
0.0
 40
0.333333
 41
0.333333
  0
VERTEX
  8
0
 10
717.143
 20
201.125
 30
0.0
 40
0.333333
 41
0.333333
  0
VERTEX
  8
0
 10
717.012
 20
201.188
 30
0.0
 40
0.333333
 41
0.333333
  0
VERTEX
  8
0
 10
716.889
 20
201.263
 30
0.0
 40
0.333333
 41
0.333333
  0
VERTEX
  8
0
 10
716.774
 20
201.349
 30
0.0
 40
0.333333
 41
0.333333
  0
VERTEX
  8
0
 10
716.667
 20
201.446
 30
0.0
 40
0.333333
 41
0.333333
  0
VERTEX
  8
0
 10
716.569
 20
201.553
 30
0.0
 40
0.333333
 41
0.333333
  0
VERTEX
  8
0
 10
716.483
 20
201.668
 30
0.0
 40
0.333333
 41
0.333333
  0
VERTEX
  8
0
 10
716.408
 20
201.792
 30
0.0
 40
0.333333
 41
0.333333
  0
VERTEX
  8
0
 10
716.346
 20
201.922
 30
0.0
 40
0.333333
 41
0.333333
  0
VERTEX
  8
0
 10
716.294
 20
202.061
 30
0.0
 40
0.333333
 41
0.333333
  0
VERTEX
  8
0
 10
716.258
 20
202.204
 30
0.0
 40
0.333333
 41
0.333333
  0
VERTEX
  8
0
 10
716.235
 20
202.353
 30
0.0
 40
0.333333
 41
0.333333
  0
VERTEX
  8
0
 10
716.228
 20
202.468
 30
0.0
 40
0.333333
 41
0.333333
  0
VERTEX
  8
0
 10
716.228
 20
202.507
 30
0.0
 40
0.333333
 41
0.333333
  0
VERTEX
  8
0
 10
716.228
 20
202.544
 30
0.0
 40
0.333333
 41
0.333333
  0
VERTEX
  8
0
 10
716.235
 20
202.66
 30
0.0
 40
0.333333
 41
0.333333
  0
VERTEX
  8
0
 10
716.258
 20
202.808
 30
0.0
 40
0.333333
 41
0.333333
  0
VERTEX
  8
0
 10
716.294
 20
202.953
 30
0.0
 40
0.333333
 41
0.333333
  0
VERTEX
  8
0
 10
716.346
 20
203.09
 30
0.0
 40
0.333333
 41
0.333333
  0
VERTEX
  8
0
 10
716.408
 20
203.221
 30
0.0
 40
0.333333
 41
0.333333
  0
VERTEX
  8
0
 10
716.483
 20
203.346
 30
0.0
 40
0.333333
 41
0.333333
  0
VERTEX
  8
0
 10
716.569
 20
203.461
 30
0.0
 40
0.333333
 41
0.333333
  0
VERTEX
  8
0
 10
716.667
 20
203.567
 30
0.0
 40
0.333333
 41
0.333333
  0
VERTEX
  8
0
 10
716.774
 20
203.664
 30
0.0
 40
0.333333
 41
0.333333
  0
VERTEX
  8
0
 10
716.889
 20
203.75
 30
0.0
 40
0.333333
 41
0.333333
  0
VERTEX
  8
0
 10
717.012
 20
203.825
 30
0.0
 40
0.333333
 41
0.333333
  0
VERTEX
  8
0
 10
717.143
 20
203.889
 30
0.0
 40
0.333333
 41
0.333333
  0
VERTEX
  8
0
 10
717.282
 20
203.939
 30
0.0
 40
0.333333
 41
0.333333
  0
VERTEX
  8
0
 10
717.425
 20
203.976
 30
0.0
 40
0.333333
 41
0.333333
  0
VERTEX
  8
0
 10
717.574
 20
203.999
 30
0.0
 40
0.333333
 41
0.333333
  0
VERTEX
  8
0
 10
717.689
 20
204.007
 30
0.0
 40
0.333333
 41
0.333333
  0
VERTEX
  8
0
 10
717.728
 20
204.007
 30
0.0
 40
0.333333
 41
0.333333
  0
VERTEX
  8
0
 10
717.765
 20
204.007
 30
0.0
 40
0.333333
 41
0.333333
  0
VERTEX
  8
0
 10
717.881
 20
203.999
 30
0.0
 40
0.333333
 41
0.333333
  0
VERTEX
  8
0
 10
718.029
 20
203.976
 30
0.0
 40
0.333333
 41
0.333333
  0
VERTEX
  8
0
 10
718.174
 20
203.939
 30
0.0
 40
0.333333
 41
0.333333
  0
VERTEX
  8
0
 10
718.311
 20
203.889
 30
0.0
 40
0.333333
 41
0.333333
  0
VERTEX
  8
0
 10
718.443
 20
203.825
 30
0.0
 40
0.333333
 41
0.333333
  0
VERTEX
  8
0
 10
718.567
 20
203.75
 30
0.0
 40
0.333333
 41
0.333333
  0
VERTEX
  8
0
 10
718.682
 20
203.664
 30
0.0
 40
0.333333
 41
0.333333
  0
VERTEX
  8
0
 10
718.787
 20
203.567
 30
0.0
 40
0.333333
 41
0.333333
  0
VERTEX
  8
0
 10
718.885
 20
203.461
 30
0.0
 40
0.333333
 41
0.333333
  0
VERTEX
  8
0
 10
718.971
 20
203.346
 30
0.0
 40
0.333333
 41
0.333333
  0
VERTEX
  8
0
 10
719.046
 20
203.221
 30
0.0
 40
0.333333
 41
0.333333
  0
VERTEX
  8
0
 10
719.11
 20
203.09
 30
0.0
 40
0.333333
 41
0.333333
  0
VERTEX
  8
0
 10
719.16
 20
202.953
 30
0.0
 40
0.333333
 41
0.333333
  0
VERTEX
  8
0
 10
719.197
 20
202.808
 30
0.0
 40
0.333333
 41
0.333333
  0
VERTEX
  8
0
 10
719.219
 20
202.66
 30
0.0
 40
0.333333
 41
0.333333
  0
VERTEX
  8
0
 10
719.228
 20
202.544
 30
0.0
 40
0.333333
 41
0.333333
  0
VERTEX
  8
0
 10
719.228
 20
202.507
 30
0.0
 40
0.333333
 41
0.333333
  0
SEQEND
 8
0
  0
POLYLINE
  8
0
 62
     0
 66
     1
 10
0
 20
0
 30
0.0
 70
     1
 40
24
 41
24
  0
VERTEX
  8
0
 10
719.228
 20
218.257
 30
0.0
 40
0.333333
 41
0.333333
  0
VERTEX
  8
0
 10
719.228
 20
218.218
 30
0.0
 40
0.333333
 41
0.333333
  0
VERTEX
  8
0
 10
719.219
 20
218.103
 30
0.0
 40
0.333333
 41
0.333333
  0
VERTEX
  8
0
 10
719.197
 20
217.954
 30
0.0
 40
0.333333
 41
0.333333
  0
VERTEX
  8
0
 10
719.16
 20
217.811
 30
0.0
 40
0.333333
 41
0.333333
  0
VERTEX
  8
0
 10
719.11
 20
217.672
 30
0.0
 40
0.333333
 41
0.333333
  0
VERTEX
  8
0
 10
719.046
 20
217.542
 30
0.0
 40
0.333333
 41
0.333333
  0
VERTEX
  8
0
 10
718.971
 20
217.418
 30
0.0
 40
0.333333
 41
0.333333
  0
VERTEX
  8
0
 10
718.885
 20
217.303
 30
0.0
 40
0.333333
 41
0.333333
  0
VERTEX
  8
0
 10
718.787
 20
217.196
 30
0.0
 40
0.333333
 41
0.333333
  0
VERTEX
  8
0
 10
718.682
 20
217.099
 30
0.0
 40
0.333333
 41
0.333333
  0
VERTEX
  8
0
 10
718.567
 20
217.013
 30
0.0
 40
0.333333
 41
0.333333
  0
VERTEX
  8
0
 10
718.443
 20
216.938
 30
0.0
 40
0.333333
 41
0.333333
  0
VERTEX
  8
0
 10
718.311
 20
216.875
 30
0.0
 40
0.333333
 41
0.333333
  0
VERTEX
  8
0
 10
718.174
 20
216.824
 30
0.0
 40
0.333333
 41
0.333333
  0
VERTEX
  8
0
 10
718.029
 20
216.788
 30
0.0
 40
0.333333
 41
0.333333
  0
VERTEX
  8
0
 10
717.881
 20
216.764
 30
0.0
 40
0.333333
 41
0.333333
  0
VERTEX
  8
0
 10
717.765
 20
216.757
 30
0.0
 40
0.333333
 41
0.333333
  0
VERTEX
  8
0
 10
717.728
 20
216.757
 30
0.0
 40
0.333333
 41
0.333333
  0
VERTEX
  8
0
 10
717.689
 20
216.757
 30
0.0
 40
0.333333
 41
0.333333
  0
VERTEX
  8
0
 10
717.574
 20
216.764
 30
0.0
 40
0.333333
 41
0.333333
  0
VERTEX
  8
0
 10
717.425
 20
216.788
 30
0.0
 40
0.333333
 41
0.333333
  0
VERTEX
  8
0
 10
717.282
 20
216.824
 30
0.0
 40
0.333333
 41
0.333333
  0
VERTEX
  8
0
 10
717.143
 20
216.875
 30
0.0
 40
0.333333
 41
0.333333
  0
VERTEX
  8
0
 10
717.012
 20
216.938
 30
0.0
 40
0.333333
 41
0.333333
  0
VERTEX
  8
0
 10
716.889
 20
217.013
 30
0.0
 40
0.333333
 41
0.333333
  0
VERTEX
  8
0
 10
716.774
 20
217.099
 30
0.0
 40
0.333333
 41
0.333333
  0
VERTEX
  8
0
 10
716.667
 20
217.196
 30
0.0
 40
0.333333
 41
0.333333
  0
VERTEX
  8
0
 10
716.569
 20
217.303
 30
0.0
 40
0.333333
 41
0.333333
  0
VERTEX
  8
0
 10
716.483
 20
217.418
 30
0.0
 40
0.333333
 41
0.333333
  0
VERTEX
  8
0
 10
716.408
 20
217.542
 30
0.0
 40
0.333333
 41
0.333333
  0
VERTEX
  8
0
 10
716.346
 20
217.672
 30
0.0
 40
0.333333
 41
0.333333
  0
VERTEX
  8
0
 10
716.294
 20
217.811
 30
0.0
 40
0.333333
 41
0.333333
  0
VERTEX
  8
0
 10
716.258
 20
217.954
 30
0.0
 40
0.333333
 41
0.333333
  0
VERTEX
  8
0
 10
716.235
 20
218.103
 30
0.0
 40
0.333333
 41
0.333333
  0
VERTEX
  8
0
 10
716.228
 20
218.218
 30
0.0
 40
0.333333
 41
0.333333
  0
VERTEX
  8
0
 10
716.228
 20
218.257
 30
0.0
 40
0.333333
 41
0.333333
  0
VERTEX
  8
0
 10
716.228
 20
218.294
 30
0.0
 40
0.333333
 41
0.333333
  0
VERTEX
  8
0
 10
716.235
 20
218.41
 30
0.0
 40
0.333333
 41
0.333333
  0
VERTEX
  8
0
 10
716.258
 20
218.558
 30
0.0
 40
0.333333
 41
0.333333
  0
VERTEX
  8
0
 10
716.294
 20
218.703
 30
0.0
 40
0.333333
 41
0.333333
  0
VERTEX
  8
0
 10
716.346
 20
218.84
 30
0.0
 40
0.333333
 41
0.333333
  0
VERTEX
  8
0
 10
716.408
 20
218.971
 30
0.0
 40
0.333333
 41
0.333333
  0
VERTEX
  8
0
 10
716.483
 20
219.096
 30
0.0
 40
0.333333
 41
0.333333
  0
VERTEX
  8
0
 10
716.569
 20
219.211
 30
0.0
 40
0.333333
 41
0.333333
  0
VERTEX
  8
0
 10
716.667
 20
219.317
 30
0.0
 40
0.333333
 41
0.333333
  0
VERTEX
  8
0
 10
716.774
 20
219.414
 30
0.0
 40
0.333333
 41
0.333333
  0
VERTEX
  8
0
 10
716.889
 20
219.5
 30
0.0
 40
0.333333
 41
0.333333
  0
VERTEX
  8
0
 10
717.012
 20
219.575
 30
0.0
 40
0.333333
 41
0.333333
  0
VERTEX
  8
0
 10
717.143
 20
219.639
 30
0.0
 40
0.333333
 41
0.333333
  0
VERTEX
  8
0
 10
717.282
 20
219.689
 30
0.0
 40
0.333333
 41
0.333333
  0
VERTEX
  8
0
 10
717.425
 20
219.726
 30
0.0
 40
0.333333
 41
0.333333
  0
VERTEX
  8
0
 10
717.574
 20
219.749
 30
0.0
 40
0.333333
 41
0.333333
  0
VERTEX
  8
0
 10
717.689
 20
219.757
 30
0.0
 40
0.333333
 41
0.333333
  0
VERTEX
  8
0
 10
717.728
 20
219.757
 30
0.0
 40
0.333333
 41
0.333333
  0
VERTEX
  8
0
 10
717.765
 20
219.757
 30
0.0
 40
0.333333
 41
0.333333
  0
VERTEX
  8
0
 10
717.881
 20
219.749
 30
0.0
 40
0.333333
 41
0.333333
  0
VERTEX
  8
0
 10
718.029
 20
219.726
 30
0.0
 40
0.333333
 41
0.333333
  0
VERTEX
  8
0
 10
718.174
 20
219.689
 30
0.0
 40
0.333333
 41
0.333333
  0
VERTEX
  8
0
 10
718.311
 20
219.639
 30
0.0
 40
0.333333
 41
0.333333
  0
VERTEX
  8
0
 10
718.443
 20
219.575
 30
0.0
 40
0.333333
 41
0.333333
  0
VERTEX
  8
0
 10
718.567
 20
219.5
 30
0.0
 40
0.333333
 41
0.333333
  0
VERTEX
  8
0
 10
718.682
 20
219.414
 30
0.0
 40
0.333333
 41
0.333333
  0
VERTEX
  8
0
 10
718.787
 20
219.317
 30
0.0
 40
0.333333
 41
0.333333
  0
VERTEX
  8
0
 10
718.885
 20
219.211
 30
0.0
 40
0.333333
 41
0.333333
  0
VERTEX
  8
0
 10
718.971
 20
219.096
 30
0.0
 40
0.333333
 41
0.333333
  0
VERTEX
  8
0
 10
719.046
 20
218.971
 30
0.0
 40
0.333333
 41
0.333333
  0
VERTEX
  8
0
 10
719.11
 20
218.84
 30
0.0
 40
0.333333
 41
0.333333
  0
VERTEX
  8
0
 10
719.16
 20
218.703
 30
0.0
 40
0.333333
 41
0.333333
  0
VERTEX
  8
0
 10
719.197
 20
218.558
 30
0.0
 40
0.333333
 41
0.333333
  0
VERTEX
  8
0
 10
719.219
 20
218.41
 30
0.0
 40
0.333333
 41
0.333333
  0
VERTEX
  8
0
 10
719.228
 20
218.294
 30
0.0
 40
0.333333
 41
0.333333
  0
VERTEX
  8
0
 10
719.228
 20
218.257
 30
0.0
 40
0.333333
 41
0.333333
  0
SEQEND
 8
0
  0
POLYLINE
  8
0
 62
     0
 66
     1
 10
0
 20
0
 30
0.0
 70
     1
 40
24
 41
24
  0
VERTEX
  8
0
 10
573.178
 20
218.257
 30
0.0
 40
0.333333
 41
0.333333
  0
VERTEX
  8
0
 10
573.178
 20
218.218
 30
0.0
 40
0.333333
 41
0.333333
  0
VERTEX
  8
0
 10
573.169
 20
218.103
 30
0.0
 40
0.333333
 41
0.333333
  0
VERTEX
  8
0
 10
573.147
 20
217.954
 30
0.0
 40
0.333333
 41
0.333333
  0
VERTEX
  8
0
 10
573.11
 20
217.811
 30
0.0
 40
0.333333
 41
0.333333
  0
VERTEX
  8
0
 10
573.06
 20
217.672
 30
0.0
 40
0.333333
 41
0.333333
  0
VERTEX
  8
0
 10
572.996
 20
217.542
 30
0.0
 40
0.333333
 41
0.333333
  0
VERTEX
  8
0
 10
572.921
 20
217.418
 30
0.0
 40
0.333333
 41
0.333333
  0
VERTEX
  8
0
 10
572.835
 20
217.303
 30
0.0
 40
0.333333
 41
0.333333
  0
VERTEX
  8
0
 10
572.738
 20
217.196
 30
0.0
 40
0.333333
 41
0.333333
  0
VERTEX
  8
0
 10
572.632
 20
217.099
 30
0.0
 40
0.333333
 41
0.333333
  0
VERTEX
  8
0
 10
572.515
 20
217.013
 30
0.0
 40
0.333333
 41
0.333333
  0
VERTEX
  8
0
 10
572.392
 20
216.938
 30
0.0
 40
0.333333
 41
0.333333
  0
VERTEX
  8
0
 10
572.261
 20
216.875
 30
0.0
 40
0.333333
 41
0.333333
  0
VERTEX
  8
0
 10
572.124
 20
216.824
 30
0.0
 40
0.333333
 41
0.333333
  0
VERTEX
  8
0
 10
571.979
 20
216.788
 30
0.0
 40
0.333333
 41
0.333333
  0
VERTEX
  8
0
 10
571.831
 20
216.764
 30
0.0
 40
0.333333
 41
0.333333
  0
VERTEX
  8
0
 10
571.715
 20
216.757
 30
0.0
 40
0.333333
 41
0.333333
  0
VERTEX
  8
0
 10
571.678
 20
216.757
 30
0.0
 40
0.333333
 41
0.333333
  0
VERTEX
  8
0
 10
571.639
 20
216.757
 30
0.0
 40
0.333333
 41
0.333333
  0
VERTEX
  8
0
 10
571.524
 20
216.764
 30
0.0
 40
0.333333
 41
0.333333
  0
VERTEX
  8
0
 10
571.375
 20
216.788
 30
0.0
 40
0.333333
 41
0.333333
  0
VERTEX
  8
0
 10
571.231
 20
216.824
 30
0.0
 40
0.333333
 41
0.333333
  0
VERTEX
  8
0
 10
571.093
 20
216.875
 30
0.0
 40
0.333333
 41
0.333333
  0
VERTEX
  8
0
 10
570.963
 20
216.938
 30
0.0
 40
0.333333
 41
0.333333
  0
VERTEX
  8
0
 10
570.839
 20
217.013
 30
0.0
 40
0.333333
 41
0.333333
  0
VERTEX
  8
0
 10
570.724
 20
217.099
 30
0.0
 40
0.333333
 41
0.333333
  0
VERTEX
  8
0
 10
570.617
 20
217.196
 30
0.0
 40
0.333333
 41
0.333333
  0
VERTEX
  8
0
 10
570.519
 20
217.303
 30
0.0
 40
0.333333
 41
0.333333
  0
VERTEX
  8
0
 10
570.433
 20
217.418
 30
0.0
 40
0.333333
 41
0.333333
  0
VERTEX
  8
0
 10
570.358
 20
217.542
 30
0.0
 40
0.333333
 41
0.333333
  0
VERTEX
  8
0
 10
570.296
 20
217.672
 30
0.0
 40
0.333333
 41
0.333333
  0
VERTEX
  8
0
 10
570.244
 20
217.811
 30
0.0
 40
0.333333
 41
0.333333
  0
VERTEX
  8
0
 10
570.208
 20
217.954
 30
0.0
 40
0.333333
 41
0.333333
  0
VERTEX
  8
0
 10
570.185
 20
218.103
 30
0.0
 40
0.333333
 41
0.333333
  0
VERTEX
  8
0
 10
570.178
 20
218.218
 30
0.0
 40
0.333333
 41
0.333333
  0
VERTEX
  8
0
 10
570.178
 20
218.257
 30
0.0
 40
0.333333
 41
0.333333
  0
VERTEX
  8
0
 10
570.178
 20
218.294
 30
0.0
 40
0.333333
 41
0.333333
  0
VERTEX
  8
0
 10
570.185
 20
218.41
 30
0.0
 40
0.333333
 41
0.333333
  0
VERTEX
  8
0
 10
570.208
 20
218.558
 30
0.0
 40
0.333333
 41
0.333333
  0
VERTEX
  8
0
 10
570.244
 20
218.703
 30
0.0
 40
0.333333
 41
0.333333
  0
VERTEX
  8
0
 10
570.296
 20
218.84
 30
0.0
 40
0.333333
 41
0.333333
  0
VERTEX
  8
0
 10
570.358
 20
218.971
 30
0.0
 40
0.333333
 41
0.333333
  0
VERTEX
  8
0
 10
570.433
 20
219.096
 30
0.0
 40
0.333333
 41
0.333333
  0
VERTEX
  8
0
 10
570.519
 20
219.211
 30
0.0
 40
0.333333
 41
0.333333
  0
VERTEX
  8
0
 10
570.617
 20
219.317
 30
0.0
 40
0.333333
 41
0.333333
  0
VERTEX
  8
0
 10
570.724
 20
219.414
 30
0.0
 40
0.333333
 41
0.333333
  0
VERTEX
  8
0
 10
570.839
 20
219.5
 30
0.0
 40
0.333333
 41
0.333333
  0
VERTEX
  8
0
 10
570.963
 20
219.575
 30
0.0
 40
0.333333
 41
0.333333
  0
VERTEX
  8
0
 10
571.093
 20
219.639
 30
0.0
 40
0.333333
 41
0.333333
  0
VERTEX
  8
0
 10
571.231
 20
219.689
 30
0.0
 40
0.333333
 41
0.333333
  0
VERTEX
  8
0
 10
571.375
 20
219.726
 30
0.0
 40
0.333333
 41
0.333333
  0
VERTEX
  8
0
 10
571.524
 20
219.749
 30
0.0
 40
0.333333
 41
0.333333
  0
VERTEX
  8
0
 10
571.639
 20
219.757
 30
0.0
 40
0.333333
 41
0.333333
  0
VERTEX
  8
0
 10
571.678
 20
219.757
 30
0.0
 40
0.333333
 41
0.333333
  0
VERTEX
  8
0
 10
571.715
 20
219.757
 30
0.0
 40
0.333333
 41
0.333333
  0
VERTEX
  8
0
 10
571.831
 20
219.749
 30
0.0
 40
0.333333
 41
0.333333
  0
VERTEX
  8
0
 10
571.979
 20
219.726
 30
0.0
 40
0.333333
 41
0.333333
  0
VERTEX
  8
0
 10
572.124
 20
219.689
 30
0.0
 40
0.333333
 41
0.333333
  0
VERTEX
  8
0
 10
572.261
 20
219.639
 30
0.0
 40
0.333333
 41
0.333333
  0
VERTEX
  8
0
 10
572.392
 20
219.575
 30
0.0
 40
0.333333
 41
0.333333
  0
VERTEX
  8
0
 10
572.515
 20
219.5
 30
0.0
 40
0.333333
 41
0.333333
  0
VERTEX
  8
0
 10
572.632
 20
219.414
 30
0.0
 40
0.333333
 41
0.333333
  0
VERTEX
  8
0
 10
572.738
 20
219.317
 30
0.0
 40
0.333333
 41
0.333333
  0
VERTEX
  8
0
 10
572.835
 20
219.211
 30
0.0
 40
0.333333
 41
0.333333
  0
VERTEX
  8
0
 10
572.921
 20
219.096
 30
0.0
 40
0.333333
 41
0.333333
  0
VERTEX
  8
0
 10
572.996
 20
218.971
 30
0.0
 40
0.333333
 41
0.333333
  0
VERTEX
  8
0
 10
573.06
 20
218.84
 30
0.0
 40
0.333333
 41
0.333333
  0
VERTEX
  8
0
 10
573.11
 20
218.703
 30
0.0
 40
0.333333
 41
0.333333
  0
VERTEX
  8
0
 10
573.147
 20
218.558
 30
0.0
 40
0.333333
 41
0.333333
  0
VERTEX
  8
0
 10
573.169
 20
218.41
 30
0.0
 40
0.333333
 41
0.333333
  0
VERTEX
  8
0
 10
573.178
 20
218.294
 30
0.0
 40
0.333333
 41
0.333333
  0
VERTEX
  8
0
 10
573.178
 20
218.257
 30
0.0
 40
0.333333
 41
0.333333
  0
SEQEND
 8
0
  0
POLYLINE
  8
0
 62
     0
 66
     1
 10
0
 20
0
 30
0.0
 70
     1
 40
24
 41
24
  0
VERTEX
  8
0
 10
573.178
 20
202.507
 30
0.0
 40
0.333333
 41
0.333333
  0
VERTEX
  8
0
 10
573.178
 20
202.468
 30
0.0
 40
0.333333
 41
0.333333
  0
VERTEX
  8
0
 10
573.169
 20
202.353
 30
0.0
 40
0.333333
 41
0.333333
  0
VERTEX
  8
0
 10
573.147
 20
202.204
 30
0.0
 40
0.333333
 41
0.333333
  0
VERTEX
  8
0
 10
573.11
 20
202.061
 30
0.0
 40
0.333333
 41
0.333333
  0
VERTEX
  8
0
 10
573.06
 20
201.922
 30
0.0
 40
0.333333
 41
0.333333
  0
VERTEX
  8
0
 10
572.996
 20
201.792
 30
0.0
 40
0.333333
 41
0.333333
  0
VERTEX
  8
0
 10
572.921
 20
201.668
 30
0.0
 40
0.333333
 41
0.333333
  0
VERTEX
  8
0
 10
572.835
 20
201.553
 30
0.0
 40
0.333333
 41
0.333333
  0
VERTEX
  8
0
 10
572.738
 20
201.446
 30
0.0
 40
0.333333
 41
0.333333
  0
VERTEX
  8
0
 10
572.632
 20
201.349
 30
0.0
 40
0.333333
 41
0.333333
  0
VERTEX
  8
0
 10
572.515
 20
201.263
 30
0.0
 40
0.333333
 41
0.333333
  0
VERTEX
  8
0
 10
572.392
 20
201.188
 30
0.0
 40
0.333333
 41
0.333333
  0
VERTEX
  8
0
 10
572.261
 20
201.125
 30
0.0
 40
0.333333
 41
0.333333
  0
VERTEX
  8
0
 10
572.124
 20
201.074
 30
0.0
 40
0.333333
 41
0.333333
  0
VERTEX
  8
0
 10
571.979
 20
201.038
 30
0.0
 40
0.333333
 41
0.333333
  0
VERTEX
  8
0
 10
571.831
 20
201.014
 30
0.0
 40
0.333333
 41
0.333333
  0
VERTEX
  8
0
 10
571.715
 20
201.007
 30
0.0
 40
0.333333
 41
0.333333
  0
VERTEX
  8
0
 10
571.678
 20
201.007
 30
0.0
 40
0.333333
 41
0.333333
  0
VERTEX
  8
0
 10
571.639
 20
201.007
 30
0.0
 40
0.333333
 41
0.333333
  0
VERTEX
  8
0
 10
571.524
 20
201.014
 30
0.0
 40
0.333333
 41
0.333333
  0
VERTEX
  8
0
 10
571.375
 20
201.038
 30
0.0
 40
0.333333
 41
0.333333
  0
VERTEX
  8
0
 10
571.231
 20
201.074
 30
0.0
 40
0.333333
 41
0.333333
  0
VERTEX
  8
0
 10
571.093
 20
201.125
 30
0.0
 40
0.333333
 41
0.333333
  0
VERTEX
  8
0
 10
570.963
 20
201.188
 30
0.0
 40
0.333333
 41
0.333333
  0
VERTEX
  8
0
 10
570.839
 20
201.263
 30
0.0
 40
0.333333
 41
0.333333
  0
VERTEX
  8
0
 10
570.724
 20
201.349
 30
0.0
 40
0.333333
 41
0.333333
  0
VERTEX
  8
0
 10
570.617
 20
201.446
 30
0.0
 40
0.333333
 41
0.333333
  0
VERTEX
  8
0
 10
570.519
 20
201.553
 30
0.0
 40
0.333333
 41
0.333333
  0
VERTEX
  8
0
 10
570.433
 20
201.668
 30
0.0
 40
0.333333
 41
0.333333
  0
VERTEX
  8
0
 10
570.358
 20
201.792
 30
0.0
 40
0.333333
 41
0.333333
  0
VERTEX
  8
0
 10
570.296
 20
201.922
 30
0.0
 40
0.333333
 41
0.333333
  0
VERTEX
  8
0
 10
570.244
 20
202.061
 30
0.0
 40
0.333333
 41
0.333333
  0
VERTEX
  8
0
 10
570.208
 20
202.204
 30
0.0
 40
0.333333
 41
0.333333
  0
VERTEX
  8
0
 10
570.185
 20
202.353
 30
0.0
 40
0.333333
 41
0.333333
  0
VERTEX
  8
0
 10
570.178
 20
202.468
 30
0.0
 40
0.333333
 41
0.333333
  0
VERTEX
  8
0
 10
570.178
 20
202.507
 30
0.0
 40
0.333333
 41
0.333333
  0
VERTEX
  8
0
 10
570.178
 20
202.544
 30
0.0
 40
0.333333
 41
0.333333
  0
VERTEX
  8
0
 10
570.185
 20
202.66
 30
0.0
 40
0.333333
 41
0.333333
  0
VERTEX
  8
0
 10
570.208
 20
202.808
 30
0.0
 40
0.333333
 41
0.333333
  0
VERTEX
  8
0
 10
570.244
 20
202.953
 30
0.0
 40
0.333333
 41
0.333333
  0
VERTEX
  8
0
 10
570.296
 20
203.09
 30
0.0
 40
0.333333
 41
0.333333
  0
VERTEX
  8
0
 10
570.358
 20
203.221
 30
0.0
 40
0.333333
 41
0.333333
  0
VERTEX
  8
0
 10
570.433
 20
203.346
 30
0.0
 40
0.333333
 41
0.333333
  0
VERTEX
  8
0
 10
570.519
 20
203.461
 30
0.0
 40
0.333333
 41
0.333333
  0
VERTEX
  8
0
 10
570.617
 20
203.567
 30
0.0
 40
0.333333
 41
0.333333
  0
VERTEX
  8
0
 10
570.724
 20
203.664
 30
0.0
 40
0.333333
 41
0.333333
  0
VERTEX
  8
0
 10
570.839
 20
203.75
 30
0.0
 40
0.333333
 41
0.333333
  0
VERTEX
  8
0
 10
570.963
 20
203.825
 30
0.0
 40
0.333333
 41
0.333333
  0
VERTEX
  8
0
 10
571.093
 20
203.889
 30
0.0
 40
0.333333
 41
0.333333
  0
VERTEX
  8
0
 10
571.231
 20
203.939
 30
0.0
 40
0.333333
 41
0.333333
  0
VERTEX
  8
0
 10
571.375
 20
203.976
 30
0.0
 40
0.333333
 41
0.333333
  0
VERTEX
  8
0
 10
571.524
 20
203.999
 30
0.0
 40
0.333333
 41
0.333333
  0
VERTEX
  8
0
 10
571.639
 20
204.007
 30
0.0
 40
0.333333
 41
0.333333
  0
VERTEX
  8
0
 10
571.678
 20
204.007
 30
0.0
 40
0.333333
 41
0.333333
  0
VERTEX
  8
0
 10
571.715
 20
204.007
 30
0.0
 40
0.333333
 41
0.333333
  0
VERTEX
  8
0
 10
571.831
 20
203.999
 30
0.0
 40
0.333333
 41
0.333333
  0
VERTEX
  8
0
 10
571.979
 20
203.976
 30
0.0
 40
0.333333
 41
0.333333
  0
VERTEX
  8
0
 10
572.124
 20
203.939
 30
0.0
 40
0.333333
 41
0.333333
  0
VERTEX
  8
0
 10
572.261
 20
203.889
 30
0.0
 40
0.333333
 41
0.333333
  0
VERTEX
  8
0
 10
572.392
 20
203.825
 30
0.0
 40
0.333333
 41
0.333333
  0
VERTEX
  8
0
 10
572.515
 20
203.75
 30
0.0
 40
0.333333
 41
0.333333
  0
VERTEX
  8
0
 10
572.632
 20
203.664
 30
0.0
 40
0.333333
 41
0.333333
  0
VERTEX
  8
0
 10
572.738
 20
203.567
 30
0.0
 40
0.333333
 41
0.333333
  0
VERTEX
  8
0
 10
572.835
 20
203.461
 30
0.0
 40
0.333333
 41
0.333333
  0
VERTEX
  8
0
 10
572.921
 20
203.346
 30
0.0
 40
0.333333
 41
0.333333
  0
VERTEX
  8
0
 10
572.996
 20
203.221
 30
0.0
 40
0.333333
 41
0.333333
  0
VERTEX
  8
0
 10
573.06
 20
203.09
 30
0.0
 40
0.333333
 41
0.333333
  0
VERTEX
  8
0
 10
573.11
 20
202.953
 30
0.0
 40
0.333333
 41
0.333333
  0
VERTEX
  8
0
 10
573.147
 20
202.808
 30
0.0
 40
0.333333
 41
0.333333
  0
VERTEX
  8
0
 10
573.169
 20
202.66
 30
0.0
 40
0.333333
 41
0.333333
  0
VERTEX
  8
0
 10
573.178
 20
202.544
 30
0.0
 40
0.333333
 41
0.333333
  0
VERTEX
  8
0
 10
573.178
 20
202.507
 30
0.0
 40
0.333333
 41
0.333333
  0
SEQEND
 8
0
  0
POLYLINE
  8
0
 62
     0
 66
     1
 10
0
 20
0
 30
0.0
 40
25.4
 41
25.4
  0
VERTEX
  8
0
 10
466.715
 20
187.507
 30
0.0
 40
0.352778
 41
0.352778
  0
VERTEX
  8
0
 10
466.715
 20
184.332
 30
0.0
 40
0.352778
 41
0.352778
  0
SEQEND
 8
0
  0
POLYLINE
  8
0
 62
     0
 66
     1
 10
0
 20
0
 30
0.0
 40
25.4
 41
25.4
  0
VERTEX
  8
0
 10
466.715
 20
130.356
 30
0.0
 40
0.352778
 41
0.352778
  0
VERTEX
  8
0
 10
466.715
 20
127.181
 30
0.0
 40
0.352778
 41
0.352778
  0
SEQEND
 8
0
  0
POLYLINE
  8
0
 62
     0
 66
     1
 10
0
 20
0
 30
0.0
 40
25.4
 41
25.4
  0
VERTEX
  8
0
 10
524.053
 20
41.4563
 30
0.0
 40
0.352778
 41
0.352778
  0
VERTEX
  8
0
 10
553.081
 20
41.4563
 30
0.0
 40
0.352778
 41
0.352778
  0
SEQEND
 8
0
  0
POLYLINE
  8
0
 62
     0
 66
     1
 10
0
 20
0
 30
0.0
 40
25.4
 41
25.4
  0
VERTEX
  8
0
 10
463.728
 20
187.507
 30
0.0
 40
0.352778
 41
0.352778
  0
VERTEX
  8
0
 10
517.515
 20
130.356
 30
0.0
 40
0.352778
 41
0.352778
  0
SEQEND
 8
0
  0
POLYLINE
  8
0
 62
     0
 66
     1
 10
0
 20
0
 30
0.0
 40
25.4
 41
25.4
  0
VERTEX
  8
0
 10
733.603
 20
73.2063
 30
0.0
 40
0.352778
 41
0.352778
  0
VERTEX
  8
0
 10
517.515
 20
73.2063
 30
0.0
 40
0.352778
 41
0.352778
  0
SEQEND
 8
0
  0
POLYLINE
  8
0
 62
     0
 66
     1
 10
0
 20
0
 30
0.0
 40
25.4
 41
25.4
  0
VERTEX
  8
0
 10
530.403
 20
57.3313
 30
0.0
 40
0.352778
 41
0.352778
  0
VERTEX
  8
0
 10
530.403
 20
73.2063
 30
0.0
 40
0.352778
 41
0.352778
  0
SEQEND
 8
0
  0
POLYLINE
  8
0
 62
     0
 66
     1
 10
0
 20
0
 30
0.0
 40
25.4
 41
25.4
  0
VERTEX
  8
0
 10
733.603
 20
57.3313
 30
0.0
 40
0.352778
 41
0.352778
  0
VERTEX
  8
0
 10
524.053
 20
57.3313
 30
0.0
 40
0.352778
 41
0.352778
  0
SEQEND
 8
0
  0
POLYLINE
  8
0
 62
     0
 66
     1
 10
0
 20
0
 30
0.0
 40
25.4
 41
25.4
  0
VERTEX
  8
0
 10
727.253
 20
57.3313
 30
0.0
 40
0.352778
 41
0.352778
  0
VERTEX
  8
0
 10
727.253
 20
25.5811
 30
0.0
 40
0.352778
 41
0.352778
  0
SEQEND
 8
0
  0
POLYLINE
  8
0
 62
     0
 66
     1
 10
0
 20
0
 30
0.0
 40
25.4
 41
25.4
  0
VERTEX
  8
0
 10
524.053
 20
0.181153
 30
0.0
 40
0.352778
 41
0.352778
  0
VERTEX
  8
0
 10
524.053
 20
57.3313
 30
0.0
 40
0.352778
 41
0.352778
  0
SEQEND
 8
0
  0
POLYLINE
  8
0
 62
     0
 66
     1
 10
0
 20
0
 30
0.0
 40
25.4
 41
25.4
  0
VERTEX
  8
0
 10
3.3514
 20
187.507
 30
0.0
 40
0.352778
 41
0.352778
  0
VERTEX
  8
0
 10
3.3514
 20
231.957
 30
0.0
 40
0.352778
 41
0.352778
  0
VERTEX
  8
0
 10
0.176378
 20
231.957
 30
0.0
 40
0.352778
 41
0.352778
  0
VERTEX
  8
0
 10
0.176378
 20
454.207
 30
0.0
 40
0.352778
 41
0.352778
  0
VERTEX
  8
0
 10
3.3514
 20
454.207
 30
0.0
 40
0.352778
 41
0.352778
  0
VERTEX
  8
0
 10
3.3514
 20
498.657
 30
0.0
 40
0.352778
 41
0.352778
  0
VERTEX
  8
0
 10
26.4836
 20
498.657
 30
0.0
 40
0.352778
 41
0.352778
  0
VERTEX
  8
0
 10
26.4836
 20
492.307
 30
0.0
 40
0.352778
 41
0.352778
  0
VERTEX
  8
0
 10
158.019
 20
492.307
 30
0.0
 40
0.352778
 41
0.352778
  0
VERTEX
  8
0
 10
158.019
 20
498.657
 30
0.0
 40
0.352778
 41
0.352778
  0
VERTEX
  8
0
 10
181.151
 20
498.657
 30
0.0
 40
0.352778
 41
0.352778
  0
VERTEX
  8
0
 10
181.151
 20
454.207
 30
0.0
 40
0.352778
 41
0.352778
  0
VERTEX
  8
0
 10
184.326
 20
454.207
 30
0.0
 40
0.352778
 41
0.352778
  0
VERTEX
  8
0
 10
184.326
 20
231.957
 30
0.0
 40
0.352778
 41
0.352778
  0
VERTEX
  8
0
 10
181.151
 20
231.957
 30
0.0
 40
0.352778
 41
0.352778
  0
VERTEX
  8
0
 10
181.151
 20
187.507
 30
0.0
 40
0.352778
 41
0.352778
  0
VERTEX
  8
0
 10
96.2203
 20
187.507
 30
0.0
 40
0.352778
 41
0.352778
  0
VERTEX
  8
0
 10
96.2203
 20
416.107
 30
0.0
 40
0.352778
 41
0.352778
  0
VERTEX
  8
0
 10
88.2828
 20
416.107
 30
0.0
 40
0.352778
 41
0.352778
  0
VERTEX
  8
0
 10
88.2828
 20
187.507
 30
0.0
 40
0.352778
 41
0.352778
  0
SEQEND
 8
0
  0
POLYLINE
  8
0
 62
     0
 66
     1
 10
0
 20
0
 30
0.0
 40
25.4
 41
25.4
  0
VERTEX
  8
0
 10
365.301
 20
187.507
 30
0.0
 40
0.352778
 41
0.352778
  0
VERTEX
  8
0
 10
365.301
 20
231.957
 30
0.0
 40
0.352778
 41
0.352778
  0
VERTEX
  8
0
 10
368.476
 20
231.957
 30
0.0
 40
0.352778
 41
0.352778
  0
VERTEX
  8
0
 10
368.476
 20
454.207
 30
0.0
 40
0.352778
 41
0.352778
  0
VERTEX
  8
0
 10
365.301
 20
454.207
 30
0.0
 40
0.352778
 41
0.352778
  0
VERTEX
  8
0
 10
365.301
 20
498.657
 30
0.0
 40
0.352778
 41
0.352778
  0
VERTEX
  8
0
 10
342.169
 20
498.657
 30
0.0
 40
0.352778
 41
0.352778
  0
VERTEX
  8
0
 10
342.169
 20
492.307
 30
0.0
 40
0.352778
 41
0.352778
  0
VERTEX
  8
0
 10
210.633
 20
492.307
 30
0.0
 40
0.352778
 41
0.352778
  0
VERTEX
  8
0
 10
210.633
 20
498.657
 30
0.0
 40
0.352778
 41
0.352778
  0
VERTEX
  8
0
 10
187.501
 20
498.657
 30
0.0
 40
0.352778
 41
0.352778
  0
VERTEX
  8
0
 10
187.501
 20
454.207
 30
0.0
 40
0.352778
 41
0.352778
  0
VERTEX
  8
0
 10
184.326
 20
454.207
 30
0.0
 40
0.352778
 41
0.352778
  0
SEQEND
 8
0
  0
POLYLINE
  8
0
 62
     0
 66
     1
 10
0
 20
0
 30
0.0
 40
25.4
 41
25.4
  0
VERTEX
  8
0
 10
184.326
 20
231.957
 30
0.0
 40
0.352778
 41
0.352778
  0
VERTEX
  8
0
 10
187.501
 20
231.957
 30
0.0
 40
0.352778
 41
0.352778
  0
VERTEX
  8
0
 10
187.501
 20
187.507
 30
0.0
 40
0.352778
 41
0.352778
  0
VERTEX
  8
0
 10
463.728
 20
187.507
 30
0.0
 40
0.352778
 41
0.352778
  0
SEQEND
 8
0
  0
POLYLINE
  8
0
 62
     0
 66
     1
 10
0
 20
0
 30
0.0
 40
25.4
 41
25.4
  0
VERTEX
  8
0
 10
272.433
 20
187.507
 30
0.0
 40
0.352778
 41
0.352778
  0
VERTEX
  8
0
 10
272.433
 20
416.107
 30
0.0
 40
0.352778
 41
0.352778
  0
VERTEX
  8
0
 10
280.371
 20
416.107
 30
0.0
 40
0.352778
 41
0.352778
  0
VERTEX
  8
0
 10
280.371
 20
187.507
 30
0.0
 40
0.352778
 41
0.352778
  0
SEQEND
 8
0
  0
POLYLINE
  8
0
 62
     0
 66
     1
 10
0
 20
0
 30
0.0
 40
25.4
 41
25.4
  0
VERTEX
  8
0
 10
549.453
 20
187.507
 30
0.0
 40
0.352778
 41
0.352778
  0
VERTEX
  8
0
 10
549.453
 20
231.957
 30
0.0
 40
0.352778
 41
0.352778
  0
VERTEX
  8
0
 10
552.628
 20
231.957
 30
0.0
 40
0.352778
 41
0.352778
  0
VERTEX
  8
0
 10
552.628
 20
454.207
 30
0.0
 40
0.352778
 41
0.352778
  0
VERTEX
  8
0
 10
549.453
 20
454.207
 30
0.0
 40
0.352778
 41
0.352778
  0
VERTEX
  8
0
 10
549.453
 20
498.657
 30
0.0
 40
0.352778
 41
0.352778
  0
VERTEX
  8
0
 10
526.319
 20
498.657
 30
0.0
 40
0.352778
 41
0.352778
  0
VERTEX
  8
0
 10
526.319
 20
492.307
 30
0.0
 40
0.352778
 41
0.352778
  0
VERTEX
  8
0
 10
394.785
 20
492.307
 30
0.0
 40
0.352778
 41
0.352778
  0
VERTEX
  8
0
 10
394.785
 20
498.657
 30
0.0
 40
0.352778
 41
0.352778
  0
VERTEX
  8
0
 10
371.651
 20
498.657
 30
0.0
 40
0.352778
 41
0.352778
  0
VERTEX
  8
0
 10
371.651
 20
454.207
 30
0.0
 40
0.352778
 41
0.352778
  0
VERTEX
  8
0
 10
368.476
 20
454.207
 30
0.0
 40
0.352778
 41
0.352778
  0
SEQEND
 8
0
  0
POLYLINE
  8
0
 62
     0
 66
     1
 10
0
 20
0
 30
0.0
 40
25.4
 41
25.4
  0
VERTEX
  8
0
 10
368.476
 20
231.957
 30
0.0
 40
0.352778
 41
0.352778
  0
VERTEX
  8
0
 10
371.651
 20
231.957
 30
0.0
 40
0.352778
 41
0.352778
  0
VERTEX
  8
0
 10
371.651
 20
187.507
 30
0.0
 40
0.352778
 41
0.352778
  0
SEQEND
 8
0
  0
POLYLINE
  8
0
 62
     0
 66
     1
 10
0
 20
0
 30
0.0
 40
25.4
 41
25.4
  0
VERTEX
  8
0
 10
456.583
 20
187.507
 30
0.0
 40
0.352778
 41
0.352778
  0
VERTEX
  8
0
 10
456.583
 20
416.107
 30
0.0
 40
0.352778
 41
0.352778
  0
VERTEX
  8
0
 10
464.521
 20
416.107
 30
0.0
 40
0.352778
 41
0.352778
  0
VERTEX
  8
0
 10
464.521
 20
187.507
 30
0.0
 40
0.352778
 41
0.352778
  0
VERTEX
  8
0
 10
640.733
 20
187.507
 30
0.0
 40
0.352778
 41
0.352778
  0
VERTEX
  8
0
 10
640.733
 20
416.107
 30
0.0
 40
0.352778
 41
0.352778
  0
VERTEX
  8
0
 10
648.671
 20
416.107
 30
0.0
 40
0.352778
 41
0.352778
  0
VERTEX
  8
0
 10
648.671
 20
187.507
 30
0.0
 40
0.352778
 41
0.352778
  0
VERTEX
  8
0
 10
733.603
 20
187.507
 30
0.0
 40
0.352778
 41
0.352778
  0
SEQEND
 8
0
  0
POLYLINE
  8
0
 62
     0
 66
     1
 10
0
 20
0
 30
0.0
 40
25.4
 41
25.4
  0
VERTEX
  8
0
 10
127.177
 20
187.507
 30
0.0
 40
0.352778
 41
0.352778
  0
VERTEX
  8
0
 10
127.177
 20
184.332
 30
0.0
 40
0.352778
 41
0.352778
  0
VERTEX
  8
0
 10
95.4265
 20
184.332
 30
0.0
 40
0.352778
 41
0.352778
  0
VERTEX
  8
0
 10
95.4265
 20
187.507
 30
0.0
 40
0.352778
 41
0.352778
  0
VERTEX
  8
0
 10
0.176378
 20
187.507
 30
0.0
 40
0.352778
 41
0.352778
  0
VERTEX
  8
0
 10
0.176378
 20
184.332
 30
0.0
 40
0.352778
 41
0.352778
  0
VERTEX
  8
0
 10
50.9764
 20
130.356
 30
0.0
 40
0.352778
 41
0.352778
  0
VERTEX
  8
0
 10
254.176
 20
130.356
 30
0.0
 40
0.352778
 41
0.352778
  0
VERTEX
  8
0
 10
254.176
 20
171.632
 30
0.0
 40
0.352778
 41
0.352778
  0
VERTEX
  8
0
 10
260.526
 20
171.632
 30
0.0
 40
0.352778
 41
0.352778
  0
VERTEX
  8
0
 10
260.526
 20
184.332
 30
0.0
 40
0.352778
 41
0.352778
  0
VERTEX
  8
0
 10
222.426
 20
184.332
 30
0.0
 40
0.352778
 41
0.352778
  0
VERTEX
  8
0
 10
222.426
 20
187.507
 30
0.0
 40
0.352778
 41
0.352778
  0
SEQEND
 8
0
  0
POLYLINE
  8
0
 62
     0
 66
     1
 10
0
 20
0
 30
0.0
 40
25.4
 41
25.4
  0
VERTEX
  8
0
 10
63.6765
 20
187.507
 30
0.0
 40
0.352778
 41
0.352778
  0
VERTEX
  8
0
 10
63.6765
 20
184.332
 30
0.0
 40
0.352778
 41
0.352778
  0
VERTEX
  8
0
 10
31.9264
 20
184.332
 30
0.0
 40
0.352778
 41
0.352778
  0
VERTEX
  8
0
 10
31.9264
 20
187.507
 30
0.0
 40
0.352778
 41
0.352778
  0
SEQEND
 8
0
  0
POLYLINE
  8
0
 62
     0
 66
     1
 10
0
 20
0
 30
0.0
 40
25.4
 41
25.4
  0
VERTEX
  8
0
 10
190.676
 20
187.507
 30
0.0
 40
0.352778
 41
0.352778
  0
VERTEX
  8
0
 10
190.676
 20
184.332
 30
0.0
 40
0.352778
 41
0.352778
  0
VERTEX
  8
0
 10
158.926
 20
184.332
 30
0.0
 40
0.352778
 41
0.352778
  0
VERTEX
  8
0
 10
158.926
 20
187.507
 30
0.0
 40
0.352778
 41
0.352778
  0
SEQEND
 8
0
  0
POLYLINE
  8
0
 62
     0
 66
     1
 10
0
 20
0
 30
0.0
 40
25.4
 41
25.4
  0
VERTEX
  8
0
 10
736.778
 20
231.957
 30
0.0
 40
0.352778
 41
0.352778
  0
VERTEX
  8
0
 10
736.778
 20
454.207
 30
0.0
 40
0.352778
 41
0.352778
  0
VERTEX
  8
0
 10
733.603
 20
454.207
 30
0.0
 40
0.352778
 41
0.352778
  0
VERTEX
  8
0
 10
733.603
 20
498.657
 30
0.0
 40
0.352778
 41
0.352778
  0
VERTEX
  8
0
 10
710.471
 20
498.657
 30
0.0
 40
0.352778
 41
0.352778
  0
VERTEX
  8
0
 10
710.471
 20
492.307
 30
0.0
 40
0.352778
 41
0.352778
  0
VERTEX
  8
0
 10
578.935
 20
492.307
 30
0.0
 40
0.352778
 41
0.352778
  0
VERTEX
  8
0
 10
578.935
 20
498.657
 30
0.0
 40
0.352778
 41
0.352778
  0
VERTEX
  8
0
 10
555.803
 20
498.657
 30
0.0
 40
0.352778
 41
0.352778
  0
VERTEX
  8
0
 10
555.803
 20
454.207
 30
0.0
 40
0.352778
 41
0.352778
  0
VERTEX
  8
0
 10
552.628
 20
454.207
 30
0.0
 40
0.352778
 41
0.352778
  0
SEQEND
 8
0
  0
POLYLINE
  8
0
 62
     0
 66
     1
 10
0
 20
0
 30
0.0
 40
25.4
 41
25.4
  0
VERTEX
  8
0
 10
552.628
 20
231.957
 30
0.0
 40
0.352778
 41
0.352778
  0
VERTEX
  8
0
 10
555.803
 20
231.957
 30
0.0
 40
0.352778
 41
0.352778
  0
VERTEX
  8
0
 10
555.803
 20
187.507
 30
0.0
 40
0.352778
 41
0.352778
  0
SEQEND
 8
0
  0
POLYLINE
  8
0
 62
     0
 66
     1
 10
0
 20
0
 30
0.0
 40
25.4
 41
25.4
  0
VERTEX
  8
0
 10
419.276
 20
130.356
 30
0.0
 40
0.352778
 41
0.352778
  0
VERTEX
  8
0
 10
419.276
 20
133.531
 30
0.0
 40
0.352778
 41
0.352778
  0
VERTEX
  8
0
 10
387.526
 20
133.531
 30
0.0
 40
0.352778
 41
0.352778
  0
VERTEX
  8
0
 10
387.526
 20
130.356
 30
0.0
 40
0.352778
 41
0.352778
  0
SEQEND
 8
0
  0
POLYLINE
  8
0
 62
     0
 66
     1
 10
0
 20
0
 30
0.0
 40
25.4
 41
25.4
  0
VERTEX
  8
0
 10
451.028
 20
130.356
 30
0.0
 40
0.352778
 41
0.352778
  0
VERTEX
  8
0
 10
451.028
 20
133.531
 30
0.0
 40
0.352778
 41
0.352778
  0
VERTEX
  8
0
 10
482.778
 20
133.531
 30
0.0
 40
0.352778
 41
0.352778
  0
VERTEX
  8
0
 10
482.778
 20
130.356
 30
0.0
 40
0.352778
 41
0.352778
  0
SEQEND
 8
0
  0
POLYLINE
  8
0
 62
     0
 66
     1
 10
0
 20
0
 30
0.0
 40
25.4
 41
25.4
  0
VERTEX
  8
0
 10
514.528
 20
133.531
 30
0.0
 40
0.352778
 41
0.352778
  0
VERTEX
  8
0
 10
514.528
 20
130.356
 30
0.0
 40
0.352778
 41
0.352778
  0
VERTEX
  8
0
 10
466.715
 20
130.356
 30
0.0
 40
0.352778
 41
0.352778
  0
SEQEND
 8
0
  0
POLYLINE
  8
0
 62
     0
 66
     1
 10
0
 20
0
 30
0.0
 40
25.4
 41
25.4
  0
VERTEX
  8
0
 10
260.526
 20
187.507
 30
0.0
 40
0.352778
 41
0.352778
  0
VERTEX
  8
0
 10
260.526
 20
146.232
 30
0.0
 40
0.352778
 41
0.352778
  0
VERTEX
  8
0
 10
254.176
 20
146.232
 30
0.0
 40
0.352778
 41
0.352778
  0
SEQEND
 8
0
  0
POLYLINE
  8
0
 62
     0
 66
     1
 10
0
 20
0
 30
0.0
 40
25.4
 41
25.4
  0
VERTEX
  8
0
 10
254.176
 20
133.531
 30
0.0
 40
0.352778
 41
0.352778
  0
VERTEX
  8
0
 10
292.276
 20
133.531
 30
0.0
 40
0.352778
 41
0.352778
  0
VERTEX
  8
0
 10
292.276
 20
130.356
 30
0.0
 40
0.352778
 41
0.352778
  0
SEQEND
 8
0
  0
POLYLINE
  8
0
 62
     0
 66
     1
 10
0
 20
0
 30
0.0
 40
25.4
 41
25.4
  0
VERTEX
  8
0
 10
324.026
 20
130.356
 30
0.0
 40
0.352778
 41
0.352778
  0
VERTEX
  8
0
 10
324.026
 20
133.531
 30
0.0
 40
0.352778
 41
0.352778
  0
VERTEX
  8
0
 10
355.776
 20
133.531
 30
0.0
 40
0.352778
 41
0.352778
  0
VERTEX
  8
0
 10
355.776
 20
130.356
 30
0.0
 40
0.352778
 41
0.352778
  0
SEQEND
 8
0
  0
POLYLINE
  8
0
 62
     0
 66
     1
 10
0
 20
0
 30
0.0
 40
25.4
 41
25.4
  0
VERTEX
  8
0
 10
561.965
 20
187.507
 30
0.0
 40
0.352778
 41
0.352778
  0
VERTEX
  8
0
 10
561.965
 20
184.332
 30
0.0
 40
0.352778
 41
0.352778
  0
VERTEX
  8
0
 10
593.715
 20
184.332
 30
0.0
 40
0.352778
 41
0.352778
  0
VERTEX
  8
0
 10
593.715
 20
187.507
 30
0.0
 40
0.352778
 41
0.352778
  0
SEQEND
 8
0
  0
POLYLINE
  8
0
 62
     0
 66
     1
 10
0
 20
0
 30
0.0
 40
25.4
 41
25.4
  0
VERTEX
  8
0
 10
530.215
 20
187.507
 30
0.0
 40
0.352778
 41
0.352778
  0
VERTEX
  8
0
 10
530.215
 20
184.332
 30
0.0
 40
0.352778
 41
0.352778
  0
VERTEX
  8
0
 10
498.465
 20
184.332
 30
0.0
 40
0.352778
 41
0.352778
  0
VERTEX
  8
0
 10
498.465
 20
187.507
 30
0.0
 40
0.352778
 41
0.352778
  0
SEQEND
 8
0
  0
POLYLINE
  8
0
 62
     0
 66
     1
 10
0
 20
0
 30
0.0
 40
25.4
 41
25.4
  0
VERTEX
  8
0
 10
517.515
 20
130.356
 30
0.0
 40
0.352778
 41
0.352778
  0
VERTEX
  8
0
 10
720.715
 20
130.356
 30
0.0
 40
0.352778
 41
0.352778
  0
VERTEX
  8
0
 10
720.715
 20
171.632
 30
0.0
 40
0.352778
 41
0.352778
  0
VERTEX
  8
0
 10
727.065
 20
171.632
 30
0.0
 40
0.352778
 41
0.352778
  0
VERTEX
  8
0
 10
727.065
 20
184.332
 30
0.0
 40
0.352778
 41
0.352778
  0
VERTEX
  8
0
 10
688.965
 20
184.332
 30
0.0
 40
0.352778
 41
0.352778
  0
VERTEX
  8
0
 10
688.965
 20
187.507
 30
0.0
 40
0.352778
 41
0.352778
  0
SEQEND
 8
0
  0
POLYLINE
  8
0
 62
     0
 66
     1
 10
0
 20
0
 30
0.0
 40
25.4
 41
25.4
  0
VERTEX
  8
0
 10
657.215
 20
187.507
 30
0.0
 40
0.352778
 41
0.352778
  0
VERTEX
  8
0
 10
657.215
 20
184.332
 30
0.0
 40
0.352778
 41
0.352778
  0
VERTEX
  8
0
 10
625.465
 20
184.332
 30
0.0
 40
0.352778
 41
0.352778
  0
VERTEX
  8
0
 10
625.465
 20
187.507
 30
0.0
 40
0.352778
 41
0.352778
  0
SEQEND
 8
0
  0
POLYLINE
  8
0
 62
     0
 66
     1
 10
0
 20
0
 30
0.0
 40
25.4
 41
25.4
  0
VERTEX
  8
0
 10
95.4265
 20
130.356
 30
0.0
 40
0.352778
 41
0.352778
  0
VERTEX
  8
0
 10
95.4265
 20
127.181
 30
0.0
 40
0.352778
 41
0.352778
  0
VERTEX
  8
0
 10
127.177
 20
127.181
 30
0.0
 40
0.352778
 41
0.352778
  0
VERTEX
  8
0
 10
127.177
 20
130.356
 30
0.0
 40
0.352778
 41
0.352778
  0
SEQEND
 8
0
  0
POLYLINE
  8
0
 62
     0
 66
     1
 10
0
 20
0
 30
0.0
 40
25.4
 41
25.4
  0
VERTEX
  8
0
 10
63.6765
 20
130.356
 30
0.0
 40
0.352778
 41
0.352778
  0
VERTEX
  8
0
 10
63.6765
 20
127.181
 30
0.0
 40
0.352778
 41
0.352778
  0
VERTEX
  8
0
 10
31.9264
 20
127.181
 30
0.0
 40
0.352778
 41
0.352778
  0
VERTEX
  8
0
 10
31.9264
 20
130.356
 30
0.0
 40
0.352778
 41
0.352778
  0
VERTEX
  8
0
 10
0.176378
 20
130.356
 30
0.0
 40
0.352778
 41
0.352778
  0
VERTEX
  8
0
 10
0.176378
 20
127.181
 30
0.0
 40
0.352778
 41
0.352778
  0
VERTEX
  8
0
 10
50.9764
 20
73.2063
 30
0.0
 40
0.352778
 41
0.352778
  0
VERTEX
  8
0
 10
254.176
 20
73.2063
 30
0.0
 40
0.352778
 41
0.352778
  0
VERTEX
  8
0
 10
254.176
 20
114.481
 30
0.0
 40
0.352778
 41
0.352778
  0
VERTEX
  8
0
 10
260.526
 20
114.481
 30
0.0
 40
0.352778
 41
0.352778
  0
VERTEX
  8
0
 10
260.526
 20
127.181
 30
0.0
 40
0.352778
 41
0.352778
  0
VERTEX
  8
0
 10
222.426
 20
127.181
 30
0.0
 40
0.352778
 41
0.352778
  0
VERTEX
  8
0
 10
222.426
 20
130.356
 30
0.0
 40
0.352778
 41
0.352778
  0
SEQEND
 8
0
  0
POLYLINE
  8
0
 62
     0
 66
     1
 10
0
 20
0
 30
0.0
 40
25.4
 41
25.4
  0
VERTEX
  8
0
 10
190.676
 20
130.356
 30
0.0
 40
0.352778
 41
0.352778
  0
VERTEX
  8
0
 10
190.676
 20
127.181
 30
0.0
 40
0.352778
 41
0.352778
  0
VERTEX
  8
0
 10
158.926
 20
127.181
 30
0.0
 40
0.352778
 41
0.352778
  0
VERTEX
  8
0
 10
158.926
 20
130.356
 30
0.0
 40
0.352778
 41
0.352778
  0
SEQEND
 8
0
  0
POLYLINE
  8
0
 62
     0
 66
     1
 10
0
 20
0
 30
0.0
 40
25.4
 41
25.4
  0
VERTEX
  8
0
 10
419.276
 20
73.2063
 30
0.0
 40
0.352778
 41
0.352778
  0
VERTEX
  8
0
 10
419.276
 20
76.3813
 30
0.0
 40
0.352778
 41
0.352778
  0
VERTEX
  8
0
 10
387.526
 20
76.3813
 30
0.0
 40
0.352778
 41
0.352778
  0
VERTEX
  8
0
 10
387.526
 20
73.2063
 30
0.0
 40
0.352778
 41
0.352778
  0
VERTEX
  8
0
 10
333.551
 20
73.2063
 30
0.0
 40
0.352778
 41
0.352778
  0
SEQEND
 8
0
  0
POLYLINE
  8
0
 62
     0
 66
     1
 10
0
 20
0
 30
0.0
 40
25.4
 41
25.4
  0
VERTEX
  8
0
 10
482.778
 20
73.2063
 30
0.0
 40
0.352778
 41
0.352778
  0
VERTEX
  8
0
 10
482.778
 20
76.3813
 30
0.0
 40
0.352778
 41
0.352778
  0
VERTEX
  8
0
 10
451.028
 20
76.3813
 30
0.0
 40
0.352778
 41
0.352778
  0
VERTEX
  8
0
 10
451.028
 20
73.2063
 30
0.0
 40
0.352778
 41
0.352778
  0
VERTEX
  8
0
 10
397.051
 20
73.2063
 30
0.0
 40
0.352778
 41
0.352778
  0
SEQEND
 8
0
  0
POLYLINE
  8
0
 62
     0
 66
     1
 10
0
 20
0
 30
0.0
 40
25.4
 41
25.4
  0
VERTEX
  8
0
 10
514.528
 20
76.3813
 30
0.0
 40
0.352778
 41
0.352778
  0
VERTEX
  8
0
 10
514.528
 20
73.2063
 30
0.0
 40
0.352778
 41
0.352778
  0
VERTEX
  8
0
 10
460.553
 20
73.2063
 30
0.0
 40
0.352778
 41
0.352778
  0
SEQEND
 8
0
  0
POLYLINE
  8
0
 62
     0
 66
     1
 10
0
 20
0
 30
0.0
 40
25.4
 41
25.4
  0
VERTEX
  8
0
 10
254.176
 20
89.0813
 30
0.0
 40
0.352778
 41
0.352778
  0
VERTEX
  8
0
 10
260.526
 20
89.0813
 30
0.0
 40
0.352778
 41
0.352778
  0
VERTEX
  8
0
 10
260.526
 20
130.356
 30
0.0
 40
0.352778
 41
0.352778
  0
VERTEX
  8
0
 10
463.728
 20
130.356
 30
0.0
 40
0.352778
 41
0.352778
  0
VERTEX
  8
0
 10
517.515
 20
73.2063
 30
0.0
 40
0.352778
 41
0.352778
  0
SEQEND
 8
0
  0
POLYLINE
  8
0
 62
     0
 66
     1
 10
0
 20
0
 30
0.0
 40
25.4
 41
25.4
  0
VERTEX
  8
0
 10
254.176
 20
76.3813
 30
0.0
 40
0.352778
 41
0.352778
  0
VERTEX
  8
0
 10
292.276
 20
76.3813
 30
0.0
 40
0.352778
 41
0.352778
  0
VERTEX
  8
0
 10
292.276
 20
73.2063
 30
0.0
 40
0.352778
 41
0.352778
  0
SEQEND
 8
0
  0
POLYLINE
  8
0
 62
     0
 66
     1
 10
0
 20
0
 30
0.0
 40
25.4
 41
25.4
  0
VERTEX
  8
0
 10
355.776
 20
73.2063
 30
0.0
 40
0.352778
 41
0.352778
  0
VERTEX
  8
0
 10
355.776
 20
76.3813
 30
0.0
 40
0.352778
 41
0.352778
  0
VERTEX
  8
0
 10
324.026
 20
76.3813
 30
0.0
 40
0.352778
 41
0.352778
  0
VERTEX
  8
0
 10
324.026
 20
73.2063
 30
0.0
 40
0.352778
 41
0.352778
  0
VERTEX
  8
0
 10
270.051
 20
73.2063
 30
0.0
 40
0.352778
 41
0.352778
  0
SEQEND
 8
0
  0
POLYLINE
  8
0
 62
     0
 66
     1
 10
0
 20
0
 30
0.0
 40
25.4
 41
25.4
  0
VERTEX
  8
0
 10
561.965
 20
130.356
 30
0.0
 40
0.352778
 41
0.352778
  0
VERTEX
  8
0
 10
561.965
 20
127.181
 30
0.0
 40
0.352778
 41
0.352778
  0
VERTEX
  8
0
 10
593.715
 20
127.181
 30
0.0
 40
0.352778
 41
0.352778
  0
VERTEX
  8
0
 10
593.715
 20
130.356
 30
0.0
 40
0.352778
 41
0.352778
  0
SEQEND
 8
0
  0
POLYLINE
  8
0
 62
     0
 66
     1
 10
0
 20
0
 30
0.0
 40
25.4
 41
25.4
  0
VERTEX
  8
0
 10
530.215
 20
130.356
 30
0.0
 40
0.352778
 41
0.352778
  0
VERTEX
  8
0
 10
530.215
 20
127.181
 30
0.0
 40
0.352778
 41
0.352778
  0
VERTEX
  8
0
 10
498.465
 20
127.181
 30
0.0
 40
0.352778
 41
0.352778
  0
VERTEX
  8
0
 10
498.465
 20
130.356
 30
0.0
 40
0.352778
 41
0.352778
  0
SEQEND
 8
0
  0
POLYLINE
  8
0
 62
     0
 66
     1
 10
0
 20
0
 30
0.0
 40
25.4
 41
25.4
  0
VERTEX
  8
0
 10
720.715
 20
73.2063
 30
0.0
 40
0.352778
 41
0.352778
  0
VERTEX
  8
0
 10
720.715
 20
114.481
 30
0.0
 40
0.352778
 41
0.352778
  0
VERTEX
  8
0
 10
727.065
 20
114.481
 30
0.0
 40
0.352778
 41
0.352778
  0
VERTEX
  8
0
 10
727.065
 20
127.181
 30
0.0
 40
0.352778
 41
0.352778
  0
VERTEX
  8
0
 10
688.965
 20
127.181
 30
0.0
 40
0.352778
 41
0.352778
  0
VERTEX
  8
0
 10
688.965
 20
130.356
 30
0.0
 40
0.352778
 41
0.352778
  0
SEQEND
 8
0
  0
POLYLINE
  8
0
 62
     0
 66
     1
 10
0
 20
0
 30
0.0
 40
25.4
 41
25.4
  0
VERTEX
  8
0
 10
657.215
 20
130.356
 30
0.0
 40
0.352778
 41
0.352778
  0
VERTEX
  8
0
 10
657.215
 20
127.181
 30
0.0
 40
0.352778
 41
0.352778
  0
VERTEX
  8
0
 10
625.465
 20
127.181
 30
0.0
 40
0.352778
 41
0.352778
  0
VERTEX
  8
0
 10
625.465
 20
130.356
 30
0.0
 40
0.352778
 41
0.352778
  0
SEQEND
 8
0
  0
POLYLINE
  8
0
 62
     0
 66
     1
 10
0
 20
0
 30
0.0
 40
25.4
 41
25.4
  0
VERTEX
  8
0
 10
95.4265
 20
73.2063
 30
0.0
 40
0.352778
 41
0.352778
  0
VERTEX
  8
0
 10
95.4265
 20
70.0313
 30
0.0
 40
0.352778
 41
0.352778
  0
VERTEX
  8
0
 10
127.177
 20
70.0313
 30
0.0
 40
0.352778
 41
0.352778
  0
VERTEX
  8
0
 10
127.177
 20
73.2063
 30
0.0
 40
0.352778
 41
0.352778
  0
SEQEND
 8
0
  0
POLYLINE
  8
0
 62
     0
 66
     1
 10
0
 20
0
 30
0.0
 40
25.4
 41
25.4
  0
VERTEX
  8
0
 10
63.6765
 20
73.2063
 30
0.0
 40
0.352778
 41
0.352778
  0
VERTEX
  8
0
 10
63.6765
 20
70.0313
 30
0.0
 40
0.352778
 41
0.352778
  0
VERTEX
  8
0
 10
31.9264
 20
70.0313
 30
0.0
 40
0.352778
 41
0.352778
  0
VERTEX
  8
0
 10
31.9264
 20
73.2063
 30
0.0
 40
0.352778
 41
0.352778
  0
VERTEX
  8
0
 10
0.176378
 20
73.2063
 30
0.0
 40
0.352778
 41
0.352778
  0
VERTEX
  8
0
 10
0.176378
 20
70.0313
 30
0.0
 40
0.352778
 41
0.352778
  0
VERTEX
  8
0
 10
50.9764
 20
16.0561
 30
0.0
 40
0.352778
 41
0.352778
  0
VERTEX
  8
0
 10
262.794
 20
16.0561
 30
0.0
 40
0.352778
 41
0.352778
  0
SEQEND
 8
0
  0
POLYLINE
  8
0
 62
     0
 66
     1
 10
0
 20
0
 30
0.0
 40
25.4
 41
25.4
  0
VERTEX
  8
0
 10
254.176
 20
16.0561
 30
0.0
 40
0.352778
 41
0.352778
  0
VERTEX
  8
0
 10
254.176
 20
57.3313
 30
0.0
 40
0.352778
 41
0.352778
  0
VERTEX
  8
0
 10
260.526
 20
57.3313
 30
0.0
 40
0.352778
 41
0.352778
  0
VERTEX
  8
0
 10
260.526
 20
70.0313
 30
0.0
 40
0.352778
 41
0.352778
  0
VERTEX
  8
0
 10
222.426
 20
70.0313
 30
0.0
 40
0.352778
 41
0.352778
  0
VERTEX
  8
0
 10
222.426
 20
73.2063
 30
0.0
 40
0.352778
 41
0.352778
  0
SEQEND
 8
0
  0
POLYLINE
  8
0
 62
     0
 66
     1
 10
0
 20
0
 30
0.0
 40
25.4
 41
25.4
  0
VERTEX
  8
0
 10
190.676
 20
73.2063
 30
0.0
 40
0.352778
 41
0.352778
  0
VERTEX
  8
0
 10
190.676
 20
70.0313
 30
0.0
 40
0.352778
 41
0.352778
  0
VERTEX
  8
0
 10
158.926
 20
70.0313
 30
0.0
 40
0.352778
 41
0.352778
  0
VERTEX
  8
0
 10
158.926
 20
73.2063
 30
0.0
 40
0.352778
 41
0.352778
  0
SEQEND
 8
0
  0
POLYLINE
  8
0
 62
     0
 66
     1
 10
0
 20
0
 30
0.0
 40
25.4
 41
25.4
  0
VERTEX
  8
0
 10
749.478
 20
231.957
 30
0.0
 40
0.352778
 41
0.352778
  0
VERTEX
  8
0
 10
749.478
 20
202.928
 30
0.0
 40
0.352778
 41
0.352778
  0
VERTEX
  8
0
 10
746.303
 20
202.928
 30
0.0
 40
0.352778
 41
0.352778
  0
VERTEX
  8
0
 10
746.303
 20
173.9
 30
0.0
 40
0.352778
 41
0.352778
  0
VERTEX
  8
0
 10
749.478
 20
173.9
 30
0.0
 40
0.352778
 41
0.352778
  0
VERTEX
  8
0
 10
749.478
 20
144.871
 30
0.0
 40
0.352778
 41
0.352778
  0
VERTEX
  8
0
 10
746.303
 20
144.871
 30
0.0
 40
0.352778
 41
0.352778
  0
VERTEX
  8
0
 10
746.303
 20
115.842
 30
0.0
 40
0.352778
 41
0.352778
  0
VERTEX
  8
0
 10
749.478
 20
115.842
 30
0.0
 40
0.352778
 41
0.352778
  0
VERTEX
  8
0
 10
749.478
 20
86.8135
 30
0.0
 40
0.352778
 41
0.352778
  0
VERTEX
  8
0
 10
746.303
 20
86.8135
 30
0.0
 40
0.352778
 41
0.352778
  0
VERTEX
  8
0
 10
746.303
 20
57.7849
 30
0.0
 40
0.352778
 41
0.352778
  0
VERTEX
  8
0
 10
749.478
 20
57.7849
 30
0.0
 40
0.352778
 41
0.352778
  0
VERTEX
  8
0
 10
749.478
 20
28.7562
 30
0.0
 40
0.352778
 41
0.352778
  0
VERTEX
  8
0
 10
733.603
 20
28.7562
 30
0.0
 40
0.352778
 41
0.352778
  0
VERTEX
  8
0
 10
733.603
 20
231.957
 30
0.0
 40
0.352778
 41
0.352778
  0
VERTEX
  8
0
 10
752.653
 20
231.957
 30
0.0
 40
0.352778
 41
0.352778
  0
VERTEX
  8
0
 10
752.653
 20
260.985
 30
0.0
 40
0.352778
 41
0.352778
  0
VERTEX
  8
0
 10
749.478
 20
260.985
 30
0.0
 40
0.352778
 41
0.352778
  0
VERTEX
  8
0
 10
749.478
 20
290.014
 30
0.0
 40
0.352778
 41
0.352778
  0
VERTEX
  8
0
 10
752.653
 20
290.014
 30
0.0
 40
0.352778
 41
0.352778
  0
VERTEX
  8
0
 10
752.653
 20
319.043
 30
0.0
 40
0.352778
 41
0.352778
  0
VERTEX
  8
0
 10
749.478
 20
319.043
 30
0.0
 40
0.352778
 41
0.352778
  0
VERTEX
  8
0
 10
749.478
 20
348.071
 30
0.0
 40
0.352778
 41
0.352778
  0
VERTEX
  8
0
 10
752.653
 20
348.071
 30
0.0
 40
0.352778
 41
0.352778
  0
VERTEX
  8
0
 10
752.653
 20
377.1
 30
0.0
 40
0.352778
 41
0.352778
  0
VERTEX
  8
0
 10
749.478
 20
377.1
 30
0.0
 40
0.352778
 41
0.352778
  0
VERTEX
  8
0
 10
749.478
 20
406.128
 30
0.0
 40
0.352778
 41
0.352778
  0
VERTEX
  8
0
 10
752.653
 20
406.128
 30
0.0
 40
0.352778
 41
0.352778
  0
VERTEX
  8
0
 10
752.653
 20
435.157
 30
0.0
 40
0.352778
 41
0.352778
  0
VERTEX
  8
0
 10
736.778
 20
435.157
 30
0.0
 40
0.352778
 41
0.352778
  0
SEQEND
 8
0
  0
POLYLINE
  8
0
 62
     0
 66
     1
 10
0
 20
0
 30
0.0
 40
25.4
 41
25.4
  0
VERTEX
  8
0
 10
704.574
 20
73.2063
 30
0.0
 40
0.352778
 41
0.352778
  0
VERTEX
  8
0
 10
704.574
 20
70.0313
 30
0.0
 40
0.352778
 41
0.352778
  0
VERTEX
  8
0
 10
675.546
 20
70.0313
 30
0.0
 40
0.352778
 41
0.352778
  0
VERTEX
  8
0
 10
675.546
 20
73.2063
 30
0.0
 40
0.352778
 41
0.352778
  0
SEQEND
 8
0
  0
POLYLINE
  8
0
 62
     0
 66
     1
 10
0
 20
0
 30
0.0
 40
25.4
 41
25.4
  0
VERTEX
  8
0
 10
646.517
 20
73.2063
 30
0.0
 40
0.352778
 41
0.352778
  0
VERTEX
  8
0
 10
646.517
 20
70.0313
 30
0.0
 40
0.352778
 41
0.352778
  0
VERTEX
  8
0
 10
617.488
 20
70.0313
 30
0.0
 40
0.352778
 41
0.352778
  0
VERTEX
  8
0
 10
617.488
 20
73.2063
 30
0.0
 40
0.352778
 41
0.352778
  0
SEQEND
 8
0
  0
POLYLINE
  8
0
 62
     0
 66
     1
 10
0
 20
0
 30
0.0
 40
25.4
 41
25.4
  0
VERTEX
  8
0
 10
588.46
 20
73.2063
 30
0.0
 40
0.352778
 41
0.352778
  0
VERTEX
  8
0
 10
588.46
 20
70.0313
 30
0.0
 40
0.352778
 41
0.352778
  0
VERTEX
  8
0
 10
559.431
 20
70.0313
 30
0.0
 40
0.352778
 41
0.352778
  0
VERTEX
  8
0
 10
559.431
 20
73.2063
 30
0.0
 40
0.352778
 41
0.352778
  0
SEQEND
 8
0
  0
POLYLINE
  8
0
 62
     0
 66
     1
 10
0
 20
0
 30
0.0
 40
25.4
 41
25.4
  0
VERTEX
  8
0
 10
365.301
 20
73.2063
 30
0.0
 40
0.352778
 41
0.352778
  0
VERTEX
  8
0
 10
365.301
 20
70.0313
 30
0.0
 40
0.352778
 41
0.352778
  0
VERTEX
  8
0
 10
397.051
 20
70.0313
 30
0.0
 40
0.352778
 41
0.352778
  0
VERTEX
  8
0
 10
397.051
 20
73.2063
 30
0.0
 40
0.352778
 41
0.352778
  0
SEQEND
 8
0
  0
POLYLINE
  8
0
 62
     0
 66
     1
 10
0
 20
0
 30
0.0
 40
25.4
 41
25.4
  0
VERTEX
  8
0
 10
333.551
 20
73.2063
 30
0.0
 40
0.352778
 41
0.352778
  0
VERTEX
  8
0
 10
333.551
 20
70.0313
 30
0.0
 40
0.352778
 41
0.352778
  0
VERTEX
  8
0
 10
301.801
 20
70.0313
 30
0.0
 40
0.352778
 41
0.352778
  0
VERTEX
  8
0
 10
301.801
 20
73.2063
 30
0.0
 40
0.352778
 41
0.352778
  0
SEQEND
 8
0
  0
POLYLINE
  8
0
 62
     0
 66
     1
 10
0
 20
0
 30
0.0
 40
25.4
 41
25.4
  0
VERTEX
  8
0
 10
270.051
 20
73.2063
 30
0.0
 40
0.352778
 41
0.352778
  0
VERTEX
  8
0
 10
270.051
 20
70.0313
 30
0.0
 40
0.352778
 41
0.352778
  0
VERTEX
  8
0
 10
320.851
 20
16.0561
 30
0.0
 40
0.352778
 41
0.352778
  0
SEQEND
 8
0
  0
POLYLINE
  8
0
 62
     0
 66
     1
 10
0
 20
0
 30
0.0
 40
25.4
 41
25.4
  0
VERTEX
  8
0
 10
530.403
 20
70.0313
 30
0.0
 40
0.352778
 41
0.352778
  0
VERTEX
  8
0
 10
492.303
 20
70.0313
 30
0.0
 40
0.352778
 41
0.352778
  0
VERTEX
  8
0
 10
492.303
 20
73.2063
 30
0.0
 40
0.352778
 41
0.352778
  0
SEQEND
 8
0
  0
POLYLINE
  8
0
 62
     0
 66
     1
 10
0
 20
0
 30
0.0
 40
25.4
 41
25.4
  0
VERTEX
  8
0
 10
460.553
 20
73.2063
 30
0.0
 40
0.352778
 41
0.352778
  0
VERTEX
  8
0
 10
460.553
 20
70.0313
 30
0.0
 40
0.352778
 41
0.352778
  0
VERTEX
  8
0
 10
428.803
 20
70.0313
 30
0.0
 40
0.352778
 41
0.352778
  0
VERTEX
  8
0
 10
428.803
 20
73.2063
 30
0.0
 40
0.352778
 41
0.352778
  0
SEQEND
 8
0
  0
POLYLINE
  8
0
 62
     0
 66
     1
 10
0
 20
0
 30
0.0
 40
25.4
 41
25.4
  0
VERTEX
  8
0
 10
611.137
 20
41.4563
 30
0.0
 40
0.352778
 41
0.352778
  0
VERTEX
  8
0
 10
582.11
 20
41.4563
 30
0.0
 40
0.352778
 41
0.352778
  0
VERTEX
  8
0
 10
582.11
 20
44.6312
 30
0.0
 40
0.352778
 41
0.352778
  0
VERTEX
  8
0
 10
553.081
 20
44.6312
 30
0.0
 40
0.352778
 41
0.352778
  0
VERTEX
  8
0
 10
553.081
 20
38.2813
 30
0.0
 40
0.352778
 41
0.352778
  0
VERTEX
  8
0
 10
582.11
 20
38.2813
 30
0.0
 40
0.352778
 41
0.352778
  0
VERTEX
  8
0
 10
582.11
 20
41.4563
 30
0.0
 40
0.352778
 41
0.352778
  0
SEQEND
 8
0
  0
POLYLINE
  8
0
 62
     0
 66
     1
 10
0
 20
0
 30
0.0
 40
25.4
 41
25.4
  0
VERTEX
  8
0
 10
669.196
 20
41.4563
 30
0.0
 40
0.352778
 41
0.352778
  0
VERTEX
  8
0
 10
640.167
 20
41.4563
 30
0.0
 40
0.352778
 41
0.352778
  0
VERTEX
  8
0
 10
640.167
 20
44.6312
 30
0.0
 40
0.352778
 41
0.352778
  0
VERTEX
  8
0
 10
611.137
 20
44.6312
 30
0.0
 40
0.352778
 41
0.352778
  0
VERTEX
  8
0
 10
611.137
 20
38.2813
 30
0.0
 40
0.352778
 41
0.352778
  0
VERTEX
  8
0
 10
640.167
 20
38.2813
 30
0.0
 40
0.352778
 41
0.352778
  0
VERTEX
  8
0
 10
640.167
 20
41.4563
 30
0.0
 40
0.352778
 41
0.352778
  0
SEQEND
 8
0
  0
POLYLINE
  8
0
 62
     0
 66
     1
 10
0
 20
0
 30
0.0
 40
25.4
 41
25.4
  0
VERTEX
  8
0
 10
727.253
 20
41.4563
 30
0.0
 40
0.352778
 41
0.352778
  0
VERTEX
  8
0
 10
698.224
 20
41.4563
 30
0.0
 40
0.352778
 41
0.352778
  0
VERTEX
  8
0
 10
698.224
 20
44.6312
 30
0.0
 40
0.352778
 41
0.352778
  0
VERTEX
  8
0
 10
669.196
 20
44.6312
 30
0.0
 40
0.352778
 41
0.352778
  0
VERTEX
  8
0
 10
669.196
 20
38.2813
 30
0.0
 40
0.352778
 41
0.352778
  0
VERTEX
  8
0
 10
698.224
 20
38.2813
 30
0.0
 40
0.352778
 41
0.352778
  0
VERTEX
  8
0
 10
698.224
 20
41.4563
 30
0.0
 40
0.352778
 41
0.352778
  0
SEQEND
 8
0
  0
POLYLINE
  8
0
 62
     0
 66
     1
 10
0
 20
0
 30
0.0
 40
25.4
 41
25.4
  0
VERTEX
  8
0
 10
698.224
 20
25.5812
 30
0.0
 40
0.352778
 41
0.352778
  0
VERTEX
  8
0
 10
698.224
 20
22.4063
 30
0.0
 40
0.352778
 41
0.352778
  0
VERTEX
  8
0
 10
669.196
 20
22.4063
 30
0.0
 40
0.352778
 41
0.352778
  0
VERTEX
  8
0
 10
669.196
 20
25.5812
 30
0.0
 40
0.352778
 41
0.352778
  0
SEQEND
 8
0
  0
POLYLINE
  8
0
 62
     0
 66
     1
 10
0
 20
0
 30
0.0
 40
25.4
 41
25.4
  0
VERTEX
  8
0
 10
640.167
 20
25.5812
 30
0.0
 40
0.352778
 41
0.352778
  0
VERTEX
  8
0
 10
640.167
 20
22.4063
 30
0.0
 40
0.352778
 41
0.352778
  0
VERTEX
  8
0
 10
611.137
 20
22.4063
 30
0.0
 40
0.352778
 41
0.352778
  0
VERTEX
  8
0
 10
611.137
 20
25.5812
 30
0.0
 40
0.352778
 41
0.352778
  0
SEQEND
 8
0
  0
POLYLINE
  8
0
 62
     0
 66
     1
 10
0
 20
0
 30
0.0
 40
25.4
 41
25.4
  0
VERTEX
  8
0
 10
582.11
 20
25.5812
 30
0.0
 40
0.352778
 41
0.352778
  0
VERTEX
  8
0
 10
582.11
 20
22.4063
 30
0.0
 40
0.352778
 41
0.352778
  0
VERTEX
  8
0
 10
553.081
 20
22.4063
 30
0.0
 40
0.352778
 41
0.352778
  0
VERTEX
  8
0
 10
553.081
 20
25.5812
 30
0.0
 40
0.352778
 41
0.352778
  0
SEQEND
 8
0
  0
POLYLINE
  8
0
 62
     0
 66
     1
 10
0
 20
0
 30
0.0
 40
25.4
 41
25.4
  0
VERTEX
  8
0
 10
524.053
 20
9.70617
 30
0.0
 40
0.352778
 41
0.352778
  0
VERTEX
  8
0
 10
727.253
 20
9.70617
 30
0.0
 40
0.352778
 41
0.352778
  0
VERTEX
  8
0
 10
727.253
 20
25.5812
 30
0.0
 40
0.352778
 41
0.352778
  0
VERTEX
  8
0
 10
524.053
 20
25.5812
 30
0.0
 40
0.352778
 41
0.352778
  0
SEQEND
 8
0
  0
POLYLINE
  8
0
 62
     0
 66
     1
 10
0
 20
0
 30
0.0
 40
25.4
 41
25.4
  0
VERTEX
  8
0
 10
495.024
 20
16.0561
 30
0.0
 40
0.352778
 41
0.352778
  0
VERTEX
  8
0
 10
495.024
 20
12.8812
 30
0.0
 40
0.352778
 41
0.352778
  0
VERTEX
  8
0
 10
465.994
 20
12.8812
 30
0.0
 40
0.352778
 41
0.352778
  0
VERTEX
  8
0
 10
465.994
 20
16.0561
 30
0.0
 40
0.352778
 41
0.352778
  0
SEQEND
 8
0
  0
POLYLINE
  8
0
 62
     0
 66
     1
 10
0
 20
0
 30
0.0
 40
25.4
 41
25.4
  0
VERTEX
  8
0
 10
436.967
 20
16.0561
 30
0.0
 40
0.352778
 41
0.352778
  0
VERTEX
  8
0
 10
436.967
 20
12.8812
 30
0.0
 40
0.352778
 41
0.352778
  0
VERTEX
  8
0
 10
407.938
 20
12.8812
 30
0.0
 40
0.352778
 41
0.352778
  0
VERTEX
  8
0
 10
407.938
 20
16.0561
 30
0.0
 40
0.352778
 41
0.352778
  0
SEQEND
 8
0
  0
POLYLINE
  8
0
 62
     0
 66
     1
 10
0
 20
0
 30
0.0
 40
25.4
 41
25.4
  0
VERTEX
  8
0
 10
378.91
 20
16.0561
 30
0.0
 40
0.352778
 41
0.352778
  0
VERTEX
  8
0
 10
378.91
 20
12.8812
 30
0.0
 40
0.352778
 41
0.352778
  0
VERTEX
  8
0
 10
349.881
 20
12.8812
 30
0.0
 40
0.352778
 41
0.352778
  0
VERTEX
  8
0
 10
349.881
 20
16.0561
 30
0.0
 40
0.352778
 41
0.352778
  0
SEQEND
 8
0
  0
POLYLINE
  8
0
 62
     0
 66
     1
 10
0
 20
0
 30
0.0
 40
25.4
 41
25.4
  0
VERTEX
  8
0
 10
320.851
 20
16.0561
 30
0.0
 40
0.352778
 41
0.352778
  0
VERTEX
  8
0
 10
320.851
 20
0.181153
 30
0.0
 40
0.352778
 41
0.352778
  0
VERTEX
  8
0
 10
524.053
 20
0.181153
 30
0.0
 40
0.352778
 41
0.352778
  0
SEQEND
 8
0
  0
POLYLINE
  8
0
 62
     0
 66
     1
 10
0
 20
0
 30
0.0
 40
25.4
 41
25.4
  0
VERTEX
  8
0
 10
262.794
 20
16.0561
 30
0.0
 40
0.352778
 41
0.352778
  0
VERTEX
  8
0
 10
262.794
 20
12.8812
 30
0.0
 40
0.352778
 41
0.352778
  0
VERTEX
  8
0
 10
291.824
 20
12.8812
 30
0.0
 40
0.352778
 41
0.352778
  0
VERTEX
  8
0
 10
291.824
 20
16.0561
 30
0.0
 40
0.352778
 41
0.352778
  0
VERTEX
  8
0
 10
524.053
 20
16.0561
 30
0.0
 40
0.352778
 41
0.352778
  0
SEQEND
 8
0
  0
POLYLINE
  8
0
 62
     0
 66
     1
 10
0
 20
0
 30
0.0
 40
25.4
 41
25.4
  0
VERTEX
  8
0
 10
233.767
 20
16.0561
 30
0.0
 40
0.352778
 41
0.352778
  0
VERTEX
  8
0
 10
233.767
 20
12.8812
 30
0.0
 40
0.352778
 41
0.352778
  0
VERTEX
  8
0
 10
204.737
 20
12.8812
 30
0.0
 40
0.352778
 41
0.352778
  0
VERTEX
  8
0
 10
204.737
 20
16.0561
 30
0.0
 40
0.352778
 41
0.352778
  0
SEQEND
 8
0
  0
POLYLINE
  8
0
 62
     0
 66
     1
 10
0
 20
0
 30
0.0
 40
25.4
 41
25.4
  0
VERTEX
  8
0
 10
175.708
 20
16.0561
 30
0.0
 40
0.352778
 41
0.352778
  0
VERTEX
  8
0
 10
175.708
 20
12.8812
 30
0.0
 40
0.352778
 41
0.352778
  0
VERTEX
  8
0
 10
146.681
 20
12.8812
 30
0.0
 40
0.352778
 41
0.352778
  0
VERTEX
  8
0
 10
146.681
 20
16.0561
 30
0.0
 40
0.352778
 41
0.352778
  0
SEQEND
 8
0
  0
POLYLINE
  8
0
 62
     0
 66
     1
 10
0
 20
0
 30
0.0
 40
25.4
 41
25.4
  0
VERTEX
  8
0
 10
117.652
 20
16.0561
 30
0.0
 40
0.352778
 41
0.352778
  0
VERTEX
  8
0
 10
117.652
 20
0.181153
 30
0.0
 40
0.352778
 41
0.352778
  0
VERTEX
  8
0
 10
320.851
 20
0.181153
 30
0.0
 40
0.352778
 41
0.352778
  0
SEQEND
 8
0
  0
ENDSEC
  0
EOF
